<?xml version="1.0" encoding="iso-8859-1"?>
<!-- Generator: Adobe Illustrator 21.0.0, SVG Export Plug-In . SVG Version: 6.00 Build 0)  -->
<svg xmlns="http://www.w3.org/2000/svg" xmlns:xlink="http://www.w3.org/1999/xlink" version="1.1" id="Capa_1" x="0px" y="0px" viewBox="0 0 512.001 512.001" style="enable-background:new 0 0 512.001 512.001;" xml:space="preserve" width="512" height="512">
<g>
	<g>
		<circle style="fill-rule:evenodd;clip-rule:evenodd;fill:#FD4848;" cx="256.001" cy="105.002" r="55"/>
		<circle style="fill-rule:evenodd;clip-rule:evenodd;fill:#FFBA4A;" cx="256.001" cy="256.001" r="55"/>
		<circle style="fill-rule:evenodd;clip-rule:evenodd;fill:#8FD57C;" cx="256.001" cy="407.001" r="55"/>
		<path style="fill-rule:evenodd;clip-rule:evenodd;fill:#6A87C1;" d="M256.001,352.001c30.376,0,55,24.624,55,55    c0,30.376-24.624,55-55,55s-55-24.624-55-55C201,376.625,225.625,352.001,256.001,352.001L256.001,352.001z M146.001,486.002    c0,8.8,7.201,16,16,16h188c8.8,0,16-7.2,16-16v-24.002v-110v-40.999v-110v-40.999v-110V26c0-8.799-7.2-16-16-16h-188    c-8.8,0-16,7.2-16,16v24.002v110v40.999v110v40.999v110V486.002L146.001,486.002z M311.001,256.001c0,30.376-24.624,55-55,55    s-55-24.624-55-55s24.624-55,55-55S311.001,225.626,311.001,256.001L311.001,256.001z M311.001,105.002c0,30.376-24.624,55-55,55    s-55-24.624-55-55c0-30.376,24.624-55,55-55S311.001,74.626,311.001,105.002z"/>
		<polygon style="fill-rule:evenodd;clip-rule:evenodd;fill:#64759D;" points="366.001,201.001 366.001,311.001 405.999,311.001     436,201.001   "/>
		<polygon style="fill-rule:evenodd;clip-rule:evenodd;fill:#64759D;" points="436,352.001 366.001,352.001 366.001,462.001     405.999,462.001   "/>
		<polygon style="fill-rule:evenodd;clip-rule:evenodd;fill:#64759D;" points="366.001,160.002 405.999,160.002 436,50.002     366.001,50.002   "/>
		<polygon style="fill-rule:evenodd;clip-rule:evenodd;fill:#64759D;" points="146.001,160.002 146.001,50.002 76.001,50.002     106.002,160.002   "/>
		<polygon style="fill-rule:evenodd;clip-rule:evenodd;fill:#64759D;" points="146.001,201.001 76.001,201.001 106.002,311.001     146.001,311.001   "/>
		<polygon style="fill-rule:evenodd;clip-rule:evenodd;fill:#64759D;" points="146.001,352.001 76.001,352.001 106.002,462.001     146.001,462.001   "/>
	</g>
	<g>
		<path d="M256.001,40.001c-35.841,0-65,29.159-65,65s29.159,65,65,65s65-29.159,65-65S291.842,40.001,256.001,40.001z     M256.001,150.001c-24.813,0-45-20.187-45-45s20.187-45,45-45s45,20.187,45,45S280.814,150.001,256.001,150.001z"/>
		<path d="M270,492.001H162.001c-3.252,0-6-2.748-6-6V26c0-3.252,2.748-6,6-6c5.523,0,10-4.477,10-10s-4.477-10-10-10    c-14.336,0-26,11.664-26,26v14.001h0H76.001c-3.117,0-6.055,1.453-7.947,3.93c-1.892,2.477-2.521,5.694-1.7,8.701l30.001,110    c1.187,4.351,5.138,7.369,9.647,7.369H136h0v21h0H76.001c-3.117,0-6.055,1.453-7.947,3.93c-1.892,2.477-2.521,5.694-1.7,8.701    l30.001,110c1.187,4.351,5.138,7.369,9.647,7.369H136h0V342h0H76.001c-3.117,0-6.055,1.453-7.947,3.93    c-1.892,2.477-2.521,5.694-1.7,8.701l30.001,110c1.187,4.351,5.138,7.369,9.647,7.369H136h0v14.001c0,14.336,11.664,26,26,26H270    c5.523,0,10-4.477,10-10S275.523,492.001,270,492.001z M136,150.001h-22.36l-24.546-90H136h0L136,150.001L136,150.001z     M136,301.001h-22.36l-24.546-90H136h0L136,301.001L136,301.001z M136,452h-22.36l-24.546-90H136h0L136,452L136,452z"/>
		<path d="M256.001,342c-35.841,0-65,29.159-65,65s29.159,65,65,65s65-29.159,65-65S291.842,342,256.001,342z M256.001,452    c-24.813,0-45-20.187-45-45s20.187-45,45-45s45,20.187,45,45S280.814,452,256.001,452z"/>
		<path d="M256.001,191.001c-35.841,0-65,29.159-65,65s29.159,65,65,65s65-29.159,65-65S291.842,191.001,256.001,191.001z     M256.001,301.001c-24.813,0-45-20.187-45-45s20.187-45,45-45s45,20.187,45,45S280.814,301.001,256.001,301.001z"/>
		<path d="M376.001,321.001h29.998c4.51,0,8.461-3.018,9.647-7.369l30.001-110c0.82-3.007,0.191-6.224-1.7-8.701    c-1.892-2.477-4.831-3.93-7.947-3.93h-59.999h0v-21h0h29.998c4.51,0,8.461-3.018,9.647-7.369l30.001-110    c0.82-3.007,0.191-6.224-1.7-8.701c-1.892-2.477-4.831-3.93-7.947-3.93h-59.999h0V26c0-14.336-11.664-26-26-26h-108    c-5.523,0-10,4.477-10,10s4.477,10,10,10h108c3.252,0,6,2.748,6,6v460.002c0,3.252-2.748,6-6,6c-5.523,0-10,4.477-10,10    s4.477,10,10,10c14.336,0,26-11.664,26-26V472h0h29.998c4.51,0,8.461-3.018,9.647-7.369l30.001-110    c0.82-3.007,0.191-6.224-1.7-8.701c-1.892-2.477-4.831-3.93-7.947-3.93h-59.999h0L376.001,321.001L376.001,321.001z     M376.001,211.001h46.906l-24.546,90h-22.36h0L376.001,211.001L376.001,211.001z M376.001,60.001h46.906l-24.546,90h-22.36h0    L376.001,60.001L376.001,60.001z M376.001,362h46.906l-24.546,90h-22.36h0L376.001,362L376.001,362z"/>
		<path d="M202.005,20c5.523,0,10-4.477,10-10s-4.477-10-10-10h-0.007c-5.523,0-9.996,4.477-9.996,10S196.482,20,202.005,20z"/>
		<path d="M310.004,492.001h-0.007c-5.523,0-9.996,4.477-9.996,10s4.48,10,10.003,10s10-4.477,10-10    S315.527,492.001,310.004,492.001z"/>
	</g>
</g>















</svg>
