<?xml version="1.0" encoding="iso-8859-1"?>
<!-- Generator: Adobe Illustrator 21.0.0, SVG Export Plug-In . SVG Version: 6.00 Build 0)  -->
<svg xmlns="http://www.w3.org/2000/svg" xmlns:xlink="http://www.w3.org/1999/xlink" version="1.1" id="Capa_1" x="0px" y="0px" viewBox="0 0 512.001 512.001" style="enable-background:new 0 0 512.001 512.001;" xml:space="preserve" width="512" height="512">
<g>
	<g>
		<polygon style="fill-rule:evenodd;clip-rule:evenodd;fill:#FF6D2F;" points="217.454,70.002 294.547,70.002 279.329,10     232.673,10   "/>
		<polygon style="fill-rule:evenodd;clip-rule:evenodd;fill:#FFF0D9;" points="294.547,70.002 217.454,70.002 205.28,118.002     306.722,118.002   "/>
		<polygon style="fill-rule:evenodd;clip-rule:evenodd;fill:#FF6D2F;" points="306.722,118.002 205.28,118.002 190.061,178.004     321.94,178.004   "/>
		<polygon style="fill-rule:evenodd;clip-rule:evenodd;fill:#FFF0D9;" points="321.94,178.004 190.061,178.004 177.887,226.004     334.115,226.004   "/>
		<polygon style="fill-rule:evenodd;clip-rule:evenodd;fill:#FF6D2F;" points="334.115,226.004 177.887,226.004 131.275,409.781     380.727,409.781   "/>
		<polygon style="fill-rule:evenodd;clip-rule:evenodd;fill:#FFF0D9;" points="380.727,409.781 131.275,409.781 118.03,462.001     393.972,462.001 393.972,462.001   "/>
		<path style="fill-rule:evenodd;clip-rule:evenodd;fill:#FF6D2F;" d="M393.972,462.001H118.03H66.001c-11,0-20,9-20,20v20h420v-20    c0-11-9-20-20-20H393.972z"/>
	</g>
	<g>
		<path d="M446.001,452.001h-44.249L289.022,7.542C287.897,3.106,283.905,0,279.329,0h-46.656c-4.576,0-8.568,3.106-9.693,7.542    l-112.731,444.46H66.001c-16.542,0-30,13.458-30,30v20c0,5.523,4.477,10,10,10h420c5.523,0,10-4.477,10-10v-20    C476.001,465.459,462.543,452.001,446.001,452.001z M185.667,236.004h140.667l42.102,165.998H143.564L185.667,236.004z     M200.624,188.004c5.523,0,10-4.477,10-10c0-4.757-3.322-8.739-7.773-9.751l10.209-40.251h85.881l10.146,40.002h-28.462    c-5.523,0-10,4.477-10,10s4.477,10,10,10h33.535l7.102,28H190.74l7.102-28H200.624z M225.235,80.002h61.532l7.102,28h-75.736    L225.235,80.002z M240.453,20h31.095l10.146,40.002h-51.387L240.453,20z M456.001,492.001h-400v-10c0-5.514,4.486-10,10-10h237.97    c5.523,0,10-4.477,10-10s-4.477-10-10-10H130.882l7.609-30h235.018l7.709,30.393c-4.182,1.197-7.247,5.04-7.247,9.607    c0,5.523,4.477,10,10,10h62.03c5.514,0,10,4.486,10,10V492.001z"/>
		<path d="M343.974,452.001h-0.007c-5.523,0-9.996,4.477-9.996,10s4.48,10,10.003,10s10-4.477,10-10    S349.497,452.001,343.974,452.001z"/>
		<path d="M240.628,188.004c5.523,0,10-4.477,10-10s-4.477-10-10-10h-0.008c-5.523,0-9.996,4.477-9.996,10    S235.105,188.004,240.628,188.004z"/>
	</g>
</g>















</svg>
