<?xml version="1.0" encoding="iso-8859-1"?>
<!-- Generator: Adobe Illustrator 21.0.0, SVG Export Plug-In . SVG Version: 6.00 Build 0)  -->
<svg xmlns="http://www.w3.org/2000/svg" xmlns:xlink="http://www.w3.org/1999/xlink" version="1.1" id="Capa_1" x="0px" y="0px" viewBox="0 0 512 512" style="enable-background:new 0 0 512 512;" xml:space="preserve" width="512" height="512">
<g>
	<g>
		<path style="fill-rule:evenodd;clip-rule:evenodd;fill:#FF836C;" d="M256,10C120.138,10,10,120.138,10,256s110.138,246,246,246    s246-110.138,246-246S391.862,10,256,10L256,10z M256,50c113.77,0,206,92.229,206,206s-92.23,206-206,206S50,369.77,50,256    S142.23,50,256,50z"/>
		<circle style="fill-rule:evenodd;clip-rule:evenodd;fill:#FFF0D9;" cx="256" cy="256" r="206"/>
		<path style="fill-rule:evenodd;clip-rule:evenodd;fill:#FD4848;" d="M142,216h228.001c8.8,0,16,7.2,16,16v48c0,8.8-7.2,16-16,16    H142c-8.8,0-16-7.2-16-16v-48C126,223.2,133.2,216,142,216z"/>
	</g>
	<g>
		<path d="M396.001,232c0-14.336-11.663-26-26-26H142c-14.336,0-26,11.664-26,26v48c0,14.336,11.664,26,26,26h228    c14.337,0,26-11.664,26-26V232z M376.001,280c0,3.252-2.748,6-6,6H142c-3.252,0-6-2.748-6-6v-48c0-3.252,2.748-6,6-6h228    c3.252,0,6,2.748,6,6V280z"/>
		<path d="M437.019,74.98C388.668,26.628,324.381,0,256,0c-53.949,0-105.551,16.591-149.229,47.979    c-4.485,3.223-5.508,9.471-2.285,13.957c3.223,4.485,9.472,5.507,13.956,2.285C158.698,35.291,206.265,20,256,20    c130.13,0,236,105.869,236,236S386.131,492,256,492C125.869,492,20,386.131,20,256c0-49.403,15.103-96.708,43.676-136.8    c3.206-4.498,2.158-10.742-2.34-13.947c-4.496-3.206-10.742-2.158-13.947,2.34C16.387,151.093,0,202.412,0,256    c0,68.38,26.628,132.667,74.98,181.02S187.62,512,256,512s132.667-26.628,181.019-74.98C485.371,388.667,512,324.38,512,256    C512,187.62,485.371,123.333,437.019,74.98z"/>
		<path d="M421.858,378.597c4.593,3.068,10.803,1.833,13.871-2.76c23.729-35.519,36.271-76.958,36.271-119.837    c0-57.696-22.468-111.938-63.265-152.735C367.938,62.467,313.696,40,256,40s-111.938,22.468-152.735,63.265    C62.468,144.062,40,198.304,40,256s22.468,111.938,63.265,152.735C144.062,449.532,198.304,472,256,472    c43.026,0,84.583-12.62,120.175-36.497c4.586-3.077,5.81-9.289,2.733-13.875c-3.077-4.587-9.289-5.809-13.876-2.734    C332.748,440.552,295.045,452,256,452c-108.075,0-196-87.925-196-196S147.926,60,256,60s196,87.925,196,196    c0,38.911-11.377,76.508-32.902,108.727C416.031,369.319,417.266,375.529,421.858,378.597z"/>
		<path d="M82.057,92.047c2.401,0,4.811-0.859,6.727-2.602c4.086-3.715,4.388-10.04,0.673-14.126    c-3.716-4.087-10.04-4.388-14.126-0.673l-0.005,0.005c-4.086,3.715-4.385,10.037-0.67,14.124    C76.628,90.946,79.337,92.047,82.057,92.047z"/>
		<path d="M401.662,411.66c2.721,0,5.433-1.104,7.406-3.275c3.715-4.086,3.414-10.411-0.673-14.126    c-4.087-3.715-10.41-3.414-14.126,0.673l-0.005,0.005c-3.715,4.086-3.411,10.408,0.675,14.123    C396.855,410.801,399.261,411.66,401.662,411.66z"/>
	</g>
</g>















</svg>
