<?xml version="1.0" encoding="iso-8859-1"?>
<!-- Generator: Adobe Illustrator 21.0.0, SVG Export Plug-In . SVG Version: 6.00 Build 0)  -->
<svg xmlns="http://www.w3.org/2000/svg" xmlns:xlink="http://www.w3.org/1999/xlink" version="1.1" id="Capa_1" x="0px" y="0px" viewBox="0 0 512.001 512.001" style="enable-background:new 0 0 512.001 512.001;" xml:space="preserve" width="512" height="512">
<g>
	<g>
		<rect x="36.001" y="10" style="fill-rule:evenodd;clip-rule:evenodd;fill:#EBEBEB;" width="40.001" height="492.002"/>
		<path style="fill-rule:evenodd;clip-rule:evenodd;fill:#64759D;" d="M116.003,196.001h40v120h-40V196.001L116.003,196.001z     M76.002,10v492.002h359.997V10H76.002L76.002,10z M356.002,196.001h40v120h-40V196.001L356.002,196.001z M276.002,196.001h40v120    h-40V196.001L276.002,196.001z M196.002,196.001h40v120h-40V196.001z"/>
		<rect x="116.003" y="196.001" style="fill-rule:evenodd;clip-rule:evenodd;fill:#EBEBEB;" width="40" height="120"/>
		<rect x="196.002" y="196.001" style="fill-rule:evenodd;clip-rule:evenodd;fill:#EBEBEB;" width="40" height="120"/>
		<rect x="276.002" y="196.001" style="fill-rule:evenodd;clip-rule:evenodd;fill:#EBEBEB;" width="40" height="120"/>
		<rect x="356.002" y="196.001" style="fill-rule:evenodd;clip-rule:evenodd;fill:#EBEBEB;" width="40" height="120"/>
		<rect x="435.999" y="10" style="fill-rule:evenodd;clip-rule:evenodd;fill:#EBEBEB;" width="40.001" height="492.002"/>
	</g>
	<g>
		<path d="M36.001,110.001c-5.522,0-10,4.477-10,10v382c0,5.523,4.478,10,10,10s10-4.477,10-10v-382    C46.001,114.479,41.523,110.001,36.001,110.001z"/>
		<path d="M36.001,0c-5.522,0-10,4.477-10,10v30.001c0,5.523,4.478,10,10,10s10-4.477,10-10V10C46.001,4.477,41.523,0,36.001,0z"/>
		<path d="M476.001,0c-5.522,0-10,4.477-10,10v492.001c0,5.523,4.478,10,10,10s10-4.477,10-10V10C486.001,4.477,481.523,0,476.001,0    z"/>
		<path d="M436,0c-5.522,0-10,4.477-10,10v382c0,5.523,4.478,10,10,10s10-4.477,10-10V10C446,4.477,441.522,0,436,0z"/>
		<path d="M436,462c-5.522,0-10,4.477-10,10v30.001c0,5.523,4.478,10,10,10s10-4.477,10-10V472C446,466.478,441.522,462,436,462z"/>
		<path d="M76.003,0c-5.522,0-10,4.477-10,10v492.001c0,5.523,4.478,10,10,10s10-4.477,10-10V10C86.003,4.477,81.525,0,76.003,0z"/>
		<path d="M156.003,186h-40c-5.522,0-10,4.477-10,10v120c0,5.523,4.478,10,10,10h40c5.522,0,10-4.477,10-10V196    C166.003,190.478,161.525,186,156.003,186z M146.003,306h-20V206h20V306z"/>
		<path d="M236.003,186h-40c-5.522,0-10,4.477-10,10v120c0,5.523,4.478,10,10,10h40c5.522,0,10-4.477,10-10V196    C246.003,190.478,241.525,186,236.003,186z M226.003,306h-20V206h20V306z"/>
		<path d="M316.003,186h-40c-5.522,0-10,4.477-10,10v120c0,5.523,4.478,10,10,10h40c5.522,0,10-4.477,10-10V196    C326.003,190.478,321.525,186,316.003,186z M306.003,306h-20V206h20V306z"/>
		<path d="M396.003,186h-40c-5.522,0-10,4.477-10,10v120c0,5.523,4.478,10,10,10h40c5.522,0,10-4.477,10-10V196    C406.003,190.478,401.525,186,396.003,186z M386.003,306h-20V206h20V306z"/>
		<path d="M36.001,69.998c-5.522,0-10,4.477-10,10v0.007c0,5.523,4.478,9.996,10,9.996s10-4.48,10-10.003    S41.523,69.998,36.001,69.998z"/>
		<path d="M436,421.997c-5.522,0-10,4.477-10,10v0.007c0,5.523,4.478,9.996,10,9.996s10-4.48,10-10.003S441.522,421.997,436,421.997    z"/>
	</g>
</g>















</svg>
