<?xml version="1.0" encoding="iso-8859-1"?>
<!-- Generator: Adobe Illustrator 21.0.0, SVG Export Plug-In . SVG Version: 6.00 Build 0)  -->
<svg xmlns="http://www.w3.org/2000/svg" xmlns:xlink="http://www.w3.org/1999/xlink" version="1.1" id="Capa_1" x="0px" y="0px" viewBox="0 0 512 512" style="enable-background:new 0 0 512 512;" xml:space="preserve" width="512" height="512">
<g>
	<g>
		<path style="fill-rule:evenodd;clip-rule:evenodd;fill:#8FD57C;" d="M65.64,334.908C55.412,310.214,50,283.432,50,256    c0-27.432,5.412-54.215,15.64-78.908c10.203-24.632,25.299-47.362,44.694-66.757c7.809-7.81,7.809-20.472,0-28.281    c-7.81-7.809-20.472-7.809-28.281,0c-22.988,22.988-40.989,50.191-53.288,79.882C16.493,191.564,10,223.494,10,256    s6.494,64.436,18.766,94.064c12.298,29.691,30.3,56.894,53.288,79.882c7.809,7.809,20.472,7.809,28.281,0    c7.809-7.81,7.809-20.472,0-28.281C90.939,382.27,75.843,359.539,65.64,334.908z"/>
		<circle style="fill-rule:evenodd;clip-rule:evenodd;fill:#FFF0D9;" cx="256" cy="256" r="166"/>
		<path style="fill-rule:evenodd;clip-rule:evenodd;fill:#8FD57C;" d="M446.36,334.908c-10.203,24.632-25.299,47.362-44.694,66.757    c-7.809,7.81-7.809,20.472,0,28.281c7.81,7.809,20.472,7.809,28.281,0c22.988-22.988,40.989-50.191,53.288-79.882    C495.507,320.436,502,288.506,502,256s-6.494-64.436-18.766-94.064c-12.298-29.691-30.3-56.894-53.288-79.882    c-7.809-7.809-20.472-7.809-28.281,0c-7.809,7.81-7.809,20.472,0,28.281c19.395,19.395,34.491,42.125,44.694,66.757    C456.588,201.785,462,228.568,462,256C462,283.432,456.588,310.214,446.36,334.908z"/>
		<path style="fill-rule:evenodd;clip-rule:evenodd;fill:#8FD57C;" d="M313.331,162.453c-18.092-7.494-37.554-11.459-57.331-11.459    s-39.239,3.965-57.331,11.459c-18.154,7.52-34.754,18.492-48.741,32.48c-7.809,7.809-7.809,20.472,0,28.281    c7.809,7.809,20.472,7.809,28.281,0c10.394-10.394,22.521-18.462,35.616-23.886c13.158-5.45,27.471-8.334,42.175-8.334    c14.704,0,29.017,2.884,42.175,8.334c13.096,5.424,25.222,13.492,35.616,23.886c7.81,7.809,20.472,7.809,28.281,0    c7.809-7.809,7.809-20.472,0-28.281C348.085,180.945,331.485,169.972,313.331,162.453z"/>
		<path style="fill-rule:evenodd;clip-rule:evenodd;fill:#8FD57C;" d="M282.716,236.363c-8.477-3.511-17.548-5.37-26.717-5.37    c-9.169,0-18.239,1.858-26.717,5.37c-8.54,3.537-16.301,8.652-22.787,15.138c-7.809,7.81-7.809,20.472,0,28.281    c7.809,7.809,20.472,7.809,28.281,0c2.893-2.893,6.182-5.103,9.663-6.544c3.543-1.467,7.466-2.244,11.56-2.244    c4.095,0,8.017,0.777,11.56,2.244c3.481,1.442,6.77,3.652,9.662,6.544c7.81,7.809,20.472,7.809,28.281,0    c7.809-7.81,7.809-20.472,0-28.281C299.018,245.015,291.256,239.9,282.716,236.363z"/>
		<circle style="fill-rule:evenodd;clip-rule:evenodd;fill:#8FD57C;" cx="256" cy="341.006" r="20"/>
	</g>
	<g>
		<path d="M117.406,394.594c-18.373-18.372-32.681-39.741-42.527-63.513C65.006,307.245,60,281.984,60,256    s5.006-51.246,14.879-75.082c9.847-23.772,24.154-45.141,42.527-63.513c11.695-11.696,11.695-30.727,0-42.422    c-5.666-5.666-13.199-8.786-21.212-8.786c-8.014,0-15.547,3.12-21.212,8.786c-23.813,23.812-42.471,51.78-55.455,83.126    C6.57,189.39,0,222.325,0,256s6.57,66.61,19.527,97.891c12.984,31.346,31.642,59.313,55.455,83.126    c5.665,5.666,13.198,8.786,21.212,8.786c8.013,0,15.546-3.12,21.212-8.787C129.101,425.321,129.101,406.291,117.406,394.594    C117.406,394.594,117.406,394.594,117.406,394.594z M103.265,422.875c-1.889,1.888-4.399,2.928-7.07,2.928    s-5.182-1.04-7.069-2.928c-21.947-21.946-39.146-47.731-51.121-76.638C26.058,317.396,20,287.035,20,256    s6.058-61.396,18.004-90.237c11.975-28.908,29.174-54.692,51.121-76.638c1.888-1.888,4.398-2.928,7.069-2.928    s5.182,1.04,7.069,2.928c3.898,3.898,3.897,10.241,0.001,14.139c-20.239,20.238-36.007,43.79-46.862,70.001    C45.519,199.54,40,227.375,40,256c0,28.624,5.519,56.46,16.401,82.734c10.856,26.211,26.623,49.763,46.862,70.001    C107.161,412.634,107.161,418.978,103.265,422.875z"/>
		<path d="M492.473,158.109c-12.982-31.344-31.64-59.312-55.454-83.126c-5.666-5.666-13.199-8.786-21.212-8.786    c-8.014,0-15.547,3.12-21.212,8.786s-8.786,13.199-8.786,21.212c0,8.013,3.121,15.546,8.786,21.211    c18.372,18.372,32.68,39.741,42.526,63.513C446.994,204.754,452,230.016,452,256c0,21.579-3.494,42.82-10.385,63.135    c-1.774,5.23,1.027,10.908,6.258,12.682c5.229,1.775,10.907-1.027,12.682-6.257C468.149,303.171,472,279.768,472,256    c0-28.625-5.519-56.46-16.401-82.735c-10.856-26.21-26.623-49.763-46.861-70.001c-1.889-1.889-2.929-4.399-2.929-7.07    c0-2.671,1.04-5.181,2.929-7.07c1.888-1.888,4.398-2.928,7.069-2.928s5.182,1.04,7.069,2.928    c21.948,21.948,39.147,47.732,51.12,76.638C485.942,194.604,492,224.965,492,256s-6.058,61.396-18.004,90.237    c-11.973,28.905-29.172,54.689-51.119,76.638c-1.889,1.888-4.399,2.928-7.07,2.928s-5.182-1.04-7.069-2.928    c-3.898-3.898-3.898-10.241,0-14.14c3.357-3.357,6.647-6.871,9.778-10.442c3.642-4.152,3.227-10.471-0.926-14.112    c-4.153-3.641-10.471-3.226-14.111,0.926c-2.845,3.245-5.834,6.436-8.884,9.486c-11.696,11.696-11.696,30.727,0,42.423    c5.665,5.666,13.198,8.786,21.212,8.786c8.013,0,15.546-3.12,21.212-8.786c23.814-23.815,42.473-51.783,55.454-83.126    C505.43,322.61,512,289.675,512,256S505.43,189.39,492.473,158.109z"/>
		<path d="M256,80c-32.067,0-63.465,8.719-90.8,25.214c-4.729,2.854-6.248,9-3.395,13.729c2.852,4.728,8.998,6.248,13.729,3.395    C199.75,107.725,227.575,100,256,100c86.019,0,155.999,69.981,155.999,156S342.019,412,256,412s-156-69.981-156-156    c0-28.412,7.714-56.219,22.309-80.417c2.852-4.729,1.33-10.875-3.399-13.728c-4.727-2.852-10.875-1.331-13.728,3.398    C88.708,192.569,80,223.948,80,256c0,97.046,78.953,176,176,176c97.046,0,175.999-78.953,175.999-176    C431.999,158.953,353.046,80,256,80z"/>
		<path d="M138.613,148.622c2.721,0,5.433-1.104,7.406-3.275c3.715-4.086,3.414-10.411-0.673-14.126    c-4.087-3.715-10.41-3.414-14.126,0.673l-0.005,0.005c-3.715,4.086-3.411,10.408,0.675,14.123    C133.807,147.763,136.213,148.622,138.613,148.622z"/>
		<path d="M425.715,354.045c-2.74,4.795-1.072,10.9,3.724,13.64c1.563,0.894,3.268,1.319,4.949,1.319    c3.473,0,6.85-1.812,8.696-5.043c2.74-4.795,1.074-10.904-3.722-13.644c-4.793-2.741-10.903-1.073-13.644,3.721L425.715,354.045z"/>
		<path d="M312.575,286.853c5.665-5.666,8.786-13.199,8.786-21.212c0-8.013-3.121-15.546-8.787-21.212    c-7.389-7.389-16.147-13.211-26.03-17.305c-9.821-4.068-20.098-6.131-30.544-6.131s-20.723,2.063-30.544,6.131    c-9.885,4.095-18.644,9.917-26.031,17.306c-11.696,11.696-11.696,30.728,0,42.424c5.849,5.848,13.53,8.771,21.212,8.771    s15.363-2.924,21.211-8.771c0.001,0,0.001,0,0.001,0c1.946-1.947,4.105-3.419,6.418-4.377c2.376-0.984,4.978-1.483,7.733-1.483    s5.357,0.499,7.734,1.483c2.312,0.958,4.471,2.43,6.418,4.377C281.848,298.549,300.878,298.549,312.575,286.853z M271.388,264    c-4.814-1.995-9.992-3.006-15.388-3.006s-10.573,1.011-15.387,3.006c-4.752,1.968-9.094,4.899-12.906,8.712    c-3.9,3.898-10.243,3.897-14.14,0c-1.889-1.889-2.929-4.399-2.929-7.07c0-2.67,1.04-5.181,2.929-7.07    c5.521-5.521,12.097-9.885,19.543-12.97c7.382-3.058,15.083-4.608,22.89-4.608s15.508,1.55,22.89,4.608    c7.445,3.084,14.021,7.448,19.543,12.97c1.889,1.889,2.929,4.399,2.929,7.07c0,2.671-1.04,5.182-2.928,7.07    c-3.9,3.898-10.241,3.897-14.14,0.001C280.481,268.898,276.139,265.967,271.388,264z"/>
		<path d="M347.932,239.057c7.682,0,15.363-2.924,21.212-8.772c5.666-5.666,8.786-13.199,8.786-21.211s-3.12-15.546-8.786-21.211    c-14.855-14.855-32.347-26.513-51.985-34.647c-19.576-8.109-40.153-12.221-61.158-12.221s-41.582,4.112-61.157,12.221    c-19.64,8.134-37.13,19.791-51.986,34.647c-5.666,5.666-8.786,13.199-8.786,21.211s3.12,15.546,8.786,21.211    c11.697,11.696,30.727,11.696,42.424,0c9.412-9.413,20.304-16.72,32.372-21.718c12.13-5.025,25.032-7.573,38.348-7.573    s26.218,2.548,38.349,7.573c12.067,4.998,22.959,12.305,32.371,21.718C332.568,236.132,340.25,239.057,347.932,239.057z     M256,180.994c-15.955,0-31.433,3.06-46.001,9.095c-14.508,6.008-27.582,14.774-38.861,26.054c-3.898,3.897-10.24,3.897-14.139,0    c-1.889-1.889-2.929-4.399-2.929-7.07s1.04-5.181,2.929-7.07c12.989-12.989,28.297-23.188,45.497-30.312    c17.138-7.099,35.139-10.698,53.504-10.698s36.366,3.599,53.504,10.698c17.201,7.125,32.509,17.323,45.497,30.312    c1.889,1.889,2.929,4.399,2.929,7.07s-1.04,5.181-2.929,7.07c-3.897,3.898-10.241,3.898-14.139,0    c-11.279-11.28-24.354-20.045-38.86-26.054C287.433,184.054,271.955,180.994,256,180.994z"/>
		<path d="M226,341.006c0,16.542,13.458,30,30,30s30-13.458,30-30c0-16.542-13.458-30-30-30S226,324.464,226,341.006z M266,341.006    c0,5.514-4.486,10-10,10s-10-4.486-10-10s4.486-10,10-10S266,335.492,266,341.006z"/>
	</g>
</g>















</svg>
