<?xml version="1.0" encoding="iso-8859-1"?>
<!-- Generator: Adobe Illustrator 21.0.0, SVG Export Plug-In . SVG Version: 6.00 Build 0)  -->
<svg xmlns="http://www.w3.org/2000/svg" xmlns:xlink="http://www.w3.org/1999/xlink" version="1.1" id="Capa_1" x="0px" y="0px" viewBox="0 0 512 512" style="enable-background:new 0 0 512 512;" xml:space="preserve" width="512" height="512">
<g>
	<g>
		<path style="fill-rule:evenodd;clip-rule:evenodd;fill:#FF836C;" d="M170.673,50.002L341.326,50l120.672,120.673L462,341.326    L341.327,461.998L170.675,462L50.002,341.327L50,170.675L170.673,50.002L170.673,50.002z M363.771,15.877    C360.192,12.249,355.22,10,349.722,10l-187.444,0.002c-5.05,0-10.1,1.926-13.953,5.779L15.877,148.229    C12.25,151.808,10,156.78,10,162.278l0.002,187.444c0,5.05,1.927,10.1,5.779,13.953l132.447,132.448    c3.579,3.628,8.551,5.877,14.049,5.877l187.444-0.002c5.05,0,10.101-1.927,13.953-5.779l132.448-132.447    c3.628-3.579,5.877-8.551,5.877-14.049l-0.002-187.444c0-5.05-1.926-10.101-5.779-13.953L363.771,15.877z"/>
		<polygon style="fill-rule:evenodd;clip-rule:evenodd;fill:#FFF0D9;" points="341.326,50 170.673,50.002 50,170.675     50.002,341.327 170.675,462 341.327,461.998 462,341.326 461.998,170.673   "/>
	</g>
	<g>
		<path d="M511.998,162.278c0-7.943-3.093-15.41-8.708-21.024L370.89,8.854C365.257,3.145,357.739,0,349.722,0L162.278,0.002    c-7.941,0-15.408,3.093-21.025,8.708l-37.938,37.94c-3.905,3.905-3.905,10.237,0,14.142c3.905,3.904,10.237,3.905,14.142,0    l37.938-37.939c1.838-1.838,4.283-2.851,6.883-2.851L349.722,20c2.624,0,5.085,1.03,6.978,2.948l132.448,132.449    c1.838,1.837,2.85,4.281,2.85,6.881L492,349.722c0,2.624-1.03,5.085-2.948,6.978L356.604,489.148    c-1.838,1.837-4.282,2.85-6.882,2.85L162.278,492c-2.624,0-5.085-1.03-6.979-2.948L22.853,356.604    c-1.838-1.838-2.851-4.283-2.851-6.882L20,162.278c0-2.624,1.03-5.085,2.948-6.979l37.939-37.939    c3.905-3.905,3.905-10.236,0-14.142c-3.904-3.906-10.236-3.905-14.142,0L8.854,141.111C3.145,146.744,0,154.262,0,162.278    l0.002,187.444c0,7.941,3.093,15.408,8.708,21.024l132.4,132.401c5.633,5.709,13.151,8.853,21.167,8.853l187.444-0.002    c7.943,0,15.41-3.093,21.024-8.708l132.4-132.399c5.709-5.633,8.854-13.15,8.854-21.167L511.998,162.278z"/>
		<path d="M437.024,380.443l32.047-32.047c1.875-1.875,2.929-4.419,2.929-7.071l-0.002-170.653c0-2.652-1.054-5.196-2.929-7.071    L348.396,42.929c-1.875-1.875-4.419-2.929-7.071-2.929l-170.653,0.002c-2.652,0-5.196,1.054-7.071,2.929L42.929,163.604    c-1.875,1.875-2.929,4.419-2.929,7.071l0.002,170.653c0,2.652,1.054,5.196,2.929,7.071l120.672,120.672    c1.875,1.875,4.419,2.929,7.071,2.929l170.653-0.002c2.652,0,5.196-1.054,7.071-2.929l32.057-32.057    c3.905-3.905,3.905-10.237,0-14.142c-3.905-3.905-10.236-3.905-14.142,0l-29.128,29.127L174.817,452L60.002,337.186L60,174.817    L174.815,60.002L337.184,60l114.814,114.815L452,337.184l-29.118,29.118c-3.905,3.905-3.905,10.237,0,14.142    C426.788,384.349,433.119,384.349,437.024,380.443z"/>
		<path d="M124.884,297.98c-3.752,1.555-7.861,1.564-11.569,0.028l-11.609-4.809c-5.103-2.112-10.952,0.31-13.066,5.412    c-2.113,5.103,0.31,10.952,5.412,13.066l11.61,4.809c4.311,1.786,8.844,2.678,13.385,2.678c4.564,0,9.136-0.903,13.491-2.707    c8.688-3.599,15.444-10.341,19.024-18.985c3.581-8.644,3.571-18.189-0.028-26.876c-3.598-8.688-10.34-15.444-18.985-19.025    l-23.218-9.617c-3.708-1.536-6.606-4.448-8.161-8.201c-1.554-3.752-1.564-7.86-0.028-11.568c1.536-3.709,4.449-6.607,8.201-8.162    c3.752-1.554,7.861-1.563,11.569-0.028l11.609,4.809c5.103,2.116,10.952-0.309,13.065-5.412c2.113-5.102-0.31-10.952-5.412-13.065    l-11.608-4.809c-8.645-3.58-18.189-3.571-26.877,0.028c-8.687,3.599-15.443,10.341-19.024,18.984    c-3.581,8.644-3.571,18.188,0.027,26.876c3.599,8.688,10.341,15.444,18.985,19.025l23.218,9.617    c3.709,1.536,6.607,4.449,8.162,8.201c1.554,3.752,1.563,7.86,0.027,11.57C131.548,293.528,128.636,296.426,124.884,297.98z"/>
		<path d="M206.964,317.865c5.523,0,10-4.477,10-10V214.14h17.903c5.523,0,10-4.477,10-10s-4.477-10-10-10h-55.806    c-5.523,0-10,4.477-10,10s4.477,10,10,10h17.903v93.725C196.964,313.388,201.441,317.865,206.964,317.865z"/>
		<path d="M259.004,230.752v50.491c0,20.899,17.003,37.903,37.903,37.903c20.899,0,37.903-17.003,37.903-37.903v-50.491    c0-20.899-17.003-37.903-37.903-37.903C276.007,192.849,259.004,209.853,259.004,230.752z M314.81,230.752v50.491    c0,9.872-8.031,17.903-17.903,17.903c-9.872,0-17.903-8.031-17.903-17.903v-50.491c0-9.872,8.031-17.903,17.903-17.903    C306.779,212.849,314.81,220.88,314.81,230.752z"/>
		<path d="M432,242.715v-11.335c0-20.534-16.705-37.239-37.239-37.239h-27.239c-5.523,0-10,4.477-10,10v103.725    c0,5.523,4.477,10,10,10s10-4.477,10-10v-27.911h17.239C415.295,279.954,432,263.249,432,242.715z M412,242.715    c0,9.506-7.733,17.239-17.239,17.239h-17.239V214.14h17.239c9.505,0,17.239,7.733,17.239,17.239V242.715z"/>
		<path d="M82.094,92.007c2.721,0,5.432-1.104,7.406-3.275c3.715-4.086,3.414-10.411-0.673-14.126    c-4.086-3.715-10.411-3.414-14.126,0.673l-0.005,0.005c-3.715,4.086-3.411,10.408,0.675,14.123    C77.287,91.148,79.694,92.007,82.094,92.007z"/>
		<path d="M394.942,394.257l-0.005,0.005c-4.086,3.715-4.385,10.037-0.67,14.124c1.973,2.17,4.682,3.272,7.401,3.272    c2.401,0,4.811-0.859,6.727-2.602c4.086-3.715,4.388-10.04,0.673-14.126C405.353,390.843,399.028,390.542,394.942,394.257z"/>
	</g>
</g>















</svg>
