<?xml version="1.0" encoding="iso-8859-1"?>
<!-- Generator: Adobe Illustrator 21.0.0, SVG Export Plug-In . SVG Version: 6.00 Build 0)  -->
<svg xmlns="http://www.w3.org/2000/svg" xmlns:xlink="http://www.w3.org/1999/xlink" version="1.1" id="Capa_1" x="0px" y="0px" viewBox="0 0 512.001 512.001" style="enable-background:new 0 0 512.001 512.001;" xml:space="preserve" width="512" height="512">
<g>
	<g>
		<path style="fill-rule:evenodd;clip-rule:evenodd;fill:#FFF0D9;" d="M502.002,144.001H10v256c0,8.8,7.2,16,16,16h460.002    c8.8,0,16-7.2,16-16V144.001z"/>
		<path style="fill-rule:evenodd;clip-rule:evenodd;fill:#7C594E;" d="M187.358,234.481c0-27.471-22.476-49.948-49.947-49.948    c-27.472,0-49.948,22.476-49.948,49.948c18.981,12.119,47.613-0.259,62.292-10.783    C159.806,235.585,176.277,239.062,187.358,234.481z"/>
		<path style="fill-rule:evenodd;clip-rule:evenodd;fill:#E1AC91;" d="M187.358,234.481c-11.081,4.58-27.551,1.104-37.604-10.783    c-14.679,10.524-43.311,22.902-62.292,10.783v24.974c0,14.187,5.994,27.042,15.576,36.157    c8.971,8.535,21.088,13.791,34.373,13.791c13.284,0,25.4-5.256,34.371-13.791c9.582-9.114,15.576-21.969,15.576-36.156V234.481z"/>
		<path style="fill-rule:evenodd;clip-rule:evenodd;fill:#FF836C;" d="M137.41,309.403L137.41,309.403L137.41,309.403z     M171.782,295.613c-8.972,8.535-21.087,13.79-34.371,13.79c-13.285,0-25.401-5.256-34.373-13.791    c-31.185,13.351-53.036,44.316-53.036,80.387h174.817C224.818,339.928,202.967,308.963,171.782,295.613z"/>
		<rect x="282" y="184.002" style="fill-rule:evenodd;clip-rule:evenodd;fill:#6A87C1;" width="180" height="40"/>
		<rect x="382" y="304.005" style="fill-rule:evenodd;clip-rule:evenodd;fill:#6A87C1;" width="80" height="71.995"/>
		<path style="fill-rule:evenodd;clip-rule:evenodd;fill:#64759D;" d="M10,144.001h492.001v-32c0-8.8-7.2-16-16-16H26    c-8.8,0-16,7.2-16,16V144.001z"/>
	</g>
	<g>
		<path d="M486.001,86.001h-370c-5.523,0-10,4.477-10,10s4.477,10,10,10h370c3.252,0,6,2.748,6,6v22H20v-22c0-3.252,2.748-6,6-6h10    c5.523,0,10-4.477,10-10s-4.477-10-10-10H26c-14.336,0-26,11.663-26,26v288c0,14.336,11.664,26,26,26h366c5.522,0,10-4.477,10-10    s-4.478-10-10-10H26c-3.252,0-6-2.748-6-6V154h472.001v246c0,3.252-2.748,6-6,6H472c-5.522,0-10,4.477-10,10s4.478,10,10,10    h14.001c14.337,0,26-11.663,26-26V112C512.001,97.664,500.338,86.001,486.001,86.001z"/>
		<path d="M40.001,375.999c0,5.523,4.477,10,10,10h175.302c5.523,0,10-4.477,10-10c0-34.697-18.29-66.332-47.515-83.803    c6.281-9.492,9.95-20.855,9.95-33.064v-25.043c0-33.131-26.955-60.086-60.086-60.086c-33.131,0-60.086,26.955-60.086,60.086    v25.043c0,12.209,3.67,23.573,9.951,33.065C58.294,309.669,40.001,341.31,40.001,375.999z M97.566,259.131v-10.744    c2.835,0.49,5.712,0.719,8.602,0.719c15.508,0,31.345-6.471,42.656-13.141c8.364,6.657,18.811,10.253,28.915,10.118v13.048    c0,22.104-17.983,40.086-40.086,40.086S97.566,281.235,97.566,259.131z M137.652,194.002c19.349,0,35.54,13.78,39.275,32.041    c-6.451-0.086-13.98-2.982-19.26-9.225c-3.365-3.98-9.225-4.707-13.462-1.67c-11.352,8.139-31.791,17.271-46.173,12.83    C100.983,208.764,117.626,194.002,137.652,194.002z M101.636,307.195c10.043,7.545,22.516,12.022,36.016,12.022    c13.5,0,25.973-4.477,36.016-12.022c22.519,11.786,37.76,33.769,40.993,58.803H60.644    C63.877,340.968,79.119,318.982,101.636,307.195z"/>
		<path d="M282,234.001H462c5.522,0,10-4.477,10-10v-40c0-5.523-4.478-10-10-10H282c-5.522,0-10,4.477-10,10v40    C272,229.524,276.477,234.001,282,234.001z M292,194.002H452v20H292V194.002z"/>
		<path d="M472,264.003c0-5.523-4.478-10-10-10H282c-5.522,0-10,4.477-10,10s4.478,10,10,10H462    C467.523,274.003,472,269.526,472,264.003z"/>
		<path d="M342,365.999h-60c-5.522,0-10,4.477-10,10s4.478,10,10,10h60c5.522,0,10-4.477,10-10S347.522,365.999,342,365.999z"/>
		<path d="M382,385.999h80c5.522,0,10-4.477,10-10v-71.995c0-5.523-4.478-10-10-10h-80c-5.522,0-10,4.477-10,10v71.995    C372,381.522,376.478,385.999,382,385.999z M392,314.004h60v51.995h-60V314.004z"/>
		<path d="M342,294.004h-60c-5.522,0-10,4.477-10,10s4.478,10,10,10h60c5.522,0,10-4.477,10-10S347.522,294.004,342,294.004z"/>
		<path d="M76.004,106.001c5.523,0,10-4.477,10-10s-4.477-10-10-10h-0.007c-5.523,0-9.996,4.477-9.996,10    S70.481,106.001,76.004,106.001z"/>
		<path d="M432.003,406h-0.007c-5.522,0-9.996,4.477-9.996,10s4.48,10,10.003,10s10-4.477,10-10S437.526,406,432.003,406z"/>
	</g>
</g>















</svg>
