<?xml version="1.0" encoding="iso-8859-1"?>
<!-- Generator: Adobe Illustrator 21.0.0, SVG Export Plug-In . SVG Version: 6.00 Build 0)  -->
<svg xmlns="http://www.w3.org/2000/svg" xmlns:xlink="http://www.w3.org/1999/xlink" version="1.1" id="Capa_1" x="0px" y="0px" viewBox="0 0 512.001 512.001" style="enable-background:new 0 0 512.001 512.001;" xml:space="preserve" width="512" height="512">
<g>
	<g>
		<path style="fill-rule:evenodd;clip-rule:evenodd;fill:#EBEBEB;" d="M179.812,82h152.377h7.812c8.8,0,16-7.2,16-16V50    c0-8.8-7.2-16-16-16h-60c0-13.255-10.745-24-24-24s-24,10.745-24,24h-60c-8.8,0-16,7.2-16,16v16c0,8.8,7.2,16,16,16H179.812z"/>
		<path style="fill-rule:evenodd;clip-rule:evenodd;fill:#6A87C1;" d="M172.001,82c-8.8,0-16-7.2-16-16V50h-64    c-8.8,0-16,7.199-16,16v420.002c0,8.8,7.2,16,16,16h328c8.8,0,16-7.199,16-16V66c0-8.8-7.2-16-16-16h-64v16c0,8.8-7.2,16-16,16    h-7.812v8h63.812v372.002h-280V90h63.812v-8H172.001z"/>
		<path style="fill-rule:evenodd;clip-rule:evenodd;fill:#FFF0D9;" d="M179.812,82v8v16.763c0,8.381,6.858,15.238,15.238,15.238    h121.901c8.38,0,15.238-6.858,15.238-15.238V90v-8H179.812z"/>
		<path style="fill-rule:evenodd;clip-rule:evenodd;fill:#FFF0D9;" d="M195.05,122c-8.38,0-15.238-6.857-15.238-15.238V90h-63.812    v372.002h280V90h-63.812v16.763c0,8.38-6.858,15.238-15.238,15.238H195.05z"/>
		<g>
			<path style="fill-rule:evenodd;clip-rule:evenodd;fill:#C2C2C2;" d="M332,220.001c13.219,0,24-10.781,24-24     c0-13.219-10.781-24-24-24c-13.219,0-24,10.781-24,24C308,209.219,318.781,220.001,332,220.001z"/>
			<path style="fill-rule:evenodd;clip-rule:evenodd;fill:#C2C2C2;" d="M332,316c13.219,0,24-10.781,24-24c0-13.219-10.781-24-24-24     c-13.219,0-24,10.781-24,24C308,305.218,318.781,316,332,316z"/>
			<path style="fill-rule:evenodd;clip-rule:evenodd;fill:#C2C2C2;" d="M332,411.999c13.219,0,24-10.781,24-24     c0-13.219-10.781-24-24-24c-13.219,0-24,10.781-24,24C308,401.218,318.781,411.999,332,411.999z"/>
			<rect x="156.002" y="177.744" style="fill-rule:evenodd;clip-rule:evenodd;fill:#C2C2C2;" width="100" height="40"/>
			<rect x="156.002" y="272" style="fill-rule:evenodd;clip-rule:evenodd;fill:#C2C2C2;" width="100" height="40"/>
			<rect x="156.002" y="367.999" style="fill-rule:evenodd;clip-rule:evenodd;fill:#C2C2C2;" width="100" height="40"/>
		</g>
	</g>
	<g>
		<path d="M420.001,40h-56.003c-3.926-9.387-13.203-16-23.997-16h-51.499c-4.28-13.883-17.231-24-32.501-24s-28.22,10.117-32.5,24    h-51.5c-10.795,0-20.071,6.613-23.997,16H92.001c-14.337,0-26,11.663-26,26v420.002c0,14.336,11.663,26,26,26H316    c5.522,0,10-4.477,10-10s-4.478-10-10-10H92.001c-3.252,0-6-2.748-6-6V66c0-3.252,2.748-6,6-6h54v6c0,5.151,1.508,9.956,4.103,14    h-34.103c-5.522,0-10,4.477-10,10v372.002c0,5.523,4.478,10,10,10h280c5.522,0,10-4.477,10-10V90c0-5.523-4.478-10-10-10h-34.103    c2.594-4.044,4.103-8.848,4.103-14v-6h54c3.252,0,6,2.748,6,6v420.002c0,3.252-2.748,6-6,6h-24c-5.522,0-10,4.477-10,10    s4.478,10,10,10h24c14.337,0,26-11.664,26-26V66C446.001,51.663,434.338,40,420.001,40z M172.001,44h60c5.522,0,10-4.477,10-10    c0-7.72,6.28-14,14-14s14.001,6.28,14.001,14c0,5.523,4.478,10,10,10h59.999c3.252,0,6,2.748,6,6v16c0,3.252-2.748,6-6,6h-80.188    c-5.522,0-10,4.477-10,10s4.478,10,10,10h62.376v14.762c0,2.839-2.398,5.238-5.237,5.238H195.051c-2.84,0-5.238-2.398-5.238-5.238    V82c0-5.523-4.478-10-10-10h-7.812c-3.252,0-6-2.748-6-6V50C166.001,46.748,168.749,44,172.001,44z M386.001,452.001h-260V100    h43.812v6.763c0,13.916,11.322,25.238,25.238,25.238h121.901c13.916,0,25.237-11.322,25.237-25.238V100h43.812V452.001z"/>
		<path d="M332,162.001c-18.748,0-34,15.252-34,34s15.252,34,34,34s34-15.252,34-34S350.748,162.001,332,162.001z M332,210    c-7.72,0-14-6.28-14-14c0-7.72,6.28-14,14-14s14,6.28,14,14C346,203.72,339.719,210,332,210z"/>
		<path d="M332,258c-18.748,0-34,15.252-34,34s15.252,34,34,34s34-15.252,34-34S350.748,258,332,258z M332,306    c-7.72,0-14-6.28-14-14s6.28-14,14-14s14,6.28,14,14S339.719,306,332,306z"/>
		<path d="M332,354c-18.748,0-34,15.252-34,34s15.252,34,34,34s34-15.252,34-34S350.748,354,332,354z M332,401.999    c-7.72,0-14-6.28-14-14c0-7.719,6.28-14,14-14s14,6.28,14,14C346,395.719,339.719,401.999,332,401.999z"/>
		<path d="M256.003,167.745h-100c-5.522,0-10,4.477-10,10v40c0,5.523,4.478,10,10,10h100c5.522,0,10-4.477,10-10v-40    C266.003,172.222,261.525,167.745,256.003,167.745z M246.003,207.745h-80v-20h80V207.745z"/>
		<path d="M256.003,262h-100c-5.522,0-10,4.477-10,10v40c0,5.523,4.478,10,10,10h100c5.522,0,10-4.477,10-10v-40    C266.003,266.477,261.525,262,256.003,262z M246.003,302h-80v-20h80V302z"/>
		<path d="M256.003,357.999h-100c-5.522,0-10,4.477-10,10v40c0,5.523,4.478,10,10,10h100c5.522,0,10-4.477,10-10v-40    C266.003,362.476,261.525,357.999,256.003,357.999z M246.003,397.999h-80v-20h80V397.999z"/>
		<path d="M219.816,92c5.522,0,10-4.477,10-10s-4.478-10-10-10h-0.007c-5.522,0-9.996,4.477-9.996,10S214.294,92,219.816,92z"/>
		<path d="M356.004,492.001h-0.007c-5.522,0-9.996,4.477-9.996,10s4.48,10,10.003,10s10-4.477,10-10    S361.526,492.001,356.004,492.001z"/>
	</g>
</g>















</svg>
