<?xml version="1.0" encoding="iso-8859-1"?>
<!-- Generator: Adobe Illustrator 21.0.0, SVG Export Plug-In . SVG Version: 6.00 Build 0)  -->
<svg xmlns="http://www.w3.org/2000/svg" xmlns:xlink="http://www.w3.org/1999/xlink" version="1.1" id="Capa_1" x="0px" y="0px" viewBox="0 0 512.002 512.002" style="enable-background:new 0 0 512.002 512.002;" xml:space="preserve" width="512" height="512">
<g>
	<g>
		<path style="fill-rule:evenodd;clip-rule:evenodd;fill:#8EECF0;" d="M68.146,224.565h375.711l-11.182-103.928    c-1.052-9.784-8.052-17.891-17.89-17.891H97.219c-9.839,0-16.838,8.108-17.891,17.891L68.146,224.565z"/>
		<path style="fill-rule:evenodd;clip-rule:evenodd;fill:#6A87C1;" d="M443.857,224.565H68.146    c-19.68,0-35.782,16.102-35.782,35.782v86.038h183.169c-8.801,0-16-7.2-16-16v-50.746c0-8.8,7.199-16,16-16h24.469    c8.8,0,16,7.2,16,16c0-8.8,7.199-16,16-16h24.469c8.8,0,16,7.2,16,16v50.746c0,8.8-7.2,16-16,16h183.169v-86.038    C479.638,240.667,463.536,224.565,443.857,224.565L443.857,224.565z M399.637,285.474c0-11.045,8.954-20,20-20s20,8.954,20,20    c0,11.045-8.954,20-20,20S399.637,296.52,399.637,285.474L399.637,285.474z M379.637,305.474c-11.046,0-20-8.954-20-20    c0-11.045,8.954-20,20-20s20,8.954,20,20C399.637,296.52,390.683,305.474,379.637,305.474L379.637,305.474z M112.365,285.474    c0,11.045-8.954,20-20,20c-11.045,0-20-8.954-20-20c0-11.045,8.954-20,20-20C103.411,265.475,112.365,274.429,112.365,285.474    L112.365,285.474z M132.365,265.475c11.045,0,20,8.954,20,20c0,11.045-8.954,20-20,20c-11.046,0-20-8.954-20-20    C112.365,274.429,121.319,265.475,132.365,265.475z"/>
		<circle style="fill-rule:evenodd;clip-rule:evenodd;fill:#FFBA4A;" cx="92.365" cy="285.474" r="20"/>
		<circle style="fill-rule:evenodd;clip-rule:evenodd;fill:#FFBA4A;" cx="132.365" cy="285.474" r="20"/>
		<path style="fill-rule:evenodd;clip-rule:evenodd;fill:#64759D;" d="M199.533,279.638v50.746c0,8.8,7.199,16,16,16h24.469    c8.8,0,16-7.2,16-16v-50.746c0-8.8-7.2-16-16-16h-24.469C206.732,263.638,199.533,270.838,199.533,279.638z"/>
		<path style="fill-rule:evenodd;clip-rule:evenodd;fill:#64759D;" d="M256.001,279.638v50.746c0,8.8,7.199,16,16,16h24.469    c8.8,0,16-7.2,16-16v-50.746c0-8.8-7.2-16-16-16h-24.469C263.2,263.638,256.001,270.838,256.001,279.638z"/>
		<circle style="fill-rule:evenodd;clip-rule:evenodd;fill:#FFBA4A;" cx="379.637" cy="285.474" r="20"/>
		<circle style="fill-rule:evenodd;clip-rule:evenodd;fill:#FFBA4A;" cx="419.637" cy="285.474" r="20"/>
		<path style="fill-rule:evenodd;clip-rule:evenodd;fill:#EBEBEB;" d="M479.638,346.384H296.469h-24.469h-32h-24.469H32.364h-2.363    c-11,0-20,9-20,20c0,11,9,20,20,20h22.363h67.091h273.09h67.091h22.364c11,0,20-9,20-20c0-11-9-20-20-20H479.638z"/>
		<path style="fill-rule:evenodd;clip-rule:evenodd;fill:#64759D;" d="M459.637,386.384h-67.091v44.981    c0,9.84,8.051,17.891,17.891,17.891h31.31c9.839,0,17.891-8.052,17.891-17.891V386.384z"/>
		<path style="fill-rule:evenodd;clip-rule:evenodd;fill:#64759D;" d="M119.456,431.365v-44.981H52.365v44.981    c0,9.84,8.051,17.891,17.891,17.891h31.31C111.405,449.256,119.456,441.204,119.456,431.365z"/>
		<path style="fill-rule:evenodd;clip-rule:evenodd;fill:#6A87C1;" d="M30,221.315h38.145v-20c0-11-9-20-20-20H30c-11,0-20,9-20,20    C10,212.315,19,221.315,30,221.315z"/>
		<path style="fill-rule:evenodd;clip-rule:evenodd;fill:#6A87C1;" d="M443.857,201.315v20h38.145c11,0,20-9,20-20c0-11-9-20-20-20    h-18.145C452.856,181.315,443.857,190.314,443.857,201.315z"/>
		<path style="fill-rule:evenodd;clip-rule:evenodd;fill:#6A87C1;" d="M413.638,62.746c-149.091,0-166.183,0-315.274,0    c-12.138,0-22.363,6.95-22.363,20c0,11,9,20,20,20c150.667,0,169.333,0.001,320,0.001c11,0,20-9,20-20    C436.001,69.696,425.776,62.746,413.638,62.746z"/>
	</g>
	<g>
		<path d="M212.626,190.031c2.56,0,5.118-0.976,7.071-2.929l32.75-32.75c3.905-3.905,3.905-10.237,0-14.143    c-3.906-3.905-10.236-3.905-14.143,0l-32.75,32.75c-3.905,3.905-3.905,10.237,0,14.143    C207.508,189.054,210.066,190.031,212.626,190.031z"/>
		<path d="M266.626,190.031c2.56,0,5.118-0.976,7.071-2.929l32.75-32.75c3.905-3.905,3.905-10.237,0-14.143    c-3.906-3.905-10.236-3.905-14.143,0l-32.75,32.75c-3.905,3.905-3.905,10.237,0,14.143    C261.508,189.054,264.066,190.031,266.626,190.031z"/>
		<path d="M489.638,337.372v-77.026c0-11.011-3.909-21.125-10.409-29.031h2.774c16.542,0,30-13.458,30-30c0-16.542-13.458-30-30-30    h-18.146c-5.554,0-10.758,1.523-15.224,4.165l-6.016-55.912c-0.626-5.828-2.664-11.057-5.729-15.317    c5.615-5.455,9.114-13.077,9.114-21.505c0-16.542-13.458-30-30-30H176.002c-5.522,0-10,4.477-10,10s4.478,10,10,10h239.999    c5.514,0,10,4.486,10,10c0,5.514-4.486,10-10,10c-0.134,0-0.264,0.015-0.396,0.02c-0.273-0.008-0.546-0.02-0.821-0.02H97.219    c-0.275,0-0.548,0.012-0.821,0.02c-0.133-0.005-0.263-0.02-0.396-0.02c-5.514,0-10-4.486-10-10s4.486-10,10-10    c5.522,0,10-4.477,10-10s-4.478-10-10-10c-16.542,0-30,13.458-30,30c0,8.428,3.499,16.05,9.114,21.505    c-3.065,4.259-5.103,9.488-5.73,15.316l-6.016,55.913c-4.466-2.642-9.669-4.165-15.224-4.165H30c-16.542,0-30,13.458-30,30    s13.458,30,30,30h2.774c-6.501,7.906-10.409,18.021-10.409,29.031v77.026C9.51,340.759,0.001,352.48,0.001,366.384    c0,16.542,13.458,30,30,30h12.363v34.981c0,15.379,12.512,27.891,27.891,27.891h31.31c15.38,0,27.892-12.512,27.892-27.891    v-34.981h253.09v34.981c0,15.379,12.512,27.891,27.891,27.891h31.311c15.379,0,27.891-12.512,27.891-27.891v-34.981h12.363    c16.542,0,30-13.458,30-30C512.001,352.48,502.492,340.759,489.638,337.372z M414.784,112.746c4.798,0,7.483,4.645,7.947,8.961    l9.991,92.858H79.279l9.991-92.858c0.465-4.316,3.15-8.961,7.949-8.961H414.784z M453.856,201.315c0-5.514,4.486-10,10-10h18.146    c5.514,0,10,4.486,10,10s-4.486,10-10,10h-28.146V201.315z M20,201.315c0-5.514,4.486-10,10-10h18.146c5.514,0,10,4.486,10,10v10    H30C24.486,211.315,20,206.829,20,201.315z M109.456,431.365c0,4.351-3.54,7.891-7.892,7.891h-31.31    c-4.351,0-7.891-3.54-7.891-7.891v-34.981h47.092V431.365z M449.638,431.365c0,4.351-3.54,7.891-7.891,7.891h-31.311    c-4.351,0-7.891-3.54-7.891-7.891v-34.981h47.092V431.365z M482.001,376.384h-452c-5.514,0-10-4.486-10-10s4.486-10,10-10h339.635    c5.522,0,10-4.477,10-10s-4.478-10-10-10h-47.873c0.457-1.927,0.707-3.935,0.707-6v-50.746c0-14.336-11.663-26-26-26h-24.469    c-6.031,0-11.584,2.07-16,5.528c-4.416-3.459-9.969-5.528-16-5.528h-24.469c-14.337,0-26,11.663-26,26v50.746    c0,2.065,0.249,4.073,0.707,6H42.364v-76.038c0-14.216,11.565-25.782,25.781-25.782h375.678c0.007,0,0.014,0.001,0.021,0.001    c0.005,0,0.011-0.001,0.016-0.001c14.214,0.002,25.777,11.567,25.777,25.782v76.038h-20.001c-5.522,0-10,4.477-10,10    s4.478,10,10,10h32.364c5.514,0,10,4.486,10,10S487.515,376.384,482.001,376.384z M209.532,330.384v-50.746c0-3.252,2.748-6,6-6    h24.469c3.252,0,6,2.748,6,6v50.746c0,3.252-2.748,6-6,6h-24.469C212.28,336.384,209.532,333.636,209.532,330.384z     M302.47,330.384c0,3.252-2.748,6-6,6h-24.469c-3.252,0-6-2.748-6-6v-50.746c0-3.252,2.748-6,6-6h24.469c3.252,0,6,2.748,6,6    V330.384z"/>
		<path d="M419.637,315.474c16.542,0,30-13.458,30-30c0-16.542-13.458-30-30-30c-7.677,0-14.688,2.902-20,7.663    c-5.312-4.761-12.323-7.663-20-7.663c-16.542,0-29.999,13.458-29.999,30c0,16.542,13.457,30,29.999,30    c7.678,0,14.688-2.902,20-7.663C404.949,312.572,411.959,315.474,419.637,315.474z M419.637,275.474c5.514,0,10,4.486,10,10    c0,5.514-4.486,10-10,10c-5.509,0-9.992-4.479-9.999-9.987c0-0.004,0-0.008,0-0.013s0-0.009,0-0.013    C409.645,279.954,414.127,275.474,419.637,275.474z M379.637,295.474c-5.514,0-9.999-4.486-9.999-10c0-5.514,4.485-10,9.999-10    c5.51,0,9.993,4.479,10,9.988c0,0.004,0,0.008,0,0.013s0,0.009,0,0.013C389.63,290.995,385.147,295.474,379.637,295.474z"/>
		<path d="M132.364,255.474c-7.678,0-14.688,2.902-19.999,7.663c-5.312-4.761-12.322-7.663-20-7.663c-16.542,0-30,13.458-30,30    c0,16.542,13.458,30,30,30c7.678,0,14.688-2.902,20-7.663c5.312,4.761,12.322,7.663,19.999,7.663    c16.543,0,30.001-13.458,30.001-30C162.365,268.932,148.907,255.474,132.364,255.474z M92.365,295.474c-5.514,0-10-4.486-10-10    c0-5.514,4.486-10,10-10s10,4.486,10,10C102.365,290.989,97.879,295.474,92.365,295.474z M132.364,295.474    c-5.514,0-9.999-4.486-9.999-10c0-5.514,4.485-10,9.999-10c5.515,0,10.001,4.486,10.001,10    C142.365,290.989,137.879,295.474,132.364,295.474z"/>
		<path d="M136.005,72.746c5.522,0,10-4.477,10-10s-4.478-10-10-10h-0.007c-5.522,0-9.996,4.477-9.996,10    S130.482,72.746,136.005,72.746z"/>
		<path d="M409.64,336.384h-0.007c-5.522,0-9.996,4.477-9.996,10s4.48,10,10.003,10s10-4.477,10-10S415.162,336.384,409.64,336.384z    "/>
	</g>
</g>















</svg>
