<?xml version="1.0" encoding="iso-8859-1"?>
<!-- Generator: Adobe Illustrator 21.0.0, SVG Export Plug-In . SVG Version: 6.00 Build 0)  -->
<svg xmlns="http://www.w3.org/2000/svg" xmlns:xlink="http://www.w3.org/1999/xlink" version="1.1" id="Capa_1" x="0px" y="0px" viewBox="0 0 512 512" style="enable-background:new 0 0 512 512;" xml:space="preserve" width="512" height="512">
<g>
	<g>
		<path style="fill-rule:evenodd;clip-rule:evenodd;fill:#FF836C;" d="M256,10C120.138,10,10,120.138,10,256s110.138,246,246,246    s246-110.138,246-246S391.862,10,256,10L256,10z M256,50c113.771,0,206,92.229,206,206s-92.229,206-206,206S50,369.77,50,256    S142.23,50,256,50z"/>
		<circle style="fill-rule:evenodd;clip-rule:evenodd;fill:#FFF0D9;" cx="256" cy="256" r="206"/>
		<path style="fill-rule:evenodd;clip-rule:evenodd;fill:#64759D;" d="M248.638,358.208c0,14.536-11.783,26.319-26.319,26.319    c-14.535,0-26.319-11.783-26.319-26.319V153.791c0-14.535,11.783-26.319,26.319-26.319h53.682    c44.054,0,79.999,35.947,79.999,80.001v22.34c0,44.054-35.946,80-79.999,80h-27.363V358.208L248.638,358.208z M248.638,180.11    v77.066h27.363c14.996,0,27.362-12.366,27.362-27.363v-22.34c0-14.997-12.365-27.364-27.362-27.364H248.638z"/>
	</g>
	<g>
		<path d="M437.019,74.98C388.667,26.628,324.38,0,256,0c-53.919,0-105.5,16.575-149.165,47.932    c-4.486,3.222-5.511,9.47-2.29,13.956c3.222,4.486,9.47,5.511,13.956,2.29C158.746,35.276,206.292,20,256,20    c130.13,0,236,105.869,236,236S386.131,492,256,492C125.869,492,20,386.131,20,256c0-49.634,15.232-97.12,44.049-137.322    c3.218-4.489,2.188-10.736-2.302-13.954c-4.488-3.218-10.736-2.188-13.953,2.302C16.527,150.646,0,202.161,0,256    c0,68.38,26.628,132.667,74.98,181.02S187.62,512,256,512s132.667-26.628,181.019-74.98C485.371,388.667,512,324.38,512,256    C512,187.62,485.371,123.333,437.019,74.98z"/>
		<path d="M421.633,378.902c4.587,3.079,10.799,1.852,13.875-2.734C459.382,340.574,472,299.021,472,256    c0-57.696-22.468-111.938-63.265-152.735C367.938,62.467,313.696,40,256,40s-111.938,22.468-152.735,63.265    C62.468,144.062,40,198.304,40,256s22.468,111.938,63.265,152.735C144.062,449.532,198.304,472,256,472    c43.034,0,84.596-12.625,120.193-36.509c4.586-3.077,5.81-9.29,2.732-13.876s-9.289-5.809-13.876-2.732    C332.76,440.548,295.051,452,256,452c-108.075,0-196-87.925-196-196S147.926,60,256,60s196,87.925,196,196    c0,39.04-11.447,76.741-33.103,109.027C415.822,369.613,417.046,375.826,421.633,378.902z"/>
		<path d="M82.053,92.048c2.561,0,5.122-0.978,7.075-2.931c3.905-3.905,3.905-10.237,0-14.142c-3.905-3.905-10.236-3.905-14.142,0    l-0.005,0.005c-3.905,3.905-3.903,10.234,0.002,14.139C76.936,91.072,79.494,92.048,82.053,92.048z"/>
		<path d="M394.598,394.587l-0.005,0.005c-3.905,3.905-3.903,10.234,0.002,14.139c1.952,1.952,4.511,2.928,7.07,2.928    c2.561,0,5.122-0.978,7.075-2.931c3.905-3.905,3.905-10.237,0-14.142C404.835,390.682,398.504,390.682,394.598,394.587z"/>
		<path d="M248.638,170.109c-5.523,0-10,4.477-10,10v77.066c0,5.523,4.477,10,10,10h27.363c20.602,0,37.362-16.761,37.362-37.363    v-22.34c0-20.603-16.76-37.364-37.362-37.364H248.638z M293.364,207.473v22.34c0,9.412-7.951,17.363-17.362,17.363h-17.363    v-57.066h17.363C285.413,190.109,293.364,198.061,293.364,207.473z"/>
		<path d="M222.32,117.472c-20.026,0-36.319,16.292-36.319,36.319v204.417c0,20.026,16.292,36.319,36.319,36.319    s36.319-16.292,36.319-36.319v-38.395h17.363c49.626,0,90-40.374,90-90v-22.34c0-49.626-40.374-90.001-90-90.001H222.32z     M346.001,207.473v22.34c0,38.598-31.402,70-70,70h-27.363c-5.523,0-10,4.477-10,10v48.395c0,8.999-7.321,16.319-16.319,16.319    s-16.319-7.32-16.319-16.319V153.791c0-8.999,7.321-16.319,16.319-16.319h53.682C314.599,137.472,346.001,168.875,346.001,207.473    z"/>
	</g>
</g>















</svg>
