<?xml version="1.0" encoding="iso-8859-1"?>
<!-- Generator: Adobe Illustrator 21.0.0, SVG Export Plug-In . SVG Version: 6.00 Build 0)  -->
<svg xmlns="http://www.w3.org/2000/svg" xmlns:xlink="http://www.w3.org/1999/xlink" version="1.1" id="Capa_1" x="0px" y="0px" viewBox="0 0 512 512" style="enable-background:new 0 0 512 512;" xml:space="preserve" width="512" height="512">
<g>
	<g>
		<path style="fill-rule:evenodd;clip-rule:evenodd;fill:#FF836C;" d="M44.998,136h264.721c11,0,19.999-9.001,19.999-20    s-8.999-20-19.999-20H44.998c-11,0-19.999,9-19.999,20C24.999,127,33.998,136,44.998,136z"/>
		<polygon style="fill-rule:evenodd;clip-rule:evenodd;fill:#8EECF0;" points="216.498,217.249 335.491,217.249 309.718,136     44.998,136 44.998,217.249 120.498,217.249   "/>
		<path style="fill-rule:evenodd;clip-rule:evenodd;fill:#FF836C;" d="M335.491,217.249H216.498V316h140.78    C368.265,303.725,384.23,296,402,296c17.77,0,33.735,7.725,44.721,19.999H487v-76.25c0-12.376-8.991-22.39-20-22.5H335.491z"/>
		<path style="fill-rule:evenodd;clip-rule:evenodd;fill:#FF836C;" d="M216.498,316v-98.75h-96h-75.5    c-11.008,0.11-20,10.124-20,22.5V316h50.28C86.265,303.725,102.23,296,120,296c17.77,0,33.735,7.725,44.721,19.999H216.498z"/>
		<path style="fill-rule:evenodd;clip-rule:evenodd;fill:#EBEBEB;" d="M60,356c0-15.367,5.777-29.385,15.278-40.001h-50.28H10    v24.999C10,349.25,16.751,356,24.999,356H60z"/>
		<path style="fill-rule:evenodd;clip-rule:evenodd;fill:#EBEBEB;" d="M164.721,316C174.222,326.615,180,340.633,180,356h162    c0-15.367,5.777-29.385,15.279-40.001h-140.78H164.721z"/>
		<path style="fill-rule:evenodd;clip-rule:evenodd;fill:#EBEBEB;" d="M446.721,316c9.501,10.615,15.278,24.633,15.278,40.001H487    c8.25,0,15-6.75,15-15.001V316h-15H446.721z"/>
		<path style="fill-rule:evenodd;clip-rule:evenodd;fill:#64759D;" d="M461.999,356c0-15.367-5.777-29.385-15.278-40.001    C435.735,303.725,419.769,296,402,296c-17.77,0-33.735,7.725-44.721,19.999C347.777,326.615,342,340.633,342,356    c0,33.137,26.863,60,60,60S461.999,389.137,461.999,356L461.999,356z M402,336c11.045,0,20,8.955,20,20c0,11.045-8.955,20-20,20    c-11.046,0-20-8.954-20-20C382,344.955,390.954,336,402,336z"/>
		<circle style="fill-rule:evenodd;clip-rule:evenodd;fill:#C2C2C2;" cx="402" cy="356" r="20"/>
		<path style="fill-rule:evenodd;clip-rule:evenodd;fill:#64759D;" d="M180,356c0-15.367-5.777-29.385-15.278-40.001    C153.735,303.725,137.769,296,120,296c-17.77,0-33.735,7.725-44.721,19.999C65.777,326.615,60,340.633,60,356    c0,33.137,26.863,60,60,60S180,389.137,180,356L180,356z M120,336c11.046,0,20,8.955,20,20c0,11.045-8.955,20-20,20    s-20-8.954-20-20C100,344.955,108.954,336,120,336z"/>
		<circle style="fill-rule:evenodd;clip-rule:evenodd;fill:#C2C2C2;" cx="120" cy="356" r="20"/>
	</g>
	<g>
		<path d="M502,306h-5v-66.25c0-17.755-13.413-32.334-29.899-32.5c-0.033,0-0.066,0-0.1,0H342.81l-20.335-64.104    c10.179-4.803,17.242-15.163,17.242-27.145c0-16.542-13.458-30-29.999-30h-184.72c-5.523,0-10,4.477-10,10s4.477,10,10,10h184.72    c5.514,0,9.999,4.486,9.999,10c0,5.512-4.482,9.997-9.992,10c-0.037,0-0.075,0-0.112,0H44.998c-5.514,0-9.999-4.486-9.999-10    s4.485-10,9.999-10c5.523,0,10-4.477,10-10s-4.477-10-10-10c-16.542,0-29.999,13.458-29.999,30c0,13.036,8.36,24.152,19.999,28.28    l0,64.891c-11.634,4.527-19.999,16.559-19.999,30.578V306H10c-5.523,0-10,4.477-10,10v25C0,354.785,11.214,366,24.999,366h25.727    c4.869,33.876,34.072,60,69.274,60s64.406-26.123,69.274-60h143.451c4.869,33.876,34.072,60,69.274,60    c35.202,0,64.405-26.123,69.274-60H487c13.785,0,25-11.216,25-25.001v-25C512,310.477,507.523,306,502,306z M477,239.749v16.875    h-6.614c-5.523,0-10,4.477-10,10s4.477,10,10,10H477V306h-26.078c-12.63-12.36-29.897-20-48.922-20    c-19.025,0-36.292,7.64-48.922,20h-15.795c-5.523,0-10,4.477-10,10s4.477,10,10,10h1.486c-2.963,6.219-5.028,12.942-6.043,20.001    H189.274c-1.014-7.059-3.08-13.782-6.043-20.001h74.05c5.523,0,10-4.477,10-10s-4.477-10-10-10h-30.784v-78.75h108.93    c0.02,0,0.041,0.002,0.061,0.002c0.021,0,0.043-0.002,0.064-0.002h131.391C472.493,227.333,477,232.93,477,239.749z     M226.498,207.249V146H302.4l19.429,61.249H226.498z M54.998,207.249l0-61.249h55.5v61.249H54.998z M130.498,146h76v61.249h-76    V146z M34.999,276.625h6.615c5.523,0,10-4.477,10-10s-4.477-10-10-10h-6.615v-16.875c0-6.819,4.507-12.416,10.056-12.5h161.443    V306h-37.576c-12.63-12.36-29.897-20-48.922-20s-36.292,7.64-48.922,20H34.999V276.625z M20,340.999v-15h36.768    c-2.963,6.219-5.028,12.942-6.043,20.001H24.999C22.289,346,20,343.71,20,340.999z M120,406c-27.57,0-50-22.43-50-50    c0-27.57,22.43-50,50-50c27.568,0,49.996,22.427,50,49.994c0,0.002,0,0.004,0,0.006s0,0.004,0,0.006    C169.996,383.574,147.568,406,120,406z M402,406c-27.57,0-50-22.43-50-50c0-27.57,22.43-50,50-50c27.57,0,50,22.43,50,50    C452,383.57,429.57,406,402,406z M492,340.999c0,2.711-2.29,5.001-5,5.001h-15.726c-1.014-7.059-3.08-13.782-6.043-20.001H492    V340.999z"/>
		<path d="M120,326c-16.542,0-30,13.458-30,30c0,16.542,13.458,30,30,30c16.542,0,30-13.458,30-30C150,339.458,136.542,326,120,326z     M120,366c-5.514,0-10-4.486-10-10s4.486-10,10-10s10,4.486,10,10S125.515,366,120,366z"/>
		<path d="M402,326c-16.542,0-30,13.458-30,30c0,16.542,13.458,30,30,30c16.542,0,30-13.458,30-30C432,339.458,418.542,326,402,326z     M402,366c-5.514,0-10-4.486-10-10s4.486-10,10-10s10,4.486,10,10S407.514,366,402,366z"/>
		<path d="M85.001,106c5.523,0,10-4.477,10-10s-4.477-10-10-10h-0.007c-5.523,0-9.996,4.477-9.996,10S79.479,106,85.001,106z"/>
		<path d="M297.286,306h-0.007c-5.523,0-9.996,4.477-9.996,10s4.48,10,10.003,10s10-4.477,10-10S302.809,306,297.286,306z"/>
	</g>
</g>















</svg>
