<?xml version="1.0" encoding="iso-8859-1"?>
<!-- Generator: Adobe Illustrator 21.0.0, SVG Export Plug-In . SVG Version: 6.00 Build 0)  -->
<svg xmlns="http://www.w3.org/2000/svg" xmlns:xlink="http://www.w3.org/1999/xlink" version="1.1" id="Capa_1" x="0px" y="0px" viewBox="0 0 512.001 512.001" style="enable-background:new 0 0 512.001 512.001;" xml:space="preserve" width="512" height="512">
<g>
	<g>
		<path style="fill-rule:evenodd;clip-rule:evenodd;fill:#FF6D2F;" d="M65.641,334.909C55.413,310.215,50,283.433,50,256.001    s5.412-54.215,15.64-78.908c10.203-24.632,25.299-47.362,44.694-66.757c7.809-7.809,7.809-20.472,0-28.281    c-7.809-7.81-20.472-7.81-28.281,0c-22.988,22.988-40.989,50.191-53.288,79.882C16.494,191.565,10,223.494,10,256.001    s6.494,64.436,18.766,94.064c12.298,29.691,30.3,56.895,53.288,79.882c7.81,7.81,20.472,7.81,28.281,0    c7.809-7.809,7.809-20.472,0-28.281C90.94,382.271,75.844,359.54,65.641,334.909z"/>
		<circle style="fill-rule:evenodd;clip-rule:evenodd;fill:#FFF0D9;" cx="256" cy="256.001" r="166"/>
		<path style="fill-rule:evenodd;clip-rule:evenodd;fill:#FF6D2F;" d="M446.36,334.909c-10.203,24.632-25.299,47.362-44.694,66.757    c-7.81,7.809-7.81,20.472,0,28.281c7.809,7.81,20.472,7.81,28.281,0c22.988-22.987,40.989-50.191,53.288-79.882    c12.272-29.628,18.766-61.558,18.766-94.064s-6.494-64.436-18.766-94.064c-12.298-29.691-30.3-56.894-53.288-79.882    c-7.809-7.81-20.472-7.81-28.281,0c-7.81,7.809-7.81,20.472,0,28.281c19.395,19.395,34.491,42.125,44.694,66.757    c10.228,24.693,15.641,51.476,15.641,78.908S456.588,310.215,446.36,334.909z"/>
		<circle style="fill-rule:evenodd;clip-rule:evenodd;fill:#FF6D2F;" cx="256" cy="364.888" r="20"/>
		<path style="fill-rule:evenodd;clip-rule:evenodd;fill:#FF6D2F;" d="M256,304.889c11,0,19.999-9,19.999-20V147.113    c0-11-8.999-20-20-20c-11,0-19.999,9-19.999,20v137.776C236,295.889,245,304.889,256,304.889z"/>
	</g>
	<g>
		<path d="M74.88,331.082C65.006,307.246,60,281.985,60,256.001s5.006-51.246,14.879-75.082    c9.847-23.772,24.155-45.141,42.526-63.513c5.666-5.666,8.786-13.199,8.786-21.211c0-8.013-3.12-15.546-8.786-21.211    c-11.696-11.697-30.728-11.697-42.423,0c-23.814,23.813-42.472,51.781-55.456,83.126C6.57,189.391,0,222.327,0,256.001    c0,33.674,6.57,66.609,19.527,97.891c12.983,31.345,31.641,59.313,55.455,83.126c5.848,5.848,13.53,8.772,21.212,8.772    s15.364-2.924,21.211-8.772c11.696-11.696,11.696-30.727,0-42.423C99.035,376.223,84.727,354.854,74.88,331.082z M103.264,422.876    c-3.898,3.897-10.241,3.897-14.14,0c-21.947-21.948-39.146-47.732-51.12-76.638C26.058,317.395,20,287.035,20,256.001    s6.058-61.395,18.005-90.238c11.974-28.906,29.173-54.691,51.12-76.638c1.949-1.949,4.509-2.923,7.07-2.923    c2.56,0,5.121,0.975,7.07,2.924c1.888,1.888,2.928,4.398,2.928,7.069c0,2.67-1.04,5.181-2.928,7.07    c-20.238,20.238-36.005,43.79-46.862,70.001C45.519,199.54,40,227.376,40,256.001c0,28.624,5.519,56.46,16.402,82.734    c10.857,26.211,26.624,49.764,46.862,70.001C107.162,412.635,107.162,418.978,103.264,422.876z"/>
		<path d="M492.474,158.109c-12.984-31.346-31.643-59.314-55.455-83.125c-11.696-11.697-30.728-11.697-42.424,0    c-5.665,5.666-8.786,13.199-8.786,21.212c0,8.013,3.121,15.546,8.786,21.211c18.371,18.371,32.679,39.739,42.527,63.513    c9.873,23.836,14.879,49.097,14.879,75.082c0,21.587-3.497,42.835-10.394,63.156c-1.774,5.23,1.026,10.908,6.256,12.683    c5.231,1.777,10.908-1.026,12.684-6.255c7.601-22.395,11.454-45.807,11.454-69.584c0-28.625-5.519-56.46-16.402-82.735    c-10.857-26.212-26.624-49.764-46.861-70c-1.889-1.889-2.929-4.399-2.929-7.07c0-2.671,1.04-5.181,2.929-7.07    c3.898-3.897,10.242-3.898,14.139,0c21.947,21.945,39.146,47.73,51.12,76.637c11.947,28.845,18.005,59.205,18.005,90.238    s-6.058,61.393-18.004,90.237c-11.975,28.907-29.174,54.691-51.121,76.638c-3.898,3.897-10.24,3.897-14.139,0    c-3.898-3.898-3.898-10.241-0.001-14.139c3.358-3.358,6.648-6.871,9.778-10.441c3.641-4.153,3.226-10.471-0.928-14.112    c-4.152-3.641-10.472-3.225-14.111,0.927c-2.842,3.242-5.83,6.432-8.881,9.483c-11.696,11.696-11.696,30.727,0,42.423    c5.849,5.849,13.529,8.773,21.212,8.772c7.681-0.001,15.364-2.925,21.212-8.772c23.813-23.813,42.471-51.781,55.455-83.127    c12.957-31.283,19.527-64.218,19.527-97.891S505.431,189.393,492.474,158.109z"/>
		<path d="M256,80.001c-32.072,0-63.474,8.722-90.812,25.223c-4.729,2.854-6.248,9.001-3.394,13.729    c2.854,4.729,9.001,6.247,13.729,3.394c24.219-14.619,52.048-22.346,80.477-22.346c86.019,0,156,69.981,156,156    s-69.981,156-156,156s-156-69.981-156-156c0-28.455,7.737-56.3,22.374-80.526c2.856-4.727,1.339-10.875-3.388-13.73    c-4.728-2.854-10.874-1.339-13.73,3.388C88.733,192.479,80,223.901,80,256.001c0,97.046,78.953,176,176,176    c97.047,0,176-78.953,176-176C432,158.954,353.047,80.001,256,80.001z"/>
		<path d="M138.62,148.622c2.401,0,4.811-0.859,6.727-2.602c4.086-3.715,4.388-10.04,0.673-14.126    c-3.716-4.087-10.04-4.388-14.126-0.673l-0.005,0.005c-4.086,3.715-4.385,10.037-0.67,14.124    C133.191,147.521,135.9,148.622,138.62,148.622z"/>
		<path d="M425.715,354.046c-2.74,4.795-1.072,10.9,3.724,13.64c1.563,0.894,3.268,1.319,4.949,1.319    c3.473,0,6.85-1.812,8.696-5.043c2.74-4.795,1.074-10.904-3.722-13.644c-4.794-2.741-10.903-1.073-13.644,3.721L425.715,354.046z"/>
		<path d="M286,147.113c0-16.542-13.458-30-30-30s-30,13.458-30,30v137.775c0,16.542,13.458,30,30,30c16.542,0,30-13.458,30-30    V147.113z M266,284.889c0,5.514-4.486,10-10,10s-10-4.486-10-10V147.113c0-5.514,4.486-10,10-10h0c5.514,0,10,4.486,10,10V284.889    z"/>
		<path d="M256,334.888c-16.542,0-30,13.458-30,30s13.458,30,30,30c16.542,0,30-13.458,30-30S272.542,334.888,256,334.888z     M256,374.887c-5.514,0-10-4.486-10-10c0-5.514,4.486-10,10-10c5.514,0,10,4.486,10,10C266,370.402,261.515,374.887,256,374.887z"/>
	</g>
</g>















</svg>
