<?xml version="1.0" encoding="iso-8859-1"?>
<!-- Generator: Adobe Illustrator 21.0.0, SVG Export Plug-In . SVG Version: 6.00 Build 0)  -->
<svg xmlns="http://www.w3.org/2000/svg" xmlns:xlink="http://www.w3.org/1999/xlink" version="1.1" id="Capa_1" x="0px" y="0px" viewBox="0 0 512.002 512.002" style="enable-background:new 0 0 512.002 512.002;" xml:space="preserve" width="512" height="512">
<g>
	<g>
		<circle style="fill-rule:evenodd;clip-rule:evenodd;fill:#64759D;" cx="196" cy="224.998" r="20"/>
		<path style="fill-rule:evenodd;clip-rule:evenodd;fill:#FF836C;" d="M196,204.998c11.046,0,20,8.954,20,20    c0,11.046-8.954,20-20,20c-11.046,0-20-8.954-20-20C176,213.952,184.954,204.998,196,204.998L196,204.998z M196,149.998    c-41.421,0-75,33.579-75,75c0,41.421,33.578,75,75,75c41.421,0,75-33.578,75-75C271,183.576,237.421,149.998,196,149.998z"/>
		<path style="fill-rule:evenodd;clip-rule:evenodd;fill:#FF836C;" d="M196,149.998c41.421,0,75,33.579,75,75    c0,41.421-33.579,75-75,75c-41.421,0-75-33.578-75-75C121,183.576,154.579,149.998,196,149.998L196,149.998z M216,69.996    c0,11.001-9,20-20,20c-11,0-20-8.999-20-20V49.998h-40v19.997c0,11.001-9,20-20,20s-20-8.999-20-20V49.998H52c-8.8,0-16,7.2-16,16    v420.004c0,8.8,7.2,16,16,16h288c8.799,0,16-7.201,16-16V65.998c0-8.8-7.199-16-16-16h-44.001v19.997c0,11.001-9,20-20,20    c-11,0-20-8.999-20-20V49.998h-40V69.996L216,69.996z M116,339.724h160v40H116V339.724L116,339.724z M116,419.727h160v40H116    V419.727z"/>
		<path style="fill-rule:evenodd;clip-rule:evenodd;fill:#EBEBEB;" d="M116.001,89.996c11,0,20-8.999,20-20V49.998V30.001    c0-11.001-9-20-20-20s-20,8.999-20,20v19.997v19.997C96.001,80.997,105.001,89.996,116.001,89.996z"/>
		<path style="fill-rule:evenodd;clip-rule:evenodd;fill:#EBEBEB;" d="M176,49.998v19.997c0,11.001,9,20,20,20c11,0,20-8.999,20-20    V49.998V30.001c0-11.001-9-20-20-20c-11,0-20,8.999-20,20V49.998z"/>
		<path style="fill-rule:evenodd;clip-rule:evenodd;fill:#EBEBEB;" d="M256,30.001v19.997v19.997c0,11.001,9,20,20,20    c11,0,20-8.999,20-20V49.998V30.001c0-11.001-9-20-20-20C264.999,10.001,256,19,256,30.001z"/>
		<rect x="116" y="339.724" style="fill-rule:evenodd;clip-rule:evenodd;fill:#FFF0D9;" width="160.001" height="40"/>
		<rect x="116" y="419.727" style="fill-rule:evenodd;clip-rule:evenodd;fill:#FFF0D9;" width="160.001" height="40"/>
		<path style="fill-rule:evenodd;clip-rule:evenodd;fill:#FF836C;" d="M416.002,58.002v44.002h60V58.002c0-8.798-7.199-16-16-16    h-28.001C423.201,42.003,416.002,49.202,416.002,58.002z"/>
		<rect x="416.002" y="102.005" style="fill-rule:evenodd;clip-rule:evenodd;fill:#FFBA4A;" width="60" height="40.001"/>
		<rect x="416.002" y="142.006" style="fill-rule:evenodd;clip-rule:evenodd;fill:#6A87C1;" width="60" height="289.994"/>
		<polygon style="fill-rule:evenodd;clip-rule:evenodd;fill:#E1AC91;" points="476.002,432 416.002,432 446.002,502.002   "/>
	</g>
	<g>
		<path d="M260,492.002H52c-3.252,0-5.999-2.748-5.999-6V159.996c0-5.523-4.478-10-10-10s-10,4.477-10,10v326.006    c0,14.336,11.663,26,25.999,26h208c5.522,0,10-4.477,10-10S265.522,492.002,260,492.002z"/>
		<path d="M340,39.998H306V30c0-16.542-13.458-30-30-30s-30,13.458-30,30v9.997h-20V30C226,13.458,212.542,0,196,0s-30,13.458-30,30    v9.997h-20V30c0-16.542-13.458-30-30-30S86,13.458,86,30v9.997H52c-14.336,0-25.999,11.664-25.999,26v13.998    c0,5.523,4.478,10,10,10s10-4.477,10-10V65.998c0-3.252,2.747-6,5.999-6H86v9.998c0,16.542,13.458,30,30,30s30-13.458,30-30    v-9.998h20v9.998c0,16.542,13.458,30,30,30S226,86.537,226,69.995v-9.998h20v9.998c0,16.542,13.458,30,30,30s30-13.458,30-30    v-9.998H340c3.252,0,5.999,2.748,5.999,6v420.004c0,3.252-2.747,6-5.999,6c-5.522,0-10,4.477-10,10s4.478,10,10,10    c14.336,0,25.999-11.664,25.999-26V65.998C366,51.661,354.336,39.998,340,39.998z M126,69.995c0,5.514-4.486,10-10,10    s-10-4.486-10-10V30c0-5.514,4.486-10,10-10s10,4.486,10,10V69.995z M206,69.995c0,5.514-4.485,10-9.999,10s-10-4.486-10-10V30    c0-5.514,4.486-10,10-10S206,24.486,206,30V69.995z M286,69.995c0,5.514-4.486,10-10,10s-10-4.486-10-10V30    c0-5.514,4.486-10,10-10s10,4.486,10,10V69.995z"/>
		<path d="M196,309.998c46.869,0,85-38.131,85-85c0-46.87-38.131-85-85-85s-85,38.131-85,85    C111,271.867,149.131,309.998,196,309.998z M131.771,234.997h35.948c3.018,8.509,9.771,15.262,18.281,18.28v35.95    C158.151,284.908,136.09,262.847,131.771,234.997z M196,234.997c-5.515,0-10.001-4.486-10.001-10s4.486-10,10.001-10    c5.514,0,10,4.486,10,10S201.514,234.997,196,234.997z M206,289.227v-35.95c8.509-3.018,15.262-9.771,18.28-18.28h35.949    C255.911,262.847,233.85,284.908,206,289.227z M196,159.997c32.441,0,59.404,23.89,64.229,55H224.28    c-4.128-11.639-15.243-20-28.28-20c-13.037,0-24.153,8.361-28.281,20h-35.948C136.596,183.887,163.56,159.997,196,159.997z"/>
		<path d="M276,329.723H116c-5.522,0-10,4.477-10,10v40c0,5.523,4.478,10,10,10H276c5.522,0,10-4.477,10-10v-40    C286,334.2,281.523,329.723,276,329.723z M266,369.724H126v-20H266V369.724z"/>
		<path d="M460.002,32.002h-28.001c-14.337,0-26,11.664-26,26v147.002c0,5.523,4.478,10,10,10s10-4.477,10-10v-52.999h40V422h-40    V285.005c0-5.523-4.478-10-10-10s-10,4.477-10,10V432c0,1.354,0.275,2.694,0.809,3.939l30,70.002    c1.575,3.677,5.191,6.061,9.191,6.061s7.616-2.384,9.191-6.061l30-70.002c0.533-1.245,0.809-2.585,0.809-3.939V58.002    C486.001,43.666,474.338,32.002,460.002,32.002z M432.001,52.002h28.001c3.252,0,5.999,2.748,5.999,6v34.002h-40V58.002    C426.001,54.75,428.75,52.002,432.001,52.002z M426.001,132.005v-20.001h40v20.001H426.001z M446.001,476.615L431.167,442h29.669    L446.001,476.615z"/>
		<path d="M276,409.726H116c-5.522,0-10,4.477-10,10v40c0,5.523,4.478,10,10,10H276c5.522,0,10-4.477,10-10v-40    C286,414.203,281.523,409.726,276,409.726z M266,449.726H126v-20H266V449.726z"/>
		<path d="M36,129.995c5.522,0,10-4.48,10-10.003s-4.478-10-10-10s-10,4.477-10,10v0.007C26,125.522,30.478,129.995,36,129.995z"/>
		<path d="M300.003,492.002h-0.008c-5.522,0-9.996,4.477-9.996,10s4.481,10,10.004,10s10-4.477,10-10    S305.526,492.002,300.003,492.002z"/>
		<path d="M416.001,255.004c5.522,0,10-4.481,10-10.004s-4.478-10-10-10s-10,4.477-10,10v0.008    C406.001,250.531,410.479,255.004,416.001,255.004z"/>
	</g>
</g>















</svg>
