<?xml version="1.0" encoding="iso-8859-1"?>
<!-- Generator: Adobe Illustrator 21.0.0, SVG Export Plug-In . SVG Version: 6.00 Build 0)  -->
<svg xmlns="http://www.w3.org/2000/svg" xmlns:xlink="http://www.w3.org/1999/xlink" version="1.1" id="Capa_1" x="0px" y="0px" viewBox="0 0 512 512" style="enable-background:new 0 0 512 512;" xml:space="preserve" width="512" height="512">
<g>
	<g>
		<path style="fill-rule:evenodd;clip-rule:evenodd;fill:#FF836C;" d="M96.524,256c0-38.672,12.777-74.358,34.336-103.073V83.559    c0-4.878-2.027-9.306-5.28-12.483c-3.154-3.08-7.46-4.985-12.188-4.985H88.663C38.295,116.458,10,184.77,10,256    s28.295,139.542,78.663,189.909h24.728c4.729,0,9.035-1.905,12.189-4.984c3.253-3.177,5.28-7.605,5.28-12.483v-69.368    C109.301,330.358,96.524,294.672,96.524,256z"/>
		<path style="fill-rule:evenodd;clip-rule:evenodd;fill:#EBEBEB;" d="M130.86,152.927C109.301,181.642,96.524,217.328,96.524,256    c0,38.672,12.777,74.358,34.336,103.073v69.368c0,4.878-2.027,9.306-5.281,12.482c39.486,30.533,89.009,48.713,142.785,48.713    C397.398,489.636,502,385.034,502,256S397.398,22.364,268.364,22.364c-53.776,0-103.299,18.18-142.785,48.713    c3.254,3.176,5.281,7.604,5.281,12.482V152.927L130.86,152.927z M136.524,256c0-72.814,59.027-131.841,131.84-131.841    c72.814,0,131.84,59.027,131.84,131.841s-59.027,131.84-131.84,131.84C195.551,387.84,136.524,328.813,136.524,256z"/>
		<path style="fill-rule:evenodd;clip-rule:evenodd;fill:#C2C2C2;" d="M268.364,124.159c-72.814,0-131.84,59.027-131.84,131.841    s59.027,131.84,131.84,131.84c72.814,0,131.84-59.027,131.84-131.84S341.178,124.159,268.364,124.159L268.364,124.159z     M173.319,256c0-11.046,8.955-20,20-20s20,8.954,20,20c0,11.046-8.955,20-20,20S173.319,267.046,173.319,256L173.319,256z     M248.364,180.955c0-11.046,8.954-20,20-20c11.045,0,20,8.955,20,20c0,11.045-8.954,20-20,20    C257.318,200.955,248.364,192,248.364,180.955L248.364,180.955z M268.364,236c11.045,0,20,8.955,20,20c0,11.046-8.954,20-20,20    c-11.046,0-20-8.955-20-20C248.364,244.954,257.318,236,268.364,236L268.364,236z M248.364,331.045c0-11.046,8.954-20,20-20    c11.046,0,20,8.955,20,20s-8.954,20-20,20C257.319,351.045,248.364,342.091,248.364,331.045L248.364,331.045z M323.409,256    c0-11.046,8.955-20,20-20s20,8.954,20,20c0,11.046-8.955,20-20,20S323.409,267.045,323.409,256z"/>
		<circle style="fill-rule:evenodd;clip-rule:evenodd;fill:#64759D;" cx="268.364" cy="180.955" r="20"/>
		<circle style="fill-rule:evenodd;clip-rule:evenodd;fill:#64759D;" cx="193.319" cy="256" r="20"/>
		<circle style="fill-rule:evenodd;clip-rule:evenodd;fill:#64759D;" cx="268.364" cy="256" r="20"/>
		<circle style="fill-rule:evenodd;clip-rule:evenodd;fill:#64759D;" cx="268.364" cy="331.045" r="20"/>
		<circle style="fill-rule:evenodd;clip-rule:evenodd;fill:#64759D;" cx="343.409" cy="256" r="20"/>
	</g>
	<g>
		<path d="M440.641,83.724c-46.017-46.017-107.199-71.359-172.276-71.359c-51.994,0-101.298,16.04-143.071,46.442    c-3.603-1.739-7.64-2.715-11.902-2.715H88.663c-2.652,0-5.195,1.054-7.071,2.929C72.963,67.649,64.823,76.941,57.4,86.636    c-3.358,4.385-2.525,10.662,1.86,14.02c4.384,3.356,10.662,2.524,14.019-1.86c6.059-7.912,12.63-15.534,19.572-22.704h20.54    c1.946,0,3.715,0.754,5.045,1.978c0.098,0.1,0.201,0.193,0.302,0.288c1.31,1.346,2.121,3.18,2.121,5.202v66.083    C98.383,180.737,86.523,217.434,86.523,256s11.859,75.263,34.337,106.358v66.083c0,2.023-0.812,3.858-2.124,5.205    c-0.098,0.092-0.197,0.181-0.291,0.278c-1.332,1.228-3.104,1.985-5.054,1.985H92.851C45.836,387.418,20,323.697,20,256    c0-30.778,5.424-61.015,16.121-89.87c1.919-5.179-0.723-10.933-5.901-12.853c-5.174-1.919-10.933,0.721-12.853,5.9    C5.844,190.266,0,222.841,0,256c0,36.768,7.135,72.635,21.205,106.604c14.07,33.97,34.388,64.376,60.387,90.375    c1.876,1.875,4.419,2.929,7.071,2.929h24.729c4.261,0,8.299-0.975,11.902-2.714c41.773,30.402,91.077,46.442,143.071,46.442    c65.077,0,126.26-25.342,172.276-71.359C486.657,382.26,512,321.078,512,256S486.657,129.74,440.641,83.724z M268.364,479.636    c-46.926,0-91.465-14.223-129.386-41.222c1.21-3.094,1.882-6.456,1.882-9.973v-13.02c0.019,0.013,0.035,0.027,0.054,0.04    c1.705,1.136,3.632,1.68,5.538,1.68c3.23,0,6.402-1.563,8.329-4.454l0.004-0.006c3.063-4.595,1.82-10.801-2.775-13.864    c-3.48-2.321-7.885-2.165-11.149,0.041v-39.785c0-2.166-0.703-4.272-2.003-6.004c-21.153-28.173-32.334-61.739-32.334-97.068    s11.181-68.896,32.334-97.068c1.3-1.732,2.003-3.839,2.003-6.004V83.559c0-3.517-0.672-6.879-1.882-9.973    c37.922-26.998,82.46-41.221,129.386-41.221C391.678,32.364,492,132.687,492,256S391.678,479.636,268.364,479.636z"/>
		<path d="M268.364,114.159c-78.211,0-141.841,63.629-141.841,141.841c0,78.211,63.63,141.84,141.841,141.84    c22.631,0,45.15-5.468,65.125-15.813c4.904-2.54,6.821-8.574,4.281-13.479c-2.539-4.903-8.573-6.821-13.479-4.281    c-17.39,9.006-36.206,13.572-55.928,13.572c-67.184,0-121.841-54.657-121.841-121.84s54.657-121.841,121.841-121.841    S390.205,188.817,390.205,256c0,19.703-4.561,38.506-13.554,55.888c-2.538,4.905-0.619,10.939,4.286,13.477    c4.904,2.537,10.938,0.619,13.478-4.287c10.33-19.965,15.79-42.469,15.79-65.079C410.205,177.789,346.575,114.159,268.364,114.159    z"/>
		<path d="M268.364,226c-16.542,0-30,13.458-30,30s13.458,30,30,30s30-13.458,30-30S284.906,226,268.364,226z M268.364,266    c-5.514,0-10-4.486-10-10s4.486-10,10-10s10,4.486,10,10S273.878,266,268.364,266z"/>
		<path d="M268.364,150.955c-16.542,0-30,13.458-30,30s13.458,30,30,30s30-13.458,30-30S284.906,150.955,268.364,150.955z     M268.364,190.955c-5.514,0-10-4.486-10-10s4.486-10,10-10s10,4.486,10,10S273.878,190.955,268.364,190.955z"/>
		<path d="M163.319,256c0,16.542,13.457,30,29.999,30s30-13.458,30-30s-13.458-30-30-30S163.319,239.458,163.319,256z M203.318,256    c0,5.514-4.486,10-10,10s-9.999-4.486-9.999-10s4.485-10,9.999-10S203.318,250.486,203.318,256z"/>
		<path d="M268.364,301.045c-16.542,0-30,13.458-30,30s13.458,30,30,30s30-13.458,30-30S284.906,301.045,268.364,301.045z     M268.364,341.045c-5.514,0-10-4.486-10-10c0-5.514,4.486-10,10-10s10,4.486,10,10    C278.364,336.559,273.878,341.045,268.364,341.045z"/>
		<path d="M343.409,226c-16.542,0-30,13.458-30,30s13.458,30,30,30s30-13.458,30-30S359.951,226,343.409,226z M343.409,266    c-5.514,0-10-4.486-10-10s4.486-10,10-10s10,4.486,10,10S348.923,266,343.409,266z"/>
		<path d="M440.206,246h-0.008c-5.522,0-9.996,4.477-9.996,10s4.481,10,10.004,10s10-4.477,10-10S445.729,246,440.206,246z"/>
		<path d="M460.207,276.001h-0.008c-5.522,0-9.996,4.477-9.996,10s4.481,10,10.004,10s10-4.477,10-10    S465.729,276.001,460.207,276.001z"/>
		<path d="M417.189,180.082c1.504,0,3.03-0.34,4.467-1.058c4.939-2.47,6.941-8.477,4.472-13.417c-2.47-4.94-8.48-6.944-13.416-4.472    l-0.007,0.003c-4.94,2.47-6.939,8.475-4.469,13.415C409.987,178.057,413.521,180.082,417.189,180.082z"/>
		<path d="M449.512,196.063c1.712,0,3.447-0.439,5.032-1.364c4.771-2.783,6.382-8.906,3.599-13.676    c-2.782-4.77-8.901-6.382-13.677-3.599l-0.006,0.003c-4.771,2.783-6.379,8.904-3.596,13.675    C442.723,194.287,446.071,196.063,449.512,196.063z"/>
		<path d="M349.042,115.701c1.634,1.005,3.442,1.484,5.229,1.484c3.359,0,6.641-1.693,8.53-4.763    c2.895-4.704,1.428-10.863-3.275-13.758c-4.704-2.894-10.863-1.428-13.758,3.275l-0.004,0.006    C342.87,106.649,344.339,112.806,349.042,115.701z"/>
		<path d="M385.024,113.38c1.634,1.005,3.442,1.484,5.229,1.484c3.359,0,6.641-1.693,8.53-4.763    c2.895-4.704,1.428-10.863-3.275-13.758c-4.707-2.896-10.864-1.427-13.758,3.275l-0.004,0.006    C378.853,104.329,380.321,110.485,385.024,113.38z"/>
		<path d="M268.364,94.162c5.522,0,10-4.481,10-10.004s-4.478-10-10-10s-10,4.477-10,10v0.007    C258.364,89.688,262.842,94.162,268.364,94.162z"/>
		<path d="M298.365,74.161c5.522,0,10-4.481,10-10.004s-4.478-10-10-10s-10,4.477-10,10v0.007    C288.365,69.688,292.843,74.161,298.365,74.161z"/>
		<path d="M173.931,112.428c1.889,3.068,5.166,4.758,8.521,4.758c1.789,0,3.6-0.479,5.234-1.485    c4.703-2.895,6.168-9.058,3.273-13.761c-2.894-4.703-9.052-6.172-13.758-3.275c-4.703,2.895-6.17,9.054-3.275,13.758    L173.931,112.428z"/>
		<path d="M189.912,80.106c1.889,3.069,5.165,4.758,8.521,4.758c1.788,0,3.6-0.479,5.234-1.485    c4.703-2.895,6.168-9.058,3.273-13.761c-2.894-4.703-9.051-6.17-13.758-3.275c-4.703,2.895-6.17,9.054-3.275,13.758    L189.912,80.106z"/>
		<path d="M187.687,396.299c-4.705-2.895-10.865-1.424-13.76,3.279c-2.895,4.704-1.428,10.863,3.275,13.758    c1.635,1.006,3.443,1.485,5.231,1.485c3.357,0,6.638-1.691,8.526-4.76l0.004-0.006    C193.858,405.351,192.39,399.194,187.687,396.299z"/>
		<path d="M268.364,417.838c-5.522,0-10,4.481-10,10.004s4.478,10,10,10s10-4.477,10-10v-0.007    C278.364,422.312,273.887,417.838,268.364,417.838z"/>
		<path d="M238.363,437.838c-5.522,0-10,4.481-10,10.004s4.478,10,10,10s10-4.477,10-10v-0.007    C248.363,442.312,243.886,437.838,238.363,437.838z"/>
		<path d="M362.798,399.572c-2.896-4.704-9.055-6.164-13.756-3.272c-4.703,2.895-6.168,9.058-3.273,13.761    c1.889,3.069,5.168,4.76,8.526,4.76c1.787,0,3.597-0.479,5.231-1.485c4.703-2.895,6.17-9.054,3.275-13.758L362.798,399.572z"/>
		<path d="M346.816,431.894c-2.895-4.704-9.052-6.167-13.756-3.272c-4.703,2.895-6.168,9.058-3.273,13.761    c1.889,3.069,5.168,4.76,8.526,4.76c1.787,0,3.597-0.479,5.231-1.485c4.703-2.895,6.17-9.054,3.275-13.758L346.816,431.894z"/>
		<path d="M412.222,350.604c1.565,0.895,3.271,1.319,4.952,1.319c3.472,0,6.847-1.811,8.692-5.041    c2.74-4.795,1.074-10.904-3.722-13.644l-0.007-0.004c-4.793-2.739-10.899-1.072-13.64,3.723S407.427,347.863,412.222,350.604z"/>
		<path d="M424.543,369.265l-0.006-0.003c-4.771-2.784-10.891-1.169-13.674,3.601c-2.783,4.771-1.169,10.896,3.602,13.678    c1.585,0.924,3.318,1.364,5.029,1.364c3.44,0,6.789-1.777,8.647-4.963C430.925,378.171,429.313,372.048,424.543,369.265z"/>
		<path d="M354.189,342.499l-0.005,0.005c-3.715,4.086-3.411,10.408,0.675,14.123c1.916,1.741,4.322,2.6,6.723,2.6    c2.721,0,5.433-1.104,7.406-3.275c3.715-4.086,3.414-10.411-0.673-14.126C364.229,338.111,357.905,338.412,354.189,342.499z"/>
		<path d="M38.149,134.82c1.634,1.005,3.442,1.484,5.229,1.484c3.359,0,6.641-1.692,8.53-4.763    c2.895-4.703,1.428-10.863-3.275-13.757c-4.705-2.895-10.863-1.428-13.758,3.276l-0.004,0.006    C31.978,125.77,33.446,131.926,38.149,134.82z"/>
	</g>
</g>















</svg>
