<?xml version="1.0" encoding="iso-8859-1"?>
<!-- Generator: Adobe Illustrator 21.0.0, SVG Export Plug-In . SVG Version: 6.00 Build 0)  -->
<svg xmlns="http://www.w3.org/2000/svg" xmlns:xlink="http://www.w3.org/1999/xlink" version="1.1" id="Capa_1" x="0px" y="0px" viewBox="0 0 512.001 512.001" style="enable-background:new 0 0 512.001 512.001;" xml:space="preserve" width="512" height="512">
<g>
	<g>
		<path style="fill-rule:evenodd;clip-rule:evenodd;fill:#FF6D2F;" d="M217.207,309.474h-77.081v43.731    c0,10.916-13.307,17.507-22.101,8.773L14.07,265.328c-5.428-5.048-5.451-13.628,0.071-18.755l104.497-97.154    c8.188-7.616,21.46-1.707,21.457,9.344h0.03v43.731h77.081c7.065,0,12.792,5.727,12.792,12.792v81.394    C230,303.746,224.272,309.474,217.207,309.474z"/>
		<path style="fill-rule:evenodd;clip-rule:evenodd;fill:#FFF0D9;" d="M294.794,309.474h77.081v43.731    c0,10.916,13.307,17.507,22.101,8.773l103.954-96.651c5.428-5.048,5.451-13.628-0.071-18.755l-104.497-97.154    c-8.188-7.616-21.46-1.707-21.457,9.344h-0.03v43.731h-77.081c-7.065,0-12.792,5.727-12.792,12.792v81.394    C282.001,303.746,287.729,309.474,294.794,309.474z"/>
	</g>
	<g>
		<path d="M217.208,192.494h-67.089l-0.023-33.729c0.002-9.184-5.247-17.176-13.699-20.858c-8.428-3.671-17.843-2.067-24.57,4.19    l-0.975,0.907c-4.043,3.762-4.271,10.089-0.51,14.133c3.761,4.043,10.089,4.272,14.133,0.51l0.974-0.906    c1.082-1.006,2.206-0.826,2.959-0.499c0.77,0.335,1.688,1.045,1.687,2.527l0.03,43.731c0.004,5.52,4.48,9.993,10,9.993h77.082    c1.54,0,2.792,1.252,2.792,2.792v81.395c0,1.54-1.252,2.792-2.792,2.792h-77.082c-5.523,0-10,4.477-10,10v43.731    c0,1.726-1.358,2.426-1.774,2.599c-1.115,0.463-2.188,0.163-3.28-0.921c-0.078-0.077-0.157-0.153-0.237-0.228L20.88,258.005    c-0.729-0.677-0.881-1.463-0.881-2.004c0-0.558,0.165-1.375,0.951-2.104l44.933-41.775c4.044-3.761,4.275-10.088,0.515-14.133    c-3.761-4.044-10.088-4.276-14.133-0.515l-44.927,41.77C2.677,243.571,0.002,249.675,0,255.992    c-0.003,6.293,2.644,12.364,7.261,16.659l103.849,96.553c4.568,4.472,10.344,6.821,16.231,6.821c2.916,0,5.859-0.577,8.696-1.757    c8.558-3.563,14.088-11.83,14.088-21.063v-33.731h67.082c12.567,0,22.792-10.225,22.792-22.792v-81.395    C240,202.719,229.775,192.494,217.208,192.494z"/>
		<path d="M88.365,187.562c2.561,0,5.122-0.978,7.075-2.931c3.905-3.905,3.905-10.237,0-14.142c-3.905-3.905-10.236-3.905-14.142,0    l-0.005,0.005c-3.905,3.905-3.903,10.234,0.002,14.139C83.248,186.587,85.806,187.562,88.365,187.562z"/>
		<path d="M504.74,239.349l-103.848-96.551c-6.829-6.687-16.364-8.63-24.929-5.065c-8.558,3.563-14.088,11.83-14.088,21.063v33.731    h-67.082c-12.568,0-22.792,10.225-22.792,22.792v81.395c0,12.568,10.225,22.792,22.792,22.792h67.088l0.023,33.729    c-0.002,9.183,5.247,17.175,13.698,20.857c2.996,1.305,6.117,1.944,9.197,1.944c5.585,0,11.037-2.1,15.371-6.131l0.98-0.912    c4.045-3.76,4.275-10.088,0.514-14.132c-3.76-4.045-10.088-4.276-14.132-0.514l-0.982,0.913c-1.082,1.006-2.206,0.826-2.959,0.498    c-0.77-0.335-1.688-1.044-1.687-2.527l-0.03-43.731c-0.004-5.52-4.48-9.993-10-9.993h-77.082c-1.54,0-2.792-1.252-2.792-2.792    V215.32c0-1.54,1.252-2.792,2.792-2.792h77.082c5.523,0,10-4.477,10-10v-43.731c0-1.726,1.358-2.426,1.774-2.599    c1.116-0.466,2.189-0.163,3.28,0.921c0.078,0.077,0.157,0.153,0.237,0.228l103.953,96.649c0.729,0.678,0.881,1.464,0.881,2.004    c0,0.558-0.165,1.375-0.948,2.102l-44.944,41.753c-4.046,3.759-4.279,10.086-0.52,14.132c3.758,4.046,10.085,4.279,14.132,0.52    l44.942-41.751c4.66-4.327,7.334-10.431,7.337-16.748C512.004,249.716,509.357,243.645,504.74,239.349z"/>
		<path d="M416.905,327.04c-4.086,3.715-4.388,10.04-0.673,14.126c1.974,2.171,4.683,3.273,7.402,3.273    c2.4,0,4.808-0.859,6.724-2.601l0.005-0.005c4.086-3.715,4.385-10.037,0.67-14.124C427.32,323.624,420.992,323.325,416.905,327.04    z"/>
	</g>
</g>















</svg>
