<?xml version="1.0" encoding="iso-8859-1"?>
<!-- Generator: Adobe Illustrator 21.0.0, SVG Export Plug-In . SVG Version: 6.00 Build 0)  -->
<svg xmlns="http://www.w3.org/2000/svg" xmlns:xlink="http://www.w3.org/1999/xlink" version="1.1" id="Capa_1" x="0px" y="0px" viewBox="0 0 512.002 512.002" style="enable-background:new 0 0 512.002 512.002;" xml:space="preserve" width="512" height="512">
<g>
	<g>
		<rect x="36.002" y="10" style="fill-rule:evenodd;clip-rule:evenodd;fill:#EBEBEB;" width="40.001" height="492.002"/>
		<path style="fill-rule:evenodd;clip-rule:evenodd;fill:#64759D;" d="M76.003,10v492.002h159.998v-120h40v120H436V10H276.002v120    h-40V10H76.003L76.003,10z M236.001,316.001v-120h40v120H236.001z"/>
		<rect x="236.001" y="10" style="fill-rule:evenodd;clip-rule:evenodd;fill:#EBEBEB;" width="40" height="120"/>
		<rect x="236.001" y="196.001" style="fill-rule:evenodd;clip-rule:evenodd;fill:#EBEBEB;" width="40" height="120"/>
		<rect x="236.001" y="382.002" style="fill-rule:evenodd;clip-rule:evenodd;fill:#EBEBEB;" width="40" height="120"/>
		<rect x="436" y="10" style="fill-rule:evenodd;clip-rule:evenodd;fill:#EBEBEB;" width="40.001" height="492.002"/>
	</g>
	<g>
		<path d="M36.001,110.002c-5.523,0-10,4.477-10,10v382c0,5.523,4.477,10,10,10s10-4.477,10-10v-382    C46.001,114.479,41.524,110.002,36.001,110.002z"/>
		<path d="M36.001,0c-5.523,0-10,4.477-10,10v30.001c0,5.523,4.477,10,10,10s10-4.477,10-10V10C46.001,4.477,41.524,0,36.001,0z"/>
		<path d="M476.001,0c-5.523,0-10,4.477-10,10v492.002c0,5.523,4.477,10,10,10s10-4.477,10-10V10C486.001,4.477,481.524,0,476.001,0    z"/>
		<path d="M436,462.001c-5.523,0-10,4.477-10,10v30.001c0,5.523,4.477,10,10,10s10-4.477,10-10v-30.001    C446,466.478,441.522,462.001,436,462.001z"/>
		<path d="M436,0c-5.523,0-10,4.477-10,10v382c0,5.523,4.477,10,10,10s10-4.477,10-10V10C446,4.477,441.522,0,436,0z"/>
		<path d="M76.002,0c-5.523,0-10,4.477-10,10v492.002c0,5.523,4.477,10,10,10s10-4.477,10-10V10C86.002,4.477,81.525,0,76.002,0z"/>
		<path d="M276.001,186.001h-40c-5.523,0-10,4.477-10,10v120c0,5.523,4.477,10,10,10h40c5.523,0,10-4.477,10-10v-120    C286.001,190.478,281.524,186.001,276.001,186.001z M266.001,306h-20v-100h20V306z"/>
		<path d="M36.001,69.998c-5.523,0-10,4.477-10,10v0.007c0,5.523,4.477,9.996,10,9.996s10-4.48,10-10.003    S41.524,69.998,36.001,69.998z"/>
		<path d="M436,421.997c-5.523,0-10,4.477-10,10v0.007c0,5.523,4.477,9.996,10,9.996s10-4.48,10-10.003S441.522,421.997,436,421.997    z"/>
		<path d="M276.001,0h-40c-5.523,0-10,4.477-10,10v120c0,5.523,4.477,10,10,10h40c5.523,0,10-4.477,10-10V10    C286.001,4.477,281.524,0,276.001,0z M266.001,120h-20V20h20V120z"/>
		<path d="M276.001,372.002h-40c-5.523,0-10,4.477-10,10v120c0,5.523,4.477,10,10,10h40c5.523,0,10-4.477,10-10v-120    C286.001,376.479,281.524,372.002,276.001,372.002z M266.001,492.001h-20v-100h20V492.001z"/>
	</g>
</g>















</svg>
