<?xml version="1.0" encoding="iso-8859-1"?>
<!-- Generator: Adobe Illustrator 21.0.0, SVG Export Plug-In . SVG Version: 6.00 Build 0)  -->
<svg xmlns="http://www.w3.org/2000/svg" xmlns:xlink="http://www.w3.org/1999/xlink" version="1.1" id="Capa_1" x="0px" y="0px" viewBox="0 0 512 512" style="enable-background:new 0 0 512 512;" xml:space="preserve" width="512" height="512">
<g>
	<g>
		<path style="fill-rule:evenodd;clip-rule:evenodd;fill:#FF836C;" d="M256,10C120.138,10,10,120.138,10,256s110.138,246,246,246    s246-110.138,246-246S391.862,10,256,10L256,10z M256,49.999c113.77,0,206,92.229,206,206s-92.23,206-206,206s-206-92.229-206-206    S142.23,49.999,256,49.999z"/>
		<circle style="fill-rule:evenodd;clip-rule:evenodd;fill:#FFF0D9;" cx="256" cy="255.999" r="206"/>
		<path style="fill-rule:evenodd;clip-rule:evenodd;fill:#64759D;" d="M328.455,198.649v200.529h-56.151V198.649l-60.459,0    l-0.015,22.953c0.001,5.801-6.965,8.902-11.263,4.905l-54.848-50.994c-2.898-2.691-2.886-7.194-0.037-9.844l54.563-50.73    c4.616-4.584,11.6-1.123,11.6,4.605v22.953h88.535c15.441,0,28.075,12.634,28.075,28.075V198.649z"/>
	</g>
	<g>
		<path d="M437.019,74.98C388.667,26.628,324.38,0,256,0c-53.898,0-105.461,16.562-149.115,47.896    c-4.487,3.221-5.513,9.468-2.293,13.955c3.222,4.487,9.469,5.514,13.955,2.293C158.781,35.265,206.311,20,256,20    c130.13,0,236,105.869,236,236c0,130.131-105.869,236-236,236C125.869,492,20,386.13,20,256    c0-49.666,15.251-97.177,44.104-137.396c3.219-4.488,2.191-10.735-2.296-13.955c-4.487-3.22-10.735-2.191-13.955,2.296    C16.547,150.583,0,202.125,0,256c0,68.38,26.628,132.667,74.98,181.02S187.62,512,256,512s132.667-26.628,181.019-74.98    S512,324.38,512,256C512,187.62,485.371,123.333,437.019,74.98z"/>
		<path d="M421.602,378.943c4.586,3.078,10.799,1.854,13.876-2.731C459.372,340.606,472,299.038,472,256    c0-57.696-22.468-111.938-63.265-152.735C367.938,62.467,313.696,40,256,40s-111.938,22.468-152.735,63.265    C62.468,144.062,40,198.304,40,256s22.468,111.938,63.265,152.735C144.062,449.532,198.304,472,256,472    c43.079,0,84.678-12.649,120.3-36.581c4.585-3.08,5.805-9.293,2.725-13.877s-9.295-5.804-13.877-2.724    C332.834,440.525,295.092,452,256,452c-108.075,0-196-87.925-196-196S147.925,60,256,60s196,87.925,196,196    c0,39.055-11.456,76.77-33.13,109.067C415.793,369.653,417.016,375.865,421.602,378.943z"/>
		<path d="M82.057,92.047c2.401,0,4.811-0.859,6.727-2.602c4.086-3.715,4.388-10.04,0.673-14.126    c-3.716-4.087-10.04-4.388-14.126-0.673l-0.005,0.005c-4.086,3.715-4.385,10.037-0.67,14.124    C76.628,90.946,79.337,92.047,82.057,92.047z"/>
		<path d="M394.597,394.587l-0.005,0.005c-3.905,3.905-3.902,10.234,0.003,14.139c1.952,1.952,4.511,2.928,7.069,2.928    c2.561,0,5.122-0.977,7.075-2.93c3.905-3.905,3.905-10.237,0-14.142C404.833,390.682,398.503,390.682,394.597,394.587z"/>
		<path d="M272.303,409.178h56.151c5.522,0,10-4.477,10-10V170.573c0-20.995-17.08-38.075-38.075-38.075h-78.535v-12.953    c0-6.771-4.051-12.833-10.32-15.442c-6.27-2.611-13.219-1.227-18.186,3.604l-54.468,50.641c-3.387,3.15-5.328,7.606-5.325,12.225    c0.002,4.631,1.959,9.104,5.365,12.265l54.847,50.993c4.861,4.521,11.94,5.727,18.029,3.075    c6.103-2.659,10.045-8.666,10.044-15.296l0.008-12.96h40.466v190.529C262.303,404.701,266.781,409.178,272.303,409.178z     M211.844,188.649c-5.52,0-9.996,4.473-10,9.994l-0.01,15.389l-46.742-43.458l46.752-43.467v15.392c0,5.523,4.477,10,10,10h88.535    c9.967,0,18.075,8.108,18.075,18.075v218.604h-36.151V198.649c0-5.523-4.478-10-10-10H211.844z"/>
	</g>
</g>















</svg>
