<?xml version="1.0" encoding="iso-8859-1"?>
<!-- Generator: Adobe Illustrator 21.0.0, SVG Export Plug-In . SVG Version: 6.00 Build 0)  -->
<svg xmlns="http://www.w3.org/2000/svg" xmlns:xlink="http://www.w3.org/1999/xlink" version="1.1" id="Capa_1" x="0px" y="0px" viewBox="0 0 512.002 512.002" style="enable-background:new 0 0 512.002 512.002;" xml:space="preserve" width="512" height="512">
<g>
	<g>
		<circle style="fill-rule:evenodd;clip-rule:evenodd;fill:#FFBA4A;" cx="256.001" cy="256.001" r="55"/>
		<polygon style="fill-rule:evenodd;clip-rule:evenodd;fill:#64759D;" points="366.001,201.001 366.001,311.001 405.999,311.001     436,201.001   "/>
		<polygon style="fill-rule:evenodd;clip-rule:evenodd;fill:#64759D;" points="146.001,201.001 76.001,201.001 106.002,311.001     146.001,311.001   "/>
		<path style="fill-rule:evenodd;clip-rule:evenodd;fill:#64759D;" d="M173.035,163h165.932V137c0-8.8-7.2-16-16-16h-42.966h-48    h-42.966c-8.8,0-16,7.2-16,16V163z"/>
		<path style="fill-rule:evenodd;clip-rule:evenodd;fill:#6A87C1;" d="M338.967,163H173.035h-11.034c-8.8,0-16,7.2-16,16v22.001v110    v22.001c0,8.8,7.201,16,16,16h11.034h165.932h11.034c8.799,0,16-7.201,16-16v-22.001v-110V179c0-8.799-7.2-16-16-16H338.967    L338.967,163z M256.001,201.001c30.376,0,55,24.624,55,55s-24.624,55-55,55c-30.376,0-55-24.624-55-55    S225.625,201.001,256.001,201.001z"/>
		<path style="fill-rule:evenodd;clip-rule:evenodd;fill:#64759D;" d="M338.967,349.002H173.035v26.001c0,8.8,7.2,16,16,16h42.966    h48h42.966c8.8,0,16-7.2,16-16V349.002z"/>
		<rect x="232.001" y="10" style="fill-rule:evenodd;clip-rule:evenodd;fill:#6A87C1;" width="48" height="111"/>
		<rect x="232.001" y="391.002" style="fill-rule:evenodd;clip-rule:evenodd;fill:#6A87C1;" width="48" height="111"/>
	</g>
	<g>
		<path d="M256,191.001c-35.841,0-65,29.159-65,65s29.159,65,65,65c35.842,0,65.001-29.159,65.001-65S291.842,191.001,256,191.001z     M256,301.001c-24.813,0-45-20.187-45-45s20.187-45,45-45s45.001,20.187,45.001,45S280.814,301.001,256,301.001z"/>
		<path d="M443.948,194.931c-1.892-2.477-4.83-3.93-7.947-3.93h-59.999l-0.001,0V179c0-14.336-11.663-26-26-26h-1.033v-16    c0-14.336-11.663-26-26-26h-32.966V10c0-5.523-4.478-10-10-10s-10,4.477-10,10v101H242V10c0-5.523-4.478-10-10-10s-10,4.477-10,10    v101h-32.966c-14.337,0-26,11.664-26,26v16H162c-14.337,0-26,11.664-26,26v12H76.001c-3.117,0-6.056,1.453-7.947,3.93    s-2.521,5.694-1.7,8.701l30.001,110c1.187,4.351,5.138,7.369,9.647,7.369H136v12.001c0,14.336,11.663,26,26,26h1.034v16    c0,14.336,11.663,26,26,26H222v101c0,5.523,4.478,10,10,10s10-4.477,10-10v-101h28.001v101c0,5.523,4.478,10,10,10s10-4.477,10-10    v-101h32.966c14.337,0,26-11.664,26-26v-16H350c14.337,0,26-11.663,26-26v-12.001l0.001,0H406c4.51,0,8.461-3.018,9.647-7.369    l30.001-110C446.468,200.625,445.839,197.408,443.948,194.931z M113.64,301.001l-24.546-90H136v90H113.64z M356,333.002    c0,3.252-2.748,6-6,6h-21.034c-5.522,0-10,4.477-10,10s4.478,10,10,10l0.001,16c0,3.252-2.748,6-6,6H189.035c-3.252,0-6-2.748-6-6    v-16h65.932c5.522,0,10-4.477,10-10s-4.478-10-10-10H162c-3.252,0-6-2.748-6-6V179c0-3.252,2.748-6,6-6h21.034    c5.522,0,10-4.477,10-10s-4.478-10-10-10v-16c0-3.252,2.748-6,6-6h133.933c3.252,0,6,2.748,6,6v16h-65.932    c-5.522,0-10,4.477-10,10s4.478,10,10,10H350c3.252,0,6,2.748,6,6V333.002z M398.362,301.001h-22.36l-0.001,0v-90l0.001,0h46.906    L398.362,301.001z"/>
		<path d="M223.039,173c5.522,0,10-4.477,10-10s-4.478-10-10-10h-0.007c-5.522,0-9.996,4.477-9.996,10S217.516,173,223.039,173z"/>
		<path d="M288.97,339.001h-0.008c-5.522,0-9.996,4.477-9.996,10s4.481,10,10.004,10s10-4.477,10-10S294.493,339.001,288.97,339.001    z"/>
	</g>
</g>















</svg>
