<?xml version="1.0" encoding="iso-8859-1"?>
<!-- Generator: Adobe Illustrator 21.0.0, SVG Export Plug-In . SVG Version: 6.00 Build 0)  -->
<svg xmlns="http://www.w3.org/2000/svg" xmlns:xlink="http://www.w3.org/1999/xlink" version="1.1" id="Capa_1" x="0px" y="0px" viewBox="0 0 512.002 512.002" style="enable-background:new 0 0 512.002 512.002;" xml:space="preserve" width="512" height="512">
<g>
	<g>
		<path style="fill-rule:evenodd;clip-rule:evenodd;fill:#FF836C;" d="M126.001,180c0-71.797,58.203-130,130-130s130,58.203,130,130    s-58.203,130-130,130S126.001,251.797,126.001,180L126.001,180z M390.391,284.11c23.084-29.796,35.61-66.418,35.61-104.11    c0-93.889-76.111-170-170-170s-170,76.111-170,170c0,37.692,12.526,74.314,35.61,104.11L242.59,441.779l13.411,17.476    l13.41-17.476L390.391,284.11z"/>
		<path style="fill-rule:evenodd;clip-rule:evenodd;fill:#64759D;" d="M256.001,50c-71.797,0-130,58.203-130,130s58.203,130,130,130    s130-58.203,130-130S327.798,50,256.001,50L256.001,50z M166.001,180c0-49.706,40.294-90,90-90s90,40.294,90,90s-40.294,90-90,90    S166.001,229.706,166.001,180z"/>
		<path style="fill-rule:evenodd;clip-rule:evenodd;fill:#64759D;" d="M256.001,160c-4.465,0-8.588,1.463-11.915,3.936    c-4.906,3.644-8.085,9.483-8.085,16.064c0,4.465,1.463,8.588,3.936,11.915c1.172,1.578,2.571,2.977,4.149,4.149    c3.327,2.473,7.451,3.936,11.915,3.936s8.588-1.463,11.915-3.936c1.578-1.172,2.977-2.571,4.149-4.149    c2.473-3.328,3.936-7.451,3.936-11.915c0-6.581-3.179-12.42-8.085-16.064C264.589,161.463,260.466,160,256.001,160z"/>
		<path style="fill-rule:evenodd;clip-rule:evenodd;fill:#FFFFFF;" d="M244.086,163.935c3.328-2.472,7.451-3.935,11.915-3.935    s8.588,1.463,11.915,3.936c4.906,3.644,8.085,9.483,8.085,16.064c0,4.465-1.463,8.588-3.936,11.915l0.185,4.334l-4.334-0.185    c-3.328,2.473-7.451,3.936-11.915,3.936s-8.588-1.463-11.915-3.936l-4.335,0.185l0.185-4.334    c-2.473-3.328-3.936-7.451-3.936-11.915C236.001,173.419,239.18,167.58,244.086,163.935L244.086,163.935z M256.001,270    c49.706,0,90-40.294,90-90s-40.294-90-90-90s-90,40.294-90,90S206.295,270,256.001,270z"/>
		<path style="fill-rule:evenodd;clip-rule:evenodd;fill:#8FD57C;" d="M356.001,471.754c0-15.138-36.996-27.945-86.59-29.975    l-13.41,17.476l-13.411-17.476c-49.593,2.03-86.589,14.837-86.589,29.975c0,16.706,44.771,30.248,100,30.248    S356.001,488.459,356.001,471.754z"/>
		<path style="fill-rule:evenodd;clip-rule:evenodd;fill:#FFF0D9;" d="M236.001,180c0-6.581,3.179-12.42,8.085-16.064l-76.001-3.25    v38.628l71.666-3.064l0.185-4.334C237.464,188.588,236.001,184.465,236.001,180z"/>
		<path style="fill-rule:evenodd;clip-rule:evenodd;fill:#FFF0D9;" d="M256.001,200c-6.581,0-12.42-3.179-16.064-8.085l-3.25,76.001    h38.628l-3.064-71.666l-4.334-0.185C264.589,198.537,260.466,200,256.001,200z"/>
		<path style="fill-rule:evenodd;clip-rule:evenodd;fill:#FFF0D9;" d="M276.001,180c0,6.581-3.179,12.42-8.085,16.064l76,3.25    v-38.628l-71.666,3.064l-0.185,4.334C274.538,171.412,276.001,175.535,276.001,180z"/>
	</g>
	<g>
		<path d="M436.001,180c0-99.252-80.748-180-180-180c-33.168,0-65.592,9.106-93.766,26.335c-4.712,2.881-6.196,9.037-3.314,13.748    c2.882,4.712,9.038,6.196,13.748,3.314C197.701,28.091,226.517,20,256.001,20c88.225,0,160,71.776,160,160    c0,35.292-11.902,70.09-33.544,98.023L261.542,435.607c-0.088,0.113-0.177,0.224-0.261,0.34l-5.28,6.881l-5.293-6.898    c-0.068-0.094-0.14-0.183-0.211-0.274L129.517,277.986C107.903,250.09,96.001,215.292,96.001,180    c0-29.487,8.09-58.301,23.395-83.327c2.881-4.711,1.397-10.867-3.313-13.749c-4.712-2.88-10.866-1.397-13.749,3.314    C85.106,114.407,76.001,146.829,76.001,180c0,39.703,13.391,78.852,37.677,110.198l109.664,142.92    c-17.548,1.775-33.433,4.962-45.915,9.283c-20.853,7.219-31.426,17.094-31.426,29.353c0,13.239,12.245,23.656,36.394,30.961    c19.801,5.989,45.941,9.288,73.606,9.288s53.806-3.298,73.606-9.288c24.148-7.305,36.394-17.722,36.394-30.961    c0-12.258-10.573-22.134-31.426-29.353c-12.482-4.321-28.366-7.507-45.915-9.283l109.635-142.883    C422.61,258.852,436.001,219.703,436.001,180z M325.788,460.552c15.19,4.888,19.662,9.889,20.186,11.207    c-0.576,1.504-5.924,7.261-24.532,12.505c-17.705,4.99-40.945,7.738-65.44,7.738s-47.735-2.748-65.44-7.738    c-18.608-5.244-23.956-11.001-24.532-12.505c0.523-1.318,4.994-6.319,20.185-11.207c13.651-4.392,31.833-7.379,51.639-8.522    l10.215,13.313c1.893,2.467,4.824,3.913,7.934,3.913s6.041-1.446,7.934-3.913l10.215-13.313    C293.955,453.173,312.138,456.16,325.788,460.552z"/>
		<path d="M367.234,248.044c4.915,2.516,10.941,0.572,13.458-4.345c10.158-19.843,15.309-41.275,15.309-63.7    c0-77.196-62.804-140-140-140s-140,62.804-140,140s62.804,140,140,140c22.15,0,44.212-5.311,63.8-15.359    c4.914-2.521,6.854-8.548,4.333-13.462s-8.548-6.854-13.462-4.333C293.657,295.574,275.263,300,256.001,300    c-66.168,0-120-53.832-120-120s53.832-120,120-120s120,53.832,120,120c0,19.225-4.411,37.591-13.111,54.586    C360.373,239.502,362.318,245.528,367.234,248.044z"/>
		<path d="M353.691,201.385C367.133,139.938,318.808,80,256.001,80c-39.259,0-75.718,23.879-91.55,59.788    c-17.557,39.822-6.547,87.59,26.316,115.938C208.81,271.291,232.163,280,256.001,280C302.072,280,344.16,246.718,353.691,201.385z     M176.001,180c0-3.025,0.184-6.006,0.513-8.945l50.273,2.15c-0.508,2.185-0.786,4.457-0.786,6.795c0,2.337,0.277,4.61,0.786,6.795    l-50.273,2.149C176.185,186.006,176.001,183.025,176.001,180z M246.001,180c0-5.514,4.486-10,10-10s10,4.486,10,10    s-4.486,10-10,10S246.001,185.514,246.001,180z M285.215,173.205l50.273-2.15c0.328,2.938,0.513,5.92,0.513,8.945    c0,3.025-0.184,6.006-0.513,8.945l-50.273-2.149c0.508-2.185,0.786-4.458,0.786-6.795    C286.001,177.663,285.724,175.39,285.215,173.205z M256.001,100c33.978,0,63.057,21.302,74.634,51.245l-60.023,2.567    c-4.327-2.424-9.308-3.812-14.61-3.812s-10.284,1.388-14.61,3.812l-60.023-2.567C192.944,121.302,222.023,100,256.001,100z     M181.367,208.755l47.927-2.049l-2.049,47.927C206.233,246.509,189.491,229.767,181.367,208.755z M247.056,259.487l2.15-50.273    c2.185,0.508,4.457,0.786,6.795,0.786c2.337,0,4.61-0.277,6.795-0.786l2.149,50.273c-2.938,0.328-5.919,0.513-8.944,0.513    C252.976,260,249.995,259.816,247.056,259.487z M284.756,254.633l-2.049-47.928l47.927,2.049    C322.511,229.767,305.768,246.51,284.756,254.633z"/>
		<path d="M135.786,69.793c2.721,0,5.433-1.104,7.406-3.275c3.715-4.086,3.414-10.411-0.673-14.126    c-4.087-3.715-10.41-3.415-14.126,0.673l-0.005,0.005c-3.715,4.086-3.411,10.408,0.675,14.123    C130.979,68.935,133.386,69.793,135.786,69.793z"/>
		<path d="M347.926,281.92c2.561,0,5.122-0.977,7.075-2.93c3.905-3.905,3.905-10.237,0-14.142c-3.906-3.905-10.236-3.905-14.143,0    l-0.005,0.005c-3.905,3.905-3.902,10.234,0.003,14.139C342.809,280.944,345.367,281.92,347.926,281.92z"/>
	</g>
</g>















</svg>
