<?xml version="1.0" encoding="iso-8859-1"?>
<!-- Generator: Adobe Illustrator 21.0.0, SVG Export Plug-In . SVG Version: 6.00 Build 0)  -->
<svg xmlns="http://www.w3.org/2000/svg" xmlns:xlink="http://www.w3.org/1999/xlink" version="1.1" id="Capa_1" x="0px" y="0px" viewBox="0 0 512 512" style="enable-background:new 0 0 512 512;" xml:space="preserve" width="512" height="512">
<g>
	<g>
		<path style="fill-rule:evenodd;clip-rule:evenodd;fill:#FF836C;" d="M256,10C120.138,10,10,120.138,10,256s110.138,246,246,246    s246-110.138,246-246S391.862,10,256,10L256,10z M256,50c113.771,0,206,92.229,206,206s-92.229,206-206,206S50,369.77,50,256    S142.23,50,256,50z"/>
		<circle style="fill-rule:evenodd;clip-rule:evenodd;fill:#FFF0D9;" cx="256" cy="256" r="206"/>
		<path style="fill-rule:evenodd;clip-rule:evenodd;fill:#64759D;" d="M143.502,153.501c0-11.045,8.954-20,20-20    c11.046,0,20,8.954,20,20V236H236v-82.499c0-11.045,8.954-20,20-20s20,8.954,20,20V236h52.499v-82.499c0-11.045,8.954-20,20-20    s20,8.954,20,20v204.998c0,11.046-8.954,20-20,20s-20-8.954-20-20v-82.499H276v82.499c0,11.046-8.954,20-20,20s-20-8.954-20-20    v-82.499h-52.498v82.499c0,11.046-8.954,20-20,20c-11.046,0-20-8.954-20-20V153.501z"/>
	</g>
	<g>
		<path d="M437.019,74.98C388.667,26.628,324.38,0,256,0c-53.954,0-105.562,16.594-149.243,47.987    c-4.485,3.224-5.508,9.472-2.285,13.957c3.224,4.486,9.473,5.508,13.957,2.285C158.689,35.294,206.26,20,256,20    c130.13,0,236,105.869,236,236S386.131,492,256,492C125.869,492,20,386.131,20,256c0-49.654,15.244-97.156,44.083-137.368    c3.219-4.488,2.189-10.736-2.298-13.955c-4.489-3.218-10.735-2.191-13.955,2.298C16.54,150.607,0,202.139,0,256    c0,68.38,26.628,132.667,74.98,181.02S187.62,512,256,512s132.667-26.628,181.019-74.98C485.371,388.667,512,324.38,512,256    S485.371,123.333,437.019,74.98z"/>
		<path d="M421.626,378.911c4.587,3.077,10.799,1.853,13.875-2.734C459.379,340.582,472,299.025,472,256    c0-57.696-22.468-111.938-63.265-152.735C367.938,62.468,313.696,40,256,40s-111.938,22.468-152.735,63.265    C62.468,144.062,40,198.304,40,256s22.468,111.938,63.265,152.735C144.062,449.532,198.304,472,256,472    c42.988,0,84.513-12.6,120.087-36.438c4.588-3.074,5.815-9.286,2.741-13.874c-3.075-4.588-9.288-5.815-13.875-2.741    C332.685,440.57,295.01,452,256,452c-108.075,0-196-87.925-196-196S147.926,60,256,60s196,87.925,196,196    c0,39.043-11.449,76.747-33.108,109.036C415.816,369.622,417.04,375.834,421.626,378.911z"/>
		<path d="M82.053,92.048c2.561,0,5.122-0.978,7.075-2.931c3.905-3.905,3.905-10.237,0-14.142c-3.905-3.905-10.236-3.905-14.142,0    l-0.005,0.005c-3.905,3.905-3.903,10.234,0.002,14.139C76.936,91.072,79.494,92.048,82.053,92.048z"/>
		<path d="M394.598,394.587l-0.005,0.005c-3.905,3.905-3.903,10.234,0.002,14.139c1.952,1.952,4.511,2.928,7.07,2.928    c2.561,0,5.122-0.978,7.075-2.931c3.905-3.905,3.905-10.237,0-14.142C404.835,390.682,398.504,390.682,394.598,394.587z"/>
		<path d="M348.499,388.498c16.542,0,30-13.458,30-30V153.5c0-16.542-13.458-30-30-30s-30,13.458-30,30V226H286V153.5    c0-16.542-13.458-30-30-30c-16.542,0-30,13.458-30,30V226h-32.499V153.5c0-16.542-13.458-30-30-30c-16.542,0-30,13.458-30,30    v204.998c0,16.542,13.458,30,30,30c16.542,0,30-13.458,30-30v-72.5H226v72.5c0,16.542,13.458,30,30,30c16.542,0,30-13.458,30-30    v-72.5h32.499v72.5C318.499,375.04,331.957,388.498,348.499,388.498z M276,265.999c-5.523,0-10,4.477-10,10v82.5    c0,5.514-4.486,10-10,10c-5.514,0-10-4.486-10-10v-82.5c0-5.523-4.477-10-10-10h-52.499c-5.523,0-10,4.477-10,10v82.5    c0,5.514-4.486,10-10,10c-5.514,0-10-4.486-10-10V153.5c0-5.514,4.486-10,10-10c5.514,0,10,4.486,10,10V236    c0,5.523,4.477,10,10,10H236c5.523,0,10-4.477,10-10V153.5c0-5.514,4.486-10,10-10c5.514,0,10,4.486,10,10V236    c0,5.523,4.477,10,10,10h52.499c5.523,0,10-4.477,10-10V153.5c0-5.514,4.486-10,10-10s10,4.486,10,10v204.998    c0,5.514-4.486,10-10,10s-10-4.486-10-10v-82.5c0-5.523-4.477-10-10-10H276z"/>
	</g>
</g>















</svg>
