<?xml version="1.0" encoding="iso-8859-1"?>
<!-- Generator: Adobe Illustrator 21.0.0, SVG Export Plug-In . SVG Version: 6.00 Build 0)  -->
<svg xmlns="http://www.w3.org/2000/svg" xmlns:xlink="http://www.w3.org/1999/xlink" version="1.1" id="Capa_1" x="0px" y="0px" viewBox="0 0 512 512" style="enable-background:new 0 0 512 512;" xml:space="preserve" width="512" height="512">
<g>
	<g>
		<path style="fill-rule:evenodd;clip-rule:evenodd;fill:#FD4848;" d="M65.641,334.908C55.412,310.215,50,283.433,50,256    s5.412-54.215,15.641-78.908c10.203-24.632,25.299-47.362,44.694-66.757c7.81-7.809,7.81-20.472,0-28.281    c-7.809-7.809-20.472-7.809-28.281,0c-22.988,22.988-40.989,50.191-53.288,79.882C16.494,191.564,10,223.494,10,256    s6.494,64.436,18.766,94.064c12.298,29.691,30.3,56.894,53.288,79.882c7.809,7.809,20.472,7.809,28.281,0    c7.81-7.809,7.81-20.472,0-28.281C90.94,382.27,75.843,359.54,65.641,334.908z"/>
		<circle style="fill-rule:evenodd;clip-rule:evenodd;fill:#FFF0D9;" cx="256" cy="256" r="166"/>
		<path style="fill-rule:evenodd;clip-rule:evenodd;fill:#FD4848;" d="M446.36,334.908c-10.203,24.632-25.299,47.362-44.694,66.757    c-7.809,7.81-7.809,20.472,0,28.281c7.81,7.809,20.472,7.809,28.281,0c22.988-22.988,40.989-50.191,53.288-79.882    c12.272-29.628,18.766-61.558,18.766-94.064s-6.494-64.436-18.766-94.064c-12.298-29.691-30.3-56.894-53.288-79.882    c-7.81-7.809-20.472-7.809-28.281,0c-7.809,7.81-7.809,20.472,0,28.281c19.395,19.395,34.491,42.125,44.694,66.757    C456.588,201.786,462,228.568,462,256S456.588,310.215,446.36,334.908z"/>
		<path style="fill-rule:evenodd;clip-rule:evenodd;fill:#FD4848;" d="M266.001,296.36c33.04,0,59.999-26.96,59.999-60v-16.755    c0-33.04-26.958-60.001-59.999-60.001h-40.261c-10.902,0-19.739,8.838-19.739,19.739v153.313c0,10.901,8.838,19.739,19.739,19.739    c10.901,0,19.739-8.837,19.739-19.739V296.36H266.001L266.001,296.36z M266.001,256.883h-20.523v-57.8h20.523    c11.248,0,20.522,9.275,20.522,20.523v16.755C286.522,247.608,277.248,256.883,266.001,256.883z"/>
	</g>
	<g>
		<path d="M117.406,394.594c-18.372-18.372-32.68-39.74-42.526-63.513C65.006,307.245,60,281.985,60,256s5.006-51.246,14.879-75.082    c9.847-23.772,24.155-45.141,42.527-63.513c11.695-11.696,11.695-30.727,0-42.423c-5.666-5.666-13.199-8.786-21.211-8.786    c-8.013,0-15.546,3.12-21.211,8.786c-23.813,23.812-42.471,51.78-55.456,83.126C6.57,189.391,0,222.327,0,256    s6.57,66.609,19.527,97.892c12.984,31.345,31.643,59.313,55.456,83.125c5.666,5.666,13.199,8.786,21.212,8.786    c8.013,0,15.546-3.12,21.212-8.786C129.102,425.322,129.102,406.291,117.406,394.594L117.406,394.594z M103.264,422.876    c-1.889,1.888-4.399,2.928-7.07,2.928c-2.671,0-5.181-1.04-7.07-2.929c-21.947-21.946-39.146-47.731-51.12-76.637    C26.058,317.394,20,287.034,20,256s6.058-61.394,18.004-90.237c11.975-28.908,29.174-54.692,51.121-76.638    c1.888-1.888,4.398-2.928,7.069-2.928c2.67,0,5.181,1.04,7.069,2.928c3.898,3.898,3.898,10.241,0,14.139    c-20.238,20.238-36.005,43.79-46.862,70.001C45.519,199.54,40,227.376,40,256c0,28.624,5.519,56.46,16.402,82.735    c10.857,26.212,26.624,49.764,46.862,70.001C107.162,412.635,107.162,418.977,103.264,422.876z"/>
		<path d="M492.474,158.109c-12.985-31.346-31.643-59.314-55.456-83.125c-5.666-5.666-13.199-8.786-21.212-8.786    c-8.013,0-15.546,3.12-21.212,8.786c-11.695,11.696-11.695,30.727,0,42.423c18.372,18.372,32.679,39.74,42.526,63.513    C446.995,204.756,452,230.017,452,256c0,21.56-3.488,42.783-10.367,63.08c-1.773,5.231,1.03,10.908,6.261,12.681    c5.232,1.773,10.908-1.03,12.681-6.261C468.156,303.131,472,279.747,472,256c0-28.623-5.519-56.459-16.402-82.735    c-10.857-26.212-26.624-49.764-46.862-70.001c-3.898-3.898-3.898-10.241,0-14.14c1.889-1.888,4.399-2.928,7.07-2.928    c2.671,0,5.181,1.04,7.07,2.929c21.946,21.945,39.146,47.73,51.12,76.637C485.943,194.606,492,224.967,492,256    s-6.058,61.394-18.004,90.237c-11.974,28.907-29.173,54.691-51.121,76.638c-1.888,1.888-4.398,2.928-7.069,2.928    c-2.67,0-5.181-1.04-7.069-2.928c-3.898-3.898-3.898-10.241-0.001-14.139c3.376-3.376,6.682-6.907,9.827-10.496    c3.64-4.154,3.223-10.472-0.932-14.111c-4.154-3.64-10.472-3.223-14.111,0.932c-2.855,3.259-5.858,6.466-8.925,9.533    c-11.695,11.696-11.695,30.727,0,42.423c5.666,5.666,13.199,8.786,21.211,8.786c8.013,0,15.546-3.12,21.211-8.786    c23.813-23.813,42.472-51.781,55.456-83.126C505.431,322.609,512,289.674,512,256S505.431,189.391,492.474,158.109z"/>
		<path d="M256,80.001c-32.055,0-63.442,8.712-90.768,25.195c-4.729,2.853-6.25,8.999-3.398,13.728    c2.853,4.729,9,6.249,13.728,3.398c24.208-14.603,52.023-22.321,80.438-22.321c86.019,0,156,69.981,156,156s-69.981,156-156,156    s-156-69.981-156-156c0-28.368,7.692-56.14,22.245-80.313c2.849-4.731,1.322-10.876-3.41-13.725    c-4.731-2.848-10.876-1.323-13.725,3.41C88.683,192.659,80,223.998,80,256c0,97.046,78.953,176,176,176    c97.046,0,176-78.953,176-176S353.046,80.001,256,80.001z"/>
		<path d="M138.613,148.622c2.721,0,5.432-1.104,7.406-3.275c3.715-4.086,3.414-10.411-0.673-14.126    c-4.086-3.715-10.411-3.414-14.126,0.673l-0.005,0.005c-3.715,4.086-3.411,10.408,0.675,14.123    C133.806,147.764,136.213,148.622,138.613,148.622z"/>
		<path d="M425.715,354.046c-2.74,4.795-1.072,10.9,3.723,13.64c1.564,0.894,3.268,1.319,4.95,1.319c3.473,0,6.85-1.812,8.696-5.043    c2.74-4.795,1.074-10.904-3.721-13.644c-4.795-2.74-10.904-1.073-13.644,3.721L425.715,354.046z"/>
		<path d="M255.479,332.656v-26.296h10.522c38.598,0,69.999-31.402,69.999-70v-16.755c0-38.599-31.401-70.001-69.999-70.001H225.74    c-16.398,0-29.739,13.341-29.739,29.739v153.313c0,16.398,13.341,29.739,29.739,29.739    C242.138,362.395,255.479,349.054,255.479,332.656z M216,332.656V179.344c0-5.37,4.369-9.739,9.739-9.739h40.261    c27.57,0,49.999,22.43,49.999,50.001v16.755c0,27.57-22.429,50-49.999,50h-20.522c-5.523,0-10,4.477-10,10v36.296    c0,5.37-4.369,9.739-9.739,9.739S216,338.027,216,332.656z"/>
		<path d="M245.479,266.883h20.522c16.83,0,30.522-13.692,30.522-30.522v-16.755c0-16.831-13.692-30.523-30.522-30.523h-20.522    c-5.523,0-10,4.477-10,10v57.8C235.479,262.406,239.956,266.883,245.479,266.883z M255.479,209.083h10.522    c5.704,0,10.522,4.819,10.522,10.523v16.755c0,5.704-4.818,10.522-10.522,10.522h-10.522V209.083z"/>
	</g>
</g>















</svg>
