<?xml version="1.0" encoding="iso-8859-1"?>
<!-- Generator: Adobe Illustrator 21.0.0, SVG Export Plug-In . SVG Version: 6.00 Build 0)  -->
<svg xmlns="http://www.w3.org/2000/svg" xmlns:xlink="http://www.w3.org/1999/xlink" version="1.1" id="Capa_1" x="0px" y="0px" viewBox="0 0 512 512" style="enable-background:new 0 0 512 512;" xml:space="preserve" width="512" height="512">
<g>
	<g>
		<path style="fill-rule:evenodd;clip-rule:evenodd;fill:#FFF0D9;" d="M106,115.996h300v40H106V115.996L106,115.996z M26,415.999    l283.938,0.003l22.812-39.515c-7.016-9.821-11.143-21.847-11.143-34.836c0-33.137,26.863-60,60-60s60,26.863,60,60    c0,12.99-4.128,25.015-11.144,34.836l22.813,39.516L486,415.999c8.8-0.001,16-7.201,16-16v-328c0-8.8-7.199-16-16-16H26    c-8.8,0-16,7.2-16,16v328C10,408.799,17.2,415.999,26,415.999z"/>
		<rect x="106" y="115.996" style="fill-rule:evenodd;clip-rule:evenodd;fill:#FF836C;" width="300" height="40"/>
		<path style="fill-rule:evenodd;clip-rule:evenodd;fill:#FFBA4A;" d="M381.606,281.651c-33.137,0-60,26.863-60,60    c0,12.99,4.128,25.015,11.143,34.836c9.835,13.769,25.346,23.206,43.116,24.893c1.889,0.179,3.804,0.271,5.74,0.271    c1.936,0,3.851-0.092,5.74-0.271c17.77-1.686,33.281-11.123,43.116-24.893c7.017-9.821,11.144-21.846,11.144-34.836    C441.606,308.514,414.743,281.651,381.606,281.651L381.606,281.651z M361.606,341.651c0-11.046,8.954-20,20-20s20,8.954,20,20    c0,11.046-8.954,20-20,20S361.606,352.696,361.606,341.651z"/>
		<circle style="fill-rule:evenodd;clip-rule:evenodd;fill:#64759D;" cx="381.606" cy="341.651" r="20"/>
		<path style="fill-rule:evenodd;clip-rule:evenodd;fill:#FD4848;" d="M375.866,401.379c-17.77-1.687-33.281-11.123-43.115-24.893    l-22.814,39.516l-8.723,15.105l26.678,3.203L344.331,456l23.093-39.998L375.866,401.379z"/>
		<path style="fill-rule:evenodd;clip-rule:evenodd;fill:#FD4848;" d="M387.344,401.376l8.445,14.626L418.882,456l16.113-21.503    l27.003-3.391l-8.723-15.105l-22.813-39.516C420.627,390.256,405.116,399.693,387.344,401.376z"/>
	</g>
	<g>
		<path d="M486,45.999H116c-5.523,0-10,4.477-10,10s4.477,10,10,10H486c3.252,0,6,2.748,6,6v328c0,3.252-2.748,6-6.001,6    l-26.949,0.002l-16.903-29.276c6.003-10.321,9.46-22.298,9.46-35.075c0-38.598-31.402-70-70-70s-70,31.402-70,70    c0,12.776,3.457,24.752,9.46,35.074l-16.904,29.277L26,405.999c-3.252,0-6-2.748-6-6v-328c0-3.252,2.748-6,6-6h10    c5.523,0,10-4.477,10-10s-4.477-10-10-10H26c-14.336,0-26,11.664-26,26v328c0,14.336,11.664,26,26,26l266.615,0.003l-0.061,0.105    c-1.68,2.91-1.786,6.469-0.283,9.474c1.503,3.005,4.415,5.054,7.751,5.455l22.465,2.697l13.874,18.307    c1.897,2.504,4.852,3.96,7.969,3.96c0.207,0,0.416-0.006,0.625-0.02c3.344-0.209,6.361-2.079,8.036-4.98l20.207-34.999h16.818    L410.221,461c1.68,2.91,4.709,4.781,8.063,4.982c0.2,0.012,0.4,0.018,0.599,0.018c3.137,0,6.106-1.475,8.001-4.003l13.568-18.106    l22.793-2.862c3.324-0.417,6.219-2.472,7.709-5.472c1.491-3,1.38-6.548-0.295-9.45L470.597,426L486,425.999    c14.336-0.001,25.999-11.664,25.999-26v-328C512,57.663,500.336,45.999,486,45.999z M332.613,351.65h20.714    c3.018,8.509,9.77,15.262,18.279,18.28v20.714C352.044,386.657,336.6,371.213,332.613,351.65z M381.606,351.65    c-5.514,0-9.999-4.486-9.999-10c0-5.514,4.485-10,9.999-10s10,4.486,10,10C391.606,347.165,387.12,351.65,381.606,351.65z     M391.606,390.645V369.93c8.509-3.018,15.262-9.771,18.28-18.28h20.715C426.614,371.214,411.169,386.658,391.606,390.645z     M381.607,291.651c24.146,0,44.348,17.205,48.994,40h-20.715c-4.128-11.639-15.243-20-28.28-20s-24.151,8.361-28.279,20h-20.714    C337.259,308.856,357.461,291.651,381.607,291.651z M343.203,437.955l-7.34-9.685c-1.638-2.162-4.084-3.566-6.777-3.889    l-11.635-1.396l1.268-2.195c0.005-0.009,0.011-0.018,0.016-0.027l15.794-27.353c7.341,6.684,16.109,11.821,25.781,14.918    L343.203,437.955z M433.749,424.576c-2.691,0.338-5.13,1.754-6.756,3.925l-7.027,9.377l-17.061-29.551    c9.672-3.097,18.44-8.234,25.781-14.918l15.796,27.359c0.001,0.002,0.002,0.004,0.003,0.006l1.321,2.288L433.749,424.576z"/>
		<path d="M106,165.996h300c5.522,0,10-4.477,10-10v-40c0-5.523-4.478-10-10-10H106c-5.523,0-10,4.477-10,10v40    C96,161.519,100.477,165.996,106,165.996z M116,125.996h280v20H116V125.996z"/>
		<path d="M316,221.998c5.522,0,10-4.477,10-10s-4.478-10-10-10H196c-5.523,0-10,4.477-10,10s4.477,10,10,10H316z"/>
		<path d="M386,251.999c0-5.523-4.478-10-10-10H136c-5.523,0-10,4.477-10,10s4.477,10,10,10h240    C381.522,261.999,386,257.522,386,251.999z"/>
		<path d="M76.003,65.999c5.523,0,10-4.477,10-10s-4.477-10-10-10h-0.007c-5.523,0-9.996,4.477-9.996,10S70.48,65.999,76.003,65.999    z"/>
		<path d="M175.997,322.002c-5.523,0-10,4.477-10,10s4.477,10,10,10h39.996c5.523,0,10-4.477,10-10s-4.477-10-10-10H175.997z"/>
		<path d="M135.993,322.002c-5.523,0-9.997,4.477-9.997,10s4.48,10,10.003,10s10-4.477,10-10s-4.477-10-10-10H135.993z"/>
	</g>
</g>















</svg>
