<?xml version="1.0" encoding="iso-8859-1"?>
<!-- Generator: Adobe Illustrator 21.0.0, SVG Export Plug-In . SVG Version: 6.00 Build 0)  -->
<svg xmlns="http://www.w3.org/2000/svg" xmlns:xlink="http://www.w3.org/1999/xlink" version="1.1" id="Capa_1" x="0px" y="0px" viewBox="0 0 511.983 511.983" style="enable-background:new 0 0 511.983 511.983;" xml:space="preserve" width="512" height="512">
<g>
	<g>
		<path style="fill-rule:evenodd;clip-rule:evenodd;fill:#8EECF0;" d="M188.697,144.853L188.697,144.853L188.697,144.853z     M212.94,312.604l-38.386-143.257c-2.847-10.625,3.517-21.647,14.143-24.494c10.625-2.847,21.647,3.517,24.495,14.142    l40.14,149.804l2.658-0.016c42.801,0,85.06,11.264,122.134,32.668c7.242,4.161,16.487,1.664,20.648-5.577L499.976,160.58    c4.161-7.242,1.664-16.487-5.578-20.648c-72.501-41.857-154.685-63.939-238.409-63.939S90.081,98.075,17.58,139.933    c-7.241,4.161-9.739,13.406-5.577,20.648l101.205,175.293c4.161,7.242,13.406,9.739,20.648,5.577    C158.394,327.284,185.204,317.56,212.94,312.604z"/>
		<path style="fill-rule:evenodd;clip-rule:evenodd;fill:#6A87C1;" d="M188.696,144.853L188.696,144.853L188.696,144.853z     M174.554,169.347l38.386,143.257l14.766,55.109c4.802-4.811,10.896-8.461,17.933-10.347c7.038-1.886,14.141-1.772,20.704-0.005    l-13.012-48.563l-40.14-149.804c-2.847-10.625-13.869-16.989-24.495-14.142C178.071,147.7,171.707,158.722,174.554,169.347z"/>
		<path style="fill-rule:evenodd;clip-rule:evenodd;fill:#64759D;" d="M245.639,357.366c-7.038,1.886-13.132,5.536-17.933,10.348    c-9.754,9.772-14.175,24.334-10.344,38.629c5.716,21.333,27.644,33.993,48.977,28.277c21.333-5.716,33.993-27.644,28.277-48.977    c-3.83-14.295-14.94-24.696-28.273-28.282C259.78,355.595,252.677,355.481,245.639,357.366z"/>
	</g>
	<g>
		<path d="M499.398,131.272c-73.971-42.706-158.14-65.279-243.409-65.279c-53.109,0-105.569,8.642-155.924,25.686    c-5.231,1.771-8.036,7.447-6.266,12.678c1.771,5.231,7.447,8.037,12.678,6.266c48.284-16.344,98.588-24.63,149.512-24.63    c81.764,0,162.476,21.646,233.427,62.609c2.449,1.408,3.298,4.546,1.9,6.978L390.1,330.892c-0.682,1.186-1.785,2.036-3.106,2.393    c-1.322,0.357-2.703,0.177-3.871-0.494c-2.8-1.616-5.671-3.2-8.534-4.708c-4.885-2.573-10.934-0.699-13.508,4.188    c-2.574,4.886-0.699,10.934,4.188,13.508c2.636,1.388,5.278,2.847,7.872,4.343c3.86,2.219,8.141,3.352,12.477,3.352    c2.199,0,4.412-0.292,6.592-0.88c6.479-1.75,11.889-5.918,15.222-11.719l101.217-175.311    C515.549,153.552,511.391,138.165,499.398,131.272z"/>
		<path d="M274.625,349.632l-8.201-30.606c8.676,0.388,17.354,1.25,25.918,2.592c0.524,0.083,1.046,0.123,1.562,0.123    c4.839,0,9.093-3.521,9.866-8.452c0.855-5.456-2.874-10.573-8.33-11.429c-11.366-1.782-22.915-2.781-34.422-3.011l-25.783-96.223    l32.202-32.202c3.905-3.905,3.905-10.237,0-14.143c-3.906-3.905-10.236-3.905-14.143,0l-24.036,24.036l-6.407-23.911    c-2.068-7.719-7.036-14.181-13.989-18.195c-6.955-4.015-15.035-5.087-22.753-3.018c-7.719,2.068-14.181,7.036-18.195,13.989    c-4.015,6.954-5.086,15.034-3.018,22.752L200.523,304.9c-25.233,5.617-49.294,14.974-71.65,27.881    c-1.187,0.681-2.569,0.86-3.889,0.503c-1.321-0.356-2.424-1.207-3.116-2.411L20.674,155.599c-1.408-2.45-0.561-5.588,1.905-7.005    c4.008-2.313,8.103-4.596,12.171-6.785c4.863-2.617,6.685-8.681,4.068-13.544c-2.617-4.864-8.68-6.685-13.545-4.068    c-4.243,2.283-8.514,4.664-12.676,7.067C0.587,138.165-3.57,153.552,3.343,165.58l101.194,175.275    c3.344,5.819,8.753,9.987,15.232,11.737c2.179,0.588,4.39,0.88,6.588,0.88c4.339,0,8.625-1.135,12.498-3.361    c20.849-12.036,43.3-20.713,66.851-25.867l10.955,40.886c-1.443,1.847-2.773,3.803-3.965,5.869    c-6.676,11.564-8.449,25.036-4.993,37.933c5.977,22.309,26.227,37.058,48.299,37.058c4.27,0,8.609-0.552,12.926-1.709    c26.625-7.134,42.482-34.6,35.349-61.225C300.053,367.295,288.704,355.312,274.625,349.632z M185.233,159.184    c1.344-2.327,3.492-3.985,6.052-4.671c2.563-0.686,5.25-0.322,7.576,1.02c2.326,1.343,3.985,3.492,4.671,6.051l49.439,184.508    c-3.293,0.2-6.612,0.73-9.919,1.616c-3.282,0.88-6.426,2.074-9.401,3.552l-49.437-184.501    C183.528,164.2,183.89,161.51,185.233,159.184z M263.752,424.962c-15.979,4.278-32.45-5.234-36.73-21.207    c-2.073-7.737-1.01-15.819,2.996-22.757c1.282-2.22,2.818-4.235,4.565-6.021c0.004-0.004,0.008-0.008,0.013-0.012    c3.71-3.787,8.377-6.532,13.632-7.94c15.976-4.282,32.45,5.233,36.73,21.206C289.237,404.205,279.724,420.682,263.752,424.962z"/>
		<path d="M297.293,176.282l-32.75,32.75c-3.905,3.905-3.905,10.237,0,14.143c1.953,1.953,4.512,2.929,7.071,2.929    s5.118-0.976,7.071-2.929l32.75-32.75c3.905-3.905,3.905-10.237,0-14.143C307.529,172.377,301.199,172.377,297.293,176.282z"/>
		<path d="M66.05,125.51c1.504,0,3.03-0.34,4.466-1.058c4.94-2.47,6.942-8.477,4.473-13.417c-2.47-4.941-8.48-6.942-13.416-4.472    l-0.007,0.003c-4.94,2.47-6.938,8.475-4.469,13.415C58.848,123.485,62.381,125.51,66.05,125.51z"/>
		<path d="M336.294,311.773c-5.195-1.856-10.923,0.852-12.78,6.054c-1.857,5.201,0.853,10.923,6.054,12.781l0.007,0.002    c1.111,0.397,2.246,0.585,3.361,0.585c4.106,0,7.955-2.551,9.416-6.64C344.209,319.354,341.495,313.631,336.294,311.773z"/>
	</g>
</g>















</svg>
