<?xml version="1.0" encoding="iso-8859-1"?>
<!-- Generator: Adobe Illustrator 21.0.0, SVG Export Plug-In . SVG Version: 6.00 Build 0)  -->
<svg xmlns="http://www.w3.org/2000/svg" xmlns:xlink="http://www.w3.org/1999/xlink" version="1.1" id="Capa_1" x="0px" y="0px" viewBox="0 0 512 512" style="enable-background:new 0 0 512 512;" xml:space="preserve" width="512" height="512">
<g>
	<g>
		<path style="fill-rule:evenodd;clip-rule:evenodd;fill:#64759D;" d="M76,256c0-99.411,80.589-180,180-180s180,80.589,180,180    s-80.589,180-180,180S76,355.411,76,256L76,256z M502,256c0-135.862-110.138-246-246-246S10,120.138,10,256s110.138,246,246,246    S502,391.862,502,256z"/>
		<path style="fill-rule:evenodd;clip-rule:evenodd;fill:#FF836C;" d="M256,76c-99.411,0-180,80.589-180,180s80.589,180,180,180    s180-80.589,180-180S355.411,76,256,76L256,76z M128.327,198.512c19.954-44.222,62.206-76.22,112.428-81.659l-1.926,40.621    l-3.16,66.634c-1.301,0.831-2.548,1.739-3.734,2.718l-64.344-17.584L128.327,198.512L128.327,198.512z M276.332,224.108    l-3.16-66.634l-1.926-40.621c50.222,5.439,92.476,37.437,112.428,81.659l-39.263,10.73l-64.344,17.584    C278.88,225.847,277.633,224.939,276.332,224.108L276.332,224.108z M292.642,265.496l62.365-23.585l38.078-14.4    c1.905,9.207,2.915,18.742,2.915,28.513c0,41.075-17.689,78.02-45.866,103.629l-22.346-34.039l-36.576-55.714    C291.776,268.472,292.254,267.002,292.642,265.496L292.642,265.496z M258.306,293.789l41.691,52.011l25.483,31.79    c-20.475,11.727-44.194,18.434-69.481,18.434c-25.286,0-49.006-6.706-69.481-18.434l25.472-31.777l41.701-52.023    c0.763,0.046,1.533,0.071,2.308,0.071C256.775,293.861,257.543,293.835,258.306,293.789L258.306,293.789z M156.993,241.911    l62.365,23.585c0.388,1.506,0.867,2.975,1.43,4.402l-36.574,55.711l-22.349,34.043C133.689,334.043,116,297.099,116,256.024    c0-9.772,1.008-19.307,2.915-28.513L156.993,241.911z"/>
		<path style="fill-rule:evenodd;clip-rule:evenodd;fill:#C2C2C2;" d="M240.755,116.853c-50.222,5.439-92.474,37.437-112.428,81.659    l39.263,10.73c14.218-26.831,40.29-46.411,71.238-51.768L240.755,116.853z"/>
		<path style="fill-rule:evenodd;clip-rule:evenodd;fill:#C2C2C2;" d="M156,256c0-4.783,0.344-9.486,0.993-14.089l-38.078-14.4    c-1.906,9.206-2.915,18.742-2.915,28.513c0,41.075,17.689,78.019,45.865,103.629l22.349-34.043    C166.753,307.608,156,283.061,156,256z"/>
		<path style="fill-rule:evenodd;clip-rule:evenodd;fill:#C2C2C2;" d="M256,356c-15.793,0-30.728-3.666-44.009-10.186    l-25.472,31.777c20.474,11.727,44.194,18.434,69.481,18.434c25.286,0,49.006-6.706,69.481-18.434l-25.483-31.79    C286.315,352.503,271.267,356,256,356z"/>
		<path style="fill-rule:evenodd;clip-rule:evenodd;fill:#C2C2C2;" d="M327.788,325.614l22.346,34.039    C378.311,334.043,396,297.099,396,256.024c0-9.772-1.009-19.306-2.915-28.513l-38.078,14.4C355.656,246.515,356,251.217,356,256    C356,282.081,345.814,307.027,327.788,325.614z"/>
		<path style="fill-rule:evenodd;clip-rule:evenodd;fill:#C2C2C2;" d="M344.41,209.242l39.263-10.73    c-19.952-44.223-62.206-76.22-112.428-81.659l1.926,40.621C304.12,162.831,330.192,182.412,344.41,209.242z"/>
		<path style="fill-rule:evenodd;clip-rule:evenodd;fill:#EBEBEB;" d="M344.41,209.242c-14.218-26.83-40.29-46.411-71.238-51.768    l3.16,66.634c1.301,0.831,2.548,1.739,3.734,2.718L344.41,209.242z"/>
		<path style="fill-rule:evenodd;clip-rule:evenodd;fill:#EBEBEB;" d="M235.668,224.108l3.16-66.634    c-30.948,5.357-57.02,24.937-71.238,51.768l64.344,17.584C233.12,225.847,234.367,224.939,235.668,224.108z"/>
		<path style="fill-rule:evenodd;clip-rule:evenodd;fill:#EBEBEB;" d="M219.358,265.496l-62.365-23.585    C156.344,246.514,156,251.217,156,256c0,27.061,10.752,51.608,28.214,69.609l36.574-55.711    C220.225,268.471,219.746,267.002,219.358,265.496z"/>
		<path style="fill-rule:evenodd;clip-rule:evenodd;fill:#EBEBEB;" d="M253.692,293.791l-41.701,52.023    C225.272,352.333,240.207,356,256,356c15.267,0,30.315-3.496,43.998-10.2l-41.691-52.011c-0.763,0.046-1.532,0.072-2.306,0.072    C255.225,293.861,254.456,293.837,253.692,293.791z"/>
		<path style="fill-rule:evenodd;clip-rule:evenodd;fill:#EBEBEB;" d="M291.212,269.899l36.576,55.714    C345.814,307.027,356,282.081,356,256c0-4.783-0.344-9.485-0.993-14.089l-62.365,23.585    C292.254,267.002,291.776,268.472,291.212,269.899z"/>
	</g>
	<g>
		<path d="M402.878,225.484c-0.594-2.866-2.412-5.328-4.976-6.737c-2.565-1.41-5.618-1.625-8.354-0.59l-37.897,14.332    c-0.008,0.003-0.016,0.006-0.023,0.009l-62.521,23.644c-3.041,1.15-5.333,3.707-6.146,6.855c-0.283,1.095-0.637,2.184-1.051,3.237    c-1.191,3.023-0.839,6.437,0.944,9.153l36.654,55.835c0.007,0.01,0.013,0.021,0.02,0.031l22.247,33.888    c1.604,2.445,4.2,4.065,7.102,4.433c0.42,0.053,0.84,0.08,1.258,0.08c2.473,0,4.875-0.917,6.726-2.6    C388.089,338.669,406,298.201,406,256.024C406,245.772,404.949,235.497,402.878,225.484z M346,256.008    c-0.002,19.238-6.044,37.623-17.204,52.919l-24.409-37.182L346,256.008z M351.771,343.924l-11.39-17.35    C356.957,306.803,366,282.038,366,256c0-2.476-0.09-4.967-0.259-7.458l19.416-7.343c0.561,4.918,0.843,9.875,0.843,14.824    C386,288.628,373.648,320.056,351.771,343.924z"/>
		<path d="M109.121,225.483C107.05,235.492,106,245.767,106,256.024c0,42.175,17.91,82.644,49.139,111.028    c1.852,1.683,4.254,2.6,6.726,2.6c0.419,0,0.839-0.026,1.259-0.079c2.901-0.368,5.497-1.988,7.102-4.433l22.249-33.891    c0.008-0.012,0.015-0.024,0.023-0.035l36.651-55.828c1.784-2.717,2.136-6.132,0.943-9.156c-0.416-1.056-0.769-2.142-1.048-3.227    c-0.812-3.151-3.104-5.71-6.147-6.861l-62.532-23.648c-0.003-0.001-0.006-0.002-0.009-0.003l-37.903-14.334    c-2.735-1.035-5.789-0.819-8.354,0.59C111.533,220.156,109.715,222.618,109.121,225.483z M183.205,308.924    c-11.161-15.295-17.203-33.678-17.205-52.916l41.613,15.737L183.205,308.924z M126.842,241.2l19.417,7.343    C146.09,251.033,146,253.524,146,256c0,26.037,9.044,50.801,25.621,70.57l-11.393,17.354C138.352,320.055,126,288.627,126,256.024    C126,251.073,126.282,246.117,126.842,241.2z"/>
		<path d="M181.549,386.267c22.565,12.925,48.311,19.757,74.451,19.757s51.886-6.832,74.451-19.757    c2.536-1.453,4.31-3.942,4.854-6.813c0.544-2.872-0.194-5.838-2.022-8.118l-25.366-31.645c-0.009-0.011-0.018-0.022-0.027-0.034    l-41.781-52.122c-2.029-2.533-5.169-3.926-8.402-3.728c-1.231,0.074-2.274,0.07-3.415,0.002c-3.23-0.196-6.372,1.195-8.402,3.728    l-41.792,52.136c-0.006,0.007-0.012,0.014-0.017,0.022l-25.363,31.641c-1.828,2.28-2.566,5.247-2.022,8.118    C177.239,382.325,179.013,384.814,181.549,386.267z M256,306.9l27.803,34.685C274.837,344.491,265.408,346,256,346    c-9.589,0-18.907-1.47-27.832-4.379L256,306.9z M214.975,358.08C227.99,363.332,241.751,366,256,366    c13.986,0,28.007-2.738,41.004-7.946l13.019,16.241c-16.864,7.7-35.323,11.729-54.022,11.729s-37.158-4.029-54.022-11.729    L214.975,358.08z"/>
		<path d="M247.609,109.571c-2.128-2.002-5.015-2.975-7.932-2.66c-52.522,5.688-98.683,39.212-120.466,87.488    c-1.203,2.667-1.179,5.726,0.068,8.373c1.246,2.646,3.589,4.615,6.411,5.386l103.606,28.313c0.869,0.237,1.755,0.354,2.635,0.354    c2.295,0,4.551-0.791,6.363-2.285c0.875-0.722,1.802-1.396,2.754-2.004c2.735-1.747,4.453-4.712,4.607-7.955l3.167-66.786    c0-0.003,0-0.007,0-0.01l1.919-40.459C250.882,114.408,249.737,111.574,247.609,109.571z M230.187,128.602l-0.982,20.711    c-27.323,6.888-51.33,24.336-66.391,48.257l-20.028-5.473C161.328,159.361,193.407,136.056,230.187,128.602z M183.178,203.135    c11.183-15.327,27.049-26.863,45.026-32.738l-2.109,44.466L183.178,203.135z"/>
		<path d="M437.02,74.98C388.667,26.628,324.38,0,256,0c-53.912,0-105.484,16.569-149.143,47.917    c-4.486,3.221-5.512,9.469-2.291,13.956c3.22,4.485,9.467,5.513,13.955,2.291C158.76,35.271,206.299,20,256,20    c130.131,0,236,105.869,236,236S386.131,492,256,492S20,386.131,20,256c0-49.727,15.285-97.286,44.202-137.534    c3.223-4.485,2.199-10.734-2.286-13.956c-4.486-3.223-10.733-2.198-13.956,2.286C16.584,150.466,0,202.06,0,256    c0,68.38,26.629,132.667,74.98,181.02C123.333,485.372,187.62,512,256,512s132.667-26.628,181.02-74.98    C485.371,388.667,512,324.38,512,256S485.371,123.333,437.02,74.98z"/>
		<path d="M402.712,360.777c4.663,2.959,10.843,1.579,13.802-3.083C435.804,327.309,446,292.143,446,256    c0-104.767-85.233-190-190-190S66,151.233,66,256s85.233,190,190,190c35.716,0,70.523-9.97,100.66-28.832    c4.682-2.93,6.101-9.101,3.171-13.782c-2.929-4.681-9.1-6.103-13.782-3.171C319.098,417.083,287.959,426,256,426    c-93.738,0-170-76.262-170-170S162.262,86,256,86s170,76.262,170,170c0,32.341-9.119,63.799-26.371,90.975    C396.669,351.638,398.049,357.817,402.712,360.777z"/>
		<path d="M263.177,157.825l3.166,66.757c0.154,3.242,1.872,6.208,4.607,7.955c0.952,0.608,1.877,1.281,2.75,2.001    c1.813,1.496,4.069,2.288,6.366,2.288c0.88,0,1.766-0.116,2.635-0.354l103.607-28.313c2.822-0.771,5.165-2.739,6.411-5.386    c1.246-2.646,1.271-5.706,0.068-8.373c-21.78-48.276-67.94-81.8-120.466-87.489c-2.914-0.315-5.804,0.658-7.932,2.66    c-2.128,2.003-3.272,4.836-3.135,7.755l1.918,40.445C263.175,157.789,263.176,157.807,263.177,157.825z M283.796,170.398    c17.977,5.875,33.843,17.411,45.026,32.738l-42.917,11.728L283.796,170.398z M369.215,192.097l-20.027,5.473    c-15.061-23.92-39.068-41.369-66.392-48.256l-0.982-20.712C318.595,136.056,350.674,159.361,369.215,192.097z"/>
		<path d="M82.045,92.053c2.721,0,5.433-1.104,7.406-3.275c3.715-4.086,3.414-10.411-0.673-14.126    c-4.086-3.715-10.41-3.414-14.126,0.673l-0.005,0.005c-3.715,4.086-3.411,10.408,0.675,14.123    C77.238,91.195,79.645,92.053,82.045,92.053z"/>
		<path d="M376.007,376.118l-0.006,0.005c-4.071,3.732-4.344,10.055-0.611,14.126c1.972,2.151,4.667,3.241,7.373,3.241    c2.415,0,4.838-0.869,6.758-2.629c4.071-3.732,4.347-10.058,0.614-14.129C386.404,372.663,380.077,372.386,376.007,376.118z"/>
	</g>
</g>















</svg>
