<?xml version="1.0" encoding="iso-8859-1"?>
<!-- Generator: Adobe Illustrator 21.0.0, SVG Export Plug-In . SVG Version: 6.00 Build 0)  -->
<svg xmlns="http://www.w3.org/2000/svg" xmlns:xlink="http://www.w3.org/1999/xlink" version="1.1" id="Capa_1" x="0px" y="0px" viewBox="0 0 512.002 512.002" style="enable-background:new 0 0 512.002 512.002;" xml:space="preserve" width="512" height="512">
<g>
	<g>
		<path style="fill-rule:evenodd;clip-rule:evenodd;fill:#FFBA4A;" d="M240.001,50h32h24.001c10.999,0,19.999-9,19.999-20    c0-11-9-20-19.999-20h-80.002C205,10,196,19,196,30.001c0,11,9,20,19.999,20H240.001z"/>
		<path style="fill-rule:evenodd;clip-rule:evenodd;fill:#6A87C1;" d="M272.001,102.633L272,50h-32l0,52.632    c5.278-0.418,10.614-0.631,16-0.631C261.386,102.002,266.723,102.215,272.001,102.633z"/>
		<path style="fill-rule:evenodd;clip-rule:evenodd;fill:#64759D;" d="M272.001,102.633c-5.278-0.418-10.615-0.631-16.001-0.631    c-5.385,0-10.721,0.213-16,0.631c-43.204,3.42-82.544,20.569-113.657,47.085c-8.13,6.928-15.699,14.497-22.627,22.627    C73.961,207.259,56,252.533,56,302.002c0,110.457,89.543,200,200,200c110.457,0,200-89.543,200-200    c0-49.469-17.96-94.743-47.716-129.657c-6.928-8.13-14.497-15.699-22.627-22.627C354.545,123.202,315.205,106.053,272.001,102.633    L272.001,102.633z M256,142.002c88.378,0,160,71.622,160,160s-71.622,160-160,160s-160-71.622-160-160    S167.622,142.002,256,142.002z"/>
		<path style="fill-rule:evenodd;clip-rule:evenodd;fill:#FFF0D9;" d="M256,142.002c-88.378,0-160,71.622-160,160    s71.622,160,160,160s160-71.622,160-160S344.379,142.002,256,142.002L256,142.002z M256,206.497c11,0,20,9.001,20,20v75.506    c0,10.999-9,20-19.999,20c-11,0-20-8.999-20-20v-75.506C236.001,215.496,245.001,206.497,256,206.497z"/>
		<path style="fill-rule:evenodd;clip-rule:evenodd;fill:#FD4848;" d="M236.001,226.496v75.506c0,11.001,9,20,20,20    c11,0,19.999-9.001,19.999-20v-75.506c0-10.999-9-20-20-20C245.001,206.497,236.001,215.496,236.001,226.496z"/>
		<path style="fill-rule:evenodd;clip-rule:evenodd;fill:#6A87C1;" d="M103.717,172.345c6.928-8.13,14.497-15.699,22.627-22.627    l-28.735-28.735L74.981,143.61L103.717,172.345z"/>
		<path style="fill-rule:evenodd;clip-rule:evenodd;fill:#FFBA4A;" d="M74.981,143.61l22.627-22.627l2.829-2.829    c7.778-7.778,7.778-20.506,0-28.284c-7.778-7.778-20.506-7.779-28.284,0l-28.285,28.285c-7.778,7.778-7.778,20.506,0.001,28.284    c7.778,7.778,20.506,7.778,28.284,0L74.981,143.61z"/>
		<path style="fill-rule:evenodd;clip-rule:evenodd;fill:#FFBA4A;" d="M411.565,89.87c-7.779,7.778-7.779,20.506,0,28.284    l2.828,2.828l22.627,22.628l2.829,2.829c7.778,7.778,20.506,7.778,28.284,0c7.778-7.778,7.779-20.506,0-28.284L439.849,89.87    C432.071,82.092,419.343,82.092,411.565,89.87z"/>
		<path style="fill-rule:evenodd;clip-rule:evenodd;fill:#6A87C1;" d="M414.393,120.983l-28.735,28.735    c8.13,6.928,15.699,14.497,22.627,22.627l28.735-28.735L414.393,120.983z"/>
	</g>
	<g>
		<path d="M165.494,133.609c1.789,0,3.6-0.479,5.234-1.485c4.704-2.895,6.17-9.054,3.276-13.758    c-2.896-4.704-9.056-6.172-13.757-3.275l-0.006,0.004c-4.704,2.895-6.167,9.052-3.272,13.756    C158.857,131.92,162.136,133.609,165.494,133.609z"/>
		<path d="M397.198,391.662c2.563-0.689,4.746-2.37,6.069-4.67c14.872-25.854,22.733-55.243,22.733-84.99    c0-93.738-76.262-170-170-170c-93.739,0-170,76.262-170,170s76.262,170,170,170c30.481,0,59.084-7.653,85.016-22.747    c4.755-2.768,6.381-8.857,3.638-13.628l-10.231-17.793c-2.752-4.788-8.866-6.438-13.654-3.684    c-4.788,2.753-6.437,8.866-3.684,13.654l5.109,8.885c-17.542,8.713-36.374,13.726-56.194,14.985V441.51c0-5.522-4.477-10-10-10    s-10,4.478-10,10v10.151c-20.043-1.326-39.02-6.604-56.161-15.064l5.068-8.777c2.762-4.783,1.123-10.898-3.66-13.66    c-4.781-2.76-10.898-1.122-13.66,3.66l-5.054,8.754c-16.218-10.902-30.2-24.884-41.103-41.102l8.754-5.055    c4.783-2.762,6.422-8.878,3.66-13.66c-2.762-4.785-8.879-6.422-13.66-3.66l-8.778,5.068c-8.46-17.141-13.738-36.119-15.064-56.162    h10.152c5.523,0,10-4.478,10-10s-4.477-10-10-10h-10.152c1.326-20.043,6.604-39.021,15.064-56.162l8.779,5.068    c1.575,0.909,3.293,1.342,4.99,1.342c3.456,0,6.818-1.794,8.67-5.002c2.761-4.783,1.122-10.899-3.661-13.66l-8.755-5.054    c10.903-16.219,24.885-30.201,41.103-41.103l5.054,8.755c1.853,3.208,5.214,5.002,8.67,5.002c1.696,0,3.416-0.433,4.991-1.342    c4.783-2.761,6.422-8.877,3.661-13.66l-5.068-8.778c17.141-8.46,36.118-13.738,56.161-15.064v10.152c0,5.522,4.477,10,10,10    s10-4.478,10-10v-10.152c20.043,1.326,39.02,6.604,56.161,15.064l-5.068,8.779c-2.761,4.783-1.122,10.899,3.661,13.66    c1.575,0.909,3.294,1.342,4.991,1.342c3.456,0,6.818-1.794,8.67-5.002l5.054-8.755c16.219,10.903,30.201,24.885,41.103,41.103    l-8.755,5.054c-4.783,2.761-6.422,8.877-3.661,13.66c1.853,3.208,5.214,5.002,8.67,5.002c1.696,0,3.416-0.433,4.99-1.342    l8.779-5.068c8.46,17.141,13.738,36.119,15.064,56.162h-10.151c-5.523,0-10,4.478-10,10s4.477,10,10,10h10.143    c-1.308,19.484-6.409,38.597-15.019,56.175l-8.821-5.085c-4.785-2.757-10.9-1.115-13.658,3.67    c-2.758,4.785-1.115,10.899,3.669,13.658l17.781,10.25C391.904,391.995,394.636,392.353,397.198,391.662z"/>
		<path d="M453.99,162.283c7.683,0,15.366-2.925,21.214-8.773c5.65-5.65,8.763-13.185,8.763-21.213    c0-8.029-3.112-15.563-8.762-21.213L446.92,82.799c-5.651-5.65-13.185-8.763-21.213-8.763c-8.029,0-15.563,3.112-21.213,8.763    c-10.244,10.244-11.515,26.115-3.816,37.757L384.9,136.333c-29.15-22.731-64.426-37.95-102.9-42.722L282,60h14.001    C312.543,60,326,46.543,326,30.001C326,13.458,312.543,0,296.002,0h-80.002C199.458,0,186,13.458,186,30.001    C186,46.543,199.458,60,215.999,60h14.001v33.619c-9.568,1.183-19.034,3.001-28.319,5.482c-5.335,1.426-8.505,6.907-7.08,12.242    c1.426,5.336,6.908,8.509,12.243,7.08c15.948-4.261,32.486-6.422,49.155-6.422c104.767,0,190,85.233,190,190s-85.234,190-190,190    c-104.766,0-190-85.233-190-190c0-45.753,16.191-89.058,45.28-123.13c0.08-0.092,0.163-0.182,0.239-0.276    c7.742-9.033,16.38-17.423,25.88-25.024c4.313-3.451,5.011-9.744,1.561-14.056c-2.851-3.563-7.64-4.65-11.652-2.978    l-15.983-15.983c7.7-11.642,6.429-27.513-3.816-37.758c-11.698-11.697-30.73-11.695-42.426,0l-28.285,28.284    c-5.65,5.651-8.762,13.185-8.762,21.214s3.112,15.563,8.762,21.212c5.651,5.651,13.185,8.764,21.214,8.765h0    c5.981,0,11.686-1.73,16.543-4.947l15.69,15.689C61.754,209.501,46,254.559,46,302.002c0,115.795,94.206,210,210,210    s210-94.205,210-210c0-48.547-16.565-93.293-44.33-128.899l15.777-15.777C442.442,160.63,448.216,162.283,453.99,162.283z     M58.011,142.272c-2.686,0-5.197-1.032-7.071-2.906c-1.873-1.873-2.905-4.384-2.905-7.07c0-2.688,1.032-5.198,2.905-7.071    L79.224,96.94c1.949-1.949,4.51-2.924,7.071-2.924c2.561,0,5.122,0.975,7.071,2.924c1.874,1.873,2.905,4.385,2.905,7.071    s-1.032,5.197-2.905,7.07l-2.829,2.829c0,0,0,0,0,0l-0.001,0.001l-25.455,25.456C63.209,141.24,60.698,142.272,58.011,142.272z     M89.124,143.61l8.485-8.485l14.208,14.208c-2.921,2.753-5.754,5.578-8.497,8.473L89.124,143.61z M418.636,96.941    c1.873-1.873,4.384-2.905,7.071-2.905c2.687,0,5.198,1.032,7.071,2.905l28.285,28.285c1.873,1.873,2.904,4.384,2.904,7.069    c0,2.687-1.032,5.198-2.905,7.071c-3.899,3.899-10.244,3.9-14.142,0.001l-2.824-2.825c-0.001-0.001-0.003-0.003-0.004-0.005    s-0.003-0.003-0.005-0.004l-25.451-25.452C414.737,107.185,414.737,100.84,418.636,96.941z M206,30.001    C206,24.486,210.486,20,215.999,20h80.002c5.513,0,9.999,4.486,9.999,10.001c0,5.514-4.485,9.999-9.999,9.999h-80.002    C210.486,40,206,35.515,206,30.001z M250.001,92.099V60h12l0,32.093c-1.994-0.056-3.993-0.091-6-0.091    C253.998,92.002,251.999,92.043,250.001,92.099z M400.115,149.403l14.278-14.278l8.485,8.485L408.6,157.888    C405.852,154.98,403.023,152.151,400.115,149.403z"/>
		<path d="M286,302.002v-75.506c0-16.542-13.458-29.999-30-29.999s-30,13.457-30,29.999v75.506c0,16.542,13.458,30,30,30    C272.543,332.002,286,318.544,286,302.002z M246.001,302.002v-75.506c0-5.514,4.486-9.999,10-9.999c5.514,0,10,4.485,10,9.999    v75.506c0,5.514-4.485,10-9.999,10C250.487,312.002,246.001,307.516,246.001,302.002z"/>
		<path d="M299.254,358.003c0-5.522-4.477-10-10-10h-66.506c-5.523,0-10,4.478-10,10s4.477,10,10,10h66.506    C294.777,368.003,299.254,363.525,299.254,358.003z"/>
		<path d="M236.001,388.005c-5.523,0-10,4.478-10,10s4.477,10,10,10h40c5.523,0,10-4.478,10-10s-4.477-10-10-10H236.001z"/>
		<path d="M362.411,407.74l-0.005,0.005c-4.086,3.715-4.385,10.037-0.67,14.124c1.973,2.17,4.682,3.271,7.401,3.271    c2.401,0,4.811-0.859,6.727-2.602c4.086-3.715,4.388-10.039,0.673-14.126C372.822,404.327,366.497,404.026,362.411,407.74z"/>
	</g>
</g>















</svg>
