<?xml version="1.0" encoding="iso-8859-1"?>
<!-- Generator: Adobe Illustrator 21.0.0, SVG Export Plug-In . SVG Version: 6.00 Build 0)  -->
<svg xmlns="http://www.w3.org/2000/svg" xmlns:xlink="http://www.w3.org/1999/xlink" version="1.1" id="Capa_1" x="0px" y="0px" viewBox="0 0 512.001 512.001" style="enable-background:new 0 0 512.001 512.001;" xml:space="preserve" width="512" height="512">
<g>
	<g>
		<polygon style="fill-rule:evenodd;clip-rule:evenodd;fill:#6A87C1;" points="256.001,265.947 317.501,237.703 502.001,150.974     256.001,36.001 10,150.974 71.5,179.717   "/>
		<path style="fill-rule:evenodd;clip-rule:evenodd;fill:#FFF0D9;" d="M396.001,264c-52.137,0-95.483,37.641-104.343,87.23    c-1.089,6.092-1.657,12.365-1.657,18.771c0,58.542,47.458,106,106.001,106c58.542,0,106-47.458,106-106S454.543,264,396.001,264    L396.001,264z M330,370.001C330,333.55,359.55,304,396.001,304s66,29.549,66,66.001s-29.549,66-66,66S330,406.452,330,370.001z"/>
		<path style="fill-rule:evenodd;clip-rule:evenodd;fill:#FFF0D9;" d="M396.001,304C359.55,304,330,333.55,330,370.001    s29.549,66,66.001,66s66-29.549,66-66S432.452,304,396.001,304L396.001,304z M374.001,370.001c0-12.15,9.85-22,22-22    c12.15,0,22,9.85,22,22c0,12.15-9.85,22-22,22C383.85,392.001,374.001,382.151,374.001,370.001z"/>
		<circle style="fill-rule:evenodd;clip-rule:evenodd;fill:#64759D;" cx="396.001" cy="370.001" r="22"/>
		<path style="fill-rule:evenodd;clip-rule:evenodd;fill:#64759D;" d="M116.001,201.016v115.483    c42.566,24.575,90.849,37.512,140,37.512c11.93,0,23.808-0.763,35.567-2.269l0.09-0.512c8.861-49.589,52.206-87.23,104.343-87.23    v-62.985l-17,7.945l-123.001,57.487l-123-57.486L116.001,201.016z"/>
	</g>
	<g>
		<path d="M406.001,254.436v-47.22l100.259-47.193c3.509-1.651,5.747-5.184,5.741-9.062s-2.252-7.403-5.766-9.046L260.234,26.941    c-2.684-1.254-5.785-1.254-8.468,0l-49.275,23.03c-5.003,2.339-7.163,8.29-4.825,13.294s8.291,7.162,13.293,4.825L256,47.039    l222.452,103.968l-85.471,40.232c-0.836,0.264-1.62,0.641-2.344,1.104l-42.474,19.993c-4.997,2.353-7.141,8.31-4.789,13.307    c1.705,3.621,5.301,5.744,9.055,5.743c1.426,0,2.876-0.307,4.252-0.954l29.32-13.801v37.806    c-49.89,4.281-90.857,40.271-102.602,87.672c-9.098,0.927-18.284,1.403-27.398,1.403c-45.413,0-90.235-11.519-130-33.356v-93.926    l125.766,58.779c1.341,0.627,2.787,0.94,4.234,0.94c1.389,0,2.779-0.289,4.077-0.869l23.947-10.692    c5.043-2.252,7.306-8.165,5.054-13.208c-2.251-5.043-8.164-7.308-13.208-5.054l-19.775,8.829l-150.641-70.405l152.086-23.693    c5.457-0.851,9.191-5.963,8.341-11.42c-0.85-5.458-5.957-9.19-11.42-8.342L72.973,169.367l-39.355-18.393l104.867-49.011    c5.003-2.339,7.164-8.29,4.825-13.294c-2.338-5.003-8.291-7.164-13.293-4.825l-124.25,58.07C2.248,143.559,0,147.092,0,150.974    s2.248,7.415,5.766,9.06L61.5,186.082V251.2l-9.671,5.584c-4.783,2.762-6.422,8.877-3.66,13.66    c1.852,3.208,5.213,5.002,8.669,5.002c1.581,0,3.177-0.393,4.662-1.18v2.708c0,5.522,4.477,10,10,10s10-4.478,10-10v-2.708    c1.485,0.787,3.081,1.18,4.662,1.18c3.456,0,6.817-1.794,8.669-5.002c2.762-4.782,1.123-10.898-3.66-13.66L81.5,251.2v-55.77    l24.5,11.451v109.118c0,3.572,1.906,6.874,5,8.66c44.025,25.417,94.166,38.852,145,38.852c8.063,0,16.178-0.348,24.25-1.025    c-0.16,2.486-0.25,4.99-0.25,7.515c0,63.963,52.038,116,116,116s116-52.037,116-116    C512.001,309.407,465.299,259.523,406.001,254.436z M396.001,466.001c-52.935,0-96-43.065-96-96    c0-52.93,43.057-95.992,95.985-96.001c0.005,0,0.01,0.001,0.015,0.001s0.01-0.001,0.015-0.001    c52.928,0.008,95.985,43.07,95.985,96.001C492.001,422.935,448.936,466.001,396.001,466.001z"/>
		<path d="M396.001,294C354.094,294,320,328.094,320,370.001s34.094,76.001,76.001,76.001s76.001-34.094,76.001-76.001    S437.908,294,396.001,294z M396.001,314c27.465,0,50.358,19.879,55.089,46.001h-24.698c-4.21-12.761-16.238-22-30.391-22    s-26.181,9.239-30.391,22h-24.698C345.643,333.879,368.536,314,396.001,314z M396.001,382.001c-6.617,0-12-5.383-12-12    s5.383-12,12-12s12,5.383,12,12S402.618,382.001,396.001,382.001z M340.912,380.001h24.698    c3.171,9.612,10.779,17.22,20.391,20.391v24.698C363.127,420.947,345.055,402.875,340.912,380.001z M406.001,425.09v-24.698    c9.612-3.171,17.22-10.779,20.391-20.391h24.698C446.947,402.875,428.875,420.947,406.001,425.09z"/>
		<path d="M170.498,85.968c1.315,0,2.652-0.261,3.936-0.812c5.077-2.176,7.428-8.055,5.252-13.131s-8.054-7.429-13.13-5.252    l-0.007,0.003c-5.077,2.176-7.424,8.053-5.249,13.129C162.925,83.697,166.617,85.968,170.498,85.968z"/>
		<path d="M316.003,247.909c1.315,0,2.652-0.261,3.936-0.812c5.077-2.176,7.428-8.055,5.252-13.131s-8.055-7.429-13.13-5.252    l-0.007,0.003c-5.077,2.176-7.424,8.053-5.249,13.129C308.43,245.638,312.123,247.909,316.003,247.909z"/>
	</g>
</g>















</svg>
