<?xml version="1.0" encoding="iso-8859-1"?>
<!-- Generator: Adobe Illustrator 21.0.0, SVG Export Plug-In . SVG Version: 6.00 Build 0)  -->
<svg xmlns="http://www.w3.org/2000/svg" xmlns:xlink="http://www.w3.org/1999/xlink" version="1.1" id="Capa_1" x="0px" y="0px" viewBox="0 0 512 512" style="enable-background:new 0 0 512 512;" xml:space="preserve" width="512" height="512">
<g>
	<g>
		<path style="fill-rule:evenodd;clip-rule:evenodd;fill:#FF836C;" d="M482,10H30c-11,0-20,9-20,20v452c0,11,9,20,20,20h452    c11,0,20-9,20-20V30C502,19,493,10,482,10L482,10z M50.001,50h412v412h-412V50z"/>
		<path style="fill-rule:evenodd;clip-rule:evenodd;fill:#FFF0D9;" d="M462,50h-412v412h412V50L462,50z M270.839,93.154    C328.677,93.154,376,140.478,376,198.315v220.53h-56.151v-220.53c0-26.956-22.055-49.01-49.011-49.01    c-26.955,0-49.01,22.055-49.01,49.01l0,50.459l22.953,0.015c5.801-0.001,8.902,6.965,4.905,11.263L198.693,314.9    c-2.691,2.898-7.194,2.886-9.844,0.037l-50.73-54.563c-4.584-4.616-1.124-11.6,4.605-11.6h22.953v-50.459    C165.678,140.477,213.001,93.154,270.839,93.154z"/>
		<path style="fill-rule:evenodd;clip-rule:evenodd;fill:#64759D;" d="M376,198.315c0-57.838-47.323-105.161-105.162-105.161    c-57.838,0-105.161,47.323-105.161,105.161v50.459h-22.953c-5.729,0-9.189,6.984-4.605,11.6l50.73,54.563    c2.65,2.849,7.153,2.861,9.844-0.037l50.994-54.848c3.997-4.298,0.896-11.264-4.905-11.263l-22.953-0.015l0-50.459    c0-26.956,22.055-49.01,49.01-49.01c26.956,0,49.011,22.054,49.011,49.01v220.53H376V198.315z"/>
	</g>
	<g>
		<path d="M431.999,451.999c-5.522,0-10,4.478-10,10s4.478,10,10,10H462c5.522,0,10-4.478,10-10V50c0-5.522-4.478-10-10-10H50.001    c-5.522,0-10,4.478-10,10v411.999c0,5.522,4.478,10,10,10h301.997c5.522,0,10-4.478,10-10s-4.478-10-10-10H60.001V60H452v391.999    H431.999z"/>
		<path d="M482,0H130.001c-5.522,0-10,4.478-10,10s4.478,10,10,10H482c5.514,0,10,4.486,10,10v452c0,5.514-4.486,10-10,10H30    c-5.514,0-10-4.486-10-10V30c0-5.514,4.486-10,10-10h20.001c5.522,0,10-4.478,10-10s-4.478-10-10-10H30C13.458,0,0,13.458,0,30    v452c0,16.542,13.458,30,30,30h452c16.542,0,30-13.458,30-30V30C512,13.458,498.542,0,482,0z"/>
		<path d="M90.005,20c5.522,0,10-4.478,10-10s-4.478-10-10-10h-0.008c-5.522,0-9.996,4.478-9.996,10S84.482,20,90.005,20z"/>
		<path d="M392.002,471.999c5.522,0,10-4.478,10-10s-4.478-10-10-10h-0.007c-5.522,0-9.996,4.478-9.996,10    S386.479,471.999,392.002,471.999z"/>
		<path d="M319.85,428.845H376c5.522,0,10-4.478,10-10V198.315c0-63.5-51.661-115.161-115.161-115.161    s-115.161,51.661-115.161,115.161v40.459h-12.953c-6.771,0-12.833,4.051-15.442,10.32c-2.609,6.269-1.227,13.219,3.604,18.187    l50.641,54.468c3.148,3.384,7.601,5.324,12.216,5.324c0.003,0,0.007,0,0.01,0c4.631-0.002,9.103-1.96,12.263-5.365l50.993-54.846    c4.522-4.862,5.729-11.939,3.075-18.03c-2.658-6.102-8.666-10.044-15.295-10.043l-12.96-0.008l-0.001-40.466    c0-21.511,17.5-39.011,39.011-39.011s39.011,17.5,39.011,39.011v220.529C309.85,424.367,314.327,428.845,319.85,428.845z     M270.839,139.305c-32.539,0-59.011,26.472-59.011,59.011l0.001,50.459c0,5.521,4.474,9.996,9.993,10l15.389,0.01l-43.458,46.742    l-43.467-46.752h15.392c5.522,0,10-4.478,10-10v-50.459c0-52.472,42.689-95.161,95.161-95.161S366,145.844,366,198.315v210.529    h-36.15V198.315C329.85,165.776,303.378,139.305,270.839,139.305z"/>
	</g>
</g>















</svg>
