<?xml version="1.0" encoding="iso-8859-1"?>
<!-- Generator: Adobe Illustrator 21.0.0, SVG Export Plug-In . SVG Version: 6.00 Build 0)  -->
<svg xmlns="http://www.w3.org/2000/svg" xmlns:xlink="http://www.w3.org/1999/xlink" version="1.1" id="Capa_1" x="0px" y="0px" viewBox="0 0 512.002 512.002" style="enable-background:new 0 0 512.002 512.002;" xml:space="preserve" width="512" height="512">
<g>
	<g>
		<path style="fill-rule:evenodd;clip-rule:evenodd;fill:#64759D;" d="M10,106.002h320V86.001c0-10.998-9-20-20-20H30    c-11,0-20,9-20,20V106.002z"/>
		<path style="fill-rule:evenodd;clip-rule:evenodd;fill:#FFF0D9;" d="M330.001,106.002H10v160c0,10.999,9.002,20,20,20h152.001v-40    c0-11,9-20,20-20h127.999V106.002L330.001,106.002z M95.652,146.002c14.348,0,26.087,11.739,26.087,26.087v13.044    c0,14.348-11.739,26.087-26.087,26.087c-14.348,0-26.087-11.739-26.087-26.087v-13.044    C69.565,157.741,81.304,146.002,95.652,146.002z"/>
		<path style="fill-rule:evenodd;clip-rule:evenodd;fill:#E1AC91;" d="M121.739,172.089c0-14.348-11.739-26.087-26.087-26.087    c-14.348,0-26.087,11.739-26.087,26.087v13.044c0,14.348,11.739,26.087,26.087,26.087c14.348,0,26.087-11.739,26.087-26.087    V172.089z"/>
		<path style="fill-rule:evenodd;clip-rule:evenodd;fill:#EBEBEB;" d="M330.001,226.002H202.001c-11,0-20,9-20,20v40v140.001    c0,10.999,9,20,20,20h280.001c11,0,20-9,20-20V246.001c0-10.999-9.001-20-20-20H330.001L330.001,226.002z M222.002,266.001H462v40    H222.002V266.001L222.002,266.001z M366,382.001c0-13.255,10.745-24,24-24c13.216,0,23.936,10.681,24,23.882    c0.063-13.201,10.784-23.882,24-23.882c13.255,0,24,10.745,24,24s-10.745,24-24,24c-13.216,0-23.936-10.681-24-23.882    c-0.064,13.201-10.784,23.882-24,23.882C376.745,406.001,366,395.256,366,382.001z"/>
		<rect x="222.002" y="266.001" style="fill-rule:evenodd;clip-rule:evenodd;fill:#64759D;" width="239.998" height="40"/>
		<path style="fill-rule:evenodd;clip-rule:evenodd;fill:#FD4848;" d="M390,358.001c-13.255,0-24,10.745-24,24s10.745,24,24,24    c13.216,0,23.936-10.681,24-23.882c0-0.039,0-0.078,0-0.118c0-0.039,0-0.078,0-0.118C413.936,368.682,403.216,358.001,390,358.001    z"/>
		<path style="fill-rule:evenodd;clip-rule:evenodd;fill:#FFBA4A;" d="M438,358.001c-13.216,0-23.936,10.681-24,23.882    c0,0.04,0,0.079,0,0.118c-0.001,0.039-0.001,0.078,0,0.118c0.063,13.201,10.784,23.882,24,23.882c13.255,0,24-10.745,24-24    S451.255,358.001,438,358.001z"/>
		<path style="fill-rule:evenodd;clip-rule:evenodd;fill:#FF836C;" d="M95.652,211.219L95.652,211.219L95.652,211.219z     M113.604,204.017c-4.686,4.457-11.014,7.202-17.952,7.202c-6.938,0-13.266-2.745-17.952-7.202    C61.413,210.99,50,227.162,50,246.002h91.304C141.304,227.162,129.892,210.99,113.604,204.017z"/>
	</g>
	<g>
		<path d="M390,416c9.359,0,17.846-3.801,24-9.94c6.154,6.139,14.641,9.94,24,9.94c18.748,0,34-15.252,34-34S456.748,348,438,348    c-9.359,0-17.846,3.802-24,9.941c-6.154-6.139-14.641-9.941-24-9.941c-18.748,0-34,15.253-34,34.001S371.252,416,390,416z     M438,368c7.72,0,14,6.281,14,14.001s-6.28,14-14,14c-7.715,0-13.993-6.273-14-13.987c0-0.004,0-0.008,0-0.013s0-0.008,0-0.013    C424.007,374.274,430.285,368,438,368z M390,368c7.715,0,13.992,6.274,13.999,13.988c0,0.004,0,0.009,0,0.013s0,0.009,0,0.013    C403.992,389.727,397.715,396,390,396c-7.72,0-14-6.28-14-14S382.28,368,390,368z"/>
		<path d="M472,306v-40c0-5.522-4.478-10-10-10H222.002c-5.522,0-10,4.478-10,10v40c0,5.522,4.478,10,10,10H462    C467.522,316,472,311.523,472,306z M452,296H232.002v-20H452V296z"/>
		<path d="M312.079,396h-24.286c-5.522,0-10,4.478-10,10s4.478,10,10,10h24.286c5.522,0,10-4.478,10-10S317.602,396,312.079,396z"/>
		<path d="M217.002,396c-5.522,0-10,4.478-10,10s4.478,10,10,10h27.541c5.522,0,10-4.478,10-10s-4.478-10-10-10H217.002z"/>
		<path d="M312.079,348h-95.077c-5.522,0-10,4.478-10,10s4.478,10,10,10h95.077c5.522,0,10-4.478,10-10S317.602,348,312.079,348z"/>
		<path d="M482.002,216H340.001V86c0-16.541-13.458-29.999-30-29.999h-200c-5.522,0-10,4.478-10,10s4.478,10,10,10h200    c5.514,0,10,4.485,10,9.999v10.002H20V86C20,80.486,24.486,76,30,76c5.522,0,10-4.478,10-10s-4.478-10-10-10    C13.458,56,0,69.458,0,86V266c0,16.543,13.458,30.001,30,30.001h142.001v130c0,16.542,13.458,30,30,30h189.998    c5.522,0,10-4.478,10-10s-4.478-10-10-10H202.001c-5.514,0-10-4.486-10-10V246c0-5.514,4.486-10,10-10h280.001    c5.514,0,10,4.486,10,10v180.001c0,5.514-4.486,10-10,10H472c-5.522,0-10,4.478-10,10s4.478,10,10,10h10.002    c16.542,0,30-13.458,30-30V246C512.002,229.458,498.544,216,482.002,216z M172.001,246v30.001H30c-5.514,0-10-4.486-10-10.001    V116.001h300.001V216h-118C185.459,216,172.001,229.458,172.001,246z"/>
		<path d="M128.151,200.812c2.298-4.744,3.589-10.064,3.589-15.68v-13.044c0-19.898-16.188-36.087-36.087-36.087    s-36.087,16.188-36.087,36.087v13.044c0,5.616,1.291,10.936,3.589,15.68C48.802,211.128,40,227.832,40,246c0,5.522,4.478,10,10,10    h91.305c5.522,0,10-4.478,10-10C151.305,227.828,142.504,211.127,128.151,200.812z M79.565,172.088    c0-8.87,7.217-16.087,16.087-16.087s16.087,7.217,16.087,16.087v13.044c0,8.87-7.217,16.087-16.087,16.087    s-16.087-7.217-16.087-16.087V172.088z M61.426,236c2.426-8.318,7.832-15.521,15.258-20.186    c5.516,3.422,12.014,5.405,18.968,5.405c6.955,0,13.453-1.983,18.968-5.405c7.427,4.665,12.833,11.867,15.259,20.186H61.426z"/>
		<path d="M182.001,156.001h107.997c5.522,0,10-4.478,10-10s-4.478-10-10-10H182.001c-5.522,0-10,4.478-10,10    S176.479,156.001,182.001,156.001z"/>
		<path d="M289.998,176.003H182.001c-5.522,0-10,4.478-10,10s4.478,10,10,10h107.997c5.522,0,10-4.478,10-10    S295.521,176.003,289.998,176.003z"/>
		<path d="M70.004,76c5.522,0,10-4.478,10-10s-4.478-10-10-10h-0.007c-5.522,0-9.996,4.478-9.996,10S64.481,76,70.004,76z"/>
		<path d="M432.003,436.001h-0.007c-5.522,0-9.996,4.478-9.996,10s4.48,10,10.003,10s10-4.478,10-10    S437.525,436.001,432.003,436.001z"/>
	</g>
</g>















</svg>
