<?xml version="1.0" encoding="iso-8859-1"?>
<!-- Generator: Adobe Illustrator 21.0.0, SVG Export Plug-In . SVG Version: 6.00 Build 0)  -->
<svg xmlns="http://www.w3.org/2000/svg" xmlns:xlink="http://www.w3.org/1999/xlink" version="1.1" id="Capa_1" x="0px" y="0px" viewBox="0 0 511.993 511.993" style="enable-background:new 0 0 511.993 511.993;" xml:space="preserve" width="512" height="512">
<g>
	<g>
		<path style="fill-rule:evenodd;clip-rule:evenodd;fill:#FFBA4A;" d="M61.648,432.216    c64.766-112.168,129.566-224.317,194.327-336.488c64.621,112.238,129.55,224.298,194.337,336.44L61.648,432.216L61.648,432.216z     M276.996,52.062c-8.982-16.09-32.442-16.592-41.862-0.239C161.469,179.396,87.779,306.954,14.122,434.531    c-11.249,17.974,2.083,37.688,20.032,37.688l443.683-0.055c18.329,0.015,30.244-19.971,20.863-36.194    C424.793,307.959,350.902,180.072,276.996,52.062z"/>
		<path style="fill-rule:evenodd;clip-rule:evenodd;fill:#FFF0D9;" d="M255.974,95.728    c-64.761,112.171-129.56,224.32-194.327,336.488l388.663-0.048C385.524,320.025,320.596,207.965,255.974,95.728L255.974,95.728z     M235.98,377.86c0-11.046,8.954-20,19.999-20c11.046,0,20,8.954,20,20c0,11.046-8.954,19.999-20,19.999    C244.934,397.859,235.98,388.905,235.98,377.86L235.98,377.86z M255.98,190.086L255.98,190.086L255.98,190.086z M255.979,327.861    L255.979,327.861L255.979,327.861z M235.98,307.861v-97.775c0-11,8.999-20,20-20c11,0,19.999,9.001,19.999,20v97.775    c0,10.999-9,20-20,20C244.98,327.861,235.98,318.861,235.98,307.861z"/>
		<path style="fill-rule:evenodd;clip-rule:evenodd;fill:#64759D;" d="M235.98,210.086v97.775c0,11,9.001,20,19.999,20    c10.999,0,20-9.001,20-20v-97.775c0-10.999-8.999-20-19.999-20C244.979,190.086,235.98,199.086,235.98,210.086z"/>
		<circle style="fill-rule:evenodd;clip-rule:evenodd;fill:#64759D;" cx="255.98" cy="377.859" r="20"/>
	</g>
	<g>
		<path d="M507.36,430.97c-37.144-64.336-184.92-320.197-221.672-383.853c-6.047-10.777-17.071-17.259-29.505-17.343    c-0.081,0-0.161-0.001-0.241-0.001c-12.309,0-23.314,6.364-29.468,17.049l-9.998,17.314c-2.761,4.782-1.123,10.898,3.66,13.66    c4.783,2.76,10.899,1.123,13.66-3.66l10.003-17.323c3.646-6.328,9.652-7.04,12.162-7.04c0.03,0,0.06,0,0.088,0    c5.166,0.035,9.732,2.713,12.215,7.162c0.024,0.042,0.048,0.084,0.072,0.126c36.763,63.675,184.561,319.573,221.708,383.914    c2.59,4.479,2.595,9.612,0.013,14.084c-2.569,4.449-7.129,7.104-12.208,7.104c-0.004,0-0.008,0-0.011,0l-443.683,0.055    c-5.166,0-9.941-2.829-12.463-7.383c-1.487-2.685-3.346-8.203,0.908-15.001c0.063-0.101,0.125-0.202,0.184-0.305    c41.183-71.33,171.006-296.115,171.006-296.115c2.762-4.782,1.124-10.898-3.659-13.66c-4.783-2.765-10.898-1.124-13.661,3.658    c0,0-129.772,224.696-170.924,295.974c-6.881,11.113-7.389,24.236-1.35,35.14c6.044,10.913,17.524,17.692,29.96,17.692    l443.674-0.055c0.01,0,0.018,0,0.028,0c12.299,0,23.333-6.393,29.518-17.104C513.538,454.388,513.531,441.641,507.36,430.97z"/>
		<path d="M410.31,432.174c0.001,5.522,4.479,9.999,10.001,9.998l30.001-0.005c3.573-0.001,6.874-1.907,8.66-5.002    s1.785-6.906-0.002-10C438.524,391.775,308.865,167.549,264.64,90.739c-1.784-3.099-5.085-5.009-8.66-5.011    c-0.002,0-0.003,0-0.006,0c-3.572,0-6.874,1.906-8.66,5C212.58,150.891,83.017,375.208,52.988,427.216    c-1.787,3.094-1.787,6.906,0,10c1.786,3.095,5.088,5,8.661,5l278.661-0.036c5.522-0.001,9.999-4.479,9.999-10.001    c-0.001-5.523-4.479-10-10.001-9.999l-261.337,0.034c27.143-47.007,145.146-251.311,176.993-306.468    c41.451,71.954,159.463,276.038,177.022,306.424l-12.677,0.002C414.785,422.173,410.309,426.651,410.31,432.174z"/>
		<path d="M285.979,307.861v-97.774c0-16.542-13.458-30-30-30c-16.542,0-29.999,13.458-29.999,30v97.774c0,16.542,13.458,30,30,30    C272.521,337.861,285.979,324.403,285.979,307.861z M245.98,307.861v-97.774c0-5.514,4.485-10,9.999-10h0.001    c5.514,0,9.999,4.486,9.999,10v97.774c0,5.514-4.486,10-10,10C250.465,317.861,245.98,313.374,245.98,307.861z"/>
		<path d="M255.98,407.859c16.542,0,29.999-13.457,29.999-29.999s-13.458-30-29.999-30s-30,13.458-30,30    S239.438,407.859,255.98,407.859z M255.98,367.86c5.514,0,9.999,4.486,9.999,10s-4.486,9.999-9.999,9.999    c-5.514,0-10-4.485-10-9.999S250.466,367.86,255.98,367.86z"/>
		<path d="M199.584,112.099c1.704,1.136,3.63,1.68,5.536,1.68c3.233,0,6.406-1.564,8.333-4.456    c3.063-4.595,1.822-10.804-2.773-13.867c-4.595-3.063-10.803-1.822-13.867,2.773l-0.004,0.006    C193.745,102.83,194.989,109.036,199.584,112.099z"/>
		<path d="M380.305,422.167c-5.523,0-9.996,4.478-9.996,10s4.48,10,10.003,10s10-4.478,10-10s-4.477-10-10-10H380.305z"/>
	</g>
</g>















</svg>
