<?xml version="1.0" encoding="iso-8859-1"?>
<!-- Generator: Adobe Illustrator 21.0.0, SVG Export Plug-In . SVG Version: 6.00 Build 0)  -->
<svg xmlns="http://www.w3.org/2000/svg" xmlns:xlink="http://www.w3.org/1999/xlink" version="1.1" id="Capa_1" x="0px" y="0px" viewBox="0 0 512.002 512.002" style="enable-background:new 0 0 512.002 512.002;" xml:space="preserve" width="512" height="512">
<g>
	<g>
		<path style="fill-rule:evenodd;clip-rule:evenodd;fill:#8EECF0;" d="M68.145,277.311h375.711l-11.182-103.928    c-1.052-9.783-8.052-17.891-17.89-17.891H97.218c-9.839,0-16.838,8.109-17.891,17.891L68.145,277.311z"/>
		<path style="fill-rule:evenodd;clip-rule:evenodd;fill:#FF836C;" d="M443.856,277.311H68.145    c-19.68,0-35.782,16.102-35.782,35.782v86.038h183.168c-8.8,0-16-7.2-16-16v-50.746c0-8.8,7.199-16,16-16h24.469    c8.8,0,16,7.2,16,16c0-8.8,7.199-16,16-16h24.469c8.8,0,16,7.2,16,16v50.746c0,8.8-7.2,16-16,16h183.169v-86.038    C479.638,293.413,463.536,277.311,443.856,277.311L443.856,277.311z M399.637,338.22c0-11.045,8.954-20,20-20    c11.046,0,20,8.954,20,20c0,11.046-8.954,20-20,20C408.591,358.22,399.637,349.266,399.637,338.22L399.637,338.22z     M379.637,358.22c-11.046,0-20-8.954-20-20c0-11.045,8.954-20,20-20c11.045,0,20,8.954,20,20    C399.637,349.266,390.682,358.22,379.637,358.22L379.637,358.22z M112.365,338.22c0,11.046-8.954,20-20,20s-20-8.954-20-20    c0-11.045,8.954-20,20-20S112.365,327.175,112.365,338.22L112.365,338.22z M132.364,318.221c11.046,0,20,8.954,20,20    c0,11.046-8.954,20-20,20s-20-8.954-20-20C112.365,327.175,121.319,318.221,132.364,318.221z"/>
		<circle style="fill-rule:evenodd;clip-rule:evenodd;fill:#FFBA4A;" cx="92.365" cy="338.22" r="20"/>
		<circle style="fill-rule:evenodd;clip-rule:evenodd;fill:#FFBA4A;" cx="132.364" cy="338.22" r="20"/>
		<path style="fill-rule:evenodd;clip-rule:evenodd;fill:#FD4848;" d="M199.532,332.384v50.746c0,8.8,7.199,16,16,16h24.469    c8.8,0,16-7.2,16-16v-50.746c0-8.8-7.2-16-16-16h-24.469C206.732,316.384,199.532,323.584,199.532,332.384z"/>
		<path style="fill-rule:evenodd;clip-rule:evenodd;fill:#FD4848;" d="M256.001,332.384v50.746c0,8.8,7.199,16,16,16h24.469    c8.8,0,16-7.2,16-16v-50.746c0-8.8-7.2-16-16-16H272C263.2,316.384,256.001,323.584,256.001,332.384z"/>
		<circle style="fill-rule:evenodd;clip-rule:evenodd;fill:#FFBA4A;" cx="379.637" cy="338.22" r="20"/>
		<circle style="fill-rule:evenodd;clip-rule:evenodd;fill:#FFBA4A;" cx="419.636" cy="338.22" r="20"/>
		<path style="fill-rule:evenodd;clip-rule:evenodd;fill:#EBEBEB;" d="M479.638,399.13H296.469H272h-32h-24.469H32.364h-2.363    c-11,0-20,9-20,20c0,11,9,20,20,20h22.363h67.091h273.09h67.091h22.364c11,0,20-9,20-20c0-11-9-20-20-20H479.638z"/>
		<path style="fill-rule:evenodd;clip-rule:evenodd;fill:#64759D;" d="M459.637,439.13h-67.091v44.981    c0,9.84,8.051,17.891,17.891,17.891h31.31c9.839,0,17.891-8.052,17.891-17.891V439.13z"/>
		<path style="fill-rule:evenodd;clip-rule:evenodd;fill:#64759D;" d="M119.455,484.111V439.13H52.364v44.981    c0,9.84,8.052,17.891,17.89,17.891h31.31C111.404,502.002,119.455,493.95,119.455,484.111z"/>
		<path style="fill-rule:evenodd;clip-rule:evenodd;fill:#FF836C;" d="M30,274.061h38.145v-20c0-11-9-20-20-20H30c-11,0-20,9-20,20    C10,265.061,19,274.061,30,274.061z"/>
		<path style="fill-rule:evenodd;clip-rule:evenodd;fill:#FF836C;" d="M443.856,254.061v20h38.145c11,0,20-9,20-20c0-11-9-20-20-20    h-18.145C452.856,234.061,443.856,243.06,443.856,254.061z"/>
		<path style="fill-rule:evenodd;clip-rule:evenodd;fill:#FF836C;" d="M413.638,115.492c-149.091,0-166.183-0.001-315.274-0.001    c-12.138,0-22.363,6.95-22.363,20c0,11,9,20,20,20c150.667,0,169.333,0.001,320,0.001c11,0,20-9,20-20    C436.001,122.442,425.776,115.492,413.638,115.492z"/>
		<polygon style="fill-rule:evenodd;clip-rule:evenodd;fill:#64759D;" points="427.001,195 427.001,155 377.002,155 377.002,65.001     337.002,65.001 337.002,195   "/>
		<path style="fill-rule:evenodd;clip-rule:evenodd;fill:#FFF0D9;" d="M427.001,155v40h-89.998v-130h40v90H427.001L427.001,155z     M502.002,130c0-66.274-53.726-120-120-120c-61.364,0-111.97,46.059-119.132,105.492c-0.573,4.756-0.868,9.598-0.868,14.508    c0,8.747,0.936,17.276,2.713,25.492c4.304,19.895,13.541,37.952,26.369,52.826c22.003,25.525,54.574,41.682,90.918,41.682    c20.772,0,40.311-5.278,57.349-14.567C476.676,215.09,502.002,175.503,502.002,130z"/>
	</g>
	<g>
		<path d="M512.001,254.061c0-16.542-13.458-30-30-30h-10.35c24.846-23.692,40.351-57.1,40.351-94.061c0-71.683-58.318-130-130-130    c-63.306,0-116.179,45.487-127.674,105.492h-78.327c-5.523,0-10,4.478-10,10s4.477,10,10,10h76.086    c-0.051,1.497-0.087,2.998-0.087,4.508c0,5.242,0.321,10.41,0.927,15.492H97.218c-0.275,0-0.548,0.012-0.821,0.02    c-0.133-0.005-0.263-0.02-0.396-0.02c-5.514,0-10-4.486-10-10s4.486-10,10-10c5.523,0,10-4.478,10-10s-4.477-10-10-10    c-16.542,0-30,13.458-30,30c0,8.428,3.498,16.051,9.113,21.505c-3.065,4.259-5.103,9.488-5.73,15.316l-6.016,55.912    c-4.466-2.642-9.669-4.165-15.224-4.165H30c-16.542,0-30,13.458-30,30.001c0,16.542,13.458,29.999,30,29.999h2.774    c-6.501,7.906-10.41,18.021-10.41,29.032v77.026C9.509,393.505,0.001,405.227,0.001,419.13c0,16.542,13.458,30,30,30h12.363    v34.981c0,15.379,12.512,27.891,27.891,27.891h31.31c15.379,0,27.891-12.512,27.891-27.891V449.13h253.09v34.981    c0,15.379,12.512,27.891,27.891,27.891h31.31c15.379,0,27.891-12.512,27.891-27.891V449.13h12.364c16.542,0,30-13.458,30-30    c0-13.904-9.509-25.625-22.363-29.012v-77.025c0-11.011-3.909-21.126-10.41-29.032h2.774    C498.543,284.061,512.001,270.603,512.001,254.061z M492.001,254.062c0,5.514-4.486,9.999-10,9.999h-28.145v-10    c0-5.514,4.486-10,10-10h18.146C487.516,244.061,492.001,248.547,492.001,254.062z M382.002,20c60.654,0,110,49.346,110,110    s-49.346,110.001-110,110.001c-60.655,0-110.001-49.347-110.001-110.001S321.347,20,382.002,20z M277.72,207.539l-18.166,18.166    c-3.905,3.905-3.905,10.237,0,14.143c1.953,1.952,4.512,2.929,7.071,2.929s5.119-0.977,7.071-2.929l17.204-17.204    c23.476,23.089,55.651,37.357,91.101,37.357c17.291,0,33.8-3.402,48.905-9.558l1.815,16.867H79.278l9.991-92.857    c0.465-4.316,3.15-8.961,7.949-8.961h159.708C261.289,180.848,268.412,195.053,277.72,207.539z M20,254.061    c0-5.514,4.486-10,10-10h18.146c5.514,0,10,4.486,10,10v10H30C24.486,264.061,20,259.574,20,254.061z M109.456,484.111    c0,4.351-3.54,7.891-7.891,7.891h-31.31c-4.351,0-7.891-3.54-7.891-7.891V449.13h47.091V484.111z M449.637,484.111    c0,4.351-3.54,7.891-7.891,7.891h-31.31c-4.351,0-7.891-3.54-7.891-7.891V449.13h47.091V484.111z M482.001,429.13h-452    c-5.514,0-10-4.486-10-10s4.486-10,10-10h339.635c5.523,0,10-4.478,10-10s-4.477-10-10-10h-47.873    c0.457-1.927,0.707-3.935,0.707-6v-50.746c0-14.337-11.664-26-26-26H272c-6.031,0-11.584,2.07-16,5.529    c-4.416-3.459-9.969-5.529-16-5.529h-24.468c-14.336,0-26,11.663-26,26v50.746c0,2.065,0.249,4.073,0.707,6H42.363v-76.037    c0-14.215,11.563-25.78,25.778-25.782c0.005,0,0.011,0.001,0.016,0.001c0.007,0,0.014-0.001,0.021-0.001h375.645    c0.007,0,0.014,0.001,0.021,0.001c0.005,0,0.011-0.001,0.016-0.001c14.214,0.002,25.777,11.567,25.777,25.782v76.037h-20.001    c-5.523,0-10,4.478-10,10s4.477,10,10,10h32.364c5.514,0,10,4.486,10,10S487.515,429.13,482.001,429.13z M209.532,383.13v-50.746    c0-3.252,2.748-6,6-6H240c3.252,0,6,2.748,6,6v50.746c0,3.252-2.748,6-6,6h-24.468C212.28,389.13,209.532,386.382,209.532,383.13z     M302.469,383.13c0,3.252-2.748,6-6,6H272c-3.252,0-6-2.748-6-6v-50.746c0-3.252,2.748-6,6-6h24.469c3.252,0,6,2.748,6,6V383.13z"/>
		<path d="M212.625,242.776c2.559,0,5.119-0.977,7.071-2.929l32.75-32.75c3.905-3.905,3.905-10.237,0-14.143    c-3.905-3.904-10.237-3.904-14.143,0l-32.75,32.75c-3.905,3.905-3.905,10.237,0,14.143    C207.507,241.8,210.066,242.776,212.625,242.776z"/>
		<path d="M419.636,368.221c16.542,0,30-13.458,30-30s-13.458-30-30-30c-7.678,0-14.688,2.902-20,7.663    c-5.312-4.761-12.322-7.663-20-7.663c-16.542,0-30,13.458-30,30s13.458,30,30,30c7.678,0,14.688-2.902,20-7.663    C404.948,365.318,411.959,368.221,419.636,368.221z M419.636,328.221c5.514,0,10,4.486,10,10s-4.486,10-10,10    c-5.514,0-10-4.486-10-10S414.123,328.221,419.636,328.221z M379.637,348.221c-5.514,0-10-4.486-10-10s4.486-10,10-10    s10,4.486,10,10S385.151,348.221,379.637,348.221z"/>
		<path d="M132.364,308.221c-7.678,0-14.688,2.902-20,7.663c-5.312-4.761-12.322-7.663-20-7.663c-16.542,0-30,13.458-30,30    s13.458,30,30,30c7.678,0,14.688-2.902,20-7.663c5.312,4.761,12.322,7.663,20,7.663c16.542,0,30-13.458,30-30    S148.906,308.221,132.364,308.221z M92.365,348.221c-5.514,0-10-4.486-10-10s4.486-10,10-10s10,4.486,10,10    S97.879,348.221,92.365,348.221z M132.364,348.221c-5.514,0-10-4.486-10-10s4.486-10,10-10c5.514,0,10,4.486,10,10    S137.878,348.221,132.364,348.221z"/>
		<path d="M136.004,125.492c5.523,0,10-4.478,10-10s-4.477-10-10-10h-0.007c-5.523,0-9.997,4.478-9.997,10    S130.481,125.492,136.004,125.492z"/>
		<path d="M409.64,389.13h-0.007c-5.523,0-9.996,4.478-9.996,10s4.48,10,10.003,10s10-4.478,10-10S415.163,389.13,409.64,389.13z"/>
		<path d="M337.002,205H427c5.523,0,10-4.478,10-10v-40c0-5.522-4.477-10-10-10h-39.998V65.001c0-5.522-4.477-10-10-10h-40    c-5.523,0-10,4.478-10,10V195C327.002,200.522,331.479,205,337.002,205z M347.002,75.001h20V155c0,5.522,4.477,10,10,10H417v20    h-69.998V75.001z"/>
	</g>
</g>















</svg>
