<?xml version="1.0" encoding="iso-8859-1"?>
<!-- Generator: Adobe Illustrator 21.0.0, SVG Export Plug-In . SVG Version: 6.00 Build 0)  -->
<svg xmlns="http://www.w3.org/2000/svg" xmlns:xlink="http://www.w3.org/1999/xlink" version="1.1" id="Capa_1" x="0px" y="0px" viewBox="0 0 512.002 512.002" style="enable-background:new 0 0 512.002 512.002;" xml:space="preserve" width="512" height="512">
<g>
	<g>
		<polygon style="fill-rule:evenodd;clip-rule:evenodd;fill:#8FD57C;" points="100.064,94.001 236.001,94.001 236.001,46     100.064,46 80.001,70.001   "/>
		<path style="fill-rule:evenodd;clip-rule:evenodd;fill:#EBEBEB;" d="M236.001,46v48v48v48v272.001h40V142.001v-48V30    c0-11-9-20-20-20c-11,0-20,9-20,20V46z"/>
		<polygon style="fill-rule:evenodd;clip-rule:evenodd;fill:#8FD57C;" points="411.938,94.001 276.001,94.001 276.001,142.001     411.938,142.001 432.001,118.001   "/>
		<polygon style="fill-rule:evenodd;clip-rule:evenodd;fill:#8FD57C;" points="236.001,190.001 236.001,142.001 100.064,142.001     80.001,166.001 100.064,190.001   "/>
		<path style="fill-rule:evenodd;clip-rule:evenodd;fill:#C2C2C2;" d="M236.001,462.002h-35c-11,0-20,9-20,20v20h150v-20    c0-11-9-20-20-20h-35H236.001z"/>
	</g>
	<g>
		<path d="M439.673,111.587l-20.063-24c-1.9-2.272-4.71-3.586-7.673-3.586H286.001V30c0-16.542-13.458-30-30-30    c-16.542,0-30,13.458-30,30v6h-35.936c-5.523,0-10,4.478-10,10s4.477,10,10,10h35.936v28.001H104.738l-11.704-14L104.738,56h5.326    c5.523,0,10-4.478,10-10s-4.477-10-10-10h-10.001c-2.962,0-5.772,1.313-7.672,3.587l-20.063,24c-3.104,3.713-3.104,9.115,0,12.828    l20.063,24c1.9,2.272,4.71,3.586,7.672,3.586h125.937v28H100.064c-2.962,0-5.772,1.313-7.672,3.586l-20.063,24    c-3.104,3.713-3.104,9.115,0,12.828l20.063,24c1.9,2.272,4.71,3.586,7.672,3.586h125.937v252.001h-25c-16.542,0-30,13.458-30,30    v20c0,5.522,4.477,10,10,10h150c5.522,0,10-4.478,10-10v-20c0-16.542-13.458-30-30-30h-25v-10.001c0-5.522-4.478-10-10-10    s-10,4.478-10,10v10.001h-20V30c0-5.514,4.486-10,10-10s10,4.486,10,10v332.001c0,5.522,4.478,10,10,10s10-4.478,10-10v-210    h125.937c2.963,0,5.772-1.313,7.673-3.586l20.063-24C442.777,120.702,442.777,115.3,439.673,111.587z M321.001,482.002v10h-130    v-10c0-5.514,4.486-10,10-10h110C316.515,472.002,321.001,476.488,321.001,482.002z M104.738,180.001l-11.703-14l11.703-14    h121.263v28H104.738z M407.263,132.001H286.001v-28h121.262l11.703,14L407.263,132.001z"/>
		<path d="M150.068,56c5.523,0,10-4.478,10-10s-4.477-10-10-10h-0.007c-5.523,0-9.996,4.478-9.996,10S144.545,56,150.068,56z"/>
		<path d="M276.001,392.001c-5.522,0-10,4.481-10,10.004s4.478,10,10,10s10-4.478,10-10v-0.008    C286.001,396.475,281.524,392.001,276.001,392.001z"/>
	</g>
</g>















</svg>
