<?xml version="1.0" encoding="iso-8859-1"?>
<!-- Generator: Adobe Illustrator 21.0.0, SVG Export Plug-In . SVG Version: 6.00 Build 0)  -->
<svg xmlns="http://www.w3.org/2000/svg" xmlns:xlink="http://www.w3.org/1999/xlink" version="1.1" id="Capa_1" x="0px" y="0px" viewBox="0 0 512 512" style="enable-background:new 0 0 512 512;" xml:space="preserve" width="512" height="512">
<g>
	<g>
		<path style="fill-rule:evenodd;clip-rule:evenodd;fill:#6A87C1;" d="M70.016,187.914C97.777,112.102,170.57,57.998,256,57.998    s158.223,54.104,185.984,129.916c7.774,21.23,12.017,44.162,12.017,68.085c0,23.923-4.243,46.855-12.017,68.085    c-19.987,54.582-63.317,97.912-117.899,117.899C302.855,449.757,279.923,454,256,454s-46.855-4.243-68.085-12.017    c-54.582-19.987-97.912-63.317-117.899-117.899c-7.774-21.23-12.017-44.162-12.017-68.085    C57.999,232.076,62.242,209.144,70.016,187.914L70.016,187.914z M502.001,255.999C502.001,120.137,391.863,9.998,256,9.998    S9.999,120.137,9.999,255.999S120.138,502,256,502S502.001,391.862,502.001,255.999z"/>
		<path style="fill-rule:evenodd;clip-rule:evenodd;fill:#FFF0D9;" d="M131.999,235.999c-29.711,0-54.861-20.518-61.983-48.084    c-7.774,21.23-12.017,44.162-12.017,68.085c0,23.923,4.243,46.855,12.017,68.085C77.138,296.518,102.288,276,131.999,276h46.521    c-1.646-6.393-2.521-13.094-2.521-20.001c0-6.906,0.875-13.608,2.521-20.001H131.999z"/>
		<path style="fill-rule:evenodd;clip-rule:evenodd;fill:#64759D;" d="M256,175.999c-37.276,0-68.598,25.495-77.479,59.999    c-1.646,6.393-2.521,13.094-2.521,20.001c0,6.906,0.875,13.608,2.521,20.001c7.236,28.112,29.367,50.243,57.479,57.479    c6.393,1.646,13.094,2.521,20.001,2.521c6.906,0,13.608-0.875,20.001-2.521c28.112-7.236,50.243-29.367,57.479-57.479    c1.646-6.393,2.521-13.094,2.521-20.001c0-6.906-0.875-13.608-2.521-20.001C324.599,201.494,293.277,175.999,256,175.999z"/>
		<circle style="fill-rule:evenodd;clip-rule:evenodd;fill:#FFF0D9;" cx="256" cy="255.999" r="40"/>
		<path style="fill-rule:evenodd;clip-rule:evenodd;fill:#FFF0D9;" d="M256,335.999c-6.906,0-13.608-0.875-20.001-2.521V380    c0,29.711-20.518,54.861-48.084,61.983C209.145,449.757,232.077,454,256,454s46.855-4.243,68.085-12.017    c-27.566-7.122-48.084-32.272-48.084-61.983v-46.521C269.608,335.124,262.907,335.999,256,335.999z"/>
		<path style="fill-rule:evenodd;clip-rule:evenodd;fill:#FFF0D9;" d="M333.48,276h46.521c29.711,0,54.861,20.518,61.983,48.084    c7.774-21.23,12.017-44.162,12.017-68.085c0-23.923-4.243-46.855-12.017-68.085c-7.122,27.566-32.272,48.084-61.983,48.084H333.48    c1.646,6.393,2.521,13.094,2.521,20.001C336,262.906,335.125,269.607,333.48,276z"/>
	</g>
	<g>
		<path d="M256,206c-27.57,0-50,22.43-50,50s22.43,50,50,50s50-22.43,50-50S283.57,206,256,206z M256,286c-16.542,0-30-13.458-30-30    s13.458-30,30-30s30,13.458,30,30S272.542,286,256,286z"/>
		<path d="M437.02,74.98C388.668,26.629,324.38,0,256,0c-31.042,0-61.39,5.501-90.2,16.352c-5.169,1.946-7.78,7.714-5.834,12.883    c1.946,5.168,7.716,7.783,12.883,5.834C199.398,25.069,227.375,20,256,20c68.863,0,130.927,29.652,174.108,76.853l-3.778,3.17    c-4.231,3.55-4.782,9.857-1.232,14.088c1.979,2.357,4.812,3.572,7.665,3.572c2.269,0,4.55-0.768,6.423-2.34l3.783-3.175    c4.303,5.581,8.369,11.353,12.169,17.312l-4.311,2.489c-4.783,2.761-6.422,8.877-3.66,13.66c1.852,3.208,5.213,5.002,8.67,5.002    c1.696,0,3.415-0.433,4.99-1.342l4.332-2.501c3.268,6.234,6.266,12.629,8.977,19.174l-4.73,1.722    c-5.189,1.89-7.866,7.628-5.978,12.817c1.479,4.062,5.313,6.583,9.398,6.583c1.135,0,2.29-0.195,3.419-0.605l4.753-1.73    c2.125,6.695,3.953,13.52,5.48,20.457l-4.979,0.878c-5.439,0.959-9.071,6.146-8.111,11.584c0.855,4.853,5.074,8.266,9.836,8.266    c0.576,0,1.161-0.051,1.748-0.154l4.977-0.878c0.918,6.943,1.526,13.98,1.825,21.097h-5.033c-5.522,0-10,4.478-10,10    s4.478,10,10,10h5.033c-0.298,7.117-0.907,14.155-1.825,21.097l-4.977-0.878c-5.428-0.967-10.625,2.672-11.584,8.111    c-0.96,5.438,2.672,10.625,8.111,11.584l4.979,0.878c-1.528,6.937-3.355,13.762-5.48,20.457l-4.753-1.73    c-5.188-1.885-10.928,0.788-12.817,5.978c-1.889,5.189,0.788,10.928,5.978,12.817l4.73,1.722    c-2.711,6.544-5.709,12.94-8.977,19.174l-4.332-2.501c-4.785-2.762-10.899-1.122-13.66,3.66c-2.762,4.783-1.123,10.899,3.66,13.66    l4.311,2.489c-3.8,5.959-7.866,11.732-12.169,17.313l-3.783-3.174c-4.231-3.551-10.539-3-14.088,1.232    c-3.551,4.23-2.998,10.538,1.232,14.088l3.778,3.17C386.926,462.348,324.863,492,256,492c-68.863,0-130.926-29.652-174.107-76.852    l3.778-3.17c4.23-3.55,4.783-9.857,1.232-14.088c-3.55-4.231-9.858-4.781-14.088-1.232l-3.784,3.175    c-4.304-5.581-8.37-11.354-12.17-17.313l4.311-2.489c4.783-2.761,6.422-8.877,3.66-13.66c-2.76-4.782-8.874-6.422-13.66-3.66    l-4.332,2.501c-3.268-6.234-6.266-12.63-8.977-19.174l4.731-1.722c5.19-1.889,7.866-7.627,5.978-12.816    c-1.891-5.19-7.63-7.863-12.817-5.978l-4.753,1.73c-2.125-6.695-3.953-13.52-5.48-20.457l4.98-0.878    c5.439-0.959,9.071-6.146,8.111-11.584c-0.959-5.438-6.144-9.068-11.584-8.111l-4.978,0.878    c-0.918-6.943-1.526-13.98-1.825-21.098h5.033c5.522,0,10-4.478,10-10s-4.478-10-10-10h-5.028    c0.297-7.091,0.904-14.129,1.822-21.097l4.975,0.877c0.587,0.104,1.172,0.154,1.748,0.154c4.762,0,8.98-3.414,9.836-8.266    c0.96-5.438-2.672-10.625-8.111-11.584l-4.999-0.882c1.517-6.918,3.333-13.748,5.457-20.469l4.796,1.745    c1.129,0.41,2.283,0.605,3.419,0.605c4.085,0,7.92-2.522,9.398-6.583c1.889-5.189-0.787-10.928-5.978-12.816l-4.797-1.746    c2.695-6.532,5.692-12.933,8.965-19.196l4.41,2.546c1.575,0.909,3.294,1.342,4.99,1.342c3.456,0,6.818-1.794,8.67-5.002    c2.762-4.783,1.123-10.899-3.66-13.66l-4.398-2.539c3.785-5.946,7.836-11.735,12.16-17.343l3.881,3.256    c1.873,1.572,4.154,2.34,6.423,2.34c2.854,0,5.688-1.215,7.665-3.572c3.551-4.23,2.999-10.538-1.232-14.088l-3.867-3.245    c7.543-8.236,15.709-15.998,24.482-23.206c4.267-3.506,4.884-9.808,1.378-14.075c-3.507-4.268-9.808-4.885-14.075-1.378    c-3.846,3.16-7.581,6.422-11.213,9.771c-0.06,0.053-0.123,0.098-0.182,0.152l-0.083,0.077c-0.087,0.081-0.162,0.169-0.245,0.252    C29.659,116.789,0,184.321,0,256c0,68.38,26.629,132.668,74.98,181.02S187.62,512,256,512s132.668-26.629,181.02-74.98    S512,324.38,512,256S485.371,123.332,437.02,74.98z"/>
		<path d="M436.901,337.218c5.148,2.004,10.943-0.54,12.95-5.685c9.389-24.081,14.149-49.494,14.149-75.533    c0-114.692-93.309-208.001-208.001-208.001S47.999,141.308,47.999,256S141.308,464.001,256,464.001    c55.962,0,108.464-21.912,147.836-61.7c3.885-3.926,3.852-10.258-0.074-14.143c-3.927-3.883-10.256-3.851-14.143,0.074    c-19.013,19.214-41.414,33.811-65.869,43.245c-22.363-7.089-37.749-27.858-37.749-51.476v-39.149    c25.531-9.054,45.797-29.32,54.851-54.851h39.149c23.573,0,44.328,15.347,51.446,37.656c-0.078,0.203-0.151,0.408-0.23,0.611    C429.211,329.413,431.756,335.211,436.901,337.218z M256,67.999c79.849,0,148.22,50.043,175.425,120.409    c-7.136,22.277-27.862,37.591-51.424,37.591h-39.149C328.469,191.08,295.111,166,256,166s-72.469,25.08-84.852,59.999h-39.149    c-23.551,0-44.286-15.317-51.424-37.591C107.78,118.042,176.151,67.999,256,67.999z M72.351,296.251    c-2.841-12.973-4.352-26.438-4.352-40.251c0-13.814,1.511-27.28,4.353-40.254c13.649,18.585,35.575,30.253,59.647,30.253h34.56    C166.194,249.284,166,252.62,166,256s0.194,6.716,0.559,10.001h-34.56C107.917,266.001,85.997,277.666,72.351,296.251z     M80.575,323.592c7.137-22.277,27.862-37.591,51.424-37.591h39.149c9.054,25.531,29.32,45.797,54.851,54.851v39.149    c0,23.551-15.317,44.286-37.591,51.424C139.029,412.334,99.666,372.971,80.575,323.592z M296.303,439.688    c-13.089,2.843-26.579,4.313-40.303,4.313c-13.814,0-27.28-1.511-40.254-4.353c18.585-13.649,30.253-35.575,30.253-59.647v-34.56    C249.284,345.806,252.62,346,256,346s6.716-0.194,10.001-0.559v34.56C266.001,404.106,277.688,426.045,296.303,439.688z M256,326    c-38.598,0-70-31.402-70-70s31.402-70,70-70s70,31.402,70,70S294.598,326,256,326z M380.001,266.001h-34.56    C345.806,262.716,346,259.38,346,256s-0.194-6.716-0.559-10.001h34.56c24.083,0,46.002-11.665,59.648-30.25    c2.841,12.973,4.352,26.438,4.352,40.251c0,13.663-1.458,27.13-4.332,40.281C426.021,277.68,404.085,266.001,380.001,266.001z"/>
		<path d="M133.01,52.958c1.906,0,3.835-0.545,5.54-1.682c4.596-3.063,5.837-9.272,2.773-13.867    c-3.063-4.596-9.271-5.837-13.867-2.773l-0.006,0.004c-4.596,3.063-5.834,9.271-2.771,13.865    C126.606,51.395,129.777,52.958,133.01,52.958z"/>
		<path d="M427.505,355.714c-4.595-3.063-10.804-1.823-13.867,2.773l-0.004,0.006c-3.063,4.595-1.82,10.801,2.775,13.864    c1.704,1.136,3.63,1.68,5.535,1.68c3.233,0,6.406-1.564,8.334-4.456C433.342,364.986,432.101,358.777,427.505,355.714z"/>
	</g>
</g>















</svg>
