<?xml version="1.0" encoding="iso-8859-1"?>
<!-- Generator: Adobe Illustrator 21.0.0, SVG Export Plug-In . SVG Version: 6.00 Build 0)  -->
<svg xmlns="http://www.w3.org/2000/svg" xmlns:xlink="http://www.w3.org/1999/xlink" version="1.1" id="Capa_1" x="0px" y="0px" viewBox="0 0 512 512" style="enable-background:new 0 0 512 512;" xml:space="preserve" width="512" height="512">
<g>
	<g>
		<circle style="fill-rule:evenodd;clip-rule:evenodd;fill:#FFF0D9;" cx="256" cy="256" r="206"/>
		<path style="fill-rule:evenodd;clip-rule:evenodd;fill:#64759D;" d="M248.638,358.208c0,14.535-11.783,26.319-26.319,26.319    c-14.535,0-26.319-11.783-26.319-26.319V153.791c0-14.535,11.783-26.318,26.319-26.318h53.682    c44.054,0,79.999,35.947,79.999,80.001v22.34c0,44.053-35.945,80-79.999,80h-27.363V358.208L248.638,358.208z M248.638,180.11    v77.066h27.363c14.996,0,27.362-12.366,27.362-27.362v-22.34c0-14.997-12.365-27.364-27.362-27.364H248.638z"/>
		<path style="fill-rule:evenodd;clip-rule:evenodd;fill:#FF836C;" d="M415.12,125.164C444.41,160.744,462,206.317,462,256    c0,113.771-92.229,206-206,206c-49.683,0-95.256-17.59-130.836-46.88L415.12,125.164L415.12,125.164z M256,502    c135.862,0,246-110.138,246-246S391.862,10,256,10S10,120.138,10,256S120.138,502,256,502L256,502z M386.836,96.88    C351.256,67.59,305.683,50,256,50C142.23,50,50,142.23,50,256c0,49.683,17.59,95.256,46.88,130.836L386.836,96.88z"/>
	</g>
	<g>
		<path d="M437.02,74.98C388.668,26.629,324.38,0,256,0c-53.842,0-105.36,16.53-148.987,47.804    c-4.488,3.218-5.52,9.466-2.302,13.954c3.217,4.487,9.463,5.519,13.954,2.302C158.874,35.235,206.363,20,256,20    c130.131,0,236,105.869,236,236S386.131,492,256,492S20,386.131,20,256c0-49.789,15.319-97.396,44.302-137.672    c3.226-4.482,2.207-10.732-2.276-13.958c-4.484-3.226-10.733-2.207-13.958,2.276C16.621,150.347,0,201.992,0,256    c0,68.38,26.629,132.668,74.98,181.02S187.62,512,256,512s132.668-26.629,181.02-74.98S512,324.38,512,256    S485.371,123.332,437.02,74.98z"/>
		<path d="M393.191,89.159C354.684,57.458,305.962,40,256,40c-57.695,0-111.938,22.468-152.735,63.265S40,198.305,40,256    c0,49.961,17.458,98.683,49.159,137.191c1.793,2.178,4.421,3.497,7.237,3.633c0.162,0.008,0.323,0.012,0.483,0.012    c2.646,0,5.191-1.049,7.071-2.929l289.956-289.956c1.994-1.994,3.054-4.737,2.917-7.555    C396.688,93.58,395.369,90.952,393.191,89.159z M294.509,175.064c-5.595-3.227-11.935-4.954-18.507-4.954h-27.364    c-5.522,0-10,4.478-10,10v50.825l-32.637,32.637V153.791c0-8.998,7.32-16.318,16.318-16.318h53.683    c15.323,0,29.928,4.956,42.008,14.091L294.509,175.064z M279.161,190.412l-20.523,20.523V190.11h17.364    C277.071,190.11,278.126,190.217,279.161,190.412z M332.261,137.313c-15.941-12.848-35.589-19.84-56.259-19.84h-53.683    c-20.026,0-36.318,16.292-36.318,36.318v129.781l-88.179,88.179C73.36,338.323,60,297.638,60,256c0-108.075,87.925-196,196-196    c41.639,0,82.324,13.36,115.751,37.822L332.261,137.313z"/>
		<path d="M421.557,379.005c4.583,3.08,10.796,1.86,13.877-2.727C459.355,340.66,472,299.068,472,256    c0-49.961-17.458-98.683-49.159-137.191c-1.793-2.178-4.421-3.497-7.237-3.633c-2.833-0.138-5.562,0.923-7.555,2.917    L118.094,408.049c-1.994,1.994-3.054,4.737-2.917,7.555c0.136,2.816,1.455,5.445,3.633,7.237C157.319,454.542,206.041,472,256,472    c43.047,0,84.62-12.632,120.227-36.531c4.586-3.077,5.808-9.29,2.729-13.876s-9.289-5.809-13.876-2.729    C332.782,440.541,295.063,452,256,452c-41.637,0-82.321-13.36-115.75-37.822l46.898-46.898    c4.039,15.651,18.276,27.248,35.171,27.248c20.026,0,36.318-16.293,36.318-36.319v-38.395h17.364    c49.626,0,89.999-40.374,89.999-90v-22.34c0-5.833-0.571-11.648-1.694-17.353l49.871-49.871C438.64,173.677,452,214.362,452,256    c0,39.082-11.47,76.818-33.17,109.128C415.751,369.713,416.972,375.926,421.557,379.005z M222.319,374.527    c-8.998,0-16.318-7.32-16.318-16.319v-9.781l32.637-32.637v42.418C238.638,367.207,231.317,374.527,222.319,374.527z     M346.001,229.813c0,38.599-31.401,70-69.999,70h-21.388l35.406-35.406c9.306-3.81,16.765-11.269,20.575-20.575l35.406-35.406    V229.813z"/>
		<path d="M82.053,92.048c2.561,0,5.122-0.977,7.075-2.93c3.905-3.905,3.905-10.237,0-14.143c-3.906-3.904-10.236-3.904-14.143,0    L74.98,74.98c-3.905,3.905-3.902,10.234,0.003,14.14C76.936,91.072,79.494,92.048,82.053,92.048z"/>
		<path d="M393.986,395.257l-0.005,0.006c-3.535,4.242-2.959,10.545,1.283,14.081c1.869,1.557,4.138,2.316,6.395,2.316    c2.867,0,5.714-1.227,7.692-3.601c3.535-4.242,2.962-10.548-1.281-14.084C403.831,390.442,397.525,391.014,393.986,395.257z"/>
	</g>
</g>















</svg>
