<?xml version="1.0" encoding="iso-8859-1"?>
<!-- Generator: Adobe Illustrator 21.0.0, SVG Export Plug-In . SVG Version: 6.00 Build 0)  -->
<svg xmlns="http://www.w3.org/2000/svg" xmlns:xlink="http://www.w3.org/1999/xlink" version="1.1" id="Capa_1" x="0px" y="0px" viewBox="0 0 512.001 512.001" style="enable-background:new 0 0 512.001 512.001;" xml:space="preserve" width="512" height="512">
<g>
	<g>
		<path style="fill-rule:evenodd;clip-rule:evenodd;fill:#8FD57C;" d="M65.641,334.909C55.413,310.215,50,283.433,50,256.001    c0-27.432,5.412-54.215,15.64-78.908c10.203-24.632,25.299-47.362,44.694-66.757c7.81-7.81,7.81-20.472,0-28.281    c-7.809-7.809-20.472-7.809-28.281,0c-22.988,22.988-40.989,50.191-53.288,79.882C16.494,191.565,10,223.495,10,256.001    s6.494,64.436,18.766,94.064c12.298,29.691,30.3,56.895,53.288,79.882c7.809,7.809,20.472,7.809,28.281,0    c7.81-7.81,7.81-20.472,0-28.281C90.94,382.271,75.844,359.54,65.641,334.909z"/>
		<circle style="fill-rule:evenodd;clip-rule:evenodd;fill:#FFF0D9;" cx="256" cy="256.001" r="166"/>
		<path style="fill-rule:evenodd;clip-rule:evenodd;fill:#8FD57C;" d="M446.36,334.909c-10.203,24.632-25.299,47.362-44.694,66.757    c-7.809,7.809-7.809,20.472,0,28.281c7.81,7.809,20.472,7.809,28.281,0c22.988-22.988,40.989-50.191,53.288-79.882    c12.272-29.628,18.766-61.558,18.766-94.064s-6.494-64.436-18.766-94.064c-12.298-29.691-30.3-56.894-53.288-79.882    c-7.81-7.809-20.472-7.809-28.281,0c-7.809,7.809-7.809,20.472,0,28.281c19.395,19.395,34.491,42.125,44.694,66.757    c10.228,24.693,15.64,51.476,15.64,78.908C462.001,283.433,456.588,310.215,446.36,334.909z"/>
		<polygon style="fill-rule:evenodd;clip-rule:evenodd;fill:#8FD57C;" points="205.76,285.62 256.23,316.001 256.23,196.001     205.76,226.382   "/>
		<path style="fill-rule:evenodd;clip-rule:evenodd;fill:#8FD57C;" d="M205.76,285.62v-59.238h-24.763    c-8.38,0-15.238,6.858-15.238,15.238v28.763c0,8.38,6.857,15.238,15.238,15.238L205.76,285.62z"/>
	</g>
	<g>
		<path d="M74.879,331.082C65.006,307.246,60,281.985,60,256.001s5.006-51.245,14.879-75.081    c9.847-23.773,24.155-45.143,42.526-63.513c11.696-11.696,11.696-30.728,0-42.424c-11.696-11.696-30.727-11.696-42.423,0    c-23.814,23.813-42.472,51.781-55.456,83.126C6.57,189.391,0,222.326,0,256.001s6.57,66.609,19.527,97.892    c12.984,31.345,31.642,59.313,55.455,83.126c5.848,5.848,13.53,8.771,21.212,8.771s15.364-2.924,21.211-8.771    c11.696-11.696,11.696-30.728,0-42.424C99.035,376.224,84.727,354.855,74.879,331.082z M103.264,422.876    c-3.898,3.898-10.241,3.898-14.14,0c-21.947-21.946-39.146-47.731-51.12-76.638C26.058,317.395,20,287.036,20,256.001    s6.058-61.395,18.005-90.237c11.974-28.906,29.173-54.691,51.12-76.638c1.949-1.949,4.51-2.924,7.07-2.924s5.121,0.975,7.07,2.924    c3.898,3.897,3.898,10.241,0,14.139c-20.238,20.237-36.004,43.789-46.862,70.001C45.519,199.541,40,227.377,40,256.001    s5.518,56.46,16.401,82.735c10.858,26.212,26.625,49.764,46.862,70.001C107.162,412.635,107.162,418.978,103.264,422.876z"/>
		<path d="M492.474,158.109c-12.984-31.345-31.642-59.313-55.455-83.126c-11.696-11.695-30.728-11.695-42.423,0    c-11.696,11.696-11.696,30.728,0,42.424c18.371,18.37,32.679,39.739,42.526,63.513C446.995,204.756,452,230.016,452,256.001    c0,21.529-3.478,42.724-10.338,62.995c-1.771,5.231,1.035,10.907,6.267,12.678c5.232,1.77,10.907-1.035,12.678-6.268    c7.56-22.34,11.394-45.691,11.394-69.405c0-28.624-5.518-56.46-16.401-82.735c-10.858-26.212-26.625-49.764-46.862-70.001    c-3.898-3.897-3.898-10.241,0-14.139c3.898-3.898,10.241-3.898,14.14,0c21.947,21.946,39.146,47.731,51.12,76.638    c11.947,28.843,18.005,59.202,18.005,90.237s-6.058,61.395-18.005,90.237c-11.974,28.906-29.173,54.691-51.12,76.638    c-3.898,3.898-10.241,3.898-14.14,0c-3.898-3.897-3.898-10.241,0-14.139c3.409-3.408,6.737-6.966,9.894-10.572    c3.637-4.156,3.217-10.474-0.939-14.111c-4.156-3.638-10.473-3.217-14.111,0.939c-2.866,3.275-5.889,6.506-8.985,9.602    c-11.696,11.696-11.696,30.728,0,42.424c5.849,5.849,13.529,8.772,21.211,8.771c7.681,0,15.364-2.925,21.211-8.771    c23.814-23.813,42.472-51.781,55.456-83.126c12.958-31.282,19.527-64.217,19.527-97.892S505.431,189.391,492.474,158.109z"/>
		<path d="M256,80.001c-32.051,0-63.435,8.711-90.757,25.189c-4.729,2.853-6.251,8.999-3.398,13.729s9,6.247,13.728,3.398    c24.206-14.6,52.018-22.316,80.428-22.316c86.019,0,156,69.981,156,156s-69.981,156-156,156s-156-69.981-156-156    c0-28.421,7.72-56.238,22.324-80.443c2.853-4.729,1.333-10.875-3.396-13.729c-4.728-2.851-10.875-1.333-13.728,3.396    C88.714,192.549,80,223.938,80,256.001c0,97.047,78.953,176,176,176s176-78.953,176-176S353.046,80.001,256,80.001z"/>
		<path d="M138.614,148.623c2.707,0,5.406-1.093,7.378-3.245c3.732-4.071,3.457-10.396-0.614-14.128    c-4.072-3.732-10.397-3.456-14.129,0.614l-0.005,0.006c-3.732,4.071-3.454,10.394,0.617,14.125    C133.78,147.755,136.2,148.623,138.614,148.623z"/>
		<path d="M425.454,354.536c-2.47,4.939-0.466,10.942,4.474,13.412c1.435,0.718,2.959,1.058,4.462,1.058    c3.669,0,7.204-2.028,8.956-5.533c2.47-4.939,0.467-10.946-4.472-13.416c-4.942-2.47-10.947-0.469-13.417,4.473L425.454,354.536z"/>
		<path d="M180.998,295.62h21.985l48.09,28.948c1.585,0.954,3.371,1.433,5.157,1.433c1.696,0,3.393-0.431,4.921-1.294    c3.139-1.774,5.079-5.101,5.079-8.706v-120c0-3.605-1.94-6.932-5.079-8.706c-3.138-1.773-6.989-1.721-10.078,0.139l-48.09,28.948    h-21.985c-13.916,0-25.238,11.322-25.238,25.238v28.762C155.76,284.298,167.082,295.62,180.998,295.62z M246.23,298.309    l-30.47-18.342v-47.934l30.47-18.342V298.309z M175.76,241.62c0-2.84,2.398-5.238,5.238-5.238h14.762v39.238h-14.762    c-2.839,0-5.238-2.398-5.238-5.238V241.62z"/>
		<path d="M312.806,312.577c-3.905,3.905-3.905,10.237,0,14.143c1.953,1.952,4.512,2.929,7.071,2.929s5.119-0.977,7.071-2.929    c18.89-18.891,29.292-44.006,29.292-70.719c0-26.715-10.403-51.829-29.293-70.719c-3.905-3.904-10.237-3.904-14.142,0    c-3.905,3.905-3.905,10.237,0,14.143c15.112,15.111,23.435,35.204,23.435,56.576C336.241,277.372,327.918,297.465,312.806,312.577    z"/>
		<path d="M284.522,298.435c1.953,1.952,4.512,2.929,7.071,2.929s5.119-0.977,7.071-2.929    c11.334-11.335,17.577-26.405,17.577-42.435s-6.242-31.1-17.577-42.435c-3.905-3.904-10.237-3.904-14.143,0    c-3.905,3.905-3.905,10.237,0,14.143c7.557,7.557,11.719,17.604,11.719,28.292s-4.162,20.735-11.719,28.292    C280.617,288.198,280.617,294.53,284.522,298.435z"/>
	</g>
</g>















</svg>
