<?xml version="1.0" encoding="iso-8859-1"?>
<!-- Generator: Adobe Illustrator 21.0.0, SVG Export Plug-In . SVG Version: 6.00 Build 0)  -->
<svg xmlns="http://www.w3.org/2000/svg" xmlns:xlink="http://www.w3.org/1999/xlink" version="1.1" id="Capa_1" x="0px" y="0px" viewBox="0 0 512 512" style="enable-background:new 0 0 512 512;" xml:space="preserve" width="512" height="512">
<g>
	<g>
		<path style="fill-rule:evenodd;clip-rule:evenodd;fill:#FF836C;" d="M10,30v452c0,11,9,20,20,20h452c11,0,20-9,20-20V30    c0-11-9-20-20-20H30C19,10,10,19,10,30L10,30z M50,50h412v412H50V50z"/>
		<path style="fill-rule:evenodd;clip-rule:evenodd;fill:#FFF0D9;" d="M50,50v412h412V50H50L50,50z M156,120.514h59.929v211.043H356    v59.929H156V120.514z"/>
		<polygon style="fill-rule:evenodd;clip-rule:evenodd;fill:#64759D;" points="156,120.514 156,391.486 356,391.486 356,331.557     215.929,331.557 215.929,120.514   "/>
	</g>
	<g>
		<path d="M431.999,452c-5.523,0-10,4.478-10,10s4.477,10,10,10H462c5.523,0,10-4.478,10-10V50c0-5.522-4.477-10-10-10H50    c-5.523,0-10,4.478-10,10v412c0,5.522,4.477,10,10,10h301.998c5.523,0,10-4.478,10-10s-4.477-10-10-10H60V60h392v392H431.999z"/>
		<path d="M482,0H130.001c-5.523,0-10,4.478-10,10s4.477,10,10,10H482c5.514,0,10,4.486,10,10v452c0,5.514-4.486,10-10,10H30    c-5.514,0-10-4.486-10-10V30c0-5.514,4.486-10,10-10h20c5.523,0,10-4.478,10-10S55.523,0,50,0H30C13.458,0,0,13.458,0,30v452    c0,16.542,13.458,30,30,30h452c16.542,0,30-13.458,30-30V30C512,13.458,498.542,0,482,0z"/>
		<path d="M90.004,20c5.523,0,10-4.478,10-10s-4.477-10-10-10h-0.007c-5.523,0-9.996,4.478-9.996,10S84.481,20,90.004,20z"/>
		<path d="M391.995,452c-5.523,0-9.996,4.478-9.996,10s4.48,10,10.003,10s10-4.478,10-10s-4.477-10-10-10H391.995z"/>
		<path d="M215.929,110.514H156c-5.523,0-10,4.478-10,10v270.973c0,5.522,4.477,10,10,10h200c5.523,0,10-4.478,10-10v-59.929    c0-5.522-4.477-10-10-10H225.929V120.514C225.929,114.991,221.452,110.514,215.929,110.514z M346,341.558v39.929H166V130.514    h39.929v201.044c0,5.522,4.477,10,10,10H346z"/>
	</g>
</g>















</svg>
