<?xml version="1.0" encoding="iso-8859-1"?>
<!-- Generator: Adobe Illustrator 21.0.0, SVG Export Plug-In . SVG Version: 6.00 Build 0)  -->
<svg xmlns="http://www.w3.org/2000/svg" xmlns:xlink="http://www.w3.org/1999/xlink" version="1.1" id="Capa_1" x="0px" y="0px" viewBox="0 0 512.001 512.001" style="enable-background:new 0 0 512.001 512.001;" xml:space="preserve" width="512" height="512">
<g>
	<g>
		<path style="fill-rule:evenodd;clip-rule:evenodd;fill:#FFF0D9;" d="M276,299.331V159.33c0-11-8.999-20-20-20s-20,9-20,20v140.001    c0,11,8.999,20,20,20S276,310.331,276,299.331z"/>
		<path style="fill-rule:evenodd;clip-rule:evenodd;fill:#8FD57C;" d="M147.105,408.448c-60.141-60.141-60.141-157.649,0-217.79    l-36.769-36.769C73.057,191.168,50,242.668,50,299.553c0,42.706,13.27,84.224,37.776,118.895h49.329L147.105,408.448z"/>
		<path style="fill-rule:evenodd;clip-rule:evenodd;fill:#FD4848;" d="M364.896,190.658c60.141,60.141,60.141,157.649,0,217.79    l10,10h49.328c24.445-34.585,37.777-76.082,37.777-118.895c0-56.886-23.057-108.386-60.336-145.665L364.896,190.658z"/>
		<path style="fill-rule:evenodd;clip-rule:evenodd;fill:#64759D;" d="M401.665,153.888c37.279,37.279,60.336,88.779,60.336,145.665    c0,42.813-13.333,84.31-37.777,118.895h47.137c20.045-36.308,30.64-77.202,30.64-118.895    c0-135.863-110.138-246.001-246.001-246.001S10,163.69,10,299.553c0,41.707,10.602,82.6,30.641,118.895h47.135    C63.27,383.777,50,342.26,50,299.553c0-56.885,23.057-108.386,60.336-145.665c37.279-37.279,88.779-60.336,145.665-60.336    C312.886,93.552,364.386,116.61,401.665,153.888z"/>
		<path style="fill-rule:evenodd;clip-rule:evenodd;fill:#64759D;" d="M374.896,418.449H137.105H87.776H40.641h-10.64    c-11,0-20,9-20,20c0,11,9,20,20,20h451.999c11,0,20-9,20-20c0-11-9-20-20-20h-10.639h-47.137H374.896z"/>
		<path style="fill-rule:evenodd;clip-rule:evenodd;fill:#FFBA4A;" d="M147.105,190.658c25.995-25.995,58.973-40.745,92.895-44.268    h0.781c3.676-4.313,9.142-7.06,15.219-7.06c6.077,0,11.543,2.746,15.219,7.06h0.781c33.922,3.52,66.9,18.272,92.895,44.268    l36.77-36.77c-37.279-37.279-88.779-60.336-145.665-60.336c-56.886,0-108.386,23.058-145.665,60.337L147.105,190.658z"/>
		<path style="fill-rule:evenodd;clip-rule:evenodd;fill:#6A87C1;" d="M240,146.39c-33.923,3.523-66.9,18.272-92.895,44.268    c-60.141,60.141-60.141,157.649,0,217.79l-10,10h237.791l-10-10c60.141-60.141,60.141-157.649,0-217.79    c-25.995-25.995-58.973-40.747-92.895-44.268h-0.781c2.978,3.494,4.781,8.017,4.781,12.94v140.001c0,11-8.999,20-20,20    s-20-9-20-20V159.33c0-4.923,1.803-9.446,4.781-12.94H240z"/>
	</g>
	<g>
		<path d="M487.444,408.953c16.105-34.109,24.557-71.61,24.557-109.4c0-68.381-26.629-132.668-74.98-181.021    c-48.353-48.352-112.64-74.98-181.02-74.98c-53.941,0-105.537,16.585-149.208,47.962c-4.485,3.223-5.509,9.471-2.286,13.956    c3.223,4.484,9.472,5.509,13.956,2.286c40.25-28.918,87.811-44.204,137.539-44.204c130.131,0,236,105.87,236,236.001    c0,37.834-9.197,75.353-26.634,108.896h-22.841c2.583-4.425,5.019-8.937,7.273-13.519c2.438-4.955,0.398-10.949-4.558-13.388    c-4.956-2.441-10.948-0.398-13.388,4.558c-3.791,7.704-8.124,15.198-12.9,22.349h-39.915l-0.22-0.22    c26.624-30.008,41.183-68.22,41.183-108.676c0-40.456-14.559-78.669-41.182-108.676l22.598-22.598    c31.422,34.774,50.584,80.827,50.584,131.274c0,4.297-0.145,8.654-0.429,12.95c-0.364,5.511,3.808,10.273,9.318,10.639    c5.51,0.367,10.274-3.808,10.639-9.318c0.313-4.733,0.472-9.535,0.472-14.271c0-57.696-22.468-111.938-63.265-152.736    c-40.798-40.797-95.04-63.265-152.736-63.265s-111.938,22.468-152.736,63.265C62.468,187.615,40,241.857,40,299.553    c0,38.609,10.139,75.893,29.456,108.896H46.635C29.197,374.906,20,337.388,20,299.553c0-49.711,15.277-97.259,44.18-137.504    c3.222-4.485,2.197-10.733-2.289-13.955c-4.486-3.223-10.735-2.198-13.956,2.289C16.576,194.049,0,245.631,0,299.553    c0,37.789,8.453,75.29,24.558,109.399c-13.951,2.569-24.557,14.813-24.557,29.496c0,16.542,13.458,30,30,30h452    c16.542,0,30-13.458,30-30C512,423.766,501.395,411.522,487.444,408.953z M392.152,252.719l-11.553,3.096    c-5.335,1.43-8.501,6.913-7.071,12.247c1.197,4.469,5.237,7.415,9.653,7.415c0.856,0,1.728-0.111,2.594-0.344l11.53-3.089    c3.507,18.157,3.507,36.863,0,55.02l-11.53-3.089c-5.332-1.43-10.817,1.737-12.247,7.071s1.736,10.817,7.071,12.247l11.553,3.096    c-5.858,17.119-15.027,33.342-27.506,47.668l-8.467-8.467c-3.905-3.903-10.235-3.904-14.143,0c-3.905,3.905-3.905,10.237,0,14.143    l8.718,8.718H161.247l8.718-8.718c3.905-3.905,3.905-10.237,0-14.143c-3.905-3.904-10.237-3.904-14.142,0l-8.471,8.472    c-12.319-14.12-21.62-30.268-27.582-47.651l11.634-3.117c5.334-1.43,8.5-6.913,7.071-12.247c-1.43-5.336-6.912-8.503-12.248-7.071    l-11.606,3.11c-1.729-8.978-2.62-18.185-2.62-27.53c0-9.345,0.891-18.553,2.62-27.531l11.606,3.11    c0.867,0.232,1.738,0.344,2.595,0.344c4.415,0,8.456-2.947,9.653-7.415c1.43-5.334-1.736-10.817-7.071-12.247l-11.634-3.117    c5.963-17.384,15.263-33.531,27.582-47.651l8.472,8.472c1.953,1.953,4.512,2.929,7.071,2.929c2.559,0,5.119-0.977,7.071-2.929    c3.905-3.905,3.905-10.237,0-14.143l-8.465-8.465c18.426-16.011,40.709-27.117,64.516-32.196c-0.004,0.206-0.016,0.41-0.016,0.616    v140c0,16.542,13.458,30,30,30s30-13.458,30-30v-140c0-0.207-0.011-0.411-0.016-0.618c23.805,5.078,46.088,16.183,64.517,32.197    l-8.465,8.465c-3.905,3.905-3.905,10.237,0,14.143c1.953,1.952,4.512,2.929,7.071,2.929s5.118-0.977,7.071-2.929l8.467-8.467    C377.125,219.376,386.294,235.6,392.152,252.719z M266,159.331v140c0,5.514-4.486,10-10,10c-5.514,0-10-4.486-10-10v-140    c0-5.514,4.486-10,10-10C261.514,149.331,266,153.817,266,159.331z M387.275,154.137l-22.6,22.6    c-24.845-21.963-56-36.006-88.953-39.984c-5.278-4.616-12.176-7.422-19.721-7.422c-7.545,0-14.444,2.806-19.721,7.422    c-32.956,3.98-64.11,18.024-88.953,39.984l-22.6-22.6c34.774-31.422,80.827-50.584,131.274-50.584    C306.448,103.552,352.501,122.715,387.275,154.137z M60,299.553c0-50.448,19.162-96.5,50.584-131.274l22.598,22.598    C106.559,220.885,92,259.098,92,299.553c0,40.455,14.56,78.668,41.183,108.675l-0.22,0.22H93.044    C71.413,376.115,60,338.58,60,299.553z M482,448.449h-452c-5.514,0-10-4.486-10-10s4.486-10,10-10H40.62    c0.01,0,0.02,0.002,0.03,0.002c0.01,0,0.021-0.002,0.032-0.002h47.087c0.006,0,0.011,0.001,0.017,0.001    c0.009,0,0.017-0.001,0.026-0.001h336.378c0.009,0,0.017,0.001,0.026,0.001c0.006,0,0.011-0.001,0.017-0.001h47.089    c0.01,0,0.021,0.002,0.032,0.002c0.01,0,0.02-0.002,0.03-0.002H482c5.514,0,10,4.486,10,10S487.514,448.449,482,448.449z"/>
		<path d="M283.887,349.332h-55.773c-5.523,0-10,4.478-10,10s4.477,10,10,10h55.773c5.522,0,10-4.478,10-10    S289.41,349.332,283.887,349.332z"/>
		<path d="M82.05,135.606c2.559,0,5.118-0.977,7.071-2.929l0.005-0.005c3.905-3.905,3.903-10.234-0.002-14.14    c-3.905-3.904-10.238-3.904-14.144,0.002c-3.905,3.905-3.905,10.237,0,14.143C76.932,134.63,79.491,135.606,82.05,135.606z"/>
		<path d="M445.366,350.126c-1.518,5.311,1.558,10.845,6.868,12.362c0.918,0.263,1.843,0.388,2.752,0.388    c4.352,0,8.355-2.863,9.61-7.256l0.002-0.007c1.518-5.311-1.559-10.842-6.869-12.358    C452.424,341.737,446.883,344.816,445.366,350.126z"/>
	</g>
</g>















</svg>
