<?xml version="1.0" encoding="iso-8859-1"?>
<!-- Generator: Adobe Illustrator 21.0.0, SVG Export Plug-In . SVG Version: 6.00 Build 0)  -->
<svg xmlns="http://www.w3.org/2000/svg" xmlns:xlink="http://www.w3.org/1999/xlink" version="1.1" id="Capa_1" x="0px" y="0px" viewBox="0 0 512.001 512.001" style="enable-background:new 0 0 512.001 512.001;" xml:space="preserve" width="512" height="512">
<g>
	<g>
		<path style="fill-rule:evenodd;clip-rule:evenodd;fill:#EBEBEB;" d="M179.812,82h152.377h7.812c8.8,0,16-7.2,16-16V50    c0-8.8-7.2-16-16-16h-60c0-13.255-10.745-24-24-24s-24,10.745-24,24h-60c-8.8,0-16,7.2-16,16v16c0,8.8,7.2,16,16,16H179.812z"/>
		<path style="fill-rule:evenodd;clip-rule:evenodd;fill:#6A87C1;" d="M172.001,82c-8.8,0-16-7.2-16-16V50h-64    c-8.8,0-16,7.199-16,16v420.002c0,8.801,7.2,16,16,16h328c8.8,0,16-7.199,16-16V65.999c0-8.8-7.2-16-16-16h-64v16    c0,8.8-7.2,16-16,16h-7.812v8h63.812v372.002h-280V90h63.812v-8H172.001z"/>
		<path style="fill-rule:evenodd;clip-rule:evenodd;fill:#FFF0D9;" d="M179.812,82v8v16.763c0,8.381,6.858,15.238,15.238,15.238    h121.901c8.38,0,15.238-6.858,15.238-15.238V90v-8H179.812z"/>
		<path style="fill-rule:evenodd;clip-rule:evenodd;fill:#FFF0D9;" d="M195.05,122c-8.38,0-15.238-6.857-15.238-15.238V90h-63.812    v372.002h280V90h-63.812v16.763c0,8.38-6.858,15.238-15.238,15.238H195.05z"/>
		<path style="fill-rule:evenodd;clip-rule:evenodd;fill:#8FD57C;" d="M301.86,221.86c7.809-7.809,20.472-7.809,28.281,0    c7.809,7.809,7.809,20.472,0,28.281l-80,80c-7.809,7.809-20.472,7.809-28.281,0l-40-40c-7.809-7.809-7.809-20.472,0-28.281    c7.809-7.809,20.472-7.809,28.281,0l25.859,25.859L301.86,221.86z"/>
	</g>
	<g>
		<path d="M420,40h-56.003c-3.926-9.387-13.203-16-23.997-16h-51.499C284.221,10.117,271.27,0,256,0s-28.22,10.117-32.5,24H172    c-10.795,0-20.071,6.613-23.997,16H92c-14.337,0-26,11.663-26,25.999v420.003c0,14.336,11.663,25.999,26,25.999H316    c5.522,0,10-4.478,10-10s-4.478-10-10-10H92c-3.252,0-6-2.747-6-5.999V65.999C86,62.747,88.749,60,92,60h54v6    c0,5.151,1.508,9.956,4.103,14H116c-5.522,0-10,4.478-10,10v372.001c0,5.522,4.478,10,10,10h280c5.522,0,10-4.478,10-10V90    c0-5.522-4.478-10-10-10h-34.103c2.595-4.044,4.103-8.849,4.103-14v-6h54c3.252,0,6,2.747,6,5.999v420.003    c0,3.252-2.748,5.999-6,5.999h-24c-5.522,0-10,4.478-10,10s4.478,10,10,10h24c14.337,0,26-11.663,26-25.999V65.999    C446,51.663,434.337,40,420,40z M172,44h60c5.522,0,10-4.478,10-10c0-7.72,6.28-14,14-14s14.001,6.28,14.001,14    c0,5.522,4.478,10,10,10H340c3.252,0,6,2.748,6,6v16c0,3.252-2.748,6-6,6h-80.188c-5.522,0-10,4.478-10,10s4.478,10,10,10h62.376    v14.763c0,2.839-2.398,5.237-5.237,5.237H195.05c-2.84,0-5.238-2.398-5.238-5.237V82c0-5.522-4.478-10-10-10H172    c-3.252,0-6-2.748-6-6V50C166,46.748,168.749,44,172,44z M386,452.001H126V100h43.812v6.763c0,13.916,11.322,25.237,25.238,25.237    h121.901c13.916,0,25.237-11.321,25.237-25.237V100H386V452.001z"/>
		<path d="M219.816,92c5.522,0,10-4.478,10-10s-4.478-10-10-10h-0.007c-5.522,0-9.996,4.478-9.996,10S214.293,92,219.816,92z"/>
		<path d="M356.003,492.001h-0.007c-5.522,0-9.996,4.478-9.996,10s4.48,10,10.003,10s10-4.478,10-10    S361.526,492.001,356.003,492.001z"/>
		<path d="M294.789,214.789L236,273.577l-18.788-18.788c-11.697-11.695-30.727-11.695-42.424,0    c-11.696,11.696-11.696,30.728,0,42.424l40.001,40c5.848,5.848,13.529,8.771,21.211,8.771s15.363-2.924,21.212-8.771l80-80    c5.665-5.666,8.786-13.199,8.786-21.212c0-8.014-3.121-15.547-8.786-21.212C325.515,203.094,306.486,203.094,294.789,214.789z     M323.07,243.07l-79.999,80c-3.898,3.898-10.243,3.898-14.14,0l-40-40c-1.889-1.888-2.929-4.398-2.929-7.069    s1.04-5.182,2.929-7.069c1.949-1.949,4.509-2.924,7.069-2.924s5.12,0.975,7.069,2.924l25.859,25.858    c3.906,3.904,10.236,3.904,14.143,0l65.859-65.858c3.898-3.898,10.241-3.898,14.14,0c1.888,1.888,2.928,4.398,2.928,7.069    S324.958,241.183,323.07,243.07z"/>
	</g>
</g>















</svg>
