<?xml version="1.0" encoding="iso-8859-1"?>
<!-- Generator: Adobe Illustrator 21.0.0, SVG Export Plug-In . SVG Version: 6.00 Build 0)  -->
<svg xmlns="http://www.w3.org/2000/svg" xmlns:xlink="http://www.w3.org/1999/xlink" version="1.1" id="Capa_1" x="0px" y="0px" viewBox="0 0 512.002 512.002" style="enable-background:new 0 0 512.002 512.002;" xml:space="preserve" width="512" height="512">
<g>
	<g>
		
			<rect x="336.726" y="46.827" transform="matrix(0.7071 -0.7071 0.7071 0.7071 49.1346 320.2758)" style="fill-rule:evenodd;clip-rule:evenodd;fill:#6A87C1;" width="148.898" height="108"/>
		<path style="fill-rule:evenodd;clip-rule:evenodd;fill:#64759D;" d="M396.716,191.654l-76.367-76.367l-5.657-5.657    c-7-7-18.455-7-25.455,0L272.265,126.6c-7,7-7,18.455,0,25.455l8.485,8.485l35.355,35.356l35.356,35.355l8.485,8.485    c7,7,18.455,7,25.455,0l16.971-16.971c7-7,7-18.455,0-25.455L396.716,191.654z"/>
		<path style="fill-rule:evenodd;clip-rule:evenodd;fill:#FFF0D9;" d="M316.106,195.897l-35.355-35.356l-31.113,31.112    c-6.222,6.223-6.222,16.404,0,22.627l48.084,48.084c6.223,6.222,16.405,6.222,22.627,0l31.112-31.113L316.106,195.897z"/>
		<path style="fill-rule:evenodd;clip-rule:evenodd;fill:#64759D;" d="M283.578,318.934l-90.51-90.51    c-6.222-6.222-16.404-6.222-22.627,0l-62.226,62.226c-6.223,6.223-6.223,16.404,0,22.627l7.071,7.071l9.899,9.899l45.256-45.255    c6.222-6.222,16.404-6.222,22.627,0l33.941,33.941c6.222,6.223,6.222,16.405,0,22.627l-45.255,45.256l9.899,9.899l7.072,7.071    c6.222,6.222,16.404,6.223,22.627,0l62.226-62.226C289.801,335.338,289.801,325.156,283.578,318.934z"/>
		<path style="fill-rule:evenodd;clip-rule:evenodd;fill:#FD4848;" d="M227.01,318.934l-33.941-33.941    c-6.223-6.222-16.405-6.222-22.627,0l-45.256,45.255l56.569,56.569l45.255-45.256C233.232,335.338,233.232,325.156,227.01,318.934    z"/>
		<polygon style="fill-rule:evenodd;clip-rule:evenodd;fill:#6A87C1;" points="181.755,386.816 125.186,330.247 115.287,320.348     10,425.635 86.368,502.002 191.654,396.715   "/>
	</g>
	<g>
		<path d="M200.14,221.353c-4.898-4.898-11.428-7.596-18.385-7.596s-13.486,2.697-18.385,7.596l-62.226,62.226    c-4.898,4.898-7.596,11.428-7.596,18.385c0,6.958,2.697,13.487,7.596,18.385l0,0L2.929,418.563    c-3.905,3.905-3.905,10.237,0,14.143c1.953,1.953,4.512,2.929,7.071,2.929c2.559,0,5.118-0.977,7.071-2.929l98.216-98.215    l62.224,62.224l-17.533,17.533c-3.905,3.905-3.905,10.237,0,14.143c1.953,1.952,4.512,2.929,7.071,2.929s5.118-0.977,7.071-2.929    l17.533-17.533l0.001,0.001c5.068,5.068,11.726,7.602,18.384,7.602c6.657,0,13.315-2.534,18.385-7.602l62.225-62.227    c4.898-4.897,7.597-11.427,7.597-18.385c0-6.957-2.697-13.486-7.596-18.385L200.14,221.353z M139.329,330.248l38.184-38.184    c2.298-2.299,6.185-2.3,8.484,0l33.941,33.941c1.121,1.12,1.738,2.627,1.738,4.242s-0.617,3.122-1.738,4.242l-38.184,38.185    L139.329,330.248z M276.507,334.489l-62.225,62.227c-2.302,2.299-6.188,2.298-8.485,0l-9.899-9.899l38.184-38.185    c10.137-10.138,10.137-26.632,0-36.77l-33.942-33.941c-10.138-10.137-26.633-10.137-36.769,0l-38.184,38.184l-9.9-9.9    c-1.12-1.121-1.737-2.627-1.737-4.242s0.617-3.121,1.738-4.242l62.226-62.226c1.149-1.15,2.696-1.725,4.242-1.725    s3.093,0.574,4.242,1.725l90.51,90.51c1.121,1.121,1.738,2.627,1.738,4.242S277.628,333.369,276.507,334.489z"/>
		<path d="M103.41,470.816l-24.113,24.114c-3.905,3.905-3.905,10.237,0,14.143c1.953,1.952,4.512,2.929,7.071,2.929    s5.119-0.977,7.071-2.929l24.113-24.114c3.905-3.905,3.905-10.237,0-14.143C113.647,466.912,107.315,466.912,103.41,470.816z"/>
		<path d="M401.277,44.359c2.56,0,5.118-0.977,7.071-2.929l24.358-24.359c3.905-3.905,3.905-10.237,0-14.143    c-3.906-3.904-10.236-3.904-14.143,0l-24.358,24.359c-3.905,3.905-3.905,10.237,0,14.143    C396.158,43.383,398.717,44.359,401.277,44.359z"/>
		<path d="M509.073,79.296c-3.906-3.904-10.236-3.904-14.143,0l-98.214,98.215l-62.225-62.225l17.287-17.287    c3.905-3.905,3.905-10.237,0-14.143c-3.906-3.904-10.238-3.904-14.143,0L320.293,101.2c-10.986-9.53-27.687-9.083-38.129,1.358    l-16.971,16.972c-10.917,10.917-10.917,28.681,0,39.598l1.414,1.414l-24.04,24.041c-4.898,4.897-7.597,11.427-7.597,18.385    s2.698,13.487,7.596,18.385l48.084,48.084c4.898,4.898,11.428,7.596,18.386,7.596c6.957-0.001,13.485-2.698,18.384-7.596    l24.041-24.041l1.414,1.414c5.274,5.274,12.306,8.179,19.799,8.179s14.524-2.904,19.799-8.179l16.972-16.972    c10.44-10.441,10.888-27.139,1.358-38.127l98.271-98.271C512.979,89.533,512.979,83.201,509.073,79.296z M313.278,255.293    c-2.299,2.301-6.186,2.301-8.484,0l-48.085-48.084c-1.12-1.121-1.737-2.627-1.737-4.242s0.617-3.121,1.738-4.242l24.041-24.041    l21.213,21.213l-5.833,5.833c-3.905,3.905-3.905,10.237,0,14.143c1.953,1.952,4.512,2.929,7.071,2.929s5.118-0.977,7.071-2.929    l5.833-5.833l21.213,21.213L313.278,255.293z M395.302,215.695l-16.972,16.971c-3.119,3.119-8.193,3.119-11.313,0l-87.682-87.682    c-1.497-1.497-2.321-3.506-2.321-5.656c0-2.151,0.824-4.159,2.321-5.656l16.97-16.972c1.561-1.56,3.609-2.339,5.658-2.339    s4.097,0.779,5.656,2.339l5.647,5.647c0.003,0.003,0.006,0.007,0.01,0.011s0.007,0.006,0.011,0.01l82.014,82.013    C398.421,207.501,398.421,212.576,395.302,215.695z"/>
		<path d="M366.593,70.323c1.869,1.557,4.138,2.316,6.395,2.316c2.867,0,5.714-1.227,7.692-3.601    c3.535-4.242,2.962-10.548-1.281-14.084c-4.24-3.533-10.545-2.962-14.084,1.281l-0.005,0.006    C361.775,60.484,362.351,66.787,366.593,70.323z"/>
		<path d="M131.695,442.532l-0.005,0.005c-3.905,3.905-3.902,10.234,0.003,14.14c1.952,1.952,4.511,2.928,7.069,2.928    c2.561,0,5.122-0.977,7.075-2.93c3.905-3.905,3.905-10.237,0-14.143C141.931,438.628,135.601,438.628,131.695,442.532z"/>
	</g>
</g>















</svg>
