<?xml version="1.0" encoding="iso-8859-1"?>
<!-- Generator: Adobe Illustrator 21.0.0, SVG Export Plug-In . SVG Version: 6.00 Build 0)  -->
<svg xmlns="http://www.w3.org/2000/svg" xmlns:xlink="http://www.w3.org/1999/xlink" version="1.1" id="Capa_1" x="0px" y="0px" viewBox="0 0 512.021 512.021" style="enable-background:new 0 0 512.021 512.021;" xml:space="preserve" width="512" height="512">
<g>
	<g>
		<path style="fill-rule:evenodd;clip-rule:evenodd;fill:#64759D;" d="M203.191,492.668l73.539-73.539    c24.89-24.89,24.89-65.619,0-90.509l-32.527-32.527l-28.284-28.284l-32.527-32.527c-24.891-24.89-65.619-24.89-90.509,0    L19.343,308.82c-12.445,12.445-12.445,32.809,0,45.255l138.594,138.593C170.382,505.113,190.746,505.113,203.191,492.668    L203.191,492.668z M187.635,409.229c7.778,7.778,7.779,20.506,0,28.284c-7.778,7.778-20.506,7.778-28.284,0L74.498,352.66    c-7.778-7.778-7.778-20.506,0-28.284c7.778-7.778,20.506-7.778,28.284,0L187.635,409.229z"/>
		<path style="fill-rule:evenodd;clip-rule:evenodd;fill:#C2C2C2;" d="M244.203,296.092l54.124-54.124    c7.777-7.777,7.778-20.506,0-28.284c-7.779-7.778-20.506-7.778-28.284,0l-54.124,54.124L244.203,296.092z"/>
		<path style="fill-rule:evenodd;clip-rule:evenodd;fill:#EBEBEB;" d="M298.327,241.968l-54.124,54.124l32.527,32.527    l110.694-110.694l0-45.194l38.809-38.81h28.924l46.854-46.854l0-55.04L479.983,10l-55.04,0l-46.854,46.854v28.924l-38.81,38.809    l-45.194,0l-14.143,14.143l-96.551,96.551l32.527,32.527l54.124-54.124c7.778-7.778,20.506-7.778,28.284,0    C306.105,221.462,306.104,234.191,298.327,241.968z"/>
	</g>
	<g>
		<path d="M67.427,317.305c-11.697,11.697-11.697,30.729,0,42.427l84.853,84.854c5.65,5.65,13.184,8.763,21.213,8.763    c8.029,0,15.563-3.112,21.213-8.763c11.697-11.698,11.697-30.73,0-42.428l-84.853-84.853    C98.156,305.607,79.124,305.607,67.427,317.305z M180.563,430.442c-1.873,1.873-4.384,2.905-7.071,2.905    c-2.687,0-5.197-1.032-7.07-2.905l-84.853-84.854c-3.899-3.898-3.899-10.243,0-14.142c1.949-1.949,4.51-2.925,7.071-2.925    s5.122,0.976,7.071,2.925l84.853,84.853C184.463,420.198,184.463,426.543,180.563,430.442z"/>
		<path d="M509.082,24.957L487.053,2.929C485.178,1.054,482.635,0,479.983,0h-55.04c-2.652,0-5.196,1.054-7.071,2.929    l-46.854,46.854c-1.875,1.876-2.929,4.419-2.929,7.071v24.783l-32.952,32.951l-41.051-0.001c-2.652,0-5.196,1.054-7.071,2.929    l-34.134,34.134c-3.905,3.905-3.905,10.237,0,14.143c3.906,3.905,10.238,3.905,14.142,0l12.92-12.92l3.717,3.717    c3.905,3.907,10.237,3.906,14.142,0.001s3.906-10.236,0-14.142l-3.718-3.719l4.143-4.143l41.051,0.001    c2.652,0,5.196-1.054,7.071-2.929l38.81-38.81c1.875-1.876,2.929-4.419,2.929-7.071V60.996l2.82-2.82l3.355,3.355    c1.953,1.952,4.512,2.929,7.071,2.929s5.119-0.977,7.071-2.929c3.905-3.905,3.905-10.237,0-14.143l-3.355-3.355l7.071-7.071    l3.355,3.355c1.953,1.952,4.512,2.929,7.071,2.929s5.119-0.977,7.071-2.929c3.905-3.905,3.905-10.237,0-14.143l-3.355-3.355    l2.82-2.82h46.756l16.17,16.17v46.756l-2.82,2.821l-3.355-3.355c-3.905-3.904-10.237-3.904-14.142,0    c-3.905,3.905-3.905,10.237,0,14.143l3.354,3.354l-7.072,7.072l-3.355-3.355c-3.905-3.904-10.237-3.904-14.142,0    c-3.905,3.905-3.905,10.237,0,14.143l3.355,3.354l-2.819,2.819h-24.782c-2.652,0-5.196,1.054-7.071,2.929l-38.81,38.81    c-1.875,1.876-2.929,4.419-2.929,7.071l0,41.053l-4.142,4.142l-3.718-3.718c-3.905-3.904-10.237-3.904-14.143,0    c-3.905,3.905-3.905,10.237,0,14.143l3.718,3.718l-82.409,82.408l-18.385-18.385l47.052-47.053    c11.697-11.697,11.697-30.729,0-42.427c-5.651-5.65-13.185-8.763-21.213-8.763s-15.563,3.112-21.213,8.763l-47.052,47.053    l-18.384-18.385l12.919-12.92c3.905-3.906,3.905-10.237,0-14.143c-3.905-3.904-10.237-3.904-14.142,0l-13.41,13.411    c-28.983-22.053-70.635-19.872-97.09,6.58l-73.539,73.54C4.365,309.656,0.01,320.203,0.01,331.447    c0,11.243,4.354,21.79,12.262,29.698l138.594,138.594c8.188,8.188,18.941,12.281,29.698,12.281    c10.754,0,21.511-4.095,29.698-12.281c3.905-3.905,3.906-10.236,0-14.143c-3.904-3.903-10.236-3.904-14.142,0    c-8.578,8.576-22.535,8.577-31.112,0L26.414,347.003c-4.13-4.13-6.405-9.654-6.405-15.556s2.274-11.426,6.405-15.556l73.539-73.54    c21.053-21.053,55.306-21.054,76.361-0.006c0.002,0.002,0.004,0.005,0.006,0.007c0.003,0.003,0.007,0.006,0.01,0.009    l32.514,32.514c0.001,0.001,0.002,0.002,0.003,0.003s0.002,0.002,0.003,0.003l28.279,28.28c0.001,0,0.001,0.001,0.002,0.002    l0.002,0.001l32.526,32.526c10.149,10.148,15.739,23.709,15.739,38.183c0,14.475-5.589,28.034-15.739,38.184l-16.971,16.972    c-3.905,3.905-3.905,10.237,0,14.143c3.905,3.904,10.237,3.904,14.142,0l16.97-16.972c13.927-13.927,21.597-32.51,21.597-52.326    c0-16.421-5.282-31.987-15.013-44.767l104.109-104.109c1.875-1.876,2.929-4.419,2.929-7.071l0-41.053l32.952-32.951h24.782    c2.652,0,5.196-1.054,7.071-2.929l46.854-46.854c1.875-1.876,2.929-4.419,2.929-7.071v-55.04    C512.011,29.376,510.957,26.833,509.082,24.957z M277.114,220.755c3.898-3.898,10.243-3.898,14.142,0    c3.899,3.898,3.899,10.243,0,14.142l-47.052,47.053l-14.142-14.142L277.114,220.755z"/>
		<path d="M231.667,197.007c2.401,0,4.811-0.859,6.727-2.602c4.086-3.715,4.388-10.039,0.673-14.126    c-3.716-4.087-10.04-4.387-14.126-0.673l-0.005,0.005c-4.086,3.715-4.385,10.037-0.67,14.124    C226.239,195.905,228.948,197.007,231.667,197.007z"/>
		<path d="M237.883,456.695c-4.243-3.535-10.548-2.962-14.084,1.281l-0.005,0.006c-3.536,4.242-2.96,10.545,1.283,14.081    c1.869,1.557,4.138,2.316,6.395,2.316c2.867,0,5.714-1.227,7.692-3.601C242.698,466.537,242.125,460.231,237.883,456.695z"/>
	</g>
</g>















</svg>
