<?xml version="1.0" encoding="iso-8859-1"?>
<!-- Generator: Adobe Illustrator 21.0.0, SVG Export Plug-In . SVG Version: 6.00 Build 0)  -->
<svg xmlns="http://www.w3.org/2000/svg" xmlns:xlink="http://www.w3.org/1999/xlink" version="1.1" id="Capa_1" x="0px" y="0px" viewBox="0 0 512.002 512.002" style="enable-background:new 0 0 512.002 512.002;" xml:space="preserve" width="512" height="512">
<g>
	<g>
		<path style="fill-rule:evenodd;clip-rule:evenodd;fill:#EBEBEB;" d="M179.813,82.001h152.377h7.812c8.799,0,16-7.2,16-16V50    c0-8.8-7.2-16-16-16h-60c0-13.255-10.745-24-24-24c-13.255,0-24,10.745-24,24h-60c-8.8,0-16,7.2-16,16v16c0,8.8,7.2,16,16,16    H179.813z"/>
		<path style="fill-rule:evenodd;clip-rule:evenodd;fill:#6A87C1;" d="M172.001,82.001c-8.8,0-16-7.2-16-16V50h-64    c-8.8,0-16,7.199-16,16v420.002c0,8.8,7.2,16,16,16h328c8.8,0,16-7.199,16-16V66c0-8.8-7.2-16-16-16h-64v16c0,8.8-7.2,16-16,16    h-7.812v8h63.812v372.002h-280V90h63.812v-8H172.001z"/>
		<path style="fill-rule:evenodd;clip-rule:evenodd;fill:#FFF0D9;" d="M179.813,82.001v8v16.763c0,8.381,6.858,15.238,15.238,15.238    h121.901c8.38,0,15.238-6.858,15.238-15.238V90v-8H179.813z"/>
		<path style="fill-rule:evenodd;clip-rule:evenodd;fill:#FFF0D9;" d="M195.051,122.001c-8.38,0-15.238-6.857-15.238-15.238V90    h-63.812v372.002h280V90h-63.812v16.763c0,8.38-6.858,15.238-15.238,15.238H195.051z"/>
		<path style="fill-rule:evenodd;clip-rule:evenodd;fill:#FD4848;" d="M281.86,221.861c7.809-7.809,20.472-7.809,28.281,0    c7.809,7.809,7.809,20.472,0,28.281l-25.859,25.859l25.859,25.86c7.809,7.81,7.809,20.472,0,28.281    c-7.809,7.809-20.472,7.809-28.281,0l-25.859-25.859l-25.859,25.859c-7.809,7.809-20.472,7.809-28.281,0    c-7.81-7.81-7.81-20.472,0-28.281l25.859-25.86l-25.859-25.859c-7.81-7.809-7.81-20.472,0-28.281    c7.809-7.809,20.472-7.809,28.281,0l25.859,25.859L281.86,221.861z"/>
	</g>
	<g>
		<path d="M420.001,40h-56.003c-3.926-9.386-13.203-15.999-23.997-15.999h-51.5C284.221,10.117,271.271,0,256.001,0    s-28.22,10.117-32.5,24.001h-51.5c-10.794,0-20.07,6.613-23.997,15.999H92.001c-14.336,0-26,11.663-26,26v420.002    c0,14.337,11.664,26,26,26h224c5.523,0,10-4.478,10-10s-4.477-10-10-10h-224c-3.252,0-6-2.748-6-6V66c0-3.252,2.748-6,6-6h54    v6.001c0,5.151,1.508,9.955,4.102,13.999h-34.102c-5.523,0-10,4.478-10,10v372.002c0,5.522,4.477,10,10,10h280    c5.523,0,10-4.478,10-10V90c0-5.522-4.477-10-10-10h-34.102c2.594-4.044,4.102-8.848,4.102-13.999V60h54c3.252,0,6,2.748,6,6    v420.002c0,3.252-2.748,6-6,6h-24c-5.523,0-10,4.478-10,10s4.477,10,10,10h24c14.336,0,26-11.663,26-26V66    C446.001,51.663,434.337,40,420.001,40z M172.001,44.001h60c5.523,0,10-4.478,10-10c0-7.72,6.28-14.001,14-14.001    s14,6.281,14,14.001c0,5.522,4.477,10,10,10h60c3.252,0,6,2.747,6,5.999v16.001c0,3.252-2.748,6-6,6h-80.188    c-5.523,0-10,4.478-10,10s4.477,10,10,10h62.376v14.762c0,2.84-2.398,5.238-5.238,5.238H195.05c-2.839,0-5.238-2.398-5.238-5.238    V82.001c0-5.522-4.477-10-10-10h-7.812c-3.252,0-6-2.748-6-6V50C166.001,46.748,168.749,44.001,172.001,44.001z M386.001,452.002    h-260V100h43.812v6.763c0,13.916,11.322,25.238,25.238,25.238h121.901c13.916,0,25.238-11.322,25.238-25.238V100h43.812V452.002z"/>
		<path d="M219.816,92.001c5.523,0,10-4.478,10-10s-4.477-10-10-10h-0.007c-5.523,0-9.996,4.478-9.996,10    S214.293,92.001,219.816,92.001z"/>
		<path d="M356.004,492.002h-0.007c-5.523,0-9.996,4.478-9.996,10s4.48,10,10.003,10s10-4.478,10-10    S361.527,492.002,356.004,492.002z"/>
		<path d="M298.424,276.001l18.789-18.788c11.695-11.696,11.695-30.728,0-42.424c-11.696-11.695-30.727-11.696-42.423,0    l-18.788,18.788l-18.788-18.788c-5.666-5.665-13.199-8.786-21.211-8.786s-15.546,3.121-21.211,8.786    c-5.666,5.666-8.786,13.199-8.786,21.212s3.12,15.546,8.786,21.212l18.788,18.788l-18.788,18.788    c-11.696,11.696-11.696,30.728,0,42.424c5.666,5.665,13.199,8.786,21.211,8.786c8.013,0,15.546-3.121,21.211-8.786l18.789-18.789    l18.789,18.789c11.695,11.695,30.728,11.695,42.423,0c11.696-11.696,11.696-30.728,0-42.424L298.424,276.001z M303.071,323.07    c-3.898,3.898-10.241,3.898-14.14,0l-25.859-25.859c-3.905-3.904-10.236-3.904-14.142,0l-25.86,25.86    c-1.888,1.888-4.398,2.928-7.069,2.928c-2.67,0-5.181-1.04-7.07-2.929c-3.898-3.897-3.898-10.241,0-14.139l25.859-25.859    c3.905-3.905,3.905-10.237,0-14.143l-25.859-25.859c-3.898-3.897-3.898-10.241,0-14.139c1.95-1.949,4.509-2.924,7.07-2.924    c2.56,0,5.121,0.975,7.07,2.924l25.858,25.859c1.875,1.875,4.419,2.929,7.071,2.929s5.196-1.054,7.071-2.929l25.858-25.859    c3.899-3.899,10.242-3.898,14.14-0.001c3.898,3.898,3.898,10.242,0,14.14l-25.859,25.859c-3.905,3.905-3.905,10.237,0,14.143    l25.859,25.859C306.969,312.829,306.969,319.173,303.071,323.07z"/>
	</g>
</g>















</svg>
