<?xml version="1.0" encoding="iso-8859-1"?>
<!-- Generator: Adobe Illustrator 21.0.0, SVG Export Plug-In . SVG Version: 6.00 Build 0)  -->
<svg xmlns="http://www.w3.org/2000/svg" xmlns:xlink="http://www.w3.org/1999/xlink" version="1.1" id="Capa_1" x="0px" y="0px" viewBox="0 0 512.002 512.002" style="enable-background:new 0 0 512.002 512.002;" xml:space="preserve" width="512" height="512">
<g>
	<g>
		<circle style="fill-rule:evenodd;clip-rule:evenodd;fill:#FD4848;" cx="256.001" cy="214" r="55"/>
		<circle style="fill-rule:evenodd;clip-rule:evenodd;fill:#FFBA4A;" cx="256.001" cy="367.001" r="55"/>
		<polygon style="fill-rule:evenodd;clip-rule:evenodd;fill:#64759D;" points="366.001,312.001 366.001,422.001 406,422.001     436.001,312.001   "/>
		<polygon style="fill-rule:evenodd;clip-rule:evenodd;fill:#64759D;" points="366.001,269 406,269 436.001,159 366.001,159   "/>
		<polygon style="fill-rule:evenodd;clip-rule:evenodd;fill:#64759D;" points="146.001,269 146.001,159 76.001,159 106.003,269       "/>
		<polygon style="fill-rule:evenodd;clip-rule:evenodd;fill:#64759D;" points="146.001,312.001 76.001,312.001 106.003,422.001     146.001,422.001   "/>
		<path style="fill-rule:evenodd;clip-rule:evenodd;fill:#6A87C1;" d="M256.001,159c30.376,0,55,24.624,55,55    c0,30.376-24.624,55-55,55c-30.376,0-55-24.624-55-55C201.001,183.625,225.625,159,256.001,159L256.001,159z M146.001,159v110v43    v110v22.001c0,8.8,7.201,16,16,16h11.034h165.933h11.034c8.8,0,16-7.201,16-16v-22.001v-110v-43V159v-22.001c0-8.799-7.2-16-16-16    h-11.034H173.035h-11.034c-8.8,0-16,7.2-16,16V159L146.001,159z M256.001,312.001c30.376,0,55,24.624,55,55    c0,30.376-24.624,55-55,55c-30.376,0-55-24.624-55-55C201.001,336.625,225.625,312.001,256.001,312.001z"/>
		<path style="fill-rule:evenodd;clip-rule:evenodd;fill:#64759D;" d="M173.035,121h165.933v-26c0-8.8-7.2-16-16-16h-42.966h-48    h-42.966c-8.8,0-16,7.2-16,16V121z"/>
		<path style="fill-rule:evenodd;clip-rule:evenodd;fill:#64759D;" d="M338.967,460.001H173.035v26c0,8.8,7.2,16,16,16h133.933    c8.8,0,16-7.2,16-16V460.001z"/>
		<rect x="232.001" y="10" style="fill-rule:evenodd;clip-rule:evenodd;fill:#6A87C1;" width="48" height="68.999"/>
	</g>
	<g>
		<path d="M256.001,302c-35.841,0-65,29.159-65,65s29.159,65,65,65c35.841,0,65-29.159,65-65S291.842,302,256.001,302z M256.001,412    c-24.813,0-45-20.187-45-45s20.187-45,45-45c24.813,0,45,20.187,45,45S280.814,412,256.001,412z"/>
		<path d="M256.001,149c-35.841,0-65,29.159-65,65s29.159,65,65,65c35.841,0,65-29.159,65-65S291.842,149,256.001,149z M256.001,259    c-24.813,0-45-20.187-45-45s20.187-45,45-45c24.813,0,45,20.187,45,45S280.814,259,256.001,259z"/>
		<path d="M436,302.001h-59.999V279H406c4.51,0,8.461-3.019,9.647-7.369l30.001-110c0.82-3.007,0.191-6.224-1.7-8.701    c-1.892-2.477-4.83-3.93-7.947-3.93h-59.999v-12.001C376.001,122.663,364.337,111,350,111h-1.033V94.999c0-14.337-11.663-26-26-26    h-32.966V10c0-5.522-4.478-10-10-10s-10,4.478-10,10v58.999h-28V10c0-5.522-4.477-10-10-10s-10,4.478-10,10v58.999h-32.966    c-14.336,0-26,11.663-26,26V111h-1.034c-14.336,0-26,11.663-26,25.999V149c0,0,0,0,0,0H76.001c-3.117,0-6.055,1.453-7.947,3.93    c-1.892,2.478-2.521,5.694-1.7,8.701l30.001,110c1.187,4.351,5.138,7.369,9.647,7.369H136c0,0,0,0,0,0v23.001c0,0,0,0,0,0H76.001    c-3.117,0-6.055,1.453-7.947,3.93c-1.892,2.478-2.521,5.694-1.7,8.701l30.001,110c1.187,4.351,5.138,7.369,9.647,7.369H136    c0,0,0,0,0,0v12.001c0,14.336,11.664,25.999,26,25.999h1.034v16.001c0,14.337,11.664,26,26,26h133.933c14.337,0,26-11.663,26-26    v-16.001H350c14.337,0,26.001-11.663,26.001-25.999v-12.001H406c4.51,0,8.461-3.019,9.647-7.369l30.001-110    c0.82-3.007,0.191-6.224-1.7-8.701C442.056,303.454,439.118,302.001,436,302.001z M422.908,169l-24.546,90h-22.36v-90H422.908z     M136,259h-22.36l-24.546-90H136c0,0,0,0,0,0L136,259C136.001,259,136.001,259,136,259z M136,412.001h-22.36l-24.546-90H136    c0,0,0,0,0,0L136,412.001C136.001,412.001,136.001,412.001,136,412.001z M356.001,444.002c0,3.252-2.748,5.999-6.001,5.999    h-21.033c-5.522,0-10,4.478-10,10s4.478,10,10,10v16.001c0,3.252-2.748,6-6,6H189.035c-3.252,0-6-2.748-6-6v-16.001h65.932    c5.523,0,10-4.478,10-10s-4.477-10-10-10h-86.965c-3.252,0-6-2.747-6-5.999V136.999c0-3.252,2.748-5.999,6-5.999h21.034    c5.523,0,10-4.478,10-10s-4.477-10-10-10l0-16.001c0-3.252,2.748-6,6-6h133.933c3.252,0,6,2.748,6,6V111h-65.932    c-5.522,0-10,4.478-10,10s4.478,10,10,10H350c3.253,0,6.001,2.747,6.001,5.999V444.002z M398.362,412.001h-22.36v-90h46.906    L398.362,412.001z"/>
		<path d="M223.039,131c5.523,0,10-4.478,10-10s-4.477-10-10-10h-0.007c-5.523,0-9.996,4.478-9.996,10S217.516,131,223.039,131z"/>
		<path d="M288.97,450.001h-0.008c-5.522,0-9.996,4.478-9.996,10s4.481,10,10.004,10s10-4.478,10-10S294.493,450.001,288.97,450.001    z"/>
	</g>
</g>















</svg>
