<?xml version="1.0" encoding="iso-8859-1"?>
<!-- Generator: Adobe Illustrator 21.0.0, SVG Export Plug-In . SVG Version: 6.00 Build 0)  -->
<svg xmlns="http://www.w3.org/2000/svg" xmlns:xlink="http://www.w3.org/1999/xlink" version="1.1" id="Capa_1" x="0px" y="0px" viewBox="0 0 512 512" style="enable-background:new 0 0 512 512;" xml:space="preserve" width="512" height="512">
<g>
	<g>
		<path style="fill-rule:evenodd;clip-rule:evenodd;fill:#FF836C;" d="M256,10C120.138,10,10,120.138,10,256s110.138,246,246,246    s246-110.138,246-246S391.862,10,256,10L256,10z M256,50c113.771,0,206,92.229,206,206s-92.229,206-206,206s-206-92.229-206-206    S142.23,50,256,50z"/>
		<circle style="fill-rule:evenodd;clip-rule:evenodd;fill:#FFF0D9;" cx="256" cy="255.999" r="206"/>
		<path style="fill-rule:evenodd;clip-rule:evenodd;fill:#64759D;" d="M183.546,198.649v200.529h56.151V198.649l60.459,0    l0.015,22.953c-0.001,5.801,6.965,8.902,11.263,4.905l54.848-50.994c2.898-2.691,2.886-7.194,0.037-9.844l-54.563-50.73    c-4.616-4.584-11.6-1.123-11.6,4.605v22.953h-88.535c-15.441,0-28.075,12.634-28.075,28.075V198.649z"/>
	</g>
	<g>
		<path d="M437.02,74.98C388.668,26.629,324.38,0,256,0c-53.903,0-105.47,16.565-149.127,47.904    c-4.486,3.221-5.513,9.469-2.292,13.956c3.221,4.485,9.468,5.512,13.956,2.292C158.773,35.268,206.308,20,256,20    c130.131,0,236,105.869,236,236S386.131,492,256,492S20,386.131,20,256c0-49.635,15.233-97.121,44.053-137.325    c3.217-4.489,2.187-10.736-2.302-13.954c-4.49-3.217-10.736-2.186-13.954,2.302C16.528,150.645,0,202.16,0,256    c0,68.38,26.629,132.667,74.98,181.02C123.333,485.371,187.62,512,256,512s132.667-26.629,181.02-74.98    C485.371,388.667,512,324.38,512,256S485.371,123.332,437.02,74.98z"/>
		<path d="M421.692,378.821c4.589,3.074,10.8,1.848,13.874-2.741C459.401,340.506,472,298.982,472,255.999    c0-57.695-22.468-111.938-63.265-152.734C367.938,62.468,313.695,40,256,40s-111.938,22.468-152.734,63.265    s-63.265,95.039-63.265,152.734s22.468,111.938,63.265,152.735c40.797,40.797,95.039,63.265,152.734,63.265    c42.977,0,84.492-12.593,120.06-36.418c4.589-3.074,5.816-9.285,2.743-13.874c-3.074-4.589-9.284-5.816-13.874-2.743    c-32.263,21.612-69.93,33.035-108.929,33.035c-108.074,0-195.999-87.925-195.999-196C60.001,147.925,147.926,60,256,60    c108.075,0,196,87.925,196,195.999c0,39.005-11.428,76.679-33.049,108.948C415.877,369.536,417.104,375.747,421.692,378.821z"/>
		<path d="M82.054,92.047c2.561,0,5.122-0.977,7.075-2.93c3.905-3.905,3.905-10.237,0-14.143c-3.906-3.904-10.236-3.904-14.143,0    L74.98,74.98c-3.905,3.905-3.902,10.234,0.003,14.14C76.936,91.071,79.494,92.047,82.054,92.047z"/>
		<path d="M394.598,394.587l-0.005,0.005c-3.905,3.905-3.902,10.234,0.003,14.14c1.952,1.952,4.511,2.928,7.069,2.928    c2.561,0,5.122-0.977,7.075-2.93c3.905-3.905,3.905-10.237,0-14.143C404.834,390.683,398.504,390.683,394.598,394.587z"/>
		<path d="M300.478,104.103c-6.27,2.609-10.321,8.671-10.321,15.442v12.953h-78.535c-20.995,0-38.075,17.08-38.075,38.075v228.604    c0,5.522,4.478,10,10,10h56.151c5.522,0,10-4.478,10-10V208.649h40.466l0.009,12.951c-0.001,6.638,3.941,12.646,10.043,15.304    c6.091,2.653,13.169,1.447,18.028-3.074l54.842-50.988c3.411-3.166,5.368-7.637,5.371-12.268    c0.003-4.619-1.938-9.075-5.328-12.229l-54.463-50.637C313.697,102.877,306.746,101.492,300.478,104.103z M310.167,214.031    l-0.011-15.389c-0.004-5.521-4.479-9.993-10-9.993h-60.459c-5.522,0-10,4.478-10,10v190.528h-36.151V170.573    c0-9.967,8.108-18.075,18.075-18.075h88.535c5.522,0,10-4.478,10-10v-15.392l46.752,43.467L310.167,214.031z"/>
	</g>
</g>















</svg>
