<?xml version="1.0" encoding="iso-8859-1"?>
<!-- Generator: Adobe Illustrator 21.0.0, SVG Export Plug-In . SVG Version: 6.00 Build 0)  -->
<svg xmlns="http://www.w3.org/2000/svg" xmlns:xlink="http://www.w3.org/1999/xlink" version="1.1" id="Capa_1" x="0px" y="0px" viewBox="0 0 512 512" style="enable-background:new 0 0 512 512;" xml:space="preserve" width="512" height="512">
<g>
	<g>
		<path style="fill-rule:evenodd;clip-rule:evenodd;fill:#FD4848;" d="M412.527,145.459l37.061,37.061l37.061-37.061    c20.468-20.468,20.468-53.654,0-74.122c-20.468-20.468-53.654-20.468-74.122,0c-6.752,6.752-11.276,14.887-13.572,23.494    C394.286,112.314,398.811,131.742,412.527,145.459z"/>
		<path style="fill-rule:evenodd;clip-rule:evenodd;fill:#EBEBEB;" d="M449.588,182.519l-37.061-37.061    c-13.716-13.717-18.241-33.144-13.572-50.628l-95.896-25.695v347.588l146.529,39.262V182.519z"/>
		<polygon style="fill-rule:evenodd;clip-rule:evenodd;fill:#C2C2C2;" points="303.059,416.723 303.059,69.135 156.529,108.397     156.529,455.985   "/>
		<polygon style="fill-rule:evenodd;clip-rule:evenodd;fill:#EBEBEB;" points="156.529,455.985 156.529,108.397 10,69.135     10,416.723   "/>
	</g>
	<g>
		<path d="M512,108.398c0-16.671-6.492-32.345-18.28-44.133c-24.334-24.334-63.93-24.334-88.264,0    c-5.44,5.44-9.735,11.714-12.802,18.524l-87.007-23.313c-1.695-0.455-3.48-0.455-5.176,0L156.529,98.045l-32.032-8.584    c-5.337-1.431-10.818,1.737-12.248,7.071s1.736,10.817,7.071,12.247l27.209,7.291v326.883L20,409.05V82.167l22.047,5.907    c5.34,1.433,10.817-1.736,12.247-7.071c1.43-5.334-1.736-10.817-7.071-12.247l-34.635-9.28c-3.002-0.805-6.209-0.168-8.676,1.726    C1.446,63.094,0,66.027,0,69.135v347.588c0,4.526,3.04,8.488,7.412,9.659l146.529,39.263c0.848,0.228,1.718,0.341,2.588,0.341    s1.74-0.113,2.588-0.341l143.941-38.569l32.039,8.585c5.341,1.433,10.818-1.736,12.247-7.071    c1.43-5.334-1.736-10.817-7.071-12.247l-27.215-7.292V82.167l74.43,19.944c-0.206,2.076-0.313,4.173-0.313,6.287    c0,16.671,6.492,32.344,18.28,44.132l34.132,34.132v256.292l-22.039-5.906c-5.338-1.43-10.818,1.737-12.248,7.071    s1.736,10.817,7.071,12.247l34.627,9.279c0.854,0.229,1.724,0.341,2.589,0.341c2.178,0,4.322-0.712,6.088-2.066    c2.466-1.893,3.912-4.824,3.912-7.934V186.661l34.132-34.132C505.508,140.741,512,125.069,512,108.398z M293.059,409.05    l-126.529,33.904V116.071l126.529-33.904V409.05z M479.577,138.387l-29.989,29.989l-29.989-29.989    c-8.011-8.011-12.423-18.661-12.423-29.989c0-3.758,0.496-7.438,1.437-10.975c0-0.001,0.001-0.003,0.001-0.004    c0-0.001,0-0.002,0.001-0.003c1.897-7.123,5.632-13.656,10.984-19.008c8.268-8.269,19.129-12.402,29.989-12.402    s21.722,4.134,29.989,12.402C487.588,86.418,492,97.069,492,108.398C492,119.726,487.588,130.376,479.577,138.387z"/>
		<path d="M80.518,98.381l0.007,0.002c0.918,0.262,1.842,0.387,2.751,0.387c4.352,0,8.353-2.863,9.607-7.256    c1.518-5.311-1.561-10.846-6.871-12.363c-5.312-1.518-10.845,1.559-12.362,6.868C72.132,91.329,75.207,96.864,80.518,98.381z"/>
		<path d="M379.07,426.739c-5.311-1.519-10.845,1.559-12.362,6.868c-1.518,5.311,1.558,10.845,6.868,12.362l0.007,0.002    c0.918,0.262,1.842,0.387,2.751,0.387c4.352,0,8.353-2.863,9.607-7.256C387.459,433.791,384.381,428.256,379.07,426.739z"/>
	</g>
</g>















</svg>
