<?xml version="1.0" encoding="iso-8859-1"?>
<!-- Generator: Adobe Illustrator 21.0.0, SVG Export Plug-In . SVG Version: 6.00 Build 0)  -->
<svg xmlns="http://www.w3.org/2000/svg" xmlns:xlink="http://www.w3.org/1999/xlink" version="1.1" id="Capa_1" x="0px" y="0px" viewBox="0 0 512 512" style="enable-background:new 0 0 512 512;" xml:space="preserve" width="512" height="512">
<g>
	<g>
		<path style="fill-rule:evenodd;clip-rule:evenodd;fill:#FF836C;" d="M50,50h383.715l-81.681,81.681l-40.067,40.067l-77.035,77.035    l-55.754,55.754L50,433.715V50L50,50z M10,29.999v452c0,11,9,20,20,20h452c11,0,20-9,20-20v-452c0-11-9-20-20-20H30    C19,10,10,19,10,29.999L10,29.999z M371.689,168.595l-51.84,51.84L78.285,461.999H462V78.284L371.689,168.595z"/>
		<path style="fill-rule:evenodd;clip-rule:evenodd;fill:#FFF0D9;" d="M433.716,50H50v383.715l129.178-129.178l-41.06-44.163    c-4.584-4.616-1.124-11.6,4.605-11.6h22.954v-50.459c0-57.838,47.323-105.161,105.161-105.161    c32.606,0,61.869,15.041,81.197,38.526L433.716,50z"/>
		<path style="fill-rule:evenodd;clip-rule:evenodd;fill:#64759D;" d="M352.035,131.68c-19.328-23.485-48.59-38.526-81.197-38.526    c-57.838,0-105.161,47.323-105.161,105.161v50.459h-22.954c-5.729,0-9.189,6.984-4.605,11.6l41.06,44.163l55.754-55.754    l-13.104-0.009l0-50.459c0-26.955,22.055-49.01,49.01-49.01c17.183,0,32.372,8.963,41.129,22.443L352.035,131.68z"/>
		<path style="fill-rule:evenodd;clip-rule:evenodd;fill:#FFF0D9;" d="M311.968,171.748c-8.757-13.48-23.946-22.443-41.129-22.443    c-26.956,0-49.01,22.055-49.01,49.01l0,50.459l13.104,0.009L311.968,171.748z"/>
		<path style="fill-rule:evenodd;clip-rule:evenodd;fill:#64759D;" d="M371.689,168.595l-51.84,51.84v198.41H376v-220.53    C376,188.003,374.489,178.029,371.689,168.595z"/>
		<path style="fill-rule:evenodd;clip-rule:evenodd;fill:#FFF0D9;" d="M319.849,418.845v-198.41L78.285,461.999H462V78.284    l-90.311,90.311c2.8,9.434,4.311,19.408,4.311,29.72v220.53H319.849z"/>
	</g>
	<g>
		<path d="M433.716,40H50c-5.523,0-10,4.478-10,10v383.715c0,4.045,2.437,7.691,6.173,9.239c1.237,0.512,2.536,0.761,3.824,0.761    c2.603,0,5.161-1.016,7.074-2.929L318.978,178.88c0.012-0.012,0.024-0.024,0.036-0.036L440.787,57.071    c2.86-2.86,3.715-7.161,2.167-10.898C441.407,42.437,437.76,40,433.716,40z M312.737,156.836    c-10.986-11.133-25.961-17.532-41.899-17.532c-32.538,0-59.01,26.473-59.01,59.011l0,50.459c0,2.499,0.923,4.778,2.439,6.531    l-34.827,34.827l-29.155-31.358h15.392c5.523,0,10-4.478,10-10v-50.459c0-52.472,42.689-95.161,95.161-95.161    c25.443,0,49.545,10.173,67.405,28.176L312.737,156.836z M231.829,237.744l0-39.429c0-21.511,17.5-39.011,39.01-39.011    c10.553,0,20.471,4.269,27.749,11.682L231.829,237.744z M352.385,117.189c-21.596-21.746-50.752-34.035-81.546-34.035    c-63.5,0-115.161,51.661-115.161,115.161v40.459h-12.954c-6.771,0-12.832,4.051-15.442,10.319    c-2.609,6.269-1.227,13.22,3.604,18.188l34.403,37.002L60,409.572V60h349.574L352.385,117.189z"/>
		<path d="M431.999,451.999c-5.523,0-10,4.478-10,10s4.477,10,10,10H462c5.523,0,10-4.478,10-10V78.284    c0-4.045-2.437-7.691-6.173-9.239c-3.737-1.545-8.038-0.691-10.898,2.168l-90.285,90.285c-0.016,0.016-0.032,0.032-0.048,0.048    L71.214,454.928c-2.86,2.86-3.715,7.161-2.167,10.898c1.548,3.736,5.194,6.173,9.239,6.173h273.713c5.523,0,10-4.478,10-10    s-4.477-10-10-10H102.427l207.422-207.422v174.268c0,5.522,4.477,10,10,10H376c5.523,0,10-4.478,10-10V198.315    c0-9.021-1.078-17.979-3.174-26.715L452,102.427v349.572H431.999z M366,198.315v210.529h-36.151V224.577l35.672-35.672    C365.833,192.026,366,195.166,366,198.315z"/>
		<path d="M391.995,451.999c-5.523,0-9.996,4.478-9.996,10s4.48,10,10.003,10s10-4.478,10-10s-4.477-10-10-10H391.995z"/>
		<path d="M482,0H130.001c-5.523,0-10,4.478-10,10s4.477,10,10,10H482c5.514,0,10,4.486,10,10v452c0,5.514-4.486,10-10,10H30    c-5.514,0-10-4.486-10-10V30c0-5.514,4.486-10,10-10h20c5.523,0,10-4.478,10-10S55.523,0,50,0H30C13.458,0,0,13.458,0,30v452    c0,16.542,13.458,30,30,30h452c16.542,0,30-13.458,30-30V30C512,13.458,498.542,0,482,0z"/>
		<path d="M90.005,20c5.523,0,10-4.478,10-10s-4.477-10-10-10h-0.008c-5.523,0-9.996,4.478-9.996,10S84.482,20,90.005,20z"/>
	</g>
</g>















</svg>
