<?xml version="1.0" encoding="iso-8859-1"?>
<!-- Generator: Adobe Illustrator 21.0.0, SVG Export Plug-In . SVG Version: 6.00 Build 0)  -->
<svg xmlns="http://www.w3.org/2000/svg" xmlns:xlink="http://www.w3.org/1999/xlink" version="1.1" id="Capa_1" x="0px" y="0px" viewBox="0 0 512.002 512.002" style="enable-background:new 0 0 512.002 512.002;" xml:space="preserve" width="512" height="512">
<g>
	<g>
		<polygon style="fill-rule:evenodd;clip-rule:evenodd;fill:#FF6D2F;" points="307.09,55.002 364.911,55.002 353.497,10 318.505,10       "/>
		<polygon style="fill-rule:evenodd;clip-rule:evenodd;fill:#FFF0D9;" points="364.911,55.002 307.09,55.002 296.945,95.004     375.057,95.004   "/>
		<polygon style="fill-rule:evenodd;clip-rule:evenodd;fill:#FF6D2F;" points="375.057,95.004 296.945,95.004 282.489,151.999     389.512,151.999   "/>
		<polygon style="fill-rule:evenodd;clip-rule:evenodd;fill:#FFF0D9;" points="389.512,151.999 282.489,151.999 272.344,192     399.658,192   "/>
		<polygon style="fill-rule:evenodd;clip-rule:evenodd;fill:#FF6D2F;" points="399.658,192 272.344,192 243.175,307 428.826,307     419.949,272.001 409.803,232.001   "/>
		<polygon style="fill-rule:evenodd;clip-rule:evenodd;fill:#FFF0D9;" points="428.826,307 243.175,307 233.03,347.002     438.972,347.002   "/>
		<path style="fill-rule:evenodd;clip-rule:evenodd;fill:#FF6D2F;" d="M438.972,347.002H233.03h-37.029c-10.999,0-20,9-20,20v20h320    v-20c0-10.998-9.001-20-20-20H438.972z"/>
		<polygon style="fill-rule:evenodd;clip-rule:evenodd;fill:#FF6D2F;" points="147.091,170.003 204.911,170.003 193.497,125.001     158.505,125.001   "/>
		<polygon style="fill-rule:evenodd;clip-rule:evenodd;fill:#FFF0D9;" points="204.911,170.003 147.091,170.003 136.945,210.004     215.057,210.004   "/>
		<polygon style="fill-rule:evenodd;clip-rule:evenodd;fill:#FF6D2F;" points="215.057,210.004 136.945,210.004 122.49,266.999     229.512,266.999   "/>
		<polygon style="fill-rule:evenodd;clip-rule:evenodd;fill:#FFF0D9;" points="229.512,266.999 122.49,266.999 112.344,307     239.658,307   "/>
		<polygon style="fill-rule:evenodd;clip-rule:evenodd;fill:#FF6D2F;" points="239.658,307 112.344,307 83.175,422.001     268.827,422.001 259.95,387.002 249.804,347.002   "/>
		<polygon style="fill-rule:evenodd;clip-rule:evenodd;fill:#FFF0D9;" points="268.827,422.001 83.175,422.001 73.03,462.002     278.972,462.002   "/>
		<path style="fill-rule:evenodd;clip-rule:evenodd;fill:#FF6D2F;" d="M278.972,462.002H73.03H36.001c-10.999,0-20,9-20,20v20h320    v-20c0-10.998-9.001-20-20-20H278.972z"/>
	</g>
	<g>
		<path d="M476.001,337.002h-29.249L363.19,7.541C362.065,3.106,358.073,0,353.496,0h-34.992c-4.576,0-8.568,3.106-9.693,7.541    l-67.395,265.718L203.19,122.542c-1.125-4.435-5.117-7.541-9.693-7.541h-34.992c-4.576,0-8.568,3.106-9.693,7.541L65.25,452.002    H36.001c-16.542,0-30,13.458-30,30v20c0,5.522,4.477,10,10,10h320c5.523,0,10-4.478,10-10v-20c0-16.542-13.458-30-30-30h-29.249    l-13.95-55h223.198c5.523,0,10-4.478,10-10v-20C506.001,350.46,492.543,337.002,476.001,337.002z M120.124,317h111.754    l24.096,95.001H96.029L120.124,317z M130.27,276.999h91.462L226.805,297H125.197L130.27,276.999z M144.726,220.004h62.551    l9.383,36.995h-81.317L144.726,220.004z M154.871,180.003h42.259l5.073,20.001h-52.405L154.871,180.003z M280.123,202h111.754    l24.095,95H256.028L280.123,202z M290.269,161.999h2.756c5.523,0,10-4.478,10-10c0-4.748-3.312-8.714-7.75-9.736l9.45-37.259    h62.551l9.383,36.995h-3.634c-5.523,0-10,4.478-10,10s4.477,10,10,10h8.706L386.805,182H285.196L290.269,161.999z M314.871,65.002    h42.259l5.073,20.002h-52.406L314.871,65.002z M252.511,317h168.534l5.073,20.002H257.584L252.511,317z M345.716,20l6.341,25.002    h-32.114L326.285,20H345.716z M185.717,135.001l6.341,25.002h-32.114l6.341-25.002H185.717z M326.001,482.002v10h-300v-10    c0-5.514,4.486-10,10-10h152.963c5.523,0,10-4.478,10-10s-4.477-10-10-10H85.883l5.073-20.001h170.09l5.172,20.392    c-4.186,1.195-7.254,5.04-7.254,9.609c0,5.522,4.477,10,10,10h9.953c0.016,0,0.031,0.002,0.047,0.002    c0.01,0,0.021-0.002,0.032-0.002h37.005C321.515,472.002,326.001,476.488,326.001,482.002z M486.001,377.002H267.73l-5.073-20    h176.26c0.016,0,0.031,0.002,0.047,0.002c0.01,0,0.021-0.002,0.032-0.002h37.005c5.514,0,10,4.486,10,10V377.002z"/>
		<path d="M228.968,452.002h-0.007c-5.523,0-9.996,4.478-9.996,10s4.48,10,10.003,10s10-4.478,10-10S234.49,452.002,228.968,452.002    z"/>
		<path d="M333.029,141.999h-0.007c-5.523,0-9.996,4.478-9.996,10s4.48,10,10.003,10s10-4.478,10-10    S338.552,141.999,333.029,141.999z"/>
	</g>
</g>















</svg>
