<?xml version="1.0" encoding="iso-8859-1"?>
<!-- Generator: Adobe Illustrator 21.0.0, SVG Export Plug-In . SVG Version: 6.00 Build 0)  -->
<svg xmlns="http://www.w3.org/2000/svg" xmlns:xlink="http://www.w3.org/1999/xlink" version="1.1" id="Capa_1" x="0px" y="0px" viewBox="0 0 512.002 512.002" style="enable-background:new 0 0 512.002 512.002;" xml:space="preserve" width="512" height="512">
<g>
	<g>
		<path style="fill-rule:evenodd;clip-rule:evenodd;fill:#8EECF0;" d="M68.146,277.311h375.711l-11.182-103.928    c-1.053-9.783-8.052-17.891-17.89-17.891H97.219c-9.839,0-16.838,8.109-17.891,17.891L68.146,277.311z"/>
		<path style="fill-rule:evenodd;clip-rule:evenodd;fill:#FF836C;" d="M443.857,277.311H68.146    c-19.68,0-35.782,16.102-35.782,35.782v86.037h183.169c-8.8,0-16-7.2-16-16v-50.746c0-8.8,7.199-16,16-16h24.469    c8.8,0,16,7.2,16,16c0-8.8,7.199-16,16-16h24.469c8.8,0,16,7.2,16,16v50.746c0,8.8-7.2,16-16,16h183.169v-86.037    C479.638,293.413,463.537,277.311,443.857,277.311L443.857,277.311z M399.637,338.221c0-11.046,8.954-20,20-20s20,8.954,20,20    c0,11.045-8.954,20-20,20S399.637,349.266,399.637,338.221L399.637,338.221z M379.637,358.221c-11.045,0-20-8.954-20-20    c0-11.046,8.954-20,20-20c11.046,0,20,8.954,20,20C399.637,349.266,390.683,358.221,379.637,358.221L379.637,358.221z     M112.365,338.221c0,11.045-8.954,20-20,20s-20-8.954-20-20c0-11.046,8.954-20,20-20S112.365,327.175,112.365,338.221    L112.365,338.221z M132.365,318.221c11.045,0,20,8.954,20,20c0,11.045-8.954,20-20,20c-11.045,0-20-8.954-20-20    C112.365,327.175,121.319,318.221,132.365,318.221z"/>
		<circle style="fill-rule:evenodd;clip-rule:evenodd;fill:#FFBA4A;" cx="92.365" cy="338.221" r="20"/>
		<circle style="fill-rule:evenodd;clip-rule:evenodd;fill:#FFBA4A;" cx="132.365" cy="338.221" r="20"/>
		<path style="fill-rule:evenodd;clip-rule:evenodd;fill:#FD4848;" d="M199.533,332.384v50.746c0,8.8,7.199,16,16,16h24.469    c8.8,0,16-7.2,16-16v-50.746c0-8.8-7.2-16-16-16h-24.469C206.732,316.384,199.533,323.584,199.533,332.384z"/>
		<path style="fill-rule:evenodd;clip-rule:evenodd;fill:#FD4848;" d="M256.001,332.384v50.746c0,8.8,7.199,16,16,16h24.469    c8.8,0,16-7.2,16-16v-50.746c0-8.8-7.2-16-16-16h-24.469C263.201,316.384,256.001,323.584,256.001,332.384z"/>
		<circle style="fill-rule:evenodd;clip-rule:evenodd;fill:#FFBA4A;" cx="379.637" cy="338.221" r="20"/>
		<circle style="fill-rule:evenodd;clip-rule:evenodd;fill:#FFBA4A;" cx="419.637" cy="338.221" r="20"/>
		<path style="fill-rule:evenodd;clip-rule:evenodd;fill:#EBEBEB;" d="M479.638,399.13H296.47h-24.469h-32h-24.469H32.364h-2.363    c-11,0-20,9-20,20c0,11,9,20,20,20h22.363h67.091h273.09h67.091h22.364c11,0,20-9,20-20c0-11-9-20-20-20H479.638z"/>
		<path style="fill-rule:evenodd;clip-rule:evenodd;fill:#64759D;" d="M459.638,439.13h-67.091v44.981    c0,9.84,8.051,17.891,17.891,17.891h31.31c9.839,0,17.891-8.052,17.891-17.891V439.13z"/>
		<path style="fill-rule:evenodd;clip-rule:evenodd;fill:#64759D;" d="M119.456,484.111V439.13H52.365v44.981    c0,9.84,8.052,17.891,17.891,17.891h31.31C111.405,502.002,119.456,493.95,119.456,484.111z"/>
		<path style="fill-rule:evenodd;clip-rule:evenodd;fill:#FF836C;" d="M30,274.061h38.145v-20c0-11-9-20-20-20H30c-11,0-20,9-20,20    C10,265.061,19,274.061,30,274.061z"/>
		<path style="fill-rule:evenodd;clip-rule:evenodd;fill:#FF836C;" d="M443.857,254.061v20h38.145c11,0,20-9,20-20c0-11-9-20-20-20    h-18.146C452.856,234.061,443.857,243.061,443.857,254.061z"/>
		<path style="fill-rule:evenodd;clip-rule:evenodd;fill:#FF836C;" d="M413.638,115.492c-149.091,0-166.183-0.001-315.274-0.001    c-12.138,0-22.363,6.95-22.363,20c0,11,9,20,20,20c150.667,0,169.334,0.001,320,0.001c11,0,20-9,20-20    C436.001,122.442,425.777,115.492,413.638,115.492z"/>
		<path style="fill-rule:evenodd;clip-rule:evenodd;fill:#FFF0D9;" d="M382.002,250.001c66.094,0,120-53.907,120-120.001    c0-66.094-53.906-120-120-120s-120,53.906-120,120C262.001,196.094,315.908,250.001,382.002,250.001z"/>
	</g>
	<g>
		<path d="M512.002,254.061c0-16.542-13.458-30-30-30h-10.351c24.846-23.692,40.351-57.1,40.351-94.061c0-71.683-58.317-130-130-130    c-63.306,0-116.178,45.487-127.673,105.492h-78.327c-5.523,0-10,4.478-10,10s4.477,10,10,10h76.086    c-0.051,1.497-0.087,2.998-0.087,4.508c0,5.242,0.321,10.41,0.927,15.492H97.219c-0.275,0-0.548,0.012-0.821,0.02    c-0.133-0.005-0.263-0.02-0.396-0.02c-5.514,0-10-4.486-10-10s4.486-10,10-10c5.523,0,10-4.478,10-10s-4.477-10-10-10    c-16.542,0-30,13.458-30,30c0,8.428,3.499,16.05,9.114,21.505c-3.065,4.259-5.103,9.488-5.73,15.316l-6.016,55.912    c-4.466-2.642-9.669-4.165-15.223-4.165H30c-16.542,0-30,13.458-30,30.001c0,16.542,13.458,29.999,30,29.999h2.774    c-6.501,7.906-10.41,18.021-10.41,29.032v77.025C9.51,393.505,0.001,405.227,0.001,419.13c0,16.542,13.458,30,30,30h12.363v34.981    c0,15.379,12.512,27.891,27.891,27.891h31.31c15.379,0,27.891-12.512,27.891-27.891V449.13h253.091v34.981    c0,15.379,12.512,27.891,27.891,27.891h31.31c15.379,0,27.891-12.512,27.891-27.891V449.13h12.364c16.542,0,30-13.458,30-30    c0-13.904-9.509-25.625-22.363-29.012v-77.025c0-11.011-3.909-21.126-10.41-29.032h2.773    C498.544,284.061,512.002,270.603,512.002,254.061z M492.002,254.062c0,5.514-4.486,9.999-10,9.999h-28.145v-10    c0-5.514,4.485-10,9.999-10h18.146C487.515,244.061,492.002,248.547,492.002,254.062z M382.002,20c60.654,0,110,49.346,110,110    s-49.346,110.001-110,110.001s-110-49.347-110-110.001S321.347,20,382.002,20z M277.721,207.539l-18.166,18.166    c-3.905,3.905-3.905,10.237,0,14.143c1.953,1.952,4.512,2.929,7.071,2.929s5.118-0.977,7.071-2.929l17.204-17.204    c23.476,23.089,55.651,37.357,91.101,37.357c17.292,0,33.801-3.402,48.906-9.558l1.815,16.868H79.279l9.992-92.858    c0.464-4.315,3.149-8.96,7.948-8.96h159.707C261.29,180.848,268.413,195.053,277.721,207.539z M20,254.061c0-5.514,4.486-10,10-10    h18.146c5.514,0,10,4.486,10,10v10H30C24.486,264.061,20,259.574,20,254.061z M109.456,484.111c0,4.351-3.54,7.891-7.891,7.891    h-31.31c-4.351,0-7.891-3.54-7.891-7.891V449.13h47.091V484.111z M449.637,484.111c0,4.351-3.54,7.891-7.891,7.891h-31.31    c-4.351,0-7.891-3.54-7.891-7.891V449.13h47.091V484.111z M482.002,429.13h-452c-5.514,0-10-4.486-10-10s4.486-10,10-10h339.635    c5.522,0,10-4.478,10-10s-4.478-10-10-10h-47.874c0.457-1.927,0.707-3.935,0.707-6v-50.746c0-14.336-11.663-25.999-26-25.999    h-24.469c-6.031,0-11.584,2.07-15.999,5.528c-4.416-3.458-9.969-5.528-16-5.528h-24.469c-14.336,0-26,11.663-26,25.999v50.746    c0,2.065,0.249,4.073,0.707,6H42.364v-76.037c0-14.214,11.563-25.78,25.777-25.782c0.005,0,0.011,0.001,0.016,0.001    c0.007,0,0.014-0.001,0.021-0.001h375.645c0.007,0,0.014,0.001,0.021,0.001c0.005,0,0.011-0.001,0.016-0.001    c14.214,0.002,25.778,11.568,25.778,25.782v76.037h-20.001c-5.522,0-10,4.478-10,10s4.478,10,10,10h32.364c5.514,0,10,4.486,10,10    S487.515,429.13,482.002,429.13z M209.532,383.13v-50.746c0-3.252,2.748-5.999,6-5.999h24.469c3.252,0,6,2.747,6,5.999v50.746    c0,3.252-2.748,6-6,6h-24.469C212.28,389.13,209.532,386.382,209.532,383.13z M302.469,383.13c0,3.252-2.748,6-6,6h-24.469    c-3.252,0-5.999-2.748-5.999-6v-50.746c0-3.252,2.747-5.999,5.999-5.999h24.469c3.252,0,6,2.747,6,5.999V383.13z"/>
		<path d="M212.626,242.776c2.559,0,5.119-0.977,7.071-2.929l32.75-32.75c3.905-3.905,3.905-10.237,0-14.143    c-3.905-3.904-10.237-3.904-14.143,0l-32.75,32.75c-3.905,3.905-3.905,10.237,0,14.143    C207.507,241.8,210.067,242.776,212.626,242.776z"/>
		<path d="M419.637,368.221c16.542,0,29.999-13.458,29.999-30s-13.457-30-29.999-30c-7.678,0-14.688,2.902-20,7.664    c-5.312-4.761-12.322-7.664-20-7.664c-16.542,0-30,13.458-30,30s13.458,30,30,30c7.678,0,14.688-2.902,20-7.664    C404.949,365.318,411.96,368.221,419.637,368.221z M419.637,328.221c5.514,0,9.999,4.486,9.999,10s-4.485,10-9.999,10    s-10-4.486-10-10S414.124,328.221,419.637,328.221z M379.637,348.221c-5.514,0-10-4.486-10-10s4.486-10,10-10s10,4.486,10,10    S385.151,348.221,379.637,348.221z"/>
		<path d="M132.365,308.221c-7.678,0-14.688,2.902-20,7.663c-5.312-4.761-12.322-7.663-20-7.663c-16.542,0-30,13.458-30,30    s13.458,30,30,30c7.678,0,14.688-2.902,20-7.663c5.312,4.761,12.322,7.663,20,7.663c16.542,0,30-13.458,30-30    S148.907,308.221,132.365,308.221z M92.365,348.221c-5.514,0-10-4.486-10-10s4.486-10,10-10c5.514,0,10,4.486,10,10    S97.879,348.221,92.365,348.221z M132.365,348.221c-5.514,0-10-4.486-10-10s4.486-10,10-10s10,4.486,10,10    S137.879,348.221,132.365,348.221z"/>
		<path d="M382.002,50.009c5.522,0,10-4.478,10-10v-0.007c0-5.522-4.478-9.997-10-9.997s-10,4.481-10,10.004    S376.479,50.009,382.002,50.009z"/>
		<path d="M337.013,62.067c1.503,0,3.029-0.34,4.464-1.058c4.94-2.47,6.942-8.477,4.473-13.416l-0.003-0.007    c-2.471-4.939-8.477-6.938-13.415-4.469c-4.939,2.47-6.94,8.479-4.471,13.42C329.813,60.042,333.344,62.067,337.013,62.067z"/>
		<path d="M298.519,93.325c1.705,1.137,3.632,1.681,5.538,1.681c3.23,0,6.402-1.563,8.329-4.454    c3.063-4.595,1.822-10.804-2.773-13.867l-0.006-0.004c-4.594-3.063-10.802-1.82-13.864,2.775    C292.679,84.051,293.924,90.262,298.519,93.325z"/>
		<path d="M292.01,140.001c5.522,0,10-4.478,10-10s-4.478-10-10-10h-0.007c-5.522,0-9.997,4.478-9.997,10    S286.487,140.001,292.01,140.001z"/>
		<path d="M298.519,166.676l-0.006,0.004c-4.596,3.063-5.834,9.271-2.771,13.865c1.927,2.891,5.098,4.453,8.33,4.453    c1.906,0,3.835-0.545,5.54-1.682c4.596-3.063,5.837-9.272,2.773-13.867C309.323,164.853,303.112,163.612,298.519,166.676z"/>
		<path d="M332.043,216.621c1.563,0.895,3.268,1.318,4.949,1.318c3.473,0,6.85-1.812,8.696-5.043    c2.74-4.795,1.074-10.903-3.721-13.644c-4.797-2.739-10.904-1.072-13.645,3.721l-0.004,0.007    C325.579,207.776,327.247,213.881,332.043,216.621z"/>
		<path d="M382.002,229.996c5.522,0,10-4.481,10-10.004s-4.478-10-10-10s-10,4.478-10,10V220    C372.002,225.522,376.479,229.996,382.002,229.996z"/>
		<path d="M423.058,198.744c-5.076,2.176-7.428,8.055-5.252,13.131l0.003,0.007c1.625,3.791,5.313,6.061,9.192,6.061    c1.314,0,2.651-0.261,3.937-0.812c5.076-2.176,7.427-8.059,5.251-13.135S428.135,196.564,423.058,198.744z"/>
		<path d="M464.409,166.053c-4.94-2.47-10.947-0.469-13.416,4.473c-2.47,4.939-0.468,10.946,4.472,13.416l0.007,0.003    c1.435,0.718,2.96,1.058,4.462,1.058c3.668,0,7.199-2.027,8.951-5.531C471.354,174.531,469.349,168.522,464.409,166.053z"/>
		<path d="M461.994,130.001c0,5.522,4.478,10,10,10h0.007c5.522,0,9.997-4.478,9.997-10s-4.481-10-10.004-10    S461.994,124.479,461.994,130.001z"/>
		<path d="M459.946,95.006c1.906,0,3.834-0.544,5.538-1.681l0.006-0.004c4.596-3.063,5.834-9.271,2.771-13.865    c-3.063-4.596-9.273-5.836-13.87-2.771c-4.596,3.063-5.837,9.272-2.773,13.867C453.544,93.442,456.715,95.006,459.946,95.006z"/>
		<path d="M421.451,60.386c1.705,1.137,3.632,1.681,5.538,1.681c3.23,0,6.402-1.563,8.329-4.454l0.004-0.006    c3.063-4.595,1.82-10.801-2.775-13.864c-4.597-3.066-10.807-1.819-13.869,2.776C415.614,51.113,416.855,57.322,421.451,60.386z"/>
		<path d="M382.002,140.001h34.979c5.522,0,10-4.478,10-10s-4.478-10-10-10h-24.979V80.01c0-5.522-4.478-10-10-10s-10,4.478-10,10    v49.991C372.002,135.523,376.479,140.001,382.002,140.001z"/>
		<path d="M136.005,125.492c5.523,0,10-4.478,10-10s-4.477-10-10-10h-0.007c-5.523,0-9.996,4.478-9.996,10    S130.482,125.492,136.005,125.492z"/>
		<path d="M409.64,389.13h-0.008c-5.522,0-9.996,4.478-9.996,10s4.481,10,10.004,10s10-4.478,10-10S415.163,389.13,409.64,389.13z"/>
	</g>
</g>















</svg>
