<?xml version="1.0" encoding="iso-8859-1"?>
<!-- Generator: Adobe Illustrator 21.0.0, SVG Export Plug-In . SVG Version: 6.00 Build 0)  -->
<svg xmlns="http://www.w3.org/2000/svg" xmlns:xlink="http://www.w3.org/1999/xlink" version="1.1" id="Capa_1" x="0px" y="0px" viewBox="0 0 512.002 512.002" style="enable-background:new 0 0 512.002 512.002;" xml:space="preserve" width="512" height="512">
<g>
	<g>
		<path style="fill-rule:evenodd;clip-rule:evenodd;fill:#8EECF0;" d="M100,216.001H26c-8.8,0-16,7.2-16,16v74L100,216.001z"/>
		<path style="fill-rule:evenodd;clip-rule:evenodd;fill:#53C9D8;" d="M100,216.001l-90,90v74c0,2.868,0.765,5.567,2.101,7.902    l171.902-171.902H100z"/>
		<path style="fill-rule:evenodd;clip-rule:evenodd;fill:#8EECF0;" d="M184.003,216.001L12.101,387.902    c2.763,4.827,7.967,8.098,13.899,8.098h98.843l180-180H184.003z"/>
		<polygon style="fill-rule:evenodd;clip-rule:evenodd;fill:#53C9D8;" points="304.843,216.001 124.843,396.001 186.002,396.001     366.002,216.001 327.999,216.001   "/>
		<path style="fill-rule:evenodd;clip-rule:evenodd;fill:#8EECF0;" d="M366.002,216.001l-180,180h171.181l144.82-144.819V232    c0-8.8-7.2-16-16-16H366.002z"/>
		<polygon style="fill-rule:evenodd;clip-rule:evenodd;fill:#53C9D8;" points="502.002,251.181 357.182,396.001 408.058,396.001     502.002,302.057   "/>
		<path style="fill-rule:evenodd;clip-rule:evenodd;fill:#8EECF0;" d="M502.002,302.057l-93.944,93.944h77.944c8.8,0,16-7.2,16-16    V302.057z"/>
		<path style="fill-rule:evenodd;clip-rule:evenodd;fill:#64759D;" d="M184.003,216.001h120.84h23.157V190c0-8.797-7.2-16-16-16    h-31.999h-48h-31.999c-8.8,0-16,7.2-16,16V216.001z"/>
		<rect x="232.001" y="116.001" style="fill-rule:evenodd;clip-rule:evenodd;fill:#6A87C1;" width="48" height="57.999"/>
	</g>
	<g>
		<path d="M512.002,302.052v-50.866c0,0,0-0.007,0-0.01V232c0-14.336-11.664-25.999-26-25.999H337.999V190    c0-14.337-11.663-26-25.999-26h-21.999v-47.999c0-5.522-4.478-10-10-10s-10,4.478-10,10V164h-28v-47.999c0-5.522-4.478-10-10-10    s-10,4.478-10,10V164h-21.998c-14.337,0-26,11.663-26,26v21.858L20,365.861v-55.719l87.071-87.07    c2.859-2.86,3.715-7.161,2.167-10.898c-1.548-3.736-5.193-6.173-9.238-6.173H26c-14.336,0-26,11.663-26,25.999v73.977    c0,0.016,0,0.033,0,0.049v73.976c0,14.336,11.664,26,26,26h460.002c14.336,0,26-11.664,26-26v-77.939V302.052z M20,232    c0-3.252,2.748-5.999,6-5.999h49.858L20,281.859V232z M492.002,232v15.038l-30.703,30.704c-3.905,3.905-3.905,10.237,0,14.143    c1.953,1.952,4.512,2.929,7.071,2.929s5.118-0.977,7.071-2.929l16.561-16.561v22.59l-88.087,88.087h-22.59l37.547-37.548    c3.905-3.905,3.905-10.237,0-14.143c-3.906-3.904-10.236-3.904-14.143,0l-51.689,51.69H210.145l160-160h115.857    C489.254,226.001,492.002,228.748,492.002,232z M148.985,386.001l160-160h32.874l-160,160H148.985z M200.003,184H312    c3.252,0,5.999,2.748,5.999,6v16.001H194.003V190C194.003,186.748,196.751,184,200.003,184z M188.146,226.001H280.7l-160,160    H28.146L188.146,226.001z M486.002,386.001H432.2l59.802-59.802v53.802C492.002,383.253,489.254,386.001,486.002,386.001z"/>
		<path d="M140.004,226.001c5.522,0,10-4.478,10-10s-4.478-10-10-10h-0.007c-5.522,0-9.996,4.478-9.996,10    S134.481,226.001,140.004,226.001z"/>
		<path d="M433.687,320.777c1.869,1.557,4.138,2.316,6.395,2.316c2.867,0,5.714-1.227,7.692-3.601    c3.535-4.242,2.962-10.548-1.281-14.084c-4.239-3.532-10.546-2.962-14.084,1.281l-0.005,0.006    C428.868,310.938,429.444,317.241,433.687,320.777z"/>
	</g>
</g>















</svg>
