<?xml version="1.0" encoding="iso-8859-1"?>
<!-- Generator: Adobe Illustrator 21.0.0, SVG Export Plug-In . SVG Version: 6.00 Build 0)  -->
<svg xmlns="http://www.w3.org/2000/svg" xmlns:xlink="http://www.w3.org/1999/xlink" version="1.1" id="Capa_1" x="0px" y="0px" viewBox="0 0 512 512" style="enable-background:new 0 0 512 512;" xml:space="preserve" width="512" height="512">
<g>
	<g>
		<path style="fill-rule:evenodd;clip-rule:evenodd;fill:#64759D;" d="M70.016,187.914C97.777,112.102,170.57,57.999,256,57.999    s158.223,54.104,185.984,129.916c7.774,21.23,12.017,44.162,12.017,68.085s-4.243,46.855-12.017,68.085    c-19.987,54.582-63.317,97.912-117.899,117.899C302.855,449.758,279.923,454,256,454s-46.855-4.243-68.085-12.017    c-54.582-19.987-97.912-63.317-117.899-117.899c-7.774-21.23-12.017-44.162-12.017-68.085S62.242,209.144,70.016,187.914    L70.016,187.914z M502.001,256C502.001,120.137,391.863,9.999,256,9.999S9.999,120.137,9.999,256S120.137,502,256,502    S502.001,391.862,502.001,256z"/>
		<path style="fill-rule:evenodd;clip-rule:evenodd;fill:#6A87C1;" d="M255.999,202.945c-72.129,0-139.753,19.284-198,52.977    c0,0.026,0,0.052,0,0.078c0,14.9,1.646,29.415,4.765,43.374c30.66-12.973,67.132-2.519,85.904,26.369    c18.765,28.879,13.509,66.439-10.781,89.187c14.92,11.106,31.457,20.161,49.194,26.747C192.904,408.894,221.545,384,256,384    s63.096,24.893,68.919,57.676c17.737-6.586,34.275-15.641,49.194-26.747c-24.29-22.747-29.546-60.308-10.781-89.187    c18.771-28.888,55.244-39.342,85.903-26.369c3.12-13.959,4.765-28.474,4.765-43.373c0-0.025,0-0.051,0-0.077    C395.754,222.229,328.129,202.945,255.999,202.945z"/>
		<ellipse style="fill-rule:evenodd;clip-rule:evenodd;fill:#64759D;" cx="253.472" cy="295.499" rx="60" ry="50"/>
	</g>
	<g>
		<path d="M253.473,235.499c-38.598,0-70,26.916-70,60.001c0,33.084,31.402,60,70,60s70-26.916,70-60    C323.473,262.415,292.07,235.499,253.473,235.499z M253.473,335.5c-27.57,0-50-17.944-50-40c0-22.057,22.43-40.001,50-40.001    s50,17.944,50,40.001C303.473,317.556,281.043,335.5,253.473,335.5z"/>
		<path d="M437.02,74.98C388.667,26.629,324.38,0,256,0c-31.026,0-61.36,5.496-90.157,16.335c-5.169,1.946-7.782,7.713-5.837,12.882    c1.946,5.168,7.709,7.782,12.882,5.837C199.426,25.064,227.389,20,256,20c68.863,0,130.926,29.652,174.107,76.853l-3.778,3.171    c-4.231,3.55-4.782,9.857-1.232,14.088c1.979,2.357,4.812,3.572,7.665,3.572c2.269,0,4.55-0.768,6.423-2.34l3.784-3.175    c4.303,5.581,8.369,11.353,12.169,17.313l-4.311,2.489c-4.783,2.761-6.422,8.877-3.66,13.66c1.852,3.208,5.213,5.002,8.67,5.002    c1.696,0,3.415-0.433,4.99-1.342l4.332-2.501c3.268,6.234,6.266,12.63,8.977,19.175l-4.732,1.723    c-5.189,1.889-7.865,7.628-5.976,12.817c1.479,4.061,5.313,6.582,9.397,6.582c1.136,0,2.291-0.195,3.42-0.606l4.752-1.73    c2.125,6.695,3.953,13.52,5.48,20.457l-4.98,0.878c-5.439,0.959-9.071,6.146-8.111,11.584c0.855,4.852,5.074,8.266,9.836,8.266    c0.576,0,1.161-0.05,1.748-0.154l4.978-0.878c0.918,6.943,1.526,13.98,1.825,21.098h-5.033c-5.522,0-10,4.478-10,10    s4.478,10,10,10h5.033c-0.298,7.117-0.907,14.155-1.825,21.097l-4.978-0.877c-5.44-0.958-10.626,2.675-11.585,8.112    c-0.958,5.439,2.674,10.626,8.112,11.585l4.98,0.878c-1.528,6.937-3.355,13.761-5.48,20.457l-4.753-1.73    c-5.188-1.89-10.928,0.787-12.817,5.977c-1.889,5.189,0.787,10.928,5.978,12.817l4.73,1.722    c-2.711,6.544-5.709,12.94-8.977,19.174l-4.332-2.501c-4.781-2.761-10.898-1.122-13.66,3.66s-1.123,10.898,3.66,13.66l4.31,2.489    c-3.8,5.959-7.866,11.732-12.169,17.313l-3.784-3.175c-4.232-3.551-10.538-2.999-14.088,1.232    c-3.551,4.23-2.998,10.538,1.232,14.088l3.778,3.17C386.926,462.348,324.863,492,256,492c-68.863,0-130.926-29.652-174.107-76.852    l3.778-3.169c4.23-3.55,4.783-9.857,1.233-14.089c-3.551-4.23-9.859-4.78-14.089-1.233l-3.784,3.175    c-4.303-5.581-8.369-11.353-12.169-17.312l4.31-2.489c4.783-2.762,6.422-8.878,3.66-13.66c-2.762-4.783-8.877-6.421-13.66-3.66    l-4.331,2.501c-3.268-6.234-6.266-12.629-8.977-19.174l4.73-1.722c5.189-1.89,7.866-7.628,5.978-12.817    c-1.89-5.19-7.625-7.865-12.817-5.978l-4.753,1.73c-2.125-6.695-3.952-13.519-5.48-20.456l4.979-0.878    c5.438-0.959,9.07-6.146,8.112-11.585c-0.959-5.438-6.146-9.062-11.585-8.112l-4.977,0.877c-0.918-6.943-1.526-13.98-1.825-21.097    h5.033c5.522,0,10-4.478,10-10s-4.478-10-10-10h-5.028c0.297-7.091,0.904-14.129,1.822-21.097l4.974,0.877    c0.587,0.104,1.172,0.154,1.748,0.154c4.762,0,8.98-3.414,9.836-8.266c0.96-5.438-2.672-10.625-8.111-11.584l-4.999-0.882    c1.517-6.918,3.333-13.748,5.456-20.469l4.796,1.746c1.13,0.411,2.284,0.606,3.42,0.606c4.085,0,7.92-2.521,9.397-6.582    c1.89-5.19-0.786-10.929-5.976-12.817l-4.799-1.747c2.695-6.532,5.692-12.934,8.965-19.196l4.411,2.546    c1.575,0.909,3.294,1.342,4.99,1.342c3.456,0,6.818-1.794,8.67-5.002c2.762-4.783,1.123-10.899-3.66-13.66l-4.399-2.54    c3.785-5.946,7.836-11.735,12.161-17.343l3.881,3.256c1.873,1.572,4.154,2.34,6.423,2.34c2.854,0,5.688-1.215,7.665-3.572    c3.551-4.23,2.999-10.538-1.232-14.088l-3.867-3.245c7.556-8.25,15.738-16.025,24.528-23.244    c4.268-3.506,4.887-9.807,1.382-14.075c-3.507-4.269-9.808-4.887-14.075-1.382c-3.859,3.169-7.606,6.441-11.25,9.801    c-0.064,0.057-0.132,0.105-0.195,0.164L82.11,68.12c-0.092,0.085-0.171,0.178-0.259,0.266C29.652,116.801,0,184.323,0,256    c0,68.38,26.629,132.668,74.98,181.02S187.62,512,256,512s132.668-26.629,181.02-74.98S512,324.38,512,256    S485.371,123.333,437.02,74.98z"/>
		<path d="M256,48C141.308,48,47.999,141.309,47.999,256c0,113.178,94.702,208.001,208.001,208.001    c58.905,0,116.283-25.793,155.43-69.794c3.672-4.127,3.303-10.447-0.823-14.118c-4.128-3.673-10.447-3.3-14.118,0.823    c-6.598,7.416-13.731,14.244-21.309,20.452c-15.989-19.941-17.737-48.205-3.461-70.173c14.285-21.985,40.855-31.869,65.587-25.331    c-0.843,3.072-1.757,6.126-2.758,9.156c-1.732,5.244,1.113,10.9,6.357,12.633c5.247,1.733,10.9-1.112,12.633-6.357    c6.914-20.924,10.431-42.794,10.461-65.007c0-0.017,0-0.033,0-0.05c0-0.079,0.002-0.157,0.002-0.235    C464.001,141.309,370.692,48,256,48z M256,68c97.828,0,178.43,75.113,187.197,170.692    c-57.702-29.97-122.039-45.747-187.198-45.747c-65.16,0-129.496,15.776-187.196,45.746C77.571,143.112,158.172,68,256,68z     M74.722,305.855c24.725-6.53,51.276,3.352,65.561,25.336c14.264,21.951,12.529,50.189-3.425,70.127    C107.241,376.993,85.172,343.808,74.722,305.855z M199.033,435.169c8-24.29,30.75-41.168,56.967-41.168    c26.195,0,48.941,16.862,56.953,41.129c-18.245,5.81-37.437,8.871-56.953,8.871C236.149,444.001,217.011,440.898,199.033,435.169z     M354.947,320.294c-18.879,29.053-16.732,66.361,4.106,92.911c-8.714,5.709-17.879,10.669-27.386,14.852    c-10.912-31.933-41.023-54.056-75.667-54.056c-34.661,0-64.771,22.131-75.675,54.078c-9.561-4.221-18.704-9.215-27.354-14.904    c20.815-26.548,22.953-63.838,4.083-92.88c-18.89-29.07-53.864-42.258-86.599-33.984c-1.306-8.022-2.106-16.212-2.359-24.537    c57.355-31.959,122.191-48.828,187.903-48.828c65.712,0,130.549,16.869,187.906,48.828c-0.249,8.256-1.027,16.449-2.34,24.541    C408.824,278.033,373.835,291.226,354.947,320.294z"/>
		<path d="M133.006,52.96c1.314,0,2.651-0.261,3.937-0.812c5.076-2.176,7.428-8.055,5.252-13.131    c-2.175-5.076-8.056-7.43-13.131-5.252l-0.007,0.003c-5.076,2.176-7.424,8.053-5.248,13.129    C125.434,50.689,129.126,52.96,133.006,52.96z"/>
		<path d="M433.022,346.678c-4.596-3.063-10.804-1.823-13.867,2.773l-0.004,0.006c-3.063,4.595-1.82,10.801,2.775,13.864    c1.704,1.136,3.63,1.68,5.535,1.68c3.233,0,6.406-1.564,8.334-4.456C438.859,355.95,437.618,349.741,433.022,346.678z"/>
	</g>
</g>















</svg>
