<svg height="512pt" viewBox="0 0 512 512.00302" width="512pt" xmlns="http://www.w3.org/2000/svg"><path d="m295.652344 259.421875c0-22.09375-17.976563-40.066406-40.066406-40.066406-22.09375 0-40.066407 17.972656-40.066407 40.066406 0 22.089844 17.972657 40.0625 40.066407 40.0625 22.089843 0 40.066406-17.972656 40.066406-40.0625zm-60.097656 0c0-11.046875 8.984374-20.035156 20.03125-20.035156 11.046874 0 20.03125 8.988281 20.03125 20.035156 0 11.042969-8.984376 20.03125-20.03125 20.03125-11.046876 0-20.03125-8.988281-20.03125-20.03125zm0 0"/><path d="m510.578125 507.113281c.046875-.082031.097656-.160156.144531-.246093.394532-.703126.699219-1.445313.910156-2.210938.023438-.082031.039063-.167969.0625-.25.074219-.304688.136719-.609375.183594-.917969.015625-.105469.03125-.210937.042969-.316406.046875-.371094.074219-.742187.078125-1.117187 0-.019532 0-.039063 0-.058594 0-.394532-.027344-.785156-.074219-1.179688-.011719-.101562-.027343-.203125-.042969-.304687-.046874-.320313-.113281-.640625-.191406-.957031-.011718-.054688-.015625-.109376-.03125-.164063l-35.378906-132.042969c-.769531-2.886718-2.792969-5.273437-5.507812-6.515625l-70.792969-32.394531c10.03125-20.90625 15.660156-44.316406 15.660156-69.015625 0-26.960937-6.710937-52.378906-18.53125-74.691406l73.652344-33.566407c2.722656-1.238281 4.746093-3.632812 5.519531-6.523437l35.378906-132.03125c.015625-.058594.019532-.117187.03125-.171875.078125-.3125.140625-.625.1875-.941406.015625-.105469.035156-.207032.046875-.3125.042969-.390625.074219-.78125.074219-1.171875 0-.035157-.007812-.070313-.007812-.105469-.003907-.359375-.027344-.714844-.070313-1.070312-.011719-.109376-.03125-.21875-.046875-.324219-.046875-.308594-.109375-.609375-.183594-.914063-.019531-.082031-.039062-.167968-.058594-.25-.109374-.386718-.234374-.769531-.390624-1.144531-.003907-.011719-.011719-.023437-.015626-.03125-.144531-.351563-.316406-.695313-.503906-1.03125-.046875-.085937-.101562-.171875-.152344-.257813-.15625-.265624-.328124-.519531-.511718-.773437-.0625-.085937-.125-.171875-.191406-.257813-.246094-.3125-.503907-.617187-.792969-.90625 0 0 0-.003906-.003907-.003906 0 0-.003906-.003906-.003906-.007812-.015625-.015625-.03125-.027344-.046875-.039063-.277343-.273437-.566406-.523437-.863281-.757812-.085938-.066407-.175781-.128907-.265625-.195313-.25-.183594-.507813-.355468-.769531-.511718-.085938-.050782-.167969-.101563-.253906-.148438-.703126-.394531-1.441407-.699219-2.203126-.910156-.089843-.023438-.183593-.042969-.273437-.066406-.296875-.074219-.59375-.132813-.894531-.179688-.109375-.015625-.21875-.0351562-.328125-.046875-.375-.0429688-.746094-.07421875-1.121094-.07421875-.019531 0-.039063-.00390625-.054687-.00390625-.390626 0-.777344.03125-1.164063.0742188-.109375.0117187-.214844.0312502-.324219.0468752-.320312.046875-.636718.109375-.953125.1875-.050781.015625-.105469.019531-.160156.035156l-132.035156 35.375c-2.890625.777344-5.28125 2.800781-6.519531 5.523438l-34.113282 74.832031c-21.441406-10.683594-45.597656-16.707031-71.140625-16.707031-25.273437 0-49.191406 5.894531-70.46875 16.371093l-33.9375-74.496093c-1.238281-2.722657-3.632812-4.75-6.523437-5.523438l-132.042969-35.378906c-.054687-.011719-.109375-.015625-.160156-.03125-.320313-.078125-.636719-.140625-.960938-.1875-.101562-.015625-.203125-.0312502-.304687-.0468752-.390625-.0429688-.785156-.0742188-1.179688-.0742188-.019531 0-.039062.00390625-.0625.00390625-.371094.00390625-.738281.03124995-1.109375.07421875-.109375.0117188-.214843.03125-.320312.046875-.308594.046875-.609375.105469-.910157.179688-.085937.023437-.171874.039062-.257812.0625-.765625.210937-1.503906.515624-2.210938.910156-.082031.046875-.164062.097656-.246093.148437-.269531.160157-.53125.332031-.785157.519531-.082031.0625-.167968.121094-.25.183594-.316406.25-.625.511719-.917968.804688-.289063.292968-.554688.601562-.800782.917968-.066406.082032-.125.164063-.183593.25-.1875.253907-.363281.515626-.523438.785157-.046875.082031-.097656.164062-.144531.246093-.394531.707032-.699219 1.445313-.910156 2.210938-.023438.082031-.042969.167969-.0625.253906-.074219.300782-.136719.605469-.183594.914063-.015625.105469-.03125.210937-.046875.316406-.0429688.371094-.0703125.742187-.07421875 1.117187 0 .019532-.00390625.039063-.00390625.058594 0 .394532.03125.785156.078125 1.179688.0117188.101562.027344.203125.042969.304687.046875.320313.109375.640625.191406.957031.011719.054688.015625.109376.03125.164063l35.375 132.03125c.777344 2.890625 2.800781 5.285156 5.523438 6.523437l72.980468 33.261719c-11.921875 22.382813-18.691406 47.910157-18.691406 74.996094 0 24.820313 5.679688 48.34375 15.804688 69.328125l-70.109376 32.082031c-2.714843 1.242188-4.734374 3.628907-5.507812 6.515625l-35.375 132.042969c-.015625.054687-.023438.113281-.035156.171875-.078125.3125-.140625.625-.1875.941406-.015625.109375-.0351565.210938-.0468752.316406-.0429688.390626-.0742188.78125-.07031255 1.171876 0 .027343.00390625.054687.00390625.082031 0 .367187.03125.730469.0703125 1.09375.015625.109375.03125.21875.050781.328125.042969.304687.105469.601562.179688.902344.019531.085937.039062.175781.0625.261718.105468.386719.230468.769532.386718 1.144532 0 .003906.003907.007812.003907.007812.148437.359375.324219.710938.515625 1.054688.050781.085937.101562.171874.152344.257812.160156.261719.328124.519531.515624.769531.0625.089844.121094.175781.1875.257813.25.316406.511719.625.800782.914062.238281.242188.488281.464844.746094.675782.253906.207031.511718.398437.777343.574218.007813.003906.011719.007813.019531.015625.828126.550781 1.71875.964844 2.644532 1.242188 0 0 .003906 0 .003906.003906.277344.082031.558594.148437.839844.207031.039062.007813.074218.019532.113281.027344.253906.050781.511719.082031.769531.113281.066406.007813.128906.023438.199219.027344.320313.03125.644531.050781.96875.050781h.003906c.390625 0 .78125-.03125 1.167969-.078125.105469-.011719.207031-.03125.3125-.046875.316406-.046875.628906-.105468.9375-.183594.058594-.015624.113281-.019531.171875-.035156l132.042969-35.378906c2.882812-.769531 5.273437-2.789062 6.515625-5.507812l31.515625-68.882813c21.875 11.238281 46.660156 17.585937 72.898437 17.585937 26.507813 0 51.527344-6.484374 73.566407-17.9375l31.691406 69.238282c1.242187 2.714844 3.632812 4.734375 6.515625 5.503906l132.035156 35.378906c.054687.015625.113281.019532.167969.035156.308594.074219.621094.136719.933594.183594.105468.015625.214843.035156.320312.046875.390625.046875.777344.078125 1.167969.078125.324219 0 .648437-.015625.972656-.050781.050781-.003906.101563-.015625.152344-.019531.273437-.03125.546875-.066406.816406-.121094.019531-.003906.039063-.011719.0625-.015625 1.550781-.316406 3.042969-.996094 4.335937-2.054687.09375-.074219.179688-.164063.273438-.246094.15625-.140625.320312-.273438.46875-.425782.292969-.292968.554688-.601562.804688-.917968.0625-.082032.121093-.164063.183593-.246094.191407-.261719.363281-.523438.527344-.792969zm-52.425781-130.027343 24.484375 91.382812-105.289063-105.285156c4.640625-5.4375 8.925782-11.183594 12.8125-17.207032zm-109.09375-42.195313c16.699218-20.644531 26.722656-46.90625 26.722656-75.46875 0-30.304687-11.277344-58.019531-29.851562-79.1875l14.039062-14.035156c22.152344 24.773437 35.640625 57.449219 35.640625 93.222656 0 34.03125-12.207031 65.261719-32.46875 89.550781zm-200.648438 14.535156c-20.484375-24.359375-32.847656-55.761719-32.847656-90.003906 0-35.984375 13.644531-68.835937 36.03125-93.664063l14.039062 14.039063c-18.804687 21.21875-30.242187 49.109375-30.242187 79.625 0 28.773437 10.167969 55.214844 27.09375 75.929687zm7.011719-90.003906c0-55.230469 44.933594-100.164063 100.164063-100.164063 55.230468 0 100.164062 44.933594 100.164062 100.164063 0 55.226563-44.933594 100.160156-100.164062 100.160156-55.230469 0-100.164063-44.933593-100.164063-100.160156zm221.683594-205.574219 91.253906-24.449218-34.652344 34.542968c-3.917969 3.90625-3.925781 10.246094-.019531 14.164063 1.957031 1.964843 4.523438 2.945312 7.089844 2.945312 2.558594 0 5.117187-.976562 7.074218-2.921875l34.816407-34.710937-24.511719 91.476562-71.597656 32.632813c-3.820313-5.425782-7.960938-10.609375-12.40625-15.511719l17.101562-17.101563c3.910156-3.910156 3.910156-10.253906 0-14.164062-3.914062-3.910156-10.253906-3.910156-14.167968 0l-17.289063 17.289062c-4.960937-4.265624-10.191406-8.234374-15.652344-11.875zm-31.515625 98.398438-14.074219 14.074218c-20.714844-16.925781-47.15625-27.09375-75.929687-27.09375-28.5625 0-54.824219 10.019532-75.46875 26.722657l-14.085938-14.085938c24.292969-20.257812 55.523438-32.464843 89.554688-32.464843 34.242187 0 65.648437 12.359374 90.003906 32.847656zm-177.925782-26.5c-5.527343 3.648437-10.816406 7.625-15.839843 11.910156l-108.292969-108.292969 91.375 24.480469zm-113.816406 9.148437-24.480468-91.363281 108.050781 108.050781c-4.519531 4.945313-8.726563 10.171875-12.605469 15.65625zm81.066406 323.257813-91.382812 24.484375 34.761719-34.761719c3.910156-3.910156 3.910156-10.253906 0-14.164062-3.914063-3.914063-10.253907-3.914063-14.167969 0l-34.757812 34.757812 24.480468-91.382812 67.351563-30.820313c3.945312 6.085937 8.292969 11.886719 13.003906 17.367187l-13.199219 13.199219c-3.910156 3.910157-3.910156 10.253907 0 14.164063 1.957032 1.957031 4.519532 2.933594 7.082032 2.933594s5.128906-.976563 7.082031-2.933594l13.011719-13.007813c5.410156 4.902344 11.15625 9.441407 17.199218 13.578125zm27.449219-94.347656 14.039063-14.039063c21.164062 18.570313 48.878906 29.851563 79.183594 29.851563 30.515624 0 58.40625-11.4375 79.625-30.242188l14.039062 14.039062c-24.828125 22.382813-57.683594 36.03125-93.664062 36.03125-35.769532 0-68.445313-13.492187-93.222657-35.640624zm184.058594 27.324218c5.972656-4.132812 11.65625-8.65625 17.003906-13.539062l105.046875 105.042968-91.375-24.480468zm0 0"/><path d="m403.195312 103.199219c.25.597656.5625 1.179687.921876 1.722656.371093.550781.789062 1.058594 1.25 1.519531.460937.460938.972656.882813 1.523437 1.253906.542969.359376 1.121094.671876 1.722656.921876.613281.25 1.242188.441406 1.875.570312.648438.128906 1.3125.191406 1.960938.191406.652343 0 1.3125-.0625 1.953125-.191406s1.273437-.320312 1.875-.570312c.609375-.25 1.191406-.5625 1.730468-.921876.550782-.371093 1.0625-.792968 1.523438-1.253906.460938-.460937.882812-.96875 1.242188-1.519531.359374-.542969.671874-1.125.921874-1.722656.25-.613281.441407-1.242188.570313-1.875.128906-.652344.199219-1.3125.199219-1.964844 0-.648437-.070313-1.308594-.199219-1.953125-.128906-.640625-.320313-1.269531-.570313-1.871094-.25-.609375-.5625-1.191406-.921874-1.734375-.359376-.550781-.78125-1.058593-1.242188-1.519531s-.972656-.882812-1.523438-1.242188c-.539062-.363281-1.121093-.671874-1.730468-.921874-.601563-.25-1.234375-.441407-1.875-.570313-1.292969-.261719-2.625-.261719-3.914063 0-.632812.128906-1.261719.320313-1.875.570313-.601562.25-1.179687.558593-1.722656.921874-.550781.359376-1.0625.78125-1.523437 1.242188-.460938.460938-.878907.96875-1.25 1.519531-.359376.542969-.671876 1.125-.921876 1.734375-.25.601563-.441406 1.230469-.570312 1.871094-.132812.644531-.191406 1.304688-.191406 1.953125 0 .652344.058594 1.3125.191406 1.964844.128906.632812.320312 1.261719.570312 1.875zm0 0"/><path d="m108.6875 408.492188c-.25-.601563-.5625-1.183594-.921875-1.722657-.371094-.550781-.789063-1.0625-1.25-1.523437-.460937-.46875-.972656-.878906-1.523437-1.25-.542969-.363282-1.121094-.671875-1.722657-.921875-.613281-.25-1.242187-.441407-1.875-.570313-1.289062-.261718-2.621093-.261718-3.914062 0-.640625.128906-1.273438.320313-1.875.570313-.609375.25-1.191407.558593-1.730469.921875-.550781.371094-1.0625.78125-1.523438 1.25-.460937.460937-.882812.972656-1.242187 1.523437-.359375.539063-.671875 1.121094-.921875 1.722657-.25.609374-.441406 1.242187-.570312 1.875-.128907.648437-.199219 1.308593-.199219 1.960937s.070312 1.3125.199219 1.953125c.128906.640625.320312 1.273438.570312 1.875.25.609375.5625 1.191406.921875 1.730469.359375.550781.78125 1.0625 1.242187 1.523437.460938.460938.972657.882813 1.523438 1.242188.539062.359375 1.121094.671875 1.730469.921875.601562.25 1.234375.441406 1.875.570312.640625.128907 1.300781.199219 1.953125.199219.648437 0 1.3125-.070312 1.960937-.199219.632813-.128906 1.261719-.320312 1.875-.570312.601563-.25 1.179688-.5625 1.722657-.921875.550781-.359375 1.0625-.78125 1.523437-1.242188.460937-.460937.878906-.972656 1.25-1.523437.359375-.539063.671875-1.121094.921875-1.730469.25-.601562.441406-1.234375.570312-1.875.132813-.640625.191407-1.300781.191407-1.953125s-.058594-1.3125-.191407-1.960937c-.128906-.632813-.320312-1.265626-.570312-1.875zm0 0"/></svg>