<svg height="512pt" viewBox="-16 0 512 512" width="512pt" xmlns="http://www.w3.org/2000/svg"><path d="m235.917969 167.871094c.550781-.359375 1.0625-.78125 1.519531-1.242188.460938-.457031.882812-.96875 1.242188-1.519531.359374-.539063.667968-1.121094.917968-1.730469.25-.597656.441406-1.230468.570313-1.867187.132812-.640625.199219-1.300781.199219-1.953125 0-.648438-.066407-1.308594-.199219-1.949219-.128907-.640625-.320313-1.269531-.570313-1.871094-.25-.609375-.558594-1.1875-.917968-1.726562-.359376-.550781-.78125-1.0625-1.242188-1.523438-.457031-.457031-.96875-.878906-1.519531-1.238281-.539063-.359375-1.117188-.671875-1.730469-.921875-.597656-.25-1.226562-.449219-1.867188-.578125-1.289062-.25-2.609374-.25-3.898437 0-.640625.128906-1.273437.328125-1.871094.578125-.609375.25-1.191406.5625-1.730469.921875-.550781.359375-1.058593.78125-1.519531 1.238281-.460937.460938-.878906.972657-1.25 1.523438-.359375.539062-.660156 1.117187-.910156 1.726562-.25.601563-.449219 1.230469-.582031 1.871094-.128906.640625-.1875 1.300781-.1875 1.949219 0 .652344.058594 1.3125.1875 1.953125.128906.636719.332031 1.269531.582031 1.867187.25.609375.550781 1.191406.910156 1.730469.371094.550781.789063 1.0625 1.25 1.519531.460938.460938.96875.882813 1.519531 1.242188.539063.359375 1.121094.667968 1.730469.917968.601563.25 1.230469.449219 1.871094.582032.636719.128906 1.296875.1875 1.949219.1875.648437 0 1.308594-.058594 1.949218-.1875.640626-.132813 1.269532-.332032 1.867188-.582032.613281-.25 1.191406-.558593 1.730469-.917968zm0 0"/><path d="m321.140625 163.390625c.25.597656.546875 1.179687.917969 1.71875.359375.550781.78125 1.0625 1.242187 1.519531.457031.460938.96875.882813 1.519531 1.242188.539063.359375 1.117188.667968 1.730469.917968.597657.25 1.226563.449219 1.867188.570313.640625.128906 1.300781.199219 1.949219.199219.652343 0 1.3125-.070313 1.953124-.199219.640626-.121094 1.269532-.320313 1.867188-.570313.609375-.25 1.191406-.558593 1.730469-.917968.550781-.359375 1.058593-.78125 1.519531-1.242188.460938-.457031.882812-.96875 1.242188-1.519531.359374-.539063.667968-1.121094.917968-1.71875.25-.609375.449219-1.242187.570313-1.878906.128906-.640625.199219-1.300781.199219-1.953125 0-.648438-.070313-1.308594-.199219-1.949219-.121094-.640625-.320313-1.269531-.570313-1.871094-.25-.609375-.558594-1.1875-.917968-1.726562-.359376-.550781-.78125-1.0625-1.242188-1.523438-.460938-.457031-.96875-.878906-1.519531-1.238281-.539063-.359375-1.121094-.671875-1.730469-.921875-.597656-.25-1.226562-.449219-1.867188-.566406-1.292968-.261719-2.609374-.261719-3.902343 0-.640625.117187-1.269531.316406-1.867188.566406-.613281.25-1.191406.5625-1.730469.921875-.550781.359375-1.0625.78125-1.519531 1.238281-.460937.460938-.882812.972657-1.242187 1.523438-.371094.539062-.667969 1.117187-.917969 1.726562-.25.601563-.453125 1.230469-.582031 1.871094s-.1875 1.300781-.1875 1.949219c0 .652344.058594 1.3125.1875 1.953125.128906.636719.332031 1.269531.582031 1.878906zm0 0"/><path d="m436.113281 372.402344c-.433593-.304688-.894531-.566406-1.371093-.796875-12.996094-7.382813-28.007813-11.605469-43.992188-11.605469h-50.382812v-56.109375c32.863281-19.050781 55.894531-53.242187 59.5-92.957031.007812-.089844.015624-.179688.023437-.273438.308594-3.511718.476563-7.066406.476563-10.660156v-27.710938c4.144531.453126 8.449218.679688 12.910156.679688 9.625 0 19.972656-1.046875 30.964844-3.144531 3.800781-.726563 6.839843-3.574219 7.808593-7.320313.96875-3.742187-.308593-7.707031-3.277343-10.183594-.082032-.066406-7.535157-9.15625-8.332032-37.394531 9.628906-8.089843 18.859375-18.59375 27.496094-31.292969 2.285156-3.359374 2.839844-7.84375.59375-11.226562-2.191406-3.308594-5.621094-5.070312-9.5-4.402344-1.953125-.207031-14.539062-2.34375-36.128906-23.933594-8.941406-8.941406-21.90625-14.070312-35.5625-14.070312-7.828125 0-15.484375 1.746094-22.273438 4.996094-22.640625-22.566406-52.707031-34.996094-84.699218-34.996094-66.167969 0-120 53.832031-120 120v80c0 3.625.167968 7.226562.484374 10.796875 0 .003906.003907.007813.003907.011719 2.480469 27.980468 14.5625 53.953125 34.660156 74.039062 7.527344 7.53125 15.878906 13.929688 24.851563 19.125v56.027344h-50.617188c-.667969 0-1.339844.03125-2.011719.046875l-112.90625-166.800781c-5.578125-8.242188-14.882812-13.167969-24.894531-13.167969-5.988281 0-11.785156 1.777344-16.761719 5.136719-6.617187 4.476562-11.101562 11.285156-12.621093 19.171875-1.519532 7.882812.113281 15.871093 4.59375 22.488281l105.335937 155.613281c-19.003906 16.871094-30.117187 41.222657-30.117187 66.890625v52.621094c0 5.523438 4.480468 10 10 10h379.75c5.523437 0 10-4.476562 10-10v-52.621094c0-32.730468-17.6875-61.40625-44.003907-76.976562zm-255.746093-235.175782c65.601562-22.578124 132.816406-22.5625 200 .050782v60.835937l-55.664063-10.070312c-30.105469-5.445313-60.628906-5.394531-90.71875.148437l-53.617187 9.882813zm220 14.90625v-18.484374c6.910156-.746094 13.90625-2.792969 20.839843-6.109376 1.082031 10.683594 3.09375 18.726563 5.3125 24.699219-9.492187.96875-18.308593.933594-26.152343-.105469zm8.390624-93.921874c14.089844 14.089843 25.609376 21.578124 34.222657 25.523437-6.058594 7.453125-12.308594 13.648437-18.675781 18.503906-8.253907 6.292969-16.332032 10.058594-24.109376 11.285157-.847656-16.207032-4.886718-31.757813-12.042968-46.300782-2.722656-5.578125-5.898438-10.9375-9.476563-16.035156 2.765625-.765625 5.679688-1.1875 8.664063-1.1875 8.269531 0 16.277344 3.070312 21.417968 8.210938zm-128.390624-38.210938c26.71875 0 51.832031 10.402344 70.730468 29.308594 1.527344 1.523437 3.085938 3.1875 4.632813 4.960937 5.78125 6.617188 10.644531 13.929688 14.464843 21.753907 6.199219 12.601562 9.582032 26.109374 10.097657 40.195312-67.074219-21.21875-134.171875-21.253906-199.84375-.097656 2.046875-53.347656 46.078125-96.121094 99.917969-96.121094zm-98.367188 198.113281 55.609375-10.25c27.707031-5.109375 55.8125-5.15625 83.535156-.140625l57.570313 10.417969c-8.558594 46.507813-49.398438 81.859375-98.347656 81.859375-15.886719 0-31.207032-3.679688-44.984376-10.632812-.269531-.15625-.546874-.300782-.828124-.429688-9.074219-4.691406-17.46875-10.800781-24.898438-18.230469-14.542969-14.539062-24.050781-32.773437-27.65625-52.59375zm58.367188 95.085938c12.679687 4.46875 26.160156 6.800781 40 6.800781 14.023437 0 27.484374-2.425781 40-6.863281v46.863281h-80zm-220.175782-105.027344c.507813-2.636719 1.996094-4.90625 4.1875-6.386719 1.648438-1.113281 3.574219-1.707031 5.5625-1.707031 3.359375 0 6.472656 1.636719 8.328125 4.375l107.507813 158.820313c-6.578125 1.832031-12.933594 4.414062-18.933594 7.699218l-105.132812-155.308594c-1.488282-2.195312-2.027344-4.855468-1.519532-7.492187zm80.175782 241.207031c0-22.480468 10.976562-43.667968 29.359374-56.675781 9.960938-7.050781 21.640626-11.347656 33.78125-12.421875 2.082032-.1875 4.179688-.28125 6.242188-.28125h158.246094l-27.007813 13.5c-4.941406 2.46875-6.941406 8.476562-4.476562 13.414062 1.753906 3.507813 5.285156 5.53125 8.953125 5.53125 1.503906 0 3.027344-.339843 4.464844-1.054687l62.800781-31.390625h18.015625c5.238281 0 10.335937.605469 15.246094 1.710938l-218.007813 110.289062h-7.617187v-15.855469l58.003906-28.992187c4.9375-2.46875 6.941406-8.472656 4.472656-13.414063-2.46875-4.9375-8.472656-6.941406-13.414062-4.472656l-49.0625 24.519531v-3.785156c0-5.523438-4.476563-10-10-10-5.519532 0-10 4.476562-10 10v42h-60zm359.75 42.621094h-59.75v-42c0-5.523438-4.476563-10-10-10-5.519532 0-10 4.476562-10 10v42h-148.078126l197.515626-99.921875c18.285156 12.503906 30.3125 33.523437 30.3125 57.300781zm0 0"/><path d="m261.039062 423.851562c.25.609376.558594 1.1875.921876 1.726563.367187.550781.777343 1.0625 1.25 1.523437.457031.457032.96875.878907 1.507812 1.238282.550781.359375 1.128906.671875 1.730469.921875.609375.25 1.230469.4375 1.871093.566406.648438.132813 1.308594.203125 1.957032.203125.652344 0 1.3125-.070312 1.949218-.203125.640626-.128906 1.273438-.316406 1.871094-.566406.601563-.25 1.179688-.5625 1.730469-.921875.539063-.359375 1.058594-.78125 1.519531-1.238282.460938-.460937.878906-.972656 1.242188-1.523437.359375-.539063.667968-1.117187.917968-1.726563.25-.601562.441407-1.230468.570313-1.871093s.1875-1.300781.1875-1.949219c0-.652344-.058594-1.3125-.1875-1.960938-.128906-.628906-.320313-1.261718-.570313-1.871093-.25-.597657-.558593-1.179688-.917968-1.71875-.363282-.550781-.78125-1.058594-1.242188-1.519531-.460937-.460938-.980468-.882813-1.519531-1.25-.550781-.359376-1.128906-.671876-1.730469-.921876-.597656-.25-1.230468-.4375-1.871094-.570312-1.289062-.257812-2.617187-.257812-3.90625 0-.640624.132812-1.261718.320312-1.871093.570312-.601563.25-1.179688.5625-1.730469.921876-.539062.367187-1.050781.789062-1.507812 1.25-1.871094 1.859374-2.933594 4.4375-2.933594 7.070312 0 .648438.0625 1.308594.191406 1.949219s.320312 1.269531.570312 1.871093zm0 0"/></svg>