<svg height="512pt" viewBox="0 0 512 512.001" width="512pt" xmlns="http://www.w3.org/2000/svg"><path d="m437.019531 74.980469c-48.351562-48.351563-112.636719-74.980469-181.019531-74.980469-68.378906 0-132.667969 26.628906-181.019531 74.980469-48.351563 48.351562-74.980469 112.640625-74.980469 181.019531s26.628906 132.667969 74.980469 181.019531c48.351562 48.351563 112.640625 74.980469 181.019531 74.980469s132.667969-26.628906 181.019531-74.980469c48.351563-48.351562 74.980469-112.640625 74.980469-181.019531s-26.628906-132.667969-74.980469-181.019531zm-181.019531 417.011719c-130.125 0-235.992188-105.867188-235.992188-235.992188s105.867188-235.992188 235.992188-235.992188c130.128906 0 235.992188 105.867188 235.992188 235.992188 0 130.128906-105.863282 235.992188-235.992188 235.992188zm0 0"/><path d="m253.835938 198.101562c24.394531 0 44.238281-19.84375 44.238281-44.238281s-19.84375-44.238281-44.238281-44.238281c-24.394532 0-44.238282 19.84375-44.238282 44.238281s19.84375 44.238281 44.238282 44.238281zm0-68.46875c13.363281 0 24.234374 10.867188 24.234374 24.230469s-10.871093 24.234375-24.234374 24.234375c-13.359376 0-24.230469-10.871094-24.230469-24.234375 0-13.359375 10.871093-24.230469 24.230469-24.230469zm0 0"/><path d="m209.597656 370.6875c0 24.394531 19.847656 44.238281 44.242188 44.238281 24.390625 0 44.238281-19.84375 44.238281-44.238281 0-24.390625-19.847656-44.238281-44.238281-44.238281-24.398438 0-44.242188 19.847656-44.242188 44.238281zm68.472656 0c0 13.363281-10.871093 24.234375-24.234374 24.234375-13.359376 0-24.230469-10.871094-24.230469-24.234375 0-13.359375 10.871093-24.230469 24.230469-24.230469 13.363281 0 24.234374 10.871094 24.234374 24.230469zm0 0"/><path d="m461.816406 245.996094c-5.523437 0-10 4.480468-10 10.003906 0 108.066406-87.917968 195.980469-195.984375 195.980469-51.273437 0-92.988281-41.714844-92.988281-92.988281 0-51.273438 41.714844-92.988282 92.988281-92.988282 34.382813 0 63.375-11.546875 83.835938-33.394531 18.941406-20.226563 29.375-48.570313 29.375-79.816406 0-27.363281-9.851563-52.75-26.355469-72.519531 33.632812 16.632812 62.304688 42.847656 82.007812 76.195312 0 .003906 0 .003906.003907.007812 3.449219 5.84375 6.628906 11.925782 9.445312 18.082032 1.683594 3.675781 5.308594 5.84375 9.101563 5.84375 1.394531 0 2.808594-.292969 4.15625-.910156 5.023437-2.296876 7.234375-8.234376 4.9375-13.257813-3.109375-6.785156-6.609375-13.492187-10.414063-19.933594-.003906-.003906-.007812-.007812-.011719-.015625-36.457031-61.703125-100.792968-101.261718-172.097656-105.820312-.011718 0-.019531-.003906-.027344-.003906-9.261718-.597657-18.652343-.597657-27.902343 0-54.714844 3.492187-105.613281 27.460937-143.316407 67.492187-37.867187 40.210937-58.722656 92.785156-58.722656 148.046875 0 119.09375 96.890625 215.988281 215.984375 215.988281 119.097657 0 215.988281-96.894531 215.988281-215.988281 0-5.523438-4.476562-10.003906-10.003906-10.003906zm-401.964844 10.003906c0-103.109375 80.519532-189.015625 183.316407-195.574219 4.203125-.269531 8.464843-.40625 12.664062-.40625 4.097657 0 8.25.128907 12.347657.386719 46.121093 6.09375 80.859374 45.753906 80.859374 92.386719 0 56.621093-36.585937 93.203125-93.207031 93.203125-62.304687 0-112.992187 50.691406-112.992187 112.996094 0 27.804687 10.09375 53.296874 26.816406 73.003906-64.980469-31.945313-109.804688-98.832032-109.804688-175.996094zm0 0"/><path d="m450.078125 204.667969c-.460937.457031-.882813.96875-1.242187 1.519531-.371094.539062-.667969 1.121094-.917969 1.730469-.25.601562-.453125 1.230469-.582031 1.871093-.128907.640626-.1875 1.300782-.1875 1.949219 0 .660157.058593 1.3125.1875 1.960938.128906.640625.332031 1.261719.582031 1.871093.25.601563.546875 1.179688.917969 1.71875.359374.550782.78125 1.0625 1.242187 1.53125.460937.460938.96875.871094 1.519531 1.242188.542969.359375 1.121094.667969 1.730469.917969.601563.25 1.230469.441406 1.871094.570312.640625.132813 1.300781.191407 1.949219.191407.648437 0 1.3125-.058594 1.953124-.191407.640626-.128906 1.269532-.320312 1.867188-.570312.609375-.25 1.191406-.558594 1.730469-.917969.550781-.371094 1.0625-.78125 1.523437-1.242188.460938-.46875.878906-.980468 1.238282-1.53125.359374-.539062.671874-1.117187.921874-1.71875.25-.609374.449219-1.230468.570313-1.871093.128906-.648438.199219-1.300781.199219-1.960938 0-.648437-.070313-1.308593-.199219-1.949219-.121094-.640624-.320313-1.269531-.570313-1.871093-.25-.609375-.5625-1.191407-.921874-1.730469-.359376-.550781-.777344-1.0625-1.238282-1.519531-.460937-.460938-.972656-.882813-1.523437-1.242188-.539063-.359375-1.121094-.667969-1.730469-.917969-.597656-.25-1.226562-.441406-1.867188-.570312-1.292968-.261719-2.613281-.261719-3.902343 0-.640625.128906-1.269531.320312-1.871094.570312-.609375.25-1.1875.558594-1.730469.917969-.550781.359375-1.058594.78125-1.519531 1.242188zm0 0"/></svg>