<svg height="512pt" viewBox="-35 0 512 512" width="512pt" xmlns="http://www.w3.org/2000/svg"><path d="m422.703125 82.078125c-12.992187-15.238281-31.039063-25.371094-50.8125-28.535156-.09375-.015625-.191406-.027344-.285156-.042969l-76.738281-9.996094v-33.484375c0-5.535156-4.484376-10.019531-10.019532-10.019531h-42.542968c-8.003907 0-15.304688 3.058594-20.800782 8.070312-5.453125-5.007812-12.71875-8.070312-20.691406-8.070312h-42.808594c-5.53125 0-10.019531 4.484375-10.019531 10.019531v33.484375l-76.675781 9.988282c-.09375.011718-.191406.027343-.285156.042968-19.792969 3.164063-37.851563 13.308594-50.855469 28.558594-13.007813 15.25-20.167969 34.6875-20.167969 54.726562v274.871094c0 5.535156 4.488281 10.019532 10.019531 10.019532h74.542969v80.269531c0 5.535156 4.488281 10.019531 10.019531 10.019531h253.6875c5.535157 0 10.019531-4.484375 10.019531-10.019531v-80.269531h74.542969c5.53125 0 10.019531-4.484376 10.019531-10.019532v-274.929687c0-20.027344-7.152343-39.445313-20.148437-54.683594zm-180.398437-62.039063h32.523437v22.242188h-43.382813v-11.386719c0-5.984375 4.871094-10.855469 10.859376-10.855469zm-74.28125 0h32.789062c5.84375 0 10.59375 4.753907 10.59375 10.59375v11.648438h-43.382812zm-93.976563 53.304688 84.605469-11.023438h52.753906v36.371094h-11.121094c-5.53125 0-10.019531 4.484375-10.019531 10.019532 0 5.53125 4.488281 10.019531 10.019531 10.019531h11.121094v40.066406h-11.121094c-5.53125 0-10.019531 4.484375-10.019531 10.019531 0 5.53125 4.488281 10.019532 10.019531 10.019532h11.121094v40.066406h-11.121094c-5.53125 0-10.019531 4.484375-10.019531 10.019531 0 5.53125 4.488281 10.019531 10.019531 10.019531h11.121094v40.066406h-11.121094c-5.53125 0-10.019531 4.484376-10.019531 10.019532 0 5.53125 4.488281 10.019531 10.019531 10.019531h11.121094v40.0625h-11.121094c-5.53125 0-10.019531 4.488281-10.019531 10.023437 0 5.53125 4.488281 10.019532 10.019531 10.019532h11.121094v40.0625h-11.121094c-5.53125 0-10.019531 4.488281-10.019531 10.019531 0 5.535156 4.488281 10.019531 10.019531 10.019531h11.121094v30.667969l-106.804688-.109375v-249.527344c0-5.53125-4.488281-10.019531-10.019531-10.019531s-10.019531 4.488281-10.019531 10.019531v159.105469h-64.523438v-222.570313c0-31.726562 22.703126-58.398437 54.007813-63.476562zm-54.007813 328.328125v-22.242187h64.523438v22.242187zm84.5625 68.179687 106.804688.109376v22h-106.804688zm126.84375 22.109376v-21.980469l11.308594.011719h.011719c5.527344 0 10.011719-4.480469 10.019531-10.007813.003906-5.535156-4.476562-10.023437-10.011718-10.03125l-11.328126-.011719v-30.683594h11.121094c5.535156 0 10.019532-4.488281 10.019532-10.019531 0-5.535156-4.484376-10.019531-10.019532-10.019531h-11.121094v-40.066406h11.121094c5.535156 0 10.019532-4.488282 10.019532-10.019532 0-5.535156-4.484376-10.019531-10.019532-10.019531h-11.121094v-40.066406h11.121094c5.535156 0 10.019532-4.488281 10.019532-10.019531 0-5.535156-4.484376-10.019532-10.019532-10.019532h-11.121094v-40.066406h11.121094c5.535156 0 10.019532-4.488281 10.019532-10.019531 0-5.535156-4.484376-10.019531-10.019532-10.019531h-11.121094v-40.066406h11.121094c5.535156 0 10.019532-4.488282 10.019532-10.019532 0-5.535156-4.484376-10.019531-10.019532-10.019531h-11.121094v-40.066406h11.121094c5.535156 0 10.019532-4.488281 10.019532-10.019531 0-5.535157-4.484376-10.019532-10.019532-10.019532h-11.121094v-36.371094h52.753907l84.667969 11.035157c31.265624 5.070312 53.945312 31.710937 53.945312 63.40625v222.628906h-64.523438v-159.105469c0-5.53125-4.484374-10.019531-10.019531-10.019531-5.53125 0-10.019531 4.488281-10.019531 10.019531v249.523438l-15.273438.011718c-5.535156.003907-10.015624 4.492188-10.011718 10.027344.003906 5.53125 4.484375 10.011719 10.019531 10.011719h.003906l15.261719-.007813v22.109376zm126.84375-90.289063v-22.242187h64.523438v22.242187zm0 0"/><path d="m292.09375 456.140625c-.25-.601563-.5625-1.183594-.921875-1.734375-.359375-.539062-.78125-1.0625-1.242187-1.523438-.460938-.460937-.980469-.878906-1.523438-1.242187-.550781-.359375-1.132812-.667969-1.730469-.921875-.605469-.25-1.234375-.4375-1.875-.570312-1.292969-.257813-2.625-.257813-3.917969 0-.640624.132812-1.273437.320312-1.875.570312-.597656.253906-1.179687.5625-1.730468.921875-.542969.363281-1.054688.78125-1.515625 1.242187-.46875.460938-.878907.984376-1.25 1.523438-.359375.550781-.671875 1.132812-.921875 1.734375-.253906.601563-.441406 1.234375-.570313 1.875-.132812.648437-.191406 1.300781-.191406 1.960937 0 .652344.058594 1.304688.191406 1.957032.128907.640625.316407 1.269531.570313 1.871094.25.601562.5625 1.183593.921875 1.734374.371093.542969.78125 1.0625 1.25 1.523438.460937.460938.972656.871094 1.515625 1.242188.550781.359374 1.132812.671874 1.730468.921874.601563.25 1.234376.441407 1.875.570313.640626.132813 1.300782.199219 1.953126.199219.660156 0 1.3125-.066406 1.964843-.199219.640625-.128906 1.273438-.320313 1.875-.570313.597657-.25 1.179688-.5625 1.730469-.921874.542969-.371094 1.0625-.78125 1.523438-1.242188.460937-.460938.882812-.980469 1.242187-1.523438.359375-.550781.671875-1.132812.921875-1.734374.25-.601563.441406-1.230469.570312-1.871094.128907-.652344.191407-1.304688.191407-1.957032 0-.660156-.0625-1.3125-.191407-1.960937-.128906-.640625-.320312-1.273437-.570312-1.875zm0 0"/></svg>