<svg height="512.00002pt" viewBox="0 0 512.00002 512.00002" width="512.00002pt" xmlns="http://www.w3.org/2000/svg"><path d="m317.402344 255.996094s16.554687-16.558594 16.566406-16.566406c0 0 141.976562-141.976563 141.984375-141.984376.007813-.007812.015625-.015624.023437-.023437l23.308594-23.308594c8.199219-8.199219 12.714844-19.105469 12.714844-30.703125s-4.519531-22.5-12.71875-30.699218c-16.929688-16.925782-44.46875-16.921876-61.398438.003906l-181.878906 181.890625-181.886718-181.894531c-8.199219-8.195313-19.097657-12.710938-30.691407-12.710938-.003906 0-.011719 0-.015625 0-11.597656.00390625-22.5 4.523438-30.691406 12.71875-8.199219 8.199219-12.71875 19.101562-12.71875 30.699219 0 11.597656 4.519531 22.503906 12.71875 30.695312 0 0 181.351562 186.011719 181.886719 181.878907l-181.886719 181.886718c-8.199219 8.199219-12.71484375 19.105469-12.71484375 30.703125 0 11.597657 4.51562475 22.5 12.71484375 30.699219 8.199219 8.203125 19.105469 12.71875 30.703125 12.71875s22.5-4.515625 30.703125-12.71875l181.882812-181.878906 181.875 181.875c8.199219 8.199218 19.101563 12.714844 30.699219 12.714844 11.5625 0 22.433594-4.488282 30.621094-12.640626.007813-.007812.019531-.015624.027344-.019531l.011719-.011719c.011718-.015624.027343-.027343.039062-.042968 16.929688-16.925782 16.929688-44.472656 0-61.398438zm-68.507813 40.199218-16.507812 16.503907-33.085938-33.082031 16.472657-16.472657c.027343-.023437.054687-.042969.078124-.070312.023438-.023438.042969-.050781.066407-.074219l16.464843-16.460938 33.082032 33.078126zm-96.929687-111.160156 33.074218-33.074218 33.175782 33.175781-33.070313 33.074219zm-47.335938-47.335937 33.078125-33.074219 33.171875 33.175781-33.074218 33.074219zm-47.335937-47.335938 33.078125-33.078125 33.175781 33.179688-33.078125 33.074218zm175.082031 108.9375 9.464844 9.464844-15.585938 15.582031c-.351562.269532-.695312.558594-1.019531.878906-.320313.324219-.609375.667969-.875 1.019532l-15.59375 15.585937-9.460937-9.460937zm47.25 66.15625-33.078125-33.078125 16.507813-16.503906 16.574218-16.574219 33.074219 33.070313-16.578125 16.578125zm47.339844-113.496093 33.074218 33.074218-33.175781 33.175782-33.074219-33.074219zm47.332031-47.335938 33.078125 33.074219-33.175781 33.175781-33.074219-33.074219zm47.335937-47.335938 33.078126 33.074219-33.175782 33.175781-33.078125-33.074218zm30.414063-30.414062c4.558594-4.5625 10.546875-6.839844 16.539063-6.839844 5.988281 0 11.976562 2.277344 16.535156 6.835938 4.417968 4.417968 6.851562 10.292968 6.851562 16.539062 0 6.25-2.429687 12.125-6.847656 16.542969l-16.253906 16.25-33.078125-33.074219zm-432.019531 16.542969c0-6.246094 2.429687-12.117188 6.851562-16.539063 4.417969-4.417968 10.289063-6.851562 16.539063-6.851562h.007812c6.246094 0 12.117188 2.429687 16.53125 6.84375l16.253907 16.253906-33.082032 33.078125-16.253906-16.253906c-4.417969-4.410157-6.847656-10.285157-6.847656-16.53125zm39.9375 441.703125c-4.417969 4.417968-10.292969 6.851562-16.542969 6.851562s-12.121094-2.433594-16.542969-6.851562c-9.121094-9.121094-9.121094-23.960938 0-33.082032l158.261719-158.261718 33.085937 33.082031zm392.078125-.003906-181.875-181.875 33.074219-33.085938 181.878906 181.882812c6.5625 6.558594 8.375 16.066407 5.5 24.289063l-71.714844-72.785156c-3.878906-3.9375-10.21875-3.984375-14.160156-.101563-3.9375 3.878906-3.984375 10.21875-.101563 14.160156l71.90625 72.980469c-2.519531.910157-5.207031 1.386719-7.96875 1.386719-6.25 0-12.121093-2.433594-16.539062-6.851562zm0 0"/><path d="m392.566406 378.472656c-.25-.601562-.5625-1.183594-.921875-1.730468-.371093-.542969-.78125-1.0625-1.242187-1.523438-.46875-.460938-.980469-.871094-1.53125-1.242188-.539063-.359374-1.121094-.671874-1.722656-.921874-.609376-.25-1.230469-.4375-1.871094-.570313-1.292969-.257813-2.625-.257813-3.914063 0-.640625.132813-1.273437.320313-1.875.570313-.601562.25-1.191406.5625-1.730469.921874-.542968.371094-1.0625.78125-1.523437 1.242188s-.878906.980469-1.242187 1.523438c-.359376.550781-.667969 1.128906-.917969 1.730468-.253907.601563-.441407 1.230469-.574219 1.871094-.128906.652344-.199219 1.304688-.199219 1.953125 0 .660156.070313 1.3125.199219 1.960937.132812.644532.320312 1.273438.574219 1.875.25.601563.558593 1.179688.917969 1.730469.363281.542969.78125 1.0625 1.242187 1.523438.460937.460937.980469.878906 1.523437 1.242187.539063.359375 1.128907.667969 1.730469.917969.601563.253906 1.234375.441406 1.875.574219.640625.128906 1.300781.199218 1.949219.199218.664062 0 1.3125-.070312 1.964844-.199218.640625-.132813 1.261718-.320313 1.871094-.574219.601562-.25 1.183593-.558594 1.722656-.917969.550781-.363281 1.0625-.78125 1.53125-1.242187.460937-.460938.871094-.980469 1.242187-1.523438.359375-.550781.671875-1.128906.921875-1.730469.25-.601562.441406-1.230468.570313-1.875.128906-.648437.191406-1.300781.191406-1.960937 0-.648437-.0625-1.300781-.191406-1.953125-.132813-.640625-.320313-1.269531-.570313-1.871094zm0 0"/></svg>