<svg height="512pt" viewBox="0 -61 512.00001 512" width="512pt" xmlns="http://www.w3.org/2000/svg"><path d="m501.972656 49.75h-382.71875c-.070312-.386719-.125-.777344-.199218-1.160156-2.300782-11.726563-8.023438-22.421875-16.535157-30.925782-11.382812-11.390624-26.46875-17.664062-42.488281-17.664062-28.664062 0-53.488281 20.433594-59.019531 48.589844-.492188 2.507812-.824219 5.0625-.9921878 7.59375-.0117187.214844-.0195312.433594-.0195312.648437v269.40625.003907 4.0625c0 32.617187 26.929688 59.148437 60.035156 59.148437h441.9375c5.539063 0 10.027344-4.488281 10.027344-10.023437v-319.652344c0-5.539063-4.488281-10.027344-10.027344-10.027344zm-10.023437 319.652344h-431.914063c-22.046875 0-39.984375-17.539063-39.984375-39.097656v-3.65625c1.445313-20.820313 18.886719-37.097657 39.816407-37.097657 22.117187 0 40.109374 17.910157 40.109374 39.929688 0 5.535156 4.488282 10.023437 10.023438 10.023437h.003906c5.535156 0 10.023438-4.484375 10.027344-10.019531l.058594-109.875c.003906-5.539063-4.484375-10.03125-10.019532-10.035156-.003906 0-.003906 0-.003906 0-5.535156 0-10.023437 4.488281-10.027344 10.023437l-.035156 65.234375c-10.65625-9.527343-24.730468-15.332031-40.136718-15.332031-15.203126 0-29.183594 5.71875-39.816407 15.164062v-227.484374c.117188-1.578126.332031-3.164063.636719-4.726563 3.691406-18.773437 20.238281-32.402344 39.34375-32.402344 10.660156 0 20.710938 4.1875 28.308594 11.792969 5.691406 5.683594 9.507812 12.808594 11.039062 20.621094.496094 2.5.746094 5.085937.746094 7.675781l-.042969 79.492187c-.003906 5.535157 4.484375 10.027344 10.019531 10.03125h.007813c5.53125 0 10.019531-4.484374 10.023437-10.019531l.039063-69.84375h371.773437v299.601563zm0 0"/><path d="m371.316406 166.21875c.03125.269531.058594.535156.082032.804688.476562 5.207031 4.847656 9.117187 9.972656 9.117187.304687 0 .613281-.015625.921875-.042969 5.515625-.5 9.578125-5.378906 9.074219-10.894531-.035157-.394531-.074219-.792969-.117188-1.1875-.609375-5.503906-5.558594-9.46875-11.070312-8.863281-5.503907.605468-9.46875 5.5625-8.863282 11.066406zm0 0"/><path d="m322.453125 131.800781c.683594 0 1.378906-.070312 2.070313-.214843.257812-.054688.515624-.105469.773437-.152344 5.441406-1.023438 9.027344-6.261719 8.007813-11.703125-1.023438-5.441407-6.261719-9.023438-11.703126-8.007813-.398437.078125-.796874.15625-1.195312.238282-5.417969 1.136718-8.890625 6.453124-7.753906 11.871093.992187 4.726563 5.15625 7.96875 9.800781 7.96875zm0 0"/><path d="m285.773438 154.421875c1.519531.828125 3.160156 1.21875 4.777343 1.21875 3.554688 0 7-1.898437 8.816407-5.242187.125-.230469.25-.457032.378906-.679688 2.753906-4.804688 1.089844-10.933594-3.714844-13.683594s-10.933594-1.085937-13.683594 3.71875c-.203125.355469-.402344.710938-.597656 1.074219-2.644531 4.863281-.84375 10.953125 4.023438 13.59375zm0 0"/><path d="m284.734375 195.765625c5.539063 0 10.027344-4.492187 10.027344-10.027344v-1.003906c0-5.535156-4.488281-10.023437-10.027344-10.023437-5.535156 0-10.023437 4.488281-10.023437 10.023437v1.003906c0 5.539063 4.488281 10.027344 10.023437 10.027344zm0 0"/><path d="m381.59375 196.183594c-5.539062 0-10.027344 4.488281-10.027344 10.027344v1c0 5.539062 4.488282 10.027343 10.027344 10.027343 5.535156 0 10.023438-4.488281 10.023438-10.027343v-1c0-5.539063-4.488282-10.027344-10.023438-10.027344zm0 0"/><path d="m355.410156 138.507812c.21875.160157.433594.324219.648438.492188 1.828125 1.414062 3.988281 2.097656 6.132812 2.097656 2.996094 0 5.957032-1.335937 7.933594-3.890625 3.390625-4.378906 2.589844-10.675781-1.792969-14.0625-.3125-.246093-.628906-.484375-.945312-.722656-4.441407-3.304687-10.722657-2.386719-14.03125 2.054687-3.304688 4.441407-2.386719 10.722657 2.054687 14.03125zm0 0"/><path d="m189.984375 151.835938c5.539063 0 10.027344-4.488282 10.027344-10.027344v-1c0-5.539063-4.488281-10.027344-10.027344-10.027344-5.535156 0-10.023437 4.488281-10.023437 10.027344v1c0 5.539062 4.488281 10.027344 10.023437 10.027344zm0 0"/><path d="m192.167969 268.019531c.25.320313.503906.640625.757812.957031 1.984375 2.4375 4.871094 3.699219 7.785157 3.699219 2.222656 0 4.460937-.734375 6.320312-2.246093 4.296875-3.496094 4.945312-9.808594 1.453125-14.105469-.164063-.203125-.328125-.40625-.488281-.617188-3.402344-4.367187-9.699219-5.15625-14.070313-1.757812-4.371093 3.398437-5.160156 9.699219-1.757812 14.070312zm0 0"/><path d="m284.734375 236.871094c5.539063 0 10.027344-4.488282 10.027344-10.027344v-1c0-5.539062-4.488281-10.027344-10.027344-10.027344-5.535156 0-10.023437 4.488282-10.023437 10.027344v1c0 5.539062 4.488281 10.027344 10.023437 10.027344zm0 0"/><path d="m189.984375 192.941406c5.539063 0 10.027344-4.488281 10.027344-10.023437v-1.003907c0-5.535156-4.488281-10.027343-10.027344-10.027343-5.535156 0-10.023437 4.492187-10.023437 10.027343v1.003907c0 5.535156 4.488281 10.023437 10.023437 10.023437zm0 0"/><path d="m189.984375 234.050781c5.539063 0 10.027344-4.488281 10.027344-10.027343v-1c0-5.539063-4.488281-10.027344-10.027344-10.027344-5.535156 0-10.023437 4.488281-10.023437 10.027344v1c0 5.539062 4.488281 10.027343 10.023437 10.027343zm0 0"/><path d="m189.984375 110.730469c5.539063 0 10.027344-4.492188 10.027344-10.027344v-1.003906c0-5.535157-4.488281-10.023438-10.027344-10.023438-5.535156 0-10.023437 4.488281-10.023437 10.023438v1.003906c0 5.535156 4.488281 10.027344 10.023437 10.027344zm0 0"/><path d="m272.171875 274.808594c2.71875 0 5.433594-1.101563 7.410156-3.265625.265625-.292969.53125-.589844.792969-.886719 3.65625-4.160156 3.246094-10.496094-.914062-14.148438-4.15625-3.65625-10.492188-3.25-14.148438.910157-.179688.203125-.359375.40625-.542969.605469-3.734375 4.089843-3.441406 10.429687.644531 14.164062 1.925782 1.757812 4.34375 2.621094 6.757813 2.621094zm0 0"/><path d="m235.039062 290.148438c.410157.019531.824219.027343 1.234376.035156.0625 0 .121093.003906.179687.003906 5.457031 0 9.925781-4.375 10.023437-9.851562.097657-5.535157-4.3125-10.101563-9.847656-10.199219-.257812-.003907-.511718-.011719-.765625-.023438-5.519531-.234375-10.203125 4.074219-10.429687 9.605469-.226563 5.53125 4.074218 10.203125 9.605468 10.429688zm0 0"/><path d="m341.042969 300.222656h11.90625c2.996093 8.453125 9.671875 15.183594 18.09375 18.25v11.75c0 5.539063 4.488281 10.027344 10.027343 10.027344 5.535157 0 10.023438-4.488281 10.023438-10.027344v-11.59375c8.640625-2.984375 15.507812-9.796875 18.5625-18.40625h11.441406c5.535156 0 10.023438-4.488281 10.023438-10.023437 0-5.539063-4.488282-10.027344-10.023438-10.027344h-11.441406c-3.054688-8.609375-9.921875-15.421875-18.5625-18.40625v-11.59375c0-5.535156-4.488281-10.027344-10.023438-10.027344-5.539062 0-10.027343 4.492188-10.027343 10.027344v11.753906c-8.421875 3.0625-15.097657 9.792969-18.09375 18.246094h-11.90625c-5.539063 0-10.027344 4.492187-10.027344 10.027344 0 5.535156 4.488281 10.023437 10.027344 10.023437zm40.257812 0c-5.527343 0-10.023437-4.496094-10.023437-10.027344 0-5.527343 4.496094-10.023437 10.023437-10.023437 5.53125 0 10.027344 4.496094 10.027344 10.023437 0 5.53125-4.496094 10.027344-10.027344 10.027344zm0 0"/><path d="m119.148438 175.617188c-.25-.601563-.558594-1.183594-.921876-1.734376-.371093-.539062-.789062-1.050781-1.253906-1.511718-2.324218-2.335938-5.78125-3.398438-9.042968-2.746094-.640626.128906-1.273438.320312-1.875.570312-.609376.25-1.191407.5625-1.734376.921876-.550781.371093-1.0625.78125-1.523437 1.253906-.460937.460937-.882813.972656-1.242187 1.511718-.359376.554688-.671876 1.136719-.921876 1.734376-.25.601562-.441406 1.234374-.574218 1.875-.128906.652343-.199219 1.304687-.199219 1.964843 0 .652344.070313 1.316407.199219 1.957031.132812.640626.324218 1.273438.574218 1.875.25.601563.5625 1.183594.921876 1.734376.359374.539062.78125 1.050781 1.242187 1.523437.460937.460937.972656.882813 1.523437 1.242187.542969.359376 1.125.671876 1.734376.921876.601562.253906 1.234374.441406 1.875.570312.644531.132812 1.304687.203125 1.957031.203125.652343 0 1.3125-.070313 1.964843-.203125.632813-.128906 1.261719-.316406 1.875-.570312.601563-.25 1.183594-.5625 1.722657-.921876.554687-.359374 1.0625-.78125 1.523437-1.242187.464844-.472656.882813-.984375 1.253906-1.523437.363282-.554688.671876-1.132813.921876-1.734376.253906-.601562.441406-1.234374.574218-1.875.128906-.644531.191406-1.304687.191406-1.957031 0-.660156-.0625-1.3125-.191406-1.964843-.132812-.640626-.320312-1.273438-.574218-1.875zm0 0"/></svg>