<svg height="511pt" viewBox="-26 1 511 511.9988" width="511pt" xmlns="http://www.w3.org/2000/svg"><path d="m400.679688 178.257812v-62.277343c0-26.914063-15.007813-51.011719-39.167969-62.894531l-88.109375-43.308594c-13.242188-6.503906-28.042969-9.8359378-42.769532-9.777344-.011718 0-.023437 0-.035156 0-.023437 0-.042968 0-.066406 0-14.105469.101562-28.28125 3.421875-40.988281 9.601562l-89.570313 43.539063c-23.960937 11.648437-39.445312 36.386719-39.445312 63.03125v62.089844l-59.859375 321.902343c-.542969 2.921876.242187 5.9375 2.140625 8.226563 1.902344 2.285156 4.722656 3.605469 7.695312 3.605469h60.195313c27.492187 0 49.855469-22.367188 49.855469-49.859375v-12.546875l67.808593 40.671875c12.726563 7.632812 27.296875 11.679687 42.136719 11.699219h.117188c14.929687 0 29.578124-4.070313 42.371093-11.773438l67.664063-40.746094v19.367188c0 23.816406 19.375 43.191406 43.1875 43.191406h66.863281c2.972656 0 5.789063-1.324219 7.691406-3.609375 1.898438-2.289063 2.6875-5.300781 2.140625-8.226563zm-47.996094-107.214843c17 8.359375 27.988281 26 27.988281 44.9375v53.195312h-20.011719v-31.707031c0-20.996094-9.285156-40.703125-25.472656-54.074219l-62.679688-51.757812zm-82.0625 378.257812c-5.523438 0-10.003906 4.480469-10.003906 10.003907v14.921874c-6.242188 3.441407-13.011719 5.773438-20.011719 6.910157v-112.160157c6.671875-.269531 13.34375-.808593 20.011719-1.617187v11.910156c0 5.523438 4.480468 10.003907 10.003906 10.003907 5.523437 0 10.003906-4.480469 10.003906-10.003907v-15.148437c6.671875-1.351563 13.34375-2.972656 20.007812-4.863282v90.925782l-20.007812 12.050781v-2.929687c0-5.523438-4.480469-10.003907-10.003906-10.003907zm-90.039063-85.179687v98.140625l-20.011719-12v-91.003907c6.667969 1.890626 13.335938 3.511719 20.011719 4.863282zm20.007813 3.238281c6.667968.808594 13.335937 1.347656 20.007812 1.617187v112.160157c-6.996094-1.144531-13.769531-3.476563-20.007812-6.921875zm-80.035156-44.816406v-133.359375h220.097656v133.359375c-73.054688 35.34375-147.046875 35.34375-220.097656 0zm220.097656-153.367188h-20.007813v-29.179687c0-17.011719-13.839843-30.847656-30.847656-30.847656h-49.191406v-77.910157l81.839843 67.585938c11.570313 9.550781 18.207032 23.636719 18.207032 38.644531zm-60.027344 0v-40.019531h9.171875c5.976563 0 10.835937 4.863281 10.835937 10.839844v29.179687zm-40.019531 0v-40.019531h20.011719v40.019531zm-40.015625 0v-40.019531h20.007812v40.019531zm-40.019532 0v-29.179687c0-5.976563 4.863282-10.839844 10.839844-10.839844h9.171875v40.019531zm60.027344-137.933593v77.90625h-49.1875c-17.007812 0-30.847656 13.835937-30.847656 30.847656v29.179687h-20.007812v-31.515625c0-15.128906 6.6875-29.328125 18.355468-38.957031zm-140.0625 84.929687c0-19.039063 11.0625-36.714844 28.183594-45.039063l78.148438-37.984374-60.695313 50.125c-16.289063 13.441406-25.628906 33.265624-25.628906 54.386718v31.511719h-20.007813zm20.007813 345.964844c0 16.460937-13.386719 29.851562-29.84375 29.851562h-48.160157l56.304688-302.804687h21.699219zm20.011719-117.523438c6.660156 2.984375 13.332031 5.699219 20.007812 8.144531v85.503907l-20.007812-12zm200.089843 93.523438v-85.382813c6.671875-2.441406 13.34375-5.15625 20.007813-8.144531v81.476563zm63.195313 53.851562c-12.78125 0-23.179688-10.398437-23.179688-23.179687v-279.625h21.699219l56.304687 302.804687zm0 0"/><path d="m280.503906 417.707031c-.128906-.640625-.320312-1.273437-.570312-1.871093-.25-.609376-.558594-1.191407-.917969-1.730469-.371094-.550781-.78125-1.0625-1.242187-1.519531-2.332032-2.324219-5.78125-3.394532-9.03125-2.734376-.644532.132813-1.273438.320313-1.871094.570313-.601563.25-1.183594.5625-1.730469.921875-.542969.359375-1.0625.78125-1.523437 1.242188-.457032.457031-.878907.96875-1.238282 1.519531-.359375.539062-.671875 1.121093-.921875 1.730469-.25.601562-.441406 1.230468-.570312 1.871093-.128907.640625-.1875 1.300781-.1875 1.949219s.058593 1.3125.1875 1.960938c.128906.632812.320312 1.261718.570312 1.871093.25.601563.5625 1.179688.921875 1.722657.359375.550781.78125 1.058593 1.238282 1.519531.460937.460937.980468.878906 1.523437 1.242187.539063.367188 1.128906.679688 1.730469.929688.597656.25 1.226562.4375 1.871094.570312.648437.128906 1.300781.1875 1.960937.1875 2.628906 0 5.199219-1.070312 7.070313-2.929687 1.859374-1.859375 2.921874-4.441407 2.921874-7.074219 0-.648438-.058593-1.308594-.191406-1.949219zm0 0"/></svg>