<svg height="512pt" viewBox="-33 0 512 512" width="512pt" xmlns="http://www.w3.org/2000/svg"><path d="m217.449219 338.554688c.011719-.191407.019531-.382813.015625-.574219 0-.167969-.003906-.332031-.015625-.496094-.003907-.101563 0-.203125-.007813-.304687-4.292968-52.140626-4.417968-104.992188-.402344-157.179688h37.960938c38.597656 0 70-31.402344 70-70 0-5.523438-4.476562-10-10-10h-59.75c-16.734375 0-31.570312 8.230469-40.710938 20.84375-1.0625-36.707031-.101562-73.539062 2.902344-110.023438.226563-2.785156-.71875-5.539062-2.613281-7.59375-1.890625-2.054687-4.558594-3.226562-7.351563-3.226562h-90.148437c-2.800781 0-5.476563 1.175781-7.371094 3.246094-1.894531 2.066406-2.835937 4.832031-2.589843 7.625 4.621093 52.714844 4.617187 107.316406-.003907 162.289062-.007812.097656-.003906.191406-.007812.285156-.011719.195313-.019531.394532-.019531.59375.003906.164063.011718.324219.019531.484376.003906.117187.003906.230468.011719.347656 3.253906 37.125 4.203124 75.195312 2.875 113.664062-9.15625-12.441406-23.894532-20.535156-40.492188-20.535156h-59.75c-5.523438 0-10 4.476562-10 10 0 38.597656 31.402344 70 70 70h38.117188c3.851562 49.878906 3.601562 101.355469-.753907 153.160156-.230469 2.789063.710938 5.550782 2.605469 7.609375 1.894531 2.058594 4.5625 3.230469 7.359375 3.230469h90.148437c2.792969 0 5.460938-1.171875 7.351563-3.226562 1.894531-2.054688 2.84375-4.808594 2.613281-7.59375-4.433594-53.867188-4.433594-108.492188 0-162.359376.007813-.089843.003906-.175781.007813-.265624zm7.550781-188.304688c0-16.679688 13.570312-30.25 30.25-30.25h48.746094c-4.648438 22.792969-24.851563 40-48.996094 40h-30zm-125 177.75h-30c-24.144531 0-44.351562-17.207031-48.996094-40h48.746094c16.679688 0 30.25 13.570312 30.25 30.25zm96.679688 0h-68.535157c3.570313-48.683594 3.578125-97.019531.03125-144h68.503907c-3.414063 47.832031-3.414063 96.167969 0 144zm-68.5-308h68.496093c-3.414062 47.832031-3.414062 96.167969 0 144h-68.527343c3.566406-48.683594 3.578124-97.019531.03125-144zm68.496093 472h-10.710937v-41.332031c0-5.523438-4.480469-10-10-10-5.523438 0-10 4.476562-10 10v41.332031h-37.816406c3.566406-48.683594 3.578124-97.019531.03125-144h68.496093c-3.414062 47.832031-3.414062 96.167969 0 144zm0 0"/><path d="m445.96875 350.785156c.007812-.085937.003906-.167968.007812-.253906.007813-.164062.011719-.324219.011719-.488281.003907-.191407 0-.378907-.011719-.566407-.003906-.074218 0-.148437-.003906-.222656-3.945312-52.589844-3.945312-105.917968 0-158.507812.207032-2.773438-.75-5.507813-2.640625-7.546875-1.894531-2.039063-4.550781-3.199219-7.332031-3.199219h-80.128906c-2.789063 0-5.453125 1.164062-7.347656 3.214844-1.894532 2.050781-2.84375 4.800781-2.621094 7.582031 2.945312 36.871094 3.765625 74.691406 2.492187 112.914063-8.886719-14.222657-24.671875-23.710938-42.644531-23.710938h-59.75c-5.523438 0-10 4.476562-10 10 0 38.597656 31.402344 70 70 70h40c.191406 0 .382812-.019531.574219-.027344 3.46875 50.160156 3.25 96.429688-.664063 141.15625-.246094 2.792969.695313 5.558594 2.589844 7.628906 1.894531 2.066407 4.566406 3.242188 7.371094 3.242188h80.128906c2.789062 0 5.449219-1.164062 7.34375-3.214844 1.894531-2.046875 2.84375-4.792968 2.625-7.570312-3.941406-49.910156-3.941406-100.519532 0-150.429688zm-109.96875-10.785156h-30c-24.144531 0-44.351562-17.207031-48.996094-40h48.746094c16.679688 0 30.25 13.570312 30.25 30.25zm30.640625-140h58.636719c-3.015625 46.5-3.015625 93.5 0 140h-58.664063c3.152344-47.332031 3.160157-94.328125.027344-140zm.070313 292c3.109374-41.972656 3.078124-85.371094-.09375-132h58.628906c-2.96875 43.847656-2.972656 88.152344-.007813 132zm0 0"/><path d="m185.269531 407.210938c-.25-.601563-.558593-1.183594-.917969-1.722657-.359374-.550781-.78125-1.058593-1.242187-1.519531s-.96875-.878906-1.519531-1.25c-.539063-.359375-1.128906-.667969-1.730469-.917969-.597656-.25-1.226563-.441406-1.867187-.570312-1.292969-.261719-2.621094-.261719-3.910157 0-.632812.128906-1.261719.320312-1.871093.570312-.601563.25-1.179688.558594-1.71875.917969-.550782.371094-1.0625.789062-1.523438 1.25-.46875.460938-.878906.96875-1.25 1.519531-.359375.539063-.667969 1.121094-.917969 1.722657-.25.609374-.441406 1.226562-.570312 1.867187-.128907.652344-.191407 1.3125-.191407 1.960937 0 .648438.0625 1.3125.191407 1.949219.128906.640625.320312 1.273438.570312 1.871094.25.609375.558594 1.191406.917969 1.730469.371094.550781.78125 1.058594 1.25 1.519531.460938.460937.972656.878906 1.523438 1.238281.539062.363282 1.117187.671875 1.71875.921875.609374.25 1.238281.441407 1.871093.570313.648438.128906 1.308594.199218 1.957031.199218.652344 0 1.3125-.070312 1.953126-.199218.640624-.128906 1.269531-.320313 1.867187-.570313.601563-.25 1.191406-.558593 1.730469-.921875.550781-.359375 1.058594-.777344 1.519531-1.238281s.882813-.96875 1.242187-1.519531c.359376-.539063.667969-1.121094.917969-1.730469.25-.601563.441407-1.230469.570313-1.871094s.199218-1.300781.199218-1.949219c0-.648437-.070312-1.308593-.199218-1.960937-.128906-.640625-.320313-1.257813-.570313-1.867187zm0 0"/></svg>