<svg height="512pt" viewBox="-7 0 512 512.00147" width="512pt" xmlns="http://www.w3.org/2000/svg"><path d="m253.777344.835938c-.203125-.089844-.410156-.160157-.617188-.234376-.082031-.03125-.160156-.0625-.242187-.089843-.21875-.074219-.4375-.128907-.660157-.1875-.097656-.023438-.191406-.054688-.289062-.078125-.195312-.042969-.394531-.074219-.589844-.105469-.128906-.019531-.257812-.046875-.390625-.0625-.164062-.0234375-.324219-.03125-.488281-.0429688-.167969-.0117187-.335938-.0273437-.503906-.0351562-.113282 0-.226563.00390625-.335938.00390625-.050781 0-.101562 0-.152344 0-.082031 0-.167968-.00390625-.25-.00390625-.214843.00390625-.425781.0234375-.640624.0429688-.117188.0117187-.234376.015625-.351563.03125-.121094.0117187-.238281.0351562-.359375.0546872-.160156.023438-.316406.050782-.472656.082032-.046875.007812-.09375.015624-.140625.027343-.011719.003907-.019531.003907-.027344.003907-.023437.007812-.046875.011718-.070313.015624-.367187.082032-.726562.175782-1.074218.296876-154.132813 43.957031-246.121094 130.945312-246.121094 232.777343 0 5.59375 4.539062 10.132813 10.136719 10.132813h67.039062v30.164062c0 46.011719 17.921875 89.277344 50.460938 121.832032 20.898437 20.894531 46.425781 35.882812 74.523437 43.871093l-20.773437 20.773438c-5.742188 5.742187-8.90625 13.378906-8.90625 21.5 0 8.125 3.164062 15.757812 8.90625 21.503906 5.929687 5.925781 13.714843 8.890625 21.503906 8.890625 7.785156 0 15.574219-2.964844 21.5-8.890625l25.078125-25.078125 25.082031 25.082031c5.925781 5.925781 13.707031 8.886719 21.492188 8.886719 7.789062 0 15.582031-2.964844 21.511719-8.894531 11.851562-11.847657 11.851562-31.140625 0-43.007813l-20.773438-20.769531c32.402344-9.25 61.664062-27.976563 83.792969-53.902344 26.5625-31.121093 41.1875-70.824219 41.1875-111.796875v-30.164062h67.042969c5.597656 0 10.132812-4.535156 10.132812-10.132813 0-101.613281-91.621094-188.449219-245.160156-232.496093zm-19.511719 414.566406c0-8.664063 7.046875-15.710938 15.710937-15.710938 8.660157 0 15.707032 7.046875 15.707032 15.710938 0 8.660156-7.046875 15.707031-15.707032 15.707031-8.664062 0-15.710937-7.046875-15.710937-15.707031zm32.75-31.679688c-5.074219-2.742187-10.878906-4.300781-17.039063-4.300781-6.257812 0-12.144531 1.609375-17.277343 4.429687-54.234375-8.164062-94.714844-54.941406-94.714844-110.226562v-30.160156h222.96875v30.160156c0 29.785156-11.597656 57.78125-32.660156 78.832031-16.582031 16.59375-38.234375 27.601563-61.277344 31.265625zm-55.324219-271.878906c.824219.203125 1.648438.300781 2.460938.300781 4.542968 0 8.675781-3.074219 9.824218-7.683593 5.113282-20.492188 11.652344-40.488282 19.441407-59.4375l6.195312-12.421876 6.195313 12.421876c21.972656 53.449218 33.1875 111.832031 34.21875 178.171874h-80.824219c.222656-13.949218.898437-27.679687 2.035156-40.933593.476563-5.574219-3.65625-10.484375-9.234375-10.960938-5.582031-.472656-10.484375 3.65625-10.960937 9.230469-1.183594 13.824219-1.886719 28.136719-2.113281 42.664062h-88.945313c13.207031-57.453124 44.816406-109.878906 89.613281-148.316406l30.644532-26.296875c-6.230469 16.457031-11.585938 33.542969-15.933594 50.976563-1.351563 5.429687 1.953125 10.929687 7.382812 12.285156zm98.609375 111.351562c-.96875-64.425781-11.238281-121.765624-31.285156-174.585937l30.613281 26.269531c44.796875 38.4375 76.40625 90.863282 89.613282 148.316406zm-289.679687 0c5.367187-77.425781 72.199218-145.128906 183.378906-187.382812l-27.601562 23.683594c-49.25 42.257812-83.644532 100.269531-97.171876 163.699218zm76.824218 50.433594v-30.164062h20.269532v30.164062c0 60.902344 41.582031 113.074219 99.15625 127.683594-1.847656 4.328125-2.875 9.089844-2.875 14.089844 0 2.117187.195312 4.1875.546875 6.203125-27.460938-6.445313-52.449219-20.355469-72.574219-40.476563-28.710938-28.722656-44.523438-66.902344-44.523438-107.5zm112.613282 215.144532c-3.953125 3.953124-10.386719 3.953124-14.339844 0-1.914062-1.914063-2.96875-4.460938-2.96875-7.167969s1.054688-5.253907 2.96875-7.167969l25.078125-25.078125 14.339844 14.335937zm93.164062-.003907c-3.957031 3.957031-10.386718 3.960938-14.335937.011719l-37.4375-37.4375c7.269531-.296875 13.988281-2.757812 19.53125-6.757812.242187-.03125.476562-.058594.722656-.089844.476563-.0625.933594-.125 1.390625-.1875l30.125 30.117187c3.953125 3.957031 3.953125 10.394531.003906 14.34375zm98.269532-215.140625c0 70.878906-48.179688 131.382813-116.042969 147.738282.328125-1.941407.503906-3.933594.503906-5.96875 0-5.097657-1.070313-9.949219-2.992187-14.347657 22.410156-5.917969 43.167968-17.753906 59.667968-34.261719 24.886719-24.878906 38.59375-57.960937 38.59375-93.164062v-30.160156h20.269532zm18.511718-50.433594c-13.527344-63.429687-47.921875-121.441406-97.171875-163.699218l-27.367187-23.480469c110.859375 42.261719 177.496094 109.878906 182.851562 187.179687zm0 0"/><path d="m202.089844 133.5625c-.609375.253906-1.199219.566406-1.753906.933594-.546876.375-1.066407.789062-1.542969 1.265625-1.882813 1.886719-2.96875 4.5-2.96875 7.164062 0 .660157.070312 1.328125.203125 1.976563.132812.648437.324218 1.289062.578125 1.894531.253906.621094.566406 1.207031.933593 1.753906.375.558594.789063 1.074219 1.253907 1.542969.476562.464844.996093.890625 1.542969 1.253906.554687.367188 1.144531.679688 1.753906.933594.605468.253906 1.246094.445312 1.894531.578125.65625.132813 1.316406.203125 1.984375.203125.660156 0 1.320312-.070312 1.976562-.203125.648438-.132813 1.289063-.324219 1.894532-.578125.609375-.253906 1.199218-.566406 1.746094-.933594.554687-.363281 1.074218-.789062 1.550781-1.253906.464843-.46875.878906-.984375 1.253906-1.542969.367187-.546875.679687-1.132812.933594-1.753906.253906-.605469.445312-1.246094.578125-1.894531.132812-.648438.203125-1.316406.203125-1.976563 0-2.664062-1.085938-5.277343-2.96875-7.164062-.476563-.476563-.996094-.890625-1.550781-1.265625-.546876-.367188-1.136719-.679688-1.746094-.933594-.605469-.253906-1.246094-.445312-1.894532-.578125-1.304687-.261719-2.65625-.261719-3.960937 0-.648437.132813-1.289063.324219-1.894531.578125zm0 0"/></svg>