<svg height="512pt" viewBox="0 0 512 512" width="512pt" xmlns="http://www.w3.org/2000/svg"><path d="m336 492h-160c-5.523438 0-10 4.476562-10 10s4.476562 10 10 10h160c5.523438 0 10-4.476562 10-10s-4.476562-10-10-10zm0 0"/><path d="m261 462c0-5.523438-4.476562-10-10-10h-105c-5.523438 0-10 4.476562-10 10s4.476562 10 10 10h105c5.523438 0 10-4.476562 10-10zm0 0"/><path d="m366 452h-35c-5.523438 0-10 4.476562-10 10s4.476562 10 10 10h35c5.523438 0 10-4.476562 10-10s-4.476562-10-10-10zm0 0"/><path d="m395.332031 412h-278.664062c-5.523438 0-10 4.476562-10 10s4.476562 10 10 10h278.664062c5.523438 0 10-4.476562 10-10s-4.476562-10-10-10zm0 0"/><path d="m501.5 372h-20.164062l-87.566407-130.621094c14.554688-24.582031 22.230469-52.574218 22.230469-81.378906 0-88.222656-71.773438-160-160-160-88.222656 0-160 71.777344-160 160 0 28.632812 7.59375 56.484375 21.992188 80.984375l-87.34375 131.015625h-20.648438c-5.523438 0-10 4.476562-10 10s4.476562 10 10 10h491.5c5.523438 0 10-4.476562 10-10s-4.476562-10-10-10zm-385.5-212c0-77.195312 62.804688-140 140-140s140 62.804688 140 140c0 21.929688-5.078125 43.316406-14.777344 62.660156l-16.320312-24.339844-39.605469-100.003906c-1.511719-3.8125-5.195313-6.316406-9.296875-6.316406h-120c-4.089844 0-7.765625 2.488281-9.285156 6.285156l-39.613282 99.035156-16.566406 24.851563c-9.539062-19.226563-14.535156-40.441406-14.535156-62.171875zm121.230469 40.769531c-5.65625-5.65625-13.171875-8.769531-21.171875-8.769531-8.003906 0-15.523438 3.113281-21.179688 8.769531s-8.769531 13.171875-8.769531 21.171875c0 2.6875-1.042969 5.210938-2.949219 7.117188-2.679687 2.6875-6.441406 3.585937-10.316406 2.46875-4.03125-1.160156-6.84375-5.101563-6.84375-9.648438v-17.953125l36.769531-91.925781h106.4375l36.652344 92.546875c-.738281 4.226563-4.425781 7.453125-8.859375 7.453125h-1c-5.511719 0-10-4.484375-10-10 0-16.542969-13.457031-30-30-30-16.539062 0-30 13.457031-30 30v40c0 2.667969-1.039062 5.179688-2.929688 7.070312-1.925781 1.921876-4.476562 2.96875-7.203124 2.929688-5.4375-.070312-9.867188-4.789062-9.867188-10.519531v-19.539063c0-8-3.113281-15.515625-8.769531-21.171875zm-182.546875 171.230469 13.335937-20h57.980469c5.523438 0 10-4.476562 10-10s-4.476562-10-10-10h-44.648438l13.332032-20h31.316406c5.523438 0 10-4.476562 10-10s-4.476562-10-10-10h-17.980469l30.085938-45.128906c.015625-.023438.03125-.046875.046875-.070313l9.683594-14.523437c3.1875 8.792968 10.308593 15.828125 19.464843 18.46875 10.929688 3.152344 22.152344.324218 30.011719-7.554688 5.671875-5.671875 8.796875-13.222656 8.796875-21.25 0-2.65625 1.035156-5.152344 2.914063-7.03125 1.875-1.875 4.375-2.910156 7.039062-2.910156 2.652344 0 5.152344 1.035156 7.027344 2.910156 1.875 1.878906 2.910156 4.375 2.910156 7.03125v19.542969c0 16.621094 13.285156 30.308594 29.617188 30.515625h.390624c8.011719 0 15.527344-3.109375 21.203126-8.789062 5.667968-5.667969 8.789062-13.199219 8.789062-21.210938v-40c0-5.511719 4.488281-10 10-10 5.515625 0 10 4.488281 10 10 0 16.542969 13.460938 30 30 30h1c8.058594 0 15.355469-3.304688 20.617188-8.628906l46.007812 68.628906h-17.625c-5.523438 0-10 4.476562-10 10s4.476562 10 10 10h31.03125l13.410156 20h-44.441406c-5.523438 0-10 4.476562-10 10s4.476562 10 10 10h57.847656l13.410156 20zm0 0"/><path d="m283.351562 467.550781c.367188.550781.789063 1.058594 1.25 1.519531.457032.460938.96875.878907 1.519532 1.238282.539062.363281 1.121094.671875 1.71875.921875.609375.25 1.230468.449219 1.871094.570312.648437.128907 1.308593.199219 1.960937.199219.648437 0 1.308594-.070312 1.949219-.199219.640625-.121093 1.269531-.320312 1.871094-.570312.597656-.25 1.1875-.558594 1.726562-.921875.550781-.359375 1.0625-.777344 1.523438-1.238282.457031-.460937.878906-.96875 1.238281-1.519531.359375-.539062.667969-1.121093.917969-1.730469.25-.601562.441406-1.230468.570312-1.871093.132812-.640625.203125-1.300781.203125-1.949219s-.070313-1.308594-.203125-1.949219c-.128906-.640625-.320312-1.269531-.570312-1.871093-.25-.609376-.558594-1.191407-.917969-1.730469-.359375-.550781-.78125-1.058594-1.238281-1.519531-.460938-.460938-.972657-.878907-1.523438-1.238282-.539062-.363281-1.128906-.671875-1.726562-.921875-.601563-.25-1.230469-.449219-1.871094-.570312-1.289063-.257813-2.621094-.257813-3.910156 0-.640626.121093-1.261719.320312-1.871094.570312-.597656.25-1.179688.558594-1.71875.921875-.550782.359375-1.0625.777344-1.519532 1.238282-.460937.460937-.882812.96875-1.25 1.519531-.359374.539062-.671874 1.121093-.921874 1.730469-.25.601562-.4375 1.230468-.570313 1.871093-.128906.640625-.1875 1.300781-.1875 1.949219s.058594 1.308594.1875 1.949219c.132813.640625.320313 1.269531.570313 1.871093.25.609376.558593 1.191407.921874 1.730469zm0 0"/></svg>