<svg height="512pt" viewBox="-1 0 512.00028 512" width="512pt" xmlns="http://www.w3.org/2000/svg"><path d="m511.445312 224.300781c-1.519531-7.882812-6-14.6875-12.621093-19.164062-4.96875-3.355469-10.761719-5.132813-16.75-5.132813-10.007813 0-19.308594 4.921875-24.882813 13.160156l-99.308594 146.703126h-42.503906v-56.089844c35.828125-20.769532 59.976563-59.542969 59.976563-103.851563v-27.699219c4.144531.449219 8.445312.679688 12.90625.679688 9.621093 0 19.964843-1.050781 30.953125-3.148438 3.796875-.722656 6.835937-3.570312 7.804687-7.3125.96875-3.742187-.308593-7.707031-3.277343-10.183593-.078126-.066407-7.535157-9.152344-8.328126-37.378907 9.625-8.085937 18.851563-18.585937 27.488282-31.28125 2.28125-3.359374 2.835937-7.839843.589844-11.226562-2.195313-3.304688-5.628907-5.0625-9.496094-4.398438-1.953125-.207031-14.53125-2.339843-36.117188-23.921874-8.9375-8.9375-21.894531-14.066407-35.546875-14.066407-7.824219 0-15.480469 1.75-22.265625 4.996094-22.628906-22.558594-52.6875-34.984375-84.667968-34.984375-66.140626 0-119.953126 53.8125-119.953126 119.957031 0 0 .585938 92.203125.636719 92.410157 2.796875 27.347656 14.796875 52.691406 34.496094 72.378906 7.523437 7.527344 15.875 13.921875 24.84375 19.117187v56.007813h-41.304687l-99.304688-146.703125c-5.578125-8.242188-14.878906-13.164063-24.882812-13.164063-5.992188 0-11.785157 1.777344-16.757813 5.136719-6.617187 4.472656-11.097656 11.28125-12.617187 19.160156-1.519532 7.882813.109374 15.867188 4.589843 22.484375l87.792969 129.695313c-23.46875 16.769531-37.46875 43.925781-37.46875 72.734375v52.601562c0 5.519532 4.472656 9.996094 9.996094 9.996094h379.621094c5.519531 0 9.996093-4.476562 9.996093-9.996094v-52.601562c0-28.59375-13.757812-55.308594-36.492187-72.027344l88.265625-130.402344c4.480469-6.617187 6.109375-14.597656 4.589843-22.484375zm-136.089843-72.222656v-18.480469c6.910156-.742187 13.902343-2.792968 20.832031-6.105468 1.082031 10.679687 3.09375 18.722656 5.308594 24.691406-9.488282.96875-18.300782.933594-26.140625-.105469zm8.386719-93.890625c14.085937 14.085938 25.601562 21.570312 34.210937 25.515625-6.054687 7.449219-12.304687 13.644531-18.667969 18.496094-8.253906 6.292969-16.324218 10.0625-24.101562 11.285156-.847656-16.199219-4.886719-31.75-12.039063-46.289063-2.722656-5.574218-5.898437-10.929687-9.472656-16.027343 2.765625-.765625 5.679687-1.1875 8.660156-1.1875 8.265625 0 16.273438 3.066406 21.410157 8.207031zm-128.34375-38.195312c26.710937 0 51.8125 10.398437 70.703124 29.296874 1.527344 1.519532 3.082032 3.1875 4.632813 4.960938 5.777344 6.609375 10.636719 13.917969 14.460937 21.742188 6.195313 12.601562 9.578126 26.105468 10.089844 40.1875-35.136718-11.117188-70.445312-16.507813-105.15625-15.996094-5.519531.082031-9.929687 4.625-9.847656 10.144531.082031 5.46875 4.539062 9.847656 9.992188 9.847656h.152343c34.535157-.519531 69.820313 5.230469 104.9375 17.050781v60.835938l-55.769531-10.089844c-30.09375-5.445312-60.605469-5.394531-90.6875.148438l-53.46875 9.855468v-60.808593c5.863281-2.019531 11.765625-3.871094 17.609375-5.527344 5.3125-1.5 8.398437-7.023437 6.898437-12.335937-1.503906-5.316407-7.03125-8.40625-12.339843-6.898438-4.015625 1.132812-8.050781 2.359375-12.085938 3.664062 2.046875-53.324218 46.0625-96.078124 99.878907-96.078124zm-98.335938 198.015624 55.46875-10.222656c27.699219-5.105468 55.792969-5.152344 83.503906-.136718l57.671875 10.433593c-8.5625 46.480469-49.382812 81.808594-98.304687 81.808594-15.882813 0-31.195313-3.679687-44.96875-10.628906-.269532-.15625-.546875-.300781-.835938-.433594-9.070312-4.683594-17.457031-10.792969-24.882812-18.222656-14.546875-14.539063-24.050782-32.777344-27.652344-52.597657zm98.335938 101.875c14.015624 0 27.472656-2.425781 39.988281-6.863281v53.097657l-41.957031 48.105468-38.015626-47.847656v-53.292969c12.671876 4.46875 26.148438 6.800781 39.984376 6.800781zm-235.214844-91.796874c.507812-2.632813 1.996094-4.902344 4.183594-6.382813 1.652343-1.113281 3.574218-1.703125 5.5625-1.703125 3.359374 0 6.46875 1.632812 8.324218 4.371094l92.472656 136.605468c-.101562.015626-.199218.035157-.300781.050782-.59375.09375-1.179687.199218-1.765625.304687-.226562.042969-.457031.078125-.683594.121094-3.296874.628906-6.558593 1.445313-9.765624 2.445313-.210938.066406-.417969.132812-.628907.199218-2.433593.777344-4.820312 1.6875-7.21875 2.566406-22.394531-34.023437-45.628906-67.515624-68.460937-101.246093-6.734375-9.949219-13.46875-19.894531-20.203125-29.84375-1.484375-2.191407-2.023438-4.851563-1.515625-7.488281zm55.277344 221.128906c0-22.46875 10.972656-43.648438 29.367187-56.664063 2.253906-1.601562 4.574219-3.039062 6.976563-4.324219 8.296874-4.523437 17.304687-7.246093 26.785156-8.085937 2.070312-.1875 4.167968-.28125 6.234375-.28125h55.769531l88.953125 111.960937h-134.109375v-41.984374c0-5.523438-4.476562-9.996094-9.996094-9.996094-5.523437 0-9.996094 4.472656-9.996094 9.996094v41.984374h-59.984374zm359.628906 0v42.605468h-59.734375v-41.984374c0-5.523438-4.472657-9.996094-9.996094-9.996094-5.519531 0-9.996094 4.472656-9.996094 9.996094v41.984374h-40.28125l-49.007812-61.679687 43.851562-50.28125h55.820313c11.160156 0 22.175781 2.695313 32 7.816406.65625.339844 1.304687.691407 1.949218 1.054688 21.832032 12.292969 35.394532 35.46875 35.394532 60.484375zm55.210937-213.636719-89.089843 131.617187c-.402344-.171874-.808594-.332031-1.210938-.5-5.675781-2.351562-11.878906-4.191406-17.921875-5.3125-.320313-.058593-.636719-.125-.957031-.183593l92.625-136.828125c1.855468-2.738282 4.964844-4.371094 8.328125-4.371094 1.984375 0 3.90625.589844 5.554687 1.703125 2.191406 1.480469 3.679688 3.75 4.1875 6.382813.507813 2.636718-.03125 5.296874-1.515625 7.492187zm0 0"/><path d="m282.136719 170.9375c.90625 0 1.828125-.121094 2.742187-.382812l35.109375-9.996094c5.3125-1.511719 8.390625-7.042969 6.878907-12.351563-1.511719-5.3125-7.042969-8.390625-12.351563-6.878906l-35.113281 9.996094c-5.308594 1.511719-8.390625 7.042969-6.875 12.351562 1.25 4.394531 5.253906 7.261719 9.609375 7.261719zm0 0"/><path d="m189.5625 160.558594 35.109375 9.996094c.917969.261718 1.839844.382812 2.742187.382812 4.355469 0 8.359376-2.867188 9.609376-7.261719 1.511718-5.308593-1.566407-10.839843-6.875-12.351562l-35.113282-9.996094c-5.3125-1.511719-10.839844 1.570313-12.351562 6.878906-1.511719 5.308594 1.566406 10.839844 6.878906 12.351563zm0 0"/><path d="m200.394531 117.773438c.25.613281.558594 1.191406.921875 1.730468.359375.550782.777344 1.058594 1.238282 1.519532.460937.460937.980468.878906 1.519531 1.242187.550781.359375 1.128906.667969 1.730469.917969.597656.25 1.226562.449218 1.867187.570312.640625.128906 1.300781.199219 1.949219.199219.660156 0 1.308594-.070313 1.960937-.199219.640625-.121094 1.257813-.320312 1.867188-.570312.601562-.25 1.179687-.558594 1.71875-.917969.550781-.363281 1.0625-.78125 1.519531-1.242187.460938-.460938.882812-.96875 1.25-1.519532.359375-.539062.671875-1.117187.921875-1.730468.25-.597657.4375-1.226563.570313-1.867188.128906-.640625.1875-1.300781.1875-1.949219 0-.648437-.058594-1.308593-.1875-1.949219-.132813-.640624-.320313-1.269531-.570313-1.871093-.25-.609375-.5625-1.1875-.921875-1.726563-.367188-.550781-.789062-1.0625-1.25-1.519531-.457031-.460937-.96875-.882813-1.519531-1.242187-.539063-.359376-1.117188-.667969-1.71875-.917969-.597657-.25-1.226563-.449219-1.867188-.570313-1.289062-.257812-2.621093-.257812-3.910156 0-.640625.121094-1.269531.320313-1.867187.570313-.601563.25-1.179688.558593-1.730469.917969-.539063.359374-1.058594.78125-1.519531 1.242187-.460938.457031-.878907.96875-1.238282 1.519531-.363281.539063-.671875 1.117188-.921875 1.726563-.25.601562-.4375 1.230469-.570312 1.871093-.128907.640626-.199219 1.300782-.199219 1.949219 0 .648438.070312 1.308594.199219 1.949219.132812.640625.320312 1.269531.570312 1.867188zm0 0"/></svg>