<svg height="511pt" viewBox="0 0 511 511.99643" width="511pt" xmlns="http://www.w3.org/2000/svg"><path d="m510.65625 507.707031c.183594-.261719.351562-.527343.503906-.796875.054688-.097656.117188-.1875.167969-.28125.1875-.355468.34375-.722656.484375-1.09375.050781-.132812.097656-.269531.144531-.410156.097657-.296875.179688-.597656.25-.898438.027344-.113281.0625-.222656.082031-.335937.078126-.382813.121094-.769531.152344-1.15625.011719-.152344.015625-.300781.019532-.449219.011718-.316406.007812-.628906-.011719-.941406-.007813-.109375-.003907-.21875-.015625-.328125-.039063-.40625-.105469-.808594-.195313-1.207031-.027343-.117188-.054687-.234375-.085937-.351563-.101563-.398437-.222656-.789062-.371094-1.175781-.007812-.019531-.011719-.039062-.019531-.058594l-.015625-.035156c-.003906-.007812-.003906-.011719-.007813-.019531l-97.105469-242.167969 97.128907-242.222656c1.496093-3.734375.621093-7.996094-2.21875-10.835938-2.84375-2.8437498-7.105469-3.714844-10.835938-2.21875l-242.222656 97.125-242.222656-97.128906c-.027344-.007812-.054688-.011719-.078125-.023438-.378906-.148437-.765625-.265624-1.15625-.367187-.117188-.03125-.230469-.058594-.351563-.085937-.402343-.085938-.804687-.1562505-1.214843-.195313-.097657-.0078125-.195313-.0078125-.296876-.0117188-.328124-.0234374-.652343-.0273437-.980468-.015625-.140625.0039063-.28125.0117188-.417969.0195313-.398437.03125-.792969.0781255-1.183594.1562495-.097656.019532-.191406.046876-.289062.066407-.320313.074219-.636719.164062-.953125.269531-.128906.042969-.253906.085938-.382813.132812-.375.144532-.746093.304688-1.109375.492188-.085937.046875-.167968.105469-.253906.152344-.28125.160156-.554688.332031-.820312.519531-.136719.09375-.269532.1875-.398438.289063-.25.199218-.492188.40625-.730469.628906-.070312.070312-.152343.121094-.21875.191406-.070312.070312-.125.152344-.191406.222656-.222656.234375-.433594.476563-.625.726563-.105469.132812-.203125.265625-.296875.402343-.183594.261719-.351562.527344-.503906.796876-.054688.09375-.117188.183593-.167969.28125-.1875.355468-.34375.722656-.484375 1.089843-.050781.136719-.097656.273438-.144531.414063-.097657.296875-.183594.597656-.253907.902344-.023437.109374-.058593.21875-.082031.332031-.074219.382812-.121093.769531-.148437 1.15625-.011719.152343-.015625.300781-.023438.449219-.007812.316406-.003906.628906.015625.941406.003907.109375.003907.21875.015625.328125.035156.40625.105469.808593.195313 1.207031.023437.117188.054687.234375.085937.351562.101563.398438.21875.789063.371094 1.175782.007812.019531.011719.039062.019531.058594l.015625.039062c0 .003906.003906.007812.003906.015625l97.109376 242.167969-97.109376 242.171875c0 .007812-.003906.011719-.003906.015625l-.015625.039062c-.007812.019532-.011719.039063-.019531.058594-.152344.386719-.273438.777344-.375 1.171875-.027344.121094-.058594.238281-.085938.355469-.085937.398437-.15625.800781-.195312 1.203125-.007812.113281-.007812.222656-.015625.332031-.019531.3125-.023437.625-.011719.9375.003906.152344.011719.300781.019532.449219.03125.390625.078124.777343.152343 1.160156.023438.113281.054688.222656.082031.332031.070313.304688.15625.605469.253907.902344.046875.136719.089843.273438.144531.410156.140625.371094.296875.738282.484375 1.09375.050781.09375.109375.183594.164063.277344.15625.273438.324218.539062.503906.800781.097656.136719.195312.269531.296875.402344.195312.25.402343.492187.625.726563.066406.070312.121093.152343.191406.222656.070313.066406.148437.121094.222656.1875.234375.222656.476563.433594.726563.628906.132812.101562.265625.199219.398437.292969.265625.1875.535157.355469.8125.511719.089844.054687.175781.109374.265625.160156.359375.1875.726563.34375 1.101563.488281.132812.050781.265625.09375.398437.136719.304688.101562.613282.1875.921875.261718.105469.023438.210938.054688.316407.074219.382812.074219.773437.125 1.164062.152344.148438.011719.296875.015625.445312.023437.109376.003907.21875.015626.332032.015626.203125 0 .40625-.019532.609375-.03125.113281-.003907.222656-.003907.332031-.015626.402344-.039062.800781-.105468 1.199219-.191406.121093-.027344.242187-.058594.363281-.089844.386719-.101562.773438-.21875 1.148438-.363281.023437-.011719.050781-.015625.078124-.027343l242.222657-97.128907 242.226562 97.128907c.226563.089843.453125.164062.683594.238281.066406.019531.128906.046875.195313.066406.9375.28125 1.898437.417969 2.855468.417969 2.613282 0 5.179688-1.023438 7.101563-2.941406.070312-.070313.121093-.148438.191406-.222657.21875-.234375.429687-.476562.625-.722656.105469-.132813.203125-.265625.296875-.402344zm-250.4375-389.722656 200.109375-80.242187-47.023437 46.734374c-3.929688 3.90625-3.953126 10.265626-.042969 14.195313 1.964843 1.976563 4.542969 2.964844 7.121093 2.964844 2.558594 0 5.121094-.972657 7.078126-2.917969l47.5625-47.273438-80.523438 200.816407c-.964844 2.398437-.964844 5.074219 0 7.472656l80.382812 200.464844-162.136718-162.136719c8.796875-11.734375 14.015625-26.300781 14.015625-42.0625 0-15.910156-5.324219-30.597656-14.269531-42.390625l58.234374-57.96875c3.929688-3.910156 3.945313-10.265625.03125-14.195313-3.910156-3.933593-10.269531-3.941406-14.195312-.035156l-58.351562 58.082032c-11.675782-8.644532-26.113282-13.769532-41.726563-13.769532-15.761719 0-30.328125 5.21875-42.0625 14.011719l-162.136719-162.136719 200.464844 80.386719c2.398438.960937 5.074219.960937 7.46875 0zm-53.929688 138.015625c0-27.679688 22.515626-50.199219 50.195313-50.199219s50.199219 22.519531 50.199219 50.199219c0 27.675781-22.519532 50.195312-50.199219 50.195312s-50.195313-22.519531-50.195313-50.195312zm-87.820312-3.738281-80.382812-200.464844 162.136718 162.136719c-8.796875 11.738281-14.015625 26.304687-14.015625 42.066406s5.21875 30.328125 14.015625 42.0625l-162.136718 162.136719 80.382812-200.464844c.964844-2.398437.964844-5.074219 0-7.472656zm138.015625 141.03125c-1.269531 0-2.535156.238281-3.734375.71875l-200.464844 80.386719 162.136719-162.136719c11.734375 8.796875 26.300781 14.011719 42.0625 14.011719s30.328125-5.21875 42.0625-14.011719l162.136719 162.136719-200.464844-80.386719c-1.195312-.480469-2.464844-.71875-3.734375-.71875zm0 0"/><path d="m382.769531 123.96875c.253907.605469.5625 1.195312.925781 1.738281.359376.550781.78125 1.0625 1.242188 1.527344.464844.460937.976562.882813 1.527344 1.242187.542968.363282 1.125.675782 1.738281.925782.601563.25 1.234375.441406 1.875.570312.644531.132813 1.304687.203125 1.957031.203125s1.316406-.070312 1.96875-.203125c.632813-.128906 1.265625-.320312 1.878906-.570312.601563-.25 1.183594-.5625 1.726563-.925782.550781-.359374 1.0625-.78125 1.527344-1.242187.460937-.464844.882812-.976563 1.253906-1.527344.359375-.542969.671875-1.132812.921875-1.738281.253906-.601562.441406-1.234375.574219-1.875.128906-.644531.1875-1.304688.1875-1.957031 0-2.652344-1.070313-5.230469-2.941407-7.097657-.460937-.472656-.972656-.886718-1.527343-1.257812-.539063-.359375-1.121094-.671875-1.726563-.921875-.609375-.25-1.242187-.441406-1.875-.574219-1.296875-.261718-2.632812-.261718-3.925781 0-.644531.132813-1.277344.324219-1.878906.574219-.609375.25-1.191407.5625-1.734375.921875-.554688.371094-1.066406.785156-1.527344 1.257812-1.867188 1.867188-2.941406 4.445313-2.941406 7.097657 0 .652343.070312 1.3125.199218 1.957031.132813.640625.324219 1.273438.574219 1.875zm0 0"/><path d="m286.601562 256c0-16.609375-13.507812-30.121094-30.117187-30.121094-16.605469 0-30.117187 13.511719-30.117187 30.121094 0 16.605469 13.511718 30.117188 30.117187 30.117188 16.609375 0 30.117187-13.511719 30.117187-30.117188zm-40.15625 0c0-5.539062 4.503907-10.039062 10.039063-10.039062s10.039063 4.5 10.039063 10.039062c0 5.535156-4.503907 10.039062-10.039063 10.039062s-10.039063-4.503906-10.039063-10.039062zm0 0"/></svg>