<svg height="511pt" viewBox="0 0 511 511.9983" width="511pt" xmlns="http://www.w3.org/2000/svg"><path d="m512.257812 11.738281c.0625-.363281.101563-.726562.125-1.09375.007813-.113281.011719-.226562.015626-.335937.011718-.394532.003906-.792969-.03125-1.183594 0-.015625 0-.03125 0-.042969-.039063-.410156-.113282-.820312-.203126-1.226562-.019531-.09375-.042968-.183594-.066406-.277344-.089844-.351563-.195312-.695313-.320312-1.039063-.019532-.050781-.039063-.109374-.058594-.160156-.152344-.394531-.332031-.777344-.535156-1.152344-.035156-.058593-.074219-.121093-.109375-.179687-.171875-.304687-.363281-.601563-.574219-.890625-.0625-.085938-.125-.171875-.1875-.257812-.253906-.328126-.523438-.644532-.824219-.945313-.003906-.007813-.007812-.011719-.011719-.015625-.003906 0-.003906 0-.003906-.003906 0 0-.003906 0-.003906-.003906-.304688-.304688-.625-.574219-.957031-.832032-.085938-.066406-.171875-.128906-.261719-.191406-.285156-.207031-.574219-.394531-.871094-.566406-.066406-.039063-.132812-.082032-.199218-.117188-.375-.203125-.753907-.382812-1.144532-.535156-.054687-.023438-.109375-.039062-.164062-.058594-.339844-.125-.679688-.230468-1.027344-.320312-.097656-.023438-.195312-.046875-.296875-.070313-.402344-.089843-.808594-.160156-1.214844-.1992185-.011719-.0039063-.023437 0-.03125-.0039063-.398437-.0351562-.792969-.03906245-1.191406-.03124995-.117187.00390625-.234375.01171875-.347656.01562495-.355469.0234376-.707031.0625-1.054688.1210938-.0625.007813-.121093.015625-.183593.023437-.414063.078126-.820313.1875-1.226563.316407-.03125.011719-.066406.015625-.097656.027343l-295.292969 98.425782c-3.417969 1.140625-5.960938 4.023437-6.667969 7.554687l-25.433593 127.179688c-2.113282-.464844-4.289063-.707031-6.5-.707031-.015626 0-.03125 0-.042969 0-8.070313 0-15.640625 3.128906-21.328125 8.816406-9.167969 9.167968-11.175782 22.933594-5.996094 34.117187l-115.128906 115.132813c-.273438.269531-.519532.558594-.753906.851562-13.269532 12.707032-21.554688 30.574219-21.554688 50.355469 0 38.46875 31.296875 69.765625 69.765625 69.765625 20.597656 0 39.136719-8.984375 51.917969-23.230469.042968-.039062.085937-.070312.125-.113281l114.1875-114.183594c3.945312 1.835938 8.285156 2.8125 12.769531 2.8125 8.085937 0 15.671875-3.132812 21.355469-8.820312 7.476562-7.472656 10.179687-18.128906 8.058594-27.894532l126.894531-25.78125c3.515625-.710937 6.382812-3.246093 7.519531-6.648437l98.796875-294.925781c.011719-.03125.015625-.066406.027344-.097656.128906-.410157.242187-.820313.320312-1.238282.007813-.046875.011719-.09375.019531-.140625zm-305.175781 363.75-70.171875-70.167969 13.925782-13.925781 70.171874 70.167969zm-28.121093 28.125-70.171876-70.171875 13.925782-13.925781 70.167968 70.171875zm-158.382813 38.621094c0-27.398437 22.289063-49.6875 49.6875-49.6875 27.394531 0 49.683594 22.289063 49.683594 49.6875 0 27.394531-22.289063 49.683594-49.683594 49.683594-27.398437 0-49.6875-22.289063-49.6875-49.683594zm49.6875-69.765625c-.175781 0-.34375.011719-.515625.011719l24.839844-24.839844 70.171875 70.167969-24.742188 24.742187c0-.109375.007813-.210937.007813-.316406 0-38.46875-31.292969-69.765625-69.761719-69.765625zm186.160156-18.199219c-1.894531 1.894531-4.4375 2.9375-7.160156 2.9375-2.667969 0-5.167969-1.007812-7.046875-2.839843-.074219-.070313-.152344-.144532-.226562-.214844l-83.742188-83.738282c-.070312-.078124-.144531-.15625-.21875-.234374-3.839844-3.9375-3.796875-10.308594.097656-14.203126 1.894532-1.894531 4.429688-2.9375 7.148438-2.9375h.011718c2.558594 0 4.976563.929688 6.820313 2.625l40.035156 40.035157c.472657.957031 1.097657 1.855469 1.890625 2.652343.800782.796876 1.703125 1.425782 2.664063 1.902344l40.035156 40.03125c3.617187 3.941406 3.488281 10.1875-.308594 13.984375zm139.472657-58-128.652344 26.132813-31.519532-31.519532 113.355469-113.15625c3.925781-3.914062 3.929688-10.273437.011719-14.195312-3.914062-3.925781-10.269531-3.929688-14.195312-.011719l-113.367188 113.167969-31.542969-31.542969 25.792969-129.003906 249.433594-83.144531-73.585938 73.601562c-3.921875 3.921875-3.917968 10.277344 0 14.195313 1.960938 1.960937 4.53125 2.941406 7.097656 2.941406 2.570313 0 5.140626-.980469 7.101563-2.941406l73.46875-73.484375zm0 0"/><path d="m379.660156 138.386719c-.253906-.601563-.5625-1.183594-.925781-1.726563-.371094-.550781-.78125-1.0625-1.253906-1.527344-.460938-.46875-.972657-.882812-1.527344-1.253906-.542969-.359375-1.125-.671875-1.726563-.921875-.613281-.253906-1.242187-.441406-1.875-.574219-1.296874-.261718-2.632812-.261718-3.925781 0-.644531.132813-1.277343.320313-1.878906.574219-.613281.25-1.195313.5625-1.734375.921875-.554688.371094-1.066406.785156-1.527344 1.253906-.460937.464844-.882812.976563-1.246094 1.527344-.359374.542969-.671874 1.125-.921874 1.726563-.25.613281-.441407 1.234375-.574219 1.878906-.128907.652344-.199219 1.3125-.199219 1.964844 0 .652343.070312 1.316406.199219 1.957031.132812.644531.324219 1.277344.574219 1.878906.25.613282.5625 1.195313.921874 1.738282.363282.550781.785157 1.0625 1.246094 1.523437 1.867188 1.867187 4.457032 2.941406 7.097656 2.941406.652344 0 1.316407-.070312 1.96875-.199219.632813-.132812 1.261719-.320312 1.875-.574218.601563-.25 1.183594-.5625 1.726563-.921875.554687-.363281 1.066406-.785157 1.527344-1.246094.472656-.460937.882812-.972656 1.253906-1.523437.363281-.542969.671875-1.125.925781-1.738282.25-.601562.441406-1.234375.570313-1.878906.128906-.640625.191406-1.304688.191406-1.957031 0-.652344-.0625-1.3125-.191406-1.964844-.128907-.644531-.320313-1.265625-.570313-1.878906zm0 0"/></svg>