<svg height="511pt" viewBox="-76 0 511 511.99995" width="511pt" xmlns="http://www.w3.org/2000/svg"><path d="m260.1875 123.535156v1c0 5.515625 4.472656 9.988282 9.988281 9.988282s9.988281-4.472657 9.988281-9.988282v-1c0-5.515625-4.472656-9.984375-9.988281-9.984375s-9.988281 4.46875-9.988281 9.984375zm0 0"/><path d="m280.164062 246.390625c0-5.515625-4.472656-9.988281-9.988281-9.988281s-9.988281 4.472656-9.988281 9.988281v1c0 5.515625 4.472656 9.984375 9.988281 9.984375s9.988281-4.46875 9.988281-9.984375zm0 0"/><path d="m240.625 53.820312c1.96875 2.480469 4.882812 3.777344 7.828125 3.777344 2.175781 0 4.367187-.710937 6.203125-2.167968 4.320312-3.429688 5.042969-9.714844 1.613281-14.035157-.234375-.289062-.464843-.578125-.699219-.863281-3.480468-4.28125-9.769531-4.933594-14.050781-1.453125-4.277343 3.480469-4.929687 9.769531-1.449219 14.050781.183594.230469.371094.457032.554688.691406zm0 0"/><path d="m102.257812 46.660156c2.445313 0 4.894532-.894531 6.824219-2.695312l.664063-.613282c4.0625-3.730468 4.328125-10.050781.597656-14.113281s-10.046875-4.332031-14.109375-.601562c-.269531.246093-.535156.492187-.804687.742187-4.027344 3.769532-4.234376 10.089844-.46875 14.117188 1.96875 2.101562 4.628906 3.164062 7.296874 3.164062zm0 0"/><path d="m211.722656 29.921875c.261719.136719.519532.273437.777344.414063 1.507812.8125 3.128906 1.195312 4.726562 1.195312 3.558594 0 7-1.90625 8.800782-5.257812 2.617187-4.855469.796875-10.914063-4.058594-13.527344-.328125-.175782-.65625-.351563-.988281-.523438-4.890625-2.558594-10.921875-.667968-13.480469 4.21875-2.554688 4.890625-.667969 10.925782 4.222656 13.480469zm0 0"/><path d="m74.730469 78.992188c1.304687.570312 2.660156.839843 3.996093.839843 3.847657 0 7.515626-2.238281 9.15625-5.992187.117188-.265625.234376-.535156.355469-.800782 2.273438-5.027343.039063-10.945312-4.988281-13.214843-5.027344-2.273438-10.941406-.039063-13.214844 4.988281-.152344.339844-.304687.683594-.457031 1.027344-2.207031 5.054687.097656 10.945312 5.152344 13.152344zm0 0"/><path d="m270.175781 277.351562c-5.515625 0-9.988281 4.472657-9.988281 9.988282v1c0 5.515625 4.472656 9.988281 9.988281 9.988281s9.988281-4.472656 9.988281-9.988281v-1c0-5.515625-4.46875-9.988282-9.988281-9.988282zm0 0"/><path d="m280.164062 164.488281c0-5.515625-4.472656-9.988281-9.988281-9.988281s-9.988281 4.472656-9.988281 9.988281v1c0 5.515625 4.472656 9.988281 9.988281 9.988281s9.988281-4.472656 9.988281-9.988281zm0 0"/><path d="m256.910156 85.621094c.078125.277344.15625.558594.230469.839844 1.191406 4.46875 5.230469 7.417968 9.644531 7.417968.851563 0 1.71875-.109375 2.578125-.339844 5.332031-1.421874 8.5-6.894531 7.078125-12.222656-.09375-.363281-.195312-.722656-.292968-1.082031-1.488282-5.3125-7.003907-8.414063-12.3125-6.925781-5.3125 1.488281-8.414063 7-6.925782 12.3125zm0 0"/><path d="m280.164062 205.4375c0-5.515625-4.472656-9.988281-9.988281-9.988281s-9.988281 4.472656-9.988281 9.988281v1c0 5.515625 4.472656 9.988281 9.988281 9.988281s9.988281-4.472656 9.988281-9.988281zm0 0"/><path d="m188.195312 10.855469c.4375-5.5-3.667968-10.3125-9.167968-10.75-.363282-.027344-.730469-.0546878-1.097656-.0820315-5.542969-.3867185-10.273438 3.7773435-10.652344 9.2812505-.378906 5.5 3.773437 10.269531 9.277344 10.648437l.890624.066406c.269532.019531.539063.03125.804688.03125 5.15625 0 9.53125-3.964843 9.945312-9.195312zm0 0"/><path d="m134.640625 5.730469-1.027344.363281c-5.195312 1.851562-7.902343 7.566406-6.050781 12.761719 1.457031 4.085937 5.304688 6.636719 9.40625 6.636719 1.113281 0 2.246094-.1875 3.355469-.585938l.859375-.300781c5.210937-1.808594 7.972656-7.496094 6.164062-12.707031-1.804687-5.214844-7.492187-7.976563-12.707031-6.167969zm0 0"/><path d="m70.417969 119.617188c5.515625 0 9.988281-4.472657 9.988281-9.988282l.003906-.910156c.046875-5.515625-4.386718-10.027344-9.902344-10.074219-.027343 0-.058593 0-.089843 0-5.472657 0-9.9375 4.410157-9.984375 9.898438l-.003906 1.085937c0 5.515625 4.472656 9.988282 9.988281 9.988282zm0 0"/><path d="m350.082031 398.136719h-13.589843c-1.65625-11.046875-6.015626-21.214844-12.382813-29.816407l9.632813-9.632812c3.898437-3.902344 3.898437-10.226562 0-14.128906-3.902344-3.898438-10.226563-3.898438-14.128907 0l-9.628906 9.632812c-8.605469-6.363281-18.773437-10.726562-29.820313-12.382812v-13.589844c0-5.515625-4.472656-9.988281-9.988281-9.988281s-9.988281 4.472656-9.988281 9.988281v13.589844c-11.042969 1.65625-21.214844 6.019531-29.816406 12.382812l-9.632813-9.632812c-3.898437-3.898438-10.222656-3.898438-14.125 0-3.902343 3.902344-3.902343 10.226562 0 14.128906l9.632813 9.632812c-6.367188 8.601563-10.726563 18.769532-12.382813 29.816407h-13.589843c-5.515626 0-9.988282 4.472656-9.988282 9.988281s4.472656 9.988281 9.988282 9.988281h13.589843c1.652344 11.042969 6.015625 21.214844 12.382813 29.816407l-9.632813 9.632812c-3.902343 3.898438-3.902343 10.222656 0 14.125 1.949219 1.953125 4.507813 2.925781 7.0625 2.925781 2.554688 0 5.113281-.972656 7.0625-2.925781l9.632813-9.632812c8.601562 6.367187 18.773437 10.730468 29.816406 12.386718v13.585938c0 5.519531 4.472656 9.988281 9.988281 9.988281s9.988281-4.46875 9.988281-9.988281v-13.585938c11.042969-1.660156 21.214844-6.019531 29.816407-12.386718l9.632812 9.632812c1.953125 1.953125 4.507813 2.925781 7.0625 2.925781 2.554688 0 5.113281-.972656 7.0625-2.925781 3.902344-3.898438 3.902344-10.222656 0-14.125l-9.632812-9.632812c6.367187-8.601563 10.726562-18.773438 12.386719-29.816407h13.585937c5.515625 0 9.988281-4.472656 9.988281-9.988281s-4.46875-9.988281-9.984375-9.988281zm-79.90625 57.074219c-25.960937 0-47.085937-21.121094-47.085937-47.085938s21.125-47.085938 47.085937-47.085938c25.964844 0 47.089844 21.121094 47.089844 47.085938s-21.125 47.085938-47.089844 47.085938zm0 0"/><path d="m110.367188 199.375h-9.988282v-59.679688c0-5.515624-4.472656-9.988281-9.988281-9.988281h-39.949219c-5.515625 0-9.988281 4.472657-9.988281 9.988281v59.679688h-9.988281c-7.992188 0-15.511719 3.128906-21.15625 8.789062-5.679688 5.664063-8.808594 13.183594-8.808594 21.175782 0 12.976562 8.320312 24.070312 19.914062 28.214844v204.476562c0 27.550781 22.417969 49.96875 49.972657 49.96875 27.550781 0 49.96875-22.417969 49.96875-49.96875v-204.4375c4.15625-1.472656 7.964843-3.867188 11.167969-7.082031 5.679687-5.664063 8.808593-13.183594 8.808593-21.175781 0-16.519532-13.441406-29.960938-29.964843-29.960938zm-49.9375-49.691406h19.976562v49.691406h-19.976562zm-20.039063 229.476562h59.992187v19.976563h-59.992187zm0-19.976562v-19.976563h59.992187v19.976563zm0-39.953125v-19.976563h59.992187v19.976563zm0 99.878906h59.992187v19.976563h-59.992187zm59.988281-139.832031h-59.988281v-19.976563h59.988281zm-29.992187 212.746094c-16.539063 0-29.996094-13.457032-29.996094-29.992188v-2.96875h59.992187v2.96875c-.003906 16.535156-13.457031 29.992188-29.996093 29.992188zm47.011719-255.636719c-1.890626 1.894531-4.386719 2.9375-7.03125 2.9375h-79.9375c-5.488282-.015625-9.953126-4.496094-9.953126-9.988281 0-2.644532 1.042969-5.140626 2.957032-7.050782 1.890625-1.894531 4.386718-2.9375 7.03125-2.9375h79.902344c5.507812 0 9.988281 4.480469 9.988281 9.988282 0 2.648437-1.042969 5.144531-2.957031 7.050781zm0 0"/><path d="m262.417969 387.179688c-.25-.597657-.5625-1.179688-.921875-1.71875-.355469-.550782-.777344-1.058594-1.238282-1.519532-.457031-.46875-.96875-.878906-1.515624-1.246094-.539063-.359374-1.121094-.667968-1.730469-.917968-.597657-.25-1.226563-.441406-1.867188-.570313-1.285156-.261719-2.617187-.261719-3.894531 0-.636719.128907-1.269531.320313-1.878906.570313-.597656.25-1.175782.558594-1.714844.917968-.550781.367188-1.0625.777344-1.519531 1.246094-.460938.460938-.878907.96875-1.238281 1.519532-.371094.539062-.671876 1.121093-.921876 1.71875-.246093.609374-.449218 1.238281-.566406 1.867187-.128906.648437-.199218 1.308594-.199218 1.957031 0 .648438.070312 1.308594.199218 1.949219.117188.636719.320313 1.269531.566406 1.867187.25.609376.550782 1.1875.921876 1.726563.359374.550781.777343 1.058594 1.238281 1.519531.457031.460938.96875.878906 1.519531 1.238282.539062.359374 1.117188.667968 1.714844.917968.609375.25 1.242187.441406 1.878906.570313.640625.128906 1.300781.199219 1.949219.199219.648437 0 1.308593-.070313 1.945312-.199219.640625-.128907 1.269531-.320313 1.867188-.570313.609375-.25 1.191406-.558594 1.730469-.917968.546874-.359376 1.058593-.777344 1.515624-1.238282.460938-.460937.882813-.96875 1.238282-1.519531.359375-.539063.671875-1.117187.921875-1.726563.25-.597656.449219-1.230468.566406-1.867187.132813-.640625.199219-1.300781.199219-1.949219 0-.648437-.066406-1.308594-.199219-1.957031-.117187-.628906-.316406-1.257813-.566406-1.867187zm0 0"/><path d="m262.417969 421.429688c-.25-.609376-.5625-1.191407-.921875-1.730469-.355469-.546875-.777344-1.058594-1.238282-1.515625-.457031-.460938-.96875-.878906-1.515624-1.238282-.539063-.359374-1.121094-.671874-1.730469-.921874-.597657-.25-1.226563-.4375-1.867188-.566407-1.285156-.261719-2.617187-.261719-3.894531 0-.636719.128907-1.269531.316407-1.878906.566407-.597656.25-1.175782.5625-1.714844.921874-.550781.359376-1.0625.777344-1.519531 1.238282-.460938.457031-.878907.96875-1.238281 1.515625-.371094.539062-.671876 1.121093-.921876 1.730469-.246093.597656-.449218 1.226562-.566406 1.867187-.128906.636719-.199218 1.296875-.199218 1.945313 0 .652343.070312 1.308593.199218 1.960937.117188.628906.320313 1.257813.566406 1.867187.25.597657.550782 1.175782.921876 1.71875.359374.546876.777343 1.058594 1.238281 1.515626.457031.46875.96875.878906 1.519531 1.25.539062.359374 1.117188.667968 1.714844.917968.609375.25 1.242187.441406 1.878906.570313.640625.128906 1.300781.1875 1.949219.1875.648437 0 1.308593-.058594 1.945312-.1875.640625-.128907 1.269531-.320313 1.867188-.570313.609375-.25 1.191406-.558594 1.730469-.917968.546874-.371094 1.058593-.78125 1.515624-1.25.460938-.457032.882813-.96875 1.238282-1.515626.359375-.542968.671875-1.121093.921875-1.71875.25-.609374.449219-1.238281.566406-1.867187.132813-.652344.199219-1.308594.199219-1.960937 0-.648438-.066406-1.308594-.199219-1.945313-.117187-.640625-.316406-1.269531-.566406-1.867187zm0 0"/><path d="m296.664062 421.429688c-.25-.609376-.558593-1.191407-.917968-1.730469-.359375-.546875-.777344-1.058594-1.238282-1.515625-.460937-.460938-.976562-.878906-1.519531-1.238282-.546875-.359374-1.128906-.671874-1.726562-.921874-.597657-.25-1.226563-.4375-1.867188-.566407-1.289062-.261719-2.617187-.261719-3.90625 0-.640625.128907-1.269531.316407-1.867187.566407s-1.175782.5625-1.726563.921874c-.539062.359376-1.050781.777344-1.507812 1.238282-.46875.457031-.878907.96875-1.25 1.515625-.359375.539062-.667969 1.121093-.917969 1.730469-.25.597656-.441406 1.226562-.570312 1.867187-.128907.636719-.199219 1.296875-.199219 1.945313 0 .652343.070312 1.308593.199219 1.960937.128906.628906.320312 1.257813.570312 1.867187.25.597657.558594 1.175782.917969 1.71875.371093.546876.78125 1.058594 1.25 1.515626.457031.460937.96875.878906 1.507812 1.25.550781.359374 1.128907.667968 1.726563.917968.601562.25 1.226562.441406 1.867187.570313.648438.128906 1.300781.1875 1.960938.1875.644531 0 1.296875-.058594 1.945312-.1875.640625-.128907 1.269531-.320313 1.867188-.570313.601562-.25 1.179687-.558594 1.726562-.917968.539063-.371094 1.058594-.789063 1.519531-1.25.460938-.457032.878907-.96875 1.238282-1.515626.359375-.542968.667968-1.121093.917968-1.71875.25-.609374.441407-1.238281.570313-1.867187.128906-.652344.199219-1.308594.199219-1.960937 0-.648438-.070313-1.308594-.199219-1.945313-.128906-.640625-.320313-1.269531-.570313-1.867187zm0 0"/><path d="m296.664062 387.179688c-.25-.597657-.558593-1.179688-.917968-1.71875-.359375-.550782-.777344-1.058594-1.238282-1.519532-.460937-.457031-.976562-.878906-1.519531-1.246094-.546875-.359374-1.128906-.667968-1.726562-.917968-.597657-.25-1.226563-.441406-1.867188-.570313-1.289062-.261719-2.617187-.261719-3.90625 0-.640625.128907-1.269531.320313-1.867187.570313s-1.175782.558594-1.726563.917968c-.539062.367188-1.050781.789063-1.507812 1.246094-.46875.460938-.878907.96875-1.25 1.519532-.359375.539062-.667969 1.121093-.917969 1.71875-.25.609374-.441406 1.238281-.570312 1.867187-.128907.648437-.199219 1.308594-.199219 1.957031 0 .648438.070312 1.308594.199219 1.949219.128906.636719.320312 1.269531.570312 1.867187.25.609376.558594 1.1875.917969 1.726563.371093.550781.78125 1.058594 1.25 1.519531.457031.460938.96875.878906 1.507812 1.238282.550781.359374 1.128907.667968 1.726563.917968.601562.25 1.226562.441406 1.867187.570313.648438.128906 1.300781.199219 1.960938.199219.644531 0 1.296875-.070313 1.945312-.199219.640625-.128907 1.269531-.320313 1.867188-.570313.601562-.25 1.179687-.558594 1.726562-.917968.539063-.359376 1.058594-.777344 1.519531-1.238282.460938-.460937.878907-.96875 1.238282-1.519531.359375-.539063.667968-1.117187.917968-1.726563.25-.597656.441407-1.230468.570313-1.867187.128906-.640625.199219-1.300781.199219-1.949219 0-.648437-.070313-1.308594-.199219-1.957031-.128906-.628906-.320313-1.257813-.570313-1.867187zm0 0"/></svg>