<svg height="512pt" viewBox="-6 0 512 512" width="512pt" xmlns="http://www.w3.org/2000/svg"><path d="m499.960938 349.105469-19.796876-220.238281c-.25-49.59375-40.675781-89.867188-90.328124-89.867188h-16.871094l-57.515625-37.382812c-.039063-.027344-.082031-.046876-.121094-.070313-.300781-.1875-.609375-.359375-.929687-.519531-.085938-.039063-.167969-.082032-.253907-.121094-.730469-.335938-1.507812-.582031-2.324219-.734375-.101562-.019531-.207031-.03125-.3125-.046875-.292968-.0429688-.589843-.0742188-.890624-.09375-.125-.0078125-.253907-.015625-.382813-.0195312-.078125 0-.152344-.0117188-.234375-.0117188h-120c-.441406 0-.875.0390625-1.300781.09375-.101563.011719-.203125.03125-.304688.046875-.390625.0625-.773437.144531-1.144531.253906-.039062.007813-.082031.015625-.121094.027344-.421875.128906-.832031.285156-1.230468.464844-.070313.03125-.140626.066406-.210938.101562-.351562.167969-.695312.359375-1.027344.566407-.035156.023437-.074218.039062-.109375.0625l-57.515625 37.382812h-16.871094c-49.652343 0-90.078124 40.273438-90.328124 89.867188l-19.7968755 220.238281c-.2500005 2.796875.6874995 5.570312 2.5781255 7.640625 1.894531 2.074218 4.574218 3.253906 7.382812 3.253906h40.53125c19.503906 0 37.425781-8.691406 49.46875-22.957031v164.957031c0 5.523438 4.476562 10 10 10h280c5.523438 0 10-4.476562 10-10v-109.804688c.160156-.707031.25-1.4375.25-2.195312s-.089844-1.488281-.25-2.195312v-25.683594c.160156-.707032.25-1.441406.25-2.199219s-.089844-1.488281-.25-2.195313v-22.234374c12.996094 15.238281 32.234375 24.507812 53.160156 24.507812h36.839844c2.808594 0 5.484375-1.179688 7.382812-3.253906 1.894532-2.070313 2.828126-4.84375 2.578126-7.640625zm-119.960938.824219-29.59375.011718c-5.523438 0-10 4.480469-9.996094 10.003906 0 5.519532 4.480469 9.996094 10 9.996094h.003906l29.585938-.011718v10.070312h-260v-10.066406l150.339844.140625h.007812c5.519532 0 9.996094-4.46875 10-9.988281.007813-5.523438-4.464844-10.007813-9.988281-10.011719l-150.359375-.140625v-9.933594h109.980469.011719.011718 149.996094zm-159.75 50.070312v92h-60v-92zm-49.441406-80 41.441406-51.804688c.054688-.0625.105469-.128906.15625-.191406l41.503906-51.882812s.003906-.003906.003906-.003906l50.785157-63.480469c9.867187-12.332031 15.300781-27.824219 15.300781-43.625v-80.585938l40 26v73.464844c0 12.042969-4.074219 23.910156-11.472656 33.421875l-123.417969 158.6875zm-30.808594-265.574219 40-26v76.464844c0 18.484375 5.605469 36.261719 16.207031 51.414063l37.308594 53.296874-28.234375 35.289063-56.109375-84.15625c-6-9.003906-9.171875-19.484375-9.171875-30.304687zm106.535156 138.898438-33.941406-48.488281c-8.238281-11.773438-12.59375-25.585938-12.59375-39.945313v-34.890625h100v39.011719c0 11.273437-3.875 22.332031-10.917969 31.132812zm53.464844-143.324219h-100v-30h100zm-207.003906 259.394531c-6.101563 18.304688-23.167969 30.605469-42.464844 30.605469h-29.59375l18.859375-209.773438c.023437-.296874.039063-.597656.039063-.898437 0-38.777344 31.550781-70.328125 70.328124-70.328125h9.835938v71.429688c0 14.78125 4.332031 29.097656 12.53125 41.398437l59.640625 89.449219-46.980469 58.722656h-25.191406v-29.789062c0-.015626 0-.027344 0-.039063v-80.171875c0-5.523438-4.476562-10-10-10s-10 4.476562-10 10v78.378906zm27.003906 90.605469h20.25v92h-20.25zm120.25 92v-92h139.75v92zm212.910156-152c-21.503906 0-40.519531-13.707031-47.320312-34.105469l-5.839844-17.515625v-78.378906c0-5.523438-4.476562-10-10-10s-10 4.476562-10 10v80.175781.035157 29.789062h-129.554688l113.867188-146.410156c10.117188-13 15.6875-29.230469 15.6875-45.699219v-68.890625h9.835938c38.777343 0 70.328124 31.550781 70.328124 70.328125 0 .300781.015626.601563.042969.898437l18.855469 209.773438zm0 0"/><path d="m301.121094 363.898438c.25.601562.550781 1.179687.917968 1.730468.359376.542969.78125 1.0625 1.242188 1.519532.457031.460937.96875.882812 1.519531 1.242187.539063.359375 1.121094.667969 1.71875.917969.609375.25 1.242188.441406 1.871094.570312.648437.132813 1.308594.191406 1.960937.191406.648438 0 1.308594-.058593 1.949219-.191406.640625-.128906 1.269531-.320312 1.871094-.570312.609375-.25 1.1875-.558594 1.726563-.917969.550781-.359375 1.0625-.78125 1.523437-1.242187.457031-.457032.878906-.976563 1.238281-1.519532.359375-.550781.671875-1.128906.921875-1.730468.25-.597657.449219-1.226563.566407-1.867188.132812-.652344.203124-1.300781.203124-1.953125 0-2.636719-1.070312-5.21875-2.929687-7.066406-.460937-.472657-.972656-.882813-1.523437-1.25-.539063-.363281-1.117188-.671875-1.726563-.921875-.601563-.25-1.230469-.441406-1.871094-.570313-1.289062-.257812-2.621093-.257812-3.910156 0-.628906.128907-1.261719.320313-1.871094.570313-.597656.25-1.179687.558594-1.71875.921875-.550781.367187-1.0625.777343-1.519531 1.25-1.859375 1.847656-2.929688 4.429687-2.929688 7.066406 0 .652344.070313 1.300781.1875 1.953125.132813.640625.332032 1.269531.582032 1.867188zm0 0"/></svg>