<svg height="512pt" viewBox="-26 0 512 512" width="512pt" xmlns="http://www.w3.org/2000/svg"><path d="m460.332031 129.328125c0-32.890625-17.675781-61.730469-44.027343-77.527344-.230469-.160156-.460938-.316406-.710938-.460937-.160156-.09375-.324219-.167969-.488281-.25-13.28125-7.6875-28.6875-12.089844-45.105469-12.089844h-33.6875l-16.976562-33.519531c-1.703126-3.359375-5.152344-5.480469-8.921876-5.480469h-160c-3.730468 0-7.152343 2.078125-8.875 5.390625l-17.449218 33.609375h-33.761719c-49.804687 0-90.328125 40.523438-90.328125 90.347656l.414062 220.671875c.011719 5.515625 4.484376 9.980469 10 9.980469h69.75v142c0 5.523438 4.476563 10 10 10h280c5.523438 0 10-4.476562 10-10v-109.804688c.160157-.707031.25-1.4375.25-2.195312s-.089843-1.488281-.25-2.195312v-27.804688h70.25c2.652344 0 5.199219-1.054688 7.074219-2.929688s2.925781-4.421874 2.925781-7.074218zm-228.292969 5.363281-26.683593-40.308594c-3.230469-4.847656-4.941407-10.492187-4.941407-16.320312v-18.0625h60v18.0625c0 5.828125-1.707031 11.472656-4.9375 16.320312-.117187.171876-.226562.347657-.328124.523438zm28.375-94.691406h-60v-20h60zm-130.25 19c3.734376 0 7.15625-2.078125 8.875-5.390625l17.453126-33.609375h23.921874v58.0625c0 9.789062 2.871094 19.269531 8.285157 27.386719l32.132812 48.542969-96.421875 166.007812h-24.164062v-145.425781c0-30.914063-8.171875-61.40625-23.632813-88.175781l-12.8125-22.1875c8.191407-3.347657 17.144531-5.210938 26.53125-5.210938zm230 321h-58.789062v-23.574219c0-5.90625-1.421875-11.484375-3.929688-16.425781h62.71875zm-106.046874 52.878906c-.261719.253906-.503907.519532-.734376.796875-12.398437 12.640625-28.34375 21.273438-45.902343 24.6875l29.425781-58.363281h38.183594l-5.902344 11.632812c-3.980469 7.84375-9.003906 14.902344-14.847656 21.054688-.074219.066406-.148438.121094-.222656.191406zm32.90625-12.199218 4.324218-8.523438 23.28125 46.179688c-10.269531-2.019532-20.140625-5.863282-29.140625-11.390626-3.679687-2.257812-7.183593-4.789062-10.484375-7.554687 4.570313-5.734375 8.609375-11.988281 12.019532-18.710937zm-5.648438-64.253907v23.574219h-40.625v-23.570312c0-9.058594 7.367188-16.429688 16.429688-16.429688h7.769531c9.054687 0 16.425781 7.367188 16.425781 16.425781zm-60.628906.003907v23.570312h-120.582032v-27.804688c.160157-.707031.25-1.4375.25-2.195312s-.089843-1.488281-.25-2.195312v-7.804688h124.515626c-2.507813 4.941406-3.933594 10.519531-3.933594 16.429688zm-200.347656-16.429688-.398438-210.671875c0-22.238281 10.390625-42.085937 26.554688-54.984375l12.742187 22.058594c13.707031 23.734375 20.949219 50.765625 20.949219 78.171875v154.199219c-.046875.402343-.082032.8125-.082032 1.226562v10zm79.765624 60h20.25v92h-20.25zm40.25 92v-92h74.09375l-33.019531 65.496094c-1.5625 3.101562-1.40625 6.789062.414063 9.746094 1.820312 2.957031 5.042968 4.757812 8.511718 4.757812 26.554688 0 51.417969-9.53125 70.695313-26.164062 4.355469 3.742187 9.007813 7.144531 13.914063 10.15625 17.050781 10.472656 36.652343 16.007812 56.683593 16.007812 3.472657 0 6.695313-1.800781 8.515625-4.757812 1.820313-2.957032 1.976563-6.644532.414063-9.746094l-33.019531-65.496094h52.546874v92zm239.75-152v-59.75c0-5.523438-4.476562-10-10-10-5.519531 0-10 4.476562-10 10v39.75h-212.625l124.757813-214.792969c5.3125-8.085937 8.117187-17.460937 8.117187-27.144531v-58.0625h23.855469l16.976563 33.519531c1.699218 3.363281 5.148437 5.480469 8.917968 5.480469h39.835938c9.410156 0 18.386719 1.871094 26.597656 5.238281l-12.796875 22.160157c-15.460937 26.773437-23.636719 57.261718-23.636719 88.179687v25.421875c0 5.523438 4.480469 10 10 10 5.523438 0 10-4.476562 10-10v-25.425781c0-27.40625 7.246094-54.4375 20.953126-78.175781l12.714843-22.011719c16.132813 12.898437 26.5 32.730469 26.5 54.949219l.078125 210.664062zm0 0"/><path d="m379.476562 236.460938c-.25-.609376-.5625-1.191407-.921874-1.730469-.359376-.550781-.78125-1.058594-1.238282-1.519531-.460937-.460938-.980468-.882813-1.519531-1.242188-.550781-.359375-1.132813-.667969-1.730469-.917969-.601562-.25-1.230468-.441406-1.871094-.570312-1.289062-.261719-2.621093-.261719-3.910156 0-.640625.128906-1.269531.320312-1.871094.570312-.597656.25-1.179687.558594-1.726562.917969-.542969.359375-1.0625.78125-1.523438 1.242188-.457031.460937-.878906.96875-1.238281 1.519531-.359375.539062-.667969 1.121093-.917969 1.730469-.25.597656-.441406 1.230468-.570312 1.867187-.132812.640625-.191406 1.300781-.191406 1.953125 0 .648438.0625 1.308594.191406 1.957031.128906.632813.320312 1.261719.570312 1.871094.25.601563.558594 1.179687.917969 1.71875.359375.550781.78125 1.0625 1.238281 1.523437.460938.457032.980469.878907 1.523438 1.25.546875.359376 1.128906.667969 1.726562.917969.601563.25 1.230469.441407 1.871094.570313.648438.128906 1.300782.191406 1.960938.191406.648437 0 1.300781-.0625 1.949218-.191406.640626-.128906 1.269532-.320313 1.871094-.570313.597656-.25 1.179688-.558593 1.730469-.917969.539063-.371093 1.058594-.792968 1.519531-1.25.457032-.460937.878906-.972656 1.238282-1.523437.359374-.539063.671874-1.117187.921874-1.71875.25-.609375.4375-1.238281.570313-1.871094.128906-.648437.199219-1.308593.199219-1.957031 0-.652344-.070313-1.3125-.199219-1.953125-.132813-.636719-.320313-1.269531-.570313-1.867187zm0 0"/></svg>