<svg height="511pt" viewBox="0 -95 511.99994 511" width="511pt" xmlns="http://www.w3.org/2000/svg"><path d="m511.511719 186.046875c-17.328125-53.441406-51.996094-101.140625-97.617188-134.3125-46.066406-33.519531-100.664062-51.234375-157.894531-51.234375-57.226562 0-111.820312 17.714844-157.882812 51.222656 0 .003906-.003907.003906-.007813.003906 0 .003907-.003906.003907-.003906.007813-45.625 33.171875-80.289063 80.875-97.617188 134.3125-1.699219 5.25 1.171875 10.886719 6.421875 12.59375l218.105469 70.867187c-12.628906 9.503907-20.808594 24.613282-20.808594 41.597657 0 5.523437 4.476563 10 10 10h84.085938c5.523437 0 10-4.476563 10-10 0-17.054688-8.242188-32.214844-20.957031-41.714844l217.75-70.75c5.253906-1.707031 8.125-7.34375 6.425781-12.59375zm-118.175781 27.875-111.15625 36.117187 4.402343-6.058593c3.246094-4.46875 2.253907-10.722657-2.210937-13.96875-4.46875-3.246094-10.722656-2.253907-13.96875 2.210937l-4.402344 6.0625v-116.839844c24.542969 1.625 47.964844 9.222657 68.691406 22.285157l-18 24.773437c-3.246094 4.46875-2.253906 10.722656 2.214844 13.96875 1.773438 1.289063 3.828125 1.910156 5.867188 1.910156 3.09375 0 6.140624-1.429687 8.097656-4.121093l17.988281-24.757813c18.683594 15.648438 33.410156 35.898438 42.476563 58.417969zm-147.335938 24.359375-68.691406-94.550781c20.722656-13.058594 44.144531-20.660157 68.691406-22.28125zm0-136.878906c-28.800781 1.675781-56.285156 10.59375-80.472656 26.109375l-47.460938-65.324219c38.089844-25.464844 81.949219-39.691406 127.933594-41.492188zm-84.859375 54.101562 68.675781 94.535156-111.148437-36.117187c9.0625-22.519531 23.789062-42.765625 42.472656-58.417969zm185.332031-27.992187c-24.191406-15.515625-51.675781-24.433594-80.476562-26.109375v-80.707032c45.984375 1.800782 89.84375 16.023438 127.9375 41.492188zm-244.574218-53.550781 47.460937 65.324218c-22.046875 18.164063-39.339844 41.953125-49.75 68.445313l-76.816406-24.957031c15.753906-42.5 43.429687-80.566407 79.105469-108.8125zm123.90625 227.144531c4.207031-12.789063 16.265624-22.042969 30.445312-22.042969s26.238281 9.253906 30.449219 22.042969zm186.585937-93.375c-10.410156-26.492188-27.703125-50.285157-49.75-68.445313l47.457031-65.324218c35.679688 28.246093 63.355469 66.3125 79.109375 108.8125zm0 0"/><path d="m308.589844 204.1875c-.25-.601562-.5625-1.179688-.921875-1.730469-.359375-.539062-.777344-1.058593-1.238281-1.519531-2.320313-2.320312-5.78125-3.378906-9.03125-2.730469-.628907.132813-1.257813.320313-1.867188.570313-.601562.25-1.183594.5625-1.722656.921875-.550782.359375-1.058594.78125-1.519532 1.238281-.460937.460938-.878906.980469-1.25 1.519531-.359374.550781-.667968 1.132813-.917968 1.730469-.25.601562-.441406 1.230469-.570313 1.871094-.132812.648437-.191406 1.300781-.191406 1.960937 0 .648438.058594 1.300781.191406 1.949219.128907.640625.328125 1.269531.578125 1.867188.25.601562.550782 1.183593.910156 1.730468.371094.542969.789063 1.0625 1.25 1.519532.460938.460937.96875.871093 1.519532 1.242187.539062.359375 1.121094.667969 1.722656.917969.609375.25 1.238281.441406 1.867188.570312.652343.132813 1.3125.191406 1.960937.191406 2.628906 0 5.210937-1.0625 7.070313-2.921874.460937-.460938.878906-.976563 1.238281-1.519532.359375-.550781.671875-1.128906.921875-1.730468.25-.597657.4375-1.226563.570312-1.871094.128906-.648438.199219-1.296875.199219-1.945313 0-.660156-.070313-1.3125-.199219-1.960937-.132812-.640625-.320312-1.269532-.570312-1.871094zm0 0"/></svg>