<svg height="512pt" viewBox="0 0 512 512" width="512pt" xmlns="http://www.w3.org/2000/svg"><path d="m461.726562 229.449219 49.433594-116.316407c1.316406-3.097656.992188-6.644531-.863281-9.449218-1.855469-2.804688-4.992187-4.488282-8.355469-4.488282h-101.199218v-10.191406c0-27.53125-22.398438-49.925781-49.925782-49.925781h-251.878906c-2.054688-9.183594-6.667969-17.625-13.449219-24.410156-9.460937-9.460938-22.035156-14.667969-35.410156-14.667969-27.613281 0-50.078125 22.464844-50.078125 50.078125v411.84375c0 27.613281 22.464844 50.078125 50.078125 50.078125s50.078125-22.464844 50.078125-50.078125v-162.335937h151.308594c.265625 32.3125 25.9375 58.675781 57.980468 60.050781.367188.039062.742188.066406 1.121094.066406.167969 0 .335938-.019531.503906-.027344.332032.007813.664063.027344 1 .027344h189.871094c3.363282 0 6.5-1.6875 8.355469-4.492187 1.855469-2.800782 2.179687-6.351563.863281-9.445313zm-381.609374 232.472656c0 16.5625-13.476563 30.039063-30.039063 30.039063s-30.039063-13.476563-30.039063-30.039063v-411.84375c0-16.5625 13.476563-30.039063 30.039063-30.039063 8.023437 0 15.566406 3.125 21.238281 8.796876 5.484375 5.480468 8.605469 12.761718 8.792969 20.503906 0 .011718.003906.023437.003906.035156 0 .007812-.003906.015625 0 .027344.003907.21875.003907.445312.003907.675781v29.703125h-30.058594c-5.535156 0-10.019532 4.488281-10.019532 10.019531s4.484376 10.019531 10.019532 10.019531h30.058594v19.414063h-30.058594c-5.535156 0-10.019532 4.484375-10.019532 10.019531 0 5.53125 4.484376 10.019532 10.019532 10.019532h30.058594v19.410156h-30.058594c-5.535156 0-10.019532 4.488281-10.019532 10.019531 0 5.535156 4.484376 10.019531 10.019532 10.019531h30.058594zm191.386718-162.335937h54.957032c-12.878907 9.097656-21.882813 22.929687-24.84375 38.707031-17.171876-4.582031-29.886719-20.167969-30.113282-38.707031zm50.3125 40.078124c3.621094-14.554687 14.976563-26.289062 30.0625-30.058593l41.273438-10.320313c.074218-.019531.140625-.042968.210937-.0625.203125-.054687.398438-.117187.597657-.183594.125-.042968.253906-.089843.378906-.136718.175781-.070313.347656-.140625.515625-.21875.144531-.0625.285156-.132813.421875-.203125.144531-.074219.285156-.148438.421875-.226563.15625-.089844.304687-.179687.453125-.277344.117187-.074218.234375-.152343.347656-.234374.152344-.109376.304688-.21875.449219-.335938.105469-.082031.207031-.167969.304687-.253906.144532-.125.28125-.25.417969-.378906.097656-.097657.195313-.195313.289063-.292969.125-.128907.242187-.261719.359374-.394531.097657-.117188.195313-.234376.289063-.355469.097656-.125.195313-.253907.289063-.382813.097656-.140625.1875-.28125.28125-.425781.078124-.121094.152343-.246094.226562-.371094.089844-.15625.175781-.316406.253906-.476562.066406-.125.125-.25.183594-.375.074219-.167969.144531-.335938.210938-.507813.050781-.132812.101562-.269531.148437-.40625.054687-.160156.105469-.328125.152344-.496094.042969-.15625.085937-.3125.121093-.46875.035157-.152343.066407-.300781.09375-.453124.035157-.183594.0625-.371094.085938-.558594.015625-.132813.03125-.265625.042969-.402344.015625-.207031.027343-.410156.03125-.617188 0-.074218.011719-.148437.011719-.222656v-40.082031c0-5.53125-4.488282-10.019531-10.019532-10.019531-5.535156 0-10.019531 4.488281-10.019531 10.019531v30.0625h-280.546875v-220.429687h250.65625c16.480469 0 29.890625 13.40625 29.890625 29.886718v80.328125c0 5.53125 4.484375 10.019531 10.019531 10.019531 5.53125 0 10.019532-4.488281 10.019532-10.019531v-50.097656h86.050781l-45.175781 106.296875c-1.0625 2.503906-1.0625 5.332031 0 7.835938l45.179687 106.296874zm0 0"/><path d="m250.449219 89.175781c-44.199219 0-80.15625 35.957031-80.15625 80.15625 0 44.195313 35.957031 80.15625 80.15625 80.15625s80.15625-35.960937 80.15625-80.15625c0-44.199219-35.957031-80.15625-80.15625-80.15625zm0 140.273438c-33.148438 0-60.117188-26.96875-60.117188-60.117188 0-33.148437 26.96875-60.117187 60.117188-60.117187 33.148437 0 60.117187 26.96875 60.117187 60.117187 0 33.148438-26.96875 60.117188-60.117187 60.117188zm0 0"/><path d="m400.050781 206.28125c-.25-.609375-.558593-1.191406-.921875-1.730469-.371094-.550781-.78125-1.0625-1.242187-1.523437-.460938-.460938-.980469-.882813-1.523438-1.242188-.550781-.359375-1.132812-.671875-1.734375-.921875-.597656-.25-1.230468-.441406-1.871094-.570312-1.292968-.261719-2.625-.261719-3.917968 0-.640625.128906-1.273438.320312-1.875.570312-.601563.25-1.179688.5625-1.730469.921875-.542969.359375-1.0625.78125-1.523437 1.242188-.460938.460937-.882813.972656-1.242188 1.523437-.363281.539063-.671875 1.121094-.921875 1.730469-.25.601562-.441406 1.234375-.570313 1.875-.132812.652344-.203124 1.304688-.203124 1.953125 0 .652344.070312 1.3125.203124 1.964844.128907.640625.320313 1.261719.570313 1.875.25.601562.558594 1.179687.921875 1.722656.371094.550781.78125 1.0625 1.242188 1.523437.460937.460938.980468.878907 1.523437 1.25.550781.363282 1.132813.671876 1.730469.921876.601562.25 1.234375.441406 1.875.574218.652344.128906 1.304687.1875 1.953125.1875.660156 0 1.3125-.058594 1.964843-.1875.640626-.132812 1.273438-.324218 1.871094-.574218.605469-.25 1.183594-.558594 1.734375-.921876.542969-.371093 1.0625-.789062 1.523438-1.25.460937-.460937.871093-.972656 1.242187-1.523437.363282-.542969.671875-1.121094.921875-1.722656.25-.613281.441407-1.242188.570313-1.875.132812-.652344.203125-1.3125.203125-1.964844 0-.648437-.070313-1.300781-.203125-1.953125-.128906-.640625-.320313-1.273438-.570313-1.875zm0 0"/></svg>