<svg height="512pt" viewBox="-1 0 512 512.00001" width="512pt" xmlns="http://www.w3.org/2000/svg"><path d="m480.46875 419.535156c-13.023438 0-24.132812 8.351563-28.253906 19.980469h-32.128906c-2.664063 0-5.171876-1.042969-7.058594-2.929687-1.890625-1.886719-2.929688-4.394532-2.929688-7.0625 0-5.507813 4.480469-9.988282 9.988282-9.988282h19.976562c14.636719 0 55.773438-17.3125 63.871094-20.785156 3.671875-1.574219 6.050781-5.183594 6.050781-9.179688 0-3.996093-2.378906-7.609374-6.050781-9.183593-8.097656-3.46875-49.234375-20.785157-63.871094-20.785157h-19.976562c-2.664063 0-5.171876-1.039062-7.058594-2.929687-1.890625-1.886719-2.929688-4.394531-2.929688-7.058594 0-5.507812 4.480469-9.988281 9.988282-9.988281h31.9375c3.902343 11.597656 14.882812 19.976562 27.78125 19.976562h1.332031c16.15625 0 29.300781-13.144531 29.300781-29.300781 0-27.90625-22.703125-50.609375-50.613281-50.609375h-59.464844c-27.679687 0-50.195313 22.515625-50.195313 50.195313v29.714843h-41.253906c-5.097656 0-9.242187-4.144531-9.242187-9.238281v-70.671875c0-44.0625-35.847657-79.914062-79.917969-79.914062-44.058594 0-79.902344 35.851562-79.902344 79.914062l-.011718 159.578125c0 .132813-.109376.246094-.246094.246094h-59.6875v-259.882813h117.726562c54.859375 0 101.515625 2.628907 159.863282 35.550782l5.492187 4.84375c1.863281 1.640625 4.222656 2.496094 6.609375 2.496094 1.390625 0 2.789062-.292969 4.109375-.886719 3.574219-1.617188 5.875-5.179688 5.875-9.105469 0-57.996094-19.167969-107.097656-55.429687-141.992188-33.882813-32.605468-81.242188-50.5625-133.359376-50.5625h-116.261718c-6.917969-11.929687-19.820313-19.976562-34.578125-19.976562-22.027344 0-39.949219 17.921875-39.949219 39.949219v432.101562c0 22.027344 17.921875 39.949219 39.949219 39.949219 11.433593 0 21.75-4.832031 29.039062-12.550781h81.835938c27.539062 0 49.945312-22.40625 49.945312-49.945313l.007813-166.316406c0-10.742188 8.734375-19.480469 19.480468-19.480469 10.738282 0 19.476563 8.738281 19.476563 19.480469v71.421875c0 35.800781 29.128906 64.925781 64.929687 64.925781h45.5v29.71875c0 27.675782 22.515626 50.195313 50.195313 50.195313h60.132813c27.539062 0 49.945312-22.40625 49.945312-49.945313 0-16.523437-13.445312-29.96875-29.96875-29.96875zm-121.691406-226.402344c-58.667969-30.859374-107.859375-33.480468-161.144532-33.480468h-117.730468v-39.785156h49.953125c5.515625 0 9.988281-4.472657 9.988281-9.988282s-4.472656-9.988281-9.988281-9.988281h-49.953125v-20.3125h29.976562c5.515625 0 9.988282-4.472656 9.988282-9.988281s-4.472657-9.988282-9.988282-9.988282h-29.976562v-19.644531h110.886718c94.507813 0 159.988282 60.757813 167.988282 153.175781zm-308.835938 296.183594v-139.703125c0-5.515625-4.476562-9.988281-9.992187-9.988281s-9.988281 4.472656-9.988281 9.988281v139.703125c-5.957032-3.457031-9.984376-9.894531-9.984376-17.265625v-432.101562c0-11.011719 8.960938-19.972657 19.972657-19.972657 11.015625 0 19.972656 8.960938 19.972656 19.972657v432.101562c0 7.371094-4.023437 13.808594-9.980469 17.265625zm254.722656-89.757812c-24.785156 0-44.949218-20.164063-44.949218-44.949219v-71.421875c0-21.757812-17.703125-39.457031-39.46875-39.457031-21.75 0-39.445313 17.699219-39.445313 39.457031l-.011719 166.316406c0 16.523438-13.441406 29.964844-29.964843 29.964844h-71.625c.457031-2.40625.703125-19.976562.703125-19.976562h59.6875c11.152344 0 20.222656-9.070313 20.222656-20.222657l.011719-159.578125c0-33.046875 26.878906-59.933594 59.933593-59.933594 33.046876 0 59.933594 26.886719 59.933594 59.933594v70.671875c0 16.109375 13.105469 29.21875 29.21875 29.21875h41.253906v19.976563zm155.828126 79.910156h-60.132813c-16.664063 0-30.21875-13.554688-30.21875-30.214844v-119.367187c0-16.664063 13.554687-30.21875 30.21875-30.21875h59.464844c16.890625 0 30.632812 13.742187 30.632812 30.632812 0 5.140625-4.179687 9.324219-9.320312 9.324219h-1.335938c-5.136719 0-9.320312-4.183594-9.320312-9.324219v-.664062c0-5.515625-4.472657-9.988281-9.988281-9.988281h-40.40625c-16.523438 0-29.96875 13.441406-29.96875 29.964843 0 8 3.117187 15.527344 8.78125 21.1875 5.660156 5.660157 13.1875 8.78125 21.1875 8.78125h19.976562c4.695312 0 18.214844 4.320313 33.214844 9.988281-15 5.667969-28.519532 9.988282-33.214844 9.988282h-19.976562c-16.523438 0-29.96875 13.441406-29.96875 29.964844 0 8.003906 3.117187 15.527343 8.78125 21.1875 5.660156 5.664062 13.1875 8.78125 21.1875 8.78125h40.40625c5.515624 0 9.988281-4.472657 9.988281-9.988282 0-5.507812 4.480469-9.988281 9.988281-9.988281s9.988281 4.480469 9.988281 9.988281c0 16.523438-13.441406 29.964844-29.964843 29.964844zm0 0"/><path d="m49.433594 305.832031c-.246094-.601562-.558594-1.179687-.917969-1.71875-.359375-.550781-.777344-1.058593-1.238281-1.519531-.460938-.457031-.96875-.878906-1.519532-1.238281-.539062-.371094-1.117187-.667969-1.726562-.917969-.601562-.25-1.230469-.449219-1.867188-.578125-3.246093-.648437-6.691406.417969-9.011718 2.734375-.460938.460938-.878906.96875-1.25 1.519531-.355469.539063-.667969 1.117188-.917969 1.71875-.25.609375-.4375 1.238281-.566406 1.878907-.132813.636718-.191407 1.296874-.191407 1.945312s.058594 1.308594.191407 1.949219c.128906.640625.316406 1.269531.566406 1.867187.25.609375.5625 1.1875.917969 1.726563.371094.550781.789062 1.058593 1.25 1.519531 1.859375 1.859375 4.433594 2.929688 7.0625 2.929688.648437 0 1.308594-.070313 1.949218-.203126.636719-.117187 1.265626-.316406 1.867188-.566406.605469-.25 1.1875-.5625 1.726562-.921875.550782-.355469 1.058594-.777343 1.519532-1.238281.457031-.457031.878906-.96875 1.238281-1.515625.359375-.539063.667969-1.121094.917969-1.730469.25-.597656.4375-1.226562.570312-1.867187.128906-.640625.199219-1.296875.199219-1.945313 0-.652344-.070313-1.3125-.199219-1.949218-.132812-.636719-.320312-1.269532-.570312-1.878907zm0 0"/></svg>