<svg height="512pt" viewBox="-27 0 512 512.00131" width="512pt" xmlns="http://www.w3.org/2000/svg"><path d="m78.296875 239.964844c-.03125 0-.0625 0-.09375 0-5.503906 0-9.988281 4.4375-10.039063 9.953125-.050781 5.542969 4.40625 10.078125 9.953126 10.128906 28.078124.253906 40.355468 9.707031 46.140624 20.085937h-46.136718c-5.542969 0-10.042969 4.496094-10.042969 10.039063 0 5.546875 4.5 10.042969 10.042969 10.042969h60.332031c3.035156 0 5.910156-1.375 7.816406-3.734375 1.90625-2.363281 2.640625-5.460938 2-8.429688-4.683593-21.691406-20.628906-47.644531-69.972656-48.085937zm0 0"/><path d="m217.742188 300.214844h60.332031c5.542969 0 10.039062-4.496094 10.039062-10.042969 0-5.542969-4.496093-10.039063-10.039062-10.039063h-46.136719c5.785156-10.375 18.0625-19.832031 46.140625-20.085937 5.546875-.050781 10.003906-4.582031 9.953125-10.128906-.050781-5.515625-4.535156-9.953125-10.039062-9.953125-.03125 0-.0625 0-.09375 0-49.347657.441406-65.289063 26.394531-69.972657 48.089844-.640625 2.964843.09375 6.0625 2 8.425781 1.90625 2.359375 4.78125 3.734375 7.816407 3.734375zm0 0"/><path d="m458.53125 161.726562c0-2.664062-1.058594-5.21875-2.941406-7.101562-13.277344-13.277344-30.925782-20.585938-49.703125-20.585938-18.773438 0-36.425781 7.308594-49.703125 20.585938l-11.265625 11.265625s-.089844-33.957031-.257813-36.703125c-.003906-.105469-.007812-.207031-.015625-.308594-.554687-8.902344-1.96875-17.558594-4.238281-25.820312-.898438-3.265625-1.941406-6.476563-3.113281-9.632813-.046875-.140625-.097657-.28125-.152344-.417969-12.296875-32.746093-39.144531-59.355468-76.632813-75.621093-36.636718-15.894531-82.085937-21.222657-124.695312-14.609375-19.683594 3.050781-38.105469 8.46875-54.761719 16.097656-48.503906 22.207031-76.855469 60.234375-80.613281 107.714844-.4453125 1.453125-.4375 268.914062-.4375 268.914062 0 28.789063 16.015625 54.632813 41.792969 67.453125l70.847656 35.222657c18.53125 9.214843 38.875 13.820312 59.222656 13.820312 9.394531 0 18.789063-.992188 28.003907-2.957031.617187-.078125 1.226562-.203125 1.816406-.390625 9.917968-2.261719 19.617187-5.664063 28.867187-10.210938l72.28125-35.539062c25.960938-12.765625 42.089844-38.667969 42.089844-67.597656v-151.429688c9.222656 9.9375 22.382813 16.171875 36.976563 16.171875h59.996093c5.546875 0 10.042969-4.496094 10.042969-10.039063 0-20.519531-9.101562-39.953124-24.355469-53.175781l28.007813-28.007812c1.882812-1.878907 2.941406-4.433594 2.941406-7.097657zm-260.988281 153.289063c-5.753907-5.75-8.921875-13.398437-8.921875-21.535156v-26.652344c0-25.886719 21.058594-46.945313 46.941406-46.945313h43.429688c5.546874 0 10.042968-4.496093 10.042968-10.042968 0-5.542969-4.496094-10.039063-10.042968-10.039063h-43.429688c-36.957031 0-67.023438 30.066407-67.023438 67.027344v26.652344c0 13.5 5.253907 26.191406 14.800782 35.738281 3.136718 3.136719 4.953125 7.226562 5.226562 11.613281-6.492187-.296875-12.964844-.449219-19.410156-.449219-.390625 0-.785156 0-1.175781 0-49.972657.140626-99.65625 9.222657-147.898438 27.007813v-169.625c106.054688-23.839844 208.5-23.902344 304.757813-.175781v170.171875c-39.066406-13.488281-77.945313-22.03125-116.136719-25.542969v-.253906c0-10.179688-3.964844-19.75-11.160156-26.949219zm-108.128907-277.878906c14.976563-6.859375 31.621094-11.746094 49.476563-14.515625 11.027344-1.710938 22.25-2.550782 33.433594-2.550782 28.316406 0 56.351562 5.398438 80.1875 15.738282 18.925781 8.210937 41.890625 22.386718 56.816406 46.003906-16.433594-3.636719-32.453125-6.402344-49.1875-8.46875-5.503906-.667969-10.515625 3.230469-11.195313 8.734375-.679687 5.503906 3.230469 10.519531 8.734376 11.199219 21.128906 2.609375 41.09375 6.363281 62.359374 11.703125.347657 1.117187.6875 2.246093 1.003907 3.398437.707031 2.578125 1.304687 5.214844 1.816406 7.886719-53.957031-12.707031-109.941406-18.296875-166.675781-16.578125-5.542969.167969-9.902344 4.796875-9.734375 10.34375.167969 5.542969 4.789062 9.875 10.339843 9.730469 57.273438-1.738281 113.769532 4.214843 168.042969 17.640625 0 .03125.003907.0625.003907.09375v9.03125c-34.476563-8.238282-69.878907-13.597656-105.429688-15.9375-5.558594-.351563-10.316406 3.824218-10.683594 9.359375-.363281 5.535156 3.828125 10.3125 9.363282 10.679687 36.03125 2.371094 71.90625 7.9375 106.75 16.558594v9.722656c-48.824219-11.625-99.367188-17.425781-150.378907-17.277344-50.042969.15625-101.914062 6.054688-154.378906 17.546876v-39.675782c18.640625-4.191406 37.292969-7.6875 55.554687-10.40625 5.484376-.816406 9.269532-5.925781 8.453126-11.410156-.816407-5.484375-5.925782-9.265625-11.410157-8.453125-16.664062 2.480469-33.640625 5.597656-50.636719 9.277344 6.636719-34.496094 30.015626-62.273438 67.375-79.375zm204.558594 407.746093-72.277344 35.535157c-2.152343 1.058593-4.332031 2.035156-6.535156 2.949219 7.082032-25.628907 4.519532-53.109376-7.515625-77.1875-2.480469-4.960938-8.515625-6.972657-13.472656-4.492188-4.960937 2.480469-6.96875 8.515625-4.492187 13.472656 11.457031 22.917969 12.382812 49.625 2.539062 73.277344l-.75 1.792969c-23.53125 4.105469-48.179688.761719-69.886719-10.03125l-70.847656-35.226563c-18.90625-9.398437-30.652344-28.355468-30.652344-49.46875v-6.640625c54.65625-21.199219 110.988281-30.457031 168.539063-27.761719v9.402344c0 5.546875 4.496094 10.042969 10.039062 10.042969 5.546875 0 10.042969-4.496094 10.042969-10.042969v-7.984375c38.25 3.617188 77.007813 12.460938 116.136719 26.53125v6.253907c0 21.21875-11.828125 40.214843-30.867188 49.578124zm136.859375-204.917968h-48.933593c-13.148438 0-24.367188-8.398438-28.585938-20.113282 7.507812 4.09375 15.835938 6.152344 24.171875 6.152344 12.921875 0 25.84375-4.917968 35.679687-14.753906l.171876-.171875c8.972656 7.332031 15.167968 17.585937 17.496093 28.886719zm-31.867187-42.914063c-11.84375 11.84375-31.113282 11.84375-42.957032 0l-6.921874-6.921875 21.300781-21.304687c9.480469-9.480469 22.089843-14.703125 35.5-14.703125 10 0 19.550781 2.902344 27.695312 8.308594zm0 0"/><path d="m108.4375 120.714844c.554688.359375 1.136719.671875 1.738281.921875.601563.25 1.234375.441406 1.878907.570312.652343.132813 1.304687.203125 1.957031.203125.660156 0 1.316406-.070312 1.96875-.203125.640625-.128906 1.265625-.320312 1.878906-.570312.601563-.25 1.183594-.5625 1.726563-.921875.550781-.375 1.0625-.785156 1.523437-1.257813 1.878906-1.867187 2.953125-4.449219 2.953125-7.089843 0-.664063-.070312-1.316407-.199219-1.96875-.132812-.640626-.320312-1.273438-.574219-1.875-.25-.605469-.5625-1.1875-.921874-1.738282-.371094-.542968-.792969-1.066406-1.257813-1.527344-.460937-.460937-.972656-.882812-1.523437-1.246093-.542969-.359375-1.125-.671875-1.726563-.921875-.613281-.25-1.238281-.441406-1.878906-.570313-1.296875-.261719-2.632813-.261719-3.925781 0-.644532.128907-1.277344.320313-1.878907.570313-.601562.25-1.183593.5625-1.738281.921875-.550781.363281-1.0625.785156-1.523438 1.246093-.464843.460938-.886718.984376-1.246093 1.527344-.359375.554688-.671875 1.136719-.925781 1.738282-.25.601562-.441407 1.234374-.570313 1.875-.132813.652343-.199219 1.304687-.199219 1.96875 0 2.640624 1.070313 5.222656 2.941406 7.089843.460938.472657.972657.882813 1.523438 1.257813zm0 0"/></svg>