<svg height="512pt" viewBox="-27 0 512 512.00131" width="512pt" xmlns="http://www.w3.org/2000/svg"><path d="m88.207031 250.007812c-19.960937 0-40.167969 13.792969-40.167969 40.164063 0 5.546875 4.496094 10.042969 10.042969 10.042969 5.542969 0 10.039063-4.496094 10.039063-10.042969 0-14.824219 10.820312-20.082031 20.085937-20.082031 9.261719 0 20.082031 5.257812 20.082031 20.082031 0 5.546875 4.496094 10.042969 10.039063 10.042969 5.546875 0 10.042969-4.496094 10.042969-10.042969 0-26.367187-20.207032-40.164063-40.164063-40.164063zm0 0"/><path d="m458.53125 161.726562c0-2.664062-1.058594-5.21875-2.941406-7.101562-13.277344-13.277344-30.925782-20.585938-49.703125-20.585938-18.773438 0-36.425781 7.308594-49.703125 20.585938l-11.265625 11.265625v-28.394531c0-2.792969-.089844-5.5625-.257813-8.308594-.003906-.105469-.007812-.207031-.015625-.308594-.554687-8.902344-1.96875-17.558594-4.238281-25.820312-.898438-3.265625-1.941406-6.476563-3.113281-9.632813-.046875-.140625-.097657-.28125-.152344-.417969-12.296875-32.746093-39.144531-59.355468-76.632813-75.621093-36.636718-15.894531-82.085937-21.222657-124.695312-14.609375-19.683594 3.050781-38.105469 8.46875-54.761719 16.097656-48.503906 22.207031-76.855469 60.234375-80.613281 107.714844-.4453125 1.453125-.4375 268.914062-.4375 268.914062 0 28.789063 16.015625 54.632813 41.792969 67.453125l70.847656 35.222657c18.53125 9.214843 38.875 13.820312 59.222656 13.820312 20.148438 0 40.304688-4.519531 58.691407-13.558594l72.277343-35.539062c25.960938-12.765625 42.089844-38.667969 42.089844-67.597656v-151.429688c9.222656 9.9375 22.382813 16.171875 36.976563 16.171875h59.996093c5.546875 0 10.042969-4.496094 10.042969-10.039063 0-20.519531-9.101562-39.953124-24.351562-53.175781l28.003906-28.007812c1.882812-1.878907 2.941406-4.433594 2.941406-7.097657zm-260.988281 153.289063c-5.753907-5.75-8.921875-13.398437-8.921875-21.535156v-57.6875c29.839844-22.050781 75.5-21.113281 103.996094 2.824219 4.246093 3.566406 10.582031 3.015624 14.148437-1.230469 3.566406-4.246094 3.015625-10.578125-1.230469-14.148438-17.996094-15.113281-41.6875-23.4375-66.707031-23.4375-25.023437 0-48.714844 8.324219-66.710937 23.4375-2.269532 1.910157-3.582032 4.722657-3.582032 7.691407v62.550781c0 13.5 5.257813 26.191406 14.804688 35.738281 3.132812 3.136719 4.953125 7.226562 5.222656 11.613281-6.492188-.296875-12.960938-.449219-19.40625-.449219-.390625 0-.785156 0-1.175781 0-49.976563.140626-99.65625 9.222657-147.898438 27.007813v-169.625c106.054688-23.839844 208.5-23.902344 304.757813-.175781v170.171875c-39.066406-13.488281-77.945313-22.03125-116.136719-25.542969v-.253906c0-10.179688-3.964844-19.75-11.160156-26.949219zm-108.128907-277.878906c14.976563-6.859375 31.621094-11.746094 49.476563-14.515625 11.027344-1.710938 22.25-2.550782 33.433594-2.550782 28.316406 0 56.351562 5.398438 80.1875 15.738282 18.925781 8.210937 41.890625 22.386718 56.816406 46.003906-16.433594-3.636719-32.453125-6.402344-49.1875-8.46875-5.511719-.667969-10.515625 3.230469-11.195313 8.734375-.679687 5.503906 3.230469 10.519531 8.734376 11.199219 21.128906 2.609375 41.09375 6.363281 62.359374 11.703125.347657 1.117187.6875 2.246093 1.003907 3.398437.707031 2.578125 1.304687 5.214844 1.816406 7.886719-53.957031-12.707031-109.945313-18.296875-166.675781-16.578125-5.542969.167969-9.902344 4.796875-9.734375 10.34375.167969 5.542969 4.765625 9.875 10.339843 9.730469 57.273438-1.738281 113.769532 4.214843 168.042969 17.640625 0 .03125.003907.0625.003907.09375v9.03125c-34.476563-8.238282-69.878907-13.597656-105.429688-15.9375-5.554688-.351563-10.316406 3.824218-10.683594 9.359375-.363281 5.535156 3.828125 10.3125 9.363282 10.679687 36.03125 2.371094 71.90625 7.9375 106.75 16.558594v9.722656c-48.828126-11.625-99.335938-17.425781-150.378907-17.277344-50.042969.15625-101.914062 6.054688-154.378906 17.546876v-39.675782c18.640625-4.191406 37.292969-7.6875 55.554687-10.40625 5.484376-.816406 9.269532-5.925781 8.453126-11.410156-.816407-5.484375-5.933594-9.265625-11.410157-8.453125-16.664062 2.480469-33.640625 5.597656-50.636719 9.277344 6.636719-34.496094 30.015626-62.273438 67.375-79.375zm204.558594 407.746093-72.277344 35.535157c-31.378906 15.429687-68.804687 15.347656-100.113281-.21875l-70.847656-35.226563c-18.90625-9.398437-30.648437-28.355468-30.648437-49.46875v-6.640625c97.144531-37.683593 199.605468-37.621093 304.757812.1875v6.253907c-.003906 21.21875-11.832031 40.214843-30.871094 49.578124zm136.859375-204.917968h-48.933593c-13.148438 0-24.367188-8.398438-28.585938-20.113282 7.507812 4.09375 15.835938 6.152344 24.171875 6.152344 12.921875 0 25.84375-4.917968 35.679687-14.753906l.171876-.171875c8.972656 7.332031 15.167968 17.585937 17.496093 28.886719zm-31.867187-42.914063c-11.84375 11.84375-31.113282 11.84375-42.957032 0l-6.921874-6.921875 21.300781-21.304687c9.480469-9.480469 22.089843-14.703125 35.5-14.703125 10 0 19.550781 2.902344 27.695312 8.308594zm0 0"/><path d="m218.746094 300.214844c5.542968 0 10.039062-4.496094 10.039062-10.042969 0-14.824219 10.820313-20.082031 20.085938-20.082031 9.261718 0 20.082031 5.257812 20.082031 20.082031 0 5.546875 4.496094 10.042969 10.039063 10.042969 5.546874 0 10.042968-4.496094 10.042968-10.042969 0-26.371094-20.207031-40.164063-40.164062-40.164063-19.960938 0-40.167969 13.792969-40.167969 40.164063 0 5.546875 4.496094 10.042969 10.042969 10.042969zm0 0"/><path d="m198.160156 380.546875c-5.546875 0-10.042968 4.496094-10.042968 10.039063 0 5.546874 4.496093 10.042968 10.042968 10.042968 2.769532 0 5.019532 2.253906 5.019532 5.019532 0 2.769531-2.25 5.023437-5.019532 5.023437h-15.0625c-5.546875 0-10.042968 4.496094-10.042968 10.039063 0 5.546874 4.496093 10.042968 10.042968 10.042968h15.0625c2.769532 0 5.019532 2.25 5.019532 5.019532 0 2.769531-2.25 5.023437-5.019532 5.023437h-24.03125c-7.722656 0-14.984375-3.007813-20.441406-8.46875l-8.675781-8.675781c-3.921875-3.921875-10.277344-3.921875-14.203125 0-3.921875 3.921875-3.921875 10.28125 0 14.203125l8.675781 8.671875c9.253906 9.253906 21.558594 14.351562 34.644531 14.351562h24.03125c13.839844 0 25.101563-11.261718 25.101563-25.105468 0-5.644532-1.871094-10.863282-5.03125-15.0625 3.160156-4.195313 5.03125-9.414063 5.03125-15.0625 0-13.839844-11.261719-25.101563-25.101563-25.101563zm0 0"/><path d="m108.4375 120.714844c.542969.359375 1.125.671875 1.738281.921875.601563.25 1.234375.441406 1.878907.570312.652343.132813 1.304687.203125 1.957031.203125.660156 0 1.316406-.070312 1.96875-.203125.640625-.128906 1.265625-.320312 1.878906-.570312.601563-.25 1.183594-.5625 1.726563-.921875.550781-.375 1.0625-.785156 1.523437-1.257813 1.878906-1.867187 2.945313-4.449219 2.945313-7.089843 0-.664063-.0625-1.316407-.191407-1.96875-.128906-.640626-.320312-1.273438-.570312-1.875-.253907-.605469-.5625-1.1875-.925781-1.738282-.371094-.542968-.792969-1.066406-1.253907-1.527344-.464843-.460937-.976562-.882812-1.527343-1.246093-.542969-.359375-1.125-.671875-1.726563-.921875-.613281-.25-1.234375-.441406-1.878906-.570313-1.292969-.261719-2.628907-.261719-3.925781 0-.644532.128907-1.277344.320313-1.878907.570313-.609375.25-1.195312.5625-1.734375.921875-.554687.363281-1.066406.785156-1.527344 1.246093-.460937.460938-.882812.984376-1.246093 1.527344-.359375.554688-.671875 1.136719-.921875 1.738282-.253906.601562-.441406 1.234374-.574219 1.875-.128906.652343-.199219 1.304687-.199219 1.96875 0 2.640624 1.074219 5.222656 2.941406 7.089843.460938.472657.972657.882813 1.523438 1.257813zm0 0"/></svg>