<svg id="Capa_1" enable-background="new 0 0 512 512" height="512" viewBox="0 0 512 512" width="512" xmlns="http://www.w3.org/2000/svg"><g><g><g><g><path d="m399.428 306.064c10.532-9.257 17.188-22.818 17.188-37.942s-6.656-28.685-17.188-37.942c13.418-9.079 22.239-24.44 22.239-41.861 0-27.895-22.613-50.508-50.508-50.508 0-30.684-24.875-55.559-55.559-55.559 0-27.895-22.613-50.508-50.508-50.508s-50.508 22.613-50.508 50.508v371.74c0 27.895 22.613 50.508 50.508 50.508s50.508-22.613 50.508-50.508c30.684 0 55.559-24.875 55.559-55.559 27.895 0 50.508-22.613 50.508-50.508 0-17.421-8.821-32.782-22.239-41.861z" fill="#df75a5"/></g><g><path d="m399.428 306.064c10.532-9.257 17.188-22.818 17.188-37.942s-6.656-28.685-17.188-37.942c13.418-9.079 22.239-24.44 22.239-41.861 0-16.057-7.502-30.353-19.181-39.604-10.446 67.655-54.541 140.95-125.296 196.86-20.18 15.946-41.234 29.446-62.605 40.484v67.932c0 27.895 22.613 50.508 50.508 50.508s50.508-22.613 50.508-50.508c30.684 0 55.559-24.875 55.559-55.559 27.895 0 50.508-22.613 50.508-50.508-.001-17.42-8.822-32.781-22.24-41.86z" fill="#dd5790"/></g></g><g><g><path d="m29.739 306.064c-10.532-9.257-17.188-22.818-17.188-37.942s6.656-28.685 17.188-37.942c-13.419-9.079-22.239-24.44-22.239-41.861 0-27.895 22.613-50.508 50.508-50.508 0-30.684 24.875-55.559 55.559-55.559 0-27.895 22.613-50.508 50.508-50.508s50.508 22.613 50.508 50.508v371.74c0 27.895-22.613 50.508-50.508 50.508s-50.508-22.613-50.508-50.508c-30.684 0-55.559-24.875-55.559-55.559-27.895 0-50.508-22.613-50.508-50.508 0-17.421 8.82-32.782 22.239-41.861z" fill="#df75a5"/></g><g><path d="m63.425 422.384c8.946 18.694 28.034 31.608 50.142 31.608 0 27.895 22.613 50.508 50.508 50.508s50.508-22.613 50.508-50.508v-67.932c-51.114 26.4-104.037 38.662-151.158 36.324z" fill="#dd5790"/></g></g></g><g><g><path d="m418.636 7.5c-47.421 0-85.864 38.443-85.864 85.864 0 14.822 3.756 28.768 10.368 40.936l-10.368 44.928 44.928-10.368c12.168 6.612 26.114 10.368 40.936 10.368 47.421 0 85.864-38.443 85.864-85.864s-38.443-85.864-85.864-85.864z" fill="#b3e59f"/></g></g><g><path d="m299.437 205.921c4.143 0 7.5-3.358 7.5-7.5 0-21.959-17.865-39.825-39.825-39.825-4.143 0-7.5 3.358-7.5 7.5s3.357 7.5 7.5 7.5c13.688 0 24.825 11.137 24.825 24.825 0 4.142 3.357 7.5 7.5 7.5z"/><path d="m334.541 296.283c1.464 1.464 3.384 2.196 5.303 2.196s3.839-.732 5.304-2.197c15.526-15.528 15.526-40.794 0-56.321-2.929-2.929-7.678-2.929-10.606 0-2.93 2.929-2.93 7.677-.001 10.606 9.679 9.679 9.679 25.429 0 35.108-2.93 2.93-2.93 7.679 0 10.608z"/><path d="m259.611 114.577c0 4.142 3.357 7.5 7.5 7.5s7.5-3.358 7.5-7.5c0-15.275-12.428-27.703-27.703-27.703-4.142 0-7.5 3.358-7.5 7.5s3.358 7.5 7.5 7.5c7.005 0 12.703 5.699 12.703 12.703z"/><path d="m251.959 243.297c13.688 0 24.825 11.137 24.825 24.825 0 4.142 3.357 7.5 7.5 7.5s7.5-3.358 7.5-7.5c0-21.959-17.865-39.825-39.825-39.825-4.142 0-7.5 3.358-7.5 7.5s3.358 7.5 7.5 7.5z"/><path d="m122.229 198.421c0 4.142 3.358 7.5 7.5 7.5s7.5-3.358 7.5-7.5c0-13.688 11.137-24.825 24.825-24.825 4.142 0 7.5-3.358 7.5-7.5s-3.358-7.5-7.5-7.5c-21.959 0-39.825 17.865-39.825 39.825z"/><path d="m94.626 239.961c-2.928-2.929-7.677-2.929-10.606 0-7.522 7.521-11.665 17.522-11.665 28.161 0 10.638 4.143 20.639 11.665 28.161 1.464 1.464 3.384 2.197 5.303 2.197s3.839-.732 5.303-2.197c2.929-2.929 2.929-7.678 0-10.606-4.689-4.689-7.271-10.923-7.271-17.554s2.582-12.865 7.271-17.554c2.93-2.93 2.93-7.678 0-10.608z"/><path d="m189.758 94.374c0-4.142-3.358-7.5-7.5-7.5-15.276 0-27.704 12.428-27.704 27.703 0 4.142 3.358 7.5 7.5 7.5s7.5-3.358 7.5-7.5c0-7.004 5.699-12.703 12.704-12.703 4.142 0 7.5-3.358 7.5-7.5z"/><path d="m152.382 268.122c0-4.142-3.358-7.5-7.5-7.5s-7.5 3.358-7.5 7.5c0 21.959 17.866 39.825 39.825 39.825 4.142 0 7.5-3.358 7.5-7.5s-3.358-7.5-7.5-7.5c-13.688 0-24.825-11.136-24.825-24.825z"/><path d="m418.64 0c-45.478 0-83.459 32.681-91.704 75.788-1.416-.257-2.837-.484-4.269-.645-3.515-28.647-27.996-50.903-57.577-50.903-21.641 0-40.54 11.92-50.509 29.532-9.967-17.612-28.863-29.532-50.501-29.532-7.945 0-15.648 1.582-22.896 4.701-3.805 1.638-5.561 6.05-3.924 9.854 1.639 3.805 6.05 5.561 9.854 3.924 5.363-2.309 11.071-3.479 16.965-3.479 23.71 0 43 19.294 43 43.01v371.74c0 23.716-19.29 43.01-43 43.01-21.34 0-39.091-15.624-42.436-36.032 13.828-1.797 26.749-8.148 36.592-17.834 4.977 7.41 13.434 12.297 23.012 12.297 4.142 0 7.5-3.358 7.5-7.5s-3.358-7.5-7.5-7.5c-7.004 0-12.703-5.699-12.703-12.703h-.007c-.002-2.504-1.25-4.95-3.533-6.369-3.518-2.188-8.143-1.108-10.329 2.409-8.712 14.011-24.455 22.717-41.089 22.724-.006 0-.011-.001-.016-.001-24.144 0-44.179-17.898-47.553-41.121 8.755-1.2 17.101-4.346 24.392-9.155 5.664 15.102 20.245 25.882 37.3 25.882 4.142 0 7.5-3.358 7.5-7.5s-3.358-7.5-7.5-7.5c-13.688 0-24.825-11.137-24.825-24.825s11.137-24.825 24.825-24.825c4.142 0 7.5-3.358 7.5-7.5s-3.358-7.5-7.5-7.5c-20.871 0-38.031 16.141-39.683 36.594-7.971 7.576-18.747 11.883-29.979 11.893-.013 0-.025-.002-.038-.002-23.716 0-43.01-19.294-43.01-43.01 0-12.492 5.408-24.243 14.687-32.364 9.727 6.847 21.362 10.574 33.373 10.574 4.142 0 7.5-3.358 7.5-7.5s-3.358-7.5-7.5-7.5c-10.387 0-20.398-3.75-28.219-10.557-.052-.048-.097-.101-.15-.148-9.304-8.173-14.64-19.948-14.64-32.305 0-12.349 5.337-24.125 14.643-32.308.045-.039.083-.084.126-.124 7.824-6.818 17.844-10.574 28.24-10.574 4.142 0 7.5-3.358 7.5-7.5s-3.358-7.5-7.5-7.5c-12.01 0-23.644 3.726-33.37 10.573-9.28-8.124-14.689-19.876-14.689-32.369 0-23.711 19.286-43.002 42.996-43.009.004 0 .008.001.012.001 10.459 0 20.539 3.798 28.383 10.695 1.425 1.253 3.19 1.868 4.949 1.868 2.082 0 4.153-.862 5.635-2.548 2.735-3.111 2.431-7.85-.68-10.584-8.562-7.528-19.097-12.317-30.278-13.873 3.046-20.957 19.66-37.569 40.618-40.611 2.026 14.733 9.587 28.105 21.471 37.508 1.377 1.09 3.019 1.619 4.649 1.619 2.213 0 4.406-.976 5.886-2.847 2.57-3.249 2.021-7.965-1.228-10.535-10.379-8.213-16.335-20.499-16.346-33.714 0-.013.002-.025.002-.038 0-6.854 1.56-13.395 4.635-19.439 1.878-3.691.408-8.207-3.284-10.085-3.689-1.877-8.207-.408-10.085 3.284-3.079 6.051-5.034 12.462-5.841 19.135-29.132 3.268-52.327 26.466-55.591 55.599-28.647 3.511-50.903 27.992-50.903 57.574 0 16.303 6.825 31.669 18.599 42.567-8.692 10.379-13.549 23.543-13.549 37.233 0 13.698 4.856 26.862 13.547 37.235-11.773 10.898-18.597 26.263-18.597 42.565 0 29.582 22.256 54.063 50.903 57.577 3.265 29.135 26.465 52.335 55.6 55.6 3.514 28.647 27.996 50.903 57.577 50.903 21.638 0 40.533-11.92 50.501-29.532 9.969 17.612 28.867 29.532 50.509 29.532 29.581 0 54.062-22.256 57.577-50.903 29.136-3.262 52.331-26.459 55.599-55.592 10.261-1.242 19.903-5.178 28.216-11.568 3.283-2.524 3.899-7.233 1.375-10.517-2.525-3.284-7.233-3.901-10.518-1.375-7.562 5.813-16.614 8.886-26.179 8.886-.013 0-.026.002-.039.002-11.233-.01-22.009-4.317-29.981-11.894-1.652-20.452-18.812-36.593-39.683-36.593-4.143 0-7.5 3.358-7.5 7.5s3.357 7.5 7.5 7.5c13.688 0 24.825 11.137 24.825 24.825s-11.137 24.825-24.825 24.825c-4.143 0-7.5 3.358-7.5 7.5s3.357 7.5 7.5 7.5c17.056 0 31.637-10.78 37.301-25.882 7.292 4.81 15.639 7.956 24.395 9.156-3.374 23.223-23.409 41.121-47.553 41.121-.006 0-.012.001-.018.001-16.636-.006-32.379-8.712-41.091-22.724-2.188-3.518-6.812-4.596-10.329-2.41-2.283 1.419-3.53 3.866-3.533 6.37h-.007c0 7.004-5.699 12.703-12.704 12.703-4.142 0-7.5 3.358-7.5 7.5s3.358 7.5 7.5 7.5c9.578 0 18.035-4.887 23.012-12.297 9.843 9.687 22.766 16.037 36.594 17.834-3.344 20.408-21.095 36.032-42.434 36.032-23.716 0-43.01-19.294-43.01-43.01v-371.74c0-23.716 19.294-43.01 43.01-43.01s43.01 19.294 43.01 43.01v.001s0 .001 0 .001c0 13.228-5.958 25.529-16.348 33.75-3.248 2.57-3.798 7.287-1.228 10.535 1.48 1.871 3.673 2.847 5.887 2.847 1.63 0 3.271-.529 4.649-1.619 11.883-9.403 19.445-22.776 21.471-37.508.93.135 1.857.289 2.777.477-.024.873-.039 1.748-.039 2.626 0 14.568 3.429 29.01 9.938 41.955l-9.746 42.229c-.582 2.52.176 5.161 2.004 6.99 1.423 1.423 3.337 2.197 5.304 2.197.562 0 1.127-.063 1.687-.192l42.229-9.747c11.607 5.837 24.42 9.188 37.448 9.82.023.571.038 1.141.038 1.708 0 12.494-5.411 24.246-14.694 32.365-9.726-6.846-21.359-10.571-33.368-10.571-4.143 0-7.5 3.358-7.5 7.5s3.357 7.5 7.5 7.5c10.379 0 20.382 3.744 28.199 10.54.057.053.107.112.166.164 9.309 8.169 14.647 19.943 14.647 32.303s-5.339 24.134-14.647 32.303c-.068.06-.127.128-.193.191-7.813 6.781-17.806 10.516-28.172 10.516-4.143 0-7.5 3.358-7.5 7.5s3.357 7.5 7.5 7.5c12.01 0 23.643-3.726 33.368-10.571 9.283 8.127 14.694 19.876 14.694 32.361 0 3.215-.352 6.4-1.045 9.466-.913 4.04 1.621 8.056 5.661 8.97.557.126 1.113.186 1.661.186 3.427 0 6.521-2.364 7.309-5.847.938-4.15 1.414-8.448 1.414-12.774 0-16.296-6.826-31.66-18.604-42.562 8.694-10.371 13.555-23.537 13.555-37.237s-4.859-26.864-13.553-37.235c11.776-10.896 18.603-26.261 18.603-42.565 0-.722-.022-1.448-.049-2.175 15.44-1.721 30.124-7.239 42.959-16.22 3.394-2.375 4.22-7.051 1.845-10.445-2.374-3.394-7.05-4.219-10.444-1.845-13.178 9.221-28.684 14.095-44.841 14.095-13.046 0-25.965-3.271-37.359-9.46-1.609-.874-3.482-1.128-5.267-.718l-33.237 7.671 7.671-33.237c.412-1.784.157-3.657-.717-5.266-6.189-11.396-9.461-24.315-9.461-37.36 0-43.208 35.156-78.36 78.37-78.36 43.206-.003 78.358 35.149 78.358 78.357 0 14.626-4.047 28.874-11.702 41.204-2.185 3.519-1.104 8.143 2.416 10.328 3.518 2.186 8.144 1.104 10.328-2.416 9.131-14.707 13.958-31.691 13.958-49.116 0-51.479-41.881-93.36-93.36-93.36z"/><path d="m418.636 141.506c-3.722 0-6.739 3.017-6.739 6.739s3.017 6.739 6.739 6.739 6.739-3.017 6.739-6.739-3.017-6.739-6.739-6.739z"/><path d="m426.136 103.189c7.004-1.511 13.495-5.107 18.486-10.364 6.834-7.198 10.314-16.632 9.799-26.563-.969-18.649-16.364-33.553-35.049-33.93-18.15-.343-33.72 12.892-36.224 30.835-.229 1.64-.346 3.319-.346 4.991 0 4.142 3.357 7.5 7.5 7.5s7.5-3.358 7.5-7.5c0-.979.067-1.958.201-2.916 1.436-10.284 10.268-17.918 20.64-17.918.142 0 .284.001.426.004 10.86.219 19.809 8.877 20.371 19.71.301 5.782-1.723 11.271-5.696 15.457-3.977 4.188-9.343 6.495-15.108 6.495-4.143 0-7.5 3.358-7.5 7.5v29.628c0 4.142 3.357 7.5 7.5 7.5s7.5-3.358 7.5-7.5z"/></g></g></svg>