<svg id="Capa_1" enable-background="new 0 0 512 512" height="512" viewBox="0 0 512 512" width="512" xmlns="http://www.w3.org/2000/svg"><g><path d="m383.602 27.313v53.621h-39.612v-53.621c0-5.461 2.216-10.42 5.804-14.008s8.535-5.805 14.008-5.805c10.935 0 19.8 8.878 19.8 19.813z" fill="#dc4955"/><path d="m256 74.999v327.335c63.946-31.327 137.933-33.773 203.447-7.339 7.868 3.175 16.454-2.556 16.454-11.04v-301.372c0-4.681-2.728-8.949-6.993-10.877-67.783-30.649-145.864-29.551-212.908 3.293z" fill="#ddebfd"/><path d="m459.447 368.305c-65.514-26.434-139.501-23.988-203.447 7.339v26.69c63.946-31.327 137.933-33.773 203.447-7.339 7.868 3.175 16.454-2.556 16.454-11.04v-26.69c-.001 8.485-8.586 14.215-16.454 11.04z" fill="#bed9fd"/><path d="m468.907 71.706c-6.873-3.108-13.856-5.872-20.919-8.327v327.328c3.845 1.336 7.668 2.759 11.459 4.289 7.868 3.175 16.454-2.556 16.454-11.04v-301.373c-.001-4.681-2.729-8.949-6.994-10.877z" fill="#bed9fd"/><path d="m256 74.999v327.335c-63.946-31.327-137.933-33.773-203.447-7.339-7.868 3.175-16.454-2.555-16.454-11.04v-301.372c0-4.681 2.728-8.949 6.993-10.877 67.783-30.649 145.864-29.551 212.908 3.293z" fill="#ddebfd"/><path d="m52.553 368.305c-7.868 3.175-16.454-2.555-16.454-11.04v26.69c0 8.484 8.585 14.215 16.454 11.04 65.514-26.434 139.501-23.988 203.447 7.339v-26.69c-63.946-31.327-137.933-33.773-203.447-7.339z" fill="#bed9fd"/><path d="m231.247 391.822c8.387 3.042 16.651 6.543 24.753 10.512v-327.335c-8.102-3.969-16.367-7.463-24.753-10.505z" fill="#bed9fd"/><path d="m439.868 27.313v83.891l-28.127-19.616-28.139 19.616v-83.891c0-10.935-8.865-19.813-19.8-19.813h56.266c10.935 0 19.8 8.878 19.8 19.813z" fill="#df646e"/><g><path d="m224.997 395.655 20.38 96.204h21.246l20.38-96.204z" fill="#a29aa5"/><path d="m357.208 374.098-7.276-25.215-6.571 6.32c-5.261 5.059-12.918 6.759-19.809 4.354-10.654-3.718-22.494-6.583-35.166-8.404-10.311-1.478-21.172-2.27-32.386-2.27s-22.076.792-32.386 2.27c-12.671 1.822-24.512 4.686-35.166 8.404-6.891 2.405-14.548.705-19.809-4.354l-6.571-6.32-7.276 25.215v22.014l75.705 10.392h51.007l75.705-10.392v-22.014z" fill="#766d78"/><path d="m299.549 376.596-2.566 17.81c-.551 3.826-1.876 7.374-3.794 10.496-4.882 7.939-13.646 13.122-23.475 13.122h-27.43c-9.829 0-18.593-5.183-23.475-13.122-1.918-3.122-3.242-6.67-3.794-10.496l-2.566-17.81c-1.121-7.804 1.288-15.205 5.937-20.709 2.563-3.035 6.233-4.912 10.177-5.385 8.817-1.058 18.002-1.618 27.435-1.618 9.434 0 18.618.561 27.435 1.618 3.944.473 7.614 2.35 10.177 5.385 4.651 5.504 7.06 12.905 5.939 20.709z" fill="#80b6fc"/><path d="m256 246.788c-71.165 0-128.856 57.691-128.856 128.856s57.691 128.856 128.856 128.856 128.856-57.691 128.856-128.856-57.691-128.856-128.856-128.856zm0 222.533c-51.736 0-93.677-41.941-93.677-93.677s41.941-93.677 93.677-93.677 93.677 41.941 93.677 93.677-41.941 93.677-93.677 93.677z" fill="#8c818f"/><path d="m370.725 316.917c3.675 11.973 5.658 24.686 5.658 37.863 0 71.165-57.691 128.856-128.856 128.856-50.012 0-93.369-28.492-114.725-70.129 16.173 52.687 65.21 90.993 123.198 90.993 71.165 0 128.856-57.691 128.856-128.856 0-21.154-5.098-41.116-14.131-58.727z" fill="#766d78"/></g><g><path d="m475.9 320.04c4.143 0 7.5-3.358 7.5-7.5v-229.96c0-7.633-4.479-14.584-11.403-17.706-8.072-3.645-16.334-6.871-24.629-9.636v-27.925c0-15.06-12.247-27.313-27.3-27.313h-56.268c-7.283 0-14.14 2.837-19.321 8.004-5.152 5.167-7.989 12.023-7.989 19.306v16.411c-27.823 3.209-55.053 10.94-80.514 22.972-68.403-32.331-146.902-33.053-215.968-1.82-6.93 3.123-11.408 10.073-11.408 17.707v21.21c0 4.142 3.358 7.5 7.5 7.5s7.5-3.358 7.5-7.5v-21.21c0-1.746 1.009-3.329 2.58-4.036 64.688-29.252 138.157-28.765 202.32 1.182v159.772c-70.082 3.818-126.24 60.8-128.757 131.215-24.038 2.463-47.554 8.276-69.998 17.332-2.01.811-3.612-.035-4.208-.437-.723-.488-1.937-1.611-1.937-3.648v-245.17c0-4.142-3.358-7.5-7.5-7.5s-7.5 3.358-7.5 7.5v245.17c0 6.458 3.194 12.469 8.545 16.081 3.27 2.207 7.067 3.336 10.898 3.336 2.468 0 4.951-.469 7.313-1.422 20.744-8.371 42.461-13.798 64.659-16.19 1.739 23.69 9.575 46.372 22.926 66.13 2.319 3.433 6.981 4.335 10.413 2.016s4.334-6.981 2.016-10.413c-13.559-20.067-20.726-43.531-20.726-67.854 0-66.916 54.44-121.355 121.356-121.355s121.356 54.44 121.356 121.355c0 66.916-54.44 121.356-121.356 121.356-28.627 0-56.418-10.156-78.254-28.597-3.166-2.673-7.897-2.274-10.569.891s-2.274 7.896.891 10.569c24.538 20.724 55.766 32.137 87.932 32.137 71.784 0 130.785-55.757 135.981-126.236 22.198 2.391 43.916 7.82 64.664 16.192 2.362.953 4.843 1.422 7.312 1.422 3.83 0 7.629-1.13 10.898-3.336 5.352-3.612 8.546-9.624 8.546-16.081v-36.42c0-4.142-3.357-7.5-7.5-7.5s-7.5 3.358-7.5 7.5v36.42c0 2.036-1.214 3.16-1.938 3.648-.596.401-2.198 1.247-4.206.437-22.447-9.057-45.964-14.87-69.999-17.333-2.517-70.415-58.675-127.396-128.758-131.214v-159.767c35.163-16.398 73.859-24.122 112.603-22.497v53.969c0 6.05 6.824 9.614 11.789 6.152l23.849-16.625 23.838 16.625c2.29 1.597 5.28 1.79 7.76.498 2.477-1.292 4.03-3.855 4.03-6.649v-40.1c6.214 2.217 12.392 4.704 18.46 7.444 1.563.705 2.572 2.287 2.572 4.033v229.96c-.001 4.14 3.357 7.498 7.499 7.498zm-124.41-277.606v-15.124c0-3.285 1.282-6.379 3.596-8.699 2.335-2.329 5.43-3.611 8.715-3.611 6.783 0 12.302 5.523 12.302 12.313v14.907c-8.218-.324-16.431-.248-24.613.214zm80.878 54.395-16.337-11.394c-2.578-1.798-6.003-1.798-8.579 0l-16.35 11.397v-69.52c0-4.427-1.058-8.611-2.935-12.313h31.9c6.782 0 12.3 5.523 12.3 12.313v69.517z"/><path d="m85.01 131.808c39.929-10.395 82.141-10.396 122.071 0 .634.165 1.269.244 1.895.244 3.332 0 6.375-2.237 7.253-5.612 1.044-4.008-1.36-8.104-5.368-9.147-42.402-11.04-87.227-11.04-129.629 0-4.009 1.043-6.412 5.139-5.368 9.147 1.041 4.007 5.134 6.412 9.146 5.368z"/><path d="m75.862 174.53c1.043 4.008 5.136 6.412 9.147 5.368 39.929-10.396 82.141-10.396 122.071 0 4.017 1.046 8.106-1.368 9.147-5.368 1.044-4.008-1.359-8.104-5.368-9.147-42.402-11.041-87.227-11.041-129.629 0-4.009 1.043-6.412 5.138-5.368 9.147z"/><path d="m75.862 222.62c1.043 4.008 5.136 6.412 9.147 5.368 39.929-10.396 82.141-10.396 122.071 0 4.008 1.044 8.104-1.36 9.147-5.368 1.044-4.008-1.36-8.104-5.368-9.147-42.402-11.04-87.227-11.04-129.629 0-4.009 1.043-6.412 5.138-5.368 9.147z"/><path d="m430.764 165.382c-42.402-11.041-87.227-11.041-129.629 0-4.009 1.043-6.412 5.139-5.368 9.147s5.141 6.413 9.147 5.368c39.93-10.396 82.141-10.396 122.07 0 4.017 1.046 8.106-1.368 9.147-5.368 1.046-4.008-1.358-8.103-5.367-9.147z"/><path d="m430.764 213.472c-42.402-11.04-87.227-11.04-129.629 0-4.009 1.043-6.412 5.139-5.368 9.147s5.135 6.414 9.147 5.368c39.93-10.396 82.141-10.396 122.07 0 4.008 1.044 8.104-1.36 9.147-5.368 1.046-4.008-1.358-8.103-5.367-9.147z"/><path d="m256 476.821c56.704 0 101.177-47.456 101.177-101.177 0-54.434-45.486-101.176-101.177-101.176-55.443 0-101.177 46.483-101.177 101.176 0 53.28 44.051 101.177 101.177 101.177zm-80.429-70.285 38.975 5.35c2.233 2.905 4.866 5.401 7.802 7.435l8.189 38.658c-25.235-7.821-45.528-26.956-54.966-51.443zm107.105-48.566c2.093.282 3.938 1.254 5.207 2.756 3.51 4.155 5.017 9.413 4.242 14.803l-2.564 17.805c-.394 2.728-1.322 5.298-2.76 7.637-3.485 5.668-9.72 9.552-17.086 9.552h-27.43c-7.26 0-13.545-3.793-17.084-9.548-1.439-2.343-2.369-4.914-2.761-7.639l-2.565-17.806c-.774-5.391.733-10.648 4.244-14.805 1.266-1.5 3.111-2.472 5.202-2.755 17.717-2.127 36.054-2.071 53.355 0zm59.501 17.674c0 5.171-.484 10.227-1.361 15.15l-36.464 5.005c.017-.108.039-.215.055-.323l2.565-17.811c.76-5.29.24-10.625-1.427-15.585 5.376 1.309 10.57 2.828 15.537 4.563 2.907 1.013 5.898 1.506 8.862 1.506 4.019 0 7.982-.916 11.612-2.67.395 3.336.621 6.724.621 10.165zm-137.15 2.022s2.604 18.025 2.621 18.133l-36.464-5.005c-.877-4.922-1.361-9.979-1.361-15.15 0-3.444.226-6.833.621-10.173 6.304 3.048 13.625 3.557 20.479 1.169 4.964-1.734 10.157-3.253 15.531-4.562-1.667 4.961-2.187 10.297-1.427 15.588zm41.547 83.629-7.614-35.943c1.099.102 2.205.172 3.325.172h27.43c1.12 0 2.227-.07 3.326-.172l-7.615 35.943c-3.098.339-6.24.526-9.426.526s-6.329-.187-9.426-.526zm34.887-3.316 8.19-38.658c2.936-2.034 5.569-4.53 7.802-7.435l38.976-5.35c-9.439 24.487-29.732 43.622-54.968 51.443zm56.737-108.22-.037.036c-3.254 3.13-7.906 4.159-12.138 2.685-11.292-3.944-23.595-6.89-36.575-8.754-7.849-1.12-16.941-1.942-25.948-2.217v-51.693c35.195 3.05 64.404 27.327 74.698 59.943zm-89.698-59.944v51.693c-7.928.245-16.94.932-25.957 2.218-12.971 1.864-25.273 4.809-36.56 8.751-4.238 1.476-8.889.448-12.139-2.677l-.043-.042c10.294-32.614 39.503-56.892 74.699-59.943z"/></g></g></svg>