<svg id="Layer_1" enable-background="new 0 0 512 512" height="512" viewBox="0 0 512 512" width="512" xmlns="http://www.w3.org/2000/svg"><g><g><g><path d="m444.906 7.5h-377.813v497h309.411l68.402-67.343z" fill="#ebf3ff"/><path d="m404.906 7.5v469.037l40-39.38v-429.657z" fill="#e0edff"/><path d="m376.504 504.5v-67.343h68.402z" fill="#9599bd"/></g><path d="m263.822 7.5h181.084v181.084h-181.084z" fill="#7ae69c"/><path d="m404.906 7.5h40v181.084h-40z" fill="#69db8d"/></g><g><path d="m444.906 117.502c4.143 0 7.5-3.358 7.5-7.5v-102.502c0-4.142-3.357-7.5-7.5-7.5h-377.812c-4.143 0-7.5 3.358-7.5 7.5v497c0 4.142 3.357 7.5 7.5 7.5h49.73c4.143 0 7.5-3.358 7.5-7.5s-3.357-7.5-7.5-7.5h-42.23v-482h181.729v173.584c0 4.142 3.357 7.5 7.5 7.5h173.584v233.572h-60.902c-4.143 0-7.5 3.358-7.5 7.5v59.844h-211.004c-4.143 0-7.5 3.358-7.5 7.5s3.357 7.5 7.5 7.5h218.504c1.948 0 3.873-.79 5.262-2.155l68.402-67.343c1.412-1.392 2.238-3.362 2.238-5.345v-287.162c-.278-9.763-14.636-10.056-15 0v31.089h-166.085v-166.084h166.084v95.002c0 4.143 3.358 7.5 7.5 7.5zm-60.902 327.155h42.594l-42.594 41.935z"/><path d="m340.159 49.197c-.006-.004-3.519.006-3.526.004-3.108.003-5.894 1.925-7 4.831l-31.492 82.687c-3.452 9.062 10.566 14.401 14.018 5.339l6.003-15.763h40.246l5.941 15.741c3.355 8.895 17.456 3.77 14.033-5.296l-31.206-82.69c-1.102-2.921-3.897-4.853-7.017-4.853zm-16.284 62.097 14.502-38.078 14.37 38.078z"/><path d="m389.105 93.493c4.143 0 7.5-3.358 7.5-7.5v-7.322h6.974c4.143 0 7.5-3.358 7.5-7.5s-3.357-7.5-7.5-7.5h-6.974v-6.974c0-4.142-3.357-7.5-7.5-7.5s-7.5 3.358-7.5 7.5v6.974h-7.322c-4.143 0-7.5 3.358-7.5 7.5s3.357 7.5 7.5 7.5h7.322v7.322c0 4.142 3.358 7.5 7.5 7.5z"/><path d="m116.824 249.157h276.608c4.143 0 7.5-3.358 7.5-7.5s-3.357-7.5-7.5-7.5h-276.608c-9.82.266-9.993 14.674 0 15z"/><path d="m116.824 288.347h276.608c4.143 0 7.5-3.358 7.5-7.5s-3.357-7.5-7.5-7.5h-276.608c-9.82.266-9.993 14.674 0 15z"/><path d="m116.824 65.161h97.176c4.143 0 7.5-3.358 7.5-7.5s-3.357-7.5-7.5-7.5h-97.176c-9.885.294-9.936 14.689 0 15z"/><path d="m116.824 104.351h60.176c9.897-.298 9.927-14.691 0-15h-60.176c-9.896.299-9.926 14.691 0 15z"/><path d="m116.824 327.537h276.608c4.143 0 7.5-3.358 7.5-7.5s-3.357-7.5-7.5-7.5h-276.608c-9.82.266-9.993 14.674 0 15z"/><path d="m116.824 366.727h276.608c4.143 0 7.5-3.358 7.5-7.5s-3.357-7.5-7.5-7.5h-276.608c-9.82.266-9.993 14.674 0 15z"/><path d="m116.824 405.917h146.998c4.143 0 7.5-3.358 7.5-7.5s-3.357-7.5-7.5-7.5h-146.998c-9.869.286-9.95 14.684 0 15z"/><path d="m116.824 445.106h206.176c9.848-.278 9.969-14.68 0-15h-206.176c-9.848.278-9.969 14.681 0 15z"/></g></g></svg>