<svg height="511pt" viewBox="0 -3 511.996 511" width="511pt" xmlns="http://www.w3.org/2000/svg"><g fill-rule="evenodd"><path d="m83.753906 468.75h318.789063c9.847656 0 17.902343-8.050781 17.902343-17.867188v-424.960937c0-9.84375-8.054687-17.867187-17.902343-17.867187h-376.941407c-9.847656 0-17.875 8.050781-17.875 17.867187v424.960937c0 9.816407 8.054688 17.867188 17.875 17.867188zm0 0" fill="#8ebfe8"/><path d="m120.527344 264.507812h164.863281c.339844 0 .679687-.03125 1.023437-.03125 10.675782-.539062 19.242188-9.445312 19.242188-20.253906v-67.515625l-105.203125-31.492187-100.21875 30.808594v68.199218c0 10.839844 8.625 19.769532 19.355469 20.253906.3125 0 .625.03125.9375.03125zm0 0" fill="#546e7a"/><path d="m340.082031 218.335938c-6.773437 0-12.324219 5.546874-12.324219 12.347656v19.375c0 6.796875 5.550782 12.34375 12.324219 12.34375 6.804688 0 12.355469-5.546875 12.355469-12.34375v-19.375c0-6.800782-5.550781-12.347656-12.355469-12.347656zm0 0" fill="#ffd54f"/><path d="m202.957031 129.507812c-5.265625 0-10.503906 1.167969-20.09375 3.558594l-116.699219 27.253906c-6.433593 1.480469-8.996093 5.890626-8.683593 10.214844-.3125 4.351563 2.25 8.734375 8.683593 10.242188l116.699219 27.253906c9.589844 2.359375 14.828125 3.554688 20.09375 3.554688 5.238281 0 10.476563-1.195313 20.066407-3.554688l116.703124-27.253906c6.429688-1.507813 8.992188-5.890625 8.707032-10.242188.285156-4.324218-2.277344-8.734375-8.707032-10.214844l-116.703124-27.253906c-9.589844-2.390625-14.828126-3.558594-20.066407-3.558594zm0 0" fill="#7c8c94"/><path d="m244.457031 138.074219c16.878907 10.753906 27.269531 25.492187 27.269531 41.765625 0 1.5625-.085937 3.097656-.285156 4.605468-.542968 4.582032-1.933594 8.992188-4.042968 13.203126l27.070312-6.316407 45.257812-10.554687c.566407-.140625 1.109376-.285156 1.59375-.457032 5.265626-1.820312 7.398438-5.832031 7.113282-9.785156.285156-4.324218-2.277344-8.734375-8.707032-10.214844zm0 0" fill="#546e7a"/><path d="m100.234375 211.074219 66.574219 15.480469 16.054687 3.753906c19.183594 4.75 21.003907 4.75 40.160157 0l16.511718-3.613282 14.855469-3.242187c16.253906-3.558594 16.539063-1.140625 16.539063 16.1875v24.867187h14.457031c.34375 0 .683593-.03125 1.027343-.03125 10.671876-.539062 19.238282-9.445312 19.238282-20.253906v-55.082031c-3.269532.855469-6.6875 1.734375-10.214844 2.703125l-72.414062 15.816406c-19.15625 4.753906-20.976563 4.753906-40.160157 0l-82.628906-19.203125zm0 0" fill="#37474f"/><path d="m7.726562 72.578125h412.71875v-46.65625c0-9.84375-8.054687-17.867187-17.902343-17.867187h-376.941407c-9.847656 0-17.875 8.050781-17.875 17.867187zm0 0" fill="#e6e6e6"/><path d="m373.226562 72.578125h47.21875v-46.65625c0-9.84375-8.054687-17.867187-17.902343-17.867187h-47.21875c9.847656 0 17.902343 8.023437 17.902343 17.867187zm0 0" fill="#c4cccf"/><path d="m420.445312 72.578125h-47.21875v264.902344c.054688.058593.113282.113281.171876.171875l6.429687 6.429687c4.667969-2.617187 9.621094-4.75 14.832031-6.316406v-8.933594c0-4.890625 4.011719-8.902343 8.90625-8.902343h16.878906zm0 0" fill="#519ad6"/><path d="m360.789062 337.652344-16.738281 16.730468c-3.441406 3.441407-3.441406 9.132813 0 12.574219l6.832031 6.828125c-2.417968 4.550782-4.382812 9.386719-5.808593 14.421875h-9.816407c-4.898437 0-8.910156 4.011719-8.910156 8.90625v23.671875c0 4.890625 4.011719 8.902344 8.910156 8.902344h10.1875c1.480469 4.894531 3.445313 9.558594 5.863282 13.96875l-7.257813 7.257812c-3.445312 3.46875-3.445312 9.132813 0 12.601563l16.734375 16.730469c3.476563 3.46875 9.140625 3.46875 12.609375 0l7.257813-7.257813c4.414062 2.417969 9.109375 4.382813 14.003906 5.863281v10.183594c0 4.894532 4.015625 8.90625 8.910156 8.90625h23.652344c4.898438 0 8.910156-4.011718 8.910156-8.90625v-9.785156c5.066406-1.453125 9.90625-3.414062 14.429688-5.832031l6.832031 6.828125c3.472656 3.46875 9.136719 3.46875 12.609375 0l16.734375-16.730469c3.445313-3.46875 3.445313-9.132813 0-12.601563l-6.460937-6.429687c2.621093-4.636719 4.753906-9.617187 6.320312-14.796875h8.9375c4.894531 0 8.910156-4.011719 8.910156-8.902344v-23.671875c0-4.894531-4.015625-8.90625-8.910156-8.90625h-8.566406c-1.511719-5.347656-3.617188-10.46875-6.234375-15.246093l6.007812-6.003907c3.441407-3.445312 3.441407-9.132812 0-12.574219l-16.738281-16.730468c-3.472656-3.472656-9.136719-3.472656-12.609375 0l-6.003906 5.976562c-4.78125-2.617187-9.90625-4.726562-15.257813-6.234375v-8.5625c0-4.894531-4.011718-8.90625-8.90625-8.90625h-23.65625c-4.894531 0-8.90625 4.011719-8.90625 8.90625v8.933594c-5.210937 1.5625-10.164062 3.699219-14.832031 6.316406l-6.429687-6.429687c-3.472657-3.472656-9.136719-3.472656-12.609376 0zm0 0" fill="#c4cccf"/><path d="m457.394531 337.652344-6.007812 5.976562c-1.394531-.742187-2.789063-1.480468-4.242188-2.136718 6.519531 17.640624 10.25 37.925781 10.25 59.492187 0 29.300781-6.863281 56.1875-18.273437 77.328125 3.984375-1.308594 7.796875-2.929688 11.441406-4.894531l6.832031 6.828125c3.472657 3.472656 9.136719 3.472656 12.609375 0l16.734375-16.730469c3.445313-3.46875 3.445313-9.132813 0-12.601563l-6.460937-6.429687c2.617187-4.636719 4.753906-9.617187 6.320312-14.792969h8.933594c4.898438 0 8.910156-4.011718 8.910156-8.90625v-23.671875c0-4.890625-4.011718-8.902343-8.910156-8.902343h-8.566406c-1.507813-5.351563-3.613282-10.472657-6.230469-15.25l6.003906-6.003907c3.445313-3.441406 3.445313-9.132812 0-12.574219l-16.734375-16.730468c-3.476562-3.472656-9.140625-3.472656-12.609375 0zm0 0" fill="#90a4ae"/><path d="m415.382812 436.488281c15.195313 0 27.578126-12.375 27.578126-27.539062 0-15.191407-12.382813-27.566407-27.578126-27.566407-15.171874 0-27.554687 12.375-27.554687 27.566407 0 15.164062 12.382813 27.539062 27.554687 27.539062zm0 0" fill="#546e7a"/></g><path d="m320.171875 230.683594v19.375c0 10.972656 8.933594 19.902344 19.910156 19.902344 10.980469 0 19.910157-8.929688 19.910157-19.902344v-19.375c0-8.300782-5.113282-15.425782-12.351563-18.40625v-26.589844c5.480469-3.25 8.613281-8.734375 8.359375-15.164062.246094-7.101563-4.117188-15.160157-14.558594-17.5625l-116.644531-27.242188c-10.277344-2.558594-15.792969-3.765625-21.839844-3.765625-6.070312 0-11.589843 1.207031-21.867187 3.765625l-116.621094 27.238281c-10.492188 2.414063-14.832031 10.46875-14.554688 17.578125-.269531 7.09375 4.058594 15.148438 14.53125 17.601563l28.230469 6.59375v49.488281c0 14.921875 11.671875 27.136719 26.570313 27.808594 4.222656.191406 8.589844.253906 12.984375.253906 4.171875 0 8.367187-.054688 12.496093-.109375 4.117188-.058594 8.003907-.109375 11.835938-.109375h32.023438c4.171874 0 7.554687-3.382812 7.554687-7.554688 0-4.175781-3.382813-7.558593-7.554687-7.558593h-32.023438c-3.933594 0-8.054688.054687-12.039062.109375-8.261719.109375-16.808594.222656-24.59375-.132813-6.691407-.300781-12.136719-6-12.136719-12.707031v-45.960938l73.265625 17.113282c9.792968 2.410156 15.636718 3.773437 21.902344 3.773437 6.230468 0 12.078124-1.363281 21.785156-3.753906l73.351562-17.132813v45.964844c0 7.015625-5.699218 12.726563-12.707031 12.726563h-62.25c-4.175781 0-7.558594 3.382812-7.558594 7.558593 0 4.171876 3.382813 7.554688 7.558594 7.554688h62.25c15.339844 0 27.824219-12.488281 27.824219-27.839844v-49.492187l19.3125-4.511719v22.058594c-7.242188 2.980468-12.355469 10.105468-12.355469 18.40625zm24.707031 19.375c0 2.640625-2.152344 4.789062-4.796875 4.789062-2.597656 0-4.796875-2.195312-4.796875-4.789062v-19.375c0-2.597656 2.199219-4.792969 4.796875-4.792969 2.644531 0 4.796875 2.148437 4.796875 4.792969zm-123.660156-49.363282c-9.425781 2.320313-14 3.335938-18.261719 3.335938-4.285156 0-8.863281-1.015625-18.375-3.359375l-116.695312-27.253906c-2.984375-.699219-2.894531-1.933594-2.867188-2.339844.027344-.363281.027344-.726563 0-1.089844-.027343-.402343-.117187-1.625 2.863281-2.308593l116.699219-27.253907c.035157-.007812.074219-.019531.109375-.027343 9.089844-2.261719 13.855469-3.332032 18.269532-3.332032 4.382812 0 9.144531 1.070313 18.238281 3.332032.035156.011718.070312.019531.105469.027343l116.726562 27.261719c2.972656.683594 2.890625 1.9375 2.863281 2.351562-.023437.328126-.023437.660157 0 .988282.03125.460937.109375 1.6875-2.886719 2.390625zm0 0"/><path d="m89.789062 344.832031c-4.175781 0-7.558593 3.382813-7.558593 7.558594 0 4.171875 3.382812 7.554687 7.558593 7.554687h161.074219c4.171875 0 7.558594-3.382812 7.558594-7.554687 0-4.175781-3.386719-7.558594-7.558594-7.558594zm0 0"/><path d="m317.367188 310.054688c0-4.171876-3.382813-7.558594-7.558594-7.558594h-220.019532c-4.175781 0-7.558593 3.386718-7.558593 7.558594 0 4.175781 3.382812 7.558593 7.558593 7.558593h220.019532c4.175781 0 7.558594-3.382812 7.558594-7.558593zm0 0"/><path d="m495.535156 380.652344h-3.0625c-.761718-2.101563-1.609375-4.171875-2.539062-6.203125l2.148437-2.148438c3.09375-3.09375 4.796875-7.222656 4.796875-11.632812 0-4.410157-1.703125-8.539063-4.796875-11.632813l-16.738281-16.726562c-6.421875-6.421875-16.871094-6.417969-23.28125-.015625l-2.152344 2.140625c-2.035156-.933594-4.113281-1.785156-6.222656-2.542969v-3.058594c0-8.8125-6.96875-16.011719-15.683594-16.421875v-96.042968c0-4.171876-3.382812-7.554688-7.554687-7.554688-4.175781 0-7.558594 3.382812-7.558594 7.554688v96.003906h-9.320313c-9.082031 0-16.46875 7.382812-16.46875 16.460937v3.527344c-1.964843.746094-3.910156 1.574219-5.828124 2.480469l-2.535157-2.53125c-6.417969-6.417969-16.871093-6.417969-23.292969 0l-16.734374 16.726562c-3.09375 3.09375-4.800782 7.226563-4.800782 11.632813 0 4.410156 1.707032 8.542969 4.800782 11.632812l3.019531 3.019531c-.78125 1.753907-1.5 3.535157-2.152344 5.332032h-4.320313c-9.078124 0-16.46875 7.382812-16.46875 16.460937v23.671875c0 9.078125 7.390626 16.460938 16.46875 16.460938h4.789063c.632813 1.664062 1.320313 3.308594 2.0625 4.925781l-3.421875 3.417969c-4.191406 4.222656-5.601562 10.1875-4.265625 15.605468h-308.820313c-5.6875 0-10.316406-4.625-10.316406-10.308593v-370.75h397.605469v99.957031c0 4.175781 3.382813 7.558594 7.554687 7.558594 4.175782 0 7.558594-3.382813 7.558594-7.558594v-154.171875c0-14.019531-11.421875-25.425781-25.460937-25.425781h-376.941407c-14.023437 0-25.429687 11.40625-25.429687 25.425781v45.066406c-.109375.515625-.171875 1.046875-.171875 1.589844 0 .546875.0625 1.078125.171875 1.59375v376.714844c0 14.015625 11.40625 25.421875 25.429687 25.421875h320.554688l9.289062 9.28125c6.421876 6.421875 16.875 6.421875 23.292969 0l3.40625-3.402344c1.625.742188 3.277344 1.433594 4.957031 2.070312v4.777344c0 9.078125 7.386719 16.460938 16.464844 16.460938h23.652344c9.082031 0 16.46875-7.382813 16.46875-16.460938v-4.300781c1.808594-.65625 3.589844-1.378906 5.34375-2.160156l3.015625 3.015625c6.425781 6.417968 16.875 6.417968 23.296875 0l16.757812-16.75c6.359376-6.410156 6.359376-16.839844-.035156-23.285156l-2.535156-2.523438c.894531-1.894531 1.714844-3.828125 2.464844-5.789062h3.535156c9.078125 0 16.464844-7.382813 16.464844-16.460938v-23.667969c.003906-9.078125-7.382813-16.460937-16.460938-16.460937zm-469.933594-365.042969h376.941407c5.707031 0 10.347656 4.625 10.347656 10.3125v39.101563h-397.605469v-39.101563c0-5.6875 4.628906-10.3125 10.316406-10.3125zm471.285157 405.175781c0 .71875-.632813 1.347656-1.355469 1.347656h-8.933594c-3.332031 0-6.273437 2.179688-7.234375 5.367188-1.398437 4.617188-3.304687 9.078125-5.667969 13.265625-1.671874 2.960937-1.160156 6.675781 1.25 9.074219l6.425782 6.394531c.519531.523437.519531 1.4375.023437 1.9375l-16.734375 16.730469c-.523437.519531-1.402344.519531-1.925781 0l-6.832031-6.832032c-2.351563-2.351562-5.964844-2.890624-8.902344-1.320312-4.078125 2.179688-8.4375 3.941406-12.949219 5.234375-3.242187.925781-5.480469 3.894531-5.480469 7.265625v9.785156c0 .71875-.628906 1.347656-1.347656 1.347656h-23.65625c-.71875 0-1.351562-.628906-1.351562-1.347656v-10.183594c0-3.332031-2.179688-6.273437-5.371094-7.234374-4.394531-1.328126-8.621094-3.097657-12.558594-5.253907-1.140625-.628906-2.390625-.929687-3.628906-.929687-1.957031 0-3.890625.757812-5.34375 2.210937l-7.257812 7.253907c-.523438.519531-1.402344.523437-1.925782 0l-11.179687-11.171876c-.191407-.214843-.394531-.417968-.609375-.613281l-4.925782-4.921875c-.515624-.519531-.515624-1.433594-.019531-1.933594l7.257813-7.253906c2.375-2.375 2.898437-6.035156 1.28125-8.980468-2.167969-3.957032-3.9375-8.171876-5.253906-12.523438-.964844-3.1875-3.902344-5.367188-7.234376-5.367188h-10.191406c-.71875 0-1.351562-.632812-1.351562-1.347656v-23.671875c0-.71875.632812-1.347656 1.351562-1.347656h9.820313c3.382812 0 6.355469-2.246094 7.273437-5.503906 1.253906-4.441407 3.007813-8.789063 5.207032-12.933594 1.558593-2.933594 1.019531-6.542969-1.332032-8.890625l-6.828125-6.828125c-.320312-.320313-.371093-.726563-.371093-.941406 0-.214844.050781-.621094.371093-.941407l16.734375-16.730468c.523438-.519532 1.40625-.519532 1.925782 0l6.433593 6.429687c2.394531 2.394531 6.085938 2.902344 9.035157 1.25 4.265624-2.394531 8.746093-4.300781 13.308593-5.671875 3.195313-.960937 5.382813-3.902344 5.382813-7.238281v-8.933594c0-.71875.632812-1.347656 1.351562-1.347656h23.65625c.71875 0 1.347656.628906 1.347656 1.347656v8.5625c0 3.386719 2.25 6.359375 5.507813 7.277344 4.75 1.335937 9.351563 3.214844 13.679687 5.585937 2.9375 1.605469 6.585938 1.089844 8.957032-1.273437l6.019531-5.988281c.523437-.519532 1.402344-.519532 1.921875 0l16.738281 16.730468c.320313.320313.367188.726563.367188.941407 0 .214843-.046875.621093-.367188.941406l-6.003906 6.003906c-2.375 2.375-2.902344 6.03125-1.285156 8.976563 2.367187 4.324218 4.246093 8.925781 5.585937 13.671875.917969 3.253906 3.890625 5.503906 7.273438 5.503906h8.566406c.722656 0 1.355469.632813 1.355469 1.347656zm0 0"/><path d="m365.597656 45.855469h.199219c4.175781 0 7.558594-3.382813 7.558594-7.558594s-3.386719-7.558594-7.558594-7.558594h-.199219c-4.171875 0-7.558594 3.382813-7.558594 7.558594s3.386719 7.558594 7.558594 7.558594zm0 0"/><path d="m333.40625 45.855469h.199219c4.175781 0 7.558593-3.382813 7.558593-7.558594s-3.382812-7.558594-7.558593-7.558594h-.199219c-4.175781 0-7.558594 3.382813-7.558594 7.558594s3.382813 7.558594 7.558594 7.558594zm0 0"/><path d="m301.242188 46.023438h.171874c4.171876 0 7.554688-3.382813 7.554688-7.554688 0-4.175781-3.382812-7.558594-7.554688-7.558594h-.171874c-4.175782 0-7.558594 3.382813-7.558594 7.558594 0 4.171875 3.386718 7.554688 7.558594 7.554688zm0 0"/><path d="m66.050781 46.023438h164.148438c4.171875 0 7.554687-3.382813 7.554687-7.554688 0-4.175781-3.382812-7.558594-7.554687-7.558594h-164.148438c-4.175781 0-7.558593 3.382813-7.558593 7.558594 0 4.171875 3.382812 7.554688 7.558593 7.554688zm0 0"/><path d="m415.382812 373.824219c-19.363281 0-35.113281 15.757812-35.113281 35.125 0 19.351562 15.75 35.097656 35.113281 35.097656 19.375 0 35.136719-15.746094 35.136719-35.097656 0-19.367188-15.761719-35.125-35.136719-35.125zm0 55.109375c-11.027343 0-19.996093-8.964844-19.996093-19.984375 0-11.035157 8.96875-20.011719 19.996093-20.011719 11.039063 0 20.023438 8.976562 20.023438 20.011719-.003906 11.019531-8.984375 19.984375-20.023438 19.984375zm0 0"/></svg>