<svg id="Capa_1" enable-background="new 0 0 512.011 512.011" height="512" viewBox="0 0 512.011 512.011" width="512" xmlns="http://www.w3.org/2000/svg"><g><g><path d="m452.911 98.06c4.142 0 7.5-3.358 7.5-7.5v-63.06c0-15.164-12.336-27.5-27.5-27.5h-328.811c-28.949 0-52.5 23.551-52.5 52.5v331.435 44.145c0 28.949 23.551 52.5 52.5 52.5h47.215v18.911c0 4.924 2.775 9.27 7.244 11.341 1.707.792 3.508 1.18 5.291 1.18 2.884 0 5.722-1.015 8.044-2.982l30.841-26.121 30.841 26.121c3.757 3.183 8.869 3.874 13.335 1.802 4.468-2.071 7.244-6.417 7.244-11.341v-53.911h191.256v20h-158.806c-4.142 0-7.5 3.358-7.5 7.5s3.358 7.5 7.5 7.5h161.306c6.893 0 12.5-5.607 12.5-12.5v-25c0-6.893-5.607-12.5-12.5-12.5h-8.205v-49.145h8.205c6.893 0 12.5-5.607 12.5-12.5v-236.255c0-4.142-3.358-7.5-7.5-7.5s-7.5 3.358-7.5 7.5v198.755h-341.311c-14.679 0-27.963 6.063-37.5 15.808v-294.743c0-20.678 16.822-37.5 37.5-37.5h328.812c6.893 0 12.5 5.607 12.5 12.5v63.06c-.001 4.142 3.357 7.5 7.499 7.5zm-213.756 396.037-31.573-26.74c-2.797-2.369-6.897-2.369-9.694 0l-31.573 26.74v-80.589h72.84zm15-80.59h93.65c4.142 0 7.5-3.358 7.5-7.5s-3.358-7.5-7.5-7.5h-222.788c-4.142 0-7.5 3.358-7.5 7.5s3.358 7.5 7.5 7.5h26.298v17.072h-47.215c-1.378 0-2.5-1.122-2.5-2.5v-44.145c0-1.378 1.122-2.5 2.5-2.5h320.606v17.072h-40.181c-4.142 0-7.5 3.358-7.5 7.5s3.358 7.5 7.5 7.5h40.181v17.072h-170.551zm-150.055-67.072h341.312v20h-341.312c-9.649 0-17.5 7.851-17.5 17.5v44.145c0 9.649 7.851 17.5 17.5 17.5h47.215v20h-47.215c-20.678 0-37.5-16.822-37.5-37.5v-44.145c0-20.678 16.822-37.5 37.5-37.5z"/><path d="m381.09 82.52c0-9.649-7.851-17.5-17.5-17.5h-215.17c-9.649 0-17.5 7.851-17.5 17.5v88.4c0 9.649 7.851 17.5 17.5 17.5h215.17c9.649 0 17.5-7.851 17.5-17.5zm-15 88.4c0 1.378-1.122 2.5-2.5 2.5h-215.17c-1.378 0-2.5-1.122-2.5-2.5v-88.4c0-1.378 1.122-2.5 2.5-2.5h215.17c1.378 0 2.5 1.122 2.5 2.5z"/><path d="m317.206 100.46h-122.4c-4.142 0-7.5 3.358-7.5 7.5s3.358 7.5 7.5 7.5h122.4c4.142 0 7.5-3.358 7.5-7.5s-3.358-7.5-7.5-7.5z"/><path d="m317.206 137.98h-122.4c-4.142 0-7.5 3.358-7.5 7.5s3.358 7.5 7.5 7.5h122.4c4.142 0 7.5-3.358 7.5-7.5s-3.358-7.5-7.5-7.5z"/><path d="m140.337 209.42c-4.142 0-7.5 3.358-7.5 7.5s3.358 7.5 7.5 7.5h231.337c4.142 0 7.5-3.358 7.5-7.5s-3.358-7.5-7.5-7.5z"/></g></g></svg>