<svg id="Capa_1" enable-background="new 0 0 512 512" height="512" viewBox="0 0 512 512" width="512" xmlns="http://www.w3.org/2000/svg"><g><path d="m326.317 347.21v-66.525c-46.735-5.733-93.996-5.722-140.633-.001v66.526c19.738-2.741 37.332 12.662 37.332 32.59h65.97c-.001-19.928 17.593-35.331 37.331-32.59z" fill="#9bb9c1"/><path d="m286.317 277.185v25.756c0 11.6-6.931 22.025-17.562 26.667-6.896 3.011-12.616 8.343-16.099 15.061-4.891 9.433-14.866 15.13-25.491 15.13h-10.916c4.229 5.517 6.767 12.432 6.767 20h65.97c0-19.927 17.594-35.331 37.332-32.59v-66.525c-13.301-1.63-26.643-2.797-40.001-3.499z" fill="#86a0af"/><path d="m223.015 379.8v80.393c0 6.813 5.523 12.335 12.335 12.335h41.3c6.813 0 12.335-5.523 12.335-12.335v-80.393z" fill="#f1f4f6"/><path d="m255.478 7.574-213.624 62.229c-1.791.522-1.791 3.059 0 3.581l213.624 62.229c.341.099.702.099 1.043 0l213.624-62.229c1.791-.522 1.791-3.059 0-3.581l-213.624-62.229c-.34-.099-.702-.099-1.043 0z" fill="#4073c8"/><path d="m256.521 135.612c-.341.099-.702.099-1.043 0l-144.344-42.047v89.804c0 3.52 2.854 6.374 6.374 6.374h100.088c10.28 0 20.139 4.084 27.409 11.353l5.746 5.746c2.899 2.899 7.599 2.899 10.498 0l5.746-5.746c7.269-7.269 17.128-11.353 27.409-11.353h100.088c3.52 0 6.374-2.854 6.374-6.374v-89.804z" fill="#3b66c1"/><path d="m294.403 189.743c-4.547 0-9.01.799-13.205 2.319h.002c52.149 9.72 94.025 49.032 107.473 99.788-20.593-4.874-41.414-8.595-62.357-11.164v66.525c19.698 2.735 39.259 6.627 58.568 11.674l4.322 1.13c-12.206 49.192-51.021 87.994-100.222 100.179 0 6.813-5.523 12.335-12.335 12.335h-41.3c-6.813 0-12.335-5.523-12.335-12.335-49.201-12.185-88.016-50.986-100.222-100.179l4.322-1.13c19.308-5.048 38.87-8.939 58.568-11.674v-66.526c-20.943 2.569-41.764 6.29-62.357 11.164 13.448-50.756 55.323-90.068 107.475-99.786-4.194-1.52-8.658-2.319-13.205-2.319h-75.365c-39.21 32.639-64.168 81.815-64.168 136.82.001 98.271 79.666 177.936 177.938 177.936s177.937-79.665 177.937-177.937c0-55.005-24.959-104.18-64.168-136.82z" fill="#617881"/><path d="m369.768 189.743h-19.547c27.227 31.256 43.716 72.112 43.716 116.82 0 18.319-2.769 35.99-7.91 52.62l3.18.831c-8.189 33.002-28.354 61.327-55.596 80.077-31.357 27.64-72.525 44.409-117.611 44.409-20.626 0-40.432-3.51-58.854-9.964 28.274 18.926 62.275 29.964 98.854 29.964 98.272 0 177.937-79.665 177.937-177.937 0-55.005-24.959-104.181-64.169-136.82z" fill="#475959"/><path d="m463.232 220.032h-24.733c-.737 0-1.334-.597-1.334-1.334v-25.032c0-7.567 6.134-13.701 13.701-13.701 7.567 0 13.701 6.134 13.701 13.701v25.032c0 .736-.598 1.334-1.335 1.334z" fill="#f4dd45"/><path d="m235.287 354.101c0 4.143 3.358 7.5 7.5 7.5h26.426c4.142 0 7.5-3.357 7.5-7.5s-3.358-7.5-7.5-7.5h-26.426c-4.143 0-7.5 3.358-7.5 7.5z"/><path d="m472.243 62.601-213.634-62.23c-1.707-.494-3.511-.496-5.229.003l-85.155 24.805c-3.977 1.159-6.262 5.322-5.103 9.299s5.321 6.256 9.298 5.104l83.58-24.348 192.881 56.186-192.596-7.32c-4.152-.178-7.622 3.07-7.779 7.209-.157 4.14 3.071 7.622 7.21 7.779l148.635 5.65c-4.309 1.255-141.563 41.237-148.351 43.214-165.657-48.255 184.554 53.759-193.476-56.358l76.378-22.249c3.977-1.159 6.262-5.322 5.103-9.299s-5.323-6.259-9.298-5.104l-94.95 27.659c-4.035 1.175-6.747 4.788-6.747 8.991 0 4.204 2.711 7.817 6.746 8.991l63.877 18.608v84.177c0 7.65 6.224 13.874 13.874 13.874h5.58c-33.591 34.485-52.526 80.633-52.526 129.32.002 102.251 83.188 185.438 185.439 185.438 102.25 0 185.437-83.187 185.437-185.437 0-20.078-3.191-39.828-9.486-58.703-1.311-3.929-5.56-6.05-9.487-4.742-3.93 1.311-6.053 5.559-4.742 9.488 5.783 17.341 8.715 35.495 8.715 53.957 0 41.938-15.227 80.387-40.441 110.11l-18.055-18.056c13.605-16.588 23.381-35.98 28.546-56.797.989-3.984-1.41-8.023-5.382-9.062-3.836-.907-24.03-6.983-57.287-12.036v-51.496c17.845 2.462 35.679 5.791 53.13 9.922 2.625.617 5.3-.217 7.101-2.066 1.839-1.889 2.552-4.604 1.876-7.153-5.431-20.498-15.261-39.187-28.375-55.029l18.51-18.509c6.867 8.097 12.969 16.829 18.254 26.136 2.036 3.583 6.607 4.872 10.225 2.817 3.602-2.045 4.864-6.623 2.818-10.226-7.866-13.852-17.396-26.533-28.444-37.875h5.579c7.65 0 13.874-6.224 13.874-13.874v-84.177l35-10.195v84.838c-8 3.036-13.701 10.78-13.701 19.831v25.031c0 4.871 3.963 8.834 8.834 8.834h24.733c4.872 0 8.834-3.963 8.834-8.834v-25.031c0-9.051-5.701-16.795-13.701-19.831v-89.208l13.876-4.042c4.035-1.175 6.747-4.788 6.747-8.992.001-4.203-2.711-7.817-6.745-8.992zm-15.177 149.93h-12.402v-18.865c0-3.419 2.782-6.201 6.201-6.201s6.201 2.782 6.201 6.201zm-265.145-15.288c-13.804 6.857-26.396 15.866-37.315 26.597l-18.459-18.458c2.837-2.803 5.782-5.519 8.832-8.139zm-65.979 19.148 18.509 18.509c-13.113 15.842-22.943 34.53-28.374 55.028-.675 2.549.038 5.265 1.876 7.153 1.812 1.86 4.492 2.68 7.101 2.066 17.45-4.131 35.284-7.46 53.129-9.922v51.497c-30.903 4.695-55.369 11.583-57.287 12.036-3.972 1.038-6.371 5.077-5.382 9.062 5.165 20.817 14.94 40.209 28.546 56.797l-18.055 18.056c-54.331-64.042-53.508-157.292-.063-220.282zm192.874 70.969v52.151c-18.219 1.363-33.245 14.85-36.63 32.788h-52.372c-3.388-17.953-18.426-31.426-36.63-32.788v-52.152c41.711-4.623 83.914-4.622 125.632.001zm-88.301 172.686v-10.446c0-4.143-3.358-7.5-7.5-7.5s-7.5 3.357-7.5 7.5v.642c-39.134-12.82-70.76-43.813-83.454-84.887 17.321-4.41 35.672-8.078 54.654-10.715 7.231-1.001 14.546 1.177 20.067 5.983 5.549 4.832 8.732 11.822 8.732 19.177v34.8c0 4.143 3.358 7.5 7.5 7.5s7.5-3.357 7.5-7.5v-27.3h17.986v50.476c0 4.143 3.358 7.5 7.5 7.5s7.5-3.357 7.5-7.5v-50.476h17.985v72.746c-.002.077-.002.154-.001.231-.045 2.627-2.196 4.751-4.834 4.751h-41.3c-2.638 0-4.789-2.124-4.834-4.751.001-.077.001-.154-.001-.231zm-94.31-12.361 17.962-17.963c17.434 17.279 38.868 29.823 62.28 36.483 2.552 8.007 10.061 13.823 18.903 13.823h41.3c8.842 0 16.351-5.815 18.903-13.823 23.411-6.661 44.846-19.204 62.28-36.484l17.962 17.963c-30.807 30.474-73.142 49.316-119.795 49.316s-88.988-18.842-119.795-49.315zm160.28 2.556v-70.441c0-7.354 3.183-14.345 8.732-19.177 5.521-4.807 12.833-6.987 20.067-5.983.021.003.043.005.064.008 18.342 2.55 36.69 6.15 54.589 10.707-12.214 39.526-42.766 71.558-83.452 84.886zm-162.051-168.574c15.551-41.555 51.832-72.908 95.674-81.828 3.534 1.544 6.784 3.752 9.593 6.561l5.746 5.745c5.833 5.834 15.272 5.834 21.105 0l5.745-5.745c2.81-2.809 6.06-5.018 9.595-6.562 43.841 8.921 80.124 40.275 95.674 81.83-80.02-17.018-162.935-17.057-243.132-.001zm241.421-76.286-18.46 18.459c-10.919-10.731-23.511-19.739-37.314-26.597h46.94c3.047 2.617 5.993 5.331 8.834 8.138zm17.511-23.138h-98.962c-12.356 0-23.973 4.812-32.712 13.55l-5.692 5.691-5.692-5.692c-8.738-8.737-20.355-13.549-32.711-13.549-85.917 0-66.77 0-98.962 0v-78.682l134.737 39.249c1.718.502 3.528.504 5.248.003l134.747-39.252v78.682z"/></g></svg>