<svg id="Capa_1" enable-background="new 0 0 512 512" height="512" viewBox="0 0 512 512" width="512" xmlns="http://www.w3.org/2000/svg"><g><g><path d="m366.61 48.49c-8.245 0-16.242 1.079-23.862 3.095-31.769-32.839-75.817-51.585-121.598-51.585-47.483 0-93.068 20.145-125.064 55.269-2.79 3.062-2.568 7.806.493 10.595 1.438 1.31 3.246 1.956 5.049 1.956 2.036 0 4.066-.825 5.546-2.449 29.161-32.012 70.704-50.371 113.976-50.371 39.454 0 77.49 15.284 105.995 42.255-31.807 14.898-53.895 47.213-53.895 84.595 0 14.569 3.429 29.012 9.938 41.955l-9.746 42.229c-.582 2.52.176 5.161 2.004 6.99 1.423 1.423 3.337 2.197 5.304 2.197.562 0 1.127-.063 1.687-.192l42.228-9.747c11.137 5.601 23.383 8.914 35.861 9.732-11.123 23.515-28.01 43.824-49.315 59.185-12.185 8.796-21.22 21.641-25.444 36.174l-9.642 33.287h-28.948l14.336-86.017c7.109-.663 11.994-2.232 12.517-2.406 3.919-1.307 6.029-5.531 4.738-9.455s-5.527-6.06-9.455-4.784c-.278.09-2.225.699-5.229 1.217l1.84-11.043c.681-4.086-2.08-7.95-6.165-8.631-4.1-.688-7.95 2.08-8.632 6.165l-2.3 13.798c-7.323-1.06-15.416-4.165-22.128-11.549-1.422-1.563-3.437-2.455-5.55-2.455s-4.128.892-5.55 2.455c-6.713 7.385-14.806 10.49-22.128 11.55l-2.3-13.799c-.682-4.085-4.538-6.847-8.632-6.165-4.085.681-6.846 4.545-6.165 8.631l1.841 11.045c-2.994-.516-4.932-1.122-5.202-1.21-3.933-1.31-8.178.814-9.487 4.744s.813 8.177 4.743 9.487c.523.174 5.407 1.745 12.518 2.408l14.336 86.015h-28.949l-9.65-33.288c-4.21-14.526-13.242-27.373-25.438-36.176-40.116-28.927-64.066-75.681-64.066-125.067 0-27.015 7.085-53.587 20.488-76.845 2.068-3.589.836-8.175-2.753-10.243-3.588-2.07-8.176-.836-10.243 2.753-14.715 25.532-22.492 54.695-22.492 84.335 0 54.193 26.278 105.496 70.291 137.231 9.49 6.851 16.524 16.861 19.807 28.188l9.005 31.062c-2.693 1.17-5.175 2.843-7.325 4.985-4.461 4.476-6.918 10.416-6.918 16.724 0 6.245 2.436 11.928 6.403 16.161-3.968 4.234-6.406 9.918-6.406 16.165 0 13.048 10.615 23.663 23.663 23.663h2.602v8.663c0 13.377 9.531 24.569 22.158 27.145l7.219 21.004c2.443 7.105 9.133 11.879 16.646 11.879h24.76c7.74 0 14.492-4.964 16.8-12.351l6.427-20.566c12.551-2.635 22.005-13.789 22.005-27.111v-8.663h2.602c13.048 0 23.663-10.615 23.663-23.663 0-6.241-2.433-11.922-6.395-16.154 4.126-4.407 6.393-10.118 6.393-16.172 0-9.702-5.872-18.054-14.246-21.701l8.998-31.066c3.293-11.332 10.331-21.344 19.813-28.19 25.398-18.311 45.06-43.051 57.12-71.746 12.771-1.442 25.144-5.489 36.268-11.939 3.583-2.078 4.804-6.667 2.726-10.25-2.079-3.584-6.667-4.802-10.251-2.726-11.866 6.881-25.435 10.519-39.237 10.519-13.04 0-25.955-3.271-37.352-9.461-1.608-.874-3.481-1.127-5.266-.717l-33.236 7.671 7.671-33.237c.412-1.784.157-3.657-.717-5.266-6.189-11.395-9.461-24.314-9.461-37.36 0-43.208 35.152-78.36 78.36-78.36 43.214 0 78.37 35.152 78.37 78.36 0 16.973-5.336 33.124-15.43 46.706-2.471 3.324-1.778 8.022 1.546 10.493 3.322 2.47 8.021 1.779 10.493-1.546 12.031-16.188 18.391-35.433 18.391-55.653 0-51.48-41.885-93.361-93.37-93.361zm-170.674 228.801c8.164-1.199 17.082-4.28 25.213-10.958 8.132 6.678 17.05 9.759 25.213 10.957l-14.395 86.369h-21.637zm37.99 219.709h-24.76c-1.111 0-2.1-.706-2.461-1.756l-5.352-15.569h39.899l-4.844 15.5c-.341 1.092-1.338 1.825-2.482 1.825zm30.231-45.028c0 7.004-5.698 12.703-12.703 12.703h-60.609c-7.005 0-12.703-5.699-12.703-12.703v-8.663h86.016v8.663zm17.602-23.663h-121.219c-4.777 0-8.663-3.886-8.663-8.663s3.886-8.663 8.663-8.663c.026 0 .051-.004.077-.004h70.302c4.143 0 7.5-3.358 7.5-7.5s-3.357-7.5-7.5-7.5h-70.38c-4.775 0-8.66-3.885-8.66-8.66 0-2.311.903-4.49 2.524-6.118 1.646-1.639 3.824-2.542 6.136-2.542h121.22c4.775 0 8.66 3.885 8.66 8.66 0 2.312-.902 4.491-2.523 6.117-1.646 1.64-3.825 2.543-6.137 2.543h-15.84c-4.143 0-7.5 3.358-7.5 7.5s3.357 7.5 7.5 7.5h15.761c.026 0 .051.004.077.004 4.777 0 8.663 3.886 8.663 8.663s-3.884 8.663-8.661 8.663z"/><path d="m366.613 189.994c-3.722 0-6.739 3.017-6.739 6.739s3.017 6.739 6.739 6.739 6.739-3.017 6.739-6.739-3.018-6.739-6.739-6.739z"/><path d="m374.113 151.677c7.003-1.511 13.494-5.107 18.485-10.364 6.834-7.198 10.314-16.631 9.799-26.562-.968-18.65-16.363-33.554-35.049-33.93-18.148-.373-33.719 12.892-36.224 30.835-.229 1.64-.346 3.319-.346 4.991 0 4.142 3.357 7.5 7.5 7.5s7.5-3.358 7.5-7.5c0-.979.067-1.958.201-2.915 1.455-10.425 10.517-18.135 21.065-17.914 10.861.219 19.81 8.876 20.371 19.71.301 5.782-1.723 11.272-5.696 15.457-3.977 4.188-9.342 6.495-15.107 6.495-4.143 0-7.5 3.358-7.5 7.5v29.628c0 4.142 3.357 7.5 7.5 7.5s7.5-3.358 7.5-7.5v-22.931z"/></g></g></svg>