<svg id="Capa_1" enable-background="new 0 0 512 512" height="512" viewBox="0 0 512 512" width="512" xmlns="http://www.w3.org/2000/svg"><g><g><path d="m504.5 348.5c4.143 0 7.5-3.357 7.5-7.5v-159.75c0-15.279-12.426-27.71-27.7-27.71h-53.11v-62.54c0-4.143-3.357-7.5-7.5-7.5s-7.5 3.357-7.5 7.5v373.09c0 12.733 4.99 24.32 13.12 32.91h-381.4c-18.146 0-32.91-14.764-32.91-32.91v-55.09c0-4.143-3.358-7.5-7.5-7.5s-7.5 3.357-7.5 7.5v55.09c0 26.418 21.492 47.91 47.91 47.91h416.18c.165 0 .885-.01.934-.011 25.903-.496 46.976-21.983 46.976-47.899v-88.09c0-4.143-3.357-7.5-7.5-7.5s-7.5 3.357-7.5 7.5v88.09c0 17.802-14.474 32.562-32.264 32.901-.218.017-.429.026-.646.009-18.141 0-32.899-14.764-32.899-32.91v-295.55h53.109c7.003 0 12.7 5.701 12.7 12.71v159.75c0 4.143 3.357 7.5 7.5 7.5z"/><path d="m7.5 381.5c4.142 0 7.5-3.357 7.5-7.5v-346.3c0-7.003 5.697-12.7 12.7-12.7h375.78c7.009 0 12.71 5.697 12.71 12.7v28.3c0 4.143 3.357 7.5 7.5 7.5s7.5-3.357 7.5-7.5v-28.3c0-15.273-12.431-27.7-27.71-27.7h-375.78c-15.274 0-27.7 12.427-27.7 27.7v346.3c0 4.143 3.358 7.5 7.5 7.5z"/><path d="m150.763 151.43c5.595-7.839 8.901-17.418 8.901-27.761 0-26.416-21.491-47.907-47.907-47.907s-47.906 21.491-47.906 47.907 21.491 47.906 47.906 47.906c10.671 0 20.536-3.51 28.507-9.431l6.908 6.908c1.464 1.465 3.384 2.197 5.303 2.197s3.839-.732 5.303-2.196c2.929-2.929 2.929-7.678 0-10.606zm-39.006 5.145c-18.145 0-32.906-14.762-32.906-32.906 0-18.146 14.762-32.907 32.906-32.907 18.145 0 32.907 14.762 32.907 32.907 0 6.196-1.723 11.996-4.713 16.949l-8.025-8.025c-2.929-2.929-7.678-2.93-10.606-.001-2.929 2.929-2.929 7.678 0 10.606l8.169 8.169c-5.122 3.291-11.205 5.208-17.732 5.208z"/><path d="m275.992 75.762c-4.143 0-7.5 3.357-7.5 7.5v80.813c0 4.143 3.357 7.5 7.5 7.5s7.5-3.357 7.5-7.5v-80.813c0-4.143-3.357-7.5-7.5-7.5z"/><path d="m359.836 156.575h-40.072l45.102-69.219c1.502-2.306 1.621-5.249.31-7.668-1.312-2.42-3.842-3.927-6.594-3.927h-50.999c-4.143 0-7.5 3.357-7.5 7.5s3.357 7.5 7.5 7.5h37.16l-45.102 69.219c-1.502 2.306-1.621 5.249-.31 7.668 1.312 2.42 3.842 3.927 6.594 3.927h53.911c4.143 0 7.5-3.357 7.5-7.5s-3.357-7.5-7.5-7.5z"/><path d="m243.252 75.763c-4.142 0-7.5 3.357-7.5 7.5v55.549c0 4.258-1.151 10.498-11.104 15.511-2.978 1.5-6.352 2.238-9.965 2.253-4.078-.006-7.633-1.014-10.869-3.081-6.546-4.182-9.216-8.418-9.216-14.624v-55.608c0-4.143-3.358-7.5-7.5-7.5s-7.5 3.357-7.5 7.5v55.607c0 11.409 5.28 20.327 16.14 27.265 5.634 3.6 12.001 5.431 18.924 5.44h.054c5.987 0 11.599-1.298 16.679-3.856 15.999-8.057 19.357-20.167 19.357-28.907v-55.549c0-4.143-3.358-7.5-7.5-7.5z"/><path d="m398.861 176.197v-105.056c0-15.276-12.428-27.704-27.703-27.704h-311.13c-15.275 0-27.703 12.428-27.703 27.704v105.057c0 15.275 12.428 27.703 27.703 27.703h311.13c15.276-.001 27.703-12.428 27.703-27.704zm-351.536 0v-105.056c0-7.005 5.699-12.704 12.703-12.704h311.13c7.005 0 12.703 5.699 12.703 12.704v105.057c0 7.005-5.698 12.703-12.703 12.703h-311.13c-7.004-.001-12.703-5.699-12.703-12.704z"/><path d="m103.895 244.889c0-4.143-3.358-7.5-7.5-7.5h-56.57c-4.142 0-7.5 3.357-7.5 7.5v40.406c0 4.143 3.358 7.5 7.5 7.5h56.569c4.142 0 7.5-3.357 7.5-7.5v-40.406zm-15 32.906h-41.57v-25.406h41.569v25.406z"/><path d="m136.801 292.795h165.667c4.143 0 7.5-3.357 7.5-7.5s-3.357-7.5-7.5-7.5h-165.667c-4.142 0-7.5 3.357-7.5 7.5s3.358 7.5 7.5 7.5z"/><path d="m338.833 237.389h-143.443c-4.142 0-7.5 3.357-7.5 7.5s3.358 7.5 7.5 7.5h143.443c4.143 0 7.5-3.357 7.5-7.5s-3.357-7.5-7.5-7.5z"/><path d="m136.801 252.389h23.234c4.142 0 7.5-3.357 7.5-7.5s-3.358-7.5-7.5-7.5h-23.234c-4.142 0-7.5 3.357-7.5 7.5s3.358 7.5 7.5 7.5z"/><path d="m103.895 317.62c0-4.143-3.358-7.5-7.5-7.5h-56.57c-4.142 0-7.5 3.357-7.5 7.5v40.406c0 4.143 3.358 7.5 7.5 7.5h56.569c4.142 0 7.5-3.357 7.5-7.5v-40.406zm-15 32.906h-41.57v-25.406h41.569v25.406z"/><path d="m136.801 365.526h165.667c4.143 0 7.5-3.357 7.5-7.5s-3.357-7.5-7.5-7.5h-165.667c-4.142 0-7.5 3.357-7.5 7.5s3.358 7.5 7.5 7.5z"/><path d="m338.833 310.12h-143.443c-4.142 0-7.5 3.357-7.5 7.5s3.358 7.5 7.5 7.5h143.443c4.143 0 7.5-3.357 7.5-7.5s-3.357-7.5-7.5-7.5z"/><path d="m136.801 325.12h23.234c4.142 0 7.5-3.357 7.5-7.5s-3.358-7.5-7.5-7.5h-23.234c-4.142 0-7.5 3.357-7.5 7.5s3.358 7.5 7.5 7.5z"/><path d="m96.395 382.852h-56.57c-4.142 0-7.5 3.357-7.5 7.5v40.406c0 4.143 3.358 7.5 7.5 7.5h56.569c4.142 0 7.5-3.357 7.5-7.5v-40.406c.001-4.143-3.357-7.5-7.499-7.5zm-7.5 40.406h-41.57v-25.406h41.569v25.406z"/><path d="m136.801 438.258h165.667c4.143 0 7.5-3.357 7.5-7.5s-3.357-7.5-7.5-7.5h-165.667c-4.142 0-7.5 3.357-7.5 7.5s3.358 7.5 7.5 7.5z"/><path d="m346.333 390.352c0-4.143-3.357-7.5-7.5-7.5h-143.443c-4.142 0-7.5 3.357-7.5 7.5s3.358 7.5 7.5 7.5h143.443c4.143 0 7.5-3.358 7.5-7.5z"/><path d="m136.801 397.852h23.234c4.142 0 7.5-3.357 7.5-7.5s-3.358-7.5-7.5-7.5h-23.234c-4.142 0-7.5 3.357-7.5 7.5s3.358 7.5 7.5 7.5z"/></g></g></svg>