<svg height="511.99995pt" viewBox="1 1 511.99995 511.99995" width="511.99995pt" xmlns="http://www.w3.org/2000/svg"><path d="m442.121094 331.269531v110.796875h-262.976563v-110.796875c60.539063-10.375 159.855469-5.914062 262.976563 0zm0 0" fill="#bf8b3f"/><path d="m70.90625 69.933594v108.261718h261.914062v153.074219h109.300782v-261.335937zm0 0" fill="#fade76"/><path d="m9.992188 9.992188v492.019531h492.019531v-492.019531zm432.128906 432.074218h-371.214844v-372.132812h371.214844zm0 0" fill="#383e4b"/><path d="m70.90625 69.933594h261.914062v108.261718h-261.914062zm0 0" fill="#bf8b3f"/><path d="m70.90625 178.195312h108.238281v263.871094h-108.238281zm0 0" fill="#fade76"/><path d="m179.144531 178.195312h153.675781v153.074219h-153.675781zm0 0" fill="#fbe591"/><path d="m502.007812 0h-492.015624c-5.519532 0-9.992188 4.472656-9.992188 9.992188v492.015624c0 5.519532 4.472656 9.992188 9.992188 9.992188h492.015624c5.519532 0 9.992188-4.472656 9.992188-9.992188v-492.015624c0-5.519532-4.472656-9.992188-9.992188-9.992188zm-9.988281 492.019531h-472.039062v-472.039062h472.039062zm0 0"/><path d="m70.90625 452.058594h107.847656c.128906.003906.257813.019531.386719.019531.132813 0 .257813-.015625.386719-.019531h262.589844c5.515624 0 9.988281-4.472656 9.988281-9.992188v-372.132812c0-5.515625-4.472657-9.988282-9.988281-9.988282h-371.210938c-5.519531 0-9.992188 4.472657-9.992188 9.988282v372.132812c0 5.519532 4.472657 9.992188 9.992188 9.992188zm9.988281-263.871094h88.253907v243.890625h-88.253907zm108.238281 243.890625v-90.820313h21.976563c5.519531 0 9.992187-4.472656 9.992187-9.988281 0-5.519531-4.472656-9.992187-9.992187-9.992187h-21.976563v-133.089844h133.699219v133.089844h-31.796875c-5.515625 0-9.988281 4.472656-9.988281 9.992187 0 5.515625 4.472656 9.988281 9.988281 9.988281h141.089844v90.820313zm242.992188-110.800781h-89.3125v-241.351563h89.3125zm-109.292969-241.351563v88.28125h-241.9375v-88.28125zm0 0"/><path d="m259.628906 327.875c-.25-.609375-.558594-1.191406-.917968-1.730469-.359376-.546875-.78125-1.058593-1.238282-1.519531-2.320312-2.316406-5.777344-3.386719-9.011718-2.726562-.640626.121093-1.269532.320312-1.878907.570312-.601562.25-1.179687.558594-1.71875.917969-.550781.359375-1.058593.78125-1.519531 1.238281-.457031.460938-.878906.972656-1.246094 1.519531-.363281.539063-.660156 1.121094-.910156 1.730469-.25.597656-.449219 1.226562-.582031 1.867188-.128907.640624-.1875 1.296874-.1875 1.949218 0 .648438.058593 1.308594.1875 1.945313.132812.640625.332031 1.269531.582031 1.878906.25.601563.546875 1.179687.910156 1.71875.367188.550781.789063 1.058594 1.246094 1.519531.460938.460938.96875.878906 1.519531 1.238282.539063.359374 1.117188.667968 1.71875.917968.609375.25 1.238281.449219 1.878907.570313.636718.128906 1.296874.199219 1.949218.199219 2.625 0 5.203125-1.066407 7.0625-2.925782.457032-.460937.878906-.96875 1.238282-1.519531.359374-.539063.667968-1.117187.917968-1.71875.25-.609375.449219-1.238281.570313-1.878906.128906-.636719.199219-1.296875.199219-1.945313 0-.652344-.070313-1.308594-.199219-1.949218-.121094-.640626-.320313-1.269532-.570313-1.867188zm0 0"/></svg>