<svg height="512pt" viewBox="0 0 512 512.00001" width="512pt" xmlns="http://www.w3.org/2000/svg"><path d="m501.933594 10.042969v57.800781l-306.546875 306.539062-57.792969-57.792968 306.535156-306.546875zm0 0" fill="#e3f7f7"/><path d="m152.039062 417.738281-72.25 72.242188c-15.960937 15.960937-41.839843 15.960937-57.792968 0-15.960938-15.953125-15.960938-41.832031 0-57.796875l72.238281-72.246094zm0 0" fill="#707c96"/><path d="m217.0625 439.414062c-11.972656 11.96875-31.378906 11.96875-43.347656 0l-101.152344-101.152343c-11.96875-11.96875-11.96875-31.375 0-43.347657 11.96875-11.96875 31.375-11.96875 43.347656 0l101.152344 101.152344c11.96875 11.96875 11.96875 31.378906 0 43.347656zm0 0" fill="#4c5b7c"/><path d="m511.925781 9.050781c-.011719-.136719-.039062-.269531-.058593-.40625-.023438-.1875-.046876-.378906-.085938-.566406-.03125-.15625-.074219-.3125-.113281-.46875-.042969-.164063-.078125-.324219-.125-.480469s-.105469-.304687-.160157-.457031c-.054687-.15625-.109374-.316406-.171874-.472656-.058594-.140625-.128907-.273438-.191407-.410157-.074219-.160156-.148437-.324218-.230469-.480468-.070312-.128906-.148437-.25-.222656-.375-.09375-.15625-.183594-.316406-.285156-.46875-.089844-.132813-.191406-.261719-.285156-.390625-.101563-.132813-.191406-.269531-.300782-.398438-.175781-.21875-.367187-.425781-.566406-.625-.03125-.035156-.058594-.074219-.09375-.105469-.03125-.035156-.070312-.0625-.101562-.09375-.203125-.199218-.414063-.390624-.632813-.570312-.125-.105469-.257812-.195312-.386719-.292969-.132812-.097656-.265624-.203125-.402343-.292969-.148438-.101562-.304688-.1875-.457031-.28125-.128907-.074218-.253907-.15625-.386719-.226562-.152344-.082031-.3125-.152344-.472657-.226562-.136718-.066407-.273437-.136719-.417968-.195313-.152344-.0625-.3125-.113281-.46875-.167969-.152344-.054687-.300782-.117187-.460938-.164062-.15625-.046875-.316406-.082032-.476562-.121094s-.316406-.085938-.476563-.117188c-.1875-.035156-.375-.058593-.5625-.085937-.136719-.0195312-.269531-.046875-.40625-.0585938-.332031-.0351562-.667969-.0507812-1-.0507812h-57.792969c-2.664062 0-5.21875 1.058594-7.105468 2.941406l-299.4375 299.4375-14.570313-14.570312c-15.871093-15.867188-41.6875-15.863282-57.554687 0-15.871094 15.871094-15.871094 41.691406 0 57.558594l14.570312 14.570312-65.148437 65.144531c-19.847657 19.851563-19.847657 52.152344 0 72.007813 9.617187 9.613281 22.402343 14.910156 36.003906 14.910156s26.386719-5.296875 36.003906-14.910156l65.144531-65.148438 14.570313 14.574219c7.9375 7.933594 18.355469 11.898437 28.777344 11.898437 10.425781 0 20.84375-3.964843 28.78125-11.898437 15.867187-15.871094 15.867187-41.6875 0-57.558594l-14.570313-14.570312 299.4375-299.4375c1.882813-1.886719 2.941406-4.441407 2.941406-7.105469v-57.792969c0-.332031-.015624-.667969-.050781-1zm-439.238281 473.828125c-12.019531 12.019532-31.574219 12.019532-43.59375 0-12.015625-12.015625-12.015625-31.574218 0-43.589844l65.144531-65.144531 43.59375 43.589844zm137.273438-50.574218c-8.035157 8.035156-21.109376 8.035156-29.144532 0l-101.148437-101.144532c-8.03125-8.035156-8.03125-21.109375 0-29.144531 4.019531-4.015625 9.296875-6.023437 14.574219-6.023437 5.273437 0 10.550781 2.007812 14.570312 6.023437l50.351562 50.351563c.019532.023437.035157.042968.054688.066406.023438.019531.046875.039062.070312.0625l50.671876 50.667968c8.03125 8.035157 8.03125 21.109376 0 29.140626zm-14.574219-72.125-14.820313-14.820313 97.46875-97.023437c3.933594-3.914063 3.949219-10.273438.035156-14.207032-3.914062-3.933594-10.277343-3.945312-14.207031-.03125l-97.503906 97.054688-14.5625-14.566406 296.496094-296.496094h29.386719l-157.058594 157.054687c-3.921875 3.925781-3.921875 10.285157 0 14.210938 1.964844 1.960937 4.535156 2.941406 7.105468 2.941406 2.570313 0 5.140626-.980469 7.101563-2.941406l157.058594-157.054688v29.382813zm0 0"/><path d="m304.933594 204.449219c-.539063-.363281-1.121094-.671875-1.726563-.925781-.613281-.25-1.246093-.441407-1.878906-.570313-1.304687-.261719-2.632813-.261719-3.925781 0-.644532.128906-1.277344.320313-1.878906.570313-.613282.253906-1.195313.5625-1.738282.925781-.550781.371093-1.066406.78125-1.527344 1.253906-1.867187 1.871094-2.945312 4.453125-2.945312 7.105469 0 .652344.070312 1.3125.203125 1.957031.128906.644531.320313 1.277344.570313 1.878906.253906.601563.5625 1.195313.925781 1.738281.359375.550782.785156 1.0625 1.246093 1.527344.460938.460938.972657.882813 1.527344 1.246094.542969.359375 1.125.671875 1.738282.921875.601562.253906 1.234374.441406 1.875.574219.644531.128906 1.308593.199218 1.960937.199218s1.316406-.070312 1.96875-.199218c.632813-.132813 1.265625-.320313 1.878906-.574219.601563-.25 1.1875-.5625 1.726563-.921875.554687-.363281 1.066406-.785156 1.527344-1.246094.464843-.464844.886718-.976562 1.257812-1.527344.359375-.542968.671875-1.136718.921875-1.738281.253906-.601562.445313-1.234375.574219-1.878906s.191406-1.304687.191406-1.957031c0-2.652344-1.074219-5.234375-2.945312-7.105469-.460938-.472656-.972657-.882813-1.527344-1.253906zm0 0"/></svg>