<svg height="512pt" viewBox="-13 0 512 512" width="512pt" xmlns="http://www.w3.org/2000/svg"><path d="m110.265625 29.941406v379.757813h-39.921875v-379.757813c0-11.027344 8.929688-19.960937 19.960938-19.960937 5.507812 0 10.5 2.234375 14.113281 5.847656 3.609375 3.613281 5.847656 8.605469 5.847656 14.113281zm0 0" fill="#383e4b"/><path d="m150.1875 409.699219-59.882812 92.320312-59.882813-92.320312zm0 0" fill="#ff5d5d"/><g fill="#707c96"><path d="m169.628906 150.207031c0 5.109375-1.945312 10.230469-5.828125 14.113281l-46.390625 46.386719-7.144531 7.148438v-56.449219l25.308594-25.3125c7.765625-7.765625 20.472656-7.765625 28.226562 0 3.882813 3.871094 5.828125 8.992188 5.828125 14.113281zm0 0"/><path d="m169.628906 50.402344c0 5.109375-1.945312 10.230468-5.828125 14.113281l-46.390625 46.386719-7.144531 7.148437v-56.449219l25.308594-25.3125c7.765625-7.765624 20.472656-7.765624 28.226562 0 3.882813 3.871094 5.828125 8.992188 5.828125 14.113282zm0 0"/><path d="m70.34375 62.597656v56.449219l-8.144531-8.144531-46.390625-46.386719c-3.882813-3.882813-5.828125-9.003906-5.828125-14.113281 0-5.121094 1.945312-10.242188 5.828125-14.113282 7.753906-7.765624 20.460937-7.765624 28.226562 0zm0 0"/><path d="m70.34375 162.402344v56.449218l-8.144531-8.144531-46.390625-46.386719c-3.882813-3.882812-5.828125-9.003906-5.828125-14.113281 0-5.121093 1.945312-10.242187 5.828125-14.113281 7.753906-7.765625 20.460937-7.765625 28.226562 0zm0 0"/><path d="m468.015625 190.128906h-70.34375c-21.585937-54.703125-69.484375-96.292968-128.21875-109.40625v-67.578125c95.8125 15.378907 173.183594 85.484375 198.5625 176.984375zm0 0"/><path d="m470.789062 309.894531c-22.046874 96.839844-101.71875 171.972657-201.335937 187.964844v-67.578125c62.609375-13.984375 112.890625-60.304688 132.140625-120.386719zm0 0"/></g><path d="m476.449219 269.972656c-.789063 13.644532-2.714844 26.976563-5.660157 39.921875h-69.195312c4.082031-12.746093 6.777344-26.109375 7.886719-39.921875zm0 0" fill="#fade76"/><path d="m476.878906 255.5c0 4.863281-.140625 9.691406-.429687 14.472656h-66.96875c.378906-4.769531.578125-9.601562.578125-14.472656 0-8.640625-.617188-17.136719-1.804688-25.449219h67.316406c.859376 8.363281 1.308594 16.855469 1.308594 25.449219zm0 0" fill="#ff5d5d"/><path d="m475.570312 230.050781h-67.316406c-1.988281-13.882812-5.582031-27.257812-10.582031-39.921875h70.34375c3.582031 12.914063 6.136719 26.25 7.554687 39.921875zm0 0" fill="#fade76"/><path d="m269.453125 13.144531v484.714844c-12.664063 2.035156-25.648437 3.113281-38.875 3.152344v-491.019531c13.226563.039062 26.210937 1.117187 38.875 3.152343zm0 0" fill="#383e4b"/><path d="m170.855469 71.570312c5.644531-5.644531 8.753906-13.160156 8.753906-21.167968 0-8.023438-3.109375-15.546875-8.746094-21.167969-5.636719-5.640625-13.15625-8.75-21.171875-8.75-8.011718 0-15.53125 3.105469-21.171875 8.746094l-8.273437 8.273437v-7.5625c0-7.996094-3.117188-15.511718-8.773438-21.167968-5.65625-5.660157-13.171875-8.773438-21.167968-8.773438-16.511719 0-29.941407 13.433594-29.941407 29.941406v8.5625l-9.273437-9.273437c-5.636719-5.636719-13.160156-8.746094-21.171875-8.746094-8.015625 0-15.535157 3.109375-21.15625 8.738281-5.648438 5.632813-8.761719 13.15625-8.761719 21.179688 0 8.007812 3.109375 15.527344 8.753906 21.167968l51.609375 51.613282v15.125l-9.269531-9.273438c-5.640625-5.636718-13.160156-8.746094-21.175781-8.746094s-15.53125 3.109376-21.15625 8.738282c-5.648438 5.632812-8.761719 13.15625-8.761719 21.179687 0 8.007813 3.109375 15.527344 8.753906 21.167969l51.609375 51.613281v176.730469h-29.941406c-3.65625 0-7.023437 2-8.769531 5.214844s-1.59375 7.128906.398437 10.199218l59.882813 92.316407c1.839844 2.839843 4.992187 4.550781 8.371094 4.550781 3.382812 0 6.535156-1.710938 8.375-4.550781l59.882812-92.316407c1.992188-3.070312 2.144531-6.984374.394531-10.199218-1.746093-3.214844-5.109375-5.214844-8.769531-5.214844h-29.941406v-177.730469l50.613281-50.609375c5.644531-5.644531 8.753906-13.164062 8.753906-21.171875 0-8.023437-3.113281-15.542969-8.75-21.164062-5.636719-5.644531-13.15625-8.753907-21.167969-8.753907-8.015624 0-15.535156 3.109376-21.175781 8.746094l-8.273437 8.273438v-15.125zm-28.222657-28.222656c1.871094-1.871094 4.378907-2.902344 7.058594-2.902344 2.679688 0 5.179688 1.027344 7.058594 2.910157 1.871094 1.863281 2.898438 4.367187 2.898438 7.046875 0 2.675781-1.03125 5.179687-2.90625 7.054687l-36.496094 36.496094v-28.21875zm-119.765624 14.109375c-1.875-1.875-2.90625-4.378906-2.90625-7.054687 0-2.679688 1.027343-5.183594 2.910156-7.0625 1.867187-1.867188 4.367187-2.894532 7.046875-2.894532 2.683593 0 5.1875 1.03125 7.058593 2.902344l23.386719 23.382813v28.222656zm0 99.804688c-1.875-1.875-2.90625-4.378907-2.90625-7.054688 0-2.679687 1.027343-5.183593 2.910156-7.0625 1.867187-1.867187 4.367187-2.894531 7.046875-2.894531 2.683593 0 5.1875 1.03125 7.058593 2.902344l23.386719 23.382812v28.222656zm67.4375 326.417969-41.515626-64h83.027344zm-9.980469-83.960938v-180.859375c0-.003906 0-.007813 0-.011719v-56.441406c0-.003906 0-.007812 0-.007812v-43.347657s0-.003906 0-.007812v-56.441407s0-.003906 0-.007812v-32.652344c0-5.503906 4.476562-9.980468 9.980469-9.980468 2.660156 0 5.167968 1.039062 7.054687 2.925781s2.925781 4.390625 2.925781 7.054687v31.652344.011719 56.4375.011719 43.34375.011718 56.4375.011719 181.859375zm62.308593-256.566406c1.871094-1.871094 4.378907-2.902344 7.058594-2.902344 2.679688 0 5.179688 1.027344 7.058594 2.910156 1.871094 1.863282 2.898438 4.367188 2.898438 7.046875 0 2.675781-1.03125 5.179688-2.90625 7.054688l-36.496094 36.496093v-28.21875zm0 0"/><path d="m260.742188 194.28125c.25.597656.546874 1.175781.917968 1.714844.359375.550781.777344 1.058594 1.238282 1.519531.457031.457031.964843.875 1.515624 1.246094.539063.359375 1.117188.667969 1.726563.917969.597656.25 1.226563.441406 1.867187.570312.636719.128906 1.296876.1875 1.945313.1875s1.308594-.058594 1.945313-.1875c.640624-.128906 1.269531-.320312 1.867187-.570312.609375-.25 1.1875-.558594 1.726563-.917969.546874-.371094 1.058593-.789063 1.515624-1.246094.460938-.460937.878907-.96875 1.238282-1.519531.359375-.539063.667968-1.117188.917968-1.714844.25-.609375.449219-1.238281.570313-1.867188.128906-.648437.199219-1.308593.199219-1.957031 0-2.625-1.070313-5.199219-2.925782-7.054687-.460937-.460938-.96875-.878906-1.519531-1.238282-.539062-.359374-1.117187-.667968-1.726562-.917968-.597657-.25-1.226563-.4375-1.863281-.570313-1.289063-.257812-2.605469-.257812-3.894532 0-.636718.132813-1.265625.320313-1.863281.570313-.609375.25-1.1875.558594-1.726563.917968-.550781.359376-1.058593.777344-1.519531 1.238282-1.855469 1.855468-2.921875 4.429687-2.921875 7.054687 0 .648438.058594 1.308594.1875 1.957031.132813.628907.332032 1.257813.582032 1.867188zm0 0"/><path d="m486.367188 271.105469c.042968-.375.070312-.75.070312-1.132813 0-.015625-.003906-.03125-.003906-.042968.273437-4.796876.425781-9.605469.425781-14.429688 0-8.644531-.457031-17.246094-1.328125-25.78125-.015625-.464844-.0625-.925781-.136719-1.371094-1.457031-13.511718-3.980469-26.84375-7.542969-39.871094-.125-.765624-.332031-1.503906-.621093-2.199218-10.074219-35.5625-27.847657-68.808594-52.410157-97.207032-39.566406-45.746093-94.179687-76.210937-153.785156-85.78125h-.003906c-13.28125-2.132812-26.882812-3.2382808-40.421875-3.2773432-2.613281-.0039063-5.199219 1.0390622-7.078125 2.9101562s-2.933594 4.414063-2.933594 7.070313v491.019531c0 2.652343 1.058594 5.195312 2.933594 7.066406 1.871094 1.867187 4.40625 2.914063 7.046875 2.914063h.03125c13.539063-.042969 27.136719-1.144532 40.421875-3.28125h.003906c59.605469-9.570313 114.21875-40.03125 153.785156-85.777344 27.207032-31.460938 46.09375-68.867188 55.394532-108.789063.230468-.65625.390625-1.34375.476562-2.058593 2.941406-13.101563 4.84375-26.46875 5.675782-39.980469zm-66.976563-31.074219h47.003906c.328125 5.117188.503907 10.273438.503907 15.46875 0 1.503906-.023438 3-.050782 4.492188h-46.867187c.035156-1.496094.058593-2.992188.058593-4.492188 0-5.175781-.222656-10.335938-.648437-15.46875zm44.859375-19.960938h-47.605469c-1.296875-6.742187-2.957031-13.410156-4.976562-19.960937h48.695312c1.574219 6.554687 2.875 13.210937 3.886719 19.960937zm-45.820312 59.882813h47.207031c-.691407 6.738281-1.664063 13.394531-2.914063 19.960937h-48.03125c1.597656-6.570312 2.851563-13.234374 3.738282-19.960937zm36.199218-99.804687h-50.375c-6.808594-15.59375-15.722656-30.300782-26.582031-43.621094-25.210937-30.921875-59.859375-53.304688-98.238281-63.625v-47.753906c83.710937 17.609374 149.136718 77.488281 175.195312 155zm-214.070312 310.644531v-470.582031c6.332031.28125 12.652344.8125 18.914062 1.59375v58.742187.023437 70.632813c0 5.515625 4.46875 9.980469 9.980469 9.980469s9.980469-4.464844 9.980469-9.980469v-57.53125c70.605468 21.4375 120.644531 87.582031 120.644531 161.828125 0 4.117188-.699219 14.847656-.6875 15.035156-6.21875 68.007813-54.15625 126.816406-119.957031 146.796875v-186.285156c0-5.511719-4.46875-9.980469-9.980469-9.980469-5.507813 0-9.980469 4.46875-9.980469 9.980469v199.382813.027343 58.742188c-6.261718.777343-12.582031 1.308593-18.914062 1.59375zm38.875-4.941407v-47.75c38.378906-10.320312 73.027344-32.703124 98.238281-63.625 13.378906-16.410156 23.804687-34.914062 30.96875-54.601562h49.382813c-23.375 82.800781-90.96875 147.546875-178.589844 165.976562zm0 0"/></svg>