<svg height="511pt" viewBox="0 -2 511.99756 511" width="511pt" xmlns="http://www.w3.org/2000/svg"><path d="m256.011719 224.386719-69.746094 60.789062-113.742187-86.574219-61.933594-188.082031zm0 0" fill="#97b6bf"/><path d="m365.707031 319.980469-53.324219 61.191406-56.371093-42.902344 69.75-53.09375zm0 0" fill="#97b6bf"/><path d="m492.015625 483.878906c-14.730469 16.898438-40.363281 18.660156-57.261719 3.929688l-14.789062-12.886719-30.085938-26.214844-31.605468-27.539062 53.320312-61.191407 76.484375 66.652344c16.894531 14.71875 18.660156 40.355469 3.9375 57.25zm0 0" fill="#707c96"/><path d="m438.484375 329.121094-26.890625 30.855468-53.320312 61.191407-26.890626 30.84375-45.886718-39.996094 26.886718-30.84375 53.324219-61.191406 26.878907-30.84375zm0 0" fill="#4c5b7c"/><path d="m501.425781 10.519531-61.921875 188.082031-113.742187 86.574219-69.75 53.09375-56.367188 42.902344-53.324219-61.191406 39.945313-34.804688 69.746094-60.789062zm0 0" fill="#e3f7f7"/><path d="m153.746094 421.167969-31.609375 27.539062-30.074219 26.203125-14.800781 12.898438c-16.894531 14.730468-42.53125 12.96875-57.25-3.929688-14.722657-16.894531-12.96875-42.53125 3.925781-57.25l76.484375-66.652344zm0 0" fill="#707c96"/><path d="m226.519531 412.015625-45.886719 39.996094-26.886718-30.84375-53.324219-61.191407-26.878906-30.855468 45.890625-39.984375 26.886718 30.84375 53.324219 61.191406zm0 0" fill="#4c5b7c"/><path d="m494.664062 419.070312-68.929687-60.066406 20.300781-23.296875c1.746094-2.003906 2.625-4.617187 2.441406-7.269531-.179687-2.652344-1.410156-5.121094-3.414062-6.871094l-45.890625-39.988281c-4.171875-3.636719-10.503906-3.203125-14.140625.96875l-20.296875 23.292969-23.117187-20.140625 103.957031-79.125c1.613281-1.226563 2.816406-2.914063 3.449219-4.839844l61.921874-188.082031c1.410157-4.285156-.214843-8.984375-3.976562-11.480469-3.757812-2.496094-8.722656-2.171875-12.125.792969l-238.832031 208.128906-238.835938-208.128906c-3.402343-2.964844-8.367187-3.289063-12.128906-.792969-3.757813 2.496094-5.386719 7.195313-3.976563 11.480469l61.933594 188.082031c.632813 1.925781 1.835938 3.613281 3.449219 4.839844l103.953125 79.125-23.117188 20.144531-20.300781-23.292969c-3.636719-4.171875-9.964843-4.609375-14.136719-.972656l-45.890624 39.984375c-2.003907 1.75-3.230469 4.21875-3.414063 6.871094-.179687 2.652344.699219 5.265625 2.445313 7.269531l20.300781 23.296875-68.933594 60.070312c-10.191406 8.878907-16.3125 21.195313-17.238281 34.679688-.925782 13.484375 3.453125 26.523438 12.332031 36.710938 9.992187 11.464843 24.050781 17.335937 38.183594 17.335937 11.796875 0 23.640625-4.089844 33.210937-12.429687l68.929688-60.070313 20.300781 23.296875c1.746094 2.003906 4.21875 3.234375 6.871094 3.414062.226562.019532.457031.023438.683593.023438 2.414063 0 4.757813-.871094 6.585938-2.464844l45.886719-39.996094c4.175781-3.636718 4.609375-9.964843.972656-14.136718l-19.84375-22.773438 41.777344-31.800781 41.78125 31.800781-19.847657 22.777344c-1.746093 2.003906-2.625 4.617188-2.445312 7.269531.183594 2.652344 1.410156 5.121094 3.414062 6.867188l45.890626 39.992187c1.902343 1.65625 4.246093 2.46875 6.582031 2.46875 2.792969 0 5.574219-1.164062 7.558593-3.4375l20.300782-23.296875 68.929687 60.066407c9.570313 8.34375 21.414063 12.433593 33.210938 12.433593 14.132812-.003906 28.191406-5.871093 38.183593-17.335937 18.328126-21.035156 16.128907-53.0625-4.90625-71.394532zm-90.644531 28.664063 40.152344-46.078125 14.96875 13.042969-40.152344 46.078125zm-322.953125-255.222656-49.542968-150.457031 209.238281 182.332031-54.929688 47.867187zm11.964844 268.265625-40.152344-46.074219 14.96875-13.046875 40.152344 46.078125zm-65.46875 16.519531c-5.363281-6.152344-8.007812-14.027344-7.445312-22.171875.558593-8.144531 4.253906-15.582031 10.410156-20.945312l7.242187-6.308594 40.152344 46.074218-7.242187 6.3125c-12.707032 11.070313-32.046876 9.742188-43.117188-2.960937zm95.546875-42.730469-40.152344-46.078125 16.5-14.378906 40.152344 46.078125zm58.492187 3.304688-93.917968-107.777344 30.777344-26.820312 93.921874 107.773437zm5.4375-86.410156 49.148438-41.007813c4.25-3.546875 4.824219-9.867187 1.277344-14.117187-3.546875-4.246094-9.867188-4.820313-14.113282-1.273438l-49.484374 41.285156-13.414063-15.390625 32.125-27.996093c.011719-.007813.019531-.015626.03125-.027344l287.886719-250.878906-49.539063 150.457031-111.234375 84.667969c-.023437.015624-.046875.035156-.066406.050781l-118.621094 90.289062zm85.519532-13.191407 52.777344-40.171875 26.230468 22.855469-40.578125 46.5625zm57.859375 99.601563-30.78125-26.820313 73.59375-84.453125c.011719-.011718.023437-.023437.03125-.035156.011719-.011719.023437-.027344.035156-.039062l20.261719-23.253907 30.78125 26.824219-20.296875 23.292969c-.003907 0-.003907 0-.003907.003906h-.003906zm82.148437-63.757813 16.496094 14.375-40.15625 46.078125-16.496094-14.378906zm71.890625 103.183594c-11.070312 12.703125-30.414062 14.03125-43.117187 2.960937l-7.242188-6.3125 40.15625-46.078124 7.242188 6.3125c12.703125 11.070312 14.03125 30.414062 2.960937 43.117187zm0 0"/><path d="m269.621094 274.144531c-.128906-.644531-.320313-1.273437-.570313-1.875-.25-.601562-.5625-1.183593-.921875-1.734375-.371094-.542968-.792968-1.050781-1.253906-1.523437-.460938-.460938-.972656-.871094-1.523438-1.242188-.539062-.359375-1.121093-.671875-1.722656-.921875-.613281-.25-1.242187-.441406-1.875-.570312-1.300781-.261719-2.625-.261719-3.917968 0-.640626.128906-1.273438.320312-1.875.570312-.609376.25-1.191407.5625-1.730469.921875-.554688.371094-1.0625.78125-1.523438 1.242188-.460937.472656-.882812.980469-1.246093 1.523437-.359376.550782-.667969 1.132813-.921876 1.734375-.25.601563-.4375 1.230469-.570312 1.875-.128906.648438-.199219 1.300781-.199219 1.960938 0 .652343.070313 1.3125.199219 1.957031.132812.640625.320312 1.269531.570312 1.871094.253907.601562.5625 1.195312.921876 1.734375.363281.542969.785156 1.0625 1.246093 1.523437.460938.460938.96875.882813 1.523438 1.242188.539062.363281 1.121093.671875 1.730469.921875.601562.25 1.234374.441406 1.875.574219.640624.128906 1.304687.199218 1.953124.199218.652344 0 1.3125-.070312 1.964844-.199218.632813-.132813 1.261719-.324219 1.875-.574219.601563-.25 1.183594-.558594 1.722656-.921875.550782-.359375 1.0625-.78125 1.523438-1.242188.460938-.460937.882812-.980468 1.253906-1.523437.359375-.539063.671875-1.132813.921875-1.734375.25-.601563.441407-1.230469.570313-1.871094.128906-.644531.191406-1.304688.191406-1.957031 0-.660157-.0625-1.3125-.191406-1.960938zm0 0"/></svg>