<svg height="512pt" viewBox="-46 0 512 512.00099" width="512pt" xmlns="http://www.w3.org/2000/svg"><path d="m209.863281 9.992188c-99.34375 0-179.882812 80.539062-179.882812 179.882812 0 62.371094 31.738281 117.324219 79.949219 149.585938 12.332031 8.261718 25.742187 15.027343 39.972656 20.054687 18.757812 6.636719 38.933594 10.242187 59.960937 10.242187 21.027344 0 41.203125-3.605468 59.960938-10.242187 14.230469-5.027344 27.644531-11.792969 39.976562-20.054687 48.207031-32.261719 79.945313-87.214844 79.945313-149.585938 0-99.34375-80.535156-179.882812-179.882813-179.882812zm0 299.804687c-66.226562 0-119.921875-53.695313-119.921875-119.921875s53.695313-119.921875 119.921875-119.921875c66.226563 0 119.921875 53.695313 119.921875 119.921875s-53.695312 119.921875-119.921875 119.921875zm0 0" fill="#ff5d5d"/><path d="m209.863281 69.953125c-66.226562 0-119.921875 53.695313-119.921875 119.921875s53.695313 119.921875 119.921875 119.921875c66.226563 0 119.921875-53.695313 119.921875-119.921875s-53.695312-119.921875-119.921875-119.921875zm0 179.882813c-33.117187 0-59.960937-26.839844-59.960937-59.960938 0-33.117188 26.84375-59.960938 59.960937-59.960938 33.121094 0 59.960938 26.84375 59.960938 59.960938 0 33.121094-26.839844 59.960938-59.960938 59.960938zm0 0" fill="#fff"/><path d="m269.824219 189.875c0 33.117188-26.84375 59.960938-59.960938 59.960938-33.113281 0-59.960937-26.84375-59.960937-59.960938 0-33.113281 26.847656-59.960938 59.960937-59.960938 33.117188 0 59.960938 26.847657 59.960938 59.960938zm0 0" fill="#ff5d5d"/><g fill="#707c96"><path d="m409.734375 483.855469c0 4.988281-2.039063 9.523437-5.335937 12.820312-3.289063 3.289063-7.824219 5.328125-12.824219 5.328125h-363.421875c-9.992188 0-18.160156-8.164062-18.160156-18.148437 0-4.996094 2.039062-9.535157 5.339843-12.820313 3.285157-3.300781 7.824219-5.339844 12.820313-5.339844h363.421875c9.996093 0 18.160156 8.167969 18.160156 18.160157zm0 0"/><path d="m149.902344 359.515625v106.179687h-39.972656v-126.234374c12.332031 8.261718 25.742187 15.027343 39.972656 20.054687zm0 0"/><path d="m309.800781 339.460938v126.234374h-39.976562v-106.179687c14.230469-5.027344 27.644531-11.792969 39.976562-20.054687zm0 0"/></g><path d="m209.863281 319.792969c71.636719 0 129.917969-58.28125 129.917969-129.917969 0-5.519531-4.476562-9.992188-9.996094-9.992188-5.515625 0-9.992187 4.472657-9.992187 9.992188 0 60.617188-49.3125 109.929688-109.929688 109.929688-60.613281 0-109.929687-49.3125-109.929687-109.929688 0-60.613281 49.316406-109.925781 109.929687-109.925781 31.230469 0 61.09375 13.355469 81.9375 36.640625 3.679688 4.117187 10 4.460937 14.113281.78125 4.109376-3.679688 4.460938-9.996094.78125-14.109375-24.632812-27.519531-59.925781-43.300781-96.832031-43.300781-71.636719 0-129.914062 58.28125-129.914062 129.914062 0 71.636719 58.277343 129.917969 129.914062 129.917969zm0 0"/><path d="m139.910156 189.875c0 38.574219 31.382813 69.957031 69.953125 69.957031 38.574219 0 69.957031-31.382812 69.957031-69.957031 0-38.570312-31.382812-69.953125-69.957031-69.953125-38.570312 0-69.953125 31.382813-69.953125 69.953125zm119.921875 0c0 27.554688-22.414062 49.96875-49.96875 49.96875-27.550781 0-49.964843-22.414062-49.964843-49.96875 0-27.550781 22.414062-49.964844 49.964843-49.964844 27.554688 0 49.96875 22.414063 49.96875 49.964844zm0 0"/><path d="m391.578125 455.703125h-71.785156v-111.007813c50.160156-35.640624 79.949219-93.109374 79.949219-154.820312 0-104.695312-85.179688-189.875-189.878907-189.875s-189.875 85.179688-189.875 189.875c0 61.710938 29.789063 119.183594 79.945313 154.820312v111.007813h-71.785156c-15.519532 0-28.148438 12.628906-28.148438 28.148437 0 15.523438 12.628906 28.148438 28.148438 28.148438h363.429687c15.523437 0 28.148437-12.625 28.148437-28.148438 0-15.519531-12.625-28.148437-28.148437-28.148437zm-111.757813 0v-89.277344c6.835938-2.710937 13.511719-5.808593 19.984376-9.296875v98.574219zm-119.921874 0v-82.609375c16.207031 4.417969 32.957031 6.660156 49.964843 6.660156 17.007813 0 33.757813-2.246094 49.96875-6.660156v82.609375zm-119.925782-265.828125c0-93.675781 76.214844-169.886719 169.890625-169.886719 93.679688 0 169.890625 76.210938 169.890625 169.886719 0 56.824219-28.230468 109.636719-75.519531 141.28125-.003906.003906-.007813.007812-.015625.011719-.003906 0-.007812.003906-.007812.007812-11.726563 7.855469-24.414063 14.21875-37.71875 18.917969-18.140626 6.417969-37.191407 9.671875-56.628907 9.671875-19.433593 0-38.488281-3.253906-56.632812-9.671875-13.296875-4.699219-25.980469-11.0625-37.710938-18.917969-.003906-.003906-.007812-.003906-.007812-.003906-.007813-.007813-.015625-.011719-.023438-.015625-47.285156-31.644531-75.515625-84.457031-75.515625-141.28125zm79.949219 167.253906c6.472656 3.488282 13.152344 6.585938 19.988281 9.296875v89.277344h-19.988281zm271.65625 134.882813h-363.429687c-4.5 0-8.160157-3.660157-8.160157-8.160157s3.660157-8.160156 8.160157-8.160156h363.429687c4.5 0 8.164063 3.660156 8.164063 8.160156s-3.664063 8.160157-8.164063 8.160157zm0 0"/><path d="m313.554688 152.410156c.25.601563.5625 1.179688.921874 1.71875.359376.550782.777344 1.058594 1.238282 1.519532.460937.46875.980468.878906 1.519531 1.25.550781.359374 1.128906.667968 1.730469.917968.597656.25 1.226562.441406 1.867187.570313.648438.128906 1.300781.191406 1.957031.191406.648438 0 1.300782-.0625 1.949219-.191406.640625-.128907 1.269531-.320313 1.867188-.570313.601562-.25 1.183593-.558594 1.730469-.917968.539062-.371094 1.058593-.78125 1.507812-1.25.472656-.460938.878906-.96875 1.25-1.519532.359375-.539062.671875-1.117187.917969-1.71875.25-.609375.441406-1.238281.570312-1.867187.132813-.652344.191407-1.308594.191407-1.960938 0-.648437-.0625-1.308593-.191407-1.949219-.128906-.636718-.320312-1.265624-.570312-1.867187-.246094-.597656-.558594-1.1875-.917969-1.730469-.371094-.546875-.777344-1.058594-1.25-1.515625-.449219-.460937-.96875-.882812-1.507812-1.242187-.550782-.359375-1.128907-.667969-1.730469-.917969-.597657-.25-1.226563-.441406-1.867188-.570313-1.289062-.257812-2.617187-.257812-3.90625 0-.640625.128907-1.269531.320313-1.867187.570313-.601563.25-1.179688.558594-1.730469.917969-.539063.359375-1.058594.78125-1.519531 1.242187-.460938.457031-.878906.96875-1.238282 1.515625-.359374.542969-.671874 1.132813-.921874 1.730469-.246094.601563-.4375 1.230469-.566407 1.867187-.132812.640626-.191406 1.300782-.191406 1.949219 0 .652344.0625 1.308594.191406 1.960938.128907.628906.320313 1.257812.566407 1.867187zm0 0"/></svg>