<svg height="512pt" viewBox="0 0 512 512.00097" width="512pt" xmlns="http://www.w3.org/2000/svg"><path d="m472.386719 69.035156h-432.855469c-16.296875 0-29.503906-13.210937-29.503906-29.503906 0-16.296875 13.207031-29.503906 29.503906-29.503906h432.859375c16.292969 0 29.503906 13.207031 29.503906 29.503906 0 16.292969-13.210937 29.503906-29.507812 29.503906zm0 0" fill="#fade76"/><path d="m341.882812 360.972656c-5.453124 5.453125-12.46875 8.371094-19.597656 8.761719l63.496094 63.5c-28.109375 41.484375-75.617188 68.742187-129.5 68.742187-86.335938 0-156.320312-69.988281-156.320312-156.320312 0-86.335938 69.984374-156.324219 156.320312-156.324219s156.320312 69.988281 156.320312 156.324219c0 17.351562-2.828124 34.042969-8.050781 49.632812l-53.914062-53.914062c-.382813 7.136719-3.300781 14.152344-8.753907 19.597656zm0 0" fill="#e3f7f7"/><path d="m322.285156 369.734375c.289063-.019531.589844-.039063.882813-.070313-9.835938 27.429688-36.082031 47.046876-66.886719 47.046876-39.238281 0-71.058594-31.820313-71.058594-71.054688 0-39.238281 31.820313-71.058594 71.058594-71.058594 26.152344 0 49.011719 14.132813 61.351562 35.1875" fill="#97b6bf"/><path d="m350.636719 341.375 118.84375 118.84375-28.359375 28.351562-118.835938-118.835937zm0 0" fill="#4c5b7c"/><path d="m350.636719 341.375c-.382813 7.136719-3.300781 14.152344-8.753907 19.597656-5.230468 5.234375-11.890624 8.121094-18.714843 8.691406-.292969.03125-.59375.050782-.882813.070313-8.25.460937-16.640625-2.464844-22.9375-8.761719-11.75-11.738281-11.75-30.785156 0-42.527344 5.113282-5.113281 11.609375-8 18.285156-8.660156 8.660157-.863281 17.613282 2.023438 24.25 8.660156 6.296876 6.296876 9.214844 14.6875 8.753907 22.929688zm0 0" fill="#ff5d5d"/><path d="m472.390625 79.058594c21.796875 0 39.527344-17.730469 39.527344-39.53125 0-21.796875-17.734375-39.527344-39.527344-39.527344h-432.859375c-21.796875 0-39.53125 17.730469-39.53125 39.53125 0 21.796875 17.734375 39.527344 39.53125 39.527344h54.742188l51.546874 142.335937c-34.261718 30.492188-55.886718 74.894531-55.886718 124.261719 0 91.722656 74.621094 166.34375 166.347656 166.34375 51.214844 0 99.210938-23.507812 130.667969-63.421875l47.082031 47.082031c1.957031 1.957032 4.523438 2.9375 7.089844 2.9375s5.128906-.980468 7.085937-2.933594l28.363281-28.351562c1.878907-1.878906 2.9375-4.429688 2.9375-7.089844s-1.058593-5.210937-2.9375-7.089844l-60.640624-60.640624c4.441406-15.148438 6.695312-30.871094 6.695312-46.835938 0-5.066406-.230469-10.1875-.6875-15.214844-.5-5.515625-5.382812-9.578125-10.890625-9.078125-5.511719.5-9.578125 5.375-9.078125 10.890625.402344 4.425782.605469 8.9375.605469 13.402344 0 10.269531-1.054688 20.417969-3.148438 30.335938l-38.808593-38.8125c-.613282-9.679688-4.71875-18.894532-11.644532-25.820313-7.003906-7.003906-16.199218-11.085937-25.902344-11.667969-15.054687-21.796875-40.121093-35.117187-66.792968-35.117187-44.707032 0-81.082032 36.375-81.082032 81.082031 0 44.710938 36.375 81.082031 81.082032 81.082031 28.753906 0 55.046875-15.304687 69.507812-39.324219l46.886719 46.890626c-27.632813 36.246093-70.550781 57.648437-116.394531 57.648437-80.667969 0-146.292969-65.628906-146.292969-146.296875s65.625-146.292969 146.292969-146.292969c47.429687 0 92.113281 23.148438 119.535156 61.925781 3.195312 4.519532 9.453125 5.59375 13.972656 2.398438 4.519532-3.195312 5.59375-9.453125 2.398438-13.972656-8.273438-11.703125-17.941406-22.136719-28.671875-31.171875l50.761719-139.484375zm-31.269531 395.335937-48.246094-48.246093s-.003906-.003907-.003906-.003907l-20.132813-20.136719-31.753906-31.75c.195313-.117187.382813-.25.578125-.367187.355469-.21875.710938-.445313 1.0625-.675781.253906-.164063.507812-.332032.757812-.503906.5625-.390626 1.121094-.789063 1.667969-1.207032.140625-.109375.277344-.226562.417969-.335937.460938-.367188.917969-.742188 1.367188-1.128907.164062-.144531.328124-.285156.488281-.429687.558593-.5 1.113281-1.007813 1.644531-1.542969.539062-.539062 1.058594-1.097656 1.566406-1.664062.140625-.160156.28125-.324219.421875-.484375.390625-.449219.765625-.90625 1.132813-1.367188.113281-.148437.234375-.292969.347656-.4375.457031-.597656.898438-1.203125 1.320312-1.820312.082032-.121094.160157-.25.242188-.371094.339844-.511719.664062-1.023437.980469-1.546875.058593-.097656.128906-.195312.1875-.292969l100.136719 100.136719zm-100.496094-133.582031v.027344c-.261719 4.921875-2.332031 9.550781-5.832031 13.042968-2.164063 2.167969-4.773438 3.785157-7.613281 4.769532-.121094.042968-.246094.074218-.371094.113281-.414063.136719-.828125.261719-1.253906.367187-.285157.070313-.574219.128907-.863282.1875-.261718.054688-.523437.109376-.789062.152344-.402344.066406-.808594.113282-1.214844.15625-.292969.03125-.589844.070313-.886719.089844-.042969 0-.089843.003906-.132812.007812-5.664063.300782-11.214844-1.828124-15.234375-5.847656-3.789063-3.78125-5.875-8.816406-5.875-14.171875s2.089844-10.386719 5.878906-14.171875c3.316406-3.316406 7.527344-5.3125 12.1875-5.777344.671875-.066406 1.34375-.097656 2.011719-.097656 5.296875 0 10.367187 2.082032 14.15625 5.871094 4.027343 4.027344 6.152343 9.597656 5.832031 15.28125zm-84.34375 65.875c-33.65625 0-61.035156-27.378906-61.035156-61.03125 0-33.65625 27.378906-61.035156 61.035156-61.035156 17.257812 0 33.628906 7.417968 45.085938 19.925781-3.324219 1.820313-6.398438 4.101563-9.105469 6.808594-7.578125 7.570312-11.75 17.640625-11.75 28.355469 0 10.710937 4.171875 20.78125 11.746093 28.351562 4.503907 4.5 9.972657 7.804688 15.902344 9.746094-10.972656 17.660156-30.523437 28.878906-51.878906 28.878906zm-236.230469-367.160156c0-10.738282 8.738281-19.476563 19.480469-19.476563h432.859375c10.738281 0 19.476563 8.738281 19.476563 19.480469 0 10.738281-8.738282 19.476562-19.476563 19.476562h-432.859375c-10.742188 0-19.480469-8.738281-19.480469-19.480468zm326.652344 166.566406c-26.605469-17.226562-57.945313-26.785156-90.421875-26.785156-34.792969 0-67.117188 10.742187-93.847656 29.074218l-46.835938-129.324218h277.339844zm0 0"/><path d="m410.777344 285.824219c-.363282-.550781-.785156-1.0625-1.246094-1.523438-.460938-.460937-.972656-.882812-1.523438-1.242187-.539062-.363282-1.121093-.671875-1.722656-.921875-.613281-.25-1.242187-.441407-1.886718-.574219-1.28125-.257812-2.617188-.257812-3.910157 0-.640625.132812-1.273437.324219-1.871093.574219-.613282.25-1.195313.558593-1.734376.921875-.554687.359375-1.066406.78125-1.527343 1.242187-.460938.460938-.878907.972657-1.242188 1.523438-.359375.542969-.671875 1.132812-.921875 1.734375-.25.601562-.441406 1.234375-.570312 1.875-.132813.652344-.203125 1.304687-.203125 1.957031 0 2.644531 1.074219 5.222656 2.9375 7.085937.460937.460938.972656.882813 1.527343 1.253907.539063.359375 1.121094.671875 1.734376.921875.597656.25 1.230468.441406 1.871093.570312.644531.132813 1.304688.191406 1.957031.191406.652344 0 1.3125-.058593 1.953126-.191406.644531-.128906 1.273437-.320312 1.886718-.570312.601563-.25 1.183594-.5625 1.722656-.921875.550782-.371094 1.0625-.792969 1.523438-1.253907 1.867188-1.863281 2.9375-4.441406 2.9375-7.085937 0-.652344-.070312-1.304687-.199219-1.957031-.121093-.640625-.320312-1.273438-.570312-1.875-.253907-.601563-.550781-1.191406-.921875-1.734375zm0 0"/></svg>