<svg height="512pt" viewBox="-1 0 512 512.002" width="512pt" xmlns="http://www.w3.org/2000/svg"><g fill="#97b6bf"><path d="m339.625 234.742188-19.40625 54.9375h-40.527344c-9.765625 0-9.765625-219.398438 0-219.398438l.128906-.359375zm0 0"/><path d="m499.449219 243.691406-19.410157 45.988282h-30.765624c-12.230469-44.378907-8.488282-102.0625 0-163.699219l.109374-.300781zm0 0"/><path d="m169.8125 209.769531-39.324219 79.910157h-40.585937c-9.324219 0-9.324219-279.691407 0-279.691407zm0 0"/></g><path d="m89.902344 329.636719v92.457031c-10.230469 0-20.449219 3.90625-28.25 11.707031-7.8125 7.800781-11.707032 18.03125-11.707032 28.25v-132.414062zm0 0" fill="#383e4b"/><path d="m129.859375 329.636719v132.414062c0-10.21875-3.898437-20.449219-11.707031-28.25-7.804688-7.800781-18.023438-11.707031-28.25-11.707031v-92.457031zm0 0" fill="#707c96"/><path d="m129.859375 462.050781c0 10.226563-3.898437 20.457031-11.707031 28.257813-15.605469 15.601562-40.894532 15.601562-56.5 0-7.8125-7.800782-11.707032-18.03125-11.707032-28.257813 0-10.21875 3.894532-20.449219 11.707032-28.25 7.800781-7.800781 18.019531-11.707031 28.25-11.707031 10.226562 0 20.445312 3.90625 28.25 11.707031 7.808594 7.800781 11.707031 18.03125 11.707031 28.25zm0 0" fill="#77e5ab"/><path d="m89.902344 9.988281v279.691407h-39.957032l-39.953124-79.910157zm0 0" fill="#e3f7f7"/><path d="m149.84375 309.648438c0 5.503906-2.253906 10.488281-5.890625 14.113281-3.578125 3.566406-8.472656 5.792969-13.875 5.863281-.070313.011719-.152344.011719-.21875.011719h-79.914063c-.070312 0-.140624 0-.210937-.011719-10.894531-.140625-19.765625-9.078125-19.765625-19.976562 0-5.503907 2.257812-10.5 5.894531-14.113282 3.496094-3.488281 8.25-5.695312 13.511719-5.855468h81.113281c10.707031.359374 19.355469 9.199218 19.355469 19.96875zm0 0" fill="#77e5ab"/><path d="m279.691406 329.636719v92.457031c-10.226562 0-20.457031 3.90625-28.257812 11.707031-7.800782 7.800781-11.699219 18.03125-11.699219 28.25v-132.414062zm0 0" fill="#383e4b"/><path d="m319.648438 329.636719v132.414062c0-10.21875-3.90625-20.449219-11.707032-28.25-7.800781-7.800781-18.03125-11.707031-28.25-11.707031v-92.457031zm0 0" fill="#707c96"/><path d="m319.648438 462.050781c0 10.226563-3.90625 20.457031-11.707032 28.257813-15.601562 15.601562-40.90625 15.601562-56.507812 0-7.800782-7.800782-11.699219-18.03125-11.699219-28.257813 0-10.21875 3.898437-20.449219 11.699219-28.25 7.800781-7.800781 18.03125-11.707031 28.257812-11.707031 10.21875 0 20.449219 3.90625 28.25 11.707031 7.800782 7.800781 11.707032 18.03125 11.707032 28.25zm0 0" fill="#ffc954"/><path d="m339.625 309.648438c0 5.503906-2.246094 10.488281-5.882812 14.113281-3.574219 3.566406-8.46875 5.792969-13.875 5.863281-.070313.011719-.148438.011719-.21875.011719h-79.914063c-.066406 0-.148437 0-.21875-.011719-10.886719-.140625-19.757813-9.078125-19.757813-19.976562 0-5.503907 2.25-10.5 5.882813-14.113282 3.496094-3.488281 8.253906-5.695312 13.527344-5.855468h81.050781c10.738281.328124 19.40625 9.179687 19.40625 19.96875zm0 0" fill="#ffc954"/><path d="m279.691406 70.28125v219.398438h-40.523437l-19.160157-54.9375zm0 0" fill="#e3f7f7"/><path d="m499.449219 309.648438c0 5.503906-2.246094 10.488281-5.882813 14.113281-1.230468 1.21875-2.617187 2.296875-4.125 3.167969-2.878906 1.675781-6.203125 2.644531-9.75 2.695312-.089844.011719-.191406.011719-.28125.011719h-60.0625c-.078125 0-.179687 0-.269531-.011719-3.507813-.039062-6.792969-1-9.648437-2.636719-6.035157-3.445312-10.121094-9.949219-10.121094-17.339843 0-5.503907 2.257812-10.5 5.894531-14.113282 1.230469-1.21875 2.605469-2.289062 4.117187-3.160156 2.785157-1.625 5.980469-2.59375 9.398438-2.695312h61.320312c3.367188.101562 6.535157 1.039062 9.292969 2.628906 6.03125 3.445312 10.117188 9.9375 10.117188 17.339844zm0 0" fill="#ff5d5d"/><path d="m449.273438 125.980469v163.699219h-29.734376l-20.230468-45.988282zm0 0" fill="#e3f7f7"/><path d="m449.484375 329.636719v163.71875l-.101563.277343-50.074218-118.007812 20.039062-45.988281zm0 0" fill="#e3f7f7"/><path d="m499.449219 375.625-49.964844 117.730469v-163.71875h29.925781zm0 0" fill="#97b6bf"/><path d="m333.183594 282.976562 15.859375-44.910156c.773437-2.179687.761719-4.558594-.027344-6.730468l-59.808594-164.820313c-1.433593-3.949219-5.1875-6.582031-9.390625-6.582031-.023437 0-.046875.003906-.070312.003906-.015625 0-.035156-.003906-.054688-.003906-.140625 0-.277344.015625-.417968.023437-.09375.003907-.1875.003907-.277344.011719-4.539063.316406-8.238282 3.648438-9.101563 8.011719l-59.277343 163.351562c-.78125 2.160157-.796876 4.527344-.039063 6.695313l15.652344 44.894531c-2.789063 1.417969-5.367188 3.269531-7.628907 5.53125-5.699218 5.664063-8.835937 13.191406-8.835937 21.195313 0 12.941406 8.363281 24.070312 19.976563 28.222656v124.183594c0 13.339843 5.195312 25.882812 14.628906 35.316406s21.976562 14.628906 35.316406 14.628906 25.882812-5.195312 35.316406-14.628906 14.628906-21.976563 14.628906-35.316406c0-1.546876 0-124.167969 0-124.167969 4.144532-1.472657 7.953126-3.855469 11.160157-7.054688 5.691406-5.675781 8.828125-13.199219 8.828125-21.183593 0-11.5-6.71875-21.664063-16.4375-26.671876zm-63.480469-155.898437v32.746094c0 5.515625 4.472656 9.988281 9.988281 9.988281s9.988282-4.472656 9.988282-9.988281v-33.4375l39.335937 108.398437-15.859375 44.90625h-23.476562v-39.957031c0-5.515625-4.472657-9.988281-9.988282-9.988281s-9.988281 4.472656-9.988281 9.988281v39.957031h-23.445313l-15.648437-44.882812zm39.949219 212.546875v82.472656c-5.933594-4.46875-12.730469-7.527344-19.976563-8.988281v-73.484375zm-39.953125 73.484375c-7.246094 1.460937-14.042969 4.519531-19.980469 8.988281v-82.472656h19.980469zm31.175781 70.136719c-5.65625 5.660156-13.183594 8.777344-21.1875 8.777344s-15.53125-3.117188-21.191406-8.777344-8.777344-13.1875-8.777344-21.191406c0-8.003907 3.117188-15.53125 8.777344-21.1875 5.660156-5.664063 13.1875-8.777344 21.191406-8.777344s15.53125 3.113281 21.1875 8.777344c5.664062 5.65625 8.777344 13.183593 8.777344 21.1875 0 8.003906-3.113282 15.53125-8.777344 21.191406zm25.8125-166.558594c-1.875 1.871094-4.339844 2.917969-6.949219 2.949219-.105469 0-.210937.003906-.3125.011719h-79.464843c-.105469-.007813-.210938-.011719-.316407-.011719-5.460937-.066407-9.902343-4.550781-9.902343-9.988281 0-2.644532 1.046874-5.140626 2.957031-7.042969 1.796875-1.789063 4.148437-2.832031 6.640625-2.9375h80.703125c5.304687.226562 9.597656 4.679687 9.597656 9.980469 0 2.640624-1.046875 5.140624-2.953125 7.039062zm0 0"/><path d="m508.605469 371.636719-15.414063-35.382813c.414063-.21875.832032-.433594 1.238282-.671875 2.21875-1.277343 4.296874-2.871093 6.191406-4.746093 5.683594-5.671876 8.816406-13.195313 8.816406-21.1875 0-10.707032-5.804688-20.675782-15.121094-25.996094-.238281-.136719-.484375-.257813-.726562-.390625l15.0625-35.6875c1.050781-2.488281 1.046875-5.296875-.007813-7.785157l-50.0625-118.007812c-1.570312-3.699219-5.167969-6.09375-9.195312-6.082031-.039063 0-.074219-.007813-.113281-.007813-.023438 0-.046876.003906-.070313.003906-.019531 0-.042969 0-.0625 0-.105469.003907-.210937.015626-.316406.019532-4.433594.199218-8.109375 3.28125-9.199219 7.425781l-49.507812 116.644531c-1.078126 2.535156-1.058594 5.40625.050781 7.925782l15.515625 35.277343c-.457032.234375-.910156.476563-1.351563.734375-2.226562 1.285156-4.300781 2.871094-6.171875 4.726563-5.699218 5.667969-8.839844 13.199219-8.839844 21.199219 0 10.707031 5.808594 20.675781 15.136719 26.003906.367188.210937.742188.398437 1.113281.59375l-15.417968 35.386718c-1.09375 2.515626-1.109375 5.367188-.039063 7.894532l50.078125 118.007812c1.292969 3.050782 3.996094 5.1875 7.144532 5.847656.066406.015626.128906.03125.195312.042969.238281.046875.476562.082031.71875.113281.300781.035157.605469.054688.914062.066407.074219 0 .144532.015625.21875.015625h.078126.023437.039063c.046874-.003906.09375 0 .140624-.003906.109376-.003907.214844-.015626.324219-.023438 4.402344-.21875 8.042969-3.277344 9.136719-7.390625l49.519531-116.679687c1.070313-2.519532 1.058594-5.375-.039062-7.886719zm-89.085938-51.988281c-.109375-.007813-.21875-.011719-.328125-.011719-1.691406-.019531-3.304687-.460938-4.808594-1.324219-3.136718-1.789062-5.082031-5.109375-5.082031-8.664062 0-2.644532 1.046875-5.140626 2.941407-7.027344.640624-.632813 1.332031-1.167969 2.113281-1.617188 1.402343-.820312 2.929687-1.269531 4.535156-1.335937h.765625.042969 60.171875c1.59375.066406 3.097656.503906 4.503906 1.3125 3.136719 1.789062 5.085938 5.113281 5.085938 8.667969 0 2.644531-1.046876 5.144531-2.925782 7.019531-.652344.644531-1.351562 1.183593-2.125 1.632812-1.480468.863281-3.117187 1.3125-4.859375 1.335938-.101562.003906-.203125.003906-.300781.011719zm19.765625-144.570313v24.699219c0 5.519531 4.472656 9.992187 9.988282 9.992187 5.515624 0 9.988281-4.472656 9.988281-9.992187v-25.234375l29.339843 69.15625-15.1875 35.992187h-14.152343v-9.988281c0-5.515625-4.472657-9.988281-9.988281-9.988281-5.515626 0-9.988282 4.472656-9.988282 9.988281v9.988281h-13.230468l-15.863282-36.070312zm-13.394531 164.546875h13.605469v105.132812l-29.3125-69.082031zm33.582031 104.625v-104.625h13.394532l15.710937 36.050781zm0 0"/><path d="m99.203125 196.332031c-.25-.609375-.5625-1.1875-.921875-1.726562-.367188-.550781-.777344-1.058594-1.238281-1.519531-.46875-.457032-.976563-.878907-1.515625-1.238282-.550782-.359375-1.128906-.667968-1.730469-.917968-.597656-.25-1.226563-.449219-1.867187-.570313-1.289063-.257813-2.617188-.257813-3.90625 0-.640626.121094-1.269532.320313-1.867188.570313s-1.1875.558593-1.726562.917968c-.539063.359375-1.058594.78125-1.519532 1.238282-.460937.460937-.878906.96875-1.238281 1.519531-.359375.539062-.667969 1.117187-.917969 1.726562-.25.601563-.441406 1.230469-.570312 1.867188-.128906.640625-.1875 1.300781-.1875 1.949219 0 .648437.058594 1.308593.1875 1.957031.128906.628906.320312 1.257812.570312 1.867187.25.601563.558594 1.179688.917969 1.71875.359375.550782.777344 1.058594 1.238281 1.519532.460938.460937.976563.878906 1.519532 1.25.539062.347656 1.128906.65625 1.726562.90625.601562.25 1.226562.449218 1.867188.570312.648437.128906 1.300781.199219 1.960937.199219.648437 0 1.296875-.070313 1.945313-.199219.640624-.121094 1.269531-.320312 1.867187-.570312.601563-.25 1.179687-.558594 1.730469-.90625.539062-.371094 1.046875-.789063 1.515625-1.25.460937-.460938.871093-.96875 1.238281-1.519532.359375-.539062.671875-1.117187.921875-1.71875.25-.609375.4375-1.238281.566406-1.867187.132813-.648438.203125-1.308594.203125-1.957031 0-.648438-.070312-1.308594-.203125-1.949219-.128906-.636719-.316406-1.269531-.566406-1.867188zm0 0"/><path d="m270.503906 203.972656c.25.601563.558594 1.179688.917969 1.71875.367187.550782.777344 1.058594 1.246094 1.519532.460937.460937.972656.878906 1.519531 1.25.542969.347656 1.121094.65625 1.71875.90625.609375.25 1.230469.449218 1.867188.570312.648437.128906 1.308593.199219 1.960937.199219.648437 0 1.308594-.070313 1.945313-.199219.640624-.121094 1.269531-.320312 1.867187-.570312.609375-.25 1.191406-.558594 1.730469-.90625.546875-.371094 1.058594-.789063 1.515625-1.25.460937-.460938.882812-.96875 1.238281-1.519532.359375-.539062.671875-1.117187.921875-1.71875.25-.609375.4375-1.238281.566406-1.867187.132813-.648438.203125-1.308594.203125-1.957031 0-.648438-.070312-1.308594-.203125-1.949219-.128906-.636719-.316406-1.269531-.566406-1.867188-.25-.609375-.5625-1.1875-.921875-1.726562-.355469-.550781-.777344-1.058594-1.238281-1.519531-.457031-.457032-.96875-.878907-1.515625-1.238282-.539063-.359375-1.128906-.667968-1.730469-.917968-.597656-.25-1.226563-.449219-1.867187-.570313-1.289063-.257813-2.617188-.257813-3.90625 0-.636719.121094-1.257813.320313-1.867188.570313-.597656.25-1.175781.558593-1.71875.917968-.546875.359375-1.058594.78125-1.519531 1.238282-.46875.460937-.878907.96875-1.246094 1.519531-.359375.539062-.667969 1.117187-.917969 1.726562-.25.601563-.441406 1.230469-.570312 1.867188-.128906.640625-.191406 1.300781-.191406 1.949219 0 .648437.0625 1.308593.191406 1.957031.128906.628906.320312 1.257812.570312 1.867187zm0 0"/><path d="m440.292969 239.933594c.25.601562.5625 1.179687.921875 1.71875.367187.550781.789062 1.058594 1.246094 1.519531.460937.457031.96875.878906 1.519531 1.246094.539062.363281 1.117187.671875 1.71875.921875.609375.25 1.238281.4375 1.867187.566406.648438.132812 1.308594.191406 1.957032.191406 2.628906 0 5.207031-1.070312 7.0625-2.925781.460937-.460937.878906-.96875 1.238281-1.519531.359375-.539063.671875-1.121094.921875-1.71875.246094-.609375.4375-1.238282.566406-1.878906.132812-.640626.199219-1.296876.199219-1.945313 0-.652344-.066407-1.3125-.199219-1.949219-.128906-.640625-.320312-1.269531-.566406-1.867187-.25-.609375-.5625-1.1875-.921875-1.730469-.359375-.546875-.777344-1.058594-1.238281-1.515625-2.316407-2.320313-5.773438-3.386719-9.019532-2.726563-.628906.128907-1.257812.316407-1.867187.566407-.601563.25-1.179688.5625-1.71875.921875-.550781.359375-1.058594.777344-1.519531 1.238281-1.855469 1.855469-2.925782 4.433594-2.925782 7.0625 0 .648437.058594 1.308594.1875 1.945313.132813.640624.320313 1.269531.570313 1.878906zm0 0"/><path d="m99.175781 6.277344c-1.515625-3.792969-5.1875-6.277344-9.273437-6.277344-4.085938 0-7.757813 2.484375-9.273438 6.277344l-79.914062 199.78125c-1.058594 2.648437-.933594 5.625.339844 8.175781l34.558593 69.121094c-2.46875 1.351562-4.757812 3.0625-6.800781 5.097656-5.695312 5.667969-8.832031 13.195313-8.832031 21.195313 0 12.941406 8.363281 24.070312 19.976562 28.222656v124.1875c0 13.339844 5.195313 25.882812 14.628907 35.316406 9.433593 9.429688 21.976562 14.628906 35.316406 14.628906s25.882812-5.195312 35.316406-14.628906 14.628906-21.976562 14.628906-35.316406c0-1.550782 0-124.167969 0-124.167969 4.144532-1.472656 7.953125-3.855469 11.160156-7.054687 5.691407-5.675782 8.828126-13.199219 8.828126-21.1875 0-11.019532-6.167969-20.8125-15.238282-26.015626l34.179688-69.453124c1.25-2.539063 1.363281-5.492188.3125-8.121094zm20.691407 333.347656v82.472656c-5.933594-4.46875-12.730469-7.527344-19.976563-8.988281v-73.484375zm-39.953126 73.484375c-7.246093 1.460937-14.042968 4.519531-19.980468 8.988281v-82.472656h19.980468zm31.175782 70.136719c-5.65625 5.660156-13.183594 8.777344-21.1875 8.777344s-15.53125-3.117188-21.191406-8.777344c-5.660157-5.660156-8.777344-13.1875-8.777344-21.191406 0-8.003907 3.117187-15.53125 8.777344-21.1875 5.660156-5.664063 13.1875-8.777344 21.191406-8.777344s15.53125 3.113281 21.1875 8.777344c5.664062 5.65625 8.777344 13.183593 8.777344 21.1875 0 8.003906-3.113282 15.53125-8.777344 21.191406zm25.8125-166.558594c-1.875 1.871094-4.339844 2.917969-6.949219 2.949219-.105469 0-.210937.003906-.3125.011719h-79.464844c-.105469-.007813-.210937-.011719-.316406-.011719-5.460937-.066407-9.902344-4.550781-9.902344-9.988281 0-2.644532 1.046875-5.140626 2.957031-7.042969 1.796876-1.789063 4.148438-2.832031 6.640626-2.9375h80.703124c5.304688.226562 9.597657 4.679687 9.597657 9.980469 0 2.640624-1.046875 5.140624-2.953125 7.039062zm-12.628906-36.996094h-24.382813v-39.957031c0-5.515625-4.472656-9.988281-9.988281-9.988281s-9.988282 4.472656-9.988282 9.988281v39.957031h-23.792968l-35.191406-70.378906 58.984374-147.453125v97.964844c0 5.515625 4.472657 9.988281 9.988282 9.988281s9.988281-4.472656 9.988281-9.988281v-97.964844l58.996094 147.488281zm0 0"/></svg>