<svg height="511pt" viewBox="-7 1 511 511.99894" width="511pt" xmlns="http://www.w3.org/2000/svg"><path d="m303.160156 451.859375c-66.949218 66.945313-175.488281 66.945313-242.433594 0-66.945312-66.949219-66.945312-175.488281 0-242.433594 55.722657-55.722656 140.261719-65.066406 205.636719-28.019531l33.679688-33.679688 64.816406 64.8125-33.679687 33.679688c37.042968 65.375 27.703124 149.917969-28.019532 205.640625zm0 0" fill="#4c5b7c"/><path d="m360.269531 180.652344-13.65625 13.65625-28.242187-28.242188 13.660156-13.664062c14.449219-14.445313 22.5625-34.042969 22.5625-54.476563-.003906-11.035156 8.941406-19.976562 19.972656-19.976562s19.976563 8.941406 19.976563 19.972656c-.003907 31.03125-12.332031 60.789063-34.273438 82.730469zm0 0" fill="#97b6bf"/><path d="m175.019531 448.890625c-60.832031 0-110.324219-49.492187-110.324219-110.324219 0-5.53125-4.484374-10.019531-10.019531-10.019531-5.53125 0-10.015625 4.488281-10.015625 10.019531 0 71.882813 58.476563 130.359375 130.359375 130.359375 5.53125 0 10.015625-4.484375 10.015625-10.015625 0-5.535156-4.484375-10.019531-10.015625-10.019531zm0 0"/><path d="m487.5625 63.929688h-47.902344c-5.535156 0-10.019531 4.488281-10.019531 10.019531s4.484375 10.015625 10.019531 10.015625h47.902344c5.535156 0 10.019531-4.484375 10.019531-10.015625s-4.484375-10.019531-10.019531-10.019531zm0 0"/><path d="m433.652344 50.074219c2.523437 0 5.046875-.945313 6.992187-2.847657l30.808594-30.035156c3.960937-3.859375 4.042969-10.203125.179687-14.164062-3.863281-3.964844-10.207031-4.042969-14.167968-.183594l-30.804688 30.039062c-3.964844 3.859376-4.042968 10.203126-.179687 14.164063 1.960937 2.015625 4.566406 3.027344 7.171875 3.027344zm0 0"/><path d="m440.734375 100.007812c-3.910156-3.910156-10.253906-3.910156-14.164063 0-3.914062 3.910157-3.914062 10.253907 0 14.167969l30.765626 30.769531c1.957031 1.953126 4.519531 2.933594 7.085937 2.933594 2.5625 0 5.125-.980468 7.082031-2.933594 3.914063-3.914062 3.914063-10.257812 0-14.167968zm0 0"/><path d="m268.1875 83.964844h47.90625c5.53125 0 10.019531-4.484375 10.019531-10.015625s-4.488281-10.019531-10.019531-10.019531h-47.90625c-5.53125 0-10.015625 4.488281-10.015625 10.019531s4.484375 10.015625 10.015625 10.015625zm0 0"/><path d="m315.105469 47.226562c1.949219 1.902344 4.472656 2.847657 6.996093 2.847657 2.605469 0 5.207032-1.011719 7.171876-3.027344 3.863281-3.960937 3.78125-10.304687-.179688-14.167969l-30.804688-30.035156c-3.964843-3.859375-10.304687-3.78125-14.167968.183594-3.863282 3.960937-3.78125 10.300781.179687 14.164062zm0 0"/><path d="m49.570312 302.28125c.25.609375.558594 1.191406.921876 1.734375.359374.550781.78125 1.058594 1.242187 1.519531.460937.464844.96875.882813 1.519531 1.242188.542969.363281 1.125.671875 1.734375.921875.601563.253906 1.230469.453125 1.875.574219.640625.128906 1.300781.199218 1.953125.199218.648438 0 1.3125-.070312 1.960938-.199218.632812-.121094 1.265625-.320313 1.875-.574219.601562-.25 1.183594-.558594 1.722656-.921875.550781-.359375 1.0625-.777344 1.523438-1.242188 1.875-1.859375 2.933593-4.445312 2.933593-7.082031 0-.648437-.058593-1.3125-.1875-1.953125-.132812-.640625-.320312-1.269531-.574219-1.882812-.25-.601563-.558593-1.179688-.917968-1.722657-.371094-.550781-.792969-1.0625-1.253906-1.523437-.460938-.460938-.972657-.882813-1.523438-1.242188-.539062-.371094-1.121094-.671875-1.722656-.921875-.609375-.25-1.242188-.449219-1.875-.582031-1.289063-.257812-2.625-.257812-3.914063 0-.644531.132812-1.273437.332031-1.875.582031-.609375.25-1.191406.550781-1.734375.921875-.550781.359375-1.058594.78125-1.519531 1.242188-.460937.460937-.882813.972656-1.242187 1.523437-.363282.542969-.671876 1.121094-.921876 1.722657-.253906.613281-.441406 1.242187-.574218 1.882812-.128906.644531-.199219 1.304688-.199219 1.953125 0 .652344.070313 1.3125.199219 1.957031.128906.636719.320312 1.269532.574218 1.871094zm0 0"/><path d="m404.558594 97.925781c0-8.011719-3.117188-15.542969-8.78125-21.210937-5.667969-5.664063-13.199219-8.785156-21.210938-8.785156-8.011718 0-15.542968 3.121093-21.210937 8.785156-5.664063 5.667968-8.78125 13.199218-8.78125 21.210937.003906 17.902344-6.96875 34.734375-19.628907 47.394531l-6.570312 6.570313-11.25-11.25c-1.878906-1.875-4.425781-2.933594-7.082031-2.933594s-5.207031 1.058594-7.085938 2.933594l-28.40625 28.410156c-69.53125-35.582031-155.230469-22.390625-210.90625 33.289063-34.273437 34.269531-53.144531 79.835937-53.144531 128.300781s18.871094 94.03125 53.144531 128.300781c35.371094 35.371094 81.835938 53.058594 128.296875 53.058594 46.464844 0 92.929688-17.6875 128.300782-53.058594 55.679687-55.679687 68.871093-141.378906 33.292968-210.910156l28.40625-28.40625c3.910156-3.914062 3.910156-10.253906 0-14.167969l-11.15625-11.15625 6.566406-6.5625c23.992188-23.988281 37.203126-55.886719 37.207032-89.8125zm-80.464844 141.210938c-3.183594 3.183593-3.851562 8.105469-1.628906 12.023437 35.609375 62.847656 24.757812 142.464844-26.390625 193.613282-62.929688 62.933593-165.332031 62.933593-228.261719 0-30.488281-30.484376-47.277344-71.019532-47.277344-114.132813s16.789063-83.644531 47.277344-114.132813c31.019531-31.019531 72.511719-47.21875 114.386719-47.21875 27.164062 0 54.496093 6.820313 79.226562 20.832032 3.917969 2.21875 8.835938 1.550781 12.019531-1.632813l26.597657-26.59375 11.117187 11.117188c.042969.042969.078125.09375.125.136719.042969.046874.09375.082031.136719.125l27.988281 27.988281c.039063.042969.074219.089843.117188.132812.042968.039063.089844.074219.128906.117188l11.03125 11.027343zm8.449219-73.078125 6.574219-6.570313c16.441406-16.445312 25.496093-38.308593 25.492187-61.5625 0-2.660156 1.035156-5.160156 2.917969-7.042969 1.878906-1.878906 4.378906-2.914062 7.039062-2.914062s5.160156 1.035156 7.039063 2.914062c1.882812 1.882813 2.917969 4.382813 2.917969 7.039063-.003907 28.578125-11.132813 55.445313-31.339844 75.648437l-6.5625 6.566407zm0 0"/></svg>