<svg height="512pt" viewBox="-24 0 511 512" width="512pt" xmlns="http://www.w3.org/2000/svg"><path d="m421.03125 164.921875-89.03125-14.980469h-59.5v-59.941406h90.078125zm0 0" fill="#97b6bf"/><path d="m272.5 39.769531v320.460938c0 8.847656-3.871094 16.800781-10 22.257812-5.261719 4.671875-12.179688 7.511719-19.769531 7.511719-7.808594 0-14.921875-3.011719-20.230469-7.941406-.28125-.25-.550781-.507813-.820312-.777344-5.390626-5.390625-8.71875-12.832031-8.71875-21.050781v-320.460938c0-3.417969.578124-6.710937 1.648437-9.769531 4.03125-11.640625 15.101563-20 28.121094-20 8.21875 0 15.660156 3.328125 21.050781 8.71875 3.148438 3.152344 5.589844 6.992188 7.070312 11.28125 1.070313 3.058594 1.648438 6.351562 1.648438 9.769531zm0 0" fill="#383e4b"/><path d="m212.960938 90v59.941406h-59.8125l-89.027344 14.980469 58.449218-74.921875zm0 0" fill="#97b6bf"/><path d="m214.609375 30c-1.070313 3.058594-1.648437 6.351562-1.648437 9.769531v50.230469h-100.3125l-80.148438 17.328125 48.351562-61.96875c7.558594-9.6875 19.167969-15.359375 31.46875-15.359375zm0 0" fill="#e3f7f7"/><path d="m452.648438 107.328125-80.148438-17.328125h-100v-50.230469c0-3.417969-.578125-6.710937-1.648438-9.769531h101.617188c12.53125 0 24.351562 5.769531 32.0625 15.648438zm0 0" fill="#e3f7f7"/><path d="m262.5 382.488281v38.761719c0 44.601562-36.148438 80.75-80.75 80.75h-4.25c-36.449219 0-66-29.550781-66-66v-134.878906c0-16.679688-13.128906-30.742188-29.800781-31.109375-8.699219-.203125-16.589844 3.257812-22.257813 8.929687-5.519531 5.519532-8.941406 13.136719-8.941406 21.558594v181.5c0 11.050781-8.949219 20-20 20-5.519531 0-10.519531-2.238281-14.140625-5.859375s-5.859375-8.621094-5.859375-14.140625v-180.449219c0-39.011719 31.238281-71.410156 70.238281-71.550781 19.582031-.070312 37.300781 7.828125 50.113281 20.648438 12.757813 12.75 20.648438 30.382812 20.648438 49.851562v130c0 17.128906 13.660156 31.058594 30.691406 31.488281-.3125.011719-.621094.011719-.941406.011719h1.75c-.230469 0-.460938 0-.691406-.011719 22.292968-.566406 40.191406-18.816406 40.191406-41.238281v-38.691406c5.308594 4.929687 12.421875 7.941406 20.230469 7.941406 7.589843 0 14.507812-2.839844 19.769531-7.511719zm0 0" fill="#bf8b3f"/><path d="m460.535156 101.183594-48.121094-61.6875c-9.667968-12.390625-24.226562-19.496094-39.941406-19.496094-5.523437 0-10 4.476562-10 10s4.476563 10 10 10c9.511719 0 18.320313 4.300781 24.171875 11.800781l31.148438 39.925781-53.179688-11.5c-.695312-.148437-1.402343-.226562-2.113281-.226562h-90v-40h9.5c5.523438 0 10-4.476562 10-10s-4.476562-10-10-10h-14.785156c-6.871094-11.9375-19.75-20-34.484375-20s-27.617188 8.0625-34.484375 20h-95.929688c-15.484375 0-29.828125 7.003906-39.351562 19.210938l-48.351563 61.972656c-2.589843 3.316406-2.820312 7.902344-.585937 11.46875 1.855468 2.953125 5.078125 4.683594 8.46875 4.683594.703125 0 1.410156-.074219 2.117187-.226563l65.113281-14.082031-43.488281 55.742187c-2.535156 3.25-2.816406 7.726563-.703125 11.269531 1.820313 3.058594 5.105469 4.882813 8.585938 4.882813.550781 0 1.105468-.046875 1.664062-.140625l88.203125-14.847656h48.972657v200.296875c0 9.839843 3.597656 18.847656 9.539062 25.796875v34.722656c0 16.910156-13.503906 30.726562-30.292969 31.234375-11.488281-.417969-20.707031-9.894531-20.707031-21.484375v-130c0-21.515625-8.375-41.730469-23.578125-56.917969-15.191406-15.207031-35.410156-23.582031-56.921875-23.582031-44.386719 0-80.5 36.113281-80.5 80.5v201.5c0 5.523438 4.476562 10 10 10h40c5.523438 0 10-4.476562 10-10v-201.5c0-5.46875 2.136719-10.613281 6.011719-14.488281s9.019531-6.011719 14.488281-6.011719c11.304688 0 20.5 9.195312 20.5 20.5v135.5c0 41.90625 34.09375 76 76 76h4.25c50.039062 0 90.75-40.710938 90.75-90.75v-34.691406c6.214844-7.019532 10-16.238282 10-26.328125v-200.292969h48.664062l88.203126 14.84375c.558593.09375 1.109374.140625 1.660156.140625 3.484375 0 6.765625-1.820313 8.589844-4.882813 2.109374-3.542968 1.832031-8.019531-.707032-11.269531l-43.484375-55.742187 65.113281 14.082031c.703126.152344 1.414063.226563 2.113282.226563 3.390625 0 6.613281-1.730469 8.46875-4.683594 2.238281-3.566406 2.003906-8.152344-.585938-11.46875zm-217.804687-81.183594c10.902343 0 19.769531 8.867188 19.769531 19.769531v49.417969c-.023438.269531-.039062.539062-.039062.8125s.015624.542969.039062.8125v58.308594c-.023438.269531-.039062.539062-.039062.8125 0 .277344.015624.542968.039062.8125v209.484375c0 10.902343-8.867188 19.769531-19.769531 19.769531-10.902344 0-19.769531-8.867188-19.769531-19.769531v-20.230469h18.539062c5.519531 0 10-4.476562 10-10s-4.480469-10-10-10h-18.539062v-20h18.539062c5.519531 0 10-4.476562 10-10s-4.480469-10-10-10h-18.539062v-20h18.539062c5.519531 0 10-4.476562 10-10s-4.480469-10-10-10h-18.539062v-200.230469c0-10.902343 8.867187-19.769531 19.769531-19.769531zm-154 31.511719c5.710937-7.316407 14.304687-11.511719 23.585937-11.511719h90.644532v40h-90.308594c-.710938 0-1.417969.074219-2.113282.226562l-53.179687 11.5zm64.421875 88.425781c-.558594 0-1.113282.046875-1.660156.136719l-63.660157 10.714843 39.625-50.789062h75.503907v39.9375zm28.597656 352.0625h-4.25c-30.878906 0-56-25.121094-56-56v-135.5c0-22.332031-18.167969-40.5-40.5-40.5-10.808594 0-20.980469 4.214844-28.628906 11.867188-7.65625 7.652343-11.871094 17.824218-11.871094 28.632812v191.5h-20v-191.5c0-33.359375 27.140625-60.5 60.5-60.5 16.167969 0 31.359375 6.292969 42.78125 17.726562 11.425781 11.414063 17.71875 26.605469 17.71875 42.773438v130c0 21.730469 16.785156 39.609375 38.070312 41.359375.546876.09375 1.105469.140625 1.679688.140625h1.75c.46875 0 .929688-.03125 1.382812-.09375 26.804688-1.625 48.117188-23.945312 48.117188-51.15625v-22.089844c3.265625.871094 6.695312 1.339844 10.230469 1.339844 3.371093 0 6.640625-.425781 9.769531-1.21875v22.46875c0 39.011719-31.738281 70.75-70.75 70.75zm151.910156-351.925781c-.550781-.09375-1.105468-.140625-1.660156-.140625h-49.5v-39.933594h75.195312l39.625 50.789062zm0 0"/><path d="m326.390625 38.449219c.546875.359375 1.128906.671875 1.726563.921875.601562.25 1.230468.4375 1.871093.566406.648438.132812 1.300781.203125 1.960938.203125.648437 0 1.300781-.070313 1.949219-.203125.640624-.128906 1.269531-.316406 1.871093-.566406.597657-.25 1.179688-.5625 1.726563-.921875.542968-.359375 1.0625-.777344 1.523437-1.238281 1.859375-1.859376 2.929688-4.441407 2.929688-7.070313 0-.648437-.070313-1.3125-.199219-1.960937-.132812-.628907-.320312-1.257813-.570312-1.871094-.25-.597656-.5625-1.179688-.921876-1.71875-.359374-.550782-.777343-1.058594-1.238281-1.519532-2.332031-2.332031-5.78125-3.390624-9.03125-2.742187-.640625.132813-1.269531.320313-1.867187.570313-.601563.25-1.183594.5625-1.730469.921874-.539063.367188-1.0625.789063-1.519531 1.25-.460938.460938-.882813.96875-1.242188 1.519532-.359375.539062-.667968 1.121094-.917968 1.71875-.25.613281-.441407 1.242187-.570313 1.871094-.128906.648437-.199219 1.3125-.199219 1.960937 0 2.628906 1.070313 5.210937 2.929688 7.070313.457031.460937.976562.878906 1.519531 1.238281zm0 0"/></svg>