<svg height="512pt" viewBox="0 -45 512.00001 512" width="512pt" xmlns="http://www.w3.org/2000/svg"><path d="m341.746094 100.351562c0 14.789063 10.65625 27.082032 24.726562 29.613282 1.746094.328125 3.542969.488281 5.378906.488281 2.878907 0 5.667969-.398437 8.296876-1.171875 12.597656-3.59375 21.808593-15.183594 21.808593-28.929688 0-1.777343-.152343-3.523437-.460937-5.210937-1.183594-6.851563-4.6875-12.902344-9.683594-17.308594-5.308594-4.726562-12.304688-7.585937-19.960938-7.585937-7.757812 0-14.84375 2.9375-20.179687 7.777344-5.390625 4.867187-9.011719 11.660156-9.773437 19.296874-.101563 1.003907-.152344 2.007813-.152344 3.03125zm0 0" fill="#97b6bf"/><path d="m281.648438 193.765625v137.390625l8.289062-38.796875c12.683594-59.40625 38.914062-114.972656 76.535156-162.394531-14.070312-2.53125-24.726562-14.824219-24.726562-29.613282 0-1.023437.050781-2.027343.152344-3.03125l-.394532.46875c-24.121094 29.324219-44.222656 61.605469-59.855468 95.976563zm0 0" fill="#fade76"/><path d="m380.148438 129.28125c41.804687 46.375 71.472656 104.625 107.917968 155.710938l13.898438 36.578124v-100.1875c-24.011719-45.507812-55.976563-86.441406-94.449219-120.863281l-6.019531-5.378906c.308594 1.6875.460937 3.433594.460937 5.210937 0 13.746094-9.210937 25.335938-21.808593 28.929688zm0 0" fill="#fade76"/><g fill="#bf8b3f"><path d="m366.472656 129.964844c-37.621094 47.421875-63.851562 102.988281-76.535156 162.394531l-8.289062 38.796875v1.675781c0 43.410157 35.191406 78.601563 78.601562 78.601563h63.109375c43.414063 0 78.605469-35.191406 78.605469-78.601563v-11.261719l-13.898438-36.578124c-22.769531-59.96875-59.847656-113.402344-107.917968-155.710938"/><path d="m281.648438 40.140625v153.625c15.632812-34.371094 35.734374-66.652344 59.855468-95.976563l.394532-.46875c.761718-7.636718 4.382812-14.429687 9.773437-19.296874v-67.988282h-39.921875c-16.625 0-30.101562 13.476563-30.101562 30.105469zm0 0"/><path d="m391.8125 10.035156v67.796875c4.996094 4.40625 8.5 10.457031 9.683594 17.308594l6.019531 5.378906c38.472656 34.421875 70.4375 75.355469 94.449219 120.863281v-181.242187c0-16.628906-13.476563-30.105469-30.105469-30.105469zm0 0"/></g><path d="m351.671875 10.035156v67.988282c5.335937-4.839844 12.421875-7.777344 20.179687-7.777344 7.65625 0 14.652344 2.859375 19.960938 7.585937v-67.796875zm0 0" fill="#fade76"/><path d="m170.253906 100.351562c0 14.789063-10.65625 27.082032-24.726562 29.613282-1.746094.328125-3.542969.488281-5.378906.488281-2.878907 0-5.667969-.398437-8.296876-1.171875-12.597656-3.59375-21.808593-15.183594-21.808593-28.929688 0-1.777343.152343-3.523437.460937-5.210937 1.183594-6.851563 4.6875-12.902344 9.683594-17.308594 5.308594-4.726562 12.304688-7.585937 19.960938-7.585937 7.757812 0 14.84375 2.9375 20.179687 7.777344 5.390625 4.867187 9.011719 11.660156 9.773437 19.296874.101563 1.003907.152344 2.007813.152344 3.03125zm0 0" fill="#97b6bf"/><path d="m230.351562 193.765625v137.390625l-8.289062-38.796875c-12.683594-59.40625-38.914062-114.972656-76.535156-162.394531 14.070312-2.53125 24.726562-14.824219 24.726562-29.613282 0-1.023437-.050781-2.027343-.152344-3.03125l.394532.46875c24.121094 29.324219 44.222656 61.605469 59.855468 95.976563zm0 0" fill="#fade76"/><path d="m131.851562 129.28125c-41.804687 46.375-71.472656 104.625-107.917968 155.710938l-13.898438 36.578124v-100.1875c24.011719-45.507812 55.976563-86.441406 94.449219-120.863281l6.019531-5.378906c-.308594 1.6875-.460937 3.433594-.460937 5.210937 0 13.746094 9.210937 25.335938 21.808593 28.929688zm0 0" fill="#fade76"/><path d="m145.527344 129.964844c37.621094 47.421875 63.851562 102.988281 76.535156 162.394531l8.289062 38.796875v1.675781c0 43.410157-35.191406 78.601563-78.601562 78.601563h-63.109375c-43.414063 0-78.605469-35.191406-78.605469-78.601563v-11.261719l13.898438-36.578124c22.769531-59.96875 59.847656-113.402344 107.917968-155.710938" fill="#bf8b3f"/><path d="m230.351562 40.140625v153.625c-15.632812-34.371094-35.734374-66.652344-59.855468-95.976563l-.394532-.46875c-.761718-7.636718-4.382812-14.429687-9.773437-19.296874v-67.988282h39.921875c16.625 0 30.101562 13.476563 30.101562 30.105469zm0 0" fill="#bf8b3f"/><path d="m120.1875 10.035156v67.796875c-4.996094 4.40625-8.5 10.457031-9.683594 17.308594l-6.019531 5.378906c-38.472656 34.421875-70.4375 75.355469-94.449219 120.863281v-181.242187c0-16.628906 13.476563-30.105469 30.105469-30.105469zm0 0" fill="#bf8b3f"/><path d="m160.328125 10.035156v67.988282c-5.335937-4.839844-12.421875-7.777344-20.179687-7.777344-7.65625 0-14.652344 2.859375-19.960938 7.585937v-67.796875zm0 0" fill="#fade76"/><path d="m240.386719 331.050781v-290.914062c0-22.132813-18.003907-40.136719-40.136719-40.136719h-160.113281c-22.132813 0-40.136719 18.003906-40.136719 40.136719v292.695312c0 48.875 39.761719 88.636719 88.640625 88.636719h63.109375c48.875 0 88.636719-39.761719 88.636719-88.636719v-1.714843c0-.023438.003906-.046876 0-.066407zm-80.167969-230.699219c0 9.71875-6.925781 18.019532-16.5625 19.753907-1.105469.207031-2.285156.3125-3.507812.3125-1.894532 0-3.738282-.257813-5.472657-.765625-.011719-.003906-.023437-.007813-.039062-.011719-.011719 0-.019531-.007813-.035157-.011719-8.550781-2.4375-14.523437-10.367187-14.523437-19.28125 0-1.1875.101563-2.324218.296875-3.386718.003906-.019532.003906-.035157.007812-.054688 0-.019531.007813-.039062.011719-.058594.765625-4.429687 3.050781-8.507812 6.46875-11.523437 3.65625-3.253907 8.375-5.046875 13.285157-5.046875 4.984374 0 9.757812 1.839844 13.457031 5.191406 3.703125 3.347656 6.015625 7.90625 6.511719 12.839844.003906.007812.003906.015625.003906.019531.0625.671875.097656 1.335937.097656 2.023437zm-9.925781-38.832031c-3.285157-.855469-6.6875-1.308593-10.144531-1.308593-3.378907 0-6.707032.433593-9.925782 1.253906v-41.394532h20.070313zm24.859375 58.488281c17.652344 23.664063 32.792968 49.136719 45.167968 75.972657v51.816406c-13.472656-40.597656-33.394531-79.101563-58.808593-113.457031 5.691406-3.570313 10.375-8.511719 13.640625-14.332032zm45.164062-79.871093v112.148437c-11.929687-20.757812-25.535156-40.546875-40.683594-59.15625-1.296874-7.128906-4.5-13.742187-9.269531-19.183594v-53.875h29.890625c11.0625 0 20.0625 9 20.0625 20.066407zm-180.179687-20.066407h70.015625v53.625c-4.101563 4.613282-7.101563 10.140626-8.722656 16.097657l-3.636719 3.25c-30.074219 26.90625-56.109375 57.496093-77.722657 91.234375v-144.140625c0-11.066407 9.003907-20.066407 20.066407-20.066407zm111.613281 381.328126h-63.109375c-37.808594 0-68.570313-30.757813-68.570313-68.566407v-9.417969l13.246094-34.859374c1.738282-4.585938 3.589844-9.191407 5.5-13.691407 2.167969-5.101562-.210937-10.992187-5.3125-13.160156-5.105468-2.164063-10.996094.214844-13.160156 5.316406-.09375.21875-.179688.445313-.273438.664063v-43.757813c21.675782-40.519531 49.539063-76.9375 82.949219-108.417969 2.527344 6.15625 6.550781 11.613282 11.675781 15.84375-23.382812 22.089844-44.054687 46.902344-61.558593 73.921876-3.015625 4.652343-1.6875 10.863281 2.960937 13.878906 1.6875 1.089844 3.578125 1.613281 5.449219 1.613281 3.289063 0 6.511719-1.613281 8.429687-4.578125 18.195313-28.078125 39.988282-53.640625 64.808594-76.066406 1.765625.238281 3.554688.367187 5.363282.367187.289062 0 .570312-.011719.855468-.019531 34.753906 45.128906 59.347656 98.253906 71.246094 153.984375l8.070312 37.761719v.613281c-.003906 37.8125-30.761718 68.570313-68.570312 68.570313zm0 0"/><path d="m55.503906 237.296875c-.25-.601563-.5625-1.183594-.921875-1.734375-.363281-.542969-.785156-1.054688-1.246093-1.515625-.460938-.472656-.972657-.886719-1.523438-1.257813-.542969-.359374-1.136719-.671874-1.738281-.921874-.601563-.25-1.234375-.441407-1.875-.570313-1.296875-.261719-2.628907-.261719-3.925781 0-.640626.128906-1.273438.320313-1.875.570313-.601563.25-1.183594.5625-1.738282.921874-.539062.371094-1.0625.785157-1.523437 1.257813-.460938.460937-.882813.972656-1.246094 1.515625-.359375.550781-.671875 1.132812-.921875 1.734375s-.441406 1.234375-.570312 1.875c-.132813.652344-.191407 1.304687-.191407 1.96875 0 .652344.058594 1.304687.191407 1.957031.128906.640625.320312 1.273438.570312 1.875.25.601563.5625 1.183594.921875 1.734375.371094.542969.792969 1.066407 1.253906 1.527344.464844.460937.976563.882813 1.527344 1.242187.542969.363282 1.125.671876 1.726563.925782.601562.25 1.234374.441406 1.875.570312.652343.128906 1.304687.191406 1.96875.191406.652343 0 1.3125-.0625 1.957031-.191406.640625-.128906 1.273437-.320312 1.875-.570312.601562-.253906 1.183593-.5625 1.738281-.925782.539062-.359374 1.0625-.78125 1.523438-1.242187.460937-.460937.882812-.984375 1.246093-1.527344.359375-.550781.671875-1.132812.921875-1.734375.25-.601562.441406-1.234375.570313-1.875.132812-.652344.203125-1.304687.203125-1.957031 0-.664063-.070313-1.316406-.203125-1.96875-.128907-.640625-.320313-1.273437-.570313-1.875zm0 0"/><path d="m512 221.457031v-181.320312c0-22.132813-18.003906-40.136719-40.136719-40.136719h-160.113281c-22.132812 0-40.136719 18.003906-40.136719 40.136719v290.914062.066407 1.714843c0 48.875 39.761719 88.636719 88.636719 88.636719h63.109375c48.878906 0 88.640625-39.761719 88.640625-88.636719 0 0 0-111.355469 0-111.375zm-20.070312-181.320312v144.140625c-21.613282-33.738282-47.648438-64.328125-77.730469-91.242188l-3.628907-3.242187c-1.625-5.96875-4.628906-11.5-8.726562-16.105469v-53.617188h70.019531c11.066407 0 20.066407 9 20.066407 20.066407zm-200.246094 155.84375c12.371094-26.839844 27.519531-52.320313 45.160156-75.96875 3.269531 5.828125 7.953125 10.773437 13.636719 14.339843-25.410157 34.355469-45.328125 72.851563-58.796875 113.449219zm85.714844-76.347657c-.011719 0-.023438.007813-.035157.011719-.015625.003907-.027343.003907-.039062.007813-2.851563.835937-6.007813 1.011718-9.074219.433594-9.542969-1.714844-16.46875-10.015626-16.46875-19.734376 0-.691406.035156-1.351562.101562-2.027343 0-.007813 0-.011719.003907-.015625.492187-4.933594 2.804687-9.492188 6.523437-12.851563 3.683594-3.335937 8.457032-5.175781 13.441406-5.175781 4.914063 0 9.632813 1.789062 13.324219 5.078125 3.382813 2.980469 5.664063 7.0625 6.429688 11.492187.003906.019532.011719.039063.015625.054688.003906.019531.003906.039062.007812.058594.195313 1.058594.292969 2.199218.292969 3.386718 0 8.910157-5.972656 16.839844-14.523437 19.28125zm4.378906-58.167968c-3.21875-.820313-6.546875-1.253906-9.925782-1.253906-3.457031 0-6.863281.453124-10.144531 1.308593v-41.449219h20.070313zm-70.027344-41.394532h29.886719v53.878907c-4.769531 5.445312-7.972657 12.058593-9.265625 19.179687-15.144532 18.597656-28.753906 38.386719-40.6875 59.15625v-112.148437c0-11.066407 9-20.066407 20.066406-20.066407zm111.609375 381.328126h-63.109375c-37.808594 0-68.566406-30.757813-68.566406-68.566407v-.617187l8.066406-37.761719c11.898438-55.730469 36.496094-108.851563 71.246094-153.980469.285156.003906.570312.015625.855468.015625 1.808594 0 3.597657-.125 5.363282-.363281 24.824218 22.421875 46.617187 47.984375 64.808594 76.0625 1.921874 2.964844 5.140624 4.578125 8.429687 4.578125 1.871094 0 3.761719-.523437 5.449219-1.613281 4.648437-3.015625 5.976562-9.226563 2.964844-13.878906-17.507813-27.019532-38.179688-51.828126-61.5625-73.921876 5.128906-4.226562 9.148437-9.683593 11.679687-15.839843 33.410156 31.480469 61.273437 67.898437 82.945313 108.414062v43.757813c-.09375-.21875-.179688-.441406-.273438-.660156-2.164062-5.105469-8.054688-7.484376-13.15625-5.316407-5.101562 2.164063-7.484375 8.054688-5.316406 13.15625 1.914062 4.511719 3.765625 9.117188 5.503906 13.695313l13.242188 34.855468v9.417969c0 37.808594-30.757813 68.566407-68.570313 68.566407zm0 0"/><path d="m474.101562 246.710938c.363282-.554688.671876-1.136719.925782-1.738282.25-.601562.441406-1.234375.570312-1.875.132813-.652344.199219-1.304687.199219-1.957031 0-.664063-.066406-1.316406-.199219-1.964844-.128906-.644531-.320312-1.277343-.570312-1.878906-.253906-.601563-.5625-1.183594-.925782-1.734375-.359374-.542969-.78125-1.054688-1.242187-1.515625-.460937-.472656-.972656-.882813-1.527344-1.253906-.539062-.363281-1.121093-.671875-1.734375-.925781-.601562-.25-1.234375-.4375-1.878906-.570313-1.292969-.261719-2.628906-.261719-3.921875 0-.632813.132813-1.265625.320313-1.875.570313-.605469.253906-1.1875.5625-1.726563.925781-.554687.371093-1.066406.78125-1.527343 1.253906-.460938.460937-.882813.972656-1.253907 1.515625-.359374.550781-.671874 1.132812-.921874 1.734375s-.441407 1.234375-.574219 1.878906c-.128907.648438-.1875 1.300781-.1875 1.964844 0 .652344.058593 1.304687.1875 1.957031.132812.640625.332031 1.273438.582031 1.875.253906.601563.5625 1.183594.925781 1.738282.359375.539062.78125 1.0625 1.242188 1.523437 1.867187 1.867187 4.457031 2.929687 7.097656 2.929687 2.636719 0 5.226563-1.0625 7.09375-2.929687.460937-.460937.882813-.984375 1.242187-1.523437zm0 0"/></svg>