<svg height="511pt" viewBox="-26 0 511 511.99986" width="511pt" xmlns="http://www.w3.org/2000/svg"><path d="m335.390625 189.757812v192.273438h-324.84375v-192.273438c110.371094-24.816406 218.972656-28.585937 324.84375 0zm0 0" fill="#fee4bb"/><path d="m335.390625 382.03125v13.273438c0 24.886718-14.148437 47.609374-36.480469 58.585937l-72.28125 35.535156c-34.390625 16.910157-74.695312 16.820313-109.007812-.242187l-70.855469-35.222656c-22.191406-11.027344-36.21875-33.671876-36.21875-58.453126v-13.476562c102.433594-41.542969 210.53125-42.746094 324.84375 0zm0 0" fill="#4c5b7c"/><g fill="#707c96"><path d="m449 161.722656-36.332031 36.328125-6.09375 6.097657c-15.785157 15.785156-41.382813 15.785156-57.167969 0l-7.417969-7.421876-6.597656-6.597656 28.398437-28.40625c23.527344-23.527344 61.671876-23.527344 85.210938 0zm0 0"/><path d="m442.402344 250.007812h-60c-22.320313 0-40.414063-18.097656-40.414063-40.417968v-12.863282l7.417969 7.421876c15.785156 15.785156 41.382812 15.785156 57.167969 0l6.09375-6.097657c17.792969 10.464844 29.734375 29.8125 29.734375 51.957031zm0 0"/><path d="m335.128906 129.507812c-105.285156-27.441406-213.53125-26.085937-324.339844-.058593 3.042969-48.722657 33.636719-82.53125 74.949219-101.441407 16.078125-7.371093 33.789063-12.460937 52.117188-15.3125 80.410156-12.472656 172.894531 18.535157 193.378906 93.023438 2.046875 7.492188 3.382813 15.414062 3.894531 23.789062zm0 0"/></g><path d="m335.378906 137.492188v52.265624c-105.496094-27.453124-213.902344-26.109374-324.832031 0h-.007813v-52.265624c0-.773438.007813-1.566407.019532-2.339844.027344-1.929688.109375-3.828125.230468-5.703125 110.808594-26.027344 219.054688-27.382813 324.339844.058593.171875 2.621094.25 5.28125.25 7.984376zm0 0" fill="#4c5b7c"/><path d="m125.1875 252.945312c-3.921875-3.917968-10.277344-3.917968-14.199219 0l-12.875 12.878907-12.878906-12.878907c-3.917969-3.917968-10.277344-3.917968-14.199219 0-3.921875 3.921876-3.921875 10.28125 0 14.203126l12.875 12.875-12.875 12.875c-3.921875 3.921874-3.921875 10.28125 0 14.203124 1.960938 1.957032 4.53125 2.941407 7.101563 2.941407 2.570312 0 5.140625-.984375 7.097656-2.941407l12.878906-12.878906 12.875 12.878906c1.960938 1.957032 4.53125 2.941407 7.101563 2.941407 2.570312 0 5.140625-.984375 7.097656-2.941407 3.921875-3.921874 3.921875-10.28125 0-14.203124l-12.875-12.875 12.875-12.875c3.921875-3.921876 3.921875-10.28125 0-14.203126zm0 0"/><path d="m266.410156 252.945312c-3.921875-3.917968-10.277344-3.917968-14.203125 0l-12.875 12.875-12.875-12.875c-3.921875-3.917968-10.277343-3.917968-14.199219 0-3.921874 3.921876-3.921874 10.28125 0 14.203126l12.875 12.875-12.875 12.875c-3.921874 3.921874-3.921874 10.28125 0 14.203124 1.960938 1.957032 4.527344 2.941407 7.097657 2.941407 2.570312 0 5.140625-.984375 7.101562-2.941407l12.875-12.875 12.875 12.875c1.960938 1.957032 4.53125 2.941407 7.101563 2.941407 2.570312 0 5.136718-.984375 7.097656-2.941407 3.921875-3.921874 3.921875-10.28125 0-14.203124l-12.875-12.875 12.875-12.875c3.925781-3.921876 3.925781-10.28125.003906-14.203126zm0 0"/><path d="m459.035156 161.726562c0-2.664062-1.054687-5.21875-2.9375-7.101562-13.277344-13.277344-30.929687-20.585938-49.707031-20.585938-18.773437 0-36.425781 7.308594-49.699219 20.585938l-11.269531 11.265625s-.089844-33.957031-.253906-36.703125c-.003907-.105469-.007813-.207031-.015625-.308594-.554688-8.902344-1.972656-17.558594-4.242188-25.820312-.894531-3.265625-1.941406-6.476563-3.113281-9.632813-.046875-.140625-.097656-.28125-.152344-.417969-12.292969-32.746093-39.144531-59.355468-76.632812-75.625-36.632813-15.890624-82.085938-21.21875-124.695313-14.609374-19.679687 3.054687-38.105468 8.472656-54.761718 16.101562-48.507813 22.207031-76.859376 60.238281-80.613282 107.714844-.445312 1.453125-.441406 63.167968-.441406 63.167968 0 .039063.007812.078126.007812.121094v205.625c0 28.789063 16.011719 54.632813 41.789063 67.449219l70.847656 35.226563c18.53125 9.214843 38.875 13.820312 59.226563 13.820312 9.390625 0 18.785156-.996094 28-2.960938.621094-.074218 1.226562-.203124 1.820312-.390624 9.917969-2.257813 19.617188-5.660157 28.867188-10.207032l72.277344-35.539062c25.964843-12.765625 42.09375-38.667969 42.09375-67.601563v-151.425781c9.21875 9.9375 22.378906 16.171875 36.972656 16.171875h60c5.542968 0 10.039062-4.496094 10.039062-10.039063 0-20.523437-9.097656-39.953124-24.351562-53.175781l28.003906-28.007812c1.886719-1.882813 2.941406-4.4375 2.941406-7.097657zm-258.875 179.746094c-.125-9.996094-4.070312-19.375-11.152344-26.457031-5.75-5.753906-8.917968-13.402344-8.917968-21.535156v-42.636719c0-6 4.878906-10.878906 10.875-10.878906h79.496094c5.542968 0 10.042968-4.496094 10.042968-10.042969 0-5.542969-4.5-10.039063-10.042968-10.039063h-79.496094c-17.070313 0-30.960938 13.886719-30.960938 30.960938v42.636719c0 13.5 5.257813 26.191406 14.804688 35.738281 3.058594 3.058594 4.871094 7.027344 5.210937 11.292969-3.855469-.09375-7.699219-.140625-11.53125-.128907-49.976562.136719-99.65625 9.222657-147.898437 27.007813v-169.628906c106.054687-23.839844 208.5-23.898438 304.757812-.175781v170.175781c-42.15625-14.554688-84.101562-23.359375-125.1875-26.289063zm-110.242187-304.335937c14.976562-6.863281 31.625-11.746094 49.476562-14.515625 11.03125-1.710938 22.253907-2.550782 33.433594-2.550782 28.320313 0 56.355469 5.398438 80.191406 15.738282 18.921875 8.210937 41.890625 22.386718 56.816407 46.003906-16.4375-3.636719-32.457032-6.402344-49.1875-8.46875-5.507813-.667969-10.519532 3.230469-11.199219 8.734375-.679688 5.503906 3.234375 10.515625 8.734375 11.195313 21.128906 2.613281 41.097656 6.367187 62.359375 11.707031.351562 1.117187.6875 2.246093 1.003906 3.394531.707031 2.582031 1.308594 5.21875 1.820313 7.890625-53.960938-12.707031-109.953126-18.296875-166.679688-16.578125-5.542969.167969-9.898438 4.796875-9.730469 10.34375.167969 5.542969 4.839844 9.875 10.339844 9.730469 57.28125-1.738281 113.769531 4.214843 168.042969 17.640625v.09375 9.03125c-34.472656-8.238282-69.875-13.597656-105.429688-15.941406-5.558594-.351563-10.3125 3.828124-10.679687 9.359374-.363281 5.535157 3.828125 10.316407 9.363281 10.683594 36.03125 2.371094 71.90625 7.9375 106.746094 16.558594v9.722656c-48.820313-11.625-99.355469-17.425781-150.371094-17.277344-50.042969.15625-101.917969 6.054688-154.386719 17.546876v-39.675782c18.644531-4.191406 37.296875-7.6875 55.558594-10.40625 5.484375-.816406 9.269531-5.925781 8.453125-11.410156-.820312-5.484375-5.929688-9.269531-11.414062-8.453125-16.664063 2.480469-33.636719 5.597656-50.632813 9.277344 6.636719-34.5 30.015625-62.277344 67.371094-79.375zm204.558593 407.742187-72.277343 35.539063c-2.148438 1.058593-4.332031 2.035156-6.535157 2.945312 7.082032-25.625 4.523438-53.109375-7.515624-77.183593-2.480469-4.960938-8.511719-6.96875-13.472657-4.492188-4.960937 2.480469-6.96875 8.515625-4.488281 13.472656 11.457031 22.917969 12.378906 49.625 2.535156 73.277344l-.746094 1.792969c-23.535156 4.101562-48.183593.757812-69.890624-10.03125l-70.847657-35.226563c-18.90625-9.398437-30.648437-28.355468-30.648437-49.46875v-6.640625c51.789062-20.089843 105.085937-29.457031 159.5-28.089843v9.730468c0 5.546875 4.492187 10.042969 10.039062 10.042969s10.042969-4.496094 10.042969-10.042969v-8.742187c41.175781 3.007812 82.960937 12.109375 125.175781 27.289062v6.253907c0 21.214843-11.828125 40.214843-30.871094 49.574218zm136.859376-204.914062h-48.929688c-13.148438 0-24.371094-8.398438-28.589844-20.113282 7.507813 4.09375 15.839844 6.152344 24.175782 6.152344 12.917968 0 25.84375-4.917968 35.679687-14.753906l.171875-.171875c8.96875 7.332031 15.164062 17.585937 17.492188 28.886719zm-31.867188-42.917969c-11.84375 11.84375-31.113281 11.84375-42.957031 0l-6.921875-6.921875 21.300781-21.300781c9.484375-9.484375 22.089844-14.707031 35.5-14.707031 10 0 19.554687 2.90625 27.699219 8.3125zm0 0"/><path d="m114.515625 122.40625c.664063 0 1.316406-.070312 1.96875-.199219.644531-.128906 1.277344-.320312 1.878906-.570312.601563-.253907 1.183594-.566407 1.738281-.925781.539063-.371094 1.054688-.78125 1.523438-1.253907 1.871094-1.867187 2.933594-4.449219 2.933594-7.089843 0-.664063-.058594-1.316407-.191406-1.96875-.128907-.644532-.320313-1.277344-.570313-1.878907-.253906-.601562-.5625-1.183593-.925781-1.734375-.371094-.542968-.78125-1.066406-1.246094-1.527344-.46875-.460937-.984375-.882812-1.523438-1.246093-.554687-.359375-1.136718-.671875-1.738281-.921875-.601562-.253906-1.234375-.441406-1.878906-.574219-1.292969-.261719-2.628906-.261719-3.925781 0-.640625.132813-1.273438.320313-1.878906.574219-.609376.25-1.191407.5625-1.734376.921875-.554687.363281-1.066406.785156-1.527343 1.246093-.460938.460938-.882813.984376-1.246094 1.527344-.359375.550782-.671875 1.132813-.921875 1.734375-.253906.605469-.441406 1.234375-.574219 1.878907-.128906.652343-.199219 1.304687-.199219 1.96875 0 2.640624 1.074219 5.21875 2.941407 7.089843 1.867187 1.875 4.457031 2.949219 7.097656 2.949219zm0 0"/></svg>