<svg height="511pt" viewBox="0 0 511 511.9986" width="511pt" xmlns="http://www.w3.org/2000/svg"><path d="m423.5625 305.1875 78.90625 196.78125-197.65625-79.261719c.074219-1.148437.117188-2.292969.117188-3.449219 0-26.75-21.6875-48.4375-48.4375-48.4375-26.757813 0-48.449219 21.6875-48.449219 48.4375 0 1.15625.046875 2.300782.121093 3.449219l-197.644531 79.261719 78.785157-196.5c.628906.035156 1.265624.042969 1.894531.042969 26.757812 0 48.445312-21.6875 48.445312-48.4375 0-26.746094-21.6875-48.4375-48.445312-48.4375-.347657 0-.695313 0-1.039063.011719l-79.640625-198.628907 197.71875 79.285157c-.128906 1.414062-.195312 2.84375-.195312 4.292968 0 26.757813 21.691406 48.449219 48.449219 48.449219 26.75 0 48.4375-21.691406 48.4375-48.449219 0-1.441406-.0625-2.867187-.195313-4.28125l197.734375-79.296875-79.738281 198.855469c-1.570313-.164062-3.171875-.238281-4.78125-.238281-26.75 0-48.4375 21.691406-48.4375 48.4375 0 26.75 21.6875 48.4375 48.4375 48.4375 1.894531.003906 3.773437-.105469 5.613281-.324219zm0 0" fill="#383e4b"/><path d="m322.9375 256.246094c0 36.558594-29.636719 66.195312-66.195312 66.195312-36.558594 0-66.195313-29.636718-66.195313-66.195312s29.636719-66.195313 66.195313-66.195313c36.558593 0 66.195312 29.636719 66.195312 66.195313zm0 0" fill="#77e5ab"/><path d="m267.820312 281.429688c1.960938 1.957031 4.527344 2.9375 7.09375 2.9375 2.566407 0 5.132813-.980469 7.089844-2.9375 3.917969-3.917969 3.917969-10.269532 0-14.183594l-10.785156-10.789063 10.785156-10.789062c3.917969-3.914063 3.917969-10.265625 0-14.183594-3.914062-3.917969-10.265625-3.917969-14.183594 0l-10.789062 10.789063-10.785156-10.789063c-3.917969-3.917969-10.269532-3.917969-14.1875 0-3.917969 3.914063-3.914063 10.265625 0 14.183594l10.789062 10.789062-10.789062 10.789063c-3.914063 3.914062-3.914063 10.265625 0 14.183594 1.960937 1.957031 4.527344 2.9375 7.09375 2.9375s5.132812-.980469 7.089844-2.9375l10.789062-10.789063zm0 0"/><path d="m511.296875 506.722656c.003906-.011718.015625-.023437.019531-.035156.210938-.394531.386719-.800781.539063-1.214844.03125-.082031.058593-.160156.085937-.242187.132813-.382813.242188-.769531.324219-1.160157.011719-.039062.023437-.078124.03125-.117187.085937-.421875.136719-.84375.164063-1.269531.007812-.105469.011718-.210938.015624-.3125.015626-.382813.011719-.761719-.015624-1.140625-.003907-.058594-.003907-.113281-.007813-.167969-.039063-.429688-.113281-.855469-.207031-1.277344-.019532-.09375-.042969-.183594-.066406-.277344-.117188-.460937-.253907-.914062-.4375-1.355468l-78.871094-196.695313c-1.6875-4.207031-5.984375-6.761719-10.484375-6.226562-1.441407.167969-2.933594.253906-4.4375.253906-21.179688 0-38.40625-17.230469-38.40625-38.40625 0-21.179687 17.226562-38.410156 38.40625-38.410156 1.304687 0 2.566406.0625 3.75.183593 4.453125.464844 8.671875-2.085937 10.339843-6.242187l79.699219-198.757813c.011719-.027343.023438-.054687.03125-.082031l.007813-.015625c.003906-.007812.003906-.015625.007812-.023437.160156-.40625.289063-.824219.394532-1.246094.023437-.089844.046874-.183594.066406-.273437.09375-.421876.167968-.847657.207031-1.273438.007813-.066406.003906-.132812.011719-.195312.023437-.375.03125-.746094.015625-1.121094-.003907-.101563-.007813-.207032-.015625-.308594-.03125-.425781-.082032-.847656-.164063-1.265625-.011719-.050781-.027343-.097656-.035156-.144531-.082031-.386719-.191406-.765625-.320313-1.140625-.027343-.078125-.054687-.160157-.085937-.242188-.152344-.410156-.328125-.816406-.535156-1.210937-.015625-.023438-.03125-.046875-.042969-.070313-.195312-.355469-.417969-.703125-.660156-1.039062-.058594-.085938-.117188-.167969-.183594-.253907-.265625-.34375-.546875-.683593-.859375-1-.003906-.003906-.007813-.007812-.011719-.011718-.003906 0-.003906-.003906-.007812-.007813-.007813-.007812-.019532-.015625-.03125-.027343-.3125-.308594-.640625-.585938-.980469-.84375-.082031-.0625-.164063-.121094-.246094-.183594-.730469-.523438-1.511719-.9375-2.328125-1.242188-.078125-.027344-.15625-.054687-.234375-.082031-.398437-.136719-.796875-.253906-1.207031-.335937-.023438-.007813-.042969-.015626-.066406-.019532-.421875-.085937-.851563-.1367185-1.28125-.1679685-.101563-.0039063-.203125-.0117187-.304688-.015625-.394531-.015625-.789062-.01171875-1.179687.0195313-.042969.0039062-.085938 0-.128907.0039062-.429687.0390625-.855468.113281-1.28125.207031-.09375.023438-.1875.046875-.28125.070313-.449218.113281-.890624.246094-1.324218.421875l-197.679688 79.273437c-4.113281 1.652344-6.65625 5.808594-6.253906 10.222656.101562 1.109376.152344 2.246094.152344 3.367188 0 21.1875-17.230469 38.421875-38.410156 38.421875-21.183594 0-38.417969-17.234375-38.417969-38.421875 0-1.132812.050781-2.269531.152343-3.375.40625-4.417969-2.140624-8.574219-6.253906-10.222656l-197.632812-79.25c-.445313-.183594-.90625-.324219-1.371094-.441406-.085938-.023438-.171875-.042969-.257812-.0625-.429688-.097657-.859376-.1718755-1.292969-.210938-.046875-.0039062-.09375 0-.140625-.0039062-.390625-.03125005-.78125-.0351563-1.171875-.0195313-.097657.0039063-.195313.0078125-.292969.015625-.429688.03125-.859375.0820315-1.285156.1679685-.03125.003906-.0625.015625-.09375.023438-.398438.082031-.792969.199218-1.183594.332031-.078125.027344-.15625.050781-.234375.082031-.414063.152344-.824219.332032-1.21875.542969-.007813.003906-.015625.007813-.027344.015625-.371093.199219-.730469.433594-1.078125.683594-.085937.058594-.167968.117187-.246094.179687-.355468.269531-.699218.554688-1.019531.875-.320312.324219-.605469.667969-.875 1.019531-.0625.082032-.121093.164063-.183593.246094-.25.347656-.480469.703125-.679688 1.074219-.003906.011719-.011719.023437-.019531.035156-.210938.394531-.386719.800781-.539063 1.214844-.03125.082031-.058594.160156-.085937.242187-.128907.382813-.242188.769532-.324219 1.160157-.011719.039062-.023438.078125-.03125.117187-.082031.421875-.132812.84375-.164062 1.269532-.007813.105468-.011719.207031-.015626.3125-.015624.382812-.011718.761718.015626 1.140624.003906.054688.003906.113282.007812.167969.039062.429688.113281.855469.207031 1.277344.019531.09375.042969.183594.066407.277344.117187.460937.257812.914062.4375 1.355469l79.609374 198.546874c1.566407 3.910157 5.402344 6.429688 9.621094 6.289063.242188-.007813.480469-.003906.722656-.003906 21.1875 0 38.421876 17.230469 38.421876 38.40625 0 21.179687-17.234376 38.410156-38.421876 38.410156-.453124 0-.914062-.007813-1.367187-.03125-4.289063-.230469-8.234375 2.300781-9.832031 6.285156l-78.753906 196.414063c-.179688.445312-.320313.898437-.4375 1.355468-.023438.09375-.046876.183594-.066407.277344-.09375.421875-.167969.847656-.207031 1.277344-.003906.054688-.003906.113281-.007812.167969-.027344.378906-.03125.757812-.015626 1.140625.003907.105468.007813.210937.015626.3125.03125.425781.082031.847656.164062 1.269531.007812.039063.023438.078125.03125.117187.082031.390626.195312.777344.324219 1.15625.027343.082032.054687.164063.085937.246094.152344.414063.328125.820313.539063 1.214844.007812.011719.015625.023438.023437.039062.195313.367188.425782.722657.675782 1.070313.058593.082031.121093.164063.183593.246094.269531.351562.554688.695312.875 1.015625.320313.324218.664063.609375 1.015625.875.082032.066406.164063.125.25.183594.347656.25.703125.480468 1.070313.679687.015625.007813.027343.015625.039062.019531.390625.210938.796875.386719 1.210938.539063.082031.03125.167969.058593.25.089843.378906.128907.761719.238282 1.148437.320313.042969.011719.085938.023437.128906.03125.417969.085937.839844.136719 1.261719.167969.105469.007812.214844.007812.320313.011718.132812.007813.265625.019532.398437.019532.242188 0 .488281-.015625.730469-.035156.0625-.003907.121094 0 .179688-.007813.425781-.039063.851562-.109375 1.273437-.203125.09375-.023438.1875-.046875.277344-.070312.460937-.117188.917969-.253907 1.359375-.4375l197.558594-79.226563c4.027343-1.617187 6.558593-5.640625 6.273437-9.972656-.066406-.988281-.097656-1.898438-.097656-2.785157 0-21.179687 17.234375-38.410156 38.417969-38.410156 21.179687 0 38.410156 17.230469 38.410156 38.410156 0 .886719-.03125 1.796876-.097656 2.785157-.285157 4.332031 2.246093 8.355469 6.273437 9.972656l197.574219 79.230469c.328125.132812.660156.25.996094.347656.023437.007812.050781.011719.074218.019531.28125.078125.566406.148438.851563.203125.210937.039063.417969.066406.628906.09375.105469.011719.207031.03125.308594.042969.316406.03125.636719.046875.953125.046875.128906 0 .253906-.015625.382812-.019531.195313-.007813.394532-.011719.589844-.03125.074219-.003907.148438-.023438.222656-.03125.25-.03125.5-.0625.746094-.109375.019531-.003906.042969-.011719.0625-.015625 1.554688-.316407 3.050781-.996094 4.34375-2.054688.011719-.011719.027344-.027343.039062-.039062.242188-.199219.480469-.410157.710938-.640625.320312-.320313.605469-.664063.875-1.015625.0625-.082031.121094-.164063.179688-.246094.25-.347656.480468-.703125.679687-1.074219zm-254.804687-354.648437c31.421874 0 57.132812-24.917969 58.417968-56.035157l145.570313-58.375-26.636719 26.511719c-3.925781 3.910157-3.941406 10.257813-.035156 14.183594 1.960937 1.96875 4.535156 2.953125 7.109375 2.953125 2.558593 0 5.121093-.972656 7.074219-2.917969l27.046874-26.921875-59.011718 147.167969c-31.351563 1.015625-56.546875 26.839844-56.546875 58.433594 0 31.890625 25.667969 57.898437 57.421875 58.460937l58.03125 144.714844-157.699219-157.699219c9.855469-12.847656 15.734375-28.898437 15.734375-46.304687 0-17.558594-5.984375-33.738282-15.996094-46.640625l74.355469-74.351563c3.914063-3.917968 3.917969-10.269531 0-14.183594-3.917969-3.917968-10.269531-3.917968-14.183594 0l-74.425781 74.425782c-12.792969-9.703125-28.71875-15.472656-45.972656-15.472656-17.40625 0-33.460938 5.875-46.308594 15.734374l-158.199219-158.203124 145.828125 58.476562c1.277344 31.121094 26.996094 56.042969 58.425782 56.042969zm-55.914063 104.171875c0-30.96875 25.195313-56.167969 56.164063-56.167969s56.167968 25.199219 56.167968 56.167969-25.199218 56.164062-56.167968 56.164062-56.164063-25.195312-56.164063-56.164062zm-104.421875 59.089844c29.933594-2.523438 53.519531-27.691407 53.519531-58.261719 0-30.261719-23.117187-55.226563-52.617187-58.175781l-59.007813-147.164063 158.203125 158.207031c-9.855468 12.84375-15.734375 28.898438-15.734375 46.304688 0 17.277344 5.789063 33.226562 15.515625 46.023437l-157.984375 157.984375zm160.335938 45.453124c-31.128907 0-56.65625 24.445313-58.382813 55.144532l-145.867187 58.496094 157.914062-157.914063c12.894531 9.988281 29.050781 15.953125 46.585938 15.953125 17.40625 0 33.460937-5.875 46.308593-15.734375l157.695313 157.699219-145.878906-58.5c-1.730469-30.699219-27.25-55.144532-58.375-55.144532zm0 0"/><path d="m403.285156 103.484375c.25.613281.5625 1.195313.921875 1.734375.371094.550781.792969 1.0625 1.253907 1.527344.460937.460937.972656.878906 1.523437 1.242187.542969.359375 1.125.671875 1.726563.921875.613281.25 1.242187.453125 1.875.570313.652343.132812 1.316406.203125 1.964843.203125.652344 0 1.316407-.070313 1.957031-.203125.640626-.117188 1.273438-.320313 1.875-.570313.613282-.25 1.195313-.5625 1.734376-.921875.554687-.363281 1.066406-.78125 1.527343-1.242187.460938-.464844.882813-.976563 1.242188-1.527344.363281-.539062.671875-1.121094.921875-1.734375.253906-.601563.441406-1.234375.574218-1.875.128907-.640625.199219-1.304687.199219-1.957031s-.070312-1.3125-.199219-1.953125c-.132812-.644531-.320312-1.277344-.574218-1.878907-.25-.609374-.558594-1.191406-.921875-1.734374-.359375-.550782-.78125-1.0625-1.242188-1.523438-.460937-.460938-.972656-.882812-1.527343-1.242188-.539063-.363281-1.121094-.671874-1.734376-.925781-.601562-.25-1.234374-.449219-1.875-.582031-1.292968-.25-2.628906-.25-3.921874 0-.632813.132812-1.261719.332031-1.875.582031-.601563.253907-1.183594.5625-1.726563.925781-.550781.359376-1.0625.78125-1.523437 1.242188-.460938.460938-.882813.972656-1.253907 1.523438-.359375.542968-.671875 1.125-.921875 1.734374-.25.601563-.441406 1.234376-.570312 1.878907-.132813.640625-.191406 1.300781-.191406 1.953125s.058593 1.316406.191406 1.957031c.128906.640625.320312 1.273437.570312 1.875zm0 0"/></svg>