<svg height="512pt" viewBox="-1 0 512.00067 512" width="512pt" xmlns="http://www.w3.org/2000/svg"><path d="m148.816406 369.863281h-3.992187c-2.40625 0-4.785157.109375-7.125.320313-11.035157.980468-21.421875 4.21875-30.679688 9.265625l-93.59375-138.269531c-6.167969-9.105469-3.761719-21.601563 5.347657-27.757813 3.417968-2.3125 7.304687-3.421875 11.15625-3.421875 6.425781 0 12.753906 3.082031 16.601562 8.769531zm0 0" fill="#97b6bf"/><path d="m498.578125 241.179688-93.976563 138.839843c-11.484374-6.46875-24.742187-10.15625-38.855468-10.15625h-2.558594l102.28125-151.09375c3.847656-5.6875 10.175781-8.769531 16.605469-8.769531 3.847656 0 7.734375 1.109375 11.15625 3.421875 9.105469 6.15625 11.515625 18.652344 5.347656 27.757813zm0 0" fill="#97b6bf"/><path d="m362.367188 225.445312c-7.507813 31.640626-28.699219 57.988282-56.988282 72.453126-14.996094 7.667968-31.980468 11.988281-49.984375 11.988281-18.003906 0-34.984375-4.320313-49.980469-11.988281-10.304687-5.265626-19.664062-12.113282-27.769531-20.222657-14.144531-14.144531-24.453125-32.117187-29.21875-52.238281l62.417969-11.496094c28.789062-5.308594 58.296875-5.359375 87.097656-.152344zm0 0" fill="#77e5ab"/><path d="m365.355469 119.953125v9.996094c-74.832031-26.730469-148.695313-26.078125-219.917969 0v-9.996094c0-60.726563 49.242188-109.957031 109.957031-109.957031 30.378907 0 57.871094 12.304687 77.761719 32.207031 1.769531 1.757813 3.46875 3.589844 5.109375 5.46875 6.289063 7.207031 11.664063 15.234375 15.902344 23.910156 7.167969 14.59375 11.1875 31.019531 11.1875 48.371094zm0 0" fill="#77e5ab"/><path d="m365.355469 129.949219v69.976562c0 8.785157-1.03125 17.332031-2.988281 25.519531l-64.425782-11.65625c-28.800781-5.207031-58.308594-5.15625-87.097656.152344l-62.417969 11.496094h-.011719c-1.949218-8.1875-2.976562-16.726562-2.976562-25.511719v-69.976562c71.222656-26.078125 145.085938-26.730469 219.917969 0zm0 0" fill="#fdcf84"/><path d="m310.253906 501.816406h-244.789062v-52.601562c0-26.769532 13.265625-50.441406 33.578125-64.816406 2.550781-1.808594 5.207031-3.46875 7.976562-4.949219 9.257813-5.046875 19.644531-8.285157 30.679688-9.265625 2.339843-.210938 4.71875-.320313 7.125-.320313h60.589843l47.664063 59.976563zm0 0" fill="#77e5ab"/><path d="m445.085938 449.214844v52.601562h-134.832032l-57.175781-71.976562 52.300781-59.976563h60.367188c14.113281 0 27.371094 3.6875 38.855468 10.15625 24.160157 13.605469 40.484376 39.496094 40.484376 69.195313zm0 0" fill="#59ac80"/><path d="m305.378906 297.898438v71.964843l-52.300781 59.976563-47.664063-59.976563v-71.964843c14.996094 7.667968 31.976563 11.988281 49.980469 11.988281 18.003907 0 34.988281-4.320313 49.984375-11.988281zm0 0" fill="#fdcf84"/><path d="m417.335938 159.941406c-19.582032 3.738282-37.386719 3.96875-51.980469.449219v-36.667969c13.324219 1.320313 26.941406-3.628906 39.984375-13.574218.050781 39.824218 11.996094 49.792968 11.996094 49.792968zm0 0" fill="#77e5ab"/><path d="m434.640625 77.980469c-9.128906 13.40625-19.023437 24.339843-29.300781 32.167969-13.042969 9.945312-26.660156 14.894531-39.984375 13.574218v-3.769531c0-17.351563-4.019531-33.777344-11.1875-48.371094-4.238281-8.675781-9.613281-16.703125-15.902344-23.910156 7.007813-5.21875 15.5625-7.6875 24.0625-7.6875 10.683594 0 21.242187 3.898437 28.476563 11.136719 28.292968 28.277344 43.835937 26.859375 43.835937 26.859375zm0 0" fill="#77e5ab"/><path d="m511.445312 224.304688c-1.515624-7.882813-6-14.691407-12.621093-19.167969-4.96875-3.355469-10.761719-5.128907-16.75-5.128907-10.003907 0-19.308594 4.917969-24.882813 13.15625l-99.308594 146.703126h-42.503906v-56.085938c35.824219-20.773438 59.976563-59.546875 59.976563-103.855469v-27.699219c4.144531.449219 8.445312.679688 12.902343.679688 9.625 0 19.96875-1.050781 30.957032-3.144531 3.796875-.726563 6.835937-3.574219 7.804687-7.316407.96875-3.742187-.308593-7.707031-3.277343-10.183593-.078126-.066407-7.53125-9.152344-8.328126-37.378907 9.625-8.085937 18.851563-18.585937 27.484376-31.28125 2.285156-3.355468 2.839843-7.839843.59375-11.222656-2.191407-3.308594-5.617188-5.066406-9.496094-4.402344-1.953125-.203124-14.53125-2.339843-36.117188-23.921874-8.9375-8.9375-21.894531-14.066407-35.546875-14.066407-7.824219 0-15.480469 1.75-22.265625 4.996094-22.632812-22.558594-52.6875-34.984375-84.667968-34.984375-66.140626 0-119.953126 53.8125-119.953126 119.957031v79.96875c0 32.054688 12.476563 62.175781 35.132813 84.820313 7.523437 7.527344 15.875 13.921875 24.84375 19.117187v56.003907h-41.304687l-99.304688-146.699219c-5.578125-8.242188-14.878906-13.164063-24.882812-13.164063-5.992188 0-11.785157 1.777344-16.757813 5.136719-6.617187 4.472656-11.097656 11.28125-12.617187 19.160156-1.519532 7.882813.109374 15.871094 4.589843 22.480469l87.792969 129.699219c-23.46875 16.769531-37.46875 43.925781-37.46875 72.734375v52.601562c0 5.519532 4.476562 9.996094 9.996094 9.996094h379.621094c5.519531 0 9.996093-4.476562 9.996093-9.996094v-52.601562c0-28.59375-13.757812-55.304688-36.492187-72.027344l88.265625-130.402344c4.480469-6.613281 6.109375-14.601562 4.589843-22.480468zm-136.089843-72.226563v-18.480469c6.910156-.742187 13.902343-2.792968 20.832031-6.105468 1.082031 10.675781 3.09375 18.722656 5.308594 24.691406-9.484375.96875-18.296875.933594-26.140625-.105469zm8.386719-93.890625c14.085937 14.085938 25.601562 21.570312 34.210937 25.515625-6.054687 7.449219-12.304687 13.644531-18.667969 18.496094-8.253906 6.292969-16.328125 10.058593-24.101562 11.28125-.847656-16.199219-4.886719-31.746094-12.039063-46.285157-2.71875-5.574218-5.898437-10.929687-9.472656-16.027343 2.761719-.765625 5.675781-1.1875 8.660156-1.1875 8.269531 0 16.269531 3.070312 21.410157 8.207031zm-128.339844-38.195312c26.707031 0 51.808594 10.398437 70.699218 29.296874 1.53125 1.523438 3.085938 3.1875 4.632813 4.960938 5.777344 6.613281 10.640625 13.921875 14.460937 21.742188 6.195313 12.601562 9.578126 26.101562 10.09375 40.1875-35.140624-11.117188-70.445312-16.503907-105.15625-15.996094-5.519531.082031-9.929687 4.625-9.847656 10.144531.078125 5.46875 4.539063 9.847656 9.992188 9.847656h.148437c34.550781-.515625 69.824219 5.230469 104.941407 17.050781v62.699219c0 4.722657-.339844 9.367188-.976563 13.917969l-54.671875-9.890625c-30.09375-5.441406-60.605469-5.390625-90.6875.15625l-52.636719 9.695313c-.628906-4.5625-.957031-9.195313-.957031-13.878907v-62.753906c5.867188-2.023437 11.765625-3.875 17.609375-5.527344 5.3125-1.503906 8.402344-7.027343 6.898437-12.339843-1.503906-5.3125-7.027343-8.402344-12.339843-6.898438-4.011719 1.132812-8.050781 2.363281-12.085938 3.664062 2.050781-53.324218 46.0625-96.078124 99.882813-96.078124zm-94.292969 213.273437 51.546875-9.492187c27.695312-5.109376 55.789062-5.15625 83.503906-.144532l53.46875 9.671875c-13.769531 38.757813-50.808594 66.589844-94.226562 66.589844-15.882813 0-31.195313-3.679687-44.96875-10.632813-.269532-.152343-.546875-.296874-.832032-.429687-9.070312-4.6875-17.460937-10.792969-24.886718-18.222656-10.722656-10.71875-18.707032-23.449219-23.605469-37.339844zm94.292969 86.617187c14.011718 0 27.46875-2.425781 39.984375-6.863281v53.097657l-41.957031 48.105468-38.015626-47.847656v-53.292969c12.671876 4.46875 26.148438 6.800781 39.988282 6.800781zm-235.214844-91.796874c.507812-2.636719 1.992188-4.902344 4.179688-6.382813 1.652343-1.113281 3.574218-1.707031 5.5625-1.707031 3.359374 0 6.472656 1.636718 8.324218 4.375l92.476563 136.609375c-7 1.105469-13.78125 3.019531-20.261719 5.730469l-88.769531-131.136719c-1.484375-2.191407-2.019531-4.851563-1.511719-7.488281zm55.273438 221.128906c0-22.46875 10.976562-43.648438 29.367187-56.664063 2.25-1.597656 4.574219-3.039062 6.976563-4.324219 8.296874-4.523437 17.308593-7.246093 26.789062-8.089843 2.066406-.183594 4.164062-.277344 6.230469-.277344h3.988281.042969 51.738281l88.953125 111.957031h-134.109375v-41.984375c0-5.519531-4.476562-9.996093-9.996094-9.996093-5.519531 0-9.996094 4.476562-9.996094 9.996093v41.984375h-59.984374zm359.628906 0v42.605468h-59.734375v-41.984374c0-5.523438-4.476563-10-9.996094-10s-9.996094 4.476562-9.996094 10v41.984374h-40.28125l-49.007812-61.679687 43.851562-50.28125h53.214844.054687 2.550782c11.902344 0 23.644531 3.066406 33.949218 8.871094 21.832032 12.292969 35.394532 35.46875 35.394532 60.484375zm55.210937-213.636719-89.09375 131.625c-6.433593-2.777344-13.179687-4.789063-20.089843-5.992187l92.628906-136.839844c1.855468-2.738282 4.96875-4.375 8.328125-4.375 1.984375 0 3.90625.589844 5.554687 1.707031 2.191406 1.480469 3.679688 3.746094 4.1875 6.382813.507813 2.636718-.03125 5.296874-1.515625 7.492187zm0 0"/><path d="m202.492188 177.003906 2.5-2.496094c5.746093-5.75 15.101562-5.75 20.847656 0l2.5 2.496094c1.953125 1.953125 4.511718 2.929688 7.066406 2.929688 2.558594 0 5.117188-.976563 7.070312-2.929688 3.902344-3.902344 3.902344-10.230468 0-14.136718l-2.5-2.5c-13.542968-13.542969-35.582031-13.542969-49.125 0l-2.5 2.5c-3.902343 3.902343-3.902343 10.234374 0 14.136718 3.90625 3.90625 10.234376 3.90625 14.140626 0zm0 0"/><path d="m282.214844 177.003906 2.496094-2.496094c5.75-5.75 15.101562-5.75 20.851562 0l2.496094 2.496094c1.953125 1.953125 4.511718 2.929688 7.070312 2.929688s5.117188-.976563 7.070313-2.929688c3.902343-3.902344 3.902343-10.230468 0-14.136718l-2.5-2.5c-13.546875-13.542969-35.582031-13.542969-49.125 0l-2.5 2.5c-3.902344 3.902343-3.902344 10.234374 0 14.136718 3.90625 3.90625 10.234375 3.90625 14.140625 0zm0 0"/><path d="m200.394531 117.773438c.25.613281.5625 1.191406.921875 1.730468.359375.550782.777344 1.058594 1.238282 1.519532.460937.460937.96875.878906 1.519531 1.242187.539062.359375 1.121093.667969 1.730469.917969.597656.25 1.230468.449218 1.867187.570312.640625.128906 1.300781.199219 1.949219.199219.648437 0 1.3125-.070313 1.960937-.199219.640625-.121094 1.257813-.320312 1.867188-.570312.601562-.25 1.179687-.558594 1.722656-.917969.546875-.363281 1.058594-.78125 1.519531-1.242187.457032-.460938.878906-.96875 1.25-1.519532.359375-.539062.667969-1.117187.917969-1.730468.25-.597657.441406-1.226563.570313-1.867188.128906-.640625.1875-1.300781.1875-1.949219 0-.648437-.058594-1.308593-.1875-1.949219-.128907-.640624-.320313-1.269531-.570313-1.871093-.25-.609375-.558594-1.1875-.917969-1.726563-.371094-.550781-.792968-1.0625-1.25-1.519531-.460937-.460937-.972656-.882813-1.519531-1.242187-.542969-.367188-1.121094-.667969-1.722656-.917969-.609375-.25-1.226563-.449219-1.867188-.582031-1.289062-.25-2.621093-.25-3.910156 0-.636719.132812-1.269531.332031-1.867187.582031-.609376.25-1.191407.550781-1.730469.917969-.550781.359374-1.058594.78125-1.519531 1.242187-.460938.457031-.878907.96875-1.238282 1.519531-.359375.539063-.671875 1.117188-.921875 1.726563-.25.601562-.4375 1.230469-.566406 1.871093-.132813.640626-.199219 1.300782-.199219 1.949219 0 .648438.066406 1.308594.199219 1.949219.128906.640625.316406 1.269531.566406 1.867188zm0 0"/></svg>