<svg height="512pt" viewBox="0 0 512 512.00248" width="512pt" xmlns="http://www.w3.org/2000/svg"><path d="m501.953125 10.039062-143.722656 245.957032 143.722656 245.960937-245.957031-143.722656-245.957032 143.722656 143.722657-245.960937-143.722657-245.957032 245.957032 143.722657zm0 0" fill="#383e4b"/><path d="m316.257812 255.996094c0 33.28125-26.980468 60.261718-60.261718 60.261718s-60.257813-26.980468-60.257813-60.261718c0-33.277344 26.976563-60.257813 60.257813-60.257813s60.261718 26.980469 60.261718 60.257813zm0 0" fill="#ff5d5d"/><path d="m276.082031 255.996094c0 11.09375-8.992187 20.089844-20.085937 20.089844s-20.085938-8.996094-20.085938-20.089844 8.992188-20.085938 20.085938-20.085938 20.085937 8.992188 20.085937 20.085938zm0 0" fill="#77e5ab"/><path d="m509.65625 508.398438c.117188-.140626.226562-.285157.335938-.429688.070312-.097656.144531-.195312.214843-.292969.105469-.15625.207031-.3125.304688-.472656.058593-.089844.113281-.183594.167969-.28125.09375-.167969.1875-.335937.269531-.507813.042969-.082031.082031-.167968.121093-.253906.082032-.183594.167969-.371094.242188-.558594.007812-.019531.011719-.035156.019531-.054687.164063-.429687.292969-.867187.398438-1.308594.015625-.078125.039062-.152343.054687-.226562.035156-.175781.0625-.347657.089844-.523438.019531-.121093.039062-.242187.050781-.363281.019531-.164062.03125-.328125.042969-.488281.011719-.136719.015625-.277344.019531-.414063.003907-.152344.007813-.308594.003907-.464844-.003907-.144531-.011719-.292968-.019532-.441406-.011718-.148437-.019531-.296875-.035156-.441406-.015625-.160156-.042969-.316406-.066406-.476562-.039063-.230469-.082032-.460938-.132813-.6875-.039062-.179688-.078125-.355469-.128906-.53125-.046875-.160157-.105469-.320313-.160156-.484376-.042969-.117187-.082031-.238281-.125-.359374-.0625-.164063-.136719-.324219-.207031-.488282-.050782-.113281-.101563-.222656-.15625-.335937-.078126-.160157-.164063-.316407-.25-.472657-.03125-.050781-.054688-.101562-.085938-.152343l-140.761719-240.890625 140.761719-240.890625c.03125-.054688.058594-.109375.089844-.164063.078125-.140625.148437-.277344.21875-.417968.070312-.136719.132812-.277344.195312-.414063.058594-.136719.121094-.269531.175782-.410156.0625-.164063.117187-.328125.171874-.492188.039063-.117187.082032-.234375.117188-.351562.082031-.285157.15625-.574219.214844-.863281.003906-.019532.003906-.039063.007812-.054688.050782-.28125.09375-.558594.121094-.839844.011719-.089844.015625-.183594.023438-.273437.015624-.210938.027343-.414063.03125-.625 0-.109375 0-.21875-.003907-.328125 0-.191406-.007812-.378906-.023437-.570313-.007813-.117187-.019532-.234375-.03125-.351562-.019532-.183594-.046875-.367188-.078125-.546875-.019531-.117188-.035157-.234375-.058594-.351563-.039063-.199219-.089844-.390625-.140625-.589843-.027344-.09375-.046875-.191407-.074219-.289063-.082031-.273437-.175781-.542969-.28125-.808594-.046875-.117187-.101562-.230469-.152343-.347656-.070313-.160156-.140626-.324219-.21875-.480469-.0625-.121094-.128907-.238281-.191407-.355468-.085937-.15625-.175781-.304688-.269531-.457032-.066406-.109375-.136719-.21875-.210938-.328125-.109374-.160156-.226562-.316406-.347656-.472656-.070312-.089844-.136718-.179687-.207031-.269531-.171875-.210938-.355469-.410156-.546875-.609375-.027344-.027344-.050781-.058594-.074219-.082031-.003906-.003907-.007812-.007813-.011719-.011719-.003906-.003907-.007812-.007813-.011718-.011719-.21875-.21875-.449219-.425781-.6875-.625-.082032-.0625-.164063-.125-.246094-.1875-.164062-.128906-.328125-.253906-.496094-.367188-.105468-.074218-.210937-.140624-.320312-.210937-.152344-.09375-.304688-.1875-.460938-.273437-.113281-.066407-.230468-.128907-.351562-.1875-.15625-.082032-.316406-.152344-.476563-.226563-.117187-.050781-.230469-.105469-.351562-.152344-.203125-.078125-.40625-.148437-.613281-.214843-.101563-.035157-.203126-.070313-.308594-.101563-.253906-.070313-.511719-.136719-.769532-.1875-.105468-.023437-.210937-.035156-.316406-.054687-.191406-.035157-.382812-.0625005-.578125-.085938-.113281-.0117188-.226562-.0195312-.339843-.03125-.191407-.015625-.382813-.0234375-.574219-.02734375-.109375-.00390625-.21875-.00390625-.328125-.00390625-.203125.00390625-.402344.0117188-.605469.0273438-.097656.0078124-.199219.0117187-.296875.0234374-.230469.0234376-.460938.0585938-.6875.0976568-.070312.011718-.140625.019531-.210938.03125-.289062.058593-.578124.125-.867187.210937-.101563.027344-.203125.066406-.304687.101563-.179688.054687-.359376.117187-.539063.183593-.136719.054688-.265625.113281-.398437.171875-.144532.0625-.285157.125-.425782.195313-.140625.070312-.277344.144531-.414062.21875-.0625.035156-.132813.066406-.195313.105469l-240.898437 140.761718-240.890625-140.761718c-.050781-.027344-.101563-.050782-.15625-.082032-.152344-.085937-.308594-.171875-.46875-.25-.113281-.054687-.226563-.105468-.34375-.15625-.15625-.070312-.316407-.144531-.480469-.207031-.125-.046875-.25-.089844-.375-.132813-.15625-.050781-.3125-.109374-.46875-.152343-.203125-.058594-.414062-.105469-.621094-.152344-.191406-.042969-.386718-.078125-.578125-.105469-.167969-.027344-.332031-.0546872-.5-.0742185-.140625-.015625-.285156-.0195313-.429687-.03125-.152344-.0117187-.304688-.01953125-.453125-.0234375-.152344 0-.304688 0-.457031.00390625-.140626.00390625-.28125.01171875-.421876.01953125-.160156.0117187-.320312.0234375-.480468.0429687-.125.015625-.246094.0351558-.371094.0546878-.171875.027344-.34375.054687-.519531.089844-.074219.015624-.152344.039062-.230469.054687-.445312.105469-.886719.234375-1.316406.402344-.011719.003906-.027344.007812-.039063.011719-.195312.074218-.382812.164062-.570312.25-.082031.039062-.164063.074218-.242188.113281-.175781.085937-.347656.179687-.519531.277343-.089844.050782-.179688.105469-.269531.160157-.164063.101562-.320313.203125-.480469.3125-.09375.066406-.183594.132812-.273438.199219-.152343.117187-.304687.226562-.449218.351562-.082032.066406-.160156.144531-.238282.214844-.140624.125-.285156.242187-.417968.375-.132813.136718-.253906.28125-.375.417968-.074219.082032-.148438.15625-.21875.238282-.121094.148437-.234375.300781-.347656.453125-.066407.089843-.136719.179687-.199219.273437-.109375.15625-.214844.316406-.3125.480469-.054688.085937-.109375.175781-.160157.269531-.097656.167969-.191406.339844-.277343.515625-.039063.078125-.078125.164063-.117188.246094-.085937.1875-.171875.375-.246093.566406-.007813.015625-.011719.03125-.015626.046875-.164062.429688-.292968.867188-.398437 1.308594-.019531.078125-.039063.15625-.054687.234375-.039063.171875-.0625.34375-.089844.515625-.019532.125-.0390628.25-.0546878.371094-.015625.164062-.03125.320312-.0390624.484375-.0117188.140625-.0195313.277343-.02343755.417969-.00390625.152343-.00390625.304687 0 .460937 0 .148437.01171875.296875.01953125.449219.0078125.144531.015625.289062.03125.433594.0195313.164062.0468745.328124.0703125.492187.035156.207031.074219.414063.117188.621094.042968.195312.089843.390625.144531.582031.042969.160156.101562.316406.15625.472656.042969.125.082031.25.128906.375.0625.160156.132813.320313.207031.480469.050782.113281.101563.226563.15625.339844.078125.160156.160156.316406.25.46875.027344.054687.050782.105469.082032.160156l140.761718 240.890625-140.761718 240.886719c-.03125.054687-.054688.105469-.082032.160156-.085937.152344-.171875.308594-.25.46875-.054687.113281-.105468.226563-.15625.339844-.074218.160156-.144531.320312-.207031.480469-.046875.125-.085937.25-.128906.375-.054688.15625-.113281.3125-.15625.472656-.054688.191406-.101563.386718-.144531.582031-.042969.203125-.082032.414063-.117188.621094-.023438.164062-.0507812.328125-.0703125.492187-.015625.144532-.0234375.289063-.03125.433594-.0078125.152344-.01953125.300781-.01953125.449219-.00390625.152343-.00390625.308593 0 .460937.00390625.140625.01171875.277344.02343755.417969.0078124.160156.0234374.320313.0390624.484375.015625.121094.0351558.246094.0546878.367188.027344.175781.050781.347656.089844.519531.015624.078125.039062.15625.054687.234375.105469.441406.234375.875.398437 1.304687.003907.015625.011719.035157.015626.050781.074218.191407.160156.378907.246093.566407.039063.082031.078125.164062.117188.246093.085937.175782.179687.347657.277343.515626.050782.089843.105469.179687.160157.269531.097656.164062.203125.324219.3125.480469.0625.09375.132812.183593.199219.273437.113281.152344.226562.304687.351562.453125.066406.082031.144531.15625.214844.238281.121094.136719.242187.28125.375.417969.136718.132812.28125.253906.421875.378906.078125.070313.152343.144532.234375.210938.148437.125.300781.238281.453125.351562.089843.066406.179687.132813.269531.199219.160156.109375.320312.210937.480469.3125.089843.054687.183593.109375.273437.160156.167969.097657.339844.191407.511719.277344.085937.039063.167969.078125.253906.117187.1875.085938.371094.167969.558594.242188.027344.011719.054687.019531.082031.027344.40625.15625.820313.277344 1.238282.378906.09375.023438.1875.046875.277343.066406.164063.035156.332031.058594.496094.085938.132813.019531.265625.042968.398437.058594.152344.015624.304688.027343.460938.039062.144531.011719.292969.019531.441406.023438.085938 0 .167969.011718.25.011718.0625 0 .125-.007812.1875-.011718.160156 0 .320313-.011719.480469-.023438.136719-.007812.273437-.015625.40625-.027344.179687-.019531.359375-.050781.539063-.078125.132812-.023437.265624-.039062.398437-.066406.257813-.054687.515625-.117187.769531-.1875.152344-.042969.304688-.101563.453125-.152344.132813-.042969.261719-.085937.390625-.136719.164063-.0625.320313-.132812.476563-.203124.117187-.050782.230469-.101563.347656-.160157.15625-.078125.3125-.160156.464844-.246093.054687-.03125.105469-.054688.160156-.085938l240.890625-140.757812 240.890625 140.757812c.035156.023438.070313.035156.105469.054688.730468.417968 1.503906.738281 2.296875.957031.070312.019531.144531.035156.21875.050781.324219.082031.652343.148438.984375.195312.085937.015626.175781.027344.261718.039063.398438.046875.800782.082031 1.203126.082031 2.570312 0 5.140624-.984375 7.101562-2.941406.117188-.121094.21875-.246094.328125-.367188.089844-.097656.179687-.195312.265625-.296874zm-248.59375-345.964844 177.914062-103.960938-26.097656 25.9375c-3.933594 3.910156-3.953125 10.269532-.042968 14.203125 1.964843 1.976563 4.542968 2.964844 7.125 2.964844 2.558593 0 5.121093-.976563 7.078124-2.921875l27.433594-27.265625-104.910156 179.539063c-1.832031 3.132812-1.832031 7.007812 0 10.136718l104.441406 178.734375-141.722656-141.722656c8.800781-11.738281 14.019531-26.3125 14.019531-42.078125 0-15.917969-5.324219-30.609375-14.277343-42.40625l58.257812-57.988281c3.933594-3.914063 3.949219-10.273438.035156-14.203125-3.914062-3.933594-10.273437-3.945313-14.203125-.035156l-58.375 58.105468c-11.679687-8.648437-26.121093-13.777344-41.742187-13.777344-15.765625 0-30.339844 5.21875-42.078125 14.019532l-141.722657-141.722656 178.734376 104.441406c3.128906 1.828125 7.003906 1.828125 10.132812 0zm-55.28125 93.5625c0-27.6875 22.527344-50.214844 50.214844-50.214844 27.691406 0 50.21875 22.527344 50.21875 50.214844 0 27.691406-22.527344 50.21875-50.21875 50.21875-27.6875 0-50.214844-22.527344-50.214844-50.21875zm-43.347656-5.066406-104.441406-178.734376 141.71875 141.722657c-8.800782 11.738281-14.019532 26.3125-14.019532 42.078125 0 15.769531 5.21875 30.339844 14.019532 42.082031l-141.71875 141.722656 104.4375-178.734375c1.832031-3.132812 1.832031-7.003906.003906-10.136718zm93.5625 97.261718c-1.75 0-3.5.457032-5.066406 1.371094l-178.734376 104.441406 141.722657-141.722656c11.738281 8.800781 26.3125 14.019531 42.078125 14.019531 15.769531 0 30.339844-5.21875 42.078125-14.019531l141.722656 141.722656-178.734375-104.441406c-1.566406-.914062-3.316406-1.371094-5.066406-1.371094zm0 0"/><path d="m286.125 255.996094c0-16.613282-13.515625-30.128906-30.128906-30.128906-16.613282 0-30.128906 13.515624-30.128906 30.128906 0 16.613281 13.515624 30.132812 30.128906 30.132812 16.613281 0 30.128906-13.519531 30.128906-30.132812zm-40.171875 0c0-5.535156 4.503906-10.042969 10.042969-10.042969 5.539062 0 10.042968 4.507813 10.042968 10.042969 0 5.539062-4.503906 10.042968-10.042968 10.042968-5.539063 0-10.042969-4.503906-10.042969-10.042968zm0 0"/><path d="m386.027344 128.425781c.542968.363281 1.125.675781 1.738281.925781.601563.25 1.234375.441407 1.875.570313.644531.132813 1.308594.203125 1.957031.203125.65625 0 1.320313-.070312 1.96875-.203125.632813-.128906 1.269532-.320313 1.878906-.570313.605469-.25 1.1875-.5625 1.726563-.925781.554687-.359375 1.066406-.78125 1.527344-1.242187 1.871093-1.871094 2.945312-4.460938 2.945312-7.101563 0-.652343-.0625-1.316406-.191406-1.96875-.128906-.644531-.320313-1.265625-.570313-1.878906-.253906-.601563-.5625-1.183594-.925781-1.726563-.371093-.554687-.792969-1.066406-1.253906-1.527343-.464844-.472657-.976563-.882813-1.527344-1.253907-.542969-.363281-1.125-.675781-1.730469-.925781-.609374-.25-1.242187-.441406-1.875-.570312-1.296874-.261719-2.632812-.261719-3.929687 0-.640625.128906-1.273437.320312-1.875.570312-.613281.25-1.195313.5625-1.738281.925781-.550782.371094-1.066406.78125-1.527344 1.253907-.460938.460937-.882812.972656-1.246094 1.527343-.359375.542969-.671875 1.125-.921875 1.726563-.25.613281-.441406 1.234375-.574219 1.878906-.128906.652344-.199218 1.316407-.199218 1.96875 0 2.640625 1.074218 5.230469 2.941406 7.101563.460938.460937.976562.882812 1.527344 1.242187zm0 0"/></svg>