<svg height="511pt" viewBox="-36 1 511 511.99899" width="511pt" xmlns="http://www.w3.org/2000/svg"><path d="m268.089844 93.722656-15.121094 40.4375c-10.582031-2.875-21.722656-4.40625-33.214844-4.40625-11.492187 0-22.632812 1.53125-33.214844 4.40625l-15.121093-40.4375 48.335937-83.703125zm0 0" fill="#e3f7f7"/><path d="m180.539062 280.238281-68.203124 42.140625c-5.863282-9.46875-10.503907-19.746094-13.707032-30.660156-3.335937-11.320312-5.132812-23.304688-5.132812-35.707031 0-12.457031 1.804687-24.488281 5.171875-35.851563 3.214843-10.902344 7.863281-21.191406 13.738281-30.640625l68.152344 42.214844c-9.1875 14.808594-9.1875 33.695313-.019532 48.503906zm0 0" fill="#707c96"/><path d="m219.753906 302.101562v80.164063c-11.523437 0-22.675781-1.542969-33.273437-4.4375-20.050781-5.449219-38.105469-15.730469-52.855469-29.507813-8.183594-7.644531-15.359375-16.371093-21.289062-25.941406l68.203124-42.140625c1.832032 2.976563 4.046876 5.78125 6.621094 8.355469 9.007813 9.007812 20.800782 13.507812 32.59375 13.507812zm0 0" fill="#4c5b7c"/><path d="m327.113281 322.480469c-5.921875 9.546875-13.09375 18.253906-21.269531 25.878906-14.738281 13.757813-32.785156 24.019531-52.804688 29.480469-10.609374 2.882812-21.773437 4.425781-33.285156 4.425781v-80.164063c11.792969 0 23.585938-4.5 32.59375-13.507812 2.566406-2.566406 4.769532-5.359375 6.601563-8.328125zm0 0" fill="#707c96"/><path d="m346.011719 256.011719c0 12.472656-1.8125 24.527343-5.191407 35.910156-3.214843 10.878906-7.863281 21.128906-13.707031 30.558594l-68.164062-42.214844c9.191406-14.796875 9.191406-33.683594.023437-48.503906l68.191406-42.132813c5.839844 9.429688 10.492188 19.699219 13.695313 30.582032 3.359375 11.351562 5.152344 23.363281 5.152344 35.800781zm0 0" fill="#4c5b7c"/><path d="m327.164062 189.628906-68.191406 42.132813c-1.84375-2.964844-4.050781-5.78125-6.625-8.355469-9.007812-8.996094-20.800781-13.496094-32.59375-13.496094v-80.15625c11.492188 0 22.632813 1.53125 33.214844 4.40625 20.089844 5.472656 38.183594 15.773438 52.964844 29.578125 8.164062 7.636719 15.320312 16.34375 21.230468 25.890625zm0 0" fill="#707c96"/><path d="m219.753906 129.753906v80.15625c-11.792968 0-23.585937 4.5-32.59375 13.496094-2.566406 2.574219-4.769531 5.371094-6.601562 8.328125l-68.152344-42.214844c5.941406-9.566406 13.125-18.285156 21.320312-25.921875 14.75-13.734375 32.785157-23.984375 52.8125-29.4375 10.582032-2.875 21.722657-4.40625 33.214844-4.40625zm0 0" fill="#4c5b7c"/><path d="m258.949219 280.265625c-1.832031 2.96875-4.035157 5.761719-6.601563 8.328125-9.007812 9.007812-20.800781 13.507812-32.59375 13.507812-11.792968 0-23.585937-4.5-32.59375-13.507812-2.574218-2.574219-4.789062-5.378906-6.621094-8.355469-9.167968-14.808593-9.167968-33.695312.019532-48.503906 1.832031-2.957031 4.035156-5.753906 6.601562-8.328125 9.007813-8.996094 20.800782-13.496094 32.59375-13.496094 11.792969 0 23.585938 4.5 32.59375 13.496094 2.574219 2.574219 4.78125 5.390625 6.625 8.355469 9.167969 14.820312 9.167969 33.707031-.023437 48.503906zm0 0" fill="#ff5d5d"/><g fill="#e3f7f7"><path d="m429.003906 126.699219-45.800781 85.113281-42.34375 8.398438c-3.203125-10.882813-7.855469-21.152344-13.695313-30.582032-5.910156-9.546875-13.066406-18.253906-21.230468-25.890625l26.46875-34.15625zm0 0"/><path d="m133.625 348.320312-26.519531 34.097657-96.601563 2.882812 45.800782-85.113281 42.324218-8.46875c3.203125 10.914062 7.84375 21.191406 13.707032 30.660156 5.929687 9.570313 13.105468 18.296875 21.289062 25.941406zm0 0"/><path d="m428.882812 385.503906-96.609374-2.988281-26.429688-34.15625c8.175781-7.625 15.347656-16.332031 21.269531-25.878906 5.84375-9.429688 10.492188-19.679688 13.707031-30.558594l42.34375 8.425781zm0 0"/><path d="m133.726562 163.597656c-8.195312 7.636719-15.378906 16.355469-21.320312 25.921875-5.875 9.449219-10.523438 19.738281-13.738281 30.640625l-42.324219-8.507812-45.71875-85.15625 96.609375 2.988281zm0 0"/><path d="m268.089844 418.277344-48.335938 83.703125-48.335937-83.703125 15.0625-40.449219c10.597656 2.894531 21.75 4.4375 33.273437 4.4375 11.511719 0 22.675782-1.542969 33.285156-4.425781zm0 0"/></g><path d="m392.027344 216.5625 45.796875-85.117188c.027343-.046874.042969-.101562.070312-.148437.148438-.292969.285157-.589844.40625-.890625.042969-.105469.082031-.210938.121094-.316406.117187-.328125.222656-.664063.304687-1 .011719-.046875.027344-.089844.039063-.132813.085937-.378906.144531-.761719.1875-1.148437.011719-.105469.019531-.210938.027344-.320313.023437-.300781.035156-.597656.03125-.902343 0-.101563 0-.199219-.003907-.300782-.03125-.789062-.15625-1.574218-.378906-2.347656-.027344-.09375-.058594-.183594-.085937-.273438-.09375-.292968-.199219-.582031-.320313-.867187-.046875-.105469-.089844-.210937-.136718-.3125-.148438-.3125-.308594-.621094-.488282-.921875-.027344-.042969-.042968-.089844-.070312-.132812-.003906-.007813-.011719-.015626-.019532-.023438-.003906-.011719-.011718-.023438-.015624-.035156-.214844-.335938-.445313-.652344-.691407-.957032-.054687-.066406-.113281-.132812-.171875-.195312-.21875-.257812-.445312-.503906-.683594-.734375-.058593-.054687-.113281-.109375-.171874-.164063-.621094-.566406-1.296876-1.050781-2.019532-1.4375-.011718-.003906-.019531-.007812-.03125-.015624-.347656-.1875-.707031-.347657-1.074218-.492188-.050782-.019531-.105469-.039062-.160157-.0625-.769531-.285156-1.570312-.476562-2.386719-.570312-.074218-.007813-.144531-.007813-.21875-.015626-.335937-.03125-.671874-.042968-1.011718-.039062-.054688 0-.109375-.007812-.167969-.003906l-96.597656 2.882812c-2.992188.089844-5.789063 1.511719-7.621094 3.878906l-19.964844 25.757813c-11.566406-9.214844-24.542969-16.453125-38.457031-21.449219l11.410156-30.523437c1.046875-2.800781.789063-5.925781-.707031-8.515625l-48.335937-83.703125c-.027344-.050781-.0625-.09375-.09375-.140625-.167969-.28125-.347657-.550782-.539063-.808594-.0625-.085938-.125-.167969-.1875-.253906-.246094-.308594-.5-.605469-.78125-.882813-.015625-.015625-.03125-.027343-.046875-.042969-.265625-.261718-.546875-.503906-.839844-.730468-.082031-.066406-.171875-.132813-.257812-.195313-.25-.183593-.507813-.355469-.773438-.515625-.074218-.046875-.148437-.09375-.226562-.140625-.347656-.195312-.710938-.378906-1.082032-.535156-.003906 0-.003906 0-.003906 0-.363281-.152344-.738281-.273437-1.117187-.382813-.09375-.023437-.191407-.046874-.285157-.070312-.300781-.078125-.605468-.136719-.914062-.183594-.105469-.019531-.207031-.035156-.316406-.050781-.394532-.046875-.796875-.078125-1.210938-.078125-.410156 0-.8125.03125-1.214844.0820312-.105468.0117188-.207031.0312498-.316406.0468748-.308594.046875-.613281.109375-.910156.183594-.097656.023438-.191406.046875-.289062.074219-.378907.105469-.753907.230469-1.113282.378906h-.003906c-.375.15625-.734375.339844-1.082031.539063-.078125.042968-.152344.089843-.230469.136718-.265625.160156-.519531.332032-.769531.515625-.089844.0625-.175781.128907-.261719.195313-.289062.230468-.570312.472656-.835938.730468-.015624.015626-.03125.027344-.050781.042969-.277343.277344-.535156.578125-.777343.886719-.066407.082031-.125.164062-.1875.25-.195313.261719-.375.527344-.542969.808594-.027344.046875-.0625.089844-.09375.140625l-48.332031 83.703125c-1.496094 2.589844-1.753907 5.714844-.707032 8.515625l11.410156 30.523437c-13.851562 4.972656-26.773437 12.167969-38.304687 21.328125l-19.992187-25.746093c-1.832032-2.359376-4.617188-3.777344-7.601563-3.867188l-96.609375-2.988281c-.058594 0-.117188.007812-.175781.007812-.3125-.003906-.625.007813-.9375.03125-.121094.011719-.242188.019531-.363281.03125-.351563.042969-.703126.097657-1.046876.175781-.097656.023438-.191406.050782-.289062.074219-.300781.078125-.597656.167969-.890625.277344-.132813.046875-.261719.097656-.390625.152344-.25.101562-.496094.214843-.738281.335937-.105469.054688-.210938.101563-.316407.160156-.339843.1875-.671874.390626-.988281.617188-.023437.019531-.046875.039062-.074219.058594-.292968.214844-.570312.445312-.84375.691406-.078124.074219-.152343.148438-.230468.222656-.21875.210938-.425782.433594-.625.664063-.070313.085937-.144532.164062-.210938.25-.25.316406-.488281.640625-.707031.992187-.214844.347656-.402344.707032-.570313 1.074219-.042968.09375-.082031.195313-.125.289063-.121093.289062-.230468.582031-.324218.875-.03125.09375-.0625.1875-.085938.28125-.109375.382812-.203125.761718-.265625 1.148437v.003906c-.0625.402344-.097656.800781-.113281 1.203125-.003906.089844-.003906.179688-.003906.269532-.003906.308593.007812.613281.03125.921874.007812.109376.015625.21875.027344.328126.042968.363281.101562.726562.179687 1.082031.007813.027343.007813.054687.015625.078125.089844.382812.207031.753906.339844 1.125.035156.101562.078125.199218.117187.300781.117188.292969.25.585937.394531.867187.027344.054688.046876.109376.074219.164063l45.71875 85.15625c1.414063 2.632813 3.925781 4.496094 6.855469 5.082031l32.023438 6.4375c-1.929688 9.1875-2.917969 18.597656-2.917969 28.097656 0 9.445313.980469 18.804688 2.886719 27.945313l-32.023438 6.40625c-2.929688.585937-5.445312 2.445313-6.859375 5.078125l-45.800781 85.113281c-.027344.050781-.042969.109375-.070313.160157-.148437.285156-.28125.578124-.398437.875-.039063.097656-.082032.199218-.117188.296874-.132812.367188-.253906.742188-.34375 1.125-.003906.023438-.007812.050782-.011718.074219-.082032.359375-.140626.71875-.179688 1.085938-.011719.109375-.019531.21875-.03125.328125-.023438.308594-.035156.613281-.03125.921875 0 .089843 0 .179687.003906.269531.011719.402344.046875.804688.113282 1.203125v.007813c.0625.382812.152343.765624.261718 1.144531.027344.09375.058594.1875.089844.285156.089844.292969.199219.582031.320312.871094.042969.097656.082032.195312.125.292969.171876.367187.355469.726562.570313 1.074218.230469.375.484375.730469.757813 1.0625.1875.226563.390624.433594.589843.640625.09375.097657.183594.203125.28125.296875.234375.226563.488281.425782.742188.621094.078125.0625.148437.132812.230469.195312.246093.179688.507812.335938.773437.496094.097656.058594.195313.128906.296875.1875.238281.128906.488281.238282.734375.347656.136719.0625.269531.136719.410156.195313.226563.089844.460938.15625.695313.226563.167968.054687.335937.121093.507812.164062.253906.066406.507813.105469.765625.152344.15625.027344.3125.066406.472657.089844.421874.054687.847656.082031 1.277343.082031.011719 0 .019531-.003907.03125-.003907.085938 0 .171875 0 .257813-.003906l96.597656-2.882812c2.988281-.089844 5.777344-1.507813 7.613281-3.863282l20.007813-25.726562c11.542968 9.195312 24.492187 16.414062 38.371094 21.40625l-11.363282 30.53125c-1.042968 2.800781-.78125 5.921875.710938 8.507812l48.332031 83.699219c.027344.050781.0625.09375.09375.140625.167969.28125.347656.550782.539063.808594.0625.085938.125.167969.1875.25.246093.308594.503906.609375.78125.886719.015624.015625.03125.027343.050781.042969.261719.257812.542969.5.835937.730468.082032.066406.171875.128906.257813.195313.25.183593.507812.355469.773437.515625.074219.042968.148438.09375.226563.136718.351562.199219.710937.378907 1.085937.535157 0 0 0 .003906.003906.003906.359376.148437.734376.269531 1.113282.378906.09375.027344.191406.050781.289062.074219.296875.074219.601563.136719.910156.183594.105469.015625.210938.035156.316407.046875.398437.050781.800781.082031 1.214843.082031.410157 0 .8125-.03125 1.210938-.082031.105469-.011719.210938-.03125.316406-.046875.308594-.046875.613282-.109375.914063-.183594.09375-.023438.191406-.046875.285156-.074219.382813-.105469.753906-.230469 1.117187-.378906 0-.003906 0-.003906.003907-.003906.371093-.15625.734375-.335938 1.082031-.535157.078125-.042968.152344-.09375.226562-.136718.265626-.160156.523438-.332032.773438-.515625.085938-.0625.175781-.128907.261719-.195313.289062-.230468.570312-.472656.835937-.730468.015625-.015626.03125-.027344.046875-.042969.28125-.277344.535157-.578125.78125-.886719.0625-.082031.125-.164062.1875-.25.191407-.261719.371094-.527344.539063-.808594.03125-.046875.066406-.089844.09375-.140625l48.335937-83.703125c1.492188-2.585937 1.753907-5.703125.714844-8.503906l-11.363281-30.53125c13.851562-4.980469 26.777344-12.183594 38.304687-21.351562l19.929688 25.75c1.828125 2.367187 4.621093 3.792968 7.613281 3.882812l96.609375 2.984375c.089844.003906.179687.007813.269531.007813h.03125c.425782 0 .851563-.027344 1.273438-.082032.164062-.023437.320312-.0625.484375-.09375.25-.042968.503906-.082031.75-.144531.179687-.046875.355469-.113281.527343-.167969.226563-.074218.453126-.136718.675782-.222656.148437-.058594.289062-.136719.433594-.203125.238281-.109375.480468-.214844.710937-.339844.113281-.0625.21875-.140625.328125-.207031.25-.148438.503906-.300781.738281-.472656.09375-.066406.175781-.148438.265625-.21875.242188-.191406.484375-.378906.710938-.59375.105468-.105469.203125-.222656.304687-.332032.191407-.195312.386719-.390624.5625-.605468.273438-.335938.527344-.6875.761719-1.0625.214844-.347656.398438-.710938.566406-1.074219.046875-.097656.085938-.195313.128906-.292969.121094-.289062.230469-.578125.324219-.871094.027344-.09375.058594-.1875.085938-.285156.109375-.378906.203125-.761718.265625-1.148437 0 0 0 0 0-.003907.0625-.398437.097656-.800781.113281-1.203124.003906-.089844 0-.175782.003906-.265626.003907-.308593-.007812-.617187-.03125-.925781-.011719-.109375-.015625-.21875-.03125-.328125-.039062-.367187-.097656-.730468-.179687-1.09375-.003906-.019531-.007813-.042968-.011719-.066406-.089844-.382812-.207031-.753906-.339844-1.125-.039062-.101562-.078125-.195312-.117187-.292969-.117188-.300781-.25-.59375-.398438-.878906-.027344-.054687-.042968-.109375-.070312-.160156l-45.722656-85.15625c-1.414063-2.636719-3.933594-4.5-6.871094-5.085938l-32.011719-6.371093c1.933594-9.199219 2.921875-18.625 2.921875-28.136719 0-9.472657-.980469-18.859375-2.898438-28.019531l32.019532-6.351563c2.9375-.582031 5.457031-2.445313 6.875-5.078125zm-92.242188 123.824219c-.023437.015625-.050781.03125-.074218.050781-.488282.375-.921876.792969-1.320313 1.238281-13.582031 12.519531-29.898437 21.5625-47.710937 26.429688-.144532.035156-.289063.078125-.4375.121093-6.640626 1.789063-13.484376 2.992188-20.46875 3.585938v-60.59375c11.171874-2.003906 21.460937-7.339844 29.660156-15.539062.679687-.683594 1.335937-1.386719 1.980468-2.097657l51.527344 31.910157c-3.996094 5.375-8.398437 10.355468-13.15625 14.894531zm-110.515625 27.839843c-.148437-.039062-.292969-.082031-.441406-.121093-17.832031-4.871094-34.167969-13.933594-47.757813-26.480469-.390624-.429688-.816406-.84375-1.292968-1.214844-.023438-.019531-.054688-.035156-.082032-.054687-4.773437-4.550781-9.183593-9.550781-13.191406-14.949219l51.558594-31.859375c.652344.726563 1.320312 1.441406 2.011719 2.132813 8.199219 8.199218 18.488281 13.535156 29.660156 15.539062v60.59375c-6.984375-.59375-13.828125-1.796875-20.464844-3.585938zm-85.753906-112.214843c0-18.335938 4.3125-36.277344 12.507813-52.464844l51.523437 31.910156c-5.128906 13.136719-5.132813 27.910157-.019531 41.042969l-51.558594 31.855469c-8.160156-16.15625-12.453125-34.058594-12.453125-52.34375zm36.300781-84.457031c.015625-.015626.035156-.027344.054688-.039063.460937-.359375.871094-.753906 1.25-1.167969 13.609375-12.546875 29.964844-21.601562 47.816406-26.460937.117188-.03125.238281-.066407.355469-.101563 6.632812-1.78125 13.464843-2.984375 20.441406-3.574218v60.582031c-11.167969 2.003906-21.460937 7.339843-29.671875 15.542969-.675781.679687-1.328125 1.378906-1.964844 2.085937l-51.519531-31.910156c4.019531-5.402344 8.449219-10.40625 13.238281-14.957031zm110.628906 65.472656v.003906c.003907 0 .003907 0 .003907.003906h.003906c7.136719 11.542969 7.132813 26.4375-.023437 37.964844-1.445313 2.335938-3.183594 4.527344-5.167969 6.511719-6.816407 6.816406-15.875 10.570312-25.507813 10.570312-9.632812 0-18.691406-3.753906-25.507812-10.570312-1.996094-2-3.738282-4.195313-5.1875-6.546875-7.140625-11.53125-7.132813-26.425782.015625-37.949219 1.449219-2.339844 3.195312-4.539063 5.167969-6.519531 6.824218-6.8125 15.882812-10.566406 25.515624-10.566406 9.628907 0 18.691407 3.753906 25.507813 10.558593 1.960937 1.964844 3.707031 4.171875 5.179687 6.539063zm21.519532 39.515625c5.121094-13.125 5.128906-27.890625.011718-41.039063l51.558594-31.851562c8.164063 16.152344 12.457032 34.0625 12.457032 52.355468 0 18.316407-4.308594 36.253907-12.5 52.441407zm-10.519532-58.085938c-.65625-.730469-1.324218-1.445312-2.015624-2.140625-8.199219-8.191406-18.488282-13.519531-29.65625-15.523437v-60.582031c6.925781.585937 13.714843 1.773437 20.304687 3.535156.160156.050781.324219.097656.488281.136718 17.917969 4.875 34.328125 13.976563 47.964844 26.597657.382812.417969.800781.820312 1.265625 1.179687.015625.011719.027344.019532.042969.03125 4.761718 4.542969 9.160156 9.53125 13.15625 14.914063zm-14.769531-96.074219c-5.539062-1.101562-11.183593-1.863281-16.902343-2.273437v-72.703125l27.277343 47.234375zm-64.214843-27.742187 27.273437-47.234375v72.703125c-5.71875.410156-11.363281 1.171875-16.902344 2.273437zm-62.101563 68.082031c-3.867187 4.140625-7.496094 8.546875-10.875 13.203125l-61.789063-38.257812 54.515626 1.683593zm-57.417969 40.039063-25.800781-48.0625 61.785156 38.257812c-2.648437 5.074219-4.960937 10.296875-6.945312 15.640625zm-.046875 106.324219 29.035157-5.808594c1.976562 5.347656 4.285156 10.574218 6.929687 15.652344l-61.8125 38.195312zm39.195313 63.457031-54.507813 1.628906 61.820313-38.199219c3.371094 4.660156 6.996094 9.070313 10.859375 13.214844zm90.683594 17.085937c5.558593 1.105469 11.222656 1.871094 16.960937 2.285156v72.679688l-27.28125-47.242188zm64.28125 27.722656-27.28125 47.242188v-72.679688c5.742187-.414062 11.402343-1.179687 16.960937-2.289062zm62.140624-68.105468c3.855469-4.128906 7.472657-8.527344 10.839844-13.171875l61.777344 38.257812-54.507812-1.683593zm57.375-39.996094 25.796876 48.046875-61.777344-38.257813c2.636718-5.050781 4.941406-10.253906 6.917968-15.574218zm-29.019531-100.582031c-3.121093-8.4375-7.078125-16.578125-11.855469-24.289063-.003906-.007812-.003906-.011718-.007812-.015625 0-.003906-.003906-.003906-.003906-.007812 0 0-.003906-.003907-.003906-.003907l.003906.003907c-4.824219-7.789063-10.328125-14.964844-16.402344-21.488281l18.144531-23.410157 55.007813-1.644531-17.683594 11.097656c-4.6875 2.9375-6.101562 9.125-3.160156 13.8125 1.902344 3.03125 5.160156 4.695313 8.496094 4.695313 1.820312 0 3.660156-.496094 5.316406-1.535157l16.808594-10.546874-25.59375 47.566406zm0 0"/><path d="m363.015625 169.199219c-.253906-.601563-.5625-1.179688-.921875-1.722657-.371094-.550781-.792969-1.0625-1.253906-1.523437-.460938-.460937-.972656-.878906-1.523438-1.25-.539062-.363281-1.121094-.671875-1.722656-.921875-.613281-.25-1.242188-.441406-1.882812-.574219-1.292969-.257812-2.617188-.257812-3.910157 0-.640625.132813-1.269531.324219-1.871093.574219-.613282.25-1.195313.558594-1.734376.921875-.550781.371094-1.0625.789063-1.523437 1.25-1.863281 1.863281-2.933594 4.449219-2.933594 7.085937 0 .648438.066407 1.3125.199219 1.953126.128906.640624.320312 1.273437.570312 1.875.25.609374.5625 1.191406.921876 1.730468.359374.550782.78125 1.0625 1.242187 1.523438.460937.460937.972656.882812 1.523437 1.242187.539063.363281 1.121094.671875 1.734376.921875.601562.25 1.230468.441406 1.871093.570313.644531.132812 1.304688.203125 1.957031.203125.648438 0 1.3125-.070313 1.953126-.203125.640624-.128907 1.269531-.320313 1.882812-.570313.601562-.25 1.183594-.558594 1.722656-.921875.550782-.359375 1.0625-.78125 1.523438-1.242187.460937-.460938.882812-.972656 1.253906-1.523438.359375-.539062.667969-1.121094.921875-1.730468.25-.601563.4375-1.234376.558594-1.875.132812-.640626.203125-1.304688.203125-1.953126 0-.652343-.070313-1.3125-.203125-1.964843-.121094-.632813-.308594-1.261719-.558594-1.875zm0 0"/></svg>