<svg height="511pt" viewBox="0 0 511.99977 511" width="511pt" xmlns="http://www.w3.org/2000/svg"><path d="m497.53125 38.949219-305.113281 323.945312-42.808594-42.8125 323.941406-305.121093c15.953125-13.988282 37.980469 8.027343 23.980469 23.988281zm0 0" fill="#e3f7f7"/><path d="m79.261719 477.910156-15.328125 15.332032c-12.335938 12.335937-32.339844 12.335937-44.675782 0-12.335937-12.335938-12.335937-32.335938 0-44.683594l15.324219-15.320313zm0 0" fill="#ff5d5d"/><path d="m107.78125 449.390625-28.519531 28.519531-44.679688-44.671875 28.527344-28.527343zm0 0" fill="#707c96"/><path d="m63.113281 404.691406 28.527344-28.515625 44.671875 44.683594-28.527344 28.519531zm0 0" fill="#4c5b7c"/><path d="m91.625 376.1875 28.519531-28.519531 44.683594 44.683593-28.519531 28.519532zm0 0" fill="#707c96"/><path d="m220.921875 419.925781c-3.917969 3.917969-9.085937 5.882813-14.257813 5.875-5.171874.007813-10.339843-1.957031-14.257812-5.875l-24.792969-24.789062v-.011719l-44.683593-44.671875-30.351563-30.351563c-7.847656-7.847656-7.847656-20.683593 0-28.53125 3.917969-3.917968 9.089844-5.882812 14.257813-5.871093 5.171874-.011719 10.34375 1.953125 14.261718 5.871093l31.292969 31.296876 68.53125 68.53125c7.847656 7.84375 7.847656 20.683593 0 28.527343zm0 0" fill="#4c5b7c"/><path d="m503.859375 8.640625c-8.890625-8.890625-24.425781-12.164063-36.917969-1.210937-.089844.078124-.175781.15625-.265625.238281l-316.859375 298.449219-21.632812-21.628907c-5.683594-5.683593-13.25-8.8125-21.289063-8.8125-.027343 0-.058593 0-.082031 0-8.070312 0-15.636719 3.128907-21.320312 8.8125-5.6875 5.683594-8.816407 13.265625-8.816407 21.347657 0 8.078124 3.128907 15.660156 8.816407 21.34375l20.488281 20.488281s-78.480469 78.476562-78.480469 78.480469c-.003906.003906-15.332031 15.332031-15.332031 15.332031-16.222657 16.222656-16.222657 42.625 0 58.847656 8.113281 8.113281 18.769531 12.171875 29.425781 12.171875s21.3125-4.058594 29.425781-12.171875l15.320313-15.320313c.003906 0 57.046875-57.042968 57.046875-57.042968 0-.003906 21.445312-21.445313 21.445312-21.445313l20.488281 20.488281c5.679688 5.679688 13.25 8.808594 21.289063 8.808594h.085937c8.066407 0 15.636719-3.128906 21.316407-8.808594 5.6875-5.6875 8.820312-13.269531 8.820312-21.347656 0-8.082031-3.132812-15.660156-8.820312-21.347656l-21.628907-21.628906 111.78125-118.679688c3.792969-4.027344 3.605469-10.371094-.425781-14.164062-4.027343-3.796875-10.371093-3.605469-14.164062.421875l-111.371094 118.242187-28.207031-28.207031 316.273437-297.898437c4.382813-3.738282 8.042969-.964844 9.417969.414062 1.378906 1.375 4.152344 5.035156.410156 9.417969l-131.222656 139.320312c-3.796875 4.03125-3.605469 10.371094.421875 14.167969 4.03125 3.792969 10.371094 3.601562 14.167969-.425781l131.367187-139.472657c.078125-.085937.160157-.171874.238281-.261718 10.953126-12.492188 7.679688-28.027344-1.210937-36.917969zm-396.074219 426.578125-30.507812-30.507812 14.351562-14.347657 30.507813 30.507813zm-28.519531 28.523438-30.507813-30.507813 14.347657-14.351563 30.511719 30.511719zm-52.925781 22.417968c-8.410156-8.414062-8.410156-22.097656 0-30.507812l8.246094-8.246094 30.507812 30.507812-8.246094 8.246094c-8.410156 8.410156-22.09375 8.410156-30.507812 0zm109.96875-79.460937-30.507813-30.507813 14.351563-14.351562 30.503906 30.507812zm77.53125 6.136719c-1.894532 1.898437-4.433594 2.941406-7.171875 2.941406-.011719 0-.023438 0-.03125 0-2.710938 0-5.25-1.042969-7.144531-2.941406l-27.570313-27.570313c-.003906 0-.003906 0-.003906-.003906-.003907 0-.003907-.003907-.007813-.003907l-72.246094-72.25c-1.902343-1.902343-2.949218-4.449218-2.949218-7.175781 0-2.722656 1.046875-5.273437 2.949218-7.171875 1.898438-1.898437 4.433594-2.941406 7.171876-2.941406h.03125c2.710937 0 5.25 1.042969 7.148437 2.941406l99.824219 99.824219c3.957031 3.957031 3.957031 10.394531 0 14.351563zm0 0"/><path d="m346.960938 205.550781c-.25-.601562-.558594-1.183593-.921876-1.722656-.359374-.550781-.78125-1.0625-1.242187-1.523437-.460937-.460938-.980469-.882813-1.523437-1.253907-.550782-.359375-1.132813-.671875-1.734376-.921875-.601562-.25-1.230468-.441406-1.871093-.570312-1.292969-.261719-2.625-.261719-3.917969 0-.644531.128906-1.273438.320312-1.875.570312s-1.191406.5625-1.734375.921875c-.539063.371094-1.0625.792969-1.523437 1.253907-.460938.460937-.878907.972656-1.242188 1.523437-.359375.539063-.671875 1.121094-.921875 1.722656-.25.609375-.441406 1.242188-.570313 1.882813-.128906.640625-.1875 1.304687-.1875 1.953125 0 .652343.058594 1.3125.1875 1.957031.128907.640625.320313 1.269531.570313 1.871094.25.613281.5625 1.195312.921875 1.734375.363281.550781.78125 1.0625 1.242188 1.523437.460937.460938.984374.882813 1.523437 1.242188.542969.363281 1.132813.671875 1.734375.921875s1.230469.441406 1.875.570312c.648438.132813 1.300781.203125 1.953125.203125.660156 0 1.3125-.070312 1.964844-.203125.640625-.128906 1.273437-.320312 1.871093-.570312.605469-.25 1.183594-.558594 1.734376-.921875.542968-.359375 1.0625-.78125 1.523437-1.242188.460937-.460937.882813-.972656 1.242187-1.523437.363282-.539063.671876-1.121094.921876-1.734375.25-.601563.441406-1.230469.570312-1.871094.132812-.644531.191406-1.304688.191406-1.957031 0-.648438-.058594-1.3125-.191406-1.953125-.128906-.640625-.320312-1.273438-.570312-1.882813zm0 0"/></svg>