<svg height="511pt" viewBox="0 -1 511.99993 511" width="511pt" xmlns="http://www.w3.org/2000/svg"><path d="m499.117188 29.863281-265.480469 301.421875-54.742188-54.742187 303.832031-263.25c11.003907-9.011719 25.535157 5.675781 16.390626 16.570312zm0 0" fill="#e3f7f7"/><path d="m121.1875 332.148438 28.316406-28.324219 56.722656 56.707031-28.316406 28.324219zm0 0" fill="#4c5b7c"/><path d="m92.882812 360.433594 28.324219-28.316406 56.703125 56.722656-28.320312 28.316406zm0 0" fill="#707c96"/><path d="m64.542969 388.796875 28.320312-28.328125 56.71875 56.703125-28.320312 28.328125zm0 0" fill="#4c5b7c"/><path d="m121.269531 445.496094-28.328125 28.316406-28.347656-28.359375-28.355469-28.355469 28.316407-28.316406zm0 0" fill="#707c96"/><path d="m64.59375 445.453125-42.835938 42.828125c-15.660156-15.660156-15.660156-41.054688 0-56.714844l14.480469-14.46875zm0 0" fill="#77e5ab"/><path d="m92.941406 473.8125-14.46875 14.46875c-7.832031 7.832031-18.082031 11.746094-28.355468 11.746094-10.265626 0-20.527344-3.914063-28.359376-11.746094l42.835938-42.828125zm0 0" fill="#ff5d5d"/><path d="m396.421875 346.03125c0 5.128906-1.941406 10.265625-5.835937 14.160156l-38.179688 38.179688c-29.789062 29.789062-78.535156 29.789062-108.324219 0l-134.769531-134.765625c-28.488281-28.488281-28.496094-75.109375 0-103.609375l40.183594-40.183594c7.480468-7.476562 19.597656-8.28125 27.597656-1.371094 4.617188 3.996094 6.917969 9.59375 6.917969 15.179688 0 5.128906-1.941407 10.265625-5.835938 14.160156l-36.289062 36.289062c-15.308594 15.308594-15.308594 40.152344 0 55.460938l127.679687 127.679688c15.839844 15.839843 41.515625 15.839843 57.355469 0l34.984375-34.984376c7.480469-7.480468 19.597656-8.28125 27.597656-1.375 4.617188 3.996094 6.917969 9.59375 6.917969 15.179688zm0 0" fill="#97b6bf"/><path d="m296.519531 219.644531c-.25-.609375-.558593-1.191406-.921875-1.730469-.359375-.550781-.78125-1.0625-1.242187-1.523437-.457031-.460937-.96875-.882813-1.519531-1.242187-.542969-.359376-1.121094-.671876-1.734376-.921876-.597656-.25-1.230468-.449218-1.871093-.570312-1.292969-.257812-2.613281-.257812-3.90625 0-.640625.121094-1.269531.320312-1.871094.570312-.609375.25-1.191406.5625-1.734375.921876-.550781.359374-1.058594.78125-1.519531 1.242187-.460938.460937-.882813.972656-1.242188 1.523437-.359375.539063-.671875 1.121094-.921875 1.730469-.25.601563-.449218 1.230469-.570312 1.871094-.128906.644531-.199219 1.304687-.199219 1.953125 0 .652344.070313 1.3125.199219 1.953125.121094.640625.320312 1.273437.570312 1.875.25.609375.5625 1.191406.921875 1.730469.359375.550781.78125 1.0625 1.242188 1.523437.460937.460938.96875.878907 1.519531 1.238281.542969.363282 1.125.671876 1.734375.921876.601563.25 1.230469.453124 1.871094.582031.640625.121093 1.304687.191406 1.953125.191406.652344 0 1.3125-.070313 1.953125-.191406.640625-.128907 1.273437-.332031 1.871093-.582031.613282-.25 1.191407-.558594 1.734376-.921876.550781-.359374 1.0625-.777343 1.519531-1.238281.460937-.460937.882812-.972656 1.242187-1.523437.363282-.539063.671875-1.121094.921875-1.730469.25-.601563.449219-1.234375.570313-1.875.132812-.640625.203125-1.300781.203125-1.953125 0-.648438-.070313-1.308594-.203125-1.953125-.117188-.640625-.320313-1.269531-.570313-1.871094zm0 0"/><path d="m505.601562 7.074219c-8.0625-8.152344-20.351562-8.796875-29.21875-1.523438-.070312.054688-.140624.113281-.210937.175781l-296.789063 257.144532-30.414062-30.417969c-11.390625-11.386719-11.390625-29.917969 0-41.308594l36.285156-36.285156c5.664063-5.664063 8.777344-13.210937 8.765625-21.230469.011719-8.746094-3.773437-17.042968-10.382812-22.761718-11.84375-10.226563-29.945313-9.410157-41.21875 1.863281l-40.183594 40.179687c-32.46875 32.472656-32.46875 85.304688 0 117.777344l33.121094 33.121094-120.675781 120.679687c-9.464844 9.464844-14.679688 22.050781-14.679688 35.4375 0 13.382813 5.210938 25.964844 14.671875 35.429688.003906.003906.003906.007812.007813.011719.003906 0 .007812.003906.007812.007812 9.464844 9.460938 22.046875 14.667969 35.429688 14.667969 13.386718 0 25.972656-5.214844 35.4375-14.679688l14.46875-14.46875s0 0 .003906-.003906c0 0 .003906-.003906.003906-.003906l106.203125-106.203125 30.761719 30.765625c16.304687 16.300781 38.054687 25.277343 61.246094 25.277343 23.195312 0 44.945312-8.976562 61.246093-25.277343l38.175781-38.175781c5.667969-5.664063 8.78125-13.214844 8.769532-21.230469.011718-8.746094-3.773438-17.042969-10.386719-22.761719-11.839844-10.230469-29.945313-9.410156-41.21875 1.863281l-34.992187 34.988281c-5.769532 5.773438-13.4375 8.949219-21.59375 8.949219s-15.824219-3.175781-21.59375-8.949219l-29.289063-29.285156 259.277344-294.359375c.050781-.0625.105469-.125.15625-.183593 7.367187-8.785157 6.867187-21.078126-1.191407-29.230469zm-356.011718 395.933593-42.554688-42.554687 14.160156-14.160156 42.554688 42.550781zm-28.320313 28.320313-42.554687-42.554687 14.160156-14.160157 42.554688 42.554688zm-28.324219 28.320313-42.550781-42.550782 14.160157-14.164062 42.554687 42.554687zm-64.105468-21 7.390625-7.390626 14.199219 14.195313-27.464844 27.464844c-1.921875-4.003907-2.9375-8.417969-2.9375-12.992188 0-8.035156 3.128906-15.59375 8.8125-21.277343zm21.277344 51.367187c-4.570313 0-8.988282-1.015625-12.992188-2.933594l27.464844-27.46875 14.195312 14.199219-7.390625 7.390625c-5.683593 5.683594-13.242187 8.8125-21.277343 8.8125zm127.792968-115.332031-42.550781-42.550782 14.160156-14.160156 42.554688 42.550782zm120.332032 14.425781c13.507812 0 26.207031-5.261719 35.757812-14.8125l34.992188-34.992187c3.890624-3.890626 10.023437-4.273438 13.960937-.875 2.230469 1.933593 3.457031 4.625 3.453125 7.617187.003906 2.679687-1.027344 5.191406-2.902344 7.066406l-38.175781 38.175781c-12.519531 12.519532-29.242187 19.414063-47.085937 19.414063s-34.566407-6.894531-47.082032-19.414063l-37.84375-37.84375s-.003906-.003906-.003906-.003906l-56.710938-56.707031c0-.003906 0-.003906 0-.003906-.003906-.003907-.003906-.003907-.003906-.003907l-40.199218-40.199218c-24.664063-24.664063-24.664063-64.792969 0-89.453125l40.179687-40.183594c2.113281-2.113281 4.886719-3.191406 7.613281-3.191406 2.292969 0 4.550782.765625 6.347656 2.316406 2.230469 1.933594 3.460938 4.628906 3.453126 7.617187.003906 2.679688-1.023438 5.191407-2.898438 7.066407l-36.289062 36.285156c-19.195313 19.199219-19.195313 50.433594 0 69.632813l127.683593 127.679687c9.550781 9.550781 22.25 14.8125 35.753907 14.8125zm193.28125-365.761719-258.351563 293.308594-12.359375-12.359375 45.277344-45.285156c3.910156-3.914063 3.910156-10.253907 0-14.164063-3.910156-3.90625-10.25-3.90625-14.160156.003906l-45.277344 45.285157-13.070313-13.070313 295.59375-256.109375c.515625-.414062 1.164063-.832031 2.183594.199219 1.027344 1.039062.605469 1.65625.164063 2.191406zm0 0"/></svg>