<svg height="512pt" viewBox="-66 0 512 512.00002" width="512pt" xmlns="http://www.w3.org/2000/svg"><path d="m130.292969 269.457031c0 5.53125-2.246094 10.542969-5.875 14.171875-3.628907 3.628906-8.636719 5.871094-14.171875 5.871094h-80.179688c-11.074218 0-20.042968-8.96875-20.042968-20.042969 0-5.53125 2.242187-10.542969 5.871093-14.171875 3.628907-3.628906 8.640625-5.875 14.171875-5.875h80.179688c11.074218 0 20.046875 8.972656 20.046875 20.046875zm0 0" fill="#4c5b7c"/><path d="m110.246094 449.859375v12.027344c0 22.140625-17.949219 40.089843-40.089844 40.089843-11.0625 0-21.085938-4.488281-28.34375-11.746093-7.253906-7.253907-11.746094-17.277344-11.746094-28.34375v-12.027344zm0 0" fill="#ff5d5d"/><path d="m30.066406 409.769531h80.179688v40.089844h-80.179688zm0 0" fill="#4c5b7c"/><path d="m30.066406 369.679688h80.179688v40.089843h-80.179688zm0 0" fill="#707c96"/><path d="m30.066406 329.589844h80.179688v40.089844h-80.179688zm0 0" fill="#4c5b7c"/><path d="m30.066406 289.5h80.179688v40.089844h-80.179688zm0 0" fill="#707c96"/><path d="m370.832031 269.457031c0 5.53125-2.246093 10.542969-5.875 14.171875-3.628906 3.628906-8.640625 5.871094-14.171875 5.871094h-80.179687c-11.074219 0-20.042969-8.96875-20.042969-20.042969 0-5.53125 2.242188-10.542969 5.871094-14.171875s8.640625-5.875 14.171875-5.875h80.179687c11.074219 0 20.046875 8.972656 20.046875 20.046875zm0 0" fill="#4c5b7c"/><path d="m350.785156 449.859375v12.027344c0 22.140625-17.949218 40.089843-40.089844 40.089843-11.0625 0-21.085937-4.488281-28.34375-11.746093-7.253906-7.253907-11.746093-17.277344-11.746093-28.34375v-12.027344zm0 0" fill="#ff5d5d"/><path d="m270.605469 409.769531h80.179687v40.089844h-80.179687zm0 0" fill="#4c5b7c"/><path d="m270.605469 369.679688h80.179687v40.089843h-80.179687zm0 0" fill="#707c96"/><path d="m270.605469 329.589844h80.179687v40.089844h-80.179687zm0 0" fill="#4c5b7c"/><path d="m270.605469 289.5h80.179687v40.089844h-80.179687zm0 0" fill="#707c96"/><path d="m380.851562 269.457031c0-16.578125-13.488281-30.066406-30.066406-30.066406h-30.066406v-109.097656c0-71.84375-58.449219-130.292969-130.292969-130.292969s-130.292969 58.449219-130.292969 130.292969c0 5.535156 4.488282 10.019531 10.023438 10.019531s10.023438-4.484375 10.023438-10.019531c0-60.792969 49.457031-110.25 110.246093-110.25 60.789063 0 110.246094 49.457031 110.246094 110.25v109.097656h-30.066406c-16.578125 0-30.066407 13.488281-30.066407 30.066406 0 13.066407 8.378907 24.207031 20.042969 28.34375v164.085938c0 27.632812 22.480469 50.113281 50.113281 50.113281 27.632813 0 50.113282-22.480469 50.113282-50.113281v-164.085938c11.664062-4.140625 20.042968-15.277343 20.042968-28.34375zm-40.089843 30.066407v20.046874h-60.132813v-20.046874zm-60.132813 60.136718v-20.046875h60.132813v20.046875zm60.132813 20.042969v20.046875h-60.132813v-20.046875zm-60.132813 40.089844h60.132813v20.046875h-60.132813zm30.066406 72.164062c-16.578124 0-30.066406-13.488281-30.066406-30.070312v-2.003907h60.132813v2.003907c0 16.582031-13.488281 30.070312-30.066407 30.070312zm40.089844-212.476562h-80.179687c-5.527344 0-10.023438-4.496094-10.023438-10.023438 0-5.527343 4.496094-10.023437 10.023438-10.023437h80.179687c5.527344 0 10.023438 4.496094 10.023438 10.023437 0 5.527344-4.496094 10.023438-10.023438 10.023438zm0 0"/><path d="m110.246094 239.390625h-30.066406v-30.070313c0-5.535156-4.488282-10.019531-10.023438-10.019531s-10.023438 4.484375-10.023438 10.019531v30.070313h-30.066406c-16.578125 0-30.066406 13.488281-30.066406 30.066406 0 13.066407 8.378906 24.207031 20.042969 28.34375v164.085938c0 27.632812 22.480469 50.113281 50.113281 50.113281s50.113281-22.480469 50.113281-50.113281v-164.085938c11.664063-4.136719 20.042969-15.277343 20.042969-28.34375 0-16.578125-13.488281-30.066406-30.066406-30.066406zm-10.023438 60.132813v20.046874h-60.132812v-20.046874zm-60.132812 60.136718v-20.046875h60.132812v20.046875zm60.132812 20.042969v20.046875h-60.132812v-20.046875zm-60.132812 40.089844h60.132812v20.046875h-60.132812zm30.066406 72.164062c-16.578125 0-30.066406-13.488281-30.066406-30.070312v-2.003907h60.132812v2.003907c0 16.582031-13.488281 30.070312-30.066406 30.070312zm40.089844-212.476562h-80.179688c-5.527344 0-10.023437-4.496094-10.023437-10.023438 0-5.527343 4.496093-10.023437 10.023437-10.023437h80.179688c5.527344 0 10.023437 4.496094 10.023437 10.023437 0 5.527344-4.496093 10.023438-10.023437 10.023438zm0 0"/><path d="m60.828125 173.832031c.25.601563.558594 1.183594.921875 1.722657.371094.550781.78125 1.0625 1.242188 1.523437 1.863281 1.875 4.449218 2.9375 7.085937 2.9375.660156 0 1.3125-.058594 1.964844-.191406.640625-.128907 1.269531-.320313 1.871093-.570313.601563-.25 1.183594-.5625 1.734376-.921875.542968-.371093 1.0625-.792969 1.523437-1.253906 1.863281-1.863281 2.925781-4.4375 2.925781-7.085937 0-.652344-.058594-1.3125-.1875-1.953126-.132812-.640624-.320312-1.273437-.574218-1.875-.25-.609374-.558594-1.191406-.921876-1.734374-.371093-.550782-.78125-1.0625-1.242187-1.523438s-.980469-.882812-1.523437-1.242188c-.550782-.359374-1.132813-.671874-1.734376-.921874-.601562-.25-1.230468-.441407-1.871093-.570313-3.257813-.664063-6.726563.410156-9.050781 2.734375-.460938.460938-.871094.972656-1.242188 1.523438-.363281.542968-.671875 1.125-.921875 1.734374-.253906.601563-.441406 1.234376-.574219 1.875-.128906.640626-.1875 1.300782-.1875 1.953126 0 .652343.058594 1.3125.1875 1.964843.132813.632813.320313 1.265625.574219 1.875zm0 0"/></svg>