<svg height="511pt" viewBox="0 0 511.99987 511" width="511pt" xmlns="http://www.w3.org/2000/svg"><path d="m502.011719 149.925781-44.066407 109.886719 44.066407 109.886719-109.890625-44.0625-109.886719 44.0625 44.0625-109.886719-44.0625-109.886719 109.886719 44.0625zm0 0" fill="#fade76"/><path d="m409.007812 242.9375c9.316407 9.316406 9.316407 24.4375 0 33.753906-9.324218 9.324219-24.4375 9.3125-33.753906 0-9.324218-9.328125-9.324218-24.429687 0-33.753906 9.316406-9.316406 24.429688-9.324219 33.753906 0zm0 0" fill="#4c5b7c"/><path d="m229.761719 10.492188-44.066407 109.886718 44.066407 109.886719-109.886719-44.0625-109.890625 44.0625 44.066406-109.886719-44.066406-109.886718 109.890625 44.0625zm0 0" fill="#ff5d5d"/><path d="m136.757812 103.503906c9.316407 9.3125 9.316407 24.4375 0 33.75-9.324218 9.324219-24.4375 9.316406-33.753906 0-9.324218-9.324218-9.324218-24.425781 0-33.75 9.316406-9.316406 24.429688-9.328125 33.753906 0zm0 0" fill="#4c5b7c"/><path d="m229.761719 282.191406-44.066407 109.886719 44.066407 109.890625-109.886719-44.066406-109.890625 44.066406 44.066406-109.890625-44.066406-109.886719 109.890625 44.066406zm0 0" fill="#77e5ab"/><path d="m136.757812 375.203125c9.316407 9.316406 9.316407 24.4375 0 33.753906-9.324218 9.324219-24.4375 9.316407-33.753906 0-9.324218-9.324219-9.324218-24.429687 0-33.753906 9.316406-9.316406 24.429688-9.324219 33.753906 0zm0 0" fill="#4c5b7c"/><path d="m511.382812 373.167969c.019532-.058594.042969-.121094.0625-.179688.144532-.417969.269532-.84375.359376-1.277343v-.003907c.089843-.445312.144531-.890625.175781-1.339843.003906-.066407.003906-.132813.007812-.199219.042969-.910157-.035156-1.820313-.242187-2.710938-.007813-.042969-.019532-.089843-.03125-.132812-.125-.519531-.289063-1.03125-.5-1.527344l-42.496094-105.984375 42.535156-106.070312c.183594-.445313.324219-.902344.4375-1.367188.023438-.089844.046875-.175781.066406-.265625.09375-.421875.167969-.847656.207032-1.277344.003906-.058593.003906-.113281.007812-.167969.027344-.378906.03125-.757812.015625-1.136718-.003906-.105469-.007812-.207032-.015625-.3125-.03125-.421875-.082031-.84375-.164062-1.261719-.007813-.042969-.023438-.085937-.03125-.132813-.085938-.382812-.191406-.761718-.320313-1.136718-.03125-.085938-.058593-.171875-.089843-.253906-.152344-.410157-.324219-.8125-.535157-1.203126-.007812-.019531-.019531-.035156-.03125-.054687-.195312-.363281-.417969-.710937-.664062-1.050781-.058594-.085938-.121094-.171875-.1875-.253906-.265625-.347657-.550781-.6875-.867188-1.007813 0-.003906-.003906-.003906-.003906-.003906 0-.003907-.003906-.003907-.007813-.007813-.316406-.316406-.652343-.597656-1-.863281-.085937-.0625-.167968-.125-.253906-.1875-.347656-.246094-.699218-.472656-1.066406-.671875-.011719-.007812-.023438-.015625-.039062-.023438-.390626-.210937-.792969-.382812-1.203126-.535156-.085937-.03125-.167968-.0625-.253906-.089844-.378906-.128906-.761718-.242187-1.152344-.324218-.039062-.007813-.078124-.019532-.117187-.027344-.417969-.085938-.839844-.136719-1.261719-.164062-.105468-.007813-.210937-.011719-.3125-.015626-.382812-.015624-.765625-.011718-1.148437.015626-.050781.003906-.101563.003906-.152344.007812-.429687.039062-.855469.109375-1.277344.207031-.09375.019531-.183593.042969-.273437.066407-.457032.113281-.910156.253906-1.347656.433593l-106.089844 42.542969-105.980469-42.5c-.5-.210938-1.011719-.375-1.53125-.5-.042969-.011719-.082031-.019531-.125-.03125-.898437-.203125-1.816406-.285156-2.730469-.242188-.058594.003907-.113281.003907-.167968.007813-.902344.0625-1.792969.242187-2.65625.542969-.050782.019531-.097657.035156-.148438.054687-.832031.304688-1.628906.726563-2.371094 1.261719-.074218.050781-.148437.105469-.21875.160156-.355468.269532-.699218.558594-1.023437.878906-.320313.320313-.601563.660157-.871094 1.011719-.066406.085938-.128906.175781-.195313.265625-.234374.332032-.457031.671875-.648437 1.023438-.015625.027344-.03125.054687-.046875.078125-.203125.382812-.371094.777343-.519531 1.175781-.039063.101562-.074219.203125-.105469.304688-.117188.347656-.21875.695312-.296875 1.046874-.015625.074219-.035156.144532-.050781.214844-.078125.398438-.128906.800782-.15625 1.199219-.011719.136719-.015625.273437-.019532.410156-.011718.324219-.007812.648438.011719.972657.007813.105468.007813.207031.015625.308593.039063.402344.105469.796875.191406 1.191407.027344.128906.0625.257812.09375.386718.097657.363282.207032.722656.34375 1.078125.015626.042969.023438.085938.042969.128907l42.570313 106.167968-42.570313 106.164063c-.019531.042969-.027343.085937-.042969.128906-.136718.355469-.246093.714844-.34375 1.078125-.03125.128906-.066406.257812-.09375.386719-.085937.394531-.152343.789062-.191406 1.191406-.007812.101563-.007812.207031-.015625.308594-.019531.324219-.023437.648437-.011719.972656.003907.136719.007813.273437.019532.410156.027344.402344.078125.800781.15625 1.199219.015625.070312.035156.140625.050781.214844.078125.351562.179687.703125.296875 1.046875.035156.101562.066406.203125.105469.304687.148437.398438.316406.792969.519531 1.171875.015625.027344.03125.054688.046875.082031.191406.351563.414063.691407.648437 1.023438.066407.089844.128907.179688.195313.265625.265625.347656.550781.6875.871094 1.007813.320312.324218.667969.609374 1.019531.878906.074219.054687.148438.109375.226562.164062.738282.53125 1.53125.953125 2.355469 1.257813.058594.019531.113281.039062.171875.058593.855469.296876 1.738282.480469 2.628906.539063.066407.003906.132813.003906.199219.007813.15625.007812.3125.023437.46875.023437.753907 0 1.503907-.09375 2.238281-.261719.046876-.011718.09375-.023437.136719-.035156.519531-.125 1.027344-.289062 1.527344-.5l105.984375-42.496094 106.164062 42.570313c1.207032.484375 2.46875.71875 3.71875.71875.929688 0 1.851563-.136719 2.738282-.390625.039062-.007813.082031-.015625.121094-.027344.171874-.050781.34375-.117188.515624-.179688.136719-.050781.277344-.089843.410157-.144531.113281-.046875.21875-.105469.328125-.15625.191406-.082031.378906-.164062.5625-.261719.089844-.046874.175781-.105468.265625-.15625.195312-.109374.390625-.21875.582031-.34375.132812-.089843.257812-.191406.386719-.285156.136719-.101562.28125-.195312.414062-.304687.257813-.210938.507813-.4375.75-.679688 0 0 .003907 0 .003907-.003906.320312-.320313.605468-.664063.875-1.015625.058593-.074219.113281-.152344.171874-.230469.527344-.738281.945313-1.527343 1.25-2.351562zm-115.539062-169.898438 64.515625-25.871093-17.683594 17.664062c-3.90625 3.902344-3.90625 10.234375-.007812 14.140625 1.953125 1.957031 4.515625 2.933594 7.074219 2.933594 2.558593 0 5.117187-.976563 7.066406-2.925781l17.777344-17.757813-25.921876 64.640625c-.957031 2.386719-.957031 5.054688 0 7.441406l25.890626 64.5625-52.46875-52.464844c2.550781-4.816406 3.90625-10.210937 3.90625-15.820312 0-9.046875-3.523438-17.550781-9.914063-23.945312-6.398437-6.394532-14.902344-9.917969-23.949219-9.917969h-.003906c-5.605469 0-11 1.355469-15.8125 3.90625l-52.476562-52.472657 64.566406 25.890626c2.386718.953124 5.054687.953124 7.441406-.003907zm6.09375 66.351563s0 0-.003906 0c-2.617188 2.621094-6.097656 4.0625-9.800782 4.0625h-.003906c-3.703125 0-7.183594-1.445313-9.804687-4.0625-2.621094-2.621094-4.0625-6.105469-4.0625-9.808594s1.441406-7.183594 4.0625-9.804688c2.621093-2.621093 6.101562-4.0625 9.804687-4.0625h.003906c3.703126 0 7.1875 1.441407 9.804688 4.058594 2.617188 2.617188 4.058594 6.101563 4.058594 9.808594s-1.4375 7.1875-4.054688 9.804688c-.003906 0-.003906 0-.003906.003906zm-66.359375-13.527344-25.898437-64.589844 52.492187 52.492188c-2.550781 4.816406-3.910156 10.210937-3.910156 15.816406s1.355469 11.003906 3.910156 15.820312l-52.492187 52.492188 25.898437-64.589844c.957031-2.386718.957031-5.054687 0-7.441406zm52.824219 60.261719-64.5625 25.890625 52.472656-52.472656c4.816406 2.550781 10.210938 3.90625 15.8125 3.90625h.007812c5.605469 0 11-1.355469 15.816407-3.90625l52.484375 52.484374-64.589844-25.902343c-2.386719-.957031-5.054688-.957031-7.441406 0zm0 0"/><path d="m418.445312 227.089844c.25.609375.558594 1.191406.917969 1.730468.359375.550782.78125 1.058594 1.242188 1.519532.457031.460937.976562.878906 1.519531 1.238281.550781.359375 1.128906.671875 1.726562.921875.601563.25 1.230469.4375 1.871094.570312.648438.128907 1.300782.199219 1.960938.199219 2.628906 0 5.199218-1.070312 7.066406-2.929687.460938-.460938.871094-.96875 1.242188-1.519532.359374-.539062.667968-1.121093.917968-1.730468.25-.601563.441406-1.230469.570313-1.871094.128906-.636719.199219-1.296875.199219-1.949219 0-2.628906-1.070313-5.207031-2.929688-7.066406-2.328125-2.320313-5.777344-3.390625-9.027344-2.730469-.640625.121094-1.269531.320313-1.871094.570313-.597656.25-1.179687.558593-1.726562.910156-.542969.367187-1.0625.789063-1.523438 1.25-1.859374 1.859375-2.929687 4.4375-2.929687 7.066406 0 .652344.070313 1.3125.199219 1.949219.132812.640625.324218 1.269531.574218 1.871094zm0 0"/><path d="m239.472656 227.902344c-.128906-.53125-.296875-1.050782-.511718-1.558594l-42.492188-105.964844 42.535156-106.074218c.183594-.445313.324219-.902344.441406-1.363282.019532-.089844.042969-.175781.0625-.269531.09375-.421875.167969-.847656.207032-1.277344.003906-.054687.003906-.113281.007812-.167969.027344-.378906.03125-.757812.015625-1.132812-.003906-.105469-.007812-.210938-.015625-.316406-.027344-.421875-.078125-.84375-.164062-1.261719-.007813-.042969-.019532-.085937-.03125-.128906-.082032-.386719-.191406-.765625-.320313-1.140625-.027343-.082032-.054687-.167969-.085937-.25-.15625-.410156-.328125-.8125-.535156-1.207032-.011719-.015624-.023438-.035156-.035157-.054687-.195312-.359375-.417969-.707031-.664062-1.046875-.058594-.085938-.121094-.171875-.1875-.257812-.265625-.347657-.546875-.6875-.867188-1.003907 0-.003906 0-.003906 0-.003906-.003906-.003906-.007812-.007813-.011719-.007813-.316406-.316406-.65625-.601562-1.003906-.867187-.082031-.058594-.164062-.121094-.246094-.179687-.351562-.253907-.710937-.484376-1.082031-.6875-.007812 0-.011719-.007813-.019531-.007813-.394531-.210937-.800781-.386719-1.21875-.542969-.078125-.027344-.15625-.054687-.234375-.082031-.386719-.132813-.777344-.246094-1.175781-.332031-.035156-.003906-.066406-.015625-.097656-.023438-.421876-.082031-.84375-.136718-1.273438-.164062-.101562-.007813-.203125-.011719-.304688-.015625-.382812-.015625-.769531-.011719-1.152343.015625-.050781.003906-.101563.003906-.152344.007812-.429687.039063-.855469.113282-1.277344.207032-.09375.019531-.183593.042968-.273437.0625-.457032.117187-.90625.257812-1.347656.4375l-106.085938 42.542968-105.984375-42.5c-.5-.210937-1.011719-.375-1.53125-.5-.042969-.011718-.082031-.023437-.125-.03125-.898437-.207031-1.816406-.285156-2.730469-.242187-.058594.003906-.113281.003906-.167968.007812-.902344.058594-1.792969.238281-2.65625.542969-.046876.015625-.097657.03125-.148438.050781-.832031.304688-1.628906.726563-2.371094 1.261719-.074218.054688-.148437.105469-.21875.164062-.355468.269532-.699218.554688-1.023437.878907-.320313.316406-.601563.65625-.871094 1.007812-.066406.089844-.128906.175781-.191406.265625-.238281.332032-.457031.671875-.648438 1.027344-.015625.023438-.035156.050781-.046875.078125-.203125.382813-.375.773437-.523437 1.175781-.039063.101563-.070313.199219-.105469.304688-.117188.34375-.21875.691406-.296875 1.046875-.015625.070312-.035156.140625-.050781.214843-.078125.394532-.1289065.796876-.1562502 1.199219-.0117188.136719-.015625.269531-.0195313.40625-.01171875.324219-.0078125.648438.0117187.972657.0078126.105468.0039063.207031.015625.3125.0390626.398437.1054688.792968.1914058 1.1875.027344.128906.0625.257812.09375.386718.09375.363282.207032.726563.34375 1.078125.015626.042969.023438.089844.039063.132813l42.574219 106.164062-42.570313 106.167969c-.019531.039063-.027343.085937-.042969.128906-.136718.351563-.246093.714844-.34375 1.078125-.03125.128906-.0625.257813-.09375.386719-.082031.394531-.1523432.789063-.1914058 1.1875-.0078124.105469-.0078124.207031-.015625.308594-.0195312.328125-.02343745.652343-.0117187.976562.0039063.136719.0078125.269531.0195313.40625.03125.402344.0781252.804688.1562502 1.199219.015625.074219.039062.144531.050781.214844.078125.355468.179687.703125.296875 1.046875.035156.105469.066406.203125.105469.304687.148437.402344.316406.792969.519531 1.175782.015625.027343.035156.050781.046875.078124.195313.355469.414063.695313.652344 1.027344.0625.089844.125.175782.191406.261719.269531.351563.550781.691406.871094 1.011719.324219.320312.667969.609375 1.019531.875.074219.058594.148438.113281.226562.167968.738282.53125 1.53125.953126 2.359376 1.257813.054687.019531.109374.039063.164062.054687.855469.300782 1.746094.484376 2.640625.542969.058594.003907.121094.003907.179687.007813.160157.007812.320313.023437.484376.023437.753906 0 1.503906-.097656 2.242187-.265625.042969-.011718.082031-.019531.125-.03125.523437-.125 1.035156-.289062 1.53125-.5l105.984375-42.5 106.167969 42.574219c1.203125.480469 2.464843.71875 3.71875.71875.90625 0 1.804687-.132813 2.675781-.375.0625-.015625.121094-.027344.183594-.042969.148437-.046875.292968-.105468.441406-.15625.160156-.054687.324219-.105468.484375-.171875.082031-.03125.160156-.074219.242187-.109375.21875-.097656.4375-.191406.648438-.304687.058594-.03125.113281-.066407.171875-.101563.226563-.125.457031-.253906.675781-.402344.09375-.058593.179688-.132812.269532-.195312.175781-.128906.359374-.25.53125-.394531.246093-.199219.484374-.417969.714843-.644531.011719-.011719.027344-.023438.039063-.035157.320312-.324219.609375-.667969.875-1.019531.058594-.074219.109375-.148438.164062-.222656.535156-.738282.953125-1.535156 1.261719-2.363282.019531-.054687.035156-.105468.054687-.160156.300782-.859375.480469-1.75.539063-2.648437.003906-.054688.003906-.113281.007813-.167969.042968-.917969-.035157-1.839844-.242188-2.738281-.011719-.039063-.019531-.074219-.027344-.109375zm-115.878906-164.066406 64.515625-25.871094-17.683594 17.664062c-3.90625 3.902344-3.90625 10.234375-.007812 14.140625 1.953125 1.953125 4.515625 2.929688 7.074219 2.929688 2.558593 0 5.117187-.972657 7.066406-2.921875l17.777344-17.757813-25.921876 64.636719c-.957031 2.390625-.957031 5.054688 0 7.441406l25.890626 64.5625-52.46875-52.464844c2.550781-4.816406 3.90625-10.210937 3.90625-15.816406 0-9.046875-3.523438-17.550781-9.914063-23.945312-6.398437-6.398438-14.898437-9.917969-23.945313-9.917969-.003906 0-.003906 0-.007812 0-5.605469 0-11 1.355469-15.8125 3.90625l-52.472656-52.476563 64.5625 25.890626c2.386718.957031 5.054687.957031 7.441406 0zm-3.710938 70.410156h-.003906c-3.703125 0-7.1875-1.441406-9.804687-4.0625-2.621094-2.621094-4.066407-6.101563-4.066407-9.804688s1.445313-7.1875 4.066407-9.808594c2.617187-2.617187 6.101562-4.058593 9.804687-4.0625h.003906c3.703126 0 7.1875 1.445313 9.804688 4.0625 2.617188 2.617188 4.058594 6.101563 4.058594 9.804688 0 3.707031-1.441406 7.191406-4.058594 9.808594-2.617188 2.621094-6.101562 4.0625-9.804688 4.0625zm-56.554687-17.589844-25.898437-64.589844 52.492187 52.492188c-2.554687 4.816406-3.910156 10.214844-3.910156 15.820312 0 5.605469 1.359375 11.003906 3.910156 15.820313l-52.492187 52.492187 25.898437-64.589844c.960937-2.390624.960937-5.054687 0-7.445312zm52.824219 60.265625-64.5625 25.890625 52.472656-52.472656c4.816406 2.546875 10.210938 3.902344 15.8125 3.90625h.007812c5.605469 0 11-1.355469 15.816407-3.90625l52.484375 52.484375-64.589844-25.902344c-2.386719-.957031-5.054688-.957031-7.441406 0zm0 0"/><path d="m149.875 92.148438c.550781.363281 1.128906.671874 1.726562.921874.601563.25 1.230469.441407 1.871094.570313s1.300782.1875 1.949219.1875 1.3125-.058594 1.960937-.1875c.640626-.128906 1.269532-.320313 1.871094-.570313.597656-.25 1.179688-.558593 1.726563-.921874.539062-.367188 1.050781-.789063 1.511719-1.25 1.867187-1.859376 2.9375-4.425782 2.9375-7.066407 0-.652343-.070313-1.300781-.199219-1.949219-.128907-.640624-.320313-1.269531-.570313-1.871093-.25-.601563-.558594-1.179688-.917968-1.730469-.371094-.539062-.78125-1.058594-1.25-1.519531-.460938-.460938-.972657-.878907-1.511719-1.238281-.550781-.359376-1.128907-.671876-1.726563-.921876-.601562-.25-1.230468-.4375-1.871094-.570312-1.289062-.257812-2.621093-.257812-3.910156 0-.640625.132812-1.269531.320312-1.871094.570312-.597656.25-1.179687.5625-1.726562.921876-.539062.359374-1.0625.777343-1.519531 1.238281-1.859375 1.859375-2.929688 4.441406-2.929688 7.070312 0 2.640625 1.070313 5.207031 2.929688 7.066407.460937.460937.980469.882812 1.519531 1.25zm0 0"/><path d="m239.496094 499.710938c-.007813-.035157-.015625-.070313-.023438-.105469-.128906-.53125-.296875-1.054688-.511718-1.558594l-42.492188-105.964844 42.535156-106.074219c.183594-.445312.324219-.902343.441406-1.367187.019532-.085937.042969-.175781.0625-.265625.09375-.421875.167969-.847656.207032-1.277344.003906-.054687.003906-.113281.007812-.167968.027344-.378907.03125-.757813.015625-1.136719-.003906-.105469-.007812-.207031-.015625-.3125-.027344-.421875-.078125-.84375-.164062-1.261719-.007813-.042969-.019532-.085938-.03125-.128906-.082032-.386719-.191406-.765625-.320313-1.140625-.027343-.085938-.054687-.167969-.085937-.253907-.15625-.410156-.328125-.8125-.535156-1.203124-.011719-.019532-.023438-.035157-.035157-.054688-.195312-.359375-.417969-.710938-.664062-1.050781-.058594-.085938-.121094-.171875-.1875-.253907-.265625-.347656-.546875-.6875-.867188-1.007812 0-.003906 0-.003906 0-.003906-.003906-.003906-.007812-.003906-.011719-.007813-.316406-.316406-.65625-.597656-1.003906-.863281-.082031-.0625-.164062-.121094-.246094-.183594-.351562-.25-.710937-.484375-1.085937-.683594-.003906-.003906-.011719-.007812-.015625-.011718-.398438-.210938-.804688-.386719-1.21875-.539063-.078125-.03125-.15625-.054687-.234375-.082031-.386719-.132812-.78125-.246094-1.179687-.332031-.03125-.007813-.0625-.015625-.09375-.023438-.421876-.085937-.847657-.136719-1.273438-.167969-.101562-.003906-.199219-.007812-.300781-.011718-.386719-.015625-.773438-.011719-1.164063.015625-.046875.003906-.09375.003906-.140625.007812-.429687.039063-.859375.109375-1.28125.207031-.089843.019532-.179687.042969-.269531.066407-.457031.113281-.910156.253906-1.351562.433593l-106.085938 42.539063-105.988281-42.5c-.496094-.210937-1.007813-.371094-1.527344-.5-.042969-.007813-.085937-.019531-.128906-.03125-.894531-.203125-1.808594-.285156-2.722657-.238281-.058593 0-.117187.003906-.175781.007812-.898437.058594-1.789062.238282-2.644531.539063-.054688.015625-.109375.035156-.160156.054687-.828125.304688-1.625.726563-2.363282 1.257813-.074218.054687-.152343.109375-.226562.164062-.351562.269531-.695312.554688-1.019531.878907-.320313.320312-.601563.660156-.867188 1.007812-.066406.089844-.132812.175781-.195312.265625-.238281.332031-.457031.675781-.648438 1.027344-.015625.027343-.035156.050781-.046875.078125-.203125.382812-.375.777344-.523437 1.175781-.039063.101563-.070313.203125-.105469.304687-.117188.34375-.214844.695313-.292969 1.046876-.015625.070312-.039062.140624-.054687.214843-.078125.398438-.1250002.796875-.1562502 1.199219-.0078126.136719-.015625.269531-.0195313.410156-.01171875.324219-.0078125.648438.015625.972656.0039063.101563.0039063.207032.0117187.308594.0390626.398438.1093748.796875.1953128 1.191406.027343.128907.058593.257813.09375.382813.09375.367187.203125.726563.339843 1.082031.019532.042969.027344.085938.042969.128906l42.570313 106.167969-42.570313 106.164063c-.019531.042968-.027343.085937-.042969.128906-.136718.355469-.246093.714844-.34375 1.078125-.03125.128906-.0625.257813-.09375.386719-.082031.394531-.1523432.789062-.1914058 1.191406-.0078124.101562-.0078124.203125-.015625.308594-.0195312.324218-.02343745.648437-.0117187.972656.0039063.136719.0078125.273438.0195313.410156.03125.398438.0781252.800782.1562502 1.199219.015625.070313.039062.140625.050781.214844.078125.351562.179687.699219.296875 1.046875.035156.101562.066406.203125.105469.304687.148437.398438.316406.792969.519531 1.171875.015625.027344.035156.054688.046875.082032.195313.351562.414063.691406.652344 1.023437.0625.089844.125.175781.191406.265625.269531.347656.550781.6875.871094 1.007812.324219.324219.667969.609376 1.019531.878907.074219.054687.148438.109375.226562.164062.738282.53125 1.53125.953125 2.359376 1.257813.054687.019531.109374.039062.164062.058594.855469.296874 1.742188.480468 2.636719.539062.0625.003906.125.003906.183593.007812.160157.007813.320313.023438.480469.023438.753907 0 1.503907-.09375 2.242188-.265625.042969-.007813.085937-.019531.128906-.03125.519531-.125 1.03125-.289063 1.53125-.496094l105.984375-42.5 106.164062 42.570313c1.207032.484375 2.46875.71875 3.71875.71875.90625 0 1.808594-.128906 2.675782-.371094.0625-.019531.125-.027344.1875-.046875.148437-.042969.292968-.101563.4375-.152344.164062-.058593.328125-.109375.488281-.171875.082031-.035156.160156-.078125.238281-.113281.21875-.09375.4375-.191406.652344-.300781.058594-.03125.109375-.070313.167969-.101563.230469-.128906.457031-.257812.675781-.402343.09375-.0625.179688-.132813.269531-.195313.179688-.128906.359375-.253906.53125-.394531.25-.203125.488281-.417969.71875-.648438.011719-.011718.023438-.019531.035157-.03125.324218-.324218.609374-.667968.878906-1.019531.054687-.074219.109375-.148437.164062-.222656.53125-.742188.953125-1.535157 1.257813-2.367188.019531-.050781.039062-.105469.054687-.15625.300782-.859375.484375-1.75.539063-2.648437.007812-.058594.007812-.113282.011719-.171875.042968-.917969-.039063-1.839844-.246094-2.738281zm-115.902344-164.175782 64.515625-25.871094-17.683594 17.664063c-3.90625 3.902344-3.90625 10.234375-.007812 14.140625 1.953125 1.953125 4.515625 2.933594 7.074219 2.933594 2.558593 0 5.117187-.976563 7.066406-2.925782l17.777344-17.757812-25.921876 64.640625c-.957031 2.386719-.957031 5.054687 0 7.441406l25.890626 64.5625-52.46875-52.46875c2.550781-4.816406 3.90625-10.210937 3.90625-15.816406 0-9.046875-3.523438-17.550781-9.914063-23.945313-10.746094-10.746093-26.96875-12.746093-39.757813-6.003906l-52.480468-52.480468 64.5625 25.886718c2.386718.957032 5.054687.957032 7.441406 0zm-3.710938 70.414063h-.003906c-3.703125 0-7.1875-1.445313-9.804687-4.0625-2.621094-2.625-4.066407-6.105469-4.066407-9.808594s1.445313-7.1875 4.066407-9.804687c2.703125-2.707032 6.253906-4.058594 9.808593-4.058594 3.550782 0 7.101563 1.355468 9.804688 4.058594 5.40625 5.40625 5.40625 14.203124 0 19.613281-2.617188 2.617187-6.101562 4.0625-9.804688 4.0625zm-56.554687-17.589844-25.898437-64.589844 52.492187 52.492188c-2.554687 4.816406-3.910156 10.214843-3.910156 15.820312s1.359375 11 3.910156 15.816407l-52.492187 52.492187 25.898437-64.589844c.960937-2.386719.960937-5.054687 0-7.441406zm52.824219 60.265625-64.5625 25.886719 52.472656-52.472657c4.816406 2.550782 10.210938 3.90625 15.8125 3.90625h.007812c5.605469 0 11-1.355468 15.816407-3.90625l52.484375 52.484376-64.589844-25.898438c-2.386719-.960938-5.054688-.957031-7.441406 0zm0 0"/><path d="m146.195312 359.359375c.25.601563.558594 1.179687.917969 1.730469.359375.539062.78125 1.050781 1.242188 1.519531.457031.460937.976562.871094 1.519531 1.242187.550781.359376 1.128906.667969 1.726562.917969.601563.25 1.230469.441407 1.871094.570313s1.300782.191406 1.949219.191406 1.3125-.0625 1.960937-.191406c.640626-.128906 1.269532-.320313 1.871094-.570313.597656-.25 1.179688-.558593 1.726563-.917969.539062-.371093 1.050781-.78125 1.511719-1.242187.46875-.46875.878906-.980469 1.25-1.519531.359374-.550782.667968-1.128906.917968-1.730469.25-.597656.441406-1.230469.570313-1.867187.128906-.652344.199219-1.300782.199219-1.953126 0-.65625-.070313-1.308593-.199219-1.957031-.128907-.640625-.320313-1.269531-.570313-1.871093-.25-.597657-.558594-1.179688-.917968-1.730469-.371094-.539063-.78125-1.058594-1.25-1.519531-.460938-.457032-.972657-.878907-1.511719-1.238282-.550781-.359375-1.128907-.671875-1.726563-.921875-.601562-.25-1.230468-.4375-1.871094-.570312-1.289062-.257813-2.621093-.257813-3.910156 0-.640625.132812-1.269531.320312-1.871094.570312-.597656.25-1.179687.5625-1.726562.921875-.539062.359375-1.0625.78125-1.519531 1.238282-.460938.460937-.882813.980468-1.242188 1.519531-.359375.550781-.667969 1.132812-.917969 1.730469-.25.601562-.441406 1.230468-.570312 1.871093-.128906.648438-.199219 1.300781-.199219 1.957031 0 .652344.070313 1.300782.199219 1.953126.128906.636718.320312 1.269531.570312 1.867187zm0 0"/></svg>