<svg height="512pt" viewBox="-46 0 512 512.00103" width="512pt" xmlns="http://www.w3.org/2000/svg"><path d="m209.960938 9.996094-26.742188 79.984375h-45.0625zm0 0" fill="#4c5b7c"/><path d="m281.769531 89.980469h-45.0625l-26.746093-79.984375zm0 0" fill="#4c5b7c"/><path d="m159.972656 89.980469h99.980469v59.988281h-99.980469zm0 0" fill="#e3f7f7"/><path d="m119.652344 229.953125h180.292968v80.011719h-180.292968zm0 0" fill="#e3f7f7"/><path d="m184.96875 149.96875-31.996094 79.984375h-62.984375l69.984375-79.984375zm0 0" fill="#4c5b7c"/><path d="m329.9375 229.953125h-63.988281l-31.992188-79.984375h25.707031zm0 0" fill="#707c96"/><path d="m229.957031 470.003906v31.890625h-39.992187v-31.890625c0-11.050781 8.960937-19.996094 19.996094-19.996094 5.519531 0 10.519531 2.238282 14.136718 5.859376 3.621094 3.617187 5.859375 8.617187 5.859375 14.136718zm0 0" fill="#4c5b7c"/><path d="m329.9375 409.914062v91.980469h-99.980469v-31.890625c0-5.519531-2.238281-10.519531-5.859375-14.136718-3.617187-3.621094-8.617187-5.859376-14.136718-5.859376-11.035157 0-19.996094 8.945313-19.996094 19.996094v31.890625h-99.976563v-91.980469zm0 0" fill="#e3f7f7"/><path d="m169.96875 309.964844-39.988281 99.949218h-79.984375l69.65625-99.949218zm0 0" fill="#707c96"/><path d="m369.929688 409.914062h-79.984376l-39.992187-99.949218h49.992187zm0 0" fill="#4c5b7c"/><path d="m209.960938 149.96875v79.984375h-56.988282l31.996094-79.984375zm0 0" fill="#707c96"/><path d="m265.949219 229.953125h-55.988281v-79.984375h23.996093zm0 0" fill="#4c5b7c"/><path d="m236.707031 89.980469h-53.488281l26.742188-79.984375zm0 0" fill="#707c96"/><path d="m209.960938 309.964844v99.949218h-79.980469l39.988281-99.949218zm0 0" fill="#4c5b7c"/><path d="m289.945312 409.914062h-79.984374v-99.949218h39.992187zm0 0" fill="#707c96"/><path d="m369.929688 419.914062c3.726562 0 7.148437-2.074218 8.867187-5.382812 1.722656-3.308594 1.460937-7.296875-.679687-10.351562l-68.175782-97.367188v-66.863281h19.996094c3.925781 0 7.488281-2.296875 9.109375-5.875 1.617187-3.578125.992187-7.773438-1.597656-10.722657l-67.503907-76.820312v-46.554688h11.824219c3.945313 0 7.519531-2.320312 9.128907-5.921874 1.605468-3.605469.945312-7.816407-1.691407-10.753907l-71.71875-79.890625c-.019531-.019531-.039062-.042968-.058593-.0625l-.027344-.03125c-.015625-.019531-.035156-.03125-.054688-.050781-.101562-.113281-.207031-.214844-.3125-.324219-.113281-.109375-.222656-.226562-.339844-.332031-.019531-.019531-.042968-.039063-.0625-.058594-.105468-.09375-.222656-.183593-.332031-.273437-.121093-.101563-.242187-.199219-.363281-.289063-.136719-.101562-.277344-.195312-.417969-.289062-.128906-.089844-.261719-.175781-.394531-.257813-.136719-.082031-.277344-.15625-.414062-.234375-.15625-.082031-.3125-.164062-.46875-.238281-.066407-.03125-.125-.0625-.1875-.09375-.070313-.03125-.144532-.054688-.21875-.085938-.179688-.074218-.359376-.144531-.542969-.210937-.054688-.019531-.105469-.042969-.160157-.0625-.011718-.003906-.019531-.003906-.03125-.007813-.066406-.023437-.132812-.039062-.203124-.058593-.183594-.058594-.371094-.109375-.5625-.15625-.082032-.019531-.164063-.042969-.242188-.0625-.054688-.011719-.109375-.019531-.164062-.03125-.179688-.035157-.363282-.0625-.546876-.089844-.105468-.015625-.214843-.0351562-.324218-.046875-.039063-.0039062-.082032-.0078125-.125-.0117188-.167969-.015625-.335938-.0273437-.503906-.0351562-.136719-.0039062-.273438-.01171875-.40625-.01171875-.019532 0-.039063-.00390625-.0625-.00390625-.015626 0-.035157.00390625-.054688.00390625-.144531 0-.289062.00781255-.433594.01562495-.15625.0078126-.316406.015625-.472656.03125-.042969.0039063-.089844.0078126-.132812.0117188-.117188.0117188-.230469.03125-.347657.050781-.171875.023438-.34375.050781-.515625.085938-.058594.011719-.113281.019531-.171875.03125-.085937.019531-.175781.046875-.261719.066406-.179687.046875-.355468.09375-.53125.148437-.074218.023438-.144531.039063-.21875.0625-.011718.003907-.019531.003907-.03125.007813-.058593.019531-.113281.046875-.175781.070313-.171875.0625-.34375.128906-.511719.199218-.078124.03125-.160156.058594-.234374.09375-.066407.027344-.132813.066406-.195313.097656-.152344.070313-.296875.144532-.441406.222657-.148438.082031-.296875.164062-.441407.25-.125.074219-.246093.15625-.371093.238281-.148438.097656-.296875.199219-.441407.304688-.117187.089843-.226562.179687-.339843.273437-.117188.09375-.238281.1875-.347657.289063-.023437.019531-.046874.042968-.066406.0625-.113281.101562-.21875.210937-.328125.316406-.109375.109375-.21875.21875-.324219.332031-.015624.019531-.035156.035156-.050781.054687l-.03125.035157c-.015625.019531-.035156.035156-.050781.054687l-71.726562 79.894532c-2.636719 2.9375-3.296876 7.148437-1.691407 10.75 1.609375 3.605468 5.1875 5.925781 9.132813 5.925781h11.820312v46.234375l-67.515625 77.15625c-2.582031 2.953125-3.199219 7.140625-1.578125 10.714844 1.621094 3.570312 5.179688 5.867187 9.101563 5.867187h19.667969v66.875l-67.859376 97.371094c-2.128906 3.058593-2.386718 7.042969-.660156 10.34375 1.722656 3.300781 5.136719 5.371093 8.863282 5.371093h29.992187v71.96875l-69.980469-.027343c-.003906 0-.003906 0-.003906 0-5.519531 0-9.99609375 4.472656-10 9.992187 0 5.523438 4.472656 10 9.996094 10.003906l359.648437.148438h.003907c5.519531 0 9.996093-4.472656 10-9.992188 0-5.523437-4.472657-10-9.996094-10.003906l-29.722656-.011718v-72.078126zm-73.214844-19.996093-31.992188-79.953125h30.015625l55.984375 79.953125zm-151.96875 0 31.992187-79.953125h23.226563v79.953125zm75.214844-79.953125h23.226562l31.988281 79.953125h-55.214843zm80.582031-100.011719c-.199219-.011719-.398438-.027344-.597657-.027344-.203124 0-.402343.015625-.601562.027344h-26.625l-23.992188-59.988281h6.40625l52.710938 59.988281zm-132.800781 0 23.992187-59.988281h8.230469v59.988281zm52.21875-59.988281h7.226562l23.996094 59.988281h-31.222656zm23.945312-79.980469-9.171875-27.429687 24.621094 27.429687zm-21.085938 0h-25.71875l12.859376-38.460937zm-37.628906-27.429687-9.171875 27.429687h-15.453125zm64.761719 47.421874v39.992188h-79.980469v-39.992188zm-85.441406 59.988282h5.6875l-23.996094 59.988281h-25.953125c-.199219-.011719-.398438-.027344-.597656-.027344-.203125 0-.402344.015625-.601563.027344h-7.027343zm125.433593 79.984375v60.019531h-160.296874v-60.019531zm-165.074218 80.015625h30.332031l-31.992187 79.953125h-54.0625zm95.089844 171.976562-19.996094-.007812v-21.929688c0-5.511718 4.484375-9.996094 10-9.996094 5.511718 0 9.996094 4.484376 9.996094 9.996094zm99.980468.042969-79.984375-.035156v-21.945313c0-16.539062-13.453125-29.992187-29.992187-29.992187-16.539063 0-29.996094 13.453125-29.996094 29.992187v21.921875l-79.984375-.035156v-71.976563h219.957031zm0 0"/><path d="m180.160156 121.925781c.128906.636719.328125 1.269531.578125 1.867188.25.609375.558594 1.1875.921875 1.730469.359375.546874.777344 1.058593 1.238282 1.519531.460937.460937.96875.878906 1.519531 1.238281.539062.371094 1.121093.671875 1.730469.921875.597656.25 1.230468.449219 1.867187.566406.640625.132813 1.300781.203125 1.949219.203125.652344 0 1.3125-.070312 1.953125-.203125.636719-.117187 1.269531-.316406 1.867187-.566406.609375-.25 1.191406-.550781 1.730469-.921875.550781-.359375 1.058594-.777344 1.519531-1.238281.460938-.460938.878906-.972657 1.238282-1.519531.363281-.542969.671874-1.121094.921874-1.730469.25-.601563.449219-1.230469.578126-1.867188.132812-.644531.191406-1.300781.191406-1.953125 0-.648437-.058594-1.308594-.191406-1.949218-.128907-.636719-.328126-1.269532-.578126-1.878907-.25-.601562-.558593-1.179687-.921874-1.71875-.359376-.550781-.777344-1.0625-1.238282-1.519531-.460937-.460938-.96875-.882812-1.519531-1.242188-.539063-.367187-1.121094-.667968-1.71875-.917968-.609375-.25-1.242187-.449219-1.878906-.582032-1.292969-.25-2.609375-.25-3.902344 0-.636719.132813-1.269531.332032-1.878906.582032-.597657.25-1.179688.550781-1.71875.917968-.550781.359376-1.058594.78125-1.519531 1.242188-.460938.457031-.878907.96875-1.238282 1.519531-.363281.539063-.671875 1.117188-.921875 1.71875-.25.609375-.449219 1.242188-.578125 1.878907-.132812.640624-.191406 1.300781-.191406 1.949218 0 .652344.058594 1.3125.191406 1.953125zm0 0"/><path d="m220.730469 123.792969c.25.609375.546875 1.1875.917969 1.730469.359374.546874.78125 1.058593 1.242187 1.519531.457031.460937.96875.878906 1.519531 1.238281.539063.371094 1.117188.671875 1.71875.921875.609375.25 1.238282.449219 1.878906.566406.640626.132813 1.300782.203125 1.949219.203125.648438 0 1.3125-.070312 1.949219-.203125.640625-.117187 1.269531-.316406 1.871094-.566406.609375-.25 1.1875-.550781 1.730468-.921875.546876-.359375 1.058594-.777344 1.519532-1.238281.460937-.460938.878906-.972657 1.238281-1.519531.359375-.542969.667969-1.121094.917969-1.730469.25-.601563.453125-1.230469.570312-1.867188.132813-.644531.203125-1.300781.203125-1.953125 0-.648437-.070312-1.308594-.203125-1.949218-.117187-.636719-.320312-1.269532-.570312-1.878907-.25-.601562-.558594-1.179687-.917969-1.71875-.359375-.550781-.777344-1.0625-1.238281-1.519531-.460938-.460938-.972656-.882812-1.519532-1.242188-.542968-.367187-1.121093-.667968-1.730468-.917968-.601563-.25-1.230469-.449219-1.871094-.582032-3.238281-.648437-6.695312.421876-9.015625 2.742188-.460937.457031-.882813.96875-1.242187 1.519531-.371094.539063-.667969 1.117188-.917969 1.71875-.25.609375-.449219 1.242188-.570313 1.878907-.128906.640624-.199218 1.300781-.199218 1.949218 0 .652344.070312 1.3125.199218 1.953125.121094.636719.320313 1.269531.570313 1.867188zm0 0"/><path d="m160.742188 273.761719c.25.609375.558593 1.191406.921874 1.730469.359376.550781.777344 1.058593 1.238282 1.519531.460937.460937.96875.878906 1.519531 1.238281.539063.371094 1.121094.671875 1.71875.921875.609375.25 1.242187.449219 1.878906.578125.640625.128906 1.300781.191406 1.949219.191406.652344 0 1.3125-.0625 1.960938-.191406.628906-.128906 1.261718-.328125 1.871093-.578125.597657-.25 1.179688-.550781 1.71875-.921875.550781-.359375 1.058594-.777344 1.519531-1.238281.460938-.460938.878907-.96875 1.238282-1.519531.363281-.539063.671875-1.121094.921875-1.730469.25-.601563.449219-1.230469.578125-1.867188.132812-.640625.191406-1.300781.191406-1.949219 0-.652343-.058594-1.3125-.191406-1.953124-.128906-.636719-.328125-1.269532-.578125-1.878907-.25-.601562-.558594-1.179687-.921875-1.71875-.359375-.550781-.777344-1.058593-1.238282-1.519531-.460937-.460938-.96875-.878906-1.519531-1.242188-.539062-.367187-1.121093-.667968-1.71875-.917968-.609375-.25-1.242187-.449219-1.871093-.582032-1.300782-.257812-2.617188-.257812-3.910157 0-.636719.132813-1.269531.332032-1.878906.582032-.597656.25-1.179687.550781-1.71875.917968-.550781.363282-1.058594.78125-1.519531 1.242188-.460938.460938-.878906.96875-1.238282 1.519531-.363281.539063-.671874 1.117188-.921874 1.71875-.25.609375-.441407 1.242188-.570313 1.878907-.128906.640624-.199219 1.300781-.199219 1.953124 0 .648438.070313 1.308594.199219 1.949219.128906.636719.320313 1.269531.570313 1.867188zm0 0"/><path d="m200.734375 273.761719c.25.609375.558594 1.191406.917969 1.730469.363281.550781.78125 1.058593 1.242187 1.519531.460938.460937.96875.878906 1.519531 1.238281.539063.371094 1.121094.671875 1.71875.921875.609376.25 1.238282.449219 1.878907.578125s1.300781.191406 1.949219.191406c.652343 0 1.3125-.0625 1.960937-.191406.628906-.128906 1.261719-.328125 1.871094-.578125.597656-.25 1.179687-.550781 1.71875-.921875.550781-.359375 1.058593-.777344 1.519531-1.238281.460938-.460938.878906-.96875 1.238281-1.519531.359375-.539063.671875-1.121094.921875-1.730469.25-.601563.449219-1.230469.570313-1.867188.128906-.640625.199219-1.300781.199219-1.949219 0-.652343-.070313-1.3125-.199219-1.953124-.121094-.636719-.320313-1.269532-.570313-1.878907-.25-.601562-.5625-1.179687-.921875-1.71875-.359375-.550781-.777343-1.058593-1.238281-1.519531-2.320312-2.332031-5.769531-3.390625-9.019531-2.742188-.640625.132813-1.269531.332032-1.878907.582032-.597656.25-1.179687.550781-1.71875.917968-.550781.363282-1.058593.78125-1.519531 1.242188-.460937.460938-.878906.96875-1.242187 1.519531-.359375.539063-.667969 1.117188-.917969 1.71875-.25.609375-.441406 1.242188-.570313 1.878907-.128906.640624-.199218 1.300781-.199218 1.953124 0 .648438.070312 1.308594.199218 1.949219.128907.636719.320313 1.269531.570313 1.867188zm0 0"/><path d="m240.726562 273.761719c.25.609375.558594 1.191406.917969 1.730469.359375.550781.78125 1.058593 1.238281 1.519531.460938.460937.972657.878906 1.523438 1.238281.539062.371094 1.117188.671875 1.71875.921875.609375.25 1.238281.449219 1.878906.578125s1.300782.191406 1.949219.191406 1.3125-.0625 1.949219-.191406c.640625-.128906 1.269531-.328125 1.871094-.578125.609374-.25 1.1875-.550781 1.730468-.921875.546875-.359375 1.058594-.777344 1.519532-1.238281.460937-.460938.878906-.96875 1.238281-1.519531.359375-.539063.667969-1.121094.917969-1.730469.25-.601563.453124-1.230469.570312-1.867188.132812-.640625.203125-1.300781.203125-1.949219 0-.652343-.070313-1.3125-.203125-1.953124-.117188-.636719-.320312-1.269532-.570312-1.878907-.25-.601562-.558594-1.179687-.917969-1.71875-.359375-.550781-.777344-1.058593-1.238281-1.519531-.460938-.460938-.972657-.878906-1.519532-1.242188-.542968-.367187-1.121094-.667968-1.730468-.917968-.601563-.25-1.230469-.449219-1.871094-.582032-1.289063-.257812-2.609375-.257812-3.898438 0-.640625.132813-1.269531.332032-1.878906.582032-.601562.25-1.179688.550781-1.71875.917968-.550781.363282-1.0625.78125-1.523438 1.242188-.457031.460938-.878906.96875-1.246093 1.519531-.363281.539063-.660157 1.117188-.910157 1.71875-.25.609375-.453124 1.242188-.582031 1.878907-.128906.640624-.1875 1.300781-.1875 1.953124 0 .648438.058594 1.308594.1875 1.949219.128907.636719.332031 1.269531.582031 1.867188zm0 0"/><path d="m129.210938 436.078125c-.25-.597656-.5625-1.179687-.921876-1.71875-.359374-.550781-.78125-1.058594-1.238281-1.519531-.460937-.460938-.972656-.878906-1.519531-1.242188-.542969-.367187-1.121094-.667968-1.722656-.917968-.609375-.25-1.238282-.449219-1.878906-.578126-1.289063-.25-2.609376-.261718-3.898438 0-.640625.128907-1.269531.328126-1.871094.578126-.609375.25-1.1875.5625-1.726562.917968-.550782.363282-1.0625.78125-1.519532 1.242188-.460937.460937-.882812.96875-1.242187 1.519531-.359375.539063-.667969 1.121094-.917969 1.71875-.25.609375-.449218 1.242187-.570312 1.882813-.128906.636718-.199219 1.296874-.199219 1.949218 0 .648438.070313 1.308594.199219 1.949219.121094.640625.320312 1.269531.570312 1.867187.25.609376.558594 1.191407.917969 1.730469.359375.550781.78125 1.058594 1.242187 1.519531.457032.460938.96875.878907 1.519532 1.238282.539062.359375 1.117187.671875 1.726562.921875.601563.25 1.230469.449219 1.871094.570312.640625.128907 1.300781.199219 1.949219.199219.648437 0 1.308593-.070312 1.949219-.199219.640624-.121093 1.269531-.320312 1.878906-.570312.601562-.25 1.179687-.5625 1.722656-.921875.546875-.359375 1.058594-.777344 1.519531-1.238282.457031-.460937.878907-.96875 1.238281-1.519531.359376-.539062.671876-1.121093.921876-1.730469.246093-.597656.449218-1.226562.566406-1.867187.132812-.640625.203125-1.300781.203125-1.949219 0-.652344-.070313-1.3125-.203125-1.949218-.117188-.640626-.320313-1.273438-.566406-1.882813zm0 0"/><path d="m169.199219 436.078125c-.25-.597656-.546875-1.179687-.917969-1.71875-.359375-.550781-.78125-1.058594-1.238281-1.519531-.460938-.460938-.972657-.878906-1.519531-1.242188-.542969-.367187-1.121094-.667968-1.722657-.917968-.609375-.25-1.238281-.449219-1.878906-.578126-1.28125-.25-2.609375-.261718-3.898437 0-.640626.128907-1.269532.328126-1.871094.578126-.609375.25-1.1875.5625-1.726563.917968-.550781.363282-1.0625.78125-1.523437 1.242188-.457032.460937-.878906.96875-1.238282 1.519531-.359374.539063-.667968 1.121094-.917968 1.71875-.25.609375-.453125 1.242187-.570313 1.882813-.132812.636718-.199219 1.296874-.199219 1.949218 0 .648438.066407 1.308594.199219 1.949219.117188.640625.320313 1.269531.570313 1.867187.25.609376.558594 1.191407.917968 1.730469.359376.550781.78125 1.058594 1.238282 1.519531.460937.460938.972656.878907 1.523437 1.238282.539063.359375 1.117188.671875 1.726563.921875.601562.25 1.230468.449219 1.871094.570312.640624.128907 1.300781.199219 1.949218.199219 2.628906 0 5.207032-1.070312 7.070313-2.929688.457031-.460937.878906-.972656 1.238281-1.519531.359375-.542969.667969-1.121093.917969-1.730469.25-.601562.453125-1.230468.582031-1.871093s.1875-1.296875.1875-1.949219c0-.648438-.058594-1.308594-.1875-1.949219-.128906-.636719-.332031-1.269531-.582031-1.878906zm0 0"/><path d="m269.179688 436.078125c-.25-.597656-.558594-1.179687-.921876-1.71875-.355468-.550781-.777343-1.058594-1.238281-1.519531-.460937-.460938-.96875-.878906-1.519531-1.242188-.539062-.355468-1.121094-.667968-1.730469-.917968-.597656-.25-1.226562-.449219-1.867187-.578126-1.289063-.25-2.609375-.25-3.898438 0-.640625.128907-1.269531.328126-1.871094.578126-.609374.25-1.1875.5625-1.726562.917968-.554688.363282-1.0625.78125-1.523438 1.242188-.460937.460937-.878906.96875-1.25 1.519531-.359374.539063-.660156 1.121094-.910156 1.71875-.25.609375-.449218 1.242187-.578125 1.882813-.128906.636718-.1875 1.296874-.1875 1.949218 0 .648438.058594 1.308594.1875 1.949219.128907.640625.328125 1.269531.578125 1.867187.25.609376.5625 1.191407.921875 1.730469.359375.550781.777344 1.058594 1.238281 1.519531.460938.460938.96875.878907 1.523438 1.238282.539062.359375 1.117188.671875 1.726562.921875.601563.25 1.230469.449219 1.871094.570312.636719.128907 1.296875.199219 1.949219.199219.648437 0 1.308594-.070312 1.949219-.199219.640625-.121093 1.269531-.320312 1.867187-.570312.609375-.25 1.191407-.5625 1.730469-.921875.550781-.359375 1.058594-.777344 1.519531-1.238282.460938-.460937.882813-.96875 1.238281-1.519531.363282-.539062.671876-1.121093.921876-1.730469.25-.597656.449218-1.226562.570312-1.867187.128906-.640625.199219-1.300781.199219-1.949219 0-.652344-.070313-1.3125-.199219-1.949218-.121094-.640626-.320312-1.273438-.570312-1.882813zm0 0"/><path d="m289.945312 439.910156c0 .648438.070313 1.308594.199219 1.949219.121094.640625.320313 1.269531.570313 1.867187.25.609376.550781 1.191407.917968 1.730469.363282.550781.78125 1.058594 1.242188 1.519531.460938.460938.96875.878907 1.519531 1.238282.539063.359375 1.121094.671875 1.730469.921875.601562.25 1.230469.449219 1.867188.570312.640624.128907 1.300781.199219 1.949218.199219 2.632813 0 5.210938-1.070312 7.070313-2.929688.460937-.460937.878906-.972656 1.238281-1.519531.359375-.542969.671875-1.121093.921875-1.730469.25-.601562.449219-1.230468.566406-1.871093.132813-.640625.203125-1.296875.203125-1.949219 0-.648438-.070312-1.308594-.203125-1.949219-.117187-.640625-.316406-1.269531-.566406-1.878906-.25-.601563-.5625-1.179687-.921875-1.71875-.359375-.550781-.777344-1.0625-1.238281-1.519531-2.320313-2.320313-5.777344-3.390625-9.019531-2.742188-.640626.132813-1.269532.332032-1.871094.582032-.609375.25-1.1875.558593-1.726563.917968-.550781.359375-1.0625.78125-1.519531 1.242188-.460938.457031-.882812.96875-1.242188 1.519531-.367187.539063-.667968 1.117187-.917968 1.71875-.25.609375-.449219 1.238281-.570313 1.878906-.128906.640625-.199219 1.300781-.199219 1.953125zm0 0"/><path d="m419.449219 500.046875c-.128907-.640625-.320313-1.269531-.570313-1.871094-.25-.601562-.558594-1.179687-.917968-1.730469-.359376-.539062-.78125-1.058593-1.242188-1.519531-.46875-.460937-.976562-.878906-1.527344-1.238281-.539062-.359375-1.121094-.667969-1.71875-.917969-.601562-.25-1.230468-.441406-1.871094-.570312-1.289062-.261719-2.621093-.261719-3.910156 0-.640625.128906-1.269531.320312-1.867187.570312-.601563.25-1.183594.558594-1.730469.917969-.539062.359375-1.0625.777344-1.519531 1.238281-.460938.460938-.882813.980469-1.238281 1.519531-.363282.550782-.671876 1.132813-.921876 1.730469-.25.601563-.441406 1.230469-.570312 1.871094-.128906.648437-.1875 1.300781-.1875 1.949219 0 .660156.058594 1.308594.1875 1.957031.128906.640625.320312 1.273437.570312 1.871094.25.601562.558594 1.179687.921876 1.730469.355468.539062.777343 1.058593 1.238281 1.519531.457031.460937.980469.878906 1.519531 1.238281.550781.359375 1.128906.671875 1.730469.921875.597656.25 1.226562.4375 1.867187.570313.648438.128906 1.300782.1875 1.960938.1875.648437 0 1.300781-.058594 1.949218-.1875.640626-.132813 1.269532-.320313 1.871094-.570313.597656-.25 1.179688-.5625 1.71875-.921875.550782-.359375 1.058594-.777344 1.527344-1.238281 1.859375-1.871094 2.921875-4.4375 2.921875-7.078125 0-.648438-.0625-1.300782-.191406-1.949219zm0 0"/></svg>