<svg height="512pt" viewBox="0 0 512 512.00041" width="512pt" xmlns="http://www.w3.org/2000/svg"><g fill="#ff5d5d"><path d="m279.5 192h170v40h-170zm0 0"/><path d="m49.5 192h170v40h-170zm0 0"/><path d="m480.011719 71.25c0 10.699219-4.339844 20.390625-11.351563 27.402344-7.011718 7.007812-16.699218 11.347656-27.398437 11.347656h-373.523438c-21.398437 0-38.75-17.347656-38.75-38.75zm0 0"/><path d="m129.5 232v204.652344c-5.308594-4.761719-12.320312-7.652344-20-7.652344s-14.691406 2.890625-20 7.652344v-204.652344zm0 0"/><path d="m89.5 110h40v82h-40zm0 0"/><path d="m409 232v204.429688c-5.269531-4.628907-12.179688-7.429688-19.75-7.429688s-14.480469 2.800781-19.75 7.429688v-204.429688zm0 0"/><path d="m369.5 110h39.5v82h-39.5zm0 0"/></g><path d="m219.5 110.671875h60v121.328125h-60zm0 0" fill="#97b6bf"/><path d="m139.5 459v43h-60v-43c0-8.878906 3.859375-16.859375 10-22.347656 5.308594-4.761719 12.320312-7.652344 20-7.652344s14.691406 2.890625 20 7.652344c.410156.367187.820312.75 1.210938 1.136718 5.429687 5.429688 8.789062 12.929688 8.789062 21.210938zm0 0" fill="#383e4b"/><path d="m419.25 459v43h-60v-43c0-9.007812 3.96875-17.078125 10.25-22.570312 5.269531-4.628907 12.179688-7.429688 19.75-7.429688s14.480469 2.800781 19.75 7.429688c.5.429687.988281.890624 1.460938 1.359374 5.429687 5.429688 8.789062 12.929688 8.789062 21.210938zm0 0" fill="#383e4b"/><path d="m501 10v19.039062c0 23.3125-18.898438 42.210938-42.210938 42.210938h-407.25c-22.9375 0-41.539062-18.597656-41.539062-41.539062v-19.710938c12.808594 12.808594 30.171875 20 48.28125 20h394.4375c9.0625 0 17.921875-1.800781 26.132812-5.199219 8.199219-3.398437 15.75-8.398437 22.148438-14.800781zm0 0" fill="#383e4b"/><path d="m378.53125 66.308594c-.25-.597656-.5625-1.179688-.921875-1.71875-.359375-.550782-.777344-1.058594-1.238281-1.519532-.460938-.460937-.972656-.882812-1.523438-1.25-.539062-.359374-1.128906-.671874-1.726562-.921874-.601563-.25-1.230469-.4375-1.871094-.570313-1.289062-.257813-2.621094-.257813-3.910156 0-.640625.132813-1.269532.320313-1.871094.570313-.597656.25-1.179688.5625-1.726562.921874-.539063.367188-1.050782.789063-1.511719 1.25-.46875.460938-.878907.96875-1.25 1.519532-.359375.539062-.671875 1.121094-.921875 1.71875-.25.609375-.4375 1.242187-.566406 1.878906-.132813.644531-.191407 1.304688-.191407 1.953125s.058594 1.308594.191407 1.949219c.128906.640625.316406 1.269531.566406 1.871094.25.609374.5625 1.1875.921875 1.726562.371093.550781.78125 1.0625 1.25 1.523438.460937.457031.972656.878906 1.511719 1.238281.550781.359375 1.128906.671875 1.726562.921875.601562.25 1.230469.449218 1.871094.566406.648437.132812 1.300781.199219 1.949218.199219.660157 0 1.3125-.066407 1.960938-.199219.640625-.117188 1.269531-.316406 1.871094-.566406.597656-.25 1.1875-.5625 1.726562-.921875.550782-.359375 1.0625-.78125 1.523438-1.238281.460937-.460938.878906-.972657 1.238281-1.523438.359375-.539062.671875-1.117188.921875-1.726562.25-.601563.4375-1.230469.566406-1.871094.132813-.640625.191406-1.300782.191406-1.949219s-.0625-1.3125-.191406-1.953125c-.128906-.636719-.316406-1.265625-.566406-1.878906zm0 0"/><path d="m504.828125.761719c-3.738281-1.546875-8.039063-.6914065-10.898437 2.167969-11.007813 11.007812-25.644532 17.070312-41.214844 17.070312h-394.429688c-15.570312 0-30.207031-6.0625-41.214844-17.070312-2.859374-2.8593755-7.160156-3.714844-10.898437-2.167969-3.734375 1.546875-6.171875 5.195312-6.171875 9.238281v19.707031c0 16.140625 7.464844 30.566407 19.113281 40.023438-.074219.496093-.125 1.003906-.125 1.519531 0 26.882812 21.867188 48.75 48.75 48.75h11.761719v62h-30c-5.523438 0-10 4.476562-10 10v40c0 5.523438 4.476562 10 10 10h30v190.585938c-6.214844 7.050781-10 16.296874-10 26.414062v43c0 5.523438 4.476562 10 10 10h60c5.523438 0 10-4.476562 10-10v-43c0-10.117188-3.78125-19.363281-10-26.414062v-190.585938h220v190.296875c-6.367188 7.085937-10.25 16.449219-10.25 26.703125v43c0 5.523438 4.476562 10 10 10h60c5.523438 0 10-4.476562 10-10v-43c0-10.253906-3.882812-19.617188-10.25-26.703125v-190.296875h30.5c5.523438 0 10-4.476562 10-10v-40c0-5.523438-4.476562-10-10-10h-30.5v-62h22.261719c26.882812 0 48.75-21.867188 48.75-48.75 0-.125-.011719-.25-.015625-.375 12.742187-9.527344 21.003906-24.734375 21.003906-41.832031v-19.042969c0-4.042969-2.4375-7.691406-6.171875-9.238281zm-405.328125 119.238281h20v62h-20zm190 62v-62h70v62zm-80 0h-70v-62h70zm-150 20h150v20h-150zm70 290h-40v-33c0-11.027344 8.972656-20 20-20s20 8.972656 20 20zm-10-71.734375c-3.195312-.824219-6.546875-1.265625-10-1.265625s-6.804688.441406-10 1.265625v-178.265625h20zm110-198.265625v-101.328125h40v101.328125zm179.75 270h-40v-33c0-11.027344 8.972656-20 20-20s20 8.972656 20 20zm-10.25-71.792969c-3.121094-.785156-6.386719-1.207031-9.75-1.207031s-6.628906.421875-9.75 1.207031v-178.207031h19.5zm40.5-198.207031h-150v-20h150zm-40.5-40h-19.5v-62h19.5zm59.792969-120.75h-49.292969c-5.523438 0-10 4.476562-10 10s4.476562 10 10 10h58.71875c-4.070312 10.9375-14.617188 18.75-26.957031 18.75h-373.523438c-12.339843 0-22.886719-7.8125-26.957031-18.75h288.71875c5.523438 0 10-4.476562 10-10s-4.476562-10-10-10h-277.957031c-17.28125 0-31.359375-13.96875-31.539063-31.207031 11.558594 6.5 24.652344 9.957031 38.28125 9.957031h394.429688c13.621094 0 26.710937-3.457031 38.269531-9.949219-.535156 17.292969-14.769531 31.199219-32.191406 31.199219zm0 0"/></svg>