<svg height="512pt" viewBox="-76 0 512 512" width="512pt" xmlns="http://www.w3.org/2000/svg"><path d="m90.617188 30.640625c0 11.027344-8.941407 19.96875-19.96875 19.96875-11.027344 0-19.96875-8.941406-19.96875-19.96875 0-11.03125 8.941406-19.96875 19.96875-19.96875 11.027343 0 19.96875 8.9375 19.96875 19.96875zm0 0" fill="#77e5ab"/><path d="m49.957031 110.214844c0 11.027344-8.941406 19.96875-19.96875 19.96875-11.027343 0-19.96875-8.941406-19.96875-19.96875s8.941407-19.96875 19.96875-19.96875c11.027344 0 19.96875 8.941406 19.96875 19.96875zm0 0" fill="#77e5ab"/><path d="m230.640625 60.117188c0 7.695312-1.742187 15-4.851563 21.511718-13.304687-7.816406-28.773437-12.304687-45.246093-12.304687-16.472657 0-31.941407 4.480469-45.25 12.304687-3.105469-6.511718-4.847657-13.816406-4.847657-21.511718 0-27.664063 22.421876-50.097657 50.097657-50.097657 17.472656 0 32.863281 8.957031 41.832031 22.535157 5.21875 7.90625 8.265625 17.382812 8.265625 27.5625zm0 0" fill="#2a2f38"/><path d="m270.457031 159.242188v20.660156c-20.039062 19.539062-26.570312-52.03125-71.476562-31.3125-5.8125 1.894531-12.003907 2.90625-18.4375 2.90625-6.332031 0-12.433594-.980469-18.15625-2.804688-46.261719-20.820312-52.492188 50.078125-71.769531 29.988282v-19.4375c0-32.984376 18.003906-61.972657 44.675781-77.613282 13.308593-7.824218 28.777343-12.304687 45.25-12.304687 16.472656 0 31.941406 4.488281 45.246093 12.304687 6.675782 3.90625 12.808594 8.667969 18.257813 14.109375 1.875 1.871094 3.667969 3.835938 5.371094 5.871094 3.816406 4.546875 7.191406 9.476563 10.058593 14.71875 2.035157 3.695313 3.808594 7.554687 5.300782 11.550781 1.882812 4.992188 3.328125 10.199219 4.277344 15.570313.921874 5.132812 1.402343 10.410156 1.402343 15.792969zm0 0" fill="#2a2f38"/><path d="m270.457031 179.902344v41.601562c0 35.175782-20.480469 65.808594-50.097656 80.554688-12.011719 5.992187-25.539063 9.359375-39.816406 9.359375-14.480469 0-28.195313-3.464844-40.339844-9.617188-29.347656-14.851562-49.585937-45.320312-49.585937-80.296875v-42.824218c19.277343 20.089843 25.507812-50.808594 71.769531-29.988282 5.722656 1.824219 11.824219 2.804688 18.15625 2.804688 6.433593 0 12.625-1.011719 18.4375-2.90625 44.90625-20.71875 51.4375 50.851562 71.476562 31.3125zm0 0" fill="#fee4bb"/><path d="m200.851562 501.980469h-190.832031v-72.050781c0-34.628907 22.011719-64.375 52.742188-75.917969 8.148437-7.605469 146.238281 140.363281 138.089843 147.96875zm0 0" fill="#ffa3bf"/><path d="m249.417969 501.980469h-48.566407l-138.089843-147.96875c8.828125-3.328125 18.375-5.140625 28.328125-5.140625h19.054687l70.066407 77.03125zm0 0" fill="#fff"/><path d="m260.550781 31.300781-11.132812 70.308594c-1.703125-2.035156-3.496094-4-5.371094-5.871094-5.449219-5.441406-11.582031-10.203125-18.257813-14.109375 3.109376-6.511718 4.851563-13.816406 4.851563-21.511718 0-10.179688-3.046875-19.65625-8.265625-27.5625 12.535156-2.835938 25.507812-3.257813 38.175781-1.253907zm0 0" fill="#ffa3bf"/><path d="m316.148438 59.65625-56.671876 56.671875c-2.867187-5.242187-6.242187-10.171875-10.058593-14.71875l11.132812-70.308594c20.347657 3.207031 39.894531 12.664063 55.597657 28.355469zm0 0" fill="#fff"/><path d="m344.503906 115.253906-79.726562 12.625c-1.492188-3.996094-3.265625-7.855468-5.300782-11.550781l56.671876-56.671875c15.699218 15.699219 25.148437 35.25 28.355468 55.597656zm0 0" fill="#ffa3bf"/><path d="m334.753906 176.914062-45.007812-22.921874-20.691406-10.542969c-.949219-5.371094-2.394532-10.578125-4.277344-15.570313l79.726562-12.625c3.296875 20.820313.039063 42.484375-9.75 61.660156zm0 0" fill="#fff"/><path d="m350.613281 429.929688v72.050781h-101.195312l-69.207031-76.078125 89.335937-77.03125c44.585937 0 81.066406 36.480468 81.066406 81.058594zm0 0" fill="#ffa3bf"/><path d="m269.546875 348.871094-89.335937 77.03125-70.066407-77.03125 30.058594-10.019532v-37.050781c12.144531 6.152344 25.859375 9.617188 40.339844 9.617188 14.277343 0 27.804687-3.367188 39.816406-9.359375v36.792968zm0 0" fill="#fee4bb"/><path d="m158.929688 219.117188c0 5.53125 4.484374 10.019531 10.019531 10.019531 5.53125 0 10.019531-4.488281 10.019531-10.019531 0-18.671876-14.808594-28.746094-28.746094-28.746094-13.933594 0-28.742187 10.074218-28.742187 28.746094 0 5.53125 4.484375 10.019531 10.019531 10.019531s10.019531-4.488281 10.019531-10.019531c0-8.078126 6.660157-8.707032 8.703125-8.707032 2.042969 0 8.707032.628906 8.707032 8.707032zm0 0"/><path d="m191.617188 229.136719c5.535156 0 10.019531-4.488281 10.019531-10.019531 0-8.078126 6.664062-8.707032 8.707031-8.707032s8.703125.628906 8.703125 8.707032c0 5.53125 4.484375 10.019531 10.019531 10.019531s10.019532-4.488281 10.019532-10.019531c0-18.671876-14.808594-28.746094-28.742188-28.746094-13.9375 0-28.746094 10.074218-28.746094 28.746094 0 5.53125 4.484375 10.019531 10.019532 10.019531zm0 0"/><path d="m176.707031 250.941406c-.601562.25-1.183593.558594-1.734375.921875-.542968.371094-1.0625.777344-1.523437 1.25-.460938.460938-.882813.972657-1.242188 1.523438-.363281.542969-.671875 1.121093-.921875 1.722656-.25.613281-.441406 1.242187-.570312 1.875-.132813.652344-.191406 1.3125-.191406 1.964844 0 .648437.058593 1.3125.191406 1.953125.128906.640625.320312 1.273437.570312 1.875.25.609375.558594 1.191406.921875 1.730468.359375.550782.78125 1.0625 1.242188 1.523438.460937.460938.980469.882812 1.523437 1.242188.550782.359374 1.132813.671874 1.734375.921874.597657.25 1.230469.441407 1.871094.570313.652344.132813 1.304687.199219 1.953125.199219.664062 0 1.3125-.066406 1.964844-.199219.640625-.128906 1.273437-.320313 1.875-.570313.601562-.25 1.179687-.5625 1.730468-.921874.542969-.359376 1.054688-.78125 1.523438-1.242188.460938-.460938.875-.972656 1.242188-1.523438.363281-.539062.671874-1.132812.921874-1.730468.253907-.601563.441407-1.234375.574219-1.875.128907-.640625.199219-1.304688.199219-1.953125 0-.652344-.070312-1.3125-.199219-1.964844-.132812-.632813-.320312-1.261719-.574219-1.875-.25-.601563-.558593-1.179687-.921874-1.722656-.367188-.550781-.78125-1.0625-1.242188-1.523438-.46875-.472656-.980469-.878906-1.523438-1.25-.550781-.363281-1.128906-.671875-1.730468-.921875-.601563-.25-1.234375-.441406-1.875-.574218-1.292969-.257813-2.625-.257813-3.917969 0-.640625.132812-1.273437.324218-1.871094.574218zm0 0"/><path d="m270.585938 338.855469-40.207032-8.1875v-22.636719c13.996094-8.101562 25.878906-19.484375 34.597656-33.21875 10.140626-15.976562 15.5-34.410156 15.5-53.308594v-60.992187l49.730469 25.332031c1.457031.742188 3.007813 1.09375 4.539063 1.09375.457031 0 .910156-.03125 1.355468-.09375.210938-.027344.410157-.085938.617188-.128906.238281-.046875.476562-.082032.710938-.144532.316406-.089843.621093-.207031.925781-.324218.113281-.046875.234375-.078125.351562-.125.324219-.140625.632813-.308594.941407-.484375.089843-.046875.179687-.082031.265624-.132813.339844-.203125.664063-.4375.980469-.683594.042969-.035156.09375-.058593.136719-.097656.304688-.246094.59375-.519531.871094-.800781.046875-.046875.097656-.085937.144531-.132813.285156-.304687.546875-.632812.792969-.976562.03125-.039062.066406-.070312.09375-.113281.226562-.320313.421875-.667969.613281-1.019531.039063-.074219.089844-.136719.128906-.210938 0-.003906 0-.003906.003907-.003906 0-.007813.003906-.011719.003906-.015625 10.550781-20.683594 14.355468-44.746094 10.710937-67.753907 0 0 0 0 0-.003906v-.003906c0-.003906 0-.007812-.003906-.011719-3.664063-23.25-14.4375-44.375-31.152344-61.09375-.003906-.003906-.007812-.007812-.011719-.011719 0 0-.003906-.003906-.003906-.003906-16.734375-16.722656-37.867187-27.496094-61.105468-31.160156-.003907 0-.003907 0-.003907 0-.003906 0-.003906 0-.003906 0-11.839844-1.875-23.761719-1.824219-35.519531.121094-11.03125-13.148438-27.578125-21.527344-46.046875-21.527344-33.148438 0-60.117188 26.96875-60.117188 60.117188 0 3.058593.242188 6.074218.691407 9.042968l-24.15625-24.152344c2.34375-4.269531 3.675781-9.164062 3.675781-14.367187 0-16.535156-13.453125-29.988281-29.988281-29.988281-16.535157 0-29.988282 13.453125-29.988282 29.988281s13.453125 29.988281 29.988282 29.988281c4.015624 0 7.851562-.800781 11.355468-2.238281l29.074219 29.074219c-3.953125 3.824218-7.589844 7.964844-10.871094 12.390625l-43.25-2.742188c-4.871093-9.984375-15.128906-16.882812-26.96875-16.882812-16.535156 0-29.988281 13.453125-29.988281 29.988281s13.453125 29.988281 29.988281 29.988281c14.085938 0 25.925781-9.765625 29.128907-22.875l29.855468 1.890625c-5.382812 12.261719-8.375 25.796875-8.375 40.019532v62.261718c0 35.765625 18.851563 68.257813 49.585938 86.230469v23.894531l-21.664063 7.222656h-17.429687c-50.226563 0-91.089844 40.859376-91.089844 91.078126v72.050781c0 5.53125 4.484375 10.019531 10.019531 10.019531h340.59375c5.535157 0 10.019531-4.488281 10.019531-10.019531v-72.050781c0-49.875-40.296874-90.515626-90.046874-91.074219zm-240.597657-218.691407c-5.488281 0-9.949219-4.460937-9.949219-9.949218 0-5.484375 4.464844-9.949219 9.949219-9.949219s9.949219 4.464844 9.949219 9.949219c0 5.488281-4.460938 9.949218-9.949219 9.949218zm271.597657-60.113281-40.363282 40.359375c-.398437-.542968-.804687-1.082031-1.214844-1.617187l8.78125-55.484375c11.976563 3.265625 23.082032 8.929687 32.796876 16.742187zm30.910156 46.960938-58.855469 9.320312 42.117187-42.113281c7.808594 9.710938 13.472657 20.8125 16.738282 32.792969zm-2.621094 56.175781-51.960938-26.46875c-.054687-.25-.117187-.496094-.175781-.746094l57.871094-9.164062c.558594 12.367187-1.398437 24.824218-5.734375 36.378906zm-80.878906-122.992188-6.457032 40.785157c-1.46875-1.167969-2.960937-2.296875-4.480468-3.378907 1.714844-5.628906 2.601562-11.476562 2.601562-17.484374 0-6.914063-1.1875-13.554688-3.347656-19.742188 3.886719-.316406 7.785156-.363281 11.683594-.179688zm-68.453125-20.15625c22.097656 0 40.078125 17.980469 40.078125 40.078126 0 2.476562-.234375 4.910156-.671875 7.296874-12.300781-5.3125-25.648438-8.109374-39.40625-8.109374-13.988281 0-27.308594 2.894531-39.410157 8.105468-.4375-2.386718-.667968-4.816406-.667968-7.292968 0-22.097657 17.980468-40.078126 40.078125-40.078126zm-119.84375 10.601563c0-5.488281 4.464843-9.953125 9.949219-9.953125 5.484374 0 9.949218 4.464844 9.949218 9.953125 0 5.484375-4.464844 9.949219-9.949218 9.949219-5.484376 0-9.949219-4.464844-9.949219-9.949219zm81.328125 87.773437c1.957031 1.953126 4.519531 2.933594 7.085937 2.933594 2.5625 0 5.128907-.980468 7.082031-2.933594 3.914063-3.914062 3.914063-10.257812 0-14.171874l-14.679687-14.683594c11.550781-6.492188 24.859375-10.214844 39.027344-10.214844 14.214843 0 27.882812 3.75 39.910156 10.757812.191406.121094.390625.230469.59375.339844 5.722656 3.398438 11.070313 7.535156 15.910156 12.378906 5.429688 5.429688 9.96875 11.5 13.578125 18.019532.144532.285156.304688.566406.476563.84375 1.648437 3.0625 3.070312 6.230468 4.296875 9.476562.046875.136719.105468.269532.15625.40625 3.257812 8.757813 4.972656 18.089844 4.972656 27.675782v9.867187c-1.507812-1.90625-3.089844-4.09375-4.363281-5.855469-5.40625-7.472656-12.136719-16.773437-21.566407-22.644531-11.738281-7.3125-24.910156-7.777344-39.148437-1.382813-9.441406 2.96875-19.929687 2.996094-29.433594.074219-14.625-6.414062-28.066406-5.9375-39.960937 1.425781-9.609375 5.949219-16.3125 15.285157-21.703125 22.785157-1.0625 1.484375-2.359375 3.285156-3.628907 4.9375v-9.207031c0-15.785157 4.621094-30.5 12.554688-42.90625.351562-.457032.664062-.945313.9375-1.460938 3.222656-4.808594 6.964844-9.238281 11.128906-13.234375zm-41.390625 103.089844v-28.824218c8.464843-1.5625 14.035156-9.304688 19.90625-17.476563 11.601562-16.15625 19.929687-25.386719 37.730469-17.375.347656.15625.703124.289063 1.066406.40625 6.832031 2.179687 13.964844 3.285156 21.199218 3.285156 7.371094 0 14.621094-1.144531 21.546876-3.40625.371093-.121093.734374-.265625 1.089843-.425781 16.3125-7.527344 24.046875-.132812 36.664063 17.3125 6.089844 8.417969 11.867187 16.398438 20.597656 18.035156v28.464844c0 30.015625-17.484375 58.113281-44.550781 71.59375-11.046875 5.507812-22.941407 8.304688-35.34375 8.304688-12.578125 0-24.628907-2.875-35.816407-8.539063-27.195312-13.761719-44.089843-41.101563-44.089843-71.355469zm42.734375 126.851563c4.09375-1.363281 6.851562-5.191407 6.851562-9.503907v-22.167968c9.777344 3.125 20.042969 4.757812 30.320313 4.757812 10.25 0 20.222656-1.535156 29.796875-4.558594v21.96875c0 4.765626 3.355468 8.867188 8.019531 9.820313l29.121094 5.929687-66.601563 57.140626-52.96875-58.230469zm61.832031 143.605469-14.929687-16.003907c-3.777344-4.046875-10.117188-4.261719-14.164063-.488281-4.046875 3.777344-4.265625 10.117188-.488281 14.160156l2.175781 2.332032h-97.710937v-22.042969c0-5.53125-4.484376-10.019531-10.019532-10.019531-5.53125 0-10.019531 4.488281-10.019531 10.019531v22.042969h-40.007813v-62.03125c0-28.113282 16.421876-52.464844 40.175782-63.972657l59.0625 63.292969c1.972656 2.113281 4.644531 3.183594 7.324218 3.183594 2.449219 0 4.90625-.894532 6.835938-2.695313 4.046875-3.773437 4.265625-10.117187.488281-14.160156l-52.292969-56.039063c3.097657-.414062 6.25-.648437 9.457032-.648437h14.625l121.042968 133.070313zm135.390625 0h-40.078125v-22.042969c0-5.53125-4.484375-10.019531-10.019531-10.019531-5.53125 0-10.019532 4.488281-10.019532 10.019531v22.042969h-26.628906l-59.480468-65.390626 78.78125-67.589843c37.511718 1.882812 67.445312 32.984375 67.445312 70.949219zm0 0"/><path d="m147.507812 460.230469c.542969.359375 1.121094.667969 1.722657.921875.613281.25 1.242187.449218 1.875.570312.652343.128906 1.3125.199219 1.964843.199219.648438 0 1.3125-.070313 1.953126-.199219.640624-.121094 1.273437-.320312 1.871093-.570312.613281-.253906 1.195313-.5625 1.734375-.921875.550782-.363281 1.0625-.78125 1.523438-1.242188 1.863281-1.867187 2.9375-4.449219 2.9375-7.085937 0-.648438-.070313-1.3125-.203125-1.953125-.128907-.640625-.320313-1.273438-.570313-1.882813-.25-.601562-.558594-1.183594-.921875-1.726562-.359375-.550782-.78125-1.058594-1.242187-1.519532-.460938-.460937-.972656-.882812-1.523438-1.253906-.539062-.351562-1.121094-.660156-1.734375-.910156-.597656-.253906-1.230469-.453125-1.871093-.582031-1.292969-.261719-2.625-.261719-3.917969 0-.632813.128906-1.261719.328125-1.875.582031-.601563.25-1.179688.558594-1.722657.910156-.550781.371094-1.0625.792969-1.523437 1.253906-.460937.460938-.882813.96875-1.25 1.519532-.363281.542968-.671875 1.125-.921875 1.726562-.253906.609375-.441406 1.242188-.574219 1.882813-.128906.640625-.1875 1.304687-.1875 1.953125 0 2.636718 1.0625 5.21875 2.933594 7.085937.460937.460938.972656.878907 1.523437 1.242188zm0 0"/></svg>