<svg height="512pt" viewBox="-86 0 512 512" width="512pt" xmlns="http://www.w3.org/2000/svg"><g fill="#97b6bf"><path d="m70.136719 69.136719v176.964843c-5.902344-3.40625-12.746094-5.363281-20.039063-5.363281-7.296875 0-14.136718 1.957031-20.039062 5.363281v-176.964843c0-5.53125 2.242187-10.542969 5.871094-14.167969 3.625-3.628906 8.636718-5.871094 14.167968-5.871094 11.070313 0 20.039063 8.976563 20.039063 20.039063zm0 0"/><path d="m150.296875 244.902344v-214.839844c0-11.070312-8.976563-20.042969-20.042969-20.042969-11.070312 0-20.042968 8.972657-20.042968 20.042969v214.839844"/><path d="m230.453125 244.902344v-214.839844c0-11.070312-8.972656-20.042969-20.042969-20.042969-11.070312 0-20.042968 8.972657-20.042968 20.042969v214.839844"/><path d="m310.605469 69.136719v176.964843c-5.902344-3.40625-12.746094-5.363281-20.039063-5.363281-7.292968 0-14.136718 1.957031-20.039062 5.363281v-176.964843c0-5.53125 2.246094-10.542969 5.871094-14.167969 3.628906-3.628906 8.636718-5.871094 14.167968-5.871094 11.070313 0 20.039063 8.976563 20.039063 20.039063zm0 0"/></g><path d="m330.625 279.605469c-.421875-14.328125-8.375-26.761719-20.019531-33.503907-5.902344-3.40625-12.746094-5.363281-20.039063-5.363281-7.292968 0-14.136718 1.957031-20.039062 5.363281-11.644532 6.742188-19.597656 19.175782-20.019532 33.503907-.007812.402343-.019531.8125-.019531 1.214843 0-.402343-.011719-.8125-.019531-1.214843-.640625-21.570313-18.335938-38.867188-40.058594-38.867188s-39.417968 17.296875-40.058594 38.867188c-.011718.402343-.019531.8125-.019531 1.214843 0-.402343-.011719-.8125-.019531-1.214843-.640625-21.570313-18.335938-38.867188-40.058594-38.867188s-39.417968 17.296875-40.058594 38.867188c-.011718.402343-.019531.8125-.019531 1.214843 0-.402343-.011719-.8125-.019531-1.214843-.421875-14.328125-8.378906-26.761719-20.019531-33.503907-5.902344-3.40625-12.746094-5.363281-20.039063-5.363281-7.296875 0-14.136718 1.957031-20.039062 5.363281-11.644532 6.742188-19.597656 19.175782-20.019532 33.503907-.011718.261719-.011718 97.3125-.019531 163.089843 0 32.742188 26.539063 59.285157 59.285157 59.285157h202.054687c32.742187 0 59.285156-26.542969 59.285156-59.285157v-161.875c0-.402343-.007812-.8125-.019531-1.214843zm-71.027344 112.191406c0 16.03125-13.117187 29.144531-29.148437 29.144531h-120.234375c-16.03125 0-29.148438-13.113281-29.148438-29.144531v-2.554687c0-16.035157 13.117188-29.148438 29.148438-29.148438h120.234375c16.03125 0 29.148437 13.113281 29.148437 29.148438zm0 0" fill="#bf8b3f"/><path d="m259.597656 389.242188v2.554687c0 16.03125-13.117187 29.144531-29.148437 29.144531h-120.234375c-16.03125 0-29.148438-13.113281-29.148438-29.144531v-2.554687c0-16.035157 13.117188-29.148438 29.148438-29.148438h120.234375c16.03125 0 29.148437 13.113281 29.148437 29.148438zm0 0" fill="#fee4bb"/><path d="m340.640625 279.308594c-.390625-13.0625-5.773437-25.28125-15.15625-34.40625-1.539063-1.496094-3.167969-2.871094-4.859375-4.144532v-171.621093c0-16.574219-13.484375-30.058594-30.058594-30.058594-8.027344 0-15.574218 3.125-21.253906 8.804687-5.675781 5.679688-8.804688 13.226563-8.804688 21.253907v171.617187c-1.691406 1.273438-3.324218 2.652344-4.863281 4.148438-1.882812 1.832031-3.605469 3.785156-5.15625 5.847656-1.554687-2.058594-3.277343-4.015625-5.15625-5.847656-1.542969-1.496094-3.167969-2.871094-4.859375-4.144532v-210.695312c0-16.578125-13.484375-30.0625-30.0625-30.0625s-30.0625 13.484375-30.0625 30.0625v210.691406c-1.691406 1.273438-3.320312 2.652344-4.859375 4.148438-1.882812 1.832031-3.605469 3.785156-5.15625 5.847656-1.554687-2.058594-3.277343-4.015625-5.160156-5.847656-1.539063-1.496094-3.167969-2.871094-4.855469-4.144532v-210.695312c0-16.578125-13.488281-30.0625-30.0625-30.0625-16.578125 0-30.0625 13.484375-30.0625 30.0625v210.691406c-1.691406 1.273438-3.320312 2.652344-4.859375 4.148438-1.882812 1.832031-3.605469 3.785156-5.15625 5.847656-1.554687-2.0625-3.277343-4.015625-5.160156-5.847656-1.539063-1.496094-3.167969-2.875-4.859375-4.148438v-171.617187c0-16.574219-13.484375-30.058594-30.058594-30.058594-8.027344 0-15.574218 3.125-21.253906 8.804687-5.679688 5.679688-8.804688 13.226563-8.804688 21.253907v171.617187c-1.691406 1.273438-3.324218 2.652344-4.863281 4.148438-9.382812 9.125-14.765625 21.34375-15.1562498 34.464844-.0039062.167968-.0117187.457031-.0195312 163.332031 0 18.511719 7.207031 35.914062 20.296875 49.003906s30.496094 20.296875 49.003906 20.296875h202.058594c38.214844 0 69.304687-31.089844 69.304687-69.300781v-161.878907c0-.488281-.011718-.980468-.023437-1.511718zm-60.09375-210.171875c0-2.675781 1.042969-5.191407 2.9375-7.082031 1.894531-1.894532 4.410156-2.9375 7.082031-2.9375 5.523438 0 10.019532 4.492187 10.019532 10.019531v162.59375c-3.265626-.660157-6.617188-1.007813-10.019532-1.007813s-6.753906.34375-10.019531 1.007813zm-80.160156-39.074219c0-5.527344 4.496093-10.023438 10.023437-10.023438s10.023438 4.496094 10.023438 10.023438v201.667969c-3.269532-.660157-6.621094-1.007813-10.027344-1.007813-3.402344 0-6.753906.347656-10.019531 1.007813zm-80.15625 0c0-5.527344 4.496093-10.023438 10.023437-10.023438 5.523438 0 10.019532 4.496094 10.019532 10.023438v201.667969c-3.265626-.660157-6.617188-1.007813-10.023438-1.007813-3.402344 0-6.753906.347656-10.019531 1.007813zm-80.152344 39.074219c0-2.675781 1.042969-5.191407 2.9375-7.082031 1.890625-1.894532 4.40625-2.9375 7.082031-2.9375 5.523438 0 10.019532 4.492187 10.019532 10.019531v162.59375c-3.265626-.660157-6.621094-1.007813-10.019532-1.007813-3.402344 0-6.753906.34375-10.019531 1.007813zm280.546875 373.5625c0 27.160156-22.101562 49.261719-49.265625 49.261719h-202.058594c-13.15625 0-25.527343-5.125-34.832031-14.429688s-14.429688-21.671875-14.429688-34.832031c.003907-78.96875.011719-159.242188.015626-162.921875.359374-10.5625 6.03125-19.628906 14.429687-24.699219.410156-.203125.8125-.421875 1.1875-.679687 4.277344-2.320313 9.1875-3.636719 14.425781-3.636719 5.234375 0 10.144532 1.316406 14.417969 3.632812.382813.261719.789063.484375 1.203125.691407 8.425781 5.082031 14.105469 14.1875 14.417969 24.769531.011719.316406.019531.640625.019531.964843v.03125 28.753907c0 5.53125 4.484375 10.019531 10.019531 10.019531 5.535157 0 10.019531-4.488281 10.019531-10.019531v-28.785157c0-.007812 0-.015624 0-.023437 0-.316406.007813-.632813.015626-.894531.484374-16.339844 13.679687-29.140625 30.042968-29.140625 16.363282 0 29.558594 12.800781 30.042969 29.089843.007813.316407.015625.644532.015625.96875v.027344 28.757813c0 5.53125 4.488281 10.019531 10.019531 10.019531 5.535157 0 10.019531-4.488281 10.019531-10.019531v-28.785157c0-.003906 0-.011718 0-.015624 0-.320313.007813-.640626.015626-.902344.484374-16.339844 13.679687-29.140625 30.039062-29.140625 16.363281 0 29.558594 12.800781 30.042969 29.089843.007812.316407.015625.644532.015625.96875v28.785157c0 5.53125 4.488281 10.019531 10.019531 10.019531 5.535156 0 10.019531-4.488281 10.019531-10.019531v-28.785157c0-.324218.011719-.648437.015625-.914062.316407-10.617188 6-19.734375 14.429688-24.824219.414062-.207031.816406-.429687 1.195312-.6875 4.277344-2.316406 9.183594-3.632812 14.421875-3.632812 5.238282 0 10.148438 1.316406 14.421875 3.636719.378907.253906.78125.476562 1.195313.683593 8.429687 5.082031 14.109375 14.1875 14.425781 24.769531.007813.316407.015625.644532.015625.96875zm0 0"/><path d="m230.449219 349.703125h-120.234375c-21.597656 0-39.167969 17.570313-39.167969 39.167969v2.550781c0 21.597656 17.570313 39.167969 39.167969 39.167969 5.535156 0 10.019531-4.488282 10.019531-10.019532 0-5.535156-4.484375-10.019531-10.019531-10.019531-10.546875 0-19.128906-8.582031-19.128906-19.128906v-2.550781c0-10.546875 8.582031-19.128906 19.128906-19.128906h120.234375c10.546875 0 19.128906 8.582031 19.128906 19.128906v2.550781c0 10.546875-8.582031 19.128906-19.128906 19.128906h-40.078125c-5.53125 0-10.019532 4.484375-10.019532 10.019531 0 5.53125 4.488282 10.019532 10.019532 10.019532h40.078125c21.597656 0 39.167969-17.570313 39.167969-39.167969v-2.550781c0-21.597656-17.570313-39.167969-39.167969-39.167969zm0 0"/><path d="m158.707031 417.113281c-.25-.609375-.558593-1.191406-.917969-1.730469-.371093-.550781-.792968-1.0625-1.253906-1.523437-.460937-.460937-.972656-.882813-1.523437-1.242187-.542969-.359376-1.121094-.671876-1.722657-.921876-.613281-.25-1.242187-.453124-1.875-.574218-1.292968-.257813-2.625-.257813-3.917968 0-.640625.121094-1.273438.324218-1.871094.574218-.613281.25-1.195312.5625-1.734375.921876-.550781.359374-1.0625.78125-1.523437 1.242187-.460938.460937-.882813.972656-1.242188 1.523437-.359375.539063-.671875 1.121094-.921875 1.730469-.25.601563-.441406 1.234375-.570313 1.875-.132812.640625-.203124 1.300781-.203124 1.953125s.070312 1.3125.203124 1.953125c.128907.644531.320313 1.273438.570313 1.886719.25.597656.5625 1.179688.921875 1.722656.359375.550782.78125 1.0625 1.242188 1.523438.460937.460937.972656.878906 1.523437 1.25.539063.363281 1.121094.671875 1.734375.921875.597656.25 1.230469.441406 1.871094.570312.640625.132813 1.304687.191407 1.953125.191407.664062 0 1.3125-.058594 1.964843-.191407.632813-.128906 1.261719-.320312 1.875-.570312.601563-.25 1.179688-.558594 1.722657-.921875.550781-.371094 1.0625-.789063 1.523437-1.25.460938-.460938.882813-.972656 1.253906-1.523438.359376-.542968.667969-1.125.917969-1.722656.253907-.613281.441407-1.242188.574219-1.886719.128906-.640625.1875-1.300781.1875-1.953125s-.058594-1.3125-.1875-1.953125c-.132812-.640625-.320312-1.273437-.574219-1.875zm0 0"/></svg>