<svg height="512pt" viewBox="0 0 512.00002 512" width="512pt" xmlns="http://www.w3.org/2000/svg"><path d="m327.890625 10.246094c-28.609375 0-53.3125 16.753906-64.820313 40.988281-4.425781 9.3125-6.90625 19.734375-6.90625 30.738281 0 3.484375.246094 6.90625.726563 10.246094 2.757813 19.304688 13.207031 36.128906 28.148437 47.269531 3.769532 2.804688 7.816407 5.265625 12.109376 7.292969 9.316406 4.4375 19.746093 6.917969 30.742187 6.917969 10.953125 0 21.332031-2.460938 30.625-6.84375 4.292969-2.03125 8.351563-4.480469 12.132813-7.285157 17.574218-13.066406 28.96875-34 28.96875-57.597656 0-39.625-32.105469-71.726562-71.726563-71.726562zm0 102.464844c-16.980469 0-30.742187-13.761719-30.742187-30.738282 0-16.980468 13.761718-30.738281 30.742187-30.738281 16.976563 0 30.738281 13.757813 30.738281 30.738281 0 16.976563-13.761718 30.738282-30.738281 30.738282zm0 0" fill="#bf8b3f"/><path d="m174.191406 174.191406c-33.945312 0-61.480468 27.523438-61.480468 61.480469 0 20.183594 9.726562 38.09375 24.746093 49.296875 4.898438 3.65625 10.371094 6.605469 16.242188 8.6875 6.414062 2.265625 13.308593 3.492188 20.492187 3.492188s14.089844-1.238282 20.492188-3.503907c5.839844-2.070312 11.28125-4.976562 16.160156-8.605469 15.0625-11.199218 24.828125-29.140624 24.828125-49.367187 0-33.957031-27.523437-61.480469-61.480469-61.480469zm0 87.824219c-14.550781 0-26.34375-11.792969-26.34375-26.34375s11.792969-26.34375 26.34375-26.34375c14.550782 0 26.34375 11.792969 26.34375 26.34375s-11.792968 26.34375-26.34375 26.34375zm0 0" fill="#97b6bf"/><path d="m501.753906 398.753906c0 56.265625-46.039062 102.304688-102.300781 102.304688-28.128906 0-53.703125-11.507813-72.261719-30.054688-18.535156-18.535156-30.042968-44.113281-30.042968-72.25v-251.972656c9.316406 4.4375 19.746093 6.917969 30.742187 6.917969 10.953125 0 21.332031-2.460938 30.625-6.84375v242.648437c0 22.398438 18.332031 40.730469 40.730469 40.730469 11.199218 0 21.386718-4.582031 28.773437-11.96875 7.378907-7.378906 11.957031-17.554687 11.957031-28.761719v-19.601562l-40.359374-11.40625 101.460937-81.839844zm0 0" fill="#e3f7f7"/><path d="m51.234375 133.71875v214.664062c0 28.289063 22.941406 51.234376 51.230469 51.234376 14.140625 0 26.949218-5.738282 36.222656-15.011719 9.273438-9.273438 15.011719-22.082031 15.011719-36.222657v-54.726562c6.414062 2.265625 13.308593 3.492188 20.492187 3.492188s14.089844-1.238282 20.492188-3.503907v54.738281c0 50.9375-41.28125 92.21875-92.21875 92.21875-25.472656 0-48.527344-10.316406-65.207032-27.007812-16.691406-16.683594-27.011718-39.738281-27.011718-65.210938v-215.351562c0-45.175781 36.621094-81.796875 81.796875-81.796875h171.027343c-4.425781 9.3125-6.90625 19.734375-6.90625 30.738281 0 3.484375.246094 6.90625.726563 10.246094h-164.160156c-22.921875 0-41.496094 18.578125-41.496094 41.5zm0 0" fill="#383e4b"/><path d="m327.890625 122.957031c22.597656 0 40.984375-18.382812 40.984375-40.984375 0-22.601562-18.386719-40.988281-40.984375-40.988281-22.601563 0-40.988281 18.386719-40.988281 40.988281 0 22.601563 18.386718 40.984375 40.988281 40.984375zm0-61.476562c11.300781 0 20.492187 9.191406 20.492187 20.492187 0 11.300782-9.191406 20.492188-20.492187 20.492188s-20.492187-9.191406-20.492187-20.492188c0-11.300781 9.191406-20.492187 20.492187-20.492187zm0 0"/><path d="m174.191406 272.265625c20.179688 0 36.59375-16.417969 36.59375-36.59375 0-20.179687-16.414062-36.59375-36.59375-36.59375-20.179687 0-36.59375 16.414063-36.59375 36.59375 0 20.175781 16.414063 36.59375 36.59375 36.59375zm0-52.695313c8.878906 0 16.101563 7.222657 16.101563 16.101563s-7.222657 16.101563-16.101563 16.101563-16.101562-7.222657-16.101562-16.101563 7.222656-16.101563 16.101562-16.101563zm0 0"/><path d="m511.324219 276.601562c-.023438-3.9375-2.296875-7.511718-5.851563-9.203124-3.554687-1.6875-7.765625-1.1875-10.828125 1.28125l-101.460937 81.839843c-2.984375 2.40625-4.375 6.273438-3.605469 10.027344.765625 3.753906 3.566406 6.769531 7.25 7.808594l32.902344 9.296875v11.847656c0 8.097656-3.179688 15.742188-8.957031 21.515625-5.78125 5.785156-13.425782 8.96875-21.527344 8.96875-16.808594 0-30.484375-13.675781-30.484375-30.484375v-236.460938c2.746093-1.582031 5.414062-3.332031 7.996093-5.25 20.730469-15.40625 33.105469-40.011718 33.105469-65.820312 0-45.199219-36.773437-81.96875-81.96875-81.96875-30.277343 0-56.753906 16.511719-70.949219 40.984375h-164.902343c-50.75 0-92.042969 41.292969-92.042969 92.046875v215.351562c0 27.382813 10.660156 53.117188 30.007812 72.453126 19.34375 19.355468 45.074219 30.011718 72.457032 30.011718 56.5 0 102.464844-45.964844 102.464844-102.464844v-47.886718c4.195312-1.996094 8.21875-4.410156 12.023437-7.234375 18.136719-13.484375 28.964844-35.011719 28.964844-57.59375 0-39.550781-32.175781-71.722657-71.722657-71.722657-39.550781 0-71.730468 32.171876-71.730468 71.722657 0 22.53125 10.792968 44.035156 28.867187 57.515625 3.832031 2.859375 7.886719 5.300781 12.121094 7.316406v47.882812c0 10.941407-4.265625 21.230469-12.011719 28.976563-7.742187 7.746094-18.035156 12.011719-28.976562 12.011719-22.597656 0-40.984375-18.386719-40.984375-40.988282v-214.664062c0-17.234375 14.019531-31.253906 31.25-31.253906h155.828125c4.65625 17.886718 15.285156 34 30.351562 45.234375 2.578125 1.925781 5.25 3.683593 7.992188 5.273437v245.78125c0 29.953125 11.738281 58.1875 33.046875 79.496094 21.328125 21.316406 49.5625 33.054688 79.503906 33.054688 62.058594 0 112.546875-50.492188 112.546875-112.605469zm-388.367188-40.933593c0-28.25 22.988281-51.230469 51.238281-51.230469 28.246094 0 51.230469 22.980469 51.230469 51.230469 0 16.371093-7.546875 31.367187-20.699219 41.144531-8.882812 6.601562-19.441406 10.089844-30.53125 10.089844-11.132812 0-21.714843-3.507813-30.605468-10.144532-13.113282-9.777343-20.632813-24.753906-20.632813-41.089843zm-30.226562-153.695313c-28.53125 0-51.746094 23.210938-51.746094 51.746094v214.664062c0 33.898438 27.582031 61.480469 61.480469 61.480469 16.414062 0 31.851562-6.398437 43.46875-18.011719 11.613281-11.617187 18.011718-27.054687 18.011718-43.46875v-41.722656c3.367188.480469 6.789063.738282 10.25.738282 3.457032 0 6.875-.257813 10.242188-.738282v41.722656c0 45.199219-36.773438 81.972657-81.972656 81.972657-21.90625 0-42.488282-8.523438-57.964844-24.011719-15.480469-15.46875-24.007812-36.054688-24.007812-57.960938v-215.351562c0-39.453125 32.097656-71.550781 71.550781-71.550781h156.46875c-1.695313 6.550781-2.59375 13.414062-2.59375 20.488281v.003906zm173.679687-.003906c0-33.898438 27.582032-61.476562 61.484375-61.476562 33.898438 0 61.476563 27.578124 61.476563 61.476562 0 19.644531-9.054688 37.640625-24.839844 49.371094-10.65625 7.925781-23.328125 12.113281-36.636719 12.113281-9.09375 0-17.878906-1.957031-25.925781-5.714844-.257812-.136719-.523438-.265625-.792969-.378906-3.492187-1.691406-6.839843-3.71875-10.011719-6.085937-15.730468-11.730469-24.753906-29.703126-24.753906-49.304688zm133.042969 408.839844c-24.46875 0-47.5625-9.605469-65.015625-27.050782-17.4375-17.4375-27.039062-40.523437-27.039062-65.003906v-237.390625c3.441406.882813 6.949218 1.554688 10.507812 1.984375v72.902344c0 5.660156 4.589844 10.25 10.246094 10.25 5.660156 0 10.25-4.589844 10.25-10.25v-72.976562c3.335937-.425782 6.632812-1.054688 9.867187-1.882813v228.113281c0 28.109375 22.867188 50.976563 50.976563 50.976563 13.574218 0 26.363281-5.316407 36.019531-14.96875 9.644531-9.648438 14.957031-22.4375 14.957031-36.007813v-19.601562c0-4.589844-3.046875-8.613282-7.460937-9.863282l-21.28125-6.011718 69.46875-56.035156.558593 100.761718c0 50.761719-41.296874 92.054688-92.054687 92.054688zm0 0"/><path d="m337.347656 273.316406c-.257812-.617187-.574218-1.210937-.941406-1.761718-.371094-.566407-.800781-1.085938-1.273438-1.558594-.46875-.480469-1.003906-.902344-1.554687-1.28125-.566406-.367188-1.160156-.6875-1.773437-.941406-.617188-.257813-1.261719-.453126-1.917969-.585938-1.320313-.265625-2.683594-.265625-4.003907 0-.65625.132812-1.300781.328125-1.917968.585938-.613282.253906-1.207032.574218-1.773438.941406-.550781.378906-1.085937.800781-1.554687 1.28125-.472657.472656-.902344.992187-1.273438 1.558594-.367187.550781-.683593 1.144531-.941406 1.761718-.257813.613282-.449219 1.257813-.582031 1.914063-.136719.667969-.195313 1.335937-.195313 2.007812 0 .667969.058594 1.34375.195313 2 .132812.65625.324218 1.300781.582031 1.914063.257813.617187.574219 1.210937.941406 1.773437.378907.554688.800781 1.085938 1.28125 1.558594.472657.472656.996094.902344 1.558594 1.269531.554687.371094 1.148437.6875 1.761719.945313.617187.253906 1.261718.449219 1.917968.582031.664063.132812 1.332032.203125 2.007813.203125.664063 0 1.332031-.070313 1.996094-.203125.65625-.132812 1.300781-.328125 1.917969-.582031.613281-.257813 1.207031-.574219 1.761718-.945313.5625-.367187 1.085938-.796875 1.558594-1.269531.480469-.472656.902344-1.003906 1.28125-1.558594.367188-.5625.683594-1.15625.941406-1.773437.257813-.613282.449219-1.257813.582032-1.914063.136718-.65625.207031-1.332031.207031-2 0-.671875-.070313-1.339843-.207031-2.007812-.132813-.652344-.324219-1.300781-.582032-1.914063zm0 0"/></svg>