<svg height="511pt" viewBox="1 0 511.99999 511" width="511pt" xmlns="http://www.w3.org/2000/svg"><path d="m161.777344 434.640625-50.125 50.121094c-23.246094 23.261719-60.945313 23.261719-84.195313 0-23.25-23.246094-23.25-60.945313 0-84.195313l50.125-50.125c-54.953125 54.957032 29.242188 139.152344 84.195313 84.199219zm0 0" fill="#ff5d5d"/><path d="m244.960938 351.453125-83.183594 83.1875c-54.953125 54.953125-139.148438-29.242187-84.195313-84.199219l83.765625-83.761718c-54.753906 54.753906 28.640625 138.546874 83.613282 84.773437zm0 0" fill="#ff7d7d"/><path d="m363.667969 232.746094-118.117188 118.128906c-.199219.199219-.390625.390625-.589843.578125-54.972657 53.773437-138.367188-30.019531-83.613282-84.773437l118.277344-118.277344c17.296875-17.289063 42.558594-21.714844 63.941406-13.300782l-.210937.210938c-21.34375-8.367188-46.554688-3.925781-63.800781 13.320312-23.230469 23.226563-23.230469 60.886719 0 84.113282 23.226562 23.230468 60.886718 23.230468 84.113281 0zm0 0" fill="#ff5d5d"/><path d="m365.785156 230.53125c-.683594.753906-1.394531 1.496094-2.113281 2.214844-23.230469 23.230468-60.890625 23.230468-84.117187 0-23.226563-23.226563-23.226563-60.886719 0-84.113282 17.246093-17.246093 42.457031-21.6875 63.804687-13.320312l-25.3125 25.3125c-22.148437 22.15625 11.402344 55.699219 33.546875 33.550781l25.34375-25.34375c8.085938 20.472657 4.359375 44.523438-11.152344 61.699219zm0 0" fill="#bf4646"/><path d="m413.304688 73.324219-.011719 23.730469c0 22.035156-7.746094 43.167968-23.328125 58.75l-38.371094 38.371093c-22.144531 22.148438-55.695312-11.394531-33.550781-33.550781l25.523437-25.523438 13.066406-13.054687c6.625-6.632813 11.355469-15.625 11.355469-25.003906v-23.71875c0-13.066407 9.589844-23.660157 22.65625-23.660157 6.535157 0 12.195313 2.65625 16.234375 6.933594 4.027344 4.28125 6.425782 10.191406 6.425782 16.726563zm0 0" fill="#97b6bf"/><path d="m390.652344 39.648438c-.003906 0-.007813 0-.007813 0-9.046875 0-17.402343 3.578124-23.523437 10.078124-5.902344 6.269532-9.152344 14.648438-9.152344 23.597657v23.722656c0 6.03125-3.070312 12.558594-8.421875 17.914063l-8.675781 8.671874c-24.125-6.90625-50.332032-.308593-68.335938 17.683594l-202.035156 202.035156v.003907s-.003906.003906-.003906.003906l-50.125 50.121094c-13.136719 13.140625-20.371094 30.605469-20.371094 49.183593 0 18.582032 7.234375 36.046876 20.371094 49.183594 13.136718 13.140625 30.605468 20.378906 49.183594 20.378906 18.582031 0 36.050781-7.238281 49.183593-20.378906l50.042969-50.039062c.027344-.027344.058594-.054688.089844-.085938.011718-.011718.023437-.023437.035156-.039062l83.636719-83.632813c.03125-.03125.0625-.0625.09375-.09375.011719-.011719.023437-.027343.035156-.039062l118.082031-118.082031c.867188-.867188 1.695313-1.734376 2.4375-2.554688.007813-.007812.015625-.015625.023438-.023438.003906-.003906.003906-.007812.007812-.011718.558594-.617188 1.105469-1.25 1.640625-1.886719 10.605469-12.523437 16.425781-28.347656 16.425781-44.859375 0-6.53125-.902343-12.949219-2.683593-19.164062l8.441406-8.441407c16.941406-16.9375 26.269531-40.316406 26.273437-65.835937v-23.730469c.003907-8.949219-3.246093-17.328125-9.148437-23.597656-6.121094-6.5-14.472656-10.082031-23.519531-10.082031zm-89.824219 139.320312c.519531 8.152344 4.175781 16.011719 10.292969 22.132812 6.359375 6.359376 15.097656 10.417969 24.234375 10.417969 7.902343 0 16.105469-3.039062 23.324219-10.253906l12.320312-12.324219c.394531 12.058594-3.589844 24.117188-11.480469 33.527344-.382812.449219-.761719.898438-1.160156 1.335938-.539063.59375-1.136719 1.21875-1.777344 1.859374-9.339843 9.339844-21.761719 14.484376-34.96875 14.484376-13.210937 0-25.628906-5.144532-34.972656-14.484376-9.339844-9.34375-14.488281-21.761718-14.488281-34.972656 0-13.210937 5.148437-25.628906 14.488281-34.972656 9.847656-9.847656 23.167969-14.894531 36.605469-14.457031l-12.285156 12.285156c-7.125 7.121094-10.722657 16.148437-10.132813 25.421875zm-196.261719 298.710938c-9.351562 9.355468-21.785156 14.507812-35.011718 14.507812-13.226563 0-25.65625-5.152344-35.011719-14.511719-9.351563-9.351562-14.5-21.785156-14.5-35.011719 0-13.226562 5.148437-25.660156 14.5-35.007812l15.171875-15.171875c.027344.902344.050781 1.808594.113281 2.722656 1.160156 16.691407 8.8125 32.898438 21.550781 45.636719 12.785156 12.789062 30.199219 21.09375 48.4375 21.585938zm133.816406-133.816407c-10.6875 10.652344-23.308593 15.75-36.503906 14.75-5.515625-.445312-10.332031 3.710938-10.75 9.230469-.421875 5.519531 3.714844 10.332031 9.230469 10.753906 1.050781.078125 2.09375.125 3.136719.152344l-48.875 48.875c-10.605469 10.574219-23.128906 15.6875-36.214844 14.777344-11.867188-.824219-23.539062-6.410156-32.855469-15.726563-9.320312-9.320312-14.902343-20.988281-15.726562-32.855469-.910157-13.121093 4.222656-25.667968 14.847656-36.292968 0 0 0 0 .003906-.003906l48.820313-48.820313c.125 5.339844.925781 10.726563 2.4375 16.082031 1.25 4.417969 5.265625 7.300782 9.640625 7.300782.902343 0 1.816406-.125 2.726562-.382813 5.328125-1.503906 8.425781-7.039063 6.921875-12.367187-4.597656-16.269532.09375-32.457032 13.214844-45.574219.003906-.003907.007812-.007813.011719-.011719l83.679687-83.679688c-.003906.207032-.015625.414063-.015625.621094 0 18.5625 7.226563 36.015625 20.355469 49.144532 13.128906 13.125 30.578125 20.355468 49.144531 20.355468.152344 0 .300781-.011718.453125-.011718zm164.894532-246.804687c-.003906 20.164062-7.246094 38.511718-20.402344 51.664062l-12.746094 12.75c-.007812.007813-.015625.015625-.023437.023438l-.179688.175781c-.003906.007813-.011719.015625-.019531.023437l-25.398438 25.398438c-9.257812 9.253906-18.222656.828125-19.210937-.164062-2.632813-2.628907-4.261719-5.996094-4.464844-9.234376-.226562-3.542968 1.21875-6.898437 4.300781-9.980468l38.585938-38.582032c9.082031-9.082031 14.292969-20.78125 14.292969-32.089843v-23.71875c0-3.820313 1.316406-7.324219 3.703125-9.859375 1.621094-1.722656 4.488281-3.777344 8.929687-3.777344h.003907c4.441406 0 7.308593 2.054688 8.929687 3.777344 2.386719 2.539062 3.703125 6.039062 3.699219 9.863281zm0 0"/><path d="m501.980469 64.449219h-47.917969c-5.535156 0-10.023438 4.484375-10.023438 10.019531s4.488282 10.019531 10.023438 10.019531h47.917969c5.53125 0 10.019531-4.484375 10.019531-10.019531s-4.488281-10.019531-10.019531-10.019531zm0 0"/><path d="m448.050781 50.585938c2.523438 0 5.046875-.945313 6.996094-2.84375l30.816406-30.046876c3.960938-3.859374 4.042969-10.207031.179688-14.167968-3.863281-3.964844-10.210938-4.046875-14.171875-.179688l-30.816406 30.042969c-3.960938 3.863281-4.042969 10.207031-.179688 14.171875 1.964844 2.011719 4.570312 3.023438 7.175781 3.023438zm0 0"/><path d="m455.136719 100.535156c-3.914063-3.914062-10.253907-3.914062-14.171875 0-3.914063 3.914063-3.914063 10.257813 0 14.171875l30.777344 30.777344c1.957031 1.953125 4.523437 2.933594 7.085937 2.933594 2.566406 0 5.128906-.980469 7.085937-2.933594 3.914063-3.914063 3.914063-10.261719 0-14.175781zm0 0"/><path d="m282.542969 84.488281h47.917969c5.535156 0 10.019531-4.484375 10.019531-10.019531s-4.484375-10.019531-10.019531-10.019531h-47.917969c-5.535157 0-10.019531 4.484375-10.019531 10.019531s4.484374 10.019531 10.019531 10.019531zm0 0"/><path d="m329.476562 47.742188c1.945313 1.898437 4.46875 2.84375 6.992188 2.84375 2.605469 0 5.210938-1.011719 7.175781-3.023438 3.863281-3.964844 3.78125-10.308594-.179687-14.171875l-30.816406-30.042969c-3.960938-3.863281-10.304688-3.785156-14.167969.179688-3.863281 3.960937-3.785157 10.304687.179687 14.167968zm0 0"/><path d="m172.128906 345.84375c-.550781-.359375-1.132812-.671875-1.734375-.921875-.601562-.25-1.230469-.441406-1.871093-.570313-1.292969-.261718-2.628907-.261718-3.917969 0-.644531.128907-1.273438.320313-1.875.570313-.601563.25-1.183594.5625-1.734375.921875-.542969.371094-1.050782.78125-1.511719 1.253906-.472656.460938-.882813.96875-1.253906 1.511719-.359375.550781-.671875 1.132813-.921875 1.734375s-.441406 1.230469-.570313 1.871094c-.132812.652344-.191406 1.304687-.191406 1.964844 0 .652343.058594 1.304687.191406 1.953124.128907.644532.320313 1.273438.570313 1.875.25.601563.5625 1.183594.921875 1.734376.371093.539062.78125 1.0625 1.253906 1.523437.460937.460937.96875.878906 1.511719 1.242187.550781.359376 1.132812.671876 1.734375.921876.601562.25 1.230469.441406 1.875.570312.648437.128906 1.300781.191406 1.960937.191406.652344 0 1.304688-.0625 1.957032-.191406.640624-.128906 1.269531-.320312 1.871093-.570312.601563-.25 1.183594-.5625 1.734375-.921876.542969-.363281 1.0625-.78125 1.523438-1.242187.460937-.460937.882812-.980469 1.242187-1.523437.363281-.554688.671875-1.132813.921875-1.734376.25-.601562.441406-1.230468.570313-1.875.132812-.648437.203125-1.300781.203125-1.953124 0-2.644532-1.074219-5.222657-2.9375-7.082032-.460938-.472656-.980469-.882812-1.523438-1.253906zm0 0"/></svg>