<svg height="511pt" viewBox="0 1 511 511.999" width="511pt" xmlns="http://www.w3.org/2000/svg"><path d="m114.875 482.230469c21.257812-23.511719 20.542969-59.828125-2.125-82.5-23.390625-23.390625-61.320312-23.390625-84.722656-.007813l63.113281-63.113281 84.679687 84.671875zm0 0" fill="#707c96"/><path d="m204.152344 392.949219-28.328125 28.332031-84.683594-84.671875 28.339844-28.339844zm0 0" fill="#4c5b7c"/><path d="m232.625 364.480469-28.472656 28.46875-84.671875-84.679688 28.460937-28.460937zm0 0" fill="#707c96"/><path d="m260.695312 336.410156-28.070312 28.070313-84.683594-84.671875 27.980469-27.96875 42.285156 42.285156 38.640625 38.628906c1.261719 1.261719 2.542969 2.484375 3.847656 3.65625zm0 0" fill="#4c5b7c"/><path d="m501.925781 242.5625-90.070312 90.148438c-41.535157 41.566406-108.144531 42.808593-151.160157 3.699218-1.304687-1.171875-2.585937-2.394531-3.847656-3.65625l-38.640625-38.628906c-19.539062-19.511719 264.136719-303.617188 283.675781-284.109375l-34.417968 127.808594c-2.496094 9.238281-7.363282 17.660156-14.128906 24.425781l-80.339844 80.339844c-13.816406 13.816406-.183594 36.957031 18.601562 31.578125l58.605469-31.375zm0 0" fill="#97b6bf"/><path d="m501.882812 10.015625-283.675781 284.109375-42.285156-42.285156.089844-.09375c-39.199219-43.015625-38.007813-109.703125 3.597656-151.269532l90.160156-90.070312-.230469 51.722656-31.375 58.605469c-5.390624 18.785156 17.761719 32.40625 31.578126 18.59375l80.453124-80.574219c6.417969-6.429687 14.324219-11.171875 23.019532-13.804687zm0 0" fill="#e3f7f7"/><path d="m112.75 399.730469c-23.390625-23.390625-61.320312-23.390625-84.722656-.007813l-.019532.019532c-23.382812 23.402343-23.382812 61.328124.011719 84.722656 22.667969 22.667968 58.984375 23.378906 82.496094 2.121094.050781-.039063.089844-.078126.140625-.128907l4.105469-4.109375c.042969-.039062.082031-.078125.113281-.117187 21.257812-23.511719 20.542969-59.828125-2.125-82.5zm-26.207031 58.527343c-8.925781 8.925782-23.390625 8.925782-32.308594 0-8.925781-8.925781-8.925781-23.394531 0-32.308593 8.917969-8.925781 23.382813-8.925781 32.308594 0 8.914062 8.914062 8.914062 23.382812 0 32.308593zm0 0" fill="#ff5d5d"/><path d="m86.542969 458.257812c-8.925781 8.925782-23.390625 8.925782-32.308594 0-8.925781-8.925781-8.925781-23.394531 0-32.308593 8.917969-8.925781 23.382813-8.925781 32.308594 0 8.914062 8.914062 8.914062 23.382812 0 32.308593zm0 0" fill="#e3f7f7"/><path d="m501.917969 232.539062c-.015625 0-.03125 0-.042969 0l-51.71875.234376c-1.636719.007812-3.242188.414062-4.6875 1.1875l-57.511719 30.792968c-5.570312 1.121094-8.472656-2.933594-9.253906-4.257812-.820313-1.394532-3.148437-6.296875 1.378906-10.824219l80.335938-80.335937c7.996093-7.992188 13.773437-17.988282 16.71875-28.90625l34.261719-127.203126c1.179687-3.496093.386718-7.507812-2.394532-10.292968-1.300781-1.300782-2.871094-2.15625-4.53125-2.59375-.011718-.003906-.023437-.007813-.035156-.011719-.375-.09375-.753906-.167969-1.136719-.222656-.0625-.0078128-.128906-.0195315-.191406-.027344-.402344-.046875-.804687-.078125-1.210937-.078125-.035157 0-.074219.00390625-.113282.0078125-.34375.0039063-.683594.0273437-1.023437.0664063-.152344.015625-.300781.0390622-.449219.0664062-.242188.039063-.480469.085937-.71875.144531-.109375.027344-.222656.035156-.332031.066406l-128.675781 34.933594c-.09375.023438-.183594.050782-.273438.078125-10.242188 3.097657-19.652344 8.738281-27.207031 16.308594l-80.449219 80.574219c-4.527344 4.527344-9.429688 2.195312-10.824219 1.378906-1.324219-.78125-5.382812-3.679688-4.257812-9.253906l30.792969-57.515625c.773437-1.4375 1.179687-3.046875 1.1875-4.683594l.234374-51.71875c.019532-4.058594-2.414062-7.726563-6.160156-9.289063s-8.066406-.710937-10.9375 2.160157l-90.15625 90.066406c-22.609375 22.585937-35.066406 52.625-35.070312 84.582031-.007813 26.835938 8.769531 52.324219 24.964844 73.1875l-145.269532 145.269532c-.800781.800781-1.429687 1.707031-1.902344 2.671874-21.410156 27.414063-19.53125 67.234376 5.679688 92.449219 13.632812 13.632813 31.539062 20.449219 49.449219 20.449219 15.332031 0 30.660156-5.015625 43.308593-15.011719.828126-.449219 1.609376-1.019531 2.308594-1.71875l145.28125-145.28125c20.832032 16.132813 46.261719 24.878907 73.042969 24.878907h.027344c31.957031-.007813 61.996093-12.464844 84.578125-35.070313l90.070312-90.160156c2.871094-2.871094 3.722656-7.1875 2.160156-10.933594-1.558593-3.734375-5.203124-6.164063-9.246093-6.164063zm-255.488281 103.96875-13.808594 13.808594-70.503906-70.503906 13.808593-13.808594zm-42.273438 42.273438-70.507812-70.503906 14.296874-14.300782 70.507813 70.507813zm-28.335938 28.335938-70.507812-70.507813 14.167969-14.167969 70.507812 70.507813zm-140.714843 70.265624c-19.453125-19.453124-19.453125-51.109374 0-70.5625 9.726562-9.726562 22.503906-14.589843 35.28125-14.589843 12.777343 0 25.554687 4.863281 35.28125 14.589843 18.800781 18.800782 19.425781 49 1.882812 68.566407l-3.878906 3.882812c-19.566406 17.542969-49.765625 16.917969-68.566406-1.886719zm84.730469-84.730468c-13.808594-13.804688-31.996094-20.605469-50.128907-20.429688l21.441407-21.441406 70.503906 70.503906-21.382813 21.382813c.144531-18.097657-6.65625-36.238281-20.433593-50.015625zm284.925781-67.019532c-18.800781 18.820313-43.808594 29.191407-70.410157 29.195313-.011718 0-.015624 0-.023437 0-24.367187 0-47.398437-8.699219-65.550781-24.625-.265625-.347656-36.59375-36.277344-36.59375-36.277344l116.769531-116.5625c3.914063-3.90625 3.921875-10.25.011719-14.167969-3.90625-3.914062-10.25-3.917968-14.167969-.011718l-116.78125 116.574218s-34.21875-34.671874-34.78125-35.234374c-.328125-.328126-.679687-.621094-1.042969-.894532-15.972656-18.171875-24.699218-41.238281-24.691406-65.652344.003906-26.601562 10.371094-51.609374 29.195312-70.410156l72.949219-72.878906-.113281 24.90625-30.203125 56.410156c-.335937.625-.605469 1.285156-.800781 1.96875-3.691406 12.886719 1.589844 26.113282 13.140625 32.914063s25.675781 5.003906 35.160156-4.480469l80.457031-80.578125c5.195313-5.207031 11.660156-9.09375 18.699219-11.246094l92.257813-25.050781-76.832032 76.851562c-3.910156 3.910157-3.910156 10.253907 0 14.167969 1.957032 1.953125 4.519532 2.933594 7.082032 2.933594 2.566406 0 5.128906-.980469 7.085937-2.9375l76.875-76.890625-24.664063 91.558594c-2.027343 7.535156-6.019531 14.433594-11.539062 19.953125l-80.335938 80.335937c-9.476562 9.480469-11.273437 23.605469-4.472656 35.15625 6.800782 11.550782 20.027344 16.828125 32.914063 13.136719.683593-.195313 1.34375-.460937 1.96875-.796875l56.410156-30.203125 24.90625-.113281zm0 0"/><path d="m93.625 418.863281c-12.8125-12.8125-33.664062-12.8125-46.480469 0-12.8125 12.8125-12.8125 33.664063 0 46.480469 6.410157 6.40625 14.824219 9.609375 23.242188 9.609375 8.414062 0 16.832031-3.203125 23.238281-9.609375 12.8125-12.816406 12.8125-33.667969 0-46.480469zm-14.167969 32.308594c-5 5.003906-13.140625 5.003906-18.140625 0-5.003906-5-5.003906-13.140625 0-18.140625 2.5-2.5 5.785156-3.75 9.070313-3.75 3.285156 0 6.570312 1.25 9.070312 3.75 5.003907 5 5.003907 13.140625 0 18.140625zm0 0"/><path d="m364.648438 150.269531c.542968.359375 1.121093.667969 1.734374.921875.601563.25 1.230469.4375 1.871094.566406.640625.132813 1.304688.203126 1.953125.203126.652344 0 1.3125-.070313 1.953125-.203126.644532-.128906 1.273438-.316406 1.882813-.566406.601562-.253906 1.183593-.5625 1.726562-.921875.550781-.371093 1.0625-.78125 1.523438-1.253906.457031-.460937.878906-.972656 1.25-1.511719.351562-.554687.660156-1.132812.910156-1.734375.253906-.601562.453125-1.230469.574219-1.871093.128906-.652344.199218-1.304688.199218-1.957032 0-.660156-.070312-1.3125-.199218-1.960937-.121094-.640625-.320313-1.273438-.574219-1.875-.25-.601563-.558594-1.179688-.910156-1.730469-.371094-.542969-.792969-1.0625-1.25-1.523438-.460938-.460937-.972657-.882812-1.523438-1.242187-.542969-.359375-1.125-.671875-1.726562-.921875-.609375-.25-1.238281-.441406-1.882813-.570312-3.253906-.652344-6.710937.410156-9.035156 2.734374-.460938.460938-.882812.980469-1.242188 1.523438-.359374.550781-.671874 1.132812-.921874 1.730469-.25.601562-.441407 1.234375-.570313 1.875-.132813.648437-.199219 1.300781-.199219 1.960937 0 2.636719 1.070313 5.210938 2.933594 7.074219.460938.46875.972656.878906 1.523438 1.253906zm0 0"/></svg>