<svg height="512pt" viewBox="0 -1 512 511" width="512pt" xmlns="http://www.w3.org/2000/svg"><path d="m259.796875 488.148438h-169.675781c-5.527344 0-10.535156-2.242188-14.160156-5.867188s-5.867188-8.632812-5.867188-14.160156c0-11.066406 8.960938-20.027344 20.027344-20.027344h20.023437c5.527344 0 10.535157-2.242188 14.160157-5.867188s5.867187-8.632812 5.867187-14.160156c0-11.0625-8.960937-20.023437-20.027344-20.023437h-40.050781c-11.066406 0-20.027344-8.964844-20.027344-20.027344 0-11.066406 8.960938-20.027344 20.027344-20.027344h82.679688" fill="#e3f7f7"/><path d="m147.136719 314.925781c-.113281 2.605469-.171875 5.230469-.171875 7.863281 0 15.621094 2.011718 30.769532 5.808594 45.199219 14.449218 55.0625 54.683593 99.683594 107.023437 120.160157 20.035156 7.851562 41.855469 12.15625 64.675781 12.15625 98.039063 0 177.515625-79.476563 177.515625-177.515626 0-81.597656-55.066406-150.339843-130.054687-171.089843v-49.3125h-94.914063v49.3125c-19.929687 5.507812-38.441406 14.410156-54.882812 26.035156" fill="#4c5b7c"/><path d="m338.933594 85.949219v16.441406h-34.011719v-16.449219c0-17.402344-6.914063-34.089844-19.21875-46.390625-6.644531-6.640625-6.644531-17.410156-.003906-24.054687 6.644531-6.644532 17.414062-6.644532 24.058593 0 18.679688 18.6875 29.175782 44.027344 29.175782 70.453125zm0 0" fill="#97b6bf"/><path d="m30.039062 137.683594h100.132813c11.0625 0 20.027344 8.964844 20.027344 20.023437 0 11.0625 8.964843 20.027344 20.027343 20.027344h130.023438c16.589844 0 30.039062 13.449219 30.039062 30.039063 0 16.59375-13.449218 30.042968-30.039062 30.042968h-70.359375c-10.832031 0-19.613281 8.777344-19.613281 19.609375s8.78125 19.613281 19.613281 19.613281h20.027344c11.289062 0 20.441406 9.148438 20.441406 20.441407 0 11.289062-9.152344 20.441406-20.441406 20.441406h-89.707031c-16.589844 0-30.039063-13.449219-30.039063-30.039063 0-16.59375-13.449219-30.042968-30.039063-30.042968h-70.09375c-11.058593 0-20.027343-8.964844-20.027343-20.023438 0-11.0625 8.96875-20.027344 20.027343-20.027344h20.027344c11.0625 0 20.027344-8.964843 20.027344-20.027343 0-11.058594-8.964844-20.027344-20.027344-20.027344h-20.027344c-11.058593 0-20.027343-8.964844-20.027343-20.027344 0-11.058593 8.96875-20.023437 20.027343-20.023437zm0 0" fill="#e3f7f7"/><path d="m473.007812 208.308594c-23.132812-29.972656-55.25-52.511719-91.058593-64.058594v-41.863281c0-5.53125-4.484375-10.015625-10.015625-10.015625h-22.984375v-6.421875c0-29.289063-11.40625-56.820313-32.113281-77.53125-5.101563-5.105469-11.890626-7.917969-19.105469-7.917969-.003907 0-.003907 0-.003907 0-7.214843 0-14.003906 2.8125-19.105468 7.914062-5.105469 5.105469-7.914063 11.890626-7.914063 19.109376s2.8125 14.003906 7.917969 19.109374c10.5 10.5 16.285156 24.457032 16.285156 39.308594v6.429688h-17.890625c-5.53125 0-10.015625 4.484375-10.015625 10.015625v41.855469c-17.035156 5.46875-33.136718 13.347656-48 23.480468h-48.777344c-5.523437 0-10.015624-4.492187-10.015624-10.015625 0-16.5625-13.472657-30.039062-30.039063-30.039062h-100.132813c-16.5625 0-30.039062 13.476562-30.039062 30.039062 0 16.566407 13.476562 30.042969 30.039062 30.042969h20.027344c5.519532 0 10.011719 4.492188 10.011719 10.011719 0 5.523437-4.492187 10.011719-10.011719 10.011719h-20.027344c-16.5625 0-30.039062 13.476562-30.039062 30.042968 0 16.5625 13.476562 30.039063 30.039062 30.039063h70.09375c11.042969 0 20.027344 8.984375 20.027344 20.027343 0 13.425782 6.648438 25.320313 16.816406 32.59375-.007812.769532-.023437 1.554688-.023437 2.3125 0 11.859376 1.117187 23.644532 3.308594 35.1875h-70.167969c-16.566406 0-30.039062 13.472657-30.039062 30.039063 0 16.5625 13.472656 30.039063 30.039062 30.039063h40.050781c5.523438 0 10.015625 4.492187 10.015625 10.011718 0 2.671875-1.042968 5.1875-2.933594 7.078125-1.894531 1.894531-4.410156 2.9375-7.082031 2.9375h-20.023437c-16.566406 0-30.042969 13.476563-30.042969 30.039063 0 8.019531 3.125 15.5625 8.800781 21.238281 5.675782 5.675781 13.21875 8.800781 21.242188 8.800781h167.84375c21.21875 8.058594 43.578125 12.15625 66.507812 12.15625 103.402344 0 187.527344-84.125 187.527344-187.527344 0-41.847656-13.484375-81.433593-38.992188-114.480468zm-180.226562-175.839844c-1.320312-1.320312-2.050781-3.078125-2.050781-4.945312 0-1.867188.730469-3.625 2.050781-4.945313 1.320312-1.324219 3.078125-2.050781 4.945312-2.050781 1.871094 0 3.625.730468 4.949219 2.050781 16.921875 16.925781 26.242188 39.433594 26.242188 63.371094v6.421875h-13.984375v-6.429688c0-20.199218-7.867188-39.191406-22.152344-53.472656zm-192.648438 215.359375h-70.09375c-5.519531 0-10.011718-4.492187-10.011718-10.011719 0-5.523437 4.492187-10.015625 10.011718-10.015625h20.027344c16.5625 0 30.039063-13.476562 30.039063-30.039062s-13.476563-30.039063-30.039063-30.039063h-20.027344c-5.519531 0-10.011718-4.492187-10.011718-10.015625 0-5.519531 4.492187-10.011719 10.011718-10.011719h100.132813c5.523437 0 10.015625 4.492188 10.015625 10.011719 0 16.566407 13.472656 30.042969 30.039062 30.042969h130.023438c11.042969 0 20.023438 8.984375 20.023438 20.023438 0 11.042968-8.980469 20.027343-20.023438 20.027343h-70.359375c-16.335937 0-29.625 13.289063-29.625 29.625 0 16.335938 13.289063 29.625 29.625 29.625h20.027344c5.75 0 10.429687 4.679688 10.429687 10.429688s-4.679687 10.429687-10.429687 10.429687h-89.707031c-11.039063 0-20.023438-8.984375-20.023438-20.027344 0-22.085937-17.96875-40.054687-40.054688-40.054687zm-17.089843 227.371094c-1.894531-1.890625-2.9375-4.40625-2.9375-7.078125 0-5.519532 4.492187-10.011719 10.015625-10.011719h20.023437c8.023438 0 15.566407-3.125 21.242188-8.804687 5.675781-5.675782 8.800781-13.214844 8.800781-21.238282 0-16.5625-13.476562-30.039062-30.042969-30.039062h-40.050781c-5.523438 0-10.015625-4.492188-10.015625-10.011719 0-5.523437 4.492187-10.015625 10.015625-10.015625h75.144531c12.625 41.023438 39.082031 76.332031 74.207031 100.132812h-129.324218c-2.671875 0-5.1875-1.039062-7.078125-2.933593zm241.429687 15.089843c-21.074218 0-41.605468-3.855468-61.027344-11.464843-49.710937-19.449219-87.460937-61.832031-100.988281-113.382813-3.214843-12.222656-5.023437-24.863281-5.398437-37.640625 1.042968.082031 2.089844.136719 3.152344.136719h89.707031c16.792969 0 30.453125-13.664062 30.453125-30.457031s-13.660156-30.457031-30.453125-30.457031h-20.027344c-5.292969 0-9.597656-4.304688-9.597656-9.597657 0-5.289062 4.304687-9.597656 9.597656-9.597656h70.359375c22.085938 0 40.050781-17.964844 40.050781-40.050781 0-22.085938-17.964843-40.054688-40.050781-40.054688h-39.203125c6.070313-2.480468 12.285156-4.613281 18.636719-6.367187 4.339844-1.203125 7.347656-5.152344 7.347656-9.652344v-39.304687h17.753906c.046875 0 .089844.007812.136719.007812h34.011719c.046875 0 .089844-.003906.136718-.007812h22.851563v39.304687c0 4.5 3.003906 8.449219 7.339844 9.648437 72.25 19.992188 122.710937 86.375 122.710937 161.4375 0 92.359376-75.140625 167.5-167.5 167.5zm0 0"/><path d="m444.574219 313.5c-5.53125 0-10.015625 4.484375-10.015625 10.011719 0 55.898437-45.476563 101.375-101.375 101.375-5.53125 0-10.011719 4.484375-10.011719 10.015625 0 5.527344 4.480469 10.011718 10.011719 10.011718 66.941406 0 121.402344-54.460937 121.402344-121.402343 0-5.527344-4.484376-10.011719-10.011719-10.011719zm0 0"/><path d="m432.242188 287.0625c.253906.609375.5625 1.191406.921874 1.730469.371094.550781.792969 1.0625 1.253907 1.523437.460937.460938.96875.878906 1.519531 1.238282.542969.363281 1.121094.671874 1.722656.921874.613282.25 1.242188.441407 1.875.570313.648438.132813 1.308594.199219 1.960938.199219s1.3125-.066406 1.953125-.199219c.640625-.128906 1.269531-.320313 1.871093-.570313.613282-.25 1.191407-.558593 1.734376-.921874.550781-.359376 1.058593-.777344 1.519531-1.238282.460937-.460937.882812-.972656 1.242187-1.523437.363282-.539063.671875-1.121094.921875-1.730469.25-.601562.441407-1.234375.570313-1.875.132812-.640625.199218-1.300781.199218-1.953125 0-.648437-.066406-1.3125-.199218-1.960937-.128906-.632813-.320313-1.261719-.570313-1.871094-.25-.601563-.558593-1.183594-.921875-1.722656-.359375-.550782-.78125-1.0625-1.242187-1.523438-.460938-.460938-.96875-.882812-1.519531-1.25-.542969-.363281-1.121094-.671875-1.734376-.921875-.601562-.25-1.230468-.441406-1.871093-.570313-1.292969-.261718-2.625-.261718-3.914063 0-.640625.128907-1.261718.320313-1.875.570313-.601562.25-1.179687.558594-1.722656.921875-.550781.367188-1.058594.789062-1.53125 1.25-.460938.460938-.871094.972656-1.242188 1.523438-.359374.539062-.667968 1.121093-.921874 1.722656-.25.609375-.4375 1.238281-.570313 1.871094-.128906.648437-.1875 1.3125-.1875 1.960937 0 .652344.058594 1.3125.1875 1.953125.132813.640625.320313 1.273438.570313 1.875zm0 0"/></svg>