<svg height="512pt" viewBox="0 -1 512.00017 512" width="512pt" xmlns="http://www.w3.org/2000/svg"><path d="m316.25 317.152344c.242188-.222656.480469-.460938.722656-.703125 9.453125-9.453125 16.722656-21.085938 20.976563-34.089844l164.023437 164.027344c-10.285156 10.445312-20.84375 18.65625-31.511718 24.964843h-.011719zm0 0" fill="#97b6bf"/><path d="m311.066406 364.566406-27.402344-27.402344c12.351563-4.171874 23.453126-11.078124 32.585938-20.011718l154.199219 154.199218c-101.597657 60.089844-213.925781-52.238281-213.925781-52.238281zm0 0" fill="#e3f7f7"/><path d="m10.027344 64.570312c10.289062-10.449218 20.84375-18.660156 31.511718-24.964843h.011719l154.199219 154.199219c-9.625 9.382812-17.054688 21.023437-21.457031 34.058593zm0 0" fill="#97b6bf"/><path d="m41.550781 39.605469c101.601563-60.089844 213.929688 52.238281 213.929688 52.238281l-54.554688 54.542969 27.371094 27.414062c-12.34375 4.171875-23.433594 11.089844-32.546875 20.003907zm0 0" fill="#e3f7f7"/><path d="m40.648438 469.417969 153.679687-153.691407c.230469.242188.460937.484376.699219.722657 9.457031 9.457031 21.085937 16.726562 34.089844 20.976562l-163.503907 163.503907c-10.445312-10.289063-18.65625-20.84375-24.964843-31.511719zm0 0" fill="#97b6bf"/><path d="m92.886719 255.476562 54.546875 54.546876 26.890625-26.84375c4.179687 12.34375 11.078125 23.433593 20.003906 32.546874l-153.679687 153.691407c-60.097657-101.601563 52.238281-213.941407 52.238281-213.941407zm0 0" fill="#e3f7f7"/><path d="m282.941406 173.550781 163.445313-163.523437c10.445312 10.285156 18.660156 20.84375 24.964843 31.511718l-153.675781 153.6875c-.222656-.238281-.460937-.480468-.703125-.722656-9.433594-9.441406-21.054687-16.703125-34.03125-20.953125zm0 0" fill="#97b6bf"/><path d="m317.675781 195.226562 153.675781-153.6875c60.101563 101.601563-52.238281 213.9375-52.238281 213.9375l-54.542969-54.554687-26.753906 27.273437c-4.160156-12.511718-11.109375-23.742187-20.140625-32.96875zm0 0" fill="#e3f7f7"/><path d="m174.324219 283.179688c4.179687 12.34375 11.078125 23.433593 20.003906 32.546874.230469.242188.460937.484376.699219.722657 9.457031 9.457031 21.085937 16.726562 34.089844 20.976562 8.464843 2.785157 17.5 4.28125 26.882812 4.28125 9.675781 0 18.980469-1.59375 27.664062-4.542969 12.683594-4.28125 24.042969-11.449218 33.308594-20.714843 9.453125-9.453125 16.722656-21.085938 20.976563-34.089844 2.785156-8.460937 4.28125-17.496094 4.28125-26.882813 0-9.535156-1.546875-18.707031-4.414063-27.28125-4.160156-12.511718-11.109375-23.742187-20.140625-32.96875-.222656-.238281-.460937-.480468-.703125-.722656-9.433594-9.441406-21.054687-16.703125-34.03125-20.953125-8.472656-2.796875-17.535156-4.300781-26.941406-4.300781-9.695312 0-19.011719 1.59375-27.703125 4.550781-25.367187 8.59375-45.429687 28.675781-54.003906 54.0625-2.9375 8.664063-4.523438 17.957031-4.523438 27.613281 0 9.695313 1.597657 19.011719 4.554688 27.703126zm81.675781-53.769532c7.199219 0 13.71875 2.917969 18.429688 7.636719 4.722656 4.714844 7.640624 11.230469 7.640624 18.429687 0 7.199219-2.917968 13.71875-7.640624 18.429688-4.710938 4.722656-11.230469 7.640625-18.429688 7.640625s-13.714844-2.917969-18.429688-7.640625c-4.722656-4.710938-7.640624-11.230469-7.640624-18.429688 0-14.398437 11.671874-26.066406 26.070312-26.066406zm0 0" fill="#4c5b7c"/><path d="m229.929688 255.476562c0-14.398437 11.671874-26.066406 26.070312-26.066406 7.199219 0 13.71875 2.917969 18.429688 7.636719 4.722656 4.714844 7.640624 11.230469 7.640624 18.429687 0 7.199219-2.917968 13.71875-7.640624 18.429688-4.710938 4.722656-11.230469 7.640625-18.429688 7.640625s-13.714844-2.917969-18.429688-7.640625c-4.722656-4.710938-7.640624-11.230469-7.640624-18.429688zm0 0" fill="#ff5d5d"/><path d="m509.0625 439.296875-159.839844-159.84375c2.003906-7.785156 3.035156-15.820313 3.035156-23.976563 0-8.324218-1.074218-16.527343-3.160156-24.460937l15.539063-15.84375 47.386719 47.394531c1.878906 1.882813 4.429687 2.9375 7.089843 2.9375 2.660157 0 5.210938-1.054687 7.089844-2.933594 2.988281-2.988281 73.171875-74.128906 72.863281-156.96875-.144531-38.460937-15.5-73.019531-45.644531-102.714843-3.925781-3.871094-10.234375-3.84375-14.128906.050781l-159.253907 159.335938c-7.808593-2.015626-15.863281-3.050782-24.039062-3.050782-8.460938 0-16.785156 1.105469-24.839844 3.257813l-16.0625-16.085938 47.46875-47.460937c1.882813-1.878906 2.9375-4.429688 2.9375-7.089844s-1.054687-5.207031-2.9375-7.089844c-2.980468-2.980468-73.808594-72.863281-156.421875-72.863281-.175781 0-.367187 0-.542969 0-38.460937.140625-73.019531 15.5-102.71875 45.640625-3.871093 3.933594-3.839843 10.257812.074219 14.148438l160.015625 159.070312c-2.132812 8.019531-3.226562 16.308594-3.226562 24.726562 0 8.460938 1.105468 16.789063 3.257812 24.839844l-15.566406 15.535156-47.460938-47.464843c-3.914062-3.914063-10.265624-3.914063-14.179687 0-2.988281 2.988281-73.171875 74.128906-72.863281 156.96875.144531 38.460937 15.5 73.019531 45.644531 102.714843 1.953125 1.925782 4.496094 2.886719 7.039063 2.886719 2.566406 0 5.132812-.980469 7.089843-2.9375l159.316407-159.320312c7.789062 2.003906 15.824218 3.035156 23.976562 3.035156 8.441406 0 16.757812-1.105469 24.800781-3.253906l16.085938 16.085937-47.453125 47.457032c-3.914063 3.914062-3.914063 10.261718 0 14.179687 2.980468 2.980469 73.808594 72.871094 156.421875 72.863281h.546875c38.457031-.144531 73.015625-15.5 102.714844-45.644531 3.863281-3.921875 3.839843-10.230469-.054688-14.125zm-62.832031-414.929687c4.59375 5.113281 8.707031 10.375 12.34375 15.773437l-62.308594 62.308594c-3.914063 3.914062-3.914063 10.265625 0 14.179687 1.957031 1.957032 4.523437 2.9375 7.089844 2.9375 2.566406 0 5.132812-.980468 7.089843-2.9375l58.308594-58.308594c6.746094 14.886719 10.183594 30.675782 10.257813 47.269532.265625 60.101562-43.144531 115.8125-60.21875 135.390625l-47.136719-47.148438c-1.878906-1.878906-4.429688-2.9375-7.089844-2.9375-.015625 0-.03125 0-.046875 0-2.679687.015625-5.238281 1.09375-7.113281 3.007813l-16.296875 16.617187c-2.769531-5.230469-6.019531-10.214843-9.699219-14.855469l22.125-22.125c3.914063-3.917968 3.914063-10.265624 0-14.183593-3.914062-3.914063-10.265625-3.914063-14.179687 0l-21.980469 21.980469c-5.210938-4.3125-10.871094-8.070313-16.851562-11.195313zm-340.09375 7.574218c59.890625 0 115.328125 43.199219 134.84375 60.21875l-47.144531 47.140625c-3.914063 3.910157-3.917969 10.253907-.007813 14.175781l16.992187 17.015626c-5.164062 2.757812-10.054687 5.96875-14.613281 9.59375l-137.886719-137.886719c14.886719-6.742188 30.679688-10.183594 47.269532-10.253907.183594-.003906.359375-.003906.546875-.003906zm-65.992188 20.441406 141.742188 141.742188c-4.171875 5.027344-7.84375 10.484375-10.929688 16.285156l-146.570312-145.703125c5.109375-4.585937 10.363281-8.691406 15.757812-12.324219zm25.628907 434.207032c-4.597657-5.113282-8.710938-10.375-12.347657-15.777344l62.308594-62.304688c3.914063-3.917968 3.914063-10.265624 0-14.183593-3.914063-3.914063-10.265625-3.914063-14.179687 0l-58.3125 58.3125c-6.742188-14.890625-10.183594-30.679688-10.257813-47.269531-.265625-60.101563 43.144531-115.816407 60.21875-135.394532l47.136719 47.140625c3.914062 3.910157 10.257812 3.914063 14.175781.003907l16.492187-16.464844c2.746094 5.148437 5.953126 10.058594 9.582032 14.636718l-22.128906 22.128907c-3.914063 3.914062-3.914063 10.261719 0 14.179687 1.960937 1.957032 4.527343 2.9375 7.089843 2.9375 2.566407 0 5.132813-.980468 7.089844-2.9375l21.984375-21.984375c5.226562 4.328125 10.90625 8.09375 16.898438 11.226563zm166.460937-158.695313c-11.257813-3.679687-21.667969-10.089843-30.117187-18.535156-.128907-.128906-.253907-.261719-.382813-.394531-.101563-.109375-.195313-.226563-.304687-.335938-.058594-.058594-.125-.109375-.1875-.167968-7.824219-8.089844-13.839844-17.914063-17.425782-28.511719-2.667968-7.832031-4.019531-16.066407-4.019531-24.472657 0-8.375 1.34375-16.582031 3.996094-24.40625 7.546875-22.347656 25.386719-40.210937 47.734375-47.777343 7.832031-2.667969 16.066406-4.019531 24.472656-4.019531 8.164062 0 16.167969 1.277343 23.820312 3.804687 11.246094 3.6875 21.640626 10.089844 30.0625 18.523437.132813.128907.257813.265626.390626.398438.097656.109375.191406.222656.296874.328125.058594.058594.121094.105469.179688.164063 7.921875 8.175781 13.980469 18.128906 17.558594 28.882812 2.582031 7.726562 3.890625 15.832031 3.890625 24.101562 0 8.144532-1.269531 16.136719-3.785157 23.765626-3.675781 11.257812-10.085937 21.671874-18.535156 30.117187-8.269531 8.269531-18.441406 14.597656-29.441406 18.3125-7.835938 2.660156-16.058594 4.007813-24.4375 4.007813-8.144531 0-16.132812-1.269532-23.765625-3.785157zm173.628906 151.117188c-59.890625 0-115.328125-43.195313-134.84375-60.21875l47.136719-47.136719c3.917969-3.914062 3.917969-10.265625 0-14.179688l-16.996094-17c5.148438-2.746093 10.066406-5.953124 14.652344-9.589843l137.867188 137.867187c-14.886719 6.746094-30.675782 10.183594-47.265626 10.253906-.1875.003907-.363281.003907-.550781.003907zm65.992188-20.441407-141.71875-141.71875c4.328125-5.226562 8.09375-10.90625 11.226562-16.898437l146.273438 146.273437c-5.117188 4.597657-10.378907 8.710938-15.78125 12.34375zm0 0"/><path d="m292.097656 255.476562c0-19.902343-16.191406-36.09375-36.097656-36.09375-19.902344 0-36.09375 16.191407-36.09375 36.09375 0 19.90625 16.191406 36.097657 36.09375 36.097657 19.90625 0 36.097656-16.191407 36.097656-36.097657zm-36.097656 16.042969c-8.84375 0-16.042969-7.195312-16.042969-16.042969 0-8.84375 7.199219-16.042968 16.042969-16.042968 8.847656 0 16.042969 7.199218 16.042969 16.042968 0 8.847657-7.195313 16.042969-16.042969 16.042969zm0 0"/><path d="m147.851562 367.414062c-.25-.601562-.5625-1.183593-.921874-1.734374-.371094-.539063-.78125-1.050782-1.242188-1.511719-.472656-.472657-.984375-.882813-1.535156-1.253907-.542969-.359374-1.121094-.671874-1.722656-.921874-.601563-.253907-1.234376-.441407-1.875-.570313-1.296876-.261719-2.628907-.261719-3.921876 0-.640624.128906-1.273437.316406-1.875.570313-.601562.25-1.195312.5625-1.734374.921874-.542969.371094-1.0625.78125-1.523438 1.253907-.460938.460937-.882812.972656-1.246094 1.511719-.359375.554687-.671875 1.136718-.921875 1.734374-.25.605469-.441406 1.234376-.570312 1.875-.128907.652344-.199219 1.304688-.199219 1.964844 0 .652344.070312 1.316406.199219 1.957032.128906.640624.320312 1.273437.570312 1.875.25.601562.5625 1.191406.921875 1.734374.363282.539063.785156 1.0625 1.246094 1.523438s.980469.882812 1.523438 1.242188c.539062.363281 1.132812.671874 1.734374.925781.601563.25 1.234376.4375 1.875.570312.640626.128907 1.304688.199219 1.953126.199219.664062 0 1.316406-.070312 1.96875-.199219.640624-.132812 1.261718-.320312 1.875-.570312.601562-.253907 1.179687-.5625 1.722656-.925781.550781-.359376 1.0625-.78125 1.535156-1.242188.460938-.460938.871094-.980469 1.242188-1.523438.359374-.542968.671874-1.132812.921874-1.734374.25-.601563.441407-1.234376.570313-1.875.132813-.644532.191406-1.304688.191406-1.957032 0-.660156-.058593-1.3125-.191406-1.964844-.128906-.640624-.320313-1.273437-.570313-1.875zm0 0"/><path d="m364.148438 143.539062c.25.601563.5625 1.183594.921874 1.726563.371094.550781.792969 1.0625 1.253907 1.523437.460937.460938.972656.882813 1.523437 1.253907.542969.359375 1.121094.671875 1.722656.921875.601563.25 1.234376.441406 1.875.570312.652344.132813 1.316407.191406 1.96875.191406.648438 0 1.3125-.0625 1.953126-.191406.640624-.128906 1.273437-.320312 1.875-.570312.601562-.25 1.195312-.5625 1.734374-.921875.550782-.371094 1.0625-.792969 1.523438-1.253907.460938-.460937.882812-.972656 1.246094-1.523437.359375-.542969.671875-1.125.921875-1.726563.25-.609374.441406-1.242187.570312-1.875.128907-.648437.199219-1.3125.199219-1.964843 0-.652344-.070312-1.3125-.199219-1.953125-.128906-.644532-.320312-1.277344-.570312-1.875-.25-.605469-.5625-1.195313-.921875-1.734375-.363282-.550781-.785156-1.0625-1.246094-1.523438-.460938-.464843-.972656-.882812-1.523438-1.246093-.539062-.359376-1.132812-.671876-1.734374-.921876-.601563-.25-1.234376-.441406-1.875-.570312-1.292969-.261719-2.625-.261719-3.921876 0-.640624.128906-1.273437.320312-1.875.570312-.601562.25-1.179687.5625-1.734374.921876-.539063.363281-1.0625.78125-1.523438 1.246093-.460938.460938-.871094.972657-1.242188 1.523438-.359374.539062-.671874 1.132812-.921874 1.734375-.25.601562-.441407 1.230468-.570313 1.875-.132813.640625-.191406 1.300781-.191406 1.953125 0 .652343.058593 1.316406.191406 1.964843.128906.632813.320313 1.265626.570313 1.875zm0 0"/></svg>