<svg height="512pt" viewBox="-15 0 512 512" width="512pt" xmlns="http://www.w3.org/2000/svg"><path d="m10.023438 10.023438h81.191406v491.953124h-81.191406zm0 0" fill="#4c5b7c"/><path d="m351.546875 289.648438-32.046875 79.910156 32.046875 79.910156-79.914063-32.042969-79.90625 32.042969 32.042969-79.910156-32.042969-79.910156 79.90625 32.042968zm0 0" fill="#77e5ab"/><path d="m91.214844 65.363281 40.09375 16.078125 79.90625-32.046875-32.042969 79.910157 32.042969 79.90625-79.90625-32.046876-40.09375 16.078126" fill="#ff6d6d"/><path d="m391.917969 339.289062h80.1875c5.535156 0 10.023437-4.488281 10.023437-10.023437s-4.488281-10.023437-10.023437-10.023437h-80.1875c-5.535157 0-10.023438 4.488281-10.023438 10.023437s4.488281 10.023437 10.023438 10.023437zm0 0"/><path d="m391.917969 379.390625h60.140625c5.535156 0 10.023437-4.488281 10.023437-10.023437 0-5.535157-4.488281-10.023438-10.023437-10.023438h-60.140625c-5.535157 0-10.023438 4.488281-10.023438 10.023438 0 5.535156 4.488281 10.023437 10.023438 10.023437zm0 0"/><path d="m472.105469 399.441406h-80.1875c-5.535157 0-10.023438 4.488282-10.023438 10.023438s4.488281 10.023437 10.023438 10.023437h80.1875c5.535156 0 10.023437-4.488281 10.023437-10.023437s-4.488281-10.023438-10.023437-10.023438zm0 0"/><path d="m361.308594 447.230469c-.011719-.054688-.027344-.109375-.039063-.164063-.125-.507812-.28125-1.007812-.488281-1.492187l-30.480469-76.015625 30.480469-76.019532c.203125-.484374.363281-.984374.488281-1.492187.015625-.054687.027344-.109375.039063-.164063.101562-.449218.179687-.902343.222656-1.359374 0-.011719 0-.023438 0-.03125.035156-.433594.039062-.867188.015625-1.296876 0-.074218-.003906-.152343-.007813-.226562-.03125-.445312-.085937-.886719-.175781-1.324219 0-.011719-.003906-.023437-.007812-.035156-.085938-.421875-.207031-.839844-.351563-1.25-.023437-.066406-.042968-.128906-.066406-.195313-.15625-.425781-.335938-.839843-.554688-1.242187 0 0 0 0 0-.003906-.203124-.378907-.441406-.746094-.695312-1.101563-.058594-.082031-.117188-.160156-.179688-.242187-.265624-.351563-.550781-.691407-.875-1.015625v-.003906c-.003906 0-.007812-.003907-.007812-.003907-.316406-.316406-.652344-.597656-.996094-.859375-.09375-.070312-.183594-.136718-.277344-.203125-.324218-.230469-.65625-.445312-1-.632812-.039062-.019531-.070312-.042969-.109374-.0625-.375-.203125-.765626-.367188-1.160157-.519531-.109375-.039063-.21875-.078126-.328125-.113282-.332031-.113281-.667968-.207031-1.007812-.28125-.085938-.019531-.167969-.046875-.253906-.0625-.390626-.078125-.785157-.125-1.179688-.15625-.148438-.011718-.292969-.015625-.441406-.019531-.308594-.011719-.617188-.007813-.929688.011719-.113281.007812-.230468.003906-.34375.015625-.398437.039062-.789062.105469-1.179687.191406-.132813.027344-.261719.0625-.394531.097656-.375.09375-.742188.207031-1.105469.347657-.035157.015624-.070313.019531-.105469.035156l-76.179688 30.546875-76.023437-30.484375c-.480469-.203125-.972656-.355469-1.46875-.480469-.066406-.015625-.128906-.03125-.195313-.046875-.441406-.097656-.886718-.175781-1.335937-.214844-.027344-.003906-.054687 0-.078125-.003906-.414062-.035156-.828125-.035156-1.242188-.019531-.085937.003906-.167968.007812-.253906.011719-.4375.03125-.875.085937-1.308594.171874-.019531.003907-.035156.011719-.054687.011719-.417969.089844-.824219.207031-1.230469.347657-.066406.023437-.132812.046874-.203125.070312-.820312.304688-1.609375.722656-2.34375 1.25-.082031.058594-.160156.113281-.234375.175781-.355468.269531-.699218.554688-1.019531.875 0 0 0 0-.003906.003907-.003907 0-.003907.003906-.007813.007812-.3125.316406-.59375.652344-.859375 1-.066406.085938-.132812.175781-.195312.265625-.238281.332031-.460938.675781-.652344 1.03125-.015625.023437-.03125.050781-.046875.074219-.203125.386718-.375.78125-.523438 1.183594-.039062.097656-.070312.195312-.105468.296874-.117188.351563-.21875.707032-.300782 1.066407-.015624.066406-.035156.132812-.046874.199219-.082032.402343-.128907.808593-.160157 1.214843-.007812.128907-.011719.257813-.019531.390625-.011719.335938-.007812.671875.015625 1.011719.003906.089844.003906.183594.011719.277344.039062.40625.109375.808593.195312 1.210937.027344.121094.058594.242188.089844.363282.097656.378906.214844.753906.355469 1.125.015625.03125.019531.066406.035156.101562l30.546875 76.179688-30.546875 76.179687c-.015625.03125-.019531.066406-.035156.097656-.140625.371094-.257813.746094-.355469 1.125-.03125.121094-.0625.242188-.089844.363281-.085937.402344-.15625.804688-.195312 1.210938-.007813.09375-.007813.1875-.011719.28125-.023437.335938-.027344.671875-.015625 1.011719.007812.128906.011719.257812.019531.386719.03125.40625.078125.8125.160157 1.214843.011718.066407.03125.132813.046874.199219.082032.359375.179688.71875.300782 1.070312.035156.097657.066406.195313.105468.292969.148438.402344.320313.800781.523438 1.183594.015625.027344.03125.050781.046875.074219.191406.355468.414063.699218.652344 1.03125.0625.089844.128906.179687.195312.265625.265625.347656.546875.683593.863281 1.003906 0 0 .003907.003906.003907.007813h.003906c.320313.320312.664063.605468 1.011719.875.082031.0625.167968.121093.25.183593.347656.246094.703125.476563 1.074218.679688.011719.003906.023438.011719.03125.015625.398438.214844.804688.390625 1.222657.542968.074219.03125.152343.054688.230469.082032.390624.132812.785156.25 1.183593.332031.03125.007813.0625.015625.09375.023437.425781.085938.859375.140626 1.289063.167969.09375.007813.183594.011719.277344.015625.140624.003906.28125.019532.421874.019532.265626 0 .53125-.019532.792969-.039063.03125-.003906.0625-.003906.097657-.003906.445312-.039063.886718-.117188 1.328124-.214844.066407-.015625.132813-.03125.199219-.050781.496094-.121094.992188-.277344 1.46875-.480469l76.023438-30.480469 76.179687 30.546875c1.207032.484375 2.472656.71875 3.726563.71875.839843 0 1.667969-.117187 2.476562-.320312.132813-.035157.265625-.0625.398438-.101563.097656-.027344.195312-.070312.292969-.101562.214843-.070313.425781-.136719.632812-.222656.046875-.019532.09375-.046876.136719-.0625.253906-.109376.507812-.222657.753906-.351563.035156-.019531.066406-.042969.101563-.0625.253906-.136719.503906-.28125.746093-.441406.085938-.058594.167969-.125.253907-.1875.183593-.128907.371093-.257813.546874-.402344.257813-.214844.511719-.441406.75-.679687h.003907c0-.003907 0-.003907 0-.003907.324219-.320312.609375-.664062.875-1.015625.0625-.078125.121093-.160156.179687-.238281.253906-.359375.492188-.722656.695313-1.105469.21875-.40625.398437-.820312.554687-1.242187.023438-.066407.042969-.132813.066406-.199219.144532-.410156.265626-.824219.351563-1.246094.003906-.011718.007813-.023437.007813-.035156.089843-.4375.144531-.878906.175781-1.324219.003906-.078125.003906-.152343.007812-.226562.023438-.433594.019531-.867188-.015625-1.296875 0-.007813 0-.019532 0-.03125-.042968-.453125-.125-.90625-.226562-1.359375zm-51.109375-73.941407 13.824219 34.476563-38.207032-38.207031 38.207032-38.207032-13.824219 34.476563c-.960938 2.394531-.960938 5.066406 0 7.460937zm-34.832031-42.296874 34.492187-13.832032-38.21875 38.222656-38.210937-38.214843 34.472656 13.824219c2.394531.960937 5.070312.960937 7.464844 0zm-42.296876 34.835937-13.832031-34.496094 38.226563 38.226563-38.226563 38.226562 13.832031-34.496094c.960938-2.394531.960938-5.066406 0-7.460937zm38.5625 41.574219c-1.265624 0-2.53125.238281-3.730468.71875l-34.472656 13.824218 38.210937-38.210937 38.21875 38.21875-34.492187-13.832031c-1.199219-.480469-2.464844-.71875-3.734376-.71875zm0 0"/><path d="m207.398438 218.480469c.328124.132812.664062.25 1 .347656.039062.011719.078124.019531.113281.027344.269531.078125.539062.144531.8125.195312.164062.035157.335937.050781.503906.074219.144531.019531.289063.046875.433594.0625.316406.03125.632812.046875.953125.046875.324218 0 .648437-.019531.972656-.046875.019531-.003906.042969-.007812.066406-.011719 1.578125-.164062 3.125-.699219 4.5-1.609375.007813-.007812.015625-.011718.023438-.019531.265625-.175781.523437-.367187.773437-.570313.261719-.214843.511719-.4375.75-.679687.324219-.320313.605469-.664063.875-1.011719.0625-.085937.125-.167968.1875-.253906.246094-.34375.476563-.699219.671875-1.066406.007813-.011719.019532-.027344.027344-.039063.207031-.394531.382812-.800781.535156-1.214843.03125-.082032.058594-.160157.085938-.242188.132812-.382812.242187-.765625.328125-1.160156.007812-.039063.019531-.078125.027343-.117188.085938-.417968.136719-.84375.167969-1.269531.003907-.101563.007813-.207031.011719-.308594.015625-.382812.015625-.765625-.015625-1.148437-.003906-.050782 0-.105469-.007813-.160156-.039062-.429688-.109374-.859376-.207031-1.28125-.019531-.089844-.042969-.179688-.066406-.269532-.113281-.460937-.253906-.917968-.4375-1.359375l-30.515625-76.089843 30.515625-76.09375c.183594-.441407.320313-.898438.4375-1.355469.023437-.09375.046875-.183594.066406-.273438.09375-.421875.167969-.847656.207031-1.28125.003907-.054687.003907-.105469.007813-.160156.027344-.382813.03125-.765625.015625-1.148437-.003906-.101563-.007812-.207032-.015625-.308594-.027344-.425782-.078125-.847656-.164063-1.269532-.007812-.039062-.019531-.078124-.03125-.117187-.082031-.390625-.191406-.777344-.324218-1.15625-.027344-.082031-.054688-.164063-.085938-.246094-.152344-.414062-.328125-.820312-.539062-1.210937-.003906-.015625-.015625-.027344-.023438-.042969-.199218-.367187-.425781-.71875-.675781-1.066406-.058594-.085938-.121094-.167969-.183594-.25-.269531-.351563-.554687-.695313-.875-1.015625-.316406-.316406-.660156-.601563-1.007812-.867188-.085938-.070312-.175781-.132812-.265625-.195312-.332032-.238282-.675782-.460938-1.027344-.652344-.027344-.011719-.054688-.03125-.078125-.046875-.386719-.207031-.785156-.375-1.1875-.527344-.097656-.035156-.191406-.066406-.285156-.101562-.359375-.121094-.722657-.222657-1.085938-.304688-.0625-.011719-.121093-.03125-.183593-.042969-.40625-.082031-.816407-.132812-1.230469-.160156-.121094-.011718-.238281-.015625-.359375-.019531-.359375-.011719-.714844-.007813-1.070313.015625-.074219.003906-.148437.003906-.222656.011719-.421875.039062-.839844.109375-1.253906.199219-.097657.023437-.199219.050781-.296875.074218-.457032.117188-.90625.253906-1.34375.433594l-76.09375 30.515625-30.070313-12.054687v-48.5625c0-5.535157-4.488281-10.023438-10.023437-10.023438h-81.191406c-5.535157 0-10.023438 4.488281-10.023438 10.023438v491.953124c0 5.535157 4.488281 10.023438 10.023438 10.023438h81.191406c5.535156 0 10.023437-4.488281 10.023437-10.023438v-301.953124l30.070313-12.058594zm-37.53125-85.445313 13.824218 34.472656-38.203125-38.203124 38.203125-38.207032-13.824218 34.472656c-.960938 2.398438-.960938 5.070313 0 7.464844zm-42.289063-42.292968c2.394531.960937 5.066406.960937 7.460937 0l34.484376-13.828126-38.207032 38.214844-30.078125-30.082031v-4.867187zm-26.339844 22.65625 15.902344 15.90625-15.902344 15.902343zm-40.726562 378.554687v-122.085937c0-5.535157-4.488281-10.023438-10.023438-10.023438-5.535156 0-10.023437 4.488281-10.023437 10.023438v122.085937h-20.417969v-471.90625h61.144531v471.90625zm67.066406-324.089844-26.339844 10.5625v-4.867187l30.078125-30.082032 38.207032 38.214844-34.484376-13.828125c-2.394531-.960937-5.070312-.960937-7.460937 0zm0 0"/><path d="m60.011719 325.945312c-.25-.613281-.5625-1.191406-.921875-1.734374-.371094-.550782-.792969-1.0625-1.253906-1.523438-2.324219-2.328125-5.785157-3.398438-9.042969-2.746094-.640625.128906-1.273438.328125-1.871094.578125-.613281.253907-1.195313.5625-1.734375.925781-.554688.359376-1.0625.78125-1.523438 1.242188-.460937.460938-.882812.972656-1.246093 1.523438-.359375.542968-.671875 1.121093-.921875 1.734374-.25.601563-.441406 1.230469-.570313 1.871094-.128906.644532-.199219 1.304688-.199219 1.957032 0 .648437.070313 1.3125.199219 1.953124.128907.640626.320313 1.273438.570313 1.875.25.609376.5625 1.191407.921875 1.734376.363281.550781.785156 1.0625 1.246093 1.523437.460938.460937.96875.882813 1.523438 1.242187.539062.359376 1.121094.671876 1.734375.921876.597656.25 1.230469.441406 1.871094.570312.644531.132812 1.304687.203125 1.957031.203125s1.3125-.070313 1.953125-.203125c.640625-.128906 1.273437-.320312 1.886719-.570312.597656-.25 1.179687-.5625 1.722656-.921876.550781-.359374 1.0625-.78125 1.523438-1.242187.460937-.460937.882812-.972656 1.253906-1.523437.359375-.542969.660156-1.125.910156-1.734376.261719-.601562.453125-1.234374.582031-1.875.128907-.640624.191407-1.304687.191407-1.953124 0-.652344-.0625-1.316407-.191407-1.957032-.128906-.636718-.320312-1.273437-.570312-1.871094zm0 0"/></svg>